<svg width="784" height="403" viewBox="0 0 784 403" fill="none" xmlns="http://www.w3.org/2000/svg">
<g filter="url(#filter0_d_129_739)">
<rect x="8" y="4" width="368" height="387" rx="8" fill="#2172FF" fill-opacity="0.8" shape-rendering="crispEdges"/>
</g>
<g filter="url(#filter1_d_129_739)">
<rect x="136" y="283" width="112" height="72" rx="8" fill="white" fill-opacity="0.75" shape-rendering="crispEdges"/>
</g>
<path d="M170.795 325V316.273H173.932V325H170.795ZM172.364 315.364C171.939 315.364 171.576 315.223 171.273 314.943C170.97 314.663 170.818 314.326 170.818 313.932C170.818 313.538 170.97 313.201 171.273 312.92C171.576 312.64 171.939 312.5 172.364 312.5C172.792 312.5 173.155 312.64 173.455 312.92C173.758 313.201 173.909 313.538 173.909 313.932C173.909 314.326 173.758 314.663 173.455 314.943C173.155 315.223 172.792 315.364 172.364 315.364ZM180.734 316.273V318.545H174.984V316.273H180.734ZM176.098 314.182H179.234V322.193C179.234 322.314 179.255 322.417 179.297 322.5C179.339 322.58 179.403 322.64 179.49 322.682C179.577 322.72 179.689 322.739 179.825 322.739C179.92 322.739 180.03 322.727 180.155 322.705C180.284 322.682 180.378 322.663 180.439 322.648L180.893 324.852C180.753 324.894 180.553 324.945 180.291 325.006C180.034 325.066 179.727 325.106 179.371 325.125C178.651 325.163 178.047 325.089 177.558 324.903C177.07 324.714 176.702 324.417 176.456 324.011C176.21 323.606 176.09 323.098 176.098 322.489V314.182ZM186.102 325.159C185.17 325.159 184.367 324.981 183.693 324.625C183.023 324.265 182.506 323.75 182.142 323.08C181.782 322.405 181.602 321.598 181.602 320.659C181.602 319.758 181.784 318.97 182.148 318.295C182.511 317.621 183.025 317.097 183.688 316.722C184.35 316.347 185.133 316.159 186.034 316.159C186.693 316.159 187.29 316.261 187.824 316.466C188.358 316.67 188.814 316.968 189.193 317.358C189.572 317.744 189.864 318.214 190.068 318.767C190.273 319.32 190.375 319.943 190.375 320.636V321.364H182.58V319.636H187.489C187.485 319.386 187.42 319.167 187.295 318.977C187.174 318.784 187.009 318.634 186.801 318.528C186.597 318.419 186.364 318.364 186.102 318.364C185.848 318.364 185.616 318.419 185.403 318.528C185.191 318.634 185.021 318.782 184.892 318.972C184.767 319.161 184.701 319.383 184.693 319.636V321.5C184.693 321.78 184.752 322.03 184.869 322.25C184.987 322.47 185.155 322.642 185.375 322.767C185.595 322.892 185.86 322.955 186.17 322.955C186.386 322.955 186.583 322.924 186.761 322.864C186.943 322.803 187.098 322.716 187.227 322.602C187.356 322.485 187.451 322.345 187.511 322.182H190.375C190.277 322.788 190.044 323.314 189.676 323.761C189.309 324.205 188.822 324.549 188.216 324.795C187.614 325.038 186.909 325.159 186.102 325.159ZM191.655 325V316.273H194.632V317.932H194.723C194.905 317.386 195.215 316.955 195.655 316.636C196.094 316.318 196.617 316.159 197.223 316.159C197.837 316.159 198.365 316.322 198.808 316.648C199.251 316.97 199.518 317.398 199.609 317.932H199.7C199.848 317.398 200.162 316.97 200.643 316.648C201.125 316.322 201.689 316.159 202.337 316.159C203.174 316.159 203.852 316.428 204.371 316.966C204.893 317.504 205.155 318.22 205.155 319.114V325H202.018V319.909C202.018 319.527 201.922 319.227 201.729 319.011C201.536 318.792 201.276 318.682 200.95 318.682C200.628 318.682 200.373 318.792 200.183 319.011C199.998 319.227 199.905 319.527 199.905 319.909V325H196.905V319.909C196.905 319.527 196.808 319.227 196.615 319.011C196.422 318.792 196.162 318.682 195.837 318.682C195.621 318.682 195.435 318.731 195.28 318.83C195.125 318.928 195.003 319.07 194.916 319.256C194.833 319.437 194.791 319.655 194.791 319.909V325H191.655Z" fill="#181818" fill-opacity="0.75"/>
<g filter="url(#filter2_d_129_739)">
<rect x="136" y="59" width="112" height="72" rx="8" fill="white" fill-opacity="0.75" shape-rendering="crispEdges"/>
</g>
<path d="M170.795 101V92.2727H173.932V101H170.795ZM172.364 91.3636C171.939 91.3636 171.576 91.2235 171.273 90.9432C170.97 90.6629 170.818 90.3258 170.818 89.9318C170.818 89.5379 170.97 89.2008 171.273 88.9205C171.576 88.6402 171.939 88.5 172.364 88.5C172.792 88.5 173.155 88.6402 173.455 88.9205C173.758 89.2008 173.909 89.5379 173.909 89.9318C173.909 90.3258 173.758 90.6629 173.455 90.9432C173.155 91.2235 172.792 91.3636 172.364 91.3636ZM180.734 92.2727V94.5455H174.984V92.2727H180.734ZM176.098 90.1818H179.234V98.1932C179.234 98.3144 179.255 98.4167 179.297 98.5C179.339 98.5795 179.403 98.6402 179.49 98.6818C179.577 98.7197 179.689 98.7386 179.825 98.7386C179.92 98.7386 180.03 98.7273 180.155 98.7045C180.284 98.6818 180.378 98.6629 180.439 98.6477L180.893 100.852C180.753 100.894 180.553 100.945 180.291 101.006C180.034 101.066 179.727 101.106 179.371 101.125C178.651 101.163 178.047 101.089 177.558 100.903C177.07 100.714 176.702 100.417 176.456 100.011C176.21 99.6061 176.09 99.0985 176.098 98.4886V90.1818ZM186.102 101.159C185.17 101.159 184.367 100.981 183.693 100.625C183.023 100.265 182.506 99.75 182.142 99.0795C181.782 98.4053 181.602 97.5985 181.602 96.6591C181.602 95.7576 181.784 94.9697 182.148 94.2955C182.511 93.6212 183.025 93.0966 183.688 92.7216C184.35 92.3466 185.133 92.1591 186.034 92.1591C186.693 92.1591 187.29 92.2614 187.824 92.4659C188.358 92.6705 188.814 92.9678 189.193 93.358C189.572 93.7443 189.864 94.214 190.068 94.767C190.273 95.3201 190.375 95.9432 190.375 96.6364V97.3636H182.58V95.6364H187.489C187.485 95.3864 187.42 95.1667 187.295 94.9773C187.174 94.7841 187.009 94.6345 186.801 94.5284C186.597 94.4186 186.364 94.3636 186.102 94.3636C185.848 94.3636 185.616 94.4186 185.403 94.5284C185.191 94.6345 185.021 94.7822 184.892 94.9716C184.767 95.161 184.701 95.3826 184.693 95.6364V97.5C184.693 97.7803 184.752 98.0303 184.869 98.25C184.987 98.4697 185.155 98.642 185.375 98.767C185.595 98.892 185.86 98.9545 186.17 98.9545C186.386 98.9545 186.583 98.9242 186.761 98.8636C186.943 98.803 187.098 98.7159 187.227 98.6023C187.356 98.4848 187.451 98.3447 187.511 98.1818H190.375C190.277 98.7879 190.044 99.3144 189.676 99.7614C189.309 100.205 188.822 100.549 188.216 100.795C187.614 101.038 186.909 101.159 186.102 101.159ZM191.655 101V92.2727H194.632V93.9318H194.723C194.905 93.3864 195.215 92.9545 195.655 92.6364C196.094 92.3182 196.617 92.1591 197.223 92.1591C197.837 92.1591 198.365 92.322 198.808 92.6477C199.251 92.9697 199.518 93.3977 199.609 93.9318H199.7C199.848 93.3977 200.162 92.9697 200.643 92.6477C201.125 92.322 201.689 92.1591 202.337 92.1591C203.174 92.1591 203.852 92.428 204.371 92.9659C204.893 93.5038 205.155 94.2197 205.155 95.1136V101H202.018V95.9091C202.018 95.5265 201.922 95.2273 201.729 95.0114C201.536 94.7917 201.276 94.6818 200.95 94.6818C200.628 94.6818 200.373 94.7917 200.183 95.0114C199.998 95.2273 199.905 95.5265 199.905 95.9091V101H196.905V95.9091C196.905 95.5265 196.808 95.2273 196.615 95.0114C196.422 94.7917 196.162 94.6818 195.837 94.6818C195.621 94.6818 195.435 94.7311 195.28 94.8295C195.125 94.928 195.003 95.0701 194.916 95.2557C194.833 95.4375 194.791 95.6553 194.791 95.9091V101H191.655Z" fill="#181818" fill-opacity="0.75"/>
<g filter="url(#filter3_d_129_739)">
<rect x="24" y="283" width="112" height="72" rx="8" fill="white" fill-opacity="0.75" shape-rendering="crispEdges"/>
</g>
<path d="M58.7955 325V316.273H61.9318V325H58.7955ZM60.3636 315.364C59.9394 315.364 59.5758 315.223 59.2727 314.943C58.9697 314.663 58.8182 314.326 58.8182 313.932C58.8182 313.538 58.9697 313.201 59.2727 312.92C59.5758 312.64 59.9394 312.5 60.3636 312.5C60.7917 312.5 61.1553 312.64 61.4545 312.92C61.7576 313.201 61.9091 313.538 61.9091 313.932C61.9091 314.326 61.7576 314.663 61.4545 314.943C61.1553 315.223 60.7917 315.364 60.3636 315.364ZM68.7344 316.273V318.545H62.9844V316.273H68.7344ZM64.098 314.182H67.2344V322.193C67.2344 322.314 67.2552 322.417 67.2969 322.5C67.3385 322.58 67.4029 322.64 67.4901 322.682C67.5772 322.72 67.6889 322.739 67.8253 322.739C67.92 322.739 68.0298 322.727 68.1548 322.705C68.2836 322.682 68.3783 322.663 68.4389 322.648L68.8935 324.852C68.7533 324.894 68.5526 324.945 68.2912 325.006C68.0336 325.066 67.7268 325.106 67.3707 325.125C66.651 325.163 66.0469 325.089 65.5582 324.903C65.0696 324.714 64.7022 324.417 64.456 324.011C64.2098 323.606 64.0904 323.098 64.098 322.489V314.182ZM74.1023 325.159C73.1705 325.159 72.3674 324.981 71.6932 324.625C71.0227 324.265 70.5057 323.75 70.142 323.08C69.7822 322.405 69.6023 321.598 69.6023 320.659C69.6023 319.758 69.7841 318.97 70.1477 318.295C70.5114 317.621 71.0246 317.097 71.6875 316.722C72.3504 316.347 73.1326 316.159 74.0341 316.159C74.6932 316.159 75.2898 316.261 75.8239 316.466C76.358 316.67 76.8144 316.968 77.1932 317.358C77.572 317.744 77.8636 318.214 78.0682 318.767C78.2727 319.32 78.375 319.943 78.375 320.636V321.364H70.5795V319.636H75.4886C75.4848 319.386 75.4205 319.167 75.2955 318.977C75.1742 318.784 75.0095 318.634 74.8011 318.528C74.5966 318.419 74.3636 318.364 74.1023 318.364C73.8485 318.364 73.6155 318.419 73.4034 318.528C73.1913 318.634 73.0208 318.782 72.892 318.972C72.767 319.161 72.7008 319.383 72.6932 319.636V321.5C72.6932 321.78 72.7519 322.03 72.8693 322.25C72.9867 322.47 73.1553 322.642 73.375 322.767C73.5947 322.892 73.8598 322.955 74.1705 322.955C74.3864 322.955 74.5833 322.924 74.7614 322.864C74.9432 322.803 75.0985 322.716 75.2273 322.602C75.3561 322.485 75.4508 322.345 75.5114 322.182H78.375C78.2765 322.788 78.0436 323.314 77.6761 323.761C77.3087 324.205 76.822 324.549 76.2159 324.795C75.6136 325.038 74.9091 325.159 74.1023 325.159ZM79.6548 325V316.273H82.6321V317.932H82.723C82.9048 317.386 83.2154 316.955 83.6548 316.636C84.0942 316.318 84.617 316.159 85.223 316.159C85.8366 316.159 86.3651 316.322 86.8082 316.648C87.2514 316.97 87.5185 317.398 87.6094 317.932H87.7003C87.848 317.398 88.1624 316.97 88.6435 316.648C89.1245 316.322 89.6889 316.159 90.3366 316.159C91.1738 316.159 91.8518 316.428 92.3707 316.966C92.8935 317.504 93.1548 318.22 93.1548 319.114V325H90.0185V319.909C90.0185 319.527 89.9219 319.227 89.7287 319.011C89.5355 318.792 89.276 318.682 88.9503 318.682C88.6283 318.682 88.3726 318.792 88.1832 319.011C87.9976 319.227 87.9048 319.527 87.9048 319.909V325H84.9048V319.909C84.9048 319.527 84.8082 319.227 84.6151 319.011C84.4219 318.792 84.1624 318.682 83.8366 318.682C83.6207 318.682 83.4351 318.731 83.2798 318.83C83.1245 318.928 83.0033 319.07 82.9162 319.256C82.8329 319.437 82.7912 319.655 82.7912 319.909V325H79.6548Z" fill="#181818" fill-opacity="0.75"/>
<g filter="url(#filter4_d_129_739)">
<rect x="24" y="59" width="112" height="72" rx="8" fill="white" fill-opacity="0.75" shape-rendering="crispEdges"/>
</g>
<path d="M58.7955 101V92.2727H61.9318V101H58.7955ZM60.3636 91.3636C59.9394 91.3636 59.5758 91.2235 59.2727 90.9432C58.9697 90.6629 58.8182 90.3258 58.8182 89.9318C58.8182 89.5379 58.9697 89.2008 59.2727 88.9205C59.5758 88.6402 59.9394 88.5 60.3636 88.5C60.7917 88.5 61.1553 88.6402 61.4545 88.9205C61.7576 89.2008 61.9091 89.5379 61.9091 89.9318C61.9091 90.3258 61.7576 90.6629 61.4545 90.9432C61.1553 91.2235 60.7917 91.3636 60.3636 91.3636ZM68.7344 92.2727V94.5455H62.9844V92.2727H68.7344ZM64.098 90.1818H67.2344V98.1932C67.2344 98.3144 67.2552 98.4167 67.2969 98.5C67.3385 98.5795 67.4029 98.6402 67.4901 98.6818C67.5772 98.7197 67.6889 98.7386 67.8253 98.7386C67.92 98.7386 68.0298 98.7273 68.1548 98.7045C68.2836 98.6818 68.3783 98.6629 68.4389 98.6477L68.8935 100.852C68.7533 100.894 68.5526 100.945 68.2912 101.006C68.0336 101.066 67.7268 101.106 67.3707 101.125C66.651 101.163 66.0469 101.089 65.5582 100.903C65.0696 100.714 64.7022 100.417 64.456 100.011C64.2098 99.6061 64.0904 99.0985 64.098 98.4886V90.1818ZM74.1023 101.159C73.1705 101.159 72.3674 100.981 71.6932 100.625C71.0227 100.265 70.5057 99.75 70.142 99.0795C69.7822 98.4053 69.6023 97.5985 69.6023 96.6591C69.6023 95.7576 69.7841 94.9697 70.1477 94.2955C70.5114 93.6212 71.0246 93.0966 71.6875 92.7216C72.3504 92.3466 73.1326 92.1591 74.0341 92.1591C74.6932 92.1591 75.2898 92.2614 75.8239 92.4659C76.358 92.6705 76.8144 92.9678 77.1932 93.358C77.572 93.7443 77.8636 94.214 78.0682 94.767C78.2727 95.3201 78.375 95.9432 78.375 96.6364V97.3636H70.5795V95.6364H75.4886C75.4848 95.3864 75.4205 95.1667 75.2955 94.9773C75.1742 94.7841 75.0095 94.6345 74.8011 94.5284C74.5966 94.4186 74.3636 94.3636 74.1023 94.3636C73.8485 94.3636 73.6155 94.4186 73.4034 94.5284C73.1913 94.6345 73.0208 94.7822 72.892 94.9716C72.767 95.161 72.7008 95.3826 72.6932 95.6364V97.5C72.6932 97.7803 72.7519 98.0303 72.8693 98.25C72.9867 98.4697 73.1553 98.642 73.375 98.767C73.5947 98.892 73.8598 98.9545 74.1705 98.9545C74.3864 98.9545 74.5833 98.9242 74.7614 98.8636C74.9432 98.803 75.0985 98.7159 75.2273 98.6023C75.3561 98.4848 75.4508 98.3447 75.5114 98.1818H78.375C78.2765 98.7879 78.0436 99.3144 77.6761 99.7614C77.3087 100.205 76.822 100.549 76.2159 100.795C75.6136 101.038 74.9091 101.159 74.1023 101.159ZM79.6548 101V92.2727H82.6321V93.9318H82.723C82.9048 93.3864 83.2154 92.9545 83.6548 92.6364C84.0942 92.3182 84.617 92.1591 85.223 92.1591C85.8366 92.1591 86.3651 92.322 86.8082 92.6477C87.2514 92.9697 87.5185 93.3977 87.6094 93.9318H87.7003C87.848 93.3977 88.1624 92.9697 88.6435 92.6477C89.1245 92.322 89.6889 92.1591 90.3366 92.1591C91.1738 92.1591 91.8518 92.428 92.3707 92.9659C92.8935 93.5038 93.1548 94.2197 93.1548 95.1136V101H90.0185V95.9091C90.0185 95.5265 89.9219 95.2273 89.7287 95.0114C89.5355 94.7917 89.276 94.6818 88.9503 94.6818C88.6283 94.6818 88.3726 94.7917 88.1832 95.0114C87.9976 95.2273 87.9048 95.5265 87.9048 95.9091V101H84.9048V95.9091C84.9048 95.5265 84.8082 95.2273 84.6151 95.0114C84.4219 94.7917 84.1624 94.6818 83.8366 94.6818C83.6207 94.6818 83.4351 94.7311 83.2798 94.8295C83.1245 94.928 83.0033 95.0701 82.9162 95.2557C82.8329 95.4375 82.7912 95.6553 82.7912 95.9091V101H79.6548Z" fill="#181818" fill-opacity="0.75"/>
<g filter="url(#filter5_d_129_739)">
<rect x="248" y="59" width="112" height="72" rx="8" fill="white" fill-opacity="0.75" shape-rendering="crispEdges"/>
</g>
<path d="M282.795 101V92.2727H285.932V101H282.795ZM284.364 91.3636C283.939 91.3636 283.576 91.2235 283.273 90.9432C282.97 90.6629 282.818 90.3258 282.818 89.9318C282.818 89.5379 282.97 89.2008 283.273 88.9205C283.576 88.6402 283.939 88.5 284.364 88.5C284.792 88.5 285.155 88.6402 285.455 88.9205C285.758 89.2008 285.909 89.5379 285.909 89.9318C285.909 90.3258 285.758 90.6629 285.455 90.9432C285.155 91.2235 284.792 91.3636 284.364 91.3636ZM292.734 92.2727V94.5455H286.984V92.2727H292.734ZM288.098 90.1818H291.234V98.1932C291.234 98.3144 291.255 98.4167 291.297 98.5C291.339 98.5795 291.403 98.6402 291.49 98.6818C291.577 98.7197 291.689 98.7386 291.825 98.7386C291.92 98.7386 292.03 98.7273 292.155 98.7045C292.284 98.6818 292.378 98.6629 292.439 98.6477L292.893 100.852C292.753 100.894 292.553 100.945 292.291 101.006C292.034 101.066 291.727 101.106 291.371 101.125C290.651 101.163 290.047 101.089 289.558 100.903C289.07 100.714 288.702 100.417 288.456 100.011C288.21 99.6061 288.09 99.0985 288.098 98.4886V90.1818ZM298.102 101.159C297.17 101.159 296.367 100.981 295.693 100.625C295.023 100.265 294.506 99.75 294.142 99.0795C293.782 98.4053 293.602 97.5985 293.602 96.6591C293.602 95.7576 293.784 94.9697 294.148 94.2955C294.511 93.6212 295.025 93.0966 295.688 92.7216C296.35 92.3466 297.133 92.1591 298.034 92.1591C298.693 92.1591 299.29 92.2614 299.824 92.4659C300.358 92.6705 300.814 92.9678 301.193 93.358C301.572 93.7443 301.864 94.214 302.068 94.767C302.273 95.3201 302.375 95.9432 302.375 96.6364V97.3636H294.58V95.6364H299.489C299.485 95.3864 299.42 95.1667 299.295 94.9773C299.174 94.7841 299.009 94.6345 298.801 94.5284C298.597 94.4186 298.364 94.3636 298.102 94.3636C297.848 94.3636 297.616 94.4186 297.403 94.5284C297.191 94.6345 297.021 94.7822 296.892 94.9716C296.767 95.161 296.701 95.3826 296.693 95.6364V97.5C296.693 97.7803 296.752 98.0303 296.869 98.25C296.987 98.4697 297.155 98.642 297.375 98.767C297.595 98.892 297.86 98.9545 298.17 98.9545C298.386 98.9545 298.583 98.9242 298.761 98.8636C298.943 98.803 299.098 98.7159 299.227 98.6023C299.356 98.4848 299.451 98.3447 299.511 98.1818H302.375C302.277 98.7879 302.044 99.3144 301.676 99.7614C301.309 100.205 300.822 100.549 300.216 100.795C299.614 101.038 298.909 101.159 298.102 101.159ZM303.655 101V92.2727H306.632V93.9318H306.723C306.905 93.3864 307.215 92.9545 307.655 92.6364C308.094 92.3182 308.617 92.1591 309.223 92.1591C309.837 92.1591 310.365 92.322 310.808 92.6477C311.251 92.9697 311.518 93.3977 311.609 93.9318H311.7C311.848 93.3977 312.162 92.9697 312.643 92.6477C313.125 92.322 313.689 92.1591 314.337 92.1591C315.174 92.1591 315.852 92.428 316.371 92.9659C316.893 93.5038 317.155 94.2197 317.155 95.1136V101H314.018V95.9091C314.018 95.5265 313.922 95.2273 313.729 95.0114C313.536 94.7917 313.276 94.6818 312.95 94.6818C312.628 94.6818 312.373 94.7917 312.183 95.0114C311.998 95.2273 311.905 95.5265 311.905 95.9091V101H308.905V95.9091C308.905 95.5265 308.808 95.2273 308.615 95.0114C308.422 94.7917 308.162 94.6818 307.837 94.6818C307.621 94.6818 307.435 94.7311 307.28 94.8295C307.125 94.928 307.003 95.0701 306.916 95.2557C306.833 95.4375 306.791 95.6553 306.791 95.9091V101H303.655Z" fill="#181818" fill-opacity="0.75"/>
<g filter="url(#filter6_d_129_739)">
<rect x="136" y="171" width="112" height="72" rx="8" fill="white" fill-opacity="0.75" shape-rendering="crispEdges"/>
</g>
<path d="M170.795 213V204.273H173.932V213H170.795ZM172.364 203.364C171.939 203.364 171.576 203.223 171.273 202.943C170.97 202.663 170.818 202.326 170.818 201.932C170.818 201.538 170.97 201.201 171.273 200.92C171.576 200.64 171.939 200.5 172.364 200.5C172.792 200.5 173.155 200.64 173.455 200.92C173.758 201.201 173.909 201.538 173.909 201.932C173.909 202.326 173.758 202.663 173.455 202.943C173.155 203.223 172.792 203.364 172.364 203.364ZM180.734 204.273V206.545H174.984V204.273H180.734ZM176.098 202.182H179.234V210.193C179.234 210.314 179.255 210.417 179.297 210.5C179.339 210.58 179.403 210.64 179.49 210.682C179.577 210.72 179.689 210.739 179.825 210.739C179.92 210.739 180.03 210.727 180.155 210.705C180.284 210.682 180.378 210.663 180.439 210.648L180.893 212.852C180.753 212.894 180.553 212.945 180.291 213.006C180.034 213.066 179.727 213.106 179.371 213.125C178.651 213.163 178.047 213.089 177.558 212.903C177.07 212.714 176.702 212.417 176.456 212.011C176.21 211.606 176.09 211.098 176.098 210.489V202.182ZM186.102 213.159C185.17 213.159 184.367 212.981 183.693 212.625C183.023 212.265 182.506 211.75 182.142 211.08C181.782 210.405 181.602 209.598 181.602 208.659C181.602 207.758 181.784 206.97 182.148 206.295C182.511 205.621 183.025 205.097 183.688 204.722C184.35 204.347 185.133 204.159 186.034 204.159C186.693 204.159 187.29 204.261 187.824 204.466C188.358 204.67 188.814 204.968 189.193 205.358C189.572 205.744 189.864 206.214 190.068 206.767C190.273 207.32 190.375 207.943 190.375 208.636V209.364H182.58V207.636H187.489C187.485 207.386 187.42 207.167 187.295 206.977C187.174 206.784 187.009 206.634 186.801 206.528C186.597 206.419 186.364 206.364 186.102 206.364C185.848 206.364 185.616 206.419 185.403 206.528C185.191 206.634 185.021 206.782 184.892 206.972C184.767 207.161 184.701 207.383 184.693 207.636V209.5C184.693 209.78 184.752 210.03 184.869 210.25C184.987 210.47 185.155 210.642 185.375 210.767C185.595 210.892 185.86 210.955 186.17 210.955C186.386 210.955 186.583 210.924 186.761 210.864C186.943 210.803 187.098 210.716 187.227 210.602C187.356 210.485 187.451 210.345 187.511 210.182H190.375C190.277 210.788 190.044 211.314 189.676 211.761C189.309 212.205 188.822 212.549 188.216 212.795C187.614 213.038 186.909 213.159 186.102 213.159ZM191.655 213V204.273H194.632V205.932H194.723C194.905 205.386 195.215 204.955 195.655 204.636C196.094 204.318 196.617 204.159 197.223 204.159C197.837 204.159 198.365 204.322 198.808 204.648C199.251 204.97 199.518 205.398 199.609 205.932H199.7C199.848 205.398 200.162 204.97 200.643 204.648C201.125 204.322 201.689 204.159 202.337 204.159C203.174 204.159 203.852 204.428 204.371 204.966C204.893 205.504 205.155 206.22 205.155 207.114V213H202.018V207.909C202.018 207.527 201.922 207.227 201.729 207.011C201.536 206.792 201.276 206.682 200.95 206.682C200.628 206.682 200.373 206.792 200.183 207.011C199.998 207.227 199.905 207.527 199.905 207.909V213H196.905V207.909C196.905 207.527 196.808 207.227 196.615 207.011C196.422 206.792 196.162 206.682 195.837 206.682C195.621 206.682 195.435 206.731 195.28 206.83C195.125 206.928 195.003 207.07 194.916 207.256C194.833 207.437 194.791 207.655 194.791 207.909V213H191.655Z" fill="#181818" fill-opacity="0.75"/>
<g filter="url(#filter7_d_129_739)">
<rect x="24" y="171" width="112" height="72" rx="8" fill="white" fill-opacity="0.75" shape-rendering="crispEdges"/>
</g>
<path d="M58.7955 213V204.273H61.9318V213H58.7955ZM60.3636 203.364C59.9394 203.364 59.5758 203.223 59.2727 202.943C58.9697 202.663 58.8182 202.326 58.8182 201.932C58.8182 201.538 58.9697 201.201 59.2727 200.92C59.5758 200.64 59.9394 200.5 60.3636 200.5C60.7917 200.5 61.1553 200.64 61.4545 200.92C61.7576 201.201 61.9091 201.538 61.9091 201.932C61.9091 202.326 61.7576 202.663 61.4545 202.943C61.1553 203.223 60.7917 203.364 60.3636 203.364ZM68.7344 204.273V206.545H62.9844V204.273H68.7344ZM64.098 202.182H67.2344V210.193C67.2344 210.314 67.2552 210.417 67.2969 210.5C67.3385 210.58 67.4029 210.64 67.4901 210.682C67.5772 210.72 67.6889 210.739 67.8253 210.739C67.92 210.739 68.0298 210.727 68.1548 210.705C68.2836 210.682 68.3783 210.663 68.4389 210.648L68.8935 212.852C68.7533 212.894 68.5526 212.945 68.2912 213.006C68.0336 213.066 67.7268 213.106 67.3707 213.125C66.651 213.163 66.0469 213.089 65.5582 212.903C65.0696 212.714 64.7022 212.417 64.456 212.011C64.2098 211.606 64.0904 211.098 64.098 210.489V202.182ZM74.1023 213.159C73.1705 213.159 72.3674 212.981 71.6932 212.625C71.0227 212.265 70.5057 211.75 70.142 211.08C69.7822 210.405 69.6023 209.598 69.6023 208.659C69.6023 207.758 69.7841 206.97 70.1477 206.295C70.5114 205.621 71.0246 205.097 71.6875 204.722C72.3504 204.347 73.1326 204.159 74.0341 204.159C74.6932 204.159 75.2898 204.261 75.8239 204.466C76.358 204.67 76.8144 204.968 77.1932 205.358C77.572 205.744 77.8636 206.214 78.0682 206.767C78.2727 207.32 78.375 207.943 78.375 208.636V209.364H70.5795V207.636H75.4886C75.4848 207.386 75.4205 207.167 75.2955 206.977C75.1742 206.784 75.0095 206.634 74.8011 206.528C74.5966 206.419 74.3636 206.364 74.1023 206.364C73.8485 206.364 73.6155 206.419 73.4034 206.528C73.1913 206.634 73.0208 206.782 72.892 206.972C72.767 207.161 72.7008 207.383 72.6932 207.636V209.5C72.6932 209.78 72.7519 210.03 72.8693 210.25C72.9867 210.47 73.1553 210.642 73.375 210.767C73.5947 210.892 73.8598 210.955 74.1705 210.955C74.3864 210.955 74.5833 210.924 74.7614 210.864C74.9432 210.803 75.0985 210.716 75.2273 210.602C75.3561 210.485 75.4508 210.345 75.5114 210.182H78.375C78.2765 210.788 78.0436 211.314 77.6761 211.761C77.3087 212.205 76.822 212.549 76.2159 212.795C75.6136 213.038 74.9091 213.159 74.1023 213.159ZM79.6548 213V204.273H82.6321V205.932H82.723C82.9048 205.386 83.2154 204.955 83.6548 204.636C84.0942 204.318 84.617 204.159 85.223 204.159C85.8366 204.159 86.3651 204.322 86.8082 204.648C87.2514 204.97 87.5185 205.398 87.6094 205.932H87.7003C87.848 205.398 88.1624 204.97 88.6435 204.648C89.1245 204.322 89.6889 204.159 90.3366 204.159C91.1738 204.159 91.8518 204.428 92.3707 204.966C92.8935 205.504 93.1548 206.22 93.1548 207.114V213H90.0185V207.909C90.0185 207.527 89.9219 207.227 89.7287 207.011C89.5355 206.792 89.276 206.682 88.9503 206.682C88.6283 206.682 88.3726 206.792 88.1832 207.011C87.9976 207.227 87.9048 207.527 87.9048 207.909V213H84.9048V207.909C84.9048 207.527 84.8082 207.227 84.6151 207.011C84.4219 206.792 84.1624 206.682 83.8366 206.682C83.6207 206.682 83.4351 206.731 83.2798 206.83C83.1245 206.928 83.0033 207.07 82.9162 207.256C82.8329 207.437 82.7912 207.655 82.7912 207.909V213H79.6548Z" fill="#181818" fill-opacity="0.75"/>
<g filter="url(#filter8_d_129_739)">
<rect x="248" y="171" width="112" height="72" rx="8" fill="white" fill-opacity="0.75" shape-rendering="crispEdges"/>
</g>
<path d="M282.795 213V204.273H285.932V213H282.795ZM284.364 203.364C283.939 203.364 283.576 203.223 283.273 202.943C282.97 202.663 282.818 202.326 282.818 201.932C282.818 201.538 282.97 201.201 283.273 200.92C283.576 200.64 283.939 200.5 284.364 200.5C284.792 200.5 285.155 200.64 285.455 200.92C285.758 201.201 285.909 201.538 285.909 201.932C285.909 202.326 285.758 202.663 285.455 202.943C285.155 203.223 284.792 203.364 284.364 203.364ZM292.734 204.273V206.545H286.984V204.273H292.734ZM288.098 202.182H291.234V210.193C291.234 210.314 291.255 210.417 291.297 210.5C291.339 210.58 291.403 210.64 291.49 210.682C291.577 210.72 291.689 210.739 291.825 210.739C291.92 210.739 292.03 210.727 292.155 210.705C292.284 210.682 292.378 210.663 292.439 210.648L292.893 212.852C292.753 212.894 292.553 212.945 292.291 213.006C292.034 213.066 291.727 213.106 291.371 213.125C290.651 213.163 290.047 213.089 289.558 212.903C289.07 212.714 288.702 212.417 288.456 212.011C288.21 211.606 288.09 211.098 288.098 210.489V202.182ZM298.102 213.159C297.17 213.159 296.367 212.981 295.693 212.625C295.023 212.265 294.506 211.75 294.142 211.08C293.782 210.405 293.602 209.598 293.602 208.659C293.602 207.758 293.784 206.97 294.148 206.295C294.511 205.621 295.025 205.097 295.688 204.722C296.35 204.347 297.133 204.159 298.034 204.159C298.693 204.159 299.29 204.261 299.824 204.466C300.358 204.67 300.814 204.968 301.193 205.358C301.572 205.744 301.864 206.214 302.068 206.767C302.273 207.32 302.375 207.943 302.375 208.636V209.364H294.58V207.636H299.489C299.485 207.386 299.42 207.167 299.295 206.977C299.174 206.784 299.009 206.634 298.801 206.528C298.597 206.419 298.364 206.364 298.102 206.364C297.848 206.364 297.616 206.419 297.403 206.528C297.191 206.634 297.021 206.782 296.892 206.972C296.767 207.161 296.701 207.383 296.693 207.636V209.5C296.693 209.78 296.752 210.03 296.869 210.25C296.987 210.47 297.155 210.642 297.375 210.767C297.595 210.892 297.86 210.955 298.17 210.955C298.386 210.955 298.583 210.924 298.761 210.864C298.943 210.803 299.098 210.716 299.227 210.602C299.356 210.485 299.451 210.345 299.511 210.182H302.375C302.277 210.788 302.044 211.314 301.676 211.761C301.309 212.205 300.822 212.549 300.216 212.795C299.614 213.038 298.909 213.159 298.102 213.159ZM303.655 213V204.273H306.632V205.932H306.723C306.905 205.386 307.215 204.955 307.655 204.636C308.094 204.318 308.617 204.159 309.223 204.159C309.837 204.159 310.365 204.322 310.808 204.648C311.251 204.97 311.518 205.398 311.609 205.932H311.7C311.848 205.398 312.162 204.97 312.643 204.648C313.125 204.322 313.689 204.159 314.337 204.159C315.174 204.159 315.852 204.428 316.371 204.966C316.893 205.504 317.155 206.22 317.155 207.114V213H314.018V207.909C314.018 207.527 313.922 207.227 313.729 207.011C313.536 206.792 313.276 206.682 312.95 206.682C312.628 206.682 312.373 206.792 312.183 207.011C311.998 207.227 311.905 207.527 311.905 207.909V213H308.905V207.909C308.905 207.527 308.808 207.227 308.615 207.011C308.422 206.792 308.162 206.682 307.837 206.682C307.621 206.682 307.435 206.731 307.28 206.83C307.125 206.928 307.003 207.07 306.916 207.256C306.833 207.437 306.791 207.655 306.791 207.909V213H303.655Z" fill="#181818" fill-opacity="0.75"/>
<g filter="url(#filter9_d_129_739)">
<rect x="248" y="283" width="112" height="72" rx="8" fill="white" fill-opacity="0.75" shape-rendering="crispEdges"/>
</g>
<path d="M282.795 325V316.273H285.932V325H282.795ZM284.364 315.364C283.939 315.364 283.576 315.223 283.273 314.943C282.97 314.663 282.818 314.326 282.818 313.932C282.818 313.538 282.97 313.201 283.273 312.92C283.576 312.64 283.939 312.5 284.364 312.5C284.792 312.5 285.155 312.64 285.455 312.92C285.758 313.201 285.909 313.538 285.909 313.932C285.909 314.326 285.758 314.663 285.455 314.943C285.155 315.223 284.792 315.364 284.364 315.364ZM292.734 316.273V318.545H286.984V316.273H292.734ZM288.098 314.182H291.234V322.193C291.234 322.314 291.255 322.417 291.297 322.5C291.339 322.58 291.403 322.64 291.49 322.682C291.577 322.72 291.689 322.739 291.825 322.739C291.92 322.739 292.03 322.727 292.155 322.705C292.284 322.682 292.378 322.663 292.439 322.648L292.893 324.852C292.753 324.894 292.553 324.945 292.291 325.006C292.034 325.066 291.727 325.106 291.371 325.125C290.651 325.163 290.047 325.089 289.558 324.903C289.07 324.714 288.702 324.417 288.456 324.011C288.21 323.606 288.09 323.098 288.098 322.489V314.182ZM298.102 325.159C297.17 325.159 296.367 324.981 295.693 324.625C295.023 324.265 294.506 323.75 294.142 323.08C293.782 322.405 293.602 321.598 293.602 320.659C293.602 319.758 293.784 318.97 294.148 318.295C294.511 317.621 295.025 317.097 295.688 316.722C296.35 316.347 297.133 316.159 298.034 316.159C298.693 316.159 299.29 316.261 299.824 316.466C300.358 316.67 300.814 316.968 301.193 317.358C301.572 317.744 301.864 318.214 302.068 318.767C302.273 319.32 302.375 319.943 302.375 320.636V321.364H294.58V319.636H299.489C299.485 319.386 299.42 319.167 299.295 318.977C299.174 318.784 299.009 318.634 298.801 318.528C298.597 318.419 298.364 318.364 298.102 318.364C297.848 318.364 297.616 318.419 297.403 318.528C297.191 318.634 297.021 318.782 296.892 318.972C296.767 319.161 296.701 319.383 296.693 319.636V321.5C296.693 321.78 296.752 322.03 296.869 322.25C296.987 322.47 297.155 322.642 297.375 322.767C297.595 322.892 297.86 322.955 298.17 322.955C298.386 322.955 298.583 322.924 298.761 322.864C298.943 322.803 299.098 322.716 299.227 322.602C299.356 322.485 299.451 322.345 299.511 322.182H302.375C302.277 322.788 302.044 323.314 301.676 323.761C301.309 324.205 300.822 324.549 300.216 324.795C299.614 325.038 298.909 325.159 298.102 325.159ZM303.655 325V316.273H306.632V317.932H306.723C306.905 317.386 307.215 316.955 307.655 316.636C308.094 316.318 308.617 316.159 309.223 316.159C309.837 316.159 310.365 316.322 310.808 316.648C311.251 316.97 311.518 317.398 311.609 317.932H311.7C311.848 317.398 312.162 316.97 312.643 316.648C313.125 316.322 313.689 316.159 314.337 316.159C315.174 316.159 315.852 316.428 316.371 316.966C316.893 317.504 317.155 318.22 317.155 319.114V325H314.018V319.909C314.018 319.527 313.922 319.227 313.729 319.011C313.536 318.792 313.276 318.682 312.95 318.682C312.628 318.682 312.373 318.792 312.183 319.011C311.998 319.227 311.905 319.527 311.905 319.909V325H308.905V319.909C308.905 319.527 308.808 319.227 308.615 319.011C308.422 318.792 308.162 318.682 307.837 318.682C307.621 318.682 307.435 318.731 307.28 318.83C307.125 318.928 307.003 319.07 306.916 319.256C306.833 319.437 306.791 319.655 306.791 319.909V325H303.655Z" fill="#181818" fill-opacity="0.75"/>
<path d="M167 27.1591C166.053 27.1591 165.242 26.9716 164.568 26.5966C163.894 26.2178 163.377 25.6913 163.017 25.017C162.657 24.339 162.477 23.553 162.477 22.6591C162.477 21.7652 162.657 20.9811 163.017 20.3068C163.377 19.6288 163.894 19.1023 164.568 18.7273C165.242 18.3485 166.053 18.1591 167 18.1591C167.856 18.1591 168.597 18.3144 169.222 18.625C169.85 18.9318 170.337 19.3674 170.682 19.9318C171.027 20.4924 171.201 21.1515 171.205 21.9091H168.295C168.254 21.4508 168.121 21.1023 167.898 20.8636C167.678 20.6212 167.394 20.5 167.045 20.5C166.773 20.5 166.534 20.5795 166.33 20.7386C166.125 20.8939 165.966 21.1307 165.852 21.4489C165.739 21.7633 165.682 22.1591 165.682 22.6364C165.682 23.1136 165.739 23.5114 165.852 23.8295C165.966 24.1439 166.125 24.3807 166.33 24.5398C166.534 24.6951 166.773 24.7727 167.045 24.7727C167.277 24.7727 167.481 24.7197 167.659 24.6136C167.837 24.5038 167.981 24.3447 168.091 24.1364C168.205 23.9242 168.273 23.6667 168.295 23.3636H171.205C171.193 24.1326 171.017 24.803 170.676 25.375C170.335 25.9432 169.852 26.3826 169.227 26.6932C168.606 27.0038 167.864 27.1591 167 27.1591ZM176.68 27.1591C175.749 27.1591 174.946 26.9811 174.271 26.625C173.601 26.2652 173.084 25.75 172.72 25.0795C172.36 24.4053 172.18 23.5985 172.18 22.6591C172.18 21.7576 172.362 20.9697 172.726 20.2955C173.089 19.6212 173.603 19.0966 174.266 18.7216C174.929 18.3466 175.711 18.1591 176.612 18.1591C177.271 18.1591 177.868 18.2614 178.402 18.4659C178.936 18.6705 179.393 18.9678 179.771 19.358C180.15 19.7443 180.442 20.214 180.646 20.767C180.851 21.3201 180.953 21.9432 180.953 22.6364V23.3636H173.158V21.6364H178.067C178.063 21.3864 177.999 21.1667 177.874 20.9773C177.752 20.7841 177.588 20.6345 177.379 20.5284C177.175 20.4186 176.942 20.3636 176.68 20.3636C176.427 20.3636 176.194 20.4186 175.982 20.5284C175.769 20.6345 175.599 20.7822 175.47 20.9716C175.345 21.161 175.279 21.3826 175.271 21.6364V23.5C175.271 23.7803 175.33 24.0303 175.447 24.25C175.565 24.4697 175.733 24.642 175.953 24.767C176.173 24.892 176.438 24.9545 176.749 24.9545C176.964 24.9545 177.161 24.9242 177.339 24.8636C177.521 24.803 177.677 24.7159 177.805 24.6023C177.934 24.4848 178.029 24.3447 178.089 24.1818H180.953C180.855 24.7879 180.622 25.3144 180.254 25.7614C179.887 26.2045 179.4 26.5492 178.794 26.7955C178.192 27.0379 177.487 27.1591 176.68 27.1591ZM185.369 22.0909V27H182.233V18.2727H185.21V19.9318H185.301C185.491 19.3788 185.824 18.9451 186.301 18.6307C186.782 18.3163 187.343 18.1591 187.983 18.1591C188.6 18.1591 189.136 18.3011 189.591 18.5852C190.049 18.8655 190.403 19.2519 190.653 19.7443C190.907 20.2367 191.032 20.7992 191.028 21.4318V27H187.892V22.0909C187.896 21.6591 187.786 21.3201 187.562 21.0739C187.343 20.8277 187.036 20.7045 186.642 20.7045C186.384 20.7045 186.159 20.7614 185.966 20.875C185.777 20.9848 185.631 21.1439 185.528 21.3523C185.426 21.5568 185.373 21.803 185.369 22.0909ZM197.781 18.2727V20.5455H192.031V18.2727H197.781ZM193.145 16.1818H196.281V24.1932C196.281 24.3144 196.302 24.4167 196.344 24.5C196.385 24.5795 196.45 24.6402 196.537 24.6818C196.624 24.7197 196.736 24.7386 196.872 24.7386C196.967 24.7386 197.077 24.7273 197.202 24.7045C197.33 24.6818 197.425 24.6629 197.486 24.6477L197.94 26.8523C197.8 26.8939 197.599 26.9451 197.338 27.0057C197.08 27.0663 196.774 27.1061 196.418 27.125C195.698 27.1629 195.094 27.089 194.605 26.9034C194.116 26.714 193.749 26.4167 193.503 26.0114C193.257 25.6061 193.137 25.0985 193.145 24.4886V16.1818ZM203.149 27.1591C202.217 27.1591 201.414 26.9811 200.74 26.625C200.07 26.2652 199.553 25.75 199.189 25.0795C198.829 24.4053 198.649 23.5985 198.649 22.6591C198.649 21.7576 198.831 20.9697 199.195 20.2955C199.558 19.6212 200.071 19.0966 200.734 18.7216C201.397 18.3466 202.179 18.1591 203.081 18.1591C203.74 18.1591 204.337 18.2614 204.871 18.4659C205.405 18.6705 205.861 18.9678 206.24 19.358C206.619 19.7443 206.911 20.214 207.115 20.767C207.32 21.3201 207.422 21.9432 207.422 22.6364V23.3636H199.626V21.6364H204.536C204.532 21.3864 204.467 21.1667 204.342 20.9773C204.221 20.7841 204.056 20.6345 203.848 20.5284C203.643 20.4186 203.411 20.3636 203.149 20.3636C202.895 20.3636 202.662 20.4186 202.45 20.5284C202.238 20.6345 202.068 20.7822 201.939 20.9716C201.814 21.161 201.748 21.3826 201.74 21.6364V23.5C201.74 23.7803 201.799 24.0303 201.916 24.25C202.034 24.4697 202.202 24.642 202.422 24.767C202.642 24.892 202.907 24.9545 203.217 24.9545C203.433 24.9545 203.63 24.9242 203.808 24.8636C203.99 24.803 204.145 24.7159 204.274 24.6023C204.403 24.4848 204.498 24.3447 204.558 24.1818H207.422C207.323 24.7879 207.09 25.3144 206.723 25.7614C206.356 26.2045 205.869 26.5492 205.263 26.7955C204.661 27.0379 203.956 27.1591 203.149 27.1591ZM208.702 27V18.2727H211.747V19.9318H211.838C211.997 19.3182 212.249 18.8693 212.594 18.5852C212.942 18.3011 213.349 18.1591 213.815 18.1591C213.952 18.1591 214.086 18.1705 214.219 18.1932C214.355 18.2121 214.486 18.2405 214.611 18.2784V20.9545C214.455 20.9015 214.264 20.8617 214.037 20.8352C213.81 20.8087 213.615 20.7955 213.452 20.7955C213.145 20.7955 212.868 20.8655 212.622 21.0057C212.38 21.142 212.188 21.3352 212.048 21.5852C211.908 21.8314 211.838 22.1212 211.838 22.4545V27H208.702Z" fill="#181818" fill-opacity="0.75"/>
<g filter="url(#filter10_d_129_739)">
<rect x="408" y="4" width="368" height="387" rx="8" fill="#2172FF" fill-opacity="0.8" shape-rendering="crispEdges"/>
</g>
<g filter="url(#filter11_d_129_739)">
<rect x="536" y="263" width="112" height="112" rx="8" fill="white" fill-opacity="0.75" shape-rendering="crispEdges"/>
</g>
<path d="M574.795 325V316.273H577.932V325H574.795ZM576.364 315.364C575.939 315.364 575.576 315.223 575.273 314.943C574.97 314.663 574.818 314.326 574.818 313.932C574.818 313.538 574.97 313.201 575.273 312.92C575.576 312.64 575.939 312.5 576.364 312.5C576.792 312.5 577.155 312.64 577.455 312.92C577.758 313.201 577.909 313.538 577.909 313.932C577.909 314.326 577.758 314.663 577.455 314.943C577.155 315.223 576.792 315.364 576.364 315.364ZM584.734 316.273V318.545H578.984V316.273H584.734ZM580.098 314.182H583.234V322.193C583.234 322.314 583.255 322.417 583.297 322.5C583.339 322.58 583.403 322.64 583.49 322.682C583.577 322.72 583.689 322.739 583.825 322.739C583.92 322.739 584.03 322.727 584.155 322.705C584.284 322.682 584.378 322.663 584.439 322.648L584.893 324.852C584.753 324.894 584.553 324.945 584.291 325.006C584.034 325.066 583.727 325.106 583.371 325.125C582.651 325.163 582.047 325.089 581.558 324.903C581.07 324.714 580.702 324.417 580.456 324.011C580.21 323.606 580.09 323.098 580.098 322.489V314.182ZM590.102 325.159C589.17 325.159 588.367 324.981 587.693 324.625C587.023 324.265 586.506 323.75 586.142 323.08C585.782 322.405 585.602 321.598 585.602 320.659C585.602 319.758 585.784 318.97 586.148 318.295C586.511 317.621 587.025 317.097 587.688 316.722C588.35 316.347 589.133 316.159 590.034 316.159C590.693 316.159 591.29 316.261 591.824 316.466C592.358 316.67 592.814 316.968 593.193 317.358C593.572 317.744 593.864 318.214 594.068 318.767C594.273 319.32 594.375 319.943 594.375 320.636V321.364H586.58V319.636H591.489C591.485 319.386 591.42 319.167 591.295 318.977C591.174 318.784 591.009 318.634 590.801 318.528C590.597 318.419 590.364 318.364 590.102 318.364C589.848 318.364 589.616 318.419 589.403 318.528C589.191 318.634 589.021 318.782 588.892 318.972C588.767 319.161 588.701 319.383 588.693 319.636V321.5C588.693 321.78 588.752 322.03 588.869 322.25C588.987 322.47 589.155 322.642 589.375 322.767C589.595 322.892 589.86 322.955 590.17 322.955C590.386 322.955 590.583 322.924 590.761 322.864C590.943 322.803 591.098 322.716 591.227 322.602C591.356 322.485 591.451 322.345 591.511 322.182H594.375C594.277 322.788 594.044 323.314 593.676 323.761C593.309 324.205 592.822 324.549 592.216 324.795C591.614 325.038 590.909 325.159 590.102 325.159ZM595.655 325V316.273H598.632V317.932H598.723C598.905 317.386 599.215 316.955 599.655 316.636C600.094 316.318 600.617 316.159 601.223 316.159C601.837 316.159 602.365 316.322 602.808 316.648C603.251 316.97 603.518 317.398 603.609 317.932H603.7C603.848 317.398 604.162 316.97 604.643 316.648C605.125 316.322 605.689 316.159 606.337 316.159C607.174 316.159 607.852 316.428 608.371 316.966C608.893 317.504 609.155 318.22 609.155 319.114V325H606.018V319.909C606.018 319.527 605.922 319.227 605.729 319.011C605.536 318.792 605.276 318.682 604.95 318.682C604.628 318.682 604.373 318.792 604.183 319.011C603.998 319.227 603.905 319.527 603.905 319.909V325H600.905V319.909C600.905 319.527 600.808 319.227 600.615 319.011C600.422 318.792 600.162 318.682 599.837 318.682C599.621 318.682 599.435 318.731 599.28 318.83C599.125 318.928 599.003 319.07 598.916 319.256C598.833 319.437 598.791 319.655 598.791 319.909V325H595.655Z" fill="#181818" fill-opacity="0.75"/>
<g filter="url(#filter12_d_129_739)">
<rect x="536" y="39" width="112" height="112" rx="8" fill="white" fill-opacity="0.75" shape-rendering="crispEdges"/>
</g>
<path d="M574.795 101V92.2727H577.932V101H574.795ZM576.364 91.3636C575.939 91.3636 575.576 91.2235 575.273 90.9432C574.97 90.6629 574.818 90.3258 574.818 89.9318C574.818 89.5379 574.97 89.2008 575.273 88.9205C575.576 88.6402 575.939 88.5 576.364 88.5C576.792 88.5 577.155 88.6402 577.455 88.9205C577.758 89.2008 577.909 89.5379 577.909 89.9318C577.909 90.3258 577.758 90.6629 577.455 90.9432C577.155 91.2235 576.792 91.3636 576.364 91.3636ZM584.734 92.2727V94.5455H578.984V92.2727H584.734ZM580.098 90.1818H583.234V98.1932C583.234 98.3144 583.255 98.4167 583.297 98.5C583.339 98.5795 583.403 98.6402 583.49 98.6818C583.577 98.7197 583.689 98.7386 583.825 98.7386C583.92 98.7386 584.03 98.7273 584.155 98.7045C584.284 98.6818 584.378 98.6629 584.439 98.6477L584.893 100.852C584.753 100.894 584.553 100.945 584.291 101.006C584.034 101.066 583.727 101.106 583.371 101.125C582.651 101.163 582.047 101.089 581.558 100.903C581.07 100.714 580.702 100.417 580.456 100.011C580.21 99.6061 580.09 99.0985 580.098 98.4886V90.1818ZM590.102 101.159C589.17 101.159 588.367 100.981 587.693 100.625C587.023 100.265 586.506 99.75 586.142 99.0795C585.782 98.4053 585.602 97.5985 585.602 96.6591C585.602 95.7576 585.784 94.9697 586.148 94.2955C586.511 93.6212 587.025 93.0966 587.688 92.7216C588.35 92.3466 589.133 92.1591 590.034 92.1591C590.693 92.1591 591.29 92.2614 591.824 92.4659C592.358 92.6705 592.814 92.9678 593.193 93.358C593.572 93.7443 593.864 94.214 594.068 94.767C594.273 95.3201 594.375 95.9432 594.375 96.6364V97.3636H586.58V95.6364H591.489C591.485 95.3864 591.42 95.1667 591.295 94.9773C591.174 94.7841 591.009 94.6345 590.801 94.5284C590.597 94.4186 590.364 94.3636 590.102 94.3636C589.848 94.3636 589.616 94.4186 589.403 94.5284C589.191 94.6345 589.021 94.7822 588.892 94.9716C588.767 95.161 588.701 95.3826 588.693 95.6364V97.5C588.693 97.7803 588.752 98.0303 588.869 98.25C588.987 98.4697 589.155 98.642 589.375 98.767C589.595 98.892 589.86 98.9545 590.17 98.9545C590.386 98.9545 590.583 98.9242 590.761 98.8636C590.943 98.803 591.098 98.7159 591.227 98.6023C591.356 98.4848 591.451 98.3447 591.511 98.1818H594.375C594.277 98.7879 594.044 99.3144 593.676 99.7614C593.309 100.205 592.822 100.549 592.216 100.795C591.614 101.038 590.909 101.159 590.102 101.159ZM595.655 101V92.2727H598.632V93.9318H598.723C598.905 93.3864 599.215 92.9545 599.655 92.6364C600.094 92.3182 600.617 92.1591 601.223 92.1591C601.837 92.1591 602.365 92.322 602.808 92.6477C603.251 92.9697 603.518 93.3977 603.609 93.9318H603.7C603.848 93.3977 604.162 92.9697 604.643 92.6477C605.125 92.322 605.689 92.1591 606.337 92.1591C607.174 92.1591 607.852 92.428 608.371 92.9659C608.893 93.5038 609.155 94.2197 609.155 95.1136V101H606.018V95.9091C606.018 95.5265 605.922 95.2273 605.729 95.0114C605.536 94.7917 605.276 94.6818 604.95 94.6818C604.628 94.6818 604.373 94.7917 604.183 95.0114C603.998 95.2273 603.905 95.5265 603.905 95.9091V101H600.905V95.9091C600.905 95.5265 600.808 95.2273 600.615 95.0114C600.422 94.7917 600.162 94.6818 599.837 94.6818C599.621 94.6818 599.435 94.7311 599.28 94.8295C599.125 94.928 599.003 95.0701 598.916 95.2557C598.833 95.4375 598.791 95.6553 598.791 95.9091V101H595.655Z" fill="#181818" fill-opacity="0.75"/>
<g filter="url(#filter13_d_129_739)">
<rect x="424" y="263" width="112" height="112" rx="8" fill="white" fill-opacity="0.75" shape-rendering="crispEdges"/>
</g>
<path d="M462.795 325V316.273H465.932V325H462.795ZM464.364 315.364C463.939 315.364 463.576 315.223 463.273 314.943C462.97 314.663 462.818 314.326 462.818 313.932C462.818 313.538 462.97 313.201 463.273 312.92C463.576 312.64 463.939 312.5 464.364 312.5C464.792 312.5 465.155 312.64 465.455 312.92C465.758 313.201 465.909 313.538 465.909 313.932C465.909 314.326 465.758 314.663 465.455 314.943C465.155 315.223 464.792 315.364 464.364 315.364ZM472.734 316.273V318.545H466.984V316.273H472.734ZM468.098 314.182H471.234V322.193C471.234 322.314 471.255 322.417 471.297 322.5C471.339 322.58 471.403 322.64 471.49 322.682C471.577 322.72 471.689 322.739 471.825 322.739C471.92 322.739 472.03 322.727 472.155 322.705C472.284 322.682 472.378 322.663 472.439 322.648L472.893 324.852C472.753 324.894 472.553 324.945 472.291 325.006C472.034 325.066 471.727 325.106 471.371 325.125C470.651 325.163 470.047 325.089 469.558 324.903C469.07 324.714 468.702 324.417 468.456 324.011C468.21 323.606 468.09 323.098 468.098 322.489V314.182ZM478.102 325.159C477.17 325.159 476.367 324.981 475.693 324.625C475.023 324.265 474.506 323.75 474.142 323.08C473.782 322.405 473.602 321.598 473.602 320.659C473.602 319.758 473.784 318.97 474.148 318.295C474.511 317.621 475.025 317.097 475.688 316.722C476.35 316.347 477.133 316.159 478.034 316.159C478.693 316.159 479.29 316.261 479.824 316.466C480.358 316.67 480.814 316.968 481.193 317.358C481.572 317.744 481.864 318.214 482.068 318.767C482.273 319.32 482.375 319.943 482.375 320.636V321.364H474.58V319.636H479.489C479.485 319.386 479.42 319.167 479.295 318.977C479.174 318.784 479.009 318.634 478.801 318.528C478.597 318.419 478.364 318.364 478.102 318.364C477.848 318.364 477.616 318.419 477.403 318.528C477.191 318.634 477.021 318.782 476.892 318.972C476.767 319.161 476.701 319.383 476.693 319.636V321.5C476.693 321.78 476.752 322.03 476.869 322.25C476.987 322.47 477.155 322.642 477.375 322.767C477.595 322.892 477.86 322.955 478.17 322.955C478.386 322.955 478.583 322.924 478.761 322.864C478.943 322.803 479.098 322.716 479.227 322.602C479.356 322.485 479.451 322.345 479.511 322.182H482.375C482.277 322.788 482.044 323.314 481.676 323.761C481.309 324.205 480.822 324.549 480.216 324.795C479.614 325.038 478.909 325.159 478.102 325.159ZM483.655 325V316.273H486.632V317.932H486.723C486.905 317.386 487.215 316.955 487.655 316.636C488.094 316.318 488.617 316.159 489.223 316.159C489.837 316.159 490.365 316.322 490.808 316.648C491.251 316.97 491.518 317.398 491.609 317.932H491.7C491.848 317.398 492.162 316.97 492.643 316.648C493.125 316.322 493.689 316.159 494.337 316.159C495.174 316.159 495.852 316.428 496.371 316.966C496.893 317.504 497.155 318.22 497.155 319.114V325H494.018V319.909C494.018 319.527 493.922 319.227 493.729 319.011C493.536 318.792 493.276 318.682 492.95 318.682C492.628 318.682 492.373 318.792 492.183 319.011C491.998 319.227 491.905 319.527 491.905 319.909V325H488.905V319.909C488.905 319.527 488.808 319.227 488.615 319.011C488.422 318.792 488.162 318.682 487.837 318.682C487.621 318.682 487.435 318.731 487.28 318.83C487.125 318.928 487.003 319.07 486.916 319.256C486.833 319.437 486.791 319.655 486.791 319.909V325H483.655Z" fill="#181818" fill-opacity="0.75"/>
<g filter="url(#filter14_d_129_739)">
<rect x="424" y="39" width="112" height="112" rx="8" fill="white" fill-opacity="0.75" shape-rendering="crispEdges"/>
</g>
<path d="M462.795 101V92.2727H465.932V101H462.795ZM464.364 91.3636C463.939 91.3636 463.576 91.2235 463.273 90.9432C462.97 90.6629 462.818 90.3258 462.818 89.9318C462.818 89.5379 462.97 89.2008 463.273 88.9205C463.576 88.6402 463.939 88.5 464.364 88.5C464.792 88.5 465.155 88.6402 465.455 88.9205C465.758 89.2008 465.909 89.5379 465.909 89.9318C465.909 90.3258 465.758 90.6629 465.455 90.9432C465.155 91.2235 464.792 91.3636 464.364 91.3636ZM472.734 92.2727V94.5455H466.984V92.2727H472.734ZM468.098 90.1818H471.234V98.1932C471.234 98.3144 471.255 98.4167 471.297 98.5C471.339 98.5795 471.403 98.6402 471.49 98.6818C471.577 98.7197 471.689 98.7386 471.825 98.7386C471.92 98.7386 472.03 98.7273 472.155 98.7045C472.284 98.6818 472.378 98.6629 472.439 98.6477L472.893 100.852C472.753 100.894 472.553 100.945 472.291 101.006C472.034 101.066 471.727 101.106 471.371 101.125C470.651 101.163 470.047 101.089 469.558 100.903C469.07 100.714 468.702 100.417 468.456 100.011C468.21 99.6061 468.09 99.0985 468.098 98.4886V90.1818ZM478.102 101.159C477.17 101.159 476.367 100.981 475.693 100.625C475.023 100.265 474.506 99.75 474.142 99.0795C473.782 98.4053 473.602 97.5985 473.602 96.6591C473.602 95.7576 473.784 94.9697 474.148 94.2955C474.511 93.6212 475.025 93.0966 475.688 92.7216C476.35 92.3466 477.133 92.1591 478.034 92.1591C478.693 92.1591 479.29 92.2614 479.824 92.4659C480.358 92.6705 480.814 92.9678 481.193 93.358C481.572 93.7443 481.864 94.214 482.068 94.767C482.273 95.3201 482.375 95.9432 482.375 96.6364V97.3636H474.58V95.6364H479.489C479.485 95.3864 479.42 95.1667 479.295 94.9773C479.174 94.7841 479.009 94.6345 478.801 94.5284C478.597 94.4186 478.364 94.3636 478.102 94.3636C477.848 94.3636 477.616 94.4186 477.403 94.5284C477.191 94.6345 477.021 94.7822 476.892 94.9716C476.767 95.161 476.701 95.3826 476.693 95.6364V97.5C476.693 97.7803 476.752 98.0303 476.869 98.25C476.987 98.4697 477.155 98.642 477.375 98.767C477.595 98.892 477.86 98.9545 478.17 98.9545C478.386 98.9545 478.583 98.9242 478.761 98.8636C478.943 98.803 479.098 98.7159 479.227 98.6023C479.356 98.4848 479.451 98.3447 479.511 98.1818H482.375C482.277 98.7879 482.044 99.3144 481.676 99.7614C481.309 100.205 480.822 100.549 480.216 100.795C479.614 101.038 478.909 101.159 478.102 101.159ZM483.655 101V92.2727H486.632V93.9318H486.723C486.905 93.3864 487.215 92.9545 487.655 92.6364C488.094 92.3182 488.617 92.1591 489.223 92.1591C489.837 92.1591 490.365 92.322 490.808 92.6477C491.251 92.9697 491.518 93.3977 491.609 93.9318H491.7C491.848 93.3977 492.162 92.9697 492.643 92.6477C493.125 92.322 493.689 92.1591 494.337 92.1591C495.174 92.1591 495.852 92.428 496.371 92.9659C496.893 93.5038 497.155 94.2197 497.155 95.1136V101H494.018V95.9091C494.018 95.5265 493.922 95.2273 493.729 95.0114C493.536 94.7917 493.276 94.6818 492.95 94.6818C492.628 94.6818 492.373 94.7917 492.183 95.0114C491.998 95.2273 491.905 95.5265 491.905 95.9091V101H488.905V95.9091C488.905 95.5265 488.808 95.2273 488.615 95.0114C488.422 94.7917 488.162 94.6818 487.837 94.6818C487.621 94.6818 487.435 94.7311 487.28 94.8295C487.125 94.928 487.003 95.0701 486.916 95.2557C486.833 95.4375 486.791 95.6553 486.791 95.9091V101H483.655Z" fill="#181818" fill-opacity="0.75"/>
<g filter="url(#filter15_d_129_739)">
<rect x="648" y="39" width="112" height="112" rx="8" fill="white" fill-opacity="0.75" shape-rendering="crispEdges"/>
</g>
<path d="M686.795 101V92.2727H689.932V101H686.795ZM688.364 91.3636C687.939 91.3636 687.576 91.2235 687.273 90.9432C686.97 90.6629 686.818 90.3258 686.818 89.9318C686.818 89.5379 686.97 89.2008 687.273 88.9205C687.576 88.6402 687.939 88.5 688.364 88.5C688.792 88.5 689.155 88.6402 689.455 88.9205C689.758 89.2008 689.909 89.5379 689.909 89.9318C689.909 90.3258 689.758 90.6629 689.455 90.9432C689.155 91.2235 688.792 91.3636 688.364 91.3636ZM696.734 92.2727V94.5455H690.984V92.2727H696.734ZM692.098 90.1818H695.234V98.1932C695.234 98.3144 695.255 98.4167 695.297 98.5C695.339 98.5795 695.403 98.6402 695.49 98.6818C695.577 98.7197 695.689 98.7386 695.825 98.7386C695.92 98.7386 696.03 98.7273 696.155 98.7045C696.284 98.6818 696.378 98.6629 696.439 98.6477L696.893 100.852C696.753 100.894 696.553 100.945 696.291 101.006C696.034 101.066 695.727 101.106 695.371 101.125C694.651 101.163 694.047 101.089 693.558 100.903C693.07 100.714 692.702 100.417 692.456 100.011C692.21 99.6061 692.09 99.0985 692.098 98.4886V90.1818ZM702.102 101.159C701.17 101.159 700.367 100.981 699.693 100.625C699.023 100.265 698.506 99.75 698.142 99.0795C697.782 98.4053 697.602 97.5985 697.602 96.6591C697.602 95.7576 697.784 94.9697 698.148 94.2955C698.511 93.6212 699.025 93.0966 699.688 92.7216C700.35 92.3466 701.133 92.1591 702.034 92.1591C702.693 92.1591 703.29 92.2614 703.824 92.4659C704.358 92.6705 704.814 92.9678 705.193 93.358C705.572 93.7443 705.864 94.214 706.068 94.767C706.273 95.3201 706.375 95.9432 706.375 96.6364V97.3636H698.58V95.6364H703.489C703.485 95.3864 703.42 95.1667 703.295 94.9773C703.174 94.7841 703.009 94.6345 702.801 94.5284C702.597 94.4186 702.364 94.3636 702.102 94.3636C701.848 94.3636 701.616 94.4186 701.403 94.5284C701.191 94.6345 701.021 94.7822 700.892 94.9716C700.767 95.161 700.701 95.3826 700.693 95.6364V97.5C700.693 97.7803 700.752 98.0303 700.869 98.25C700.987 98.4697 701.155 98.642 701.375 98.767C701.595 98.892 701.86 98.9545 702.17 98.9545C702.386 98.9545 702.583 98.9242 702.761 98.8636C702.943 98.803 703.098 98.7159 703.227 98.6023C703.356 98.4848 703.451 98.3447 703.511 98.1818H706.375C706.277 98.7879 706.044 99.3144 705.676 99.7614C705.309 100.205 704.822 100.549 704.216 100.795C703.614 101.038 702.909 101.159 702.102 101.159ZM707.655 101V92.2727H710.632V93.9318H710.723C710.905 93.3864 711.215 92.9545 711.655 92.6364C712.094 92.3182 712.617 92.1591 713.223 92.1591C713.837 92.1591 714.365 92.322 714.808 92.6477C715.251 92.9697 715.518 93.3977 715.609 93.9318H715.7C715.848 93.3977 716.162 92.9697 716.643 92.6477C717.125 92.322 717.689 92.1591 718.337 92.1591C719.174 92.1591 719.852 92.428 720.371 92.9659C720.893 93.5038 721.155 94.2197 721.155 95.1136V101H718.018V95.9091C718.018 95.5265 717.922 95.2273 717.729 95.0114C717.536 94.7917 717.276 94.6818 716.95 94.6818C716.628 94.6818 716.373 94.7917 716.183 95.0114C715.998 95.2273 715.905 95.5265 715.905 95.9091V101H712.905V95.9091C712.905 95.5265 712.808 95.2273 712.615 95.0114C712.422 94.7917 712.162 94.6818 711.837 94.6818C711.621 94.6818 711.435 94.7311 711.28 94.8295C711.125 94.928 711.003 95.0701 710.916 95.2557C710.833 95.4375 710.791 95.6553 710.791 95.9091V101H707.655Z" fill="#181818" fill-opacity="0.75"/>
<g filter="url(#filter16_d_129_739)">
<rect x="536" y="151" width="112" height="112" rx="8" fill="white" fill-opacity="0.75" shape-rendering="crispEdges"/>
</g>
<path d="M574.795 213V204.273H577.932V213H574.795ZM576.364 203.364C575.939 203.364 575.576 203.223 575.273 202.943C574.97 202.663 574.818 202.326 574.818 201.932C574.818 201.538 574.97 201.201 575.273 200.92C575.576 200.64 575.939 200.5 576.364 200.5C576.792 200.5 577.155 200.64 577.455 200.92C577.758 201.201 577.909 201.538 577.909 201.932C577.909 202.326 577.758 202.663 577.455 202.943C577.155 203.223 576.792 203.364 576.364 203.364ZM584.734 204.273V206.545H578.984V204.273H584.734ZM580.098 202.182H583.234V210.193C583.234 210.314 583.255 210.417 583.297 210.5C583.339 210.58 583.403 210.64 583.49 210.682C583.577 210.72 583.689 210.739 583.825 210.739C583.92 210.739 584.03 210.727 584.155 210.705C584.284 210.682 584.378 210.663 584.439 210.648L584.893 212.852C584.753 212.894 584.553 212.945 584.291 213.006C584.034 213.066 583.727 213.106 583.371 213.125C582.651 213.163 582.047 213.089 581.558 212.903C581.07 212.714 580.702 212.417 580.456 212.011C580.21 211.606 580.09 211.098 580.098 210.489V202.182ZM590.102 213.159C589.17 213.159 588.367 212.981 587.693 212.625C587.023 212.265 586.506 211.75 586.142 211.08C585.782 210.405 585.602 209.598 585.602 208.659C585.602 207.758 585.784 206.97 586.148 206.295C586.511 205.621 587.025 205.097 587.688 204.722C588.35 204.347 589.133 204.159 590.034 204.159C590.693 204.159 591.29 204.261 591.824 204.466C592.358 204.67 592.814 204.968 593.193 205.358C593.572 205.744 593.864 206.214 594.068 206.767C594.273 207.32 594.375 207.943 594.375 208.636V209.364H586.58V207.636H591.489C591.485 207.386 591.42 207.167 591.295 206.977C591.174 206.784 591.009 206.634 590.801 206.528C590.597 206.419 590.364 206.364 590.102 206.364C589.848 206.364 589.616 206.419 589.403 206.528C589.191 206.634 589.021 206.782 588.892 206.972C588.767 207.161 588.701 207.383 588.693 207.636V209.5C588.693 209.78 588.752 210.03 588.869 210.25C588.987 210.47 589.155 210.642 589.375 210.767C589.595 210.892 589.86 210.955 590.17 210.955C590.386 210.955 590.583 210.924 590.761 210.864C590.943 210.803 591.098 210.716 591.227 210.602C591.356 210.485 591.451 210.345 591.511 210.182H594.375C594.277 210.788 594.044 211.314 593.676 211.761C593.309 212.205 592.822 212.549 592.216 212.795C591.614 213.038 590.909 213.159 590.102 213.159ZM595.655 213V204.273H598.632V205.932H598.723C598.905 205.386 599.215 204.955 599.655 204.636C600.094 204.318 600.617 204.159 601.223 204.159C601.837 204.159 602.365 204.322 602.808 204.648C603.251 204.97 603.518 205.398 603.609 205.932H603.7C603.848 205.398 604.162 204.97 604.643 204.648C605.125 204.322 605.689 204.159 606.337 204.159C607.174 204.159 607.852 204.428 608.371 204.966C608.893 205.504 609.155 206.22 609.155 207.114V213H606.018V207.909C606.018 207.527 605.922 207.227 605.729 207.011C605.536 206.792 605.276 206.682 604.95 206.682C604.628 206.682 604.373 206.792 604.183 207.011C603.998 207.227 603.905 207.527 603.905 207.909V213H600.905V207.909C600.905 207.527 600.808 207.227 600.615 207.011C600.422 206.792 600.162 206.682 599.837 206.682C599.621 206.682 599.435 206.731 599.28 206.83C599.125 206.928 599.003 207.07 598.916 207.256C598.833 207.437 598.791 207.655 598.791 207.909V213H595.655Z" fill="#181818" fill-opacity="0.75"/>
<g filter="url(#filter17_d_129_739)">
<rect x="424" y="151" width="112" height="112" rx="8" fill="white" fill-opacity="0.75" shape-rendering="crispEdges"/>
</g>
<path d="M462.795 213V204.273H465.932V213H462.795ZM464.364 203.364C463.939 203.364 463.576 203.223 463.273 202.943C462.97 202.663 462.818 202.326 462.818 201.932C462.818 201.538 462.97 201.201 463.273 200.92C463.576 200.64 463.939 200.5 464.364 200.5C464.792 200.5 465.155 200.64 465.455 200.92C465.758 201.201 465.909 201.538 465.909 201.932C465.909 202.326 465.758 202.663 465.455 202.943C465.155 203.223 464.792 203.364 464.364 203.364ZM472.734 204.273V206.545H466.984V204.273H472.734ZM468.098 202.182H471.234V210.193C471.234 210.314 471.255 210.417 471.297 210.5C471.339 210.58 471.403 210.64 471.49 210.682C471.577 210.72 471.689 210.739 471.825 210.739C471.92 210.739 472.03 210.727 472.155 210.705C472.284 210.682 472.378 210.663 472.439 210.648L472.893 212.852C472.753 212.894 472.553 212.945 472.291 213.006C472.034 213.066 471.727 213.106 471.371 213.125C470.651 213.163 470.047 213.089 469.558 212.903C469.07 212.714 468.702 212.417 468.456 212.011C468.21 211.606 468.09 211.098 468.098 210.489V202.182ZM478.102 213.159C477.17 213.159 476.367 212.981 475.693 212.625C475.023 212.265 474.506 211.75 474.142 211.08C473.782 210.405 473.602 209.598 473.602 208.659C473.602 207.758 473.784 206.97 474.148 206.295C474.511 205.621 475.025 205.097 475.688 204.722C476.35 204.347 477.133 204.159 478.034 204.159C478.693 204.159 479.29 204.261 479.824 204.466C480.358 204.67 480.814 204.968 481.193 205.358C481.572 205.744 481.864 206.214 482.068 206.767C482.273 207.32 482.375 207.943 482.375 208.636V209.364H474.58V207.636H479.489C479.485 207.386 479.42 207.167 479.295 206.977C479.174 206.784 479.009 206.634 478.801 206.528C478.597 206.419 478.364 206.364 478.102 206.364C477.848 206.364 477.616 206.419 477.403 206.528C477.191 206.634 477.021 206.782 476.892 206.972C476.767 207.161 476.701 207.383 476.693 207.636V209.5C476.693 209.78 476.752 210.03 476.869 210.25C476.987 210.47 477.155 210.642 477.375 210.767C477.595 210.892 477.86 210.955 478.17 210.955C478.386 210.955 478.583 210.924 478.761 210.864C478.943 210.803 479.098 210.716 479.227 210.602C479.356 210.485 479.451 210.345 479.511 210.182H482.375C482.277 210.788 482.044 211.314 481.676 211.761C481.309 212.205 480.822 212.549 480.216 212.795C479.614 213.038 478.909 213.159 478.102 213.159ZM483.655 213V204.273H486.632V205.932H486.723C486.905 205.386 487.215 204.955 487.655 204.636C488.094 204.318 488.617 204.159 489.223 204.159C489.837 204.159 490.365 204.322 490.808 204.648C491.251 204.97 491.518 205.398 491.609 205.932H491.7C491.848 205.398 492.162 204.97 492.643 204.648C493.125 204.322 493.689 204.159 494.337 204.159C495.174 204.159 495.852 204.428 496.371 204.966C496.893 205.504 497.155 206.22 497.155 207.114V213H494.018V207.909C494.018 207.527 493.922 207.227 493.729 207.011C493.536 206.792 493.276 206.682 492.95 206.682C492.628 206.682 492.373 206.792 492.183 207.011C491.998 207.227 491.905 207.527 491.905 207.909V213H488.905V207.909C488.905 207.527 488.808 207.227 488.615 207.011C488.422 206.792 488.162 206.682 487.837 206.682C487.621 206.682 487.435 206.731 487.28 206.83C487.125 206.928 487.003 207.07 486.916 207.256C486.833 207.437 486.791 207.655 486.791 207.909V213H483.655Z" fill="#181818" fill-opacity="0.75"/>
<g filter="url(#filter18_d_129_739)">
<rect x="648" y="151" width="112" height="112" rx="8" fill="white" fill-opacity="0.75" shape-rendering="crispEdges"/>
</g>
<path d="M686.795 213V204.273H689.932V213H686.795ZM688.364 203.364C687.939 203.364 687.576 203.223 687.273 202.943C686.97 202.663 686.818 202.326 686.818 201.932C686.818 201.538 686.97 201.201 687.273 200.92C687.576 200.64 687.939 200.5 688.364 200.5C688.792 200.5 689.155 200.64 689.455 200.92C689.758 201.201 689.909 201.538 689.909 201.932C689.909 202.326 689.758 202.663 689.455 202.943C689.155 203.223 688.792 203.364 688.364 203.364ZM696.734 204.273V206.545H690.984V204.273H696.734ZM692.098 202.182H695.234V210.193C695.234 210.314 695.255 210.417 695.297 210.5C695.339 210.58 695.403 210.64 695.49 210.682C695.577 210.72 695.689 210.739 695.825 210.739C695.92 210.739 696.03 210.727 696.155 210.705C696.284 210.682 696.378 210.663 696.439 210.648L696.893 212.852C696.753 212.894 696.553 212.945 696.291 213.006C696.034 213.066 695.727 213.106 695.371 213.125C694.651 213.163 694.047 213.089 693.558 212.903C693.07 212.714 692.702 212.417 692.456 212.011C692.21 211.606 692.09 211.098 692.098 210.489V202.182ZM702.102 213.159C701.17 213.159 700.367 212.981 699.693 212.625C699.023 212.265 698.506 211.75 698.142 211.08C697.782 210.405 697.602 209.598 697.602 208.659C697.602 207.758 697.784 206.97 698.148 206.295C698.511 205.621 699.025 205.097 699.688 204.722C700.35 204.347 701.133 204.159 702.034 204.159C702.693 204.159 703.29 204.261 703.824 204.466C704.358 204.67 704.814 204.968 705.193 205.358C705.572 205.744 705.864 206.214 706.068 206.767C706.273 207.32 706.375 207.943 706.375 208.636V209.364H698.58V207.636H703.489C703.485 207.386 703.42 207.167 703.295 206.977C703.174 206.784 703.009 206.634 702.801 206.528C702.597 206.419 702.364 206.364 702.102 206.364C701.848 206.364 701.616 206.419 701.403 206.528C701.191 206.634 701.021 206.782 700.892 206.972C700.767 207.161 700.701 207.383 700.693 207.636V209.5C700.693 209.78 700.752 210.03 700.869 210.25C700.987 210.47 701.155 210.642 701.375 210.767C701.595 210.892 701.86 210.955 702.17 210.955C702.386 210.955 702.583 210.924 702.761 210.864C702.943 210.803 703.098 210.716 703.227 210.602C703.356 210.485 703.451 210.345 703.511 210.182H706.375C706.277 210.788 706.044 211.314 705.676 211.761C705.309 212.205 704.822 212.549 704.216 212.795C703.614 213.038 702.909 213.159 702.102 213.159ZM707.655 213V204.273H710.632V205.932H710.723C710.905 205.386 711.215 204.955 711.655 204.636C712.094 204.318 712.617 204.159 713.223 204.159C713.837 204.159 714.365 204.322 714.808 204.648C715.251 204.97 715.518 205.398 715.609 205.932H715.7C715.848 205.398 716.162 204.97 716.643 204.648C717.125 204.322 717.689 204.159 718.337 204.159C719.174 204.159 719.852 204.428 720.371 204.966C720.893 205.504 721.155 206.22 721.155 207.114V213H718.018V207.909C718.018 207.527 717.922 207.227 717.729 207.011C717.536 206.792 717.276 206.682 716.95 206.682C716.628 206.682 716.373 206.792 716.183 207.011C715.998 207.227 715.905 207.527 715.905 207.909V213H712.905V207.909C712.905 207.527 712.808 207.227 712.615 207.011C712.422 206.792 712.162 206.682 711.837 206.682C711.621 206.682 711.435 206.731 711.28 206.83C711.125 206.928 711.003 207.07 710.916 207.256C710.833 207.437 710.791 207.655 710.791 207.909V213H707.655Z" fill="#181818" fill-opacity="0.75"/>
<g filter="url(#filter19_d_129_739)">
<rect x="648" y="263" width="112" height="112" rx="8" fill="white" fill-opacity="0.75" shape-rendering="crispEdges"/>
</g>
<path d="M686.795 325V316.273H689.932V325H686.795ZM688.364 315.364C687.939 315.364 687.576 315.223 687.273 314.943C686.97 314.663 686.818 314.326 686.818 313.932C686.818 313.538 686.97 313.201 687.273 312.92C687.576 312.64 687.939 312.5 688.364 312.5C688.792 312.5 689.155 312.64 689.455 312.92C689.758 313.201 689.909 313.538 689.909 313.932C689.909 314.326 689.758 314.663 689.455 314.943C689.155 315.223 688.792 315.364 688.364 315.364ZM696.734 316.273V318.545H690.984V316.273H696.734ZM692.098 314.182H695.234V322.193C695.234 322.314 695.255 322.417 695.297 322.5C695.339 322.58 695.403 322.64 695.49 322.682C695.577 322.72 695.689 322.739 695.825 322.739C695.92 322.739 696.03 322.727 696.155 322.705C696.284 322.682 696.378 322.663 696.439 322.648L696.893 324.852C696.753 324.894 696.553 324.945 696.291 325.006C696.034 325.066 695.727 325.106 695.371 325.125C694.651 325.163 694.047 325.089 693.558 324.903C693.07 324.714 692.702 324.417 692.456 324.011C692.21 323.606 692.09 323.098 692.098 322.489V314.182ZM702.102 325.159C701.17 325.159 700.367 324.981 699.693 324.625C699.023 324.265 698.506 323.75 698.142 323.08C697.782 322.405 697.602 321.598 697.602 320.659C697.602 319.758 697.784 318.97 698.148 318.295C698.511 317.621 699.025 317.097 699.688 316.722C700.35 316.347 701.133 316.159 702.034 316.159C702.693 316.159 703.29 316.261 703.824 316.466C704.358 316.67 704.814 316.968 705.193 317.358C705.572 317.744 705.864 318.214 706.068 318.767C706.273 319.32 706.375 319.943 706.375 320.636V321.364H698.58V319.636H703.489C703.485 319.386 703.42 319.167 703.295 318.977C703.174 318.784 703.009 318.634 702.801 318.528C702.597 318.419 702.364 318.364 702.102 318.364C701.848 318.364 701.616 318.419 701.403 318.528C701.191 318.634 701.021 318.782 700.892 318.972C700.767 319.161 700.701 319.383 700.693 319.636V321.5C700.693 321.78 700.752 322.03 700.869 322.25C700.987 322.47 701.155 322.642 701.375 322.767C701.595 322.892 701.86 322.955 702.17 322.955C702.386 322.955 702.583 322.924 702.761 322.864C702.943 322.803 703.098 322.716 703.227 322.602C703.356 322.485 703.451 322.345 703.511 322.182H706.375C706.277 322.788 706.044 323.314 705.676 323.761C705.309 324.205 704.822 324.549 704.216 324.795C703.614 325.038 702.909 325.159 702.102 325.159ZM707.655 325V316.273H710.632V317.932H710.723C710.905 317.386 711.215 316.955 711.655 316.636C712.094 316.318 712.617 316.159 713.223 316.159C713.837 316.159 714.365 316.322 714.808 316.648C715.251 316.97 715.518 317.398 715.609 317.932H715.7C715.848 317.398 716.162 316.97 716.643 316.648C717.125 316.322 717.689 316.159 718.337 316.159C719.174 316.159 719.852 316.428 720.371 316.966C720.893 317.504 721.155 318.22 721.155 319.114V325H718.018V319.909C718.018 319.527 717.922 319.227 717.729 319.011C717.536 318.792 717.276 318.682 716.95 318.682C716.628 318.682 716.373 318.792 716.183 319.011C715.998 319.227 715.905 319.527 715.905 319.909V325H712.905V319.909C712.905 319.527 712.808 319.227 712.615 319.011C712.422 318.792 712.162 318.682 711.837 318.682C711.621 318.682 711.435 318.731 711.28 318.83C711.125 318.928 711.003 319.07 710.916 319.256C710.833 319.437 710.791 319.655 710.791 319.909V325H707.655Z" fill="#181818" fill-opacity="0.75"/>
<path d="M571.773 21.1136H568.886C568.871 20.9356 568.809 20.7822 568.699 20.6534C568.589 20.5246 568.447 20.4261 568.273 20.358C568.102 20.286 567.913 20.25 567.705 20.25C567.436 20.25 567.205 20.2992 567.011 20.3977C566.818 20.4962 566.723 20.6364 566.727 20.8182C566.723 20.947 566.778 21.0663 566.892 21.1761C567.009 21.286 567.235 21.3712 567.568 21.4318L569.341 21.75C570.235 21.9129 570.9 22.1875 571.335 22.5739C571.775 22.9564 571.996 23.4697 572 24.1136C571.996 24.7348 571.811 25.2746 571.443 25.733C571.08 26.1875 570.581 26.5398 569.949 26.7898C569.32 27.036 568.602 27.1591 567.795 27.1591C566.462 27.1591 565.419 26.8864 564.665 26.3409C563.915 25.7955 563.496 25.0758 563.409 24.1818H566.523C566.564 24.4583 566.701 24.6723 566.932 24.8239C567.167 24.9716 567.462 25.0455 567.818 25.0455C568.106 25.0455 568.343 24.9962 568.528 24.8977C568.718 24.7992 568.814 24.6591 568.818 24.4773C568.814 24.3106 568.731 24.178 568.568 24.0795C568.409 23.9811 568.159 23.9015 567.818 23.8409L566.273 23.5682C565.383 23.4129 564.716 23.1174 564.273 22.6818C563.83 22.2462 563.61 21.6856 563.614 21C563.61 20.3939 563.769 19.8807 564.091 19.4602C564.417 19.036 564.881 18.714 565.483 18.4943C566.089 18.2708 566.807 18.1591 567.636 18.1591C568.898 18.1591 569.892 18.4205 570.619 18.9432C571.35 19.4659 571.735 20.1894 571.773 21.1136ZM578.406 18.2727V20.5455H572.656V18.2727H578.406ZM573.77 16.1818H576.906V24.1932C576.906 24.3144 576.927 24.4167 576.969 24.5C577.01 24.5795 577.075 24.6402 577.162 24.6818C577.249 24.7197 577.361 24.7386 577.497 24.7386C577.592 24.7386 577.702 24.7273 577.827 24.7045C577.955 24.6818 578.05 24.6629 578.111 24.6477L578.565 26.8523C578.425 26.8939 578.224 26.9451 577.963 27.0057C577.705 27.0663 577.399 27.1061 577.043 27.125C576.323 27.1629 575.719 27.089 575.23 26.9034C574.741 26.714 574.374 26.4167 574.128 26.0114C573.882 25.6061 573.762 25.0985 573.77 24.4886V16.1818ZM579.686 27V18.2727H582.732V19.9318H582.822C582.982 19.3182 583.233 18.8693 583.578 18.5852C583.927 18.3011 584.334 18.1591 584.8 18.1591C584.936 18.1591 585.071 18.1705 585.203 18.1932C585.339 18.2121 585.47 18.2405 585.595 18.2784V20.9545C585.44 20.9015 585.249 20.8617 585.021 20.8352C584.794 20.8087 584.599 20.7955 584.436 20.7955C584.129 20.7955 583.853 20.8655 583.607 21.0057C583.364 21.142 583.173 21.3352 583.033 21.5852C582.893 21.8314 582.822 22.1212 582.822 22.4545V27H579.686ZM590.305 27.1591C589.374 27.1591 588.571 26.9811 587.896 26.625C587.226 26.2652 586.709 25.75 586.345 25.0795C585.985 24.4053 585.805 23.5985 585.805 22.6591C585.805 21.7576 585.987 20.9697 586.351 20.2955C586.714 19.6212 587.228 19.0966 587.891 18.7216C588.554 18.3466 589.336 18.1591 590.237 18.1591C590.896 18.1591 591.493 18.2614 592.027 18.4659C592.561 18.6705 593.018 18.9678 593.396 19.358C593.775 19.7443 594.067 20.214 594.271 20.767C594.476 21.3201 594.578 21.9432 594.578 22.6364V23.3636H586.783V21.6364H591.692C591.688 21.3864 591.624 21.1667 591.499 20.9773C591.377 20.7841 591.213 20.6345 591.004 20.5284C590.8 20.4186 590.567 20.3636 590.305 20.3636C590.052 20.3636 589.819 20.4186 589.607 20.5284C589.394 20.6345 589.224 20.7822 589.095 20.9716C588.97 21.161 588.904 21.3826 588.896 21.6364V23.5C588.896 23.7803 588.955 24.0303 589.072 24.25C589.19 24.4697 589.358 24.642 589.578 24.767C589.798 24.892 590.063 24.9545 590.374 24.9545C590.589 24.9545 590.786 24.9242 590.964 24.8636C591.146 24.803 591.302 24.7159 591.43 24.6023C591.559 24.4848 591.654 24.3447 591.714 24.1818H594.578C594.48 24.7879 594.247 25.3144 593.879 25.7614C593.512 26.2045 593.025 26.5492 592.419 26.7955C591.817 27.0379 591.112 27.1591 590.305 27.1591ZM601.062 18.2727V20.5455H595.312V18.2727H601.062ZM596.426 16.1818H599.562V24.1932C599.562 24.3144 599.583 24.4167 599.625 24.5C599.667 24.5795 599.731 24.6402 599.818 24.6818C599.905 24.7197 600.017 24.7386 600.153 24.7386C600.248 24.7386 600.358 24.7273 600.483 24.7045C600.612 24.6818 600.706 24.6629 600.767 24.6477L601.222 26.8523C601.081 26.8939 600.881 26.9451 600.619 27.0057C600.362 27.0663 600.055 27.1061 599.699 27.125C598.979 27.1629 598.375 27.089 597.886 26.9034C597.398 26.714 597.03 26.4167 596.784 26.0114C596.538 25.6061 596.419 25.0985 596.426 24.4886V16.1818ZM606.453 27.1591C605.506 27.1591 604.696 26.9716 604.021 26.5966C603.347 26.2178 602.83 25.6913 602.47 25.017C602.11 24.339 601.93 23.553 601.93 22.6591C601.93 21.7652 602.11 20.9811 602.47 20.3068C602.83 19.6288 603.347 19.1023 604.021 18.7273C604.696 18.3485 605.506 18.1591 606.453 18.1591C607.309 18.1591 608.05 18.3144 608.675 18.625C609.304 18.9318 609.79 19.3674 610.135 19.9318C610.48 20.4924 610.654 21.1515 610.658 21.9091H607.749C607.707 21.4508 607.574 21.1023 607.351 20.8636C607.131 20.6212 606.847 20.5 606.499 20.5C606.226 20.5 605.987 20.5795 605.783 20.7386C605.578 20.8939 605.419 21.1307 605.305 21.4489C605.192 21.7633 605.135 22.1591 605.135 22.6364C605.135 23.1136 605.192 23.5114 605.305 23.8295C605.419 24.1439 605.578 24.3807 605.783 24.5398C605.987 24.6951 606.226 24.7727 606.499 24.7727C606.73 24.7727 606.934 24.7197 607.112 24.6136C607.29 24.5038 607.434 24.3447 607.544 24.1364C607.658 23.9242 607.726 23.6667 607.749 23.3636H610.658C610.646 24.1326 610.47 24.803 610.129 25.375C609.788 25.9432 609.305 26.3826 608.68 26.6932C608.059 27.0038 607.317 27.1591 606.453 27.1591ZM615.088 22.0909V27H611.952V15.3636H614.974V19.9318H615.065C615.262 19.375 615.59 18.9413 616.048 18.6307C616.507 18.3163 617.058 18.1591 617.702 18.1591C618.319 18.1591 618.855 18.2992 619.31 18.5795C619.768 18.8598 620.122 19.2462 620.372 19.7386C620.626 20.2311 620.751 20.7955 620.747 21.4318V27H617.611V22.0909C617.615 21.6591 617.507 21.3201 617.287 21.0739C617.071 20.8277 616.762 20.7045 616.361 20.7045C616.107 20.7045 615.884 20.7614 615.69 20.875C615.501 20.9848 615.353 21.1439 615.247 21.3523C615.145 21.5568 615.092 21.803 615.088 22.0909Z" fill="#181818" fill-opacity="0.75"/>
<defs>
<filter id="filter0_d_129_739" x="0" y="0" width="384" height="403" filterUnits="userSpaceOnUse" color-interpolation-filters="sRGB">
<feFlood flood-opacity="0" result="BackgroundImageFix"/>
<feColorMatrix in="SourceAlpha" type="matrix" values="0 0 0 0 0 0 0 0 0 0 0 0 0 0 0 0 0 0 127 0" result="hardAlpha"/>
<feOffset dy="4"/>
<feGaussianBlur stdDeviation="4"/>
<feComposite in2="hardAlpha" operator="out"/>
<feColorMatrix type="matrix" values="0 0 0 0 0.129412 0 0 0 0 0.447059 0 0 0 0 1 0 0 0 0.25 0"/>
<feBlend mode="normal" in2="BackgroundImageFix" result="effect1_dropShadow_129_739"/>
<feBlend mode="normal" in="SourceGraphic" in2="effect1_dropShadow_129_739" result="shape"/>
</filter>
<filter id="filter1_d_129_739" x="128" y="279" width="128" height="88" filterUnits="userSpaceOnUse" color-interpolation-filters="sRGB">
<feFlood flood-opacity="0" result="BackgroundImageFix"/>
<feColorMatrix in="SourceAlpha" type="matrix" values="0 0 0 0 0 0 0 0 0 0 0 0 0 0 0 0 0 0 127 0" result="hardAlpha"/>
<feOffset dy="4"/>
<feGaussianBlur stdDeviation="4"/>
<feComposite in2="hardAlpha" operator="out"/>
<feColorMatrix type="matrix" values="0 0 0 0 1 0 0 0 0 1 0 0 0 0 1 0 0 0 0.25 0"/>
<feBlend mode="normal" in2="BackgroundImageFix" result="effect1_dropShadow_129_739"/>
<feBlend mode="normal" in="SourceGraphic" in2="effect1_dropShadow_129_739" result="shape"/>
</filter>
<filter id="filter2_d_129_739" x="128" y="55" width="128" height="88" filterUnits="userSpaceOnUse" color-interpolation-filters="sRGB">
<feFlood flood-opacity="0" result="BackgroundImageFix"/>
<feColorMatrix in="SourceAlpha" type="matrix" values="0 0 0 0 0 0 0 0 0 0 0 0 0 0 0 0 0 0 127 0" result="hardAlpha"/>
<feOffset dy="4"/>
<feGaussianBlur stdDeviation="4"/>
<feComposite in2="hardAlpha" operator="out"/>
<feColorMatrix type="matrix" values="0 0 0 0 1 0 0 0 0 1 0 0 0 0 1 0 0 0 0.25 0"/>
<feBlend mode="normal" in2="BackgroundImageFix" result="effect1_dropShadow_129_739"/>
<feBlend mode="normal" in="SourceGraphic" in2="effect1_dropShadow_129_739" result="shape"/>
</filter>
<filter id="filter3_d_129_739" x="16" y="279" width="128" height="88" filterUnits="userSpaceOnUse" color-interpolation-filters="sRGB">
<feFlood flood-opacity="0" result="BackgroundImageFix"/>
<feColorMatrix in="SourceAlpha" type="matrix" values="0 0 0 0 0 0 0 0 0 0 0 0 0 0 0 0 0 0 127 0" result="hardAlpha"/>
<feOffset dy="4"/>
<feGaussianBlur stdDeviation="4"/>
<feComposite in2="hardAlpha" operator="out"/>
<feColorMatrix type="matrix" values="0 0 0 0 1 0 0 0 0 1 0 0 0 0 1 0 0 0 0.25 0"/>
<feBlend mode="normal" in2="BackgroundImageFix" result="effect1_dropShadow_129_739"/>
<feBlend mode="normal" in="SourceGraphic" in2="effect1_dropShadow_129_739" result="shape"/>
</filter>
<filter id="filter4_d_129_739" x="16" y="55" width="128" height="88" filterUnits="userSpaceOnUse" color-interpolation-filters="sRGB">
<feFlood flood-opacity="0" result="BackgroundImageFix"/>
<feColorMatrix in="SourceAlpha" type="matrix" values="0 0 0 0 0 0 0 0 0 0 0 0 0 0 0 0 0 0 127 0" result="hardAlpha"/>
<feOffset dy="4"/>
<feGaussianBlur stdDeviation="4"/>
<feComposite in2="hardAlpha" operator="out"/>
<feColorMatrix type="matrix" values="0 0 0 0 1 0 0 0 0 1 0 0 0 0 1 0 0 0 0.25 0"/>
<feBlend mode="normal" in2="BackgroundImageFix" result="effect1_dropShadow_129_739"/>
<feBlend mode="normal" in="SourceGraphic" in2="effect1_dropShadow_129_739" result="shape"/>
</filter>
<filter id="filter5_d_129_739" x="240" y="55" width="128" height="88" filterUnits="userSpaceOnUse" color-interpolation-filters="sRGB">
<feFlood flood-opacity="0" result="BackgroundImageFix"/>
<feColorMatrix in="SourceAlpha" type="matrix" values="0 0 0 0 0 0 0 0 0 0 0 0 0 0 0 0 0 0 127 0" result="hardAlpha"/>
<feOffset dy="4"/>
<feGaussianBlur stdDeviation="4"/>
<feComposite in2="hardAlpha" operator="out"/>
<feColorMatrix type="matrix" values="0 0 0 0 1 0 0 0 0 1 0 0 0 0 1 0 0 0 0.25 0"/>
<feBlend mode="normal" in2="BackgroundImageFix" result="effect1_dropShadow_129_739"/>
<feBlend mode="normal" in="SourceGraphic" in2="effect1_dropShadow_129_739" result="shape"/>
</filter>
<filter id="filter6_d_129_739" x="128" y="167" width="128" height="88" filterUnits="userSpaceOnUse" color-interpolation-filters="sRGB">
<feFlood flood-opacity="0" result="BackgroundImageFix"/>
<feColorMatrix in="SourceAlpha" type="matrix" values="0 0 0 0 0 0 0 0 0 0 0 0 0 0 0 0 0 0 127 0" result="hardAlpha"/>
<feOffset dy="4"/>
<feGaussianBlur stdDeviation="4"/>
<feComposite in2="hardAlpha" operator="out"/>
<feColorMatrix type="matrix" values="0 0 0 0 1 0 0 0 0 1 0 0 0 0 1 0 0 0 0.25 0"/>
<feBlend mode="normal" in2="BackgroundImageFix" result="effect1_dropShadow_129_739"/>
<feBlend mode="normal" in="SourceGraphic" in2="effect1_dropShadow_129_739" result="shape"/>
</filter>
<filter id="filter7_d_129_739" x="16" y="167" width="128" height="88" filterUnits="userSpaceOnUse" color-interpolation-filters="sRGB">
<feFlood flood-opacity="0" result="BackgroundImageFix"/>
<feColorMatrix in="SourceAlpha" type="matrix" values="0 0 0 0 0 0 0 0 0 0 0 0 0 0 0 0 0 0 127 0" result="hardAlpha"/>
<feOffset dy="4"/>
<feGaussianBlur stdDeviation="4"/>
<feComposite in2="hardAlpha" operator="out"/>
<feColorMatrix type="matrix" values="0 0 0 0 1 0 0 0 0 1 0 0 0 0 1 0 0 0 0.25 0"/>
<feBlend mode="normal" in2="BackgroundImageFix" result="effect1_dropShadow_129_739"/>
<feBlend mode="normal" in="SourceGraphic" in2="effect1_dropShadow_129_739" result="shape"/>
</filter>
<filter id="filter8_d_129_739" x="240" y="167" width="128" height="88" filterUnits="userSpaceOnUse" color-interpolation-filters="sRGB">
<feFlood flood-opacity="0" result="BackgroundImageFix"/>
<feColorMatrix in="SourceAlpha" type="matrix" values="0 0 0 0 0 0 0 0 0 0 0 0 0 0 0 0 0 0 127 0" result="hardAlpha"/>
<feOffset dy="4"/>
<feGaussianBlur stdDeviation="4"/>
<feComposite in2="hardAlpha" operator="out"/>
<feColorMatrix type="matrix" values="0 0 0 0 1 0 0 0 0 1 0 0 0 0 1 0 0 0 0.25 0"/>
<feBlend mode="normal" in2="BackgroundImageFix" result="effect1_dropShadow_129_739"/>
<feBlend mode="normal" in="SourceGraphic" in2="effect1_dropShadow_129_739" result="shape"/>
</filter>
<filter id="filter9_d_129_739" x="240" y="279" width="128" height="88" filterUnits="userSpaceOnUse" color-interpolation-filters="sRGB">
<feFlood flood-opacity="0" result="BackgroundImageFix"/>
<feColorMatrix in="SourceAlpha" type="matrix" values="0 0 0 0 0 0 0 0 0 0 0 0 0 0 0 0 0 0 127 0" result="hardAlpha"/>
<feOffset dy="4"/>
<feGaussianBlur stdDeviation="4"/>
<feComposite in2="hardAlpha" operator="out"/>
<feColorMatrix type="matrix" values="0 0 0 0 1 0 0 0 0 1 0 0 0 0 1 0 0 0 0.25 0"/>
<feBlend mode="normal" in2="BackgroundImageFix" result="effect1_dropShadow_129_739"/>
<feBlend mode="normal" in="SourceGraphic" in2="effect1_dropShadow_129_739" result="shape"/>
</filter>
<filter id="filter10_d_129_739" x="400" y="0" width="384" height="403" filterUnits="userSpaceOnUse" color-interpolation-filters="sRGB">
<feFlood flood-opacity="0" result="BackgroundImageFix"/>
<feColorMatrix in="SourceAlpha" type="matrix" values="0 0 0 0 0 0 0 0 0 0 0 0 0 0 0 0 0 0 127 0" result="hardAlpha"/>
<feOffset dy="4"/>
<feGaussianBlur stdDeviation="4"/>
<feComposite in2="hardAlpha" operator="out"/>
<feColorMatrix type="matrix" values="0 0 0 0 0.129412 0 0 0 0 0.447059 0 0 0 0 1 0 0 0 0.25 0"/>
<feBlend mode="normal" in2="BackgroundImageFix" result="effect1_dropShadow_129_739"/>
<feBlend mode="normal" in="SourceGraphic" in2="effect1_dropShadow_129_739" result="shape"/>
</filter>
<filter id="filter11_d_129_739" x="528" y="259" width="128" height="128" filterUnits="userSpaceOnUse" color-interpolation-filters="sRGB">
<feFlood flood-opacity="0" result="BackgroundImageFix"/>
<feColorMatrix in="SourceAlpha" type="matrix" values="0 0 0 0 0 0 0 0 0 0 0 0 0 0 0 0 0 0 127 0" result="hardAlpha"/>
<feOffset dy="4"/>
<feGaussianBlur stdDeviation="4"/>
<feComposite in2="hardAlpha" operator="out"/>
<feColorMatrix type="matrix" values="0 0 0 0 1 0 0 0 0 1 0 0 0 0 1 0 0 0 0.25 0"/>
<feBlend mode="normal" in2="BackgroundImageFix" result="effect1_dropShadow_129_739"/>
<feBlend mode="normal" in="SourceGraphic" in2="effect1_dropShadow_129_739" result="shape"/>
</filter>
<filter id="filter12_d_129_739" x="528" y="35" width="128" height="128" filterUnits="userSpaceOnUse" color-interpolation-filters="sRGB">
<feFlood flood-opacity="0" result="BackgroundImageFix"/>
<feColorMatrix in="SourceAlpha" type="matrix" values="0 0 0 0 0 0 0 0 0 0 0 0 0 0 0 0 0 0 127 0" result="hardAlpha"/>
<feOffset dy="4"/>
<feGaussianBlur stdDeviation="4"/>
<feComposite in2="hardAlpha" operator="out"/>
<feColorMatrix type="matrix" values="0 0 0 0 1 0 0 0 0 1 0 0 0 0 1 0 0 0 0.25 0"/>
<feBlend mode="normal" in2="BackgroundImageFix" result="effect1_dropShadow_129_739"/>
<feBlend mode="normal" in="SourceGraphic" in2="effect1_dropShadow_129_739" result="shape"/>
</filter>
<filter id="filter13_d_129_739" x="416" y="259" width="128" height="128" filterUnits="userSpaceOnUse" color-interpolation-filters="sRGB">
<feFlood flood-opacity="0" result="BackgroundImageFix"/>
<feColorMatrix in="SourceAlpha" type="matrix" values="0 0 0 0 0 0 0 0 0 0 0 0 0 0 0 0 0 0 127 0" result="hardAlpha"/>
<feOffset dy="4"/>
<feGaussianBlur stdDeviation="4"/>
<feComposite in2="hardAlpha" operator="out"/>
<feColorMatrix type="matrix" values="0 0 0 0 1 0 0 0 0 1 0 0 0 0 1 0 0 0 0.25 0"/>
<feBlend mode="normal" in2="BackgroundImageFix" result="effect1_dropShadow_129_739"/>
<feBlend mode="normal" in="SourceGraphic" in2="effect1_dropShadow_129_739" result="shape"/>
</filter>
<filter id="filter14_d_129_739" x="416" y="35" width="128" height="128" filterUnits="userSpaceOnUse" color-interpolation-filters="sRGB">
<feFlood flood-opacity="0" result="BackgroundImageFix"/>
<feColorMatrix in="SourceAlpha" type="matrix" values="0 0 0 0 0 0 0 0 0 0 0 0 0 0 0 0 0 0 127 0" result="hardAlpha"/>
<feOffset dy="4"/>
<feGaussianBlur stdDeviation="4"/>
<feComposite in2="hardAlpha" operator="out"/>
<feColorMatrix type="matrix" values="0 0 0 0 1 0 0 0 0 1 0 0 0 0 1 0 0 0 0.25 0"/>
<feBlend mode="normal" in2="BackgroundImageFix" result="effect1_dropShadow_129_739"/>
<feBlend mode="normal" in="SourceGraphic" in2="effect1_dropShadow_129_739" result="shape"/>
</filter>
<filter id="filter15_d_129_739" x="640" y="35" width="128" height="128" filterUnits="userSpaceOnUse" color-interpolation-filters="sRGB">
<feFlood flood-opacity="0" result="BackgroundImageFix"/>
<feColorMatrix in="SourceAlpha" type="matrix" values="0 0 0 0 0 0 0 0 0 0 0 0 0 0 0 0 0 0 127 0" result="hardAlpha"/>
<feOffset dy="4"/>
<feGaussianBlur stdDeviation="4"/>
<feComposite in2="hardAlpha" operator="out"/>
<feColorMatrix type="matrix" values="0 0 0 0 1 0 0 0 0 1 0 0 0 0 1 0 0 0 0.25 0"/>
<feBlend mode="normal" in2="BackgroundImageFix" result="effect1_dropShadow_129_739"/>
<feBlend mode="normal" in="SourceGraphic" in2="effect1_dropShadow_129_739" result="shape"/>
</filter>
<filter id="filter16_d_129_739" x="528" y="147" width="128" height="128" filterUnits="userSpaceOnUse" color-interpolation-filters="sRGB">
<feFlood flood-opacity="0" result="BackgroundImageFix"/>
<feColorMatrix in="SourceAlpha" type="matrix" values="0 0 0 0 0 0 0 0 0 0 0 0 0 0 0 0 0 0 127 0" result="hardAlpha"/>
<feOffset dy="4"/>
<feGaussianBlur stdDeviation="4"/>
<feComposite in2="hardAlpha" operator="out"/>
<feColorMatrix type="matrix" values="0 0 0 0 1 0 0 0 0 1 0 0 0 0 1 0 0 0 0.25 0"/>
<feBlend mode="normal" in2="BackgroundImageFix" result="effect1_dropShadow_129_739"/>
<feBlend mode="normal" in="SourceGraphic" in2="effect1_dropShadow_129_739" result="shape"/>
</filter>
<filter id="filter17_d_129_739" x="416" y="147" width="128" height="128" filterUnits="userSpaceOnUse" color-interpolation-filters="sRGB">
<feFlood flood-opacity="0" result="BackgroundImageFix"/>
<feColorMatrix in="SourceAlpha" type="matrix" values="0 0 0 0 0 0 0 0 0 0 0 0 0 0 0 0 0 0 127 0" result="hardAlpha"/>
<feOffset dy="4"/>
<feGaussianBlur stdDeviation="4"/>
<feComposite in2="hardAlpha" operator="out"/>
<feColorMatrix type="matrix" values="0 0 0 0 1 0 0 0 0 1 0 0 0 0 1 0 0 0 0.25 0"/>
<feBlend mode="normal" in2="BackgroundImageFix" result="effect1_dropShadow_129_739"/>
<feBlend mode="normal" in="SourceGraphic" in2="effect1_dropShadow_129_739" result="shape"/>
</filter>
<filter id="filter18_d_129_739" x="640" y="147" width="128" height="128" filterUnits="userSpaceOnUse" color-interpolation-filters="sRGB">
<feFlood flood-opacity="0" result="BackgroundImageFix"/>
<feColorMatrix in="SourceAlpha" type="matrix" values="0 0 0 0 0 0 0 0 0 0 0 0 0 0 0 0 0 0 127 0" result="hardAlpha"/>
<feOffset dy="4"/>
<feGaussianBlur stdDeviation="4"/>
<feComposite in2="hardAlpha" operator="out"/>
<feColorMatrix type="matrix" values="0 0 0 0 1 0 0 0 0 1 0 0 0 0 1 0 0 0 0.25 0"/>
<feBlend mode="normal" in2="BackgroundImageFix" result="effect1_dropShadow_129_739"/>
<feBlend mode="normal" in="SourceGraphic" in2="effect1_dropShadow_129_739" result="shape"/>
</filter>
<filter id="filter19_d_129_739" x="640" y="259" width="128" height="128" filterUnits="userSpaceOnUse" color-interpolation-filters="sRGB">
<feFlood flood-opacity="0" result="BackgroundImageFix"/>
<feColorMatrix in="SourceAlpha" type="matrix" values="0 0 0 0 0 0 0 0 0 0 0 0 0 0 0 0 0 0 127 0" result="hardAlpha"/>
<feOffset dy="4"/>
<feGaussianBlur stdDeviation="4"/>
<feComposite in2="hardAlpha" operator="out"/>
<feColorMatrix type="matrix" values="0 0 0 0 1 0 0 0 0 1 0 0 0 0 1 0 0 0 0.25 0"/>
<feBlend mode="normal" in2="BackgroundImageFix" result="effect1_dropShadow_129_739"/>
<feBlend mode="normal" in="SourceGraphic" in2="effect1_dropShadow_129_739" result="shape"/>
</filter>
</defs>
</svg>
