<svg width="528" height="432" viewBox="0 0 528 432" fill="none" xmlns="http://www.w3.org/2000/svg">
<g filter="url(#filter0_d_121_159)">
<rect x="8" y="4" width="512" height="416" rx="8" fill="#2172FF" fill-opacity="0.8" shape-rendering="crispEdges"/>
</g>
<g filter="url(#filter1_d_121_159)">
<rect x="24" y="20" width="96" height="288" rx="8" fill="white" fill-opacity="0.75" shape-rendering="crispEdges"/>
</g>
<path d="M50.7955 74V65.2727H53.9318V74H50.7955ZM52.3636 64.3636C51.9394 64.3636 51.5758 64.2235 51.2727 63.9432C50.9697 63.6629 50.8182 63.3258 50.8182 62.9318C50.8182 62.5379 50.9697 62.2008 51.2727 61.9205C51.5758 61.6402 51.9394 61.5 52.3636 61.5C52.7917 61.5 53.1553 61.6402 53.4545 61.9205C53.7576 62.2008 53.9091 62.5379 53.9091 62.9318C53.9091 63.3258 53.7576 63.6629 53.4545 63.9432C53.1553 64.2235 52.7917 64.3636 52.3636 64.3636ZM60.7344 65.2727V67.5455H54.9844V65.2727H60.7344ZM56.098 63.1818H59.2344V71.1932C59.2344 71.3144 59.2552 71.4167 59.2969 71.5C59.3385 71.5795 59.4029 71.6402 59.4901 71.6818C59.5772 71.7197 59.6889 71.7386 59.8253 71.7386C59.92 71.7386 60.0298 71.7273 60.1548 71.7045C60.2836 71.6818 60.3783 71.6629 60.4389 71.6477L60.8935 73.8523C60.7533 73.8939 60.5526 73.9451 60.2912 74.0057C60.0336 74.0663 59.7268 74.1061 59.3707 74.125C58.651 74.1629 58.0469 74.089 57.5582 73.9034C57.0696 73.714 56.7022 73.4167 56.456 73.0114C56.2098 72.6061 56.0904 72.0985 56.098 71.4886V63.1818ZM66.1023 74.1591C65.1705 74.1591 64.3674 73.9811 63.6932 73.625C63.0227 73.2652 62.5057 72.75 62.142 72.0795C61.7822 71.4053 61.6023 70.5985 61.6023 69.6591C61.6023 68.7576 61.7841 67.9697 62.1477 67.2955C62.5114 66.6212 63.0246 66.0966 63.6875 65.7216C64.3504 65.3466 65.1326 65.1591 66.0341 65.1591C66.6932 65.1591 67.2898 65.2614 67.8239 65.4659C68.358 65.6705 68.8144 65.9678 69.1932 66.358C69.572 66.7443 69.8636 67.214 70.0682 67.767C70.2727 68.3201 70.375 68.9432 70.375 69.6364V70.3636H62.5795V68.6364H67.4886C67.4848 68.3864 67.4205 68.1667 67.2955 67.9773C67.1742 67.7841 67.0095 67.6345 66.8011 67.5284C66.5966 67.4186 66.3636 67.3636 66.1023 67.3636C65.8485 67.3636 65.6155 67.4186 65.4034 67.5284C65.1913 67.6345 65.0208 67.7822 64.892 67.9716C64.767 68.161 64.7008 68.3826 64.6932 68.6364V70.5C64.6932 70.7803 64.7519 71.0303 64.8693 71.25C64.9867 71.4697 65.1553 71.642 65.375 71.767C65.5947 71.892 65.8598 71.9545 66.1705 71.9545C66.3864 71.9545 66.5833 71.9242 66.7614 71.8636C66.9432 71.803 67.0985 71.7159 67.2273 71.6023C67.3561 71.4848 67.4508 71.3447 67.5114 71.1818H70.375C70.2765 71.7879 70.0436 72.3144 69.6761 72.7614C69.3087 73.2045 68.822 73.5492 68.2159 73.7955C67.6136 74.0379 66.9091 74.1591 66.1023 74.1591ZM71.6548 74V65.2727H74.6321V66.9318H74.723C74.9048 66.3864 75.2154 65.9545 75.6548 65.6364C76.0942 65.3182 76.617 65.1591 77.223 65.1591C77.8366 65.1591 78.3651 65.322 78.8082 65.6477C79.2514 65.9697 79.5185 66.3977 79.6094 66.9318H79.7003C79.848 66.3977 80.1624 65.9697 80.6435 65.6477C81.1245 65.322 81.6889 65.1591 82.3366 65.1591C83.1738 65.1591 83.8518 65.428 84.3707 65.9659C84.8935 66.5038 85.1548 67.2197 85.1548 68.1136V74H82.0185V68.9091C82.0185 68.5265 81.9219 68.2273 81.7287 68.0114C81.5355 67.7917 81.276 67.6818 80.9503 67.6818C80.6283 67.6818 80.3726 67.7917 80.1832 68.0114C79.9976 68.2273 79.9048 68.5265 79.9048 68.9091V74H76.9048V68.9091C76.9048 68.5265 76.8082 68.2273 76.6151 68.0114C76.4219 67.7917 76.1624 67.6818 75.8366 67.6818C75.6207 67.6818 75.4351 67.7311 75.2798 67.8295C75.1245 67.928 75.0033 68.0701 74.9162 68.2557C74.8329 68.4375 74.7912 68.6553 74.7912 68.9091V74H71.6548ZM91.7429 62.3636V74H88.5838V65.2727H88.5156L85.9702 66.7955V64.1136L88.8338 62.3636H91.7429Z" fill="#181818" fill-opacity="0.75"/>
<g filter="url(#filter2_d_121_159)">
<rect x="120" y="116" width="288" height="192" rx="8" fill="white" fill-opacity="0.75" shape-rendering="crispEdges"/>
</g>
<path d="M145.795 170V161.273H148.932V170H145.795ZM147.364 160.364C146.939 160.364 146.576 160.223 146.273 159.943C145.97 159.663 145.818 159.326 145.818 158.932C145.818 158.538 145.97 158.201 146.273 157.92C146.576 157.64 146.939 157.5 147.364 157.5C147.792 157.5 148.155 157.64 148.455 157.92C148.758 158.201 148.909 158.538 148.909 158.932C148.909 159.326 148.758 159.663 148.455 159.943C148.155 160.223 147.792 160.364 147.364 160.364ZM155.734 161.273V163.545H149.984V161.273H155.734ZM151.098 159.182H154.234V167.193C154.234 167.314 154.255 167.417 154.297 167.5C154.339 167.58 154.403 167.64 154.49 167.682C154.577 167.72 154.689 167.739 154.825 167.739C154.92 167.739 155.03 167.727 155.155 167.705C155.284 167.682 155.378 167.663 155.439 167.648L155.893 169.852C155.753 169.894 155.553 169.945 155.291 170.006C155.034 170.066 154.727 170.106 154.371 170.125C153.651 170.163 153.047 170.089 152.558 169.903C152.07 169.714 151.702 169.417 151.456 169.011C151.21 168.606 151.09 168.098 151.098 167.489V159.182ZM161.102 170.159C160.17 170.159 159.367 169.981 158.693 169.625C158.023 169.265 157.506 168.75 157.142 168.08C156.782 167.405 156.602 166.598 156.602 165.659C156.602 164.758 156.784 163.97 157.148 163.295C157.511 162.621 158.025 162.097 158.688 161.722C159.35 161.347 160.133 161.159 161.034 161.159C161.693 161.159 162.29 161.261 162.824 161.466C163.358 161.67 163.814 161.968 164.193 162.358C164.572 162.744 164.864 163.214 165.068 163.767C165.273 164.32 165.375 164.943 165.375 165.636V166.364H157.58V164.636H162.489C162.485 164.386 162.42 164.167 162.295 163.977C162.174 163.784 162.009 163.634 161.801 163.528C161.597 163.419 161.364 163.364 161.102 163.364C160.848 163.364 160.616 163.419 160.403 163.528C160.191 163.634 160.021 163.782 159.892 163.972C159.767 164.161 159.701 164.383 159.693 164.636V166.5C159.693 166.78 159.752 167.03 159.869 167.25C159.987 167.47 160.155 167.642 160.375 167.767C160.595 167.892 160.86 167.955 161.17 167.955C161.386 167.955 161.583 167.924 161.761 167.864C161.943 167.803 162.098 167.716 162.227 167.602C162.356 167.485 162.451 167.345 162.511 167.182H165.375C165.277 167.788 165.044 168.314 164.676 168.761C164.309 169.205 163.822 169.549 163.216 169.795C162.614 170.038 161.909 170.159 161.102 170.159ZM166.655 170V161.273H169.632V162.932H169.723C169.905 162.386 170.215 161.955 170.655 161.636C171.094 161.318 171.617 161.159 172.223 161.159C172.837 161.159 173.365 161.322 173.808 161.648C174.251 161.97 174.518 162.398 174.609 162.932H174.7C174.848 162.398 175.162 161.97 175.643 161.648C176.125 161.322 176.689 161.159 177.337 161.159C178.174 161.159 178.852 161.428 179.371 161.966C179.893 162.504 180.155 163.22 180.155 164.114V170H177.018V164.909C177.018 164.527 176.922 164.227 176.729 164.011C176.536 163.792 176.276 163.682 175.95 163.682C175.628 163.682 175.373 163.792 175.183 164.011C174.998 164.227 174.905 164.527 174.905 164.909V170H171.905V164.909C171.905 164.527 171.808 164.227 171.615 164.011C171.422 163.792 171.162 163.682 170.837 163.682C170.621 163.682 170.435 163.731 170.28 163.83C170.125 163.928 170.003 164.07 169.916 164.256C169.833 164.437 169.791 164.655 169.791 164.909V170H166.655ZM186.224 170.159C185.308 170.159 184.493 170.002 183.781 169.688C183.073 169.369 182.516 168.932 182.111 168.375C181.705 167.818 181.501 167.178 181.497 166.455H184.679C184.683 166.678 184.751 166.879 184.884 167.057C185.02 167.231 185.205 167.367 185.44 167.466C185.675 167.564 185.944 167.614 186.247 167.614C186.539 167.614 186.796 167.562 187.02 167.46C187.243 167.354 187.418 167.208 187.543 167.023C187.668 166.837 187.728 166.625 187.724 166.386C187.728 166.152 187.656 165.943 187.509 165.761C187.365 165.58 187.162 165.437 186.901 165.335C186.639 165.233 186.338 165.182 185.997 165.182H184.815V163H185.997C186.312 163 186.588 162.949 186.827 162.847C187.069 162.744 187.257 162.602 187.389 162.42C187.526 162.239 187.592 162.03 187.588 161.795C187.592 161.568 187.537 161.367 187.423 161.193C187.31 161.019 187.151 160.883 186.946 160.784C186.745 160.686 186.512 160.636 186.247 160.636C185.959 160.636 185.702 160.687 185.474 160.79C185.251 160.892 185.075 161.034 184.946 161.216C184.817 161.398 184.751 161.606 184.747 161.841H181.724C181.728 161.129 181.923 160.5 182.31 159.955C182.7 159.409 183.234 158.981 183.912 158.67C184.59 158.36 185.368 158.205 186.247 158.205C187.107 158.205 187.866 158.35 188.526 158.642C189.188 158.934 189.705 159.335 190.077 159.847C190.452 160.354 190.637 160.936 190.634 161.591C190.641 162.242 190.418 162.777 189.963 163.193C189.512 163.61 188.94 163.856 188.247 163.932V164.023C189.187 164.125 189.893 164.413 190.366 164.886C190.84 165.356 191.073 165.947 191.065 166.659C191.069 167.341 190.865 167.945 190.452 168.472C190.043 168.998 189.473 169.411 188.741 169.71C188.014 170.009 187.175 170.159 186.224 170.159Z" fill="#181818" fill-opacity="0.75"/>
<g filter="url(#filter3_d_121_159)">
<rect x="120" y="308" width="96" height="96" rx="8" fill="white" fill-opacity="0.75" shape-rendering="crispEdges"/>
</g>
<path d="M141.795 362V353.273H144.932V362H141.795ZM143.364 352.364C142.939 352.364 142.576 352.223 142.273 351.943C141.97 351.663 141.818 351.326 141.818 350.932C141.818 350.538 141.97 350.201 142.273 349.92C142.576 349.64 142.939 349.5 143.364 349.5C143.792 349.5 144.155 349.64 144.455 349.92C144.758 350.201 144.909 350.538 144.909 350.932C144.909 351.326 144.758 351.663 144.455 351.943C144.155 352.223 143.792 352.364 143.364 352.364ZM151.734 353.273V355.545H145.984V353.273H151.734ZM147.098 351.182H150.234V359.193C150.234 359.314 150.255 359.417 150.297 359.5C150.339 359.58 150.403 359.64 150.49 359.682C150.577 359.72 150.689 359.739 150.825 359.739C150.92 359.739 151.03 359.727 151.155 359.705C151.284 359.682 151.378 359.663 151.439 359.648L151.893 361.852C151.753 361.894 151.553 361.945 151.291 362.006C151.034 362.066 150.727 362.106 150.371 362.125C149.651 362.163 149.047 362.089 148.558 361.903C148.07 361.714 147.702 361.417 147.456 361.011C147.21 360.606 147.09 360.098 147.098 359.489V351.182ZM157.102 362.159C156.17 362.159 155.367 361.981 154.693 361.625C154.023 361.265 153.506 360.75 153.142 360.08C152.782 359.405 152.602 358.598 152.602 357.659C152.602 356.758 152.784 355.97 153.148 355.295C153.511 354.621 154.025 354.097 154.688 353.722C155.35 353.347 156.133 353.159 157.034 353.159C157.693 353.159 158.29 353.261 158.824 353.466C159.358 353.67 159.814 353.968 160.193 354.358C160.572 354.744 160.864 355.214 161.068 355.767C161.273 356.32 161.375 356.943 161.375 357.636V358.364H153.58V356.636H158.489C158.485 356.386 158.42 356.167 158.295 355.977C158.174 355.784 158.009 355.634 157.801 355.528C157.597 355.419 157.364 355.364 157.102 355.364C156.848 355.364 156.616 355.419 156.403 355.528C156.191 355.634 156.021 355.782 155.892 355.972C155.767 356.161 155.701 356.383 155.693 356.636V358.5C155.693 358.78 155.752 359.03 155.869 359.25C155.987 359.47 156.155 359.642 156.375 359.767C156.595 359.892 156.86 359.955 157.17 359.955C157.386 359.955 157.583 359.924 157.761 359.864C157.943 359.803 158.098 359.716 158.227 359.602C158.356 359.485 158.451 359.345 158.511 359.182H161.375C161.277 359.788 161.044 360.314 160.676 360.761C160.309 361.205 159.822 361.549 159.216 361.795C158.614 362.038 157.909 362.159 157.102 362.159ZM162.655 362V353.273H165.632V354.932H165.723C165.905 354.386 166.215 353.955 166.655 353.636C167.094 353.318 167.617 353.159 168.223 353.159C168.837 353.159 169.365 353.322 169.808 353.648C170.251 353.97 170.518 354.398 170.609 354.932H170.7C170.848 354.398 171.162 353.97 171.643 353.648C172.125 353.322 172.689 353.159 173.337 353.159C174.174 353.159 174.852 353.428 175.371 353.966C175.893 354.504 176.155 355.22 176.155 356.114V362H173.018V356.909C173.018 356.527 172.922 356.227 172.729 356.011C172.536 355.792 172.276 355.682 171.95 355.682C171.628 355.682 171.373 355.792 171.183 356.011C170.998 356.227 170.905 356.527 170.905 356.909V362H167.905V356.909C167.905 356.527 167.808 356.227 167.615 356.011C167.422 355.792 167.162 355.682 166.837 355.682C166.621 355.682 166.435 355.731 166.28 355.83C166.125 355.928 166.003 356.07 165.916 356.256C165.833 356.437 165.791 356.655 165.791 356.909V362H162.655ZM182.543 362.159C181.865 362.159 181.221 362.053 180.611 361.841C180.005 361.625 179.467 361.286 178.997 360.824C178.527 360.362 178.158 359.759 177.889 359.017C177.624 358.275 177.493 357.375 177.497 356.318C177.501 355.375 177.622 354.527 177.861 353.773C178.103 353.019 178.446 352.377 178.889 351.847C179.336 351.316 179.87 350.911 180.491 350.631C181.113 350.347 181.804 350.205 182.565 350.205C183.421 350.205 184.175 350.369 184.827 350.699C185.478 351.028 185.997 351.47 186.384 352.023C186.774 352.572 187.001 353.178 187.065 353.841H183.952C183.88 353.511 183.713 353.271 183.452 353.119C183.194 352.964 182.899 352.886 182.565 352.886C181.902 352.886 181.416 353.174 181.105 353.75C180.798 354.326 180.641 355.083 180.634 356.023H180.702C180.849 355.667 181.073 355.362 181.372 355.108C181.671 354.854 182.02 354.659 182.418 354.523C182.815 354.386 183.236 354.318 183.679 354.318C184.384 354.318 184.999 354.477 185.526 354.795C186.056 355.114 186.469 355.549 186.764 356.102C187.06 356.655 187.205 357.288 187.202 358C187.205 358.833 187.009 359.562 186.611 360.188C186.217 360.812 185.67 361.297 184.969 361.642C184.268 361.987 183.459 362.159 182.543 362.159ZM182.52 359.773C182.834 359.773 183.113 359.701 183.355 359.557C183.601 359.413 183.793 359.216 183.929 358.966C184.069 358.716 184.137 358.432 184.134 358.114C184.137 357.792 184.069 357.508 183.929 357.261C183.793 357.011 183.601 356.814 183.355 356.67C183.113 356.527 182.834 356.455 182.52 356.455C182.289 356.455 182.075 356.496 181.878 356.58C181.685 356.659 181.516 356.775 181.372 356.926C181.228 357.074 181.115 357.25 181.031 357.455C180.952 357.655 180.91 357.875 180.906 358.114C180.91 358.432 180.982 358.716 181.122 358.966C181.262 359.216 181.454 359.413 181.696 359.557C181.938 359.701 182.213 359.773 182.52 359.773Z" fill="#181818" fill-opacity="0.75"/>
<g filter="url(#filter4_d_121_159)">
<rect x="120" y="20" width="384" height="96" rx="8" fill="white" fill-opacity="0.75" shape-rendering="crispEdges"/>
</g>
<path d="M144.795 74V65.2727H147.932V74H144.795ZM146.364 64.3636C145.939 64.3636 145.576 64.2235 145.273 63.9432C144.97 63.6629 144.818 63.3258 144.818 62.9318C144.818 62.5379 144.97 62.2008 145.273 61.9205C145.576 61.6402 145.939 61.5 146.364 61.5C146.792 61.5 147.155 61.6402 147.455 61.9205C147.758 62.2008 147.909 62.5379 147.909 62.9318C147.909 63.3258 147.758 63.6629 147.455 63.9432C147.155 64.2235 146.792 64.3636 146.364 64.3636ZM154.734 65.2727V67.5455H148.984V65.2727H154.734ZM150.098 63.1818H153.234V71.1932C153.234 71.3144 153.255 71.4167 153.297 71.5C153.339 71.5795 153.403 71.6402 153.49 71.6818C153.577 71.7197 153.689 71.7386 153.825 71.7386C153.92 71.7386 154.03 71.7273 154.155 71.7045C154.284 71.6818 154.378 71.6629 154.439 71.6477L154.893 73.8523C154.753 73.8939 154.553 73.9451 154.291 74.0057C154.034 74.0663 153.727 74.1061 153.371 74.125C152.651 74.1629 152.047 74.089 151.558 73.9034C151.07 73.714 150.702 73.4167 150.456 73.0114C150.21 72.6061 150.09 72.0985 150.098 71.4886V63.1818ZM160.102 74.1591C159.17 74.1591 158.367 73.9811 157.693 73.625C157.023 73.2652 156.506 72.75 156.142 72.0795C155.782 71.4053 155.602 70.5985 155.602 69.6591C155.602 68.7576 155.784 67.9697 156.148 67.2955C156.511 66.6212 157.025 66.0966 157.688 65.7216C158.35 65.3466 159.133 65.1591 160.034 65.1591C160.693 65.1591 161.29 65.2614 161.824 65.4659C162.358 65.6705 162.814 65.9678 163.193 66.358C163.572 66.7443 163.864 67.214 164.068 67.767C164.273 68.3201 164.375 68.9432 164.375 69.6364V70.3636H156.58V68.6364H161.489C161.485 68.3864 161.42 68.1667 161.295 67.9773C161.174 67.7841 161.009 67.6345 160.801 67.5284C160.597 67.4186 160.364 67.3636 160.102 67.3636C159.848 67.3636 159.616 67.4186 159.403 67.5284C159.191 67.6345 159.021 67.7822 158.892 67.9716C158.767 68.161 158.701 68.3826 158.693 68.6364V70.5C158.693 70.7803 158.752 71.0303 158.869 71.25C158.987 71.4697 159.155 71.642 159.375 71.767C159.595 71.892 159.86 71.9545 160.17 71.9545C160.386 71.9545 160.583 71.9242 160.761 71.8636C160.943 71.803 161.098 71.7159 161.227 71.6023C161.356 71.4848 161.451 71.3447 161.511 71.1818H164.375C164.277 71.7879 164.044 72.3144 163.676 72.7614C163.309 73.2045 162.822 73.5492 162.216 73.7955C161.614 74.0379 160.909 74.1591 160.102 74.1591ZM165.655 74V65.2727H168.632V66.9318H168.723C168.905 66.3864 169.215 65.9545 169.655 65.6364C170.094 65.3182 170.617 65.1591 171.223 65.1591C171.837 65.1591 172.365 65.322 172.808 65.6477C173.251 65.9697 173.518 66.3977 173.609 66.9318H173.7C173.848 66.3977 174.162 65.9697 174.643 65.6477C175.125 65.322 175.689 65.1591 176.337 65.1591C177.174 65.1591 177.852 65.428 178.371 65.9659C178.893 66.5038 179.155 67.2197 179.155 68.1136V74H176.018V68.9091C176.018 68.5265 175.922 68.2273 175.729 68.0114C175.536 67.7917 175.276 67.6818 174.95 67.6818C174.628 67.6818 174.373 67.7917 174.183 68.0114C173.998 68.2273 173.905 68.5265 173.905 68.9091V74H170.905V68.9091C170.905 68.5265 170.808 68.2273 170.615 68.0114C170.422 67.7917 170.162 67.6818 169.837 67.6818C169.621 67.6818 169.435 67.7311 169.28 67.8295C169.125 67.928 169.003 68.0701 168.916 68.2557C168.833 68.4375 168.791 68.6553 168.791 68.9091V74H165.655ZM180.679 74V71.7273L185.02 68.1364C185.308 67.8977 185.554 67.6742 185.759 67.4659C185.967 67.2538 186.126 67.036 186.236 66.8125C186.349 66.589 186.406 66.3409 186.406 66.0682C186.406 65.7689 186.342 65.5133 186.213 65.3011C186.088 65.089 185.914 64.9261 185.69 64.8125C185.467 64.6951 185.209 64.6364 184.918 64.6364C184.626 64.6364 184.368 64.6951 184.145 64.8125C183.925 64.9299 183.755 65.1023 183.634 65.3295C183.512 65.5568 183.452 65.8333 183.452 66.1591H180.452C180.452 65.3409 180.635 64.6364 181.003 64.0455C181.37 63.4545 181.889 63 182.56 62.6818C183.23 62.3636 184.016 62.2045 184.918 62.2045C185.849 62.2045 186.656 62.3542 187.338 62.6534C188.024 62.9489 188.552 63.3655 188.923 63.9034C189.298 64.4413 189.486 65.072 189.486 65.7955C189.486 66.2424 189.393 66.6875 189.207 67.1307C189.022 67.5701 188.688 68.0568 188.207 68.5909C187.726 69.125 187.043 69.7614 186.156 70.5L185.065 71.4091V71.4773H189.611V74H180.679Z" fill="#181818" fill-opacity="0.75"/>
<g filter="url(#filter5_d_121_159)">
<rect x="216" y="308" width="96" height="96" rx="8" fill="white" fill-opacity="0.75" shape-rendering="crispEdges"/>
</g>
<path d="M236.795 362V353.273H239.932V362H236.795ZM238.364 352.364C237.939 352.364 237.576 352.223 237.273 351.943C236.97 351.663 236.818 351.326 236.818 350.932C236.818 350.538 236.97 350.201 237.273 349.92C237.576 349.64 237.939 349.5 238.364 349.5C238.792 349.5 239.155 349.64 239.455 349.92C239.758 350.201 239.909 350.538 239.909 350.932C239.909 351.326 239.758 351.663 239.455 351.943C239.155 352.223 238.792 352.364 238.364 352.364ZM246.734 353.273V355.545H240.984V353.273H246.734ZM242.098 351.182H245.234V359.193C245.234 359.314 245.255 359.417 245.297 359.5C245.339 359.58 245.403 359.64 245.49 359.682C245.577 359.72 245.689 359.739 245.825 359.739C245.92 359.739 246.03 359.727 246.155 359.705C246.284 359.682 246.378 359.663 246.439 359.648L246.893 361.852C246.753 361.894 246.553 361.945 246.291 362.006C246.034 362.066 245.727 362.106 245.371 362.125C244.651 362.163 244.047 362.089 243.558 361.903C243.07 361.714 242.702 361.417 242.456 361.011C242.21 360.606 242.09 360.098 242.098 359.489V351.182ZM252.102 362.159C251.17 362.159 250.367 361.981 249.693 361.625C249.023 361.265 248.506 360.75 248.142 360.08C247.782 359.405 247.602 358.598 247.602 357.659C247.602 356.758 247.784 355.97 248.148 355.295C248.511 354.621 249.025 354.097 249.688 353.722C250.35 353.347 251.133 353.159 252.034 353.159C252.693 353.159 253.29 353.261 253.824 353.466C254.358 353.67 254.814 353.968 255.193 354.358C255.572 354.744 255.864 355.214 256.068 355.767C256.273 356.32 256.375 356.943 256.375 357.636V358.364H248.58V356.636H253.489C253.485 356.386 253.42 356.167 253.295 355.977C253.174 355.784 253.009 355.634 252.801 355.528C252.597 355.419 252.364 355.364 252.102 355.364C251.848 355.364 251.616 355.419 251.403 355.528C251.191 355.634 251.021 355.782 250.892 355.972C250.767 356.161 250.701 356.383 250.693 356.636V358.5C250.693 358.78 250.752 359.03 250.869 359.25C250.987 359.47 251.155 359.642 251.375 359.767C251.595 359.892 251.86 359.955 252.17 359.955C252.386 359.955 252.583 359.924 252.761 359.864C252.943 359.803 253.098 359.716 253.227 359.602C253.356 359.485 253.451 359.345 253.511 359.182H256.375C256.277 359.788 256.044 360.314 255.676 360.761C255.309 361.205 254.822 361.549 254.216 361.795C253.614 362.038 252.909 362.159 252.102 362.159ZM257.655 362V353.273H260.632V354.932H260.723C260.905 354.386 261.215 353.955 261.655 353.636C262.094 353.318 262.617 353.159 263.223 353.159C263.837 353.159 264.365 353.322 264.808 353.648C265.251 353.97 265.518 354.398 265.609 354.932H265.7C265.848 354.398 266.162 353.97 266.643 353.648C267.125 353.322 267.689 353.159 268.337 353.159C269.174 353.159 269.852 353.428 270.371 353.966C270.893 354.504 271.155 355.22 271.155 356.114V362H268.018V356.909C268.018 356.527 267.922 356.227 267.729 356.011C267.536 355.792 267.276 355.682 266.95 355.682C266.628 355.682 266.373 355.792 266.183 356.011C265.998 356.227 265.905 356.527 265.905 356.909V362H262.905V356.909C262.905 356.527 262.808 356.227 262.615 356.011C262.422 355.792 262.162 355.682 261.837 355.682C261.621 355.682 261.435 355.731 261.28 355.83C261.125 355.928 261.003 356.07 260.916 356.256C260.833 356.437 260.791 356.655 260.791 356.909V362H257.655ZM273.202 362L277.77 352.955V352.886H272.406V350.364H281.043V352.886L276.452 362H273.202Z" fill="#181818" fill-opacity="0.75"/>
<g filter="url(#filter6_d_121_159)">
<rect x="24" y="308" width="96" height="96" rx="8" fill="white" fill-opacity="0.75" shape-rendering="crispEdges"/>
</g>
<path d="M44.7955 362V353.273H47.9318V362H44.7955ZM46.3636 352.364C45.9394 352.364 45.5758 352.223 45.2727 351.943C44.9697 351.663 44.8182 351.326 44.8182 350.932C44.8182 350.538 44.9697 350.201 45.2727 349.92C45.5758 349.64 45.9394 349.5 46.3636 349.5C46.7917 349.5 47.1553 349.64 47.4545 349.92C47.7576 350.201 47.9091 350.538 47.9091 350.932C47.9091 351.326 47.7576 351.663 47.4545 351.943C47.1553 352.223 46.7917 352.364 46.3636 352.364ZM54.7344 353.273V355.545H48.9844V353.273H54.7344ZM50.098 351.182H53.2344V359.193C53.2344 359.314 53.2552 359.417 53.2969 359.5C53.3385 359.58 53.4029 359.64 53.4901 359.682C53.5772 359.72 53.6889 359.739 53.8253 359.739C53.92 359.739 54.0298 359.727 54.1548 359.705C54.2836 359.682 54.3783 359.663 54.4389 359.648L54.8935 361.852C54.7533 361.894 54.5526 361.945 54.2912 362.006C54.0336 362.066 53.7268 362.106 53.3707 362.125C52.651 362.163 52.0469 362.089 51.5582 361.903C51.0696 361.714 50.7022 361.417 50.456 361.011C50.2098 360.606 50.0904 360.098 50.098 359.489V351.182ZM60.1023 362.159C59.1705 362.159 58.3674 361.981 57.6932 361.625C57.0227 361.265 56.5057 360.75 56.142 360.08C55.7822 359.405 55.6023 358.598 55.6023 357.659C55.6023 356.758 55.7841 355.97 56.1477 355.295C56.5114 354.621 57.0246 354.097 57.6875 353.722C58.3504 353.347 59.1326 353.159 60.0341 353.159C60.6932 353.159 61.2898 353.261 61.8239 353.466C62.358 353.67 62.8144 353.968 63.1932 354.358C63.572 354.744 63.8636 355.214 64.0682 355.767C64.2727 356.32 64.375 356.943 64.375 357.636V358.364H56.5795V356.636H61.4886C61.4848 356.386 61.4205 356.167 61.2955 355.977C61.1742 355.784 61.0095 355.634 60.8011 355.528C60.5966 355.419 60.3636 355.364 60.1023 355.364C59.8485 355.364 59.6155 355.419 59.4034 355.528C59.1913 355.634 59.0208 355.782 58.892 355.972C58.767 356.161 58.7008 356.383 58.6932 356.636V358.5C58.6932 358.78 58.7519 359.03 58.8693 359.25C58.9867 359.47 59.1553 359.642 59.375 359.767C59.5947 359.892 59.8598 359.955 60.1705 359.955C60.3864 359.955 60.5833 359.924 60.7614 359.864C60.9432 359.803 61.0985 359.716 61.2273 359.602C61.3561 359.485 61.4508 359.345 61.5114 359.182H64.375C64.2765 359.788 64.0436 360.314 63.6761 360.761C63.3087 361.205 62.822 361.549 62.2159 361.795C61.6136 362.038 60.9091 362.159 60.1023 362.159ZM65.6548 362V353.273H68.6321V354.932H68.723C68.9048 354.386 69.2154 353.955 69.6548 353.636C70.0942 353.318 70.617 353.159 71.223 353.159C71.8366 353.159 72.3651 353.322 72.8082 353.648C73.2514 353.97 73.5185 354.398 73.6094 354.932H73.7003C73.848 354.398 74.1624 353.97 74.6435 353.648C75.1245 353.322 75.6889 353.159 76.3366 353.159C77.1738 353.159 77.8518 353.428 78.3707 353.966C78.8935 354.504 79.1548 355.22 79.1548 356.114V362H76.0185V356.909C76.0185 356.527 75.9219 356.227 75.7287 356.011C75.5355 355.792 75.276 355.682 74.9503 355.682C74.6283 355.682 74.3726 355.792 74.1832 356.011C73.9976 356.227 73.9048 356.527 73.9048 356.909V362H70.9048V356.909C70.9048 356.527 70.8082 356.227 70.6151 356.011C70.4219 355.792 70.1624 355.682 69.8366 355.682C69.6207 355.682 69.4351 355.731 69.2798 355.83C69.1245 355.928 69.0033 356.07 68.9162 356.256C68.8329 356.437 68.7912 356.655 68.7912 356.909V362H65.6548ZM85.3381 362.159C84.4441 362.159 83.6506 362.002 82.9574 361.688C82.268 361.369 81.7244 360.932 81.3267 360.375C80.9328 359.818 80.732 359.178 80.7244 358.455H83.7926C83.804 358.856 83.9593 359.176 84.2585 359.415C84.5616 359.653 84.9214 359.773 85.3381 359.773C85.66 359.773 85.9441 359.705 86.1903 359.568C86.4366 359.428 86.6297 359.231 86.7699 358.977C86.91 358.723 86.9782 358.428 86.9744 358.091C86.9782 357.75 86.91 357.455 86.7699 357.205C86.6297 356.951 86.4366 356.756 86.1903 356.619C85.9441 356.479 85.66 356.409 85.3381 356.409C85.0047 356.409 84.696 356.491 84.4119 356.653C84.1316 356.812 83.9252 357.034 83.7926 357.318L81.0199 356.773L81.4744 350.364H89.2926V352.886H84.0653L83.8381 355.455H83.9062C84.0881 355.102 84.4025 354.811 84.8494 354.58C85.2964 354.345 85.8153 354.227 86.4062 354.227C87.0994 354.227 87.7169 354.388 88.2585 354.71C88.804 355.032 89.2339 355.477 89.5483 356.045C89.8665 356.61 90.0237 357.261 90.0199 358C90.0237 358.811 89.8305 359.53 89.4403 360.159C89.054 360.784 88.5104 361.275 87.8097 361.631C87.1089 361.983 86.285 362.159 85.3381 362.159Z" fill="#181818" fill-opacity="0.75"/>
<g filter="url(#filter7_d_121_159)">
<rect x="312" y="308" width="96" height="96" rx="8" fill="white" fill-opacity="0.75" shape-rendering="crispEdges"/>
</g>
<path d="M332.795 362V353.273H335.932V362H332.795ZM334.364 352.364C333.939 352.364 333.576 352.223 333.273 351.943C332.97 351.663 332.818 351.326 332.818 350.932C332.818 350.538 332.97 350.201 333.273 349.92C333.576 349.64 333.939 349.5 334.364 349.5C334.792 349.5 335.155 349.64 335.455 349.92C335.758 350.201 335.909 350.538 335.909 350.932C335.909 351.326 335.758 351.663 335.455 351.943C335.155 352.223 334.792 352.364 334.364 352.364ZM342.734 353.273V355.545H336.984V353.273H342.734ZM338.098 351.182H341.234V359.193C341.234 359.314 341.255 359.417 341.297 359.5C341.339 359.58 341.403 359.64 341.49 359.682C341.577 359.72 341.689 359.739 341.825 359.739C341.92 359.739 342.03 359.727 342.155 359.705C342.284 359.682 342.378 359.663 342.439 359.648L342.893 361.852C342.753 361.894 342.553 361.945 342.291 362.006C342.034 362.066 341.727 362.106 341.371 362.125C340.651 362.163 340.047 362.089 339.558 361.903C339.07 361.714 338.702 361.417 338.456 361.011C338.21 360.606 338.09 360.098 338.098 359.489V351.182ZM348.102 362.159C347.17 362.159 346.367 361.981 345.693 361.625C345.023 361.265 344.506 360.75 344.142 360.08C343.782 359.405 343.602 358.598 343.602 357.659C343.602 356.758 343.784 355.97 344.148 355.295C344.511 354.621 345.025 354.097 345.688 353.722C346.35 353.347 347.133 353.159 348.034 353.159C348.693 353.159 349.29 353.261 349.824 353.466C350.358 353.67 350.814 353.968 351.193 354.358C351.572 354.744 351.864 355.214 352.068 355.767C352.273 356.32 352.375 356.943 352.375 357.636V358.364H344.58V356.636H349.489C349.485 356.386 349.42 356.167 349.295 355.977C349.174 355.784 349.009 355.634 348.801 355.528C348.597 355.419 348.364 355.364 348.102 355.364C347.848 355.364 347.616 355.419 347.403 355.528C347.191 355.634 347.021 355.782 346.892 355.972C346.767 356.161 346.701 356.383 346.693 356.636V358.5C346.693 358.78 346.752 359.03 346.869 359.25C346.987 359.47 347.155 359.642 347.375 359.767C347.595 359.892 347.86 359.955 348.17 359.955C348.386 359.955 348.583 359.924 348.761 359.864C348.943 359.803 349.098 359.716 349.227 359.602C349.356 359.485 349.451 359.345 349.511 359.182H352.375C352.277 359.788 352.044 360.314 351.676 360.761C351.309 361.205 350.822 361.549 350.216 361.795C349.614 362.038 348.909 362.159 348.102 362.159ZM353.655 362V353.273H356.632V354.932H356.723C356.905 354.386 357.215 353.955 357.655 353.636C358.094 353.318 358.617 353.159 359.223 353.159C359.837 353.159 360.365 353.322 360.808 353.648C361.251 353.97 361.518 354.398 361.609 354.932H361.7C361.848 354.398 362.162 353.97 362.643 353.648C363.125 353.322 363.689 353.159 364.337 353.159C365.174 353.159 365.852 353.428 366.371 353.966C366.893 354.504 367.155 355.22 367.155 356.114V362H364.018V356.909C364.018 356.527 363.922 356.227 363.729 356.011C363.536 355.792 363.276 355.682 362.95 355.682C362.628 355.682 362.373 355.792 362.183 356.011C361.998 356.227 361.905 356.527 361.905 356.909V362H358.905V356.909C358.905 356.527 358.808 356.227 358.615 356.011C358.422 355.792 358.162 355.682 357.837 355.682C357.621 355.682 357.435 355.731 357.28 355.83C357.125 355.928 357.003 356.07 356.916 356.256C356.833 356.437 356.791 356.655 356.791 356.909V362H353.655ZM373.429 362.159C372.49 362.159 371.651 362.013 370.912 361.722C370.177 361.43 369.598 361.034 369.173 360.534C368.753 360.034 368.543 359.47 368.543 358.841C368.543 358.36 368.662 357.92 368.901 357.523C369.143 357.125 369.469 356.795 369.878 356.534C370.287 356.269 370.743 356.098 371.247 356.023V355.932C370.584 355.818 370.039 355.525 369.611 355.051C369.187 354.574 368.974 354.011 368.974 353.364C368.974 352.754 369.168 352.212 369.554 351.739C369.94 351.261 370.469 350.886 371.139 350.614C371.81 350.341 372.573 350.205 373.429 350.205C374.285 350.205 375.048 350.343 375.719 350.619C376.389 350.892 376.918 351.267 377.304 351.744C377.69 352.218 377.884 352.758 377.884 353.364C377.884 354.015 377.668 354.578 377.236 355.051C376.804 355.525 376.262 355.818 375.611 355.932V356.023C376.111 356.098 376.565 356.269 376.974 356.534C377.384 356.795 377.709 357.125 377.952 357.523C378.194 357.92 378.315 358.36 378.315 358.841C378.315 359.47 378.103 360.034 377.679 360.534C377.259 361.034 376.679 361.43 375.94 361.722C375.205 362.013 374.368 362.159 373.429 362.159ZM373.429 359.977C373.728 359.977 373.993 359.917 374.224 359.795C374.455 359.674 374.637 359.508 374.77 359.295C374.906 359.08 374.974 358.837 374.974 358.568C374.974 358.299 374.906 358.061 374.77 357.852C374.637 357.644 374.455 357.481 374.224 357.364C373.993 357.242 373.728 357.182 373.429 357.182C373.134 357.182 372.868 357.242 372.634 357.364C372.402 357.481 372.219 357.644 372.082 357.852C371.95 358.061 371.884 358.299 371.884 358.568C371.884 358.837 371.95 359.078 372.082 359.29C372.219 359.502 372.402 359.67 372.634 359.795C372.868 359.917 373.134 359.977 373.429 359.977ZM373.429 355C373.694 355 373.929 354.945 374.134 354.835C374.338 354.725 374.499 354.574 374.616 354.381C374.734 354.187 374.793 353.97 374.793 353.727C374.793 353.485 374.734 353.271 374.616 353.085C374.499 352.896 374.338 352.748 374.134 352.642C373.929 352.532 373.694 352.477 373.429 352.477C373.168 352.477 372.933 352.532 372.724 352.642C372.52 352.748 372.359 352.896 372.241 353.085C372.124 353.271 372.065 353.485 372.065 353.727C372.065 353.97 372.124 354.187 372.241 354.381C372.359 354.57 372.52 354.722 372.724 354.835C372.933 354.945 373.168 355 373.429 355Z" fill="#181818" fill-opacity="0.75"/>
<g filter="url(#filter8_d_121_159)">
<rect x="408" y="116" width="96" height="192" rx="8" fill="white" fill-opacity="0.75" shape-rendering="crispEdges"/>
</g>
<path d="M428.795 170V161.273H431.932V170H428.795ZM430.364 160.364C429.939 160.364 429.576 160.223 429.273 159.943C428.97 159.663 428.818 159.326 428.818 158.932C428.818 158.538 428.97 158.201 429.273 157.92C429.576 157.64 429.939 157.5 430.364 157.5C430.792 157.5 431.155 157.64 431.455 157.92C431.758 158.201 431.909 158.538 431.909 158.932C431.909 159.326 431.758 159.663 431.455 159.943C431.155 160.223 430.792 160.364 430.364 160.364ZM438.734 161.273V163.545H432.984V161.273H438.734ZM434.098 159.182H437.234V167.193C437.234 167.314 437.255 167.417 437.297 167.5C437.339 167.58 437.403 167.64 437.49 167.682C437.577 167.72 437.689 167.739 437.825 167.739C437.92 167.739 438.03 167.727 438.155 167.705C438.284 167.682 438.378 167.663 438.439 167.648L438.893 169.852C438.753 169.894 438.553 169.945 438.291 170.006C438.034 170.066 437.727 170.106 437.371 170.125C436.651 170.163 436.047 170.089 435.558 169.903C435.07 169.714 434.702 169.417 434.456 169.011C434.21 168.606 434.09 168.098 434.098 167.489V159.182ZM444.102 170.159C443.17 170.159 442.367 169.981 441.693 169.625C441.023 169.265 440.506 168.75 440.142 168.08C439.782 167.405 439.602 166.598 439.602 165.659C439.602 164.758 439.784 163.97 440.148 163.295C440.511 162.621 441.025 162.097 441.688 161.722C442.35 161.347 443.133 161.159 444.034 161.159C444.693 161.159 445.29 161.261 445.824 161.466C446.358 161.67 446.814 161.968 447.193 162.358C447.572 162.744 447.864 163.214 448.068 163.767C448.273 164.32 448.375 164.943 448.375 165.636V166.364H440.58V164.636H445.489C445.485 164.386 445.42 164.167 445.295 163.977C445.174 163.784 445.009 163.634 444.801 163.528C444.597 163.419 444.364 163.364 444.102 163.364C443.848 163.364 443.616 163.419 443.403 163.528C443.191 163.634 443.021 163.782 442.892 163.972C442.767 164.161 442.701 164.383 442.693 164.636V166.5C442.693 166.78 442.752 167.03 442.869 167.25C442.987 167.47 443.155 167.642 443.375 167.767C443.595 167.892 443.86 167.955 444.17 167.955C444.386 167.955 444.583 167.924 444.761 167.864C444.943 167.803 445.098 167.716 445.227 167.602C445.356 167.485 445.451 167.345 445.511 167.182H448.375C448.277 167.788 448.044 168.314 447.676 168.761C447.309 169.205 446.822 169.549 446.216 169.795C445.614 170.038 444.909 170.159 444.102 170.159ZM449.655 170V161.273H452.632V162.932H452.723C452.905 162.386 453.215 161.955 453.655 161.636C454.094 161.318 454.617 161.159 455.223 161.159C455.837 161.159 456.365 161.322 456.808 161.648C457.251 161.97 457.518 162.398 457.609 162.932H457.7C457.848 162.398 458.162 161.97 458.643 161.648C459.125 161.322 459.689 161.159 460.337 161.159C461.174 161.159 461.852 161.428 462.371 161.966C462.893 162.504 463.155 163.22 463.155 164.114V170H460.018V164.909C460.018 164.527 459.922 164.227 459.729 164.011C459.536 163.792 459.276 163.682 458.95 163.682C458.628 163.682 458.373 163.792 458.183 164.011C457.998 164.227 457.905 164.527 457.905 164.909V170H454.905V164.909C454.905 164.527 454.808 164.227 454.615 164.011C454.422 163.792 454.162 163.682 453.837 163.682C453.621 163.682 453.435 163.731 453.28 163.83C453.125 163.928 453.003 164.07 452.916 164.256C452.833 164.437 452.791 164.655 452.791 164.909V170H449.655ZM464.565 168.182V165.727L469.247 158.364H471.474V161.636H470.202L467.679 165.636V165.727H474.588V168.182H464.565ZM470.224 170V167.432L470.293 166.364V158.364H473.247V170H470.224Z" fill="#181818" fill-opacity="0.75"/>
<g filter="url(#filter9_d_121_159)">
<rect x="408" y="308" width="96" height="96" rx="8" fill="white" fill-opacity="0.75" shape-rendering="crispEdges"/>
</g>
<path d="M427.795 362V353.273H430.932V362H427.795ZM429.364 352.364C428.939 352.364 428.576 352.223 428.273 351.943C427.97 351.663 427.818 351.326 427.818 350.932C427.818 350.538 427.97 350.201 428.273 349.92C428.576 349.64 428.939 349.5 429.364 349.5C429.792 349.5 430.155 349.64 430.455 349.92C430.758 350.201 430.909 350.538 430.909 350.932C430.909 351.326 430.758 351.663 430.455 351.943C430.155 352.223 429.792 352.364 429.364 352.364ZM437.734 353.273V355.545H431.984V353.273H437.734ZM433.098 351.182H436.234V359.193C436.234 359.314 436.255 359.417 436.297 359.5C436.339 359.58 436.403 359.64 436.49 359.682C436.577 359.72 436.689 359.739 436.825 359.739C436.92 359.739 437.03 359.727 437.155 359.705C437.284 359.682 437.378 359.663 437.439 359.648L437.893 361.852C437.753 361.894 437.553 361.945 437.291 362.006C437.034 362.066 436.727 362.106 436.371 362.125C435.651 362.163 435.047 362.089 434.558 361.903C434.07 361.714 433.702 361.417 433.456 361.011C433.21 360.606 433.09 360.098 433.098 359.489V351.182ZM443.102 362.159C442.17 362.159 441.367 361.981 440.693 361.625C440.023 361.265 439.506 360.75 439.142 360.08C438.782 359.405 438.602 358.598 438.602 357.659C438.602 356.758 438.784 355.97 439.148 355.295C439.511 354.621 440.025 354.097 440.688 353.722C441.35 353.347 442.133 353.159 443.034 353.159C443.693 353.159 444.29 353.261 444.824 353.466C445.358 353.67 445.814 353.968 446.193 354.358C446.572 354.744 446.864 355.214 447.068 355.767C447.273 356.32 447.375 356.943 447.375 357.636V358.364H439.58V356.636H444.489C444.485 356.386 444.42 356.167 444.295 355.977C444.174 355.784 444.009 355.634 443.801 355.528C443.597 355.419 443.364 355.364 443.102 355.364C442.848 355.364 442.616 355.419 442.403 355.528C442.191 355.634 442.021 355.782 441.892 355.972C441.767 356.161 441.701 356.383 441.693 356.636V358.5C441.693 358.78 441.752 359.03 441.869 359.25C441.987 359.47 442.155 359.642 442.375 359.767C442.595 359.892 442.86 359.955 443.17 359.955C443.386 359.955 443.583 359.924 443.761 359.864C443.943 359.803 444.098 359.716 444.227 359.602C444.356 359.485 444.451 359.345 444.511 359.182H447.375C447.277 359.788 447.044 360.314 446.676 360.761C446.309 361.205 445.822 361.549 445.216 361.795C444.614 362.038 443.909 362.159 443.102 362.159ZM448.655 362V353.273H451.632V354.932H451.723C451.905 354.386 452.215 353.955 452.655 353.636C453.094 353.318 453.617 353.159 454.223 353.159C454.837 353.159 455.365 353.322 455.808 353.648C456.251 353.97 456.518 354.398 456.609 354.932H456.7C456.848 354.398 457.162 353.97 457.643 353.648C458.125 353.322 458.689 353.159 459.337 353.159C460.174 353.159 460.852 353.428 461.371 353.966C461.893 354.504 462.155 355.22 462.155 356.114V362H459.018V356.909C459.018 356.527 458.922 356.227 458.729 356.011C458.536 355.792 458.276 355.682 457.95 355.682C457.628 355.682 457.373 355.792 457.183 356.011C456.998 356.227 456.905 356.527 456.905 356.909V362H453.905V356.909C453.905 356.527 453.808 356.227 453.615 356.011C453.422 355.792 453.162 355.682 452.837 355.682C452.621 355.682 452.435 355.731 452.28 355.83C452.125 355.928 452.003 356.07 451.916 356.256C451.833 356.437 451.791 356.655 451.791 356.909V362H448.655ZM468.224 350.205C468.902 350.205 469.545 350.312 470.151 350.528C470.757 350.741 471.293 351.076 471.759 351.534C472.228 351.992 472.596 352.591 472.861 353.33C473.13 354.064 473.266 354.955 473.27 356C473.274 356.955 473.154 357.812 472.912 358.574C472.673 359.331 472.33 359.977 471.884 360.511C471.44 361.045 470.906 361.455 470.281 361.739C469.66 362.019 468.967 362.159 468.202 362.159C467.342 362.159 466.586 361.994 465.935 361.665C465.283 361.335 464.764 360.892 464.378 360.335C463.991 359.778 463.766 359.159 463.702 358.477H466.815C466.891 358.83 467.058 359.085 467.315 359.244C467.573 359.4 467.868 359.477 468.202 359.477C468.868 359.477 469.355 359.189 469.662 358.614C469.973 358.034 470.13 357.261 470.134 356.295H470.065C469.918 356.652 469.694 356.956 469.395 357.21C469.096 357.464 468.747 357.659 468.349 357.795C467.952 357.932 467.531 358 467.088 358C466.387 358 465.774 357.843 465.247 357.528C464.721 357.21 464.31 356.777 464.014 356.227C463.719 355.674 463.569 355.045 463.565 354.341C463.562 353.515 463.757 352.792 464.151 352.17C464.545 351.549 465.092 351.066 465.793 350.722C466.493 350.377 467.304 350.205 468.224 350.205ZM468.247 352.591C467.933 352.591 467.652 352.663 467.406 352.807C467.164 352.951 466.973 353.146 466.832 353.392C466.696 353.638 466.63 353.917 466.634 354.227C466.637 354.538 466.707 354.816 466.844 355.062C466.984 355.309 467.173 355.504 467.412 355.648C467.654 355.792 467.933 355.864 468.247 355.864C468.478 355.864 468.692 355.824 468.889 355.744C469.086 355.661 469.257 355.545 469.401 355.398C469.548 355.246 469.662 355.072 469.741 354.875C469.825 354.674 469.865 354.458 469.861 354.227C469.857 353.917 469.785 353.638 469.645 353.392C469.505 353.146 469.313 352.951 469.071 352.807C468.829 352.663 468.554 352.591 468.247 352.591Z" fill="#181818" fill-opacity="0.75"/>
<path d="M64.68 79.092C64.392 79.86 64.056 80.376 63.672 80.64C63.312 80.88 62.916 81 62.484 81C62.148 81 61.896 80.916 61.728 80.748C61.584 80.556 61.512 80.316 61.512 80.028C61.512 79.74 61.572 79.44 61.692 79.128L70.152 56.34C70.248 56.076 70.476 55.872 70.836 55.728C71.22 55.56 71.652 55.476 72.132 55.476C72.66 55.476 73.128 55.56 73.536 55.728C73.968 55.896 74.232 56.136 74.328 56.448L82.572 79.272C82.62 79.512 82.644 79.692 82.644 79.812C82.644 80.148 82.524 80.436 82.284 80.676C82.068 80.892 81.72 81 81.24 81C80.736 81 80.22 80.868 79.692 80.604C79.188 80.34 78.804 79.836 78.54 79.092L76.632 74.16H66.516L64.68 79.092ZM71.736 59.724H71.52L67.092 72.288H76.092L71.736 59.724Z" fill="#181818" fill-opacity="0.25"/>
<path d="M64.68 176.092C64.392 176.86 64.056 177.376 63.672 177.64C63.312 177.88 62.916 178 62.484 178C62.148 178 61.896 177.916 61.728 177.748C61.584 177.556 61.512 177.316 61.512 177.028C61.512 176.74 61.572 176.44 61.692 176.128L70.152 153.34C70.248 153.076 70.476 152.872 70.836 152.728C71.22 152.56 71.652 152.476 72.132 152.476C72.66 152.476 73.128 152.56 73.536 152.728C73.968 152.896 74.232 153.136 74.328 153.448L82.572 176.272C82.62 176.512 82.644 176.692 82.644 176.812C82.644 177.148 82.524 177.436 82.284 177.676C82.068 177.892 81.72 178 81.24 178C80.736 178 80.22 177.868 79.692 177.604C79.188 177.34 78.804 176.836 78.54 176.092L76.632 171.16H66.516L64.68 176.092ZM71.736 156.724H71.52L67.092 169.288H76.092L71.736 156.724Z" fill="#181818" fill-opacity="0.25"/>
<path d="M159.6 57.276C159.6 56.652 159.732 56.196 159.996 55.908C160.284 55.62 160.704 55.476 161.256 55.476H168.636C173.964 55.476 176.628 57.612 176.628 61.884C176.628 63.084 176.256 64.212 175.512 65.268C174.792 66.3 173.808 66.972 172.56 67.284V67.464C174.384 67.776 175.74 68.472 176.628 69.552C177.516 70.608 177.96 71.88 177.96 73.368C177.96 76.272 177.012 78.276 175.116 79.38C173.244 80.46 171.144 81 168.816 81H161.256C160.704 81 160.284 80.856 159.996 80.568C159.732 80.28 159.6 79.824 159.6 79.2V57.276ZM163.488 66.672H167.628C168.396 66.672 169.152 66.516 169.896 66.204C170.664 65.868 171.3 65.34 171.804 64.62C172.308 63.876 172.56 62.928 172.56 61.776C172.56 60.216 172.02 59.1 170.94 58.428C169.86 57.732 168.66 57.384 167.34 57.384H163.488V66.672ZM163.488 79.092H168.312C169.728 79.092 171.012 78.684 172.164 77.868C173.316 77.028 173.892 75.648 173.892 73.728C173.892 72.528 173.592 71.544 172.992 70.776C172.392 70.008 171.636 69.456 170.724 69.12C169.812 68.76 168.888 68.58 167.952 68.58H163.488V79.092Z" fill="#181818" fill-opacity="0.25"/>
<path d="M250.6 57.276C250.6 56.652 250.732 56.196 250.996 55.908C251.284 55.62 251.704 55.476 252.256 55.476H259.636C264.964 55.476 267.628 57.612 267.628 61.884C267.628 63.084 267.256 64.212 266.512 65.268C265.792 66.3 264.808 66.972 263.56 67.284V67.464C265.384 67.776 266.74 68.472 267.628 69.552C268.516 70.608 268.96 71.88 268.96 73.368C268.96 76.272 268.012 78.276 266.116 79.38C264.244 80.46 262.144 81 259.816 81H252.256C251.704 81 251.284 80.856 250.996 80.568C250.732 80.28 250.6 79.824 250.6 79.2V57.276ZM254.488 66.672H258.628C259.396 66.672 260.152 66.516 260.896 66.204C261.664 65.868 262.3 65.34 262.804 64.62C263.308 63.876 263.56 62.928 263.56 61.776C263.56 60.216 263.02 59.1 261.94 58.428C260.86 57.732 259.66 57.384 258.34 57.384H254.488V66.672ZM254.488 79.092H259.312C260.728 79.092 262.012 78.684 263.164 77.868C264.316 77.028 264.892 75.648 264.892 73.728C264.892 72.528 264.592 71.544 263.992 70.776C263.392 70.008 262.636 69.456 261.724 69.12C260.812 68.76 259.888 68.58 258.952 68.58H254.488V79.092Z" fill="#181818" fill-opacity="0.25"/>
<path d="M346.6 57.276C346.6 56.652 346.732 56.196 346.996 55.908C347.284 55.62 347.704 55.476 348.256 55.476H355.636C360.964 55.476 363.628 57.612 363.628 61.884C363.628 63.084 363.256 64.212 362.512 65.268C361.792 66.3 360.808 66.972 359.56 67.284V67.464C361.384 67.776 362.74 68.472 363.628 69.552C364.516 70.608 364.96 71.88 364.96 73.368C364.96 76.272 364.012 78.276 362.116 79.38C360.244 80.46 358.144 81 355.816 81H348.256C347.704 81 347.284 80.856 346.996 80.568C346.732 80.28 346.6 79.824 346.6 79.2V57.276ZM350.488 66.672H354.628C355.396 66.672 356.152 66.516 356.896 66.204C357.664 65.868 358.3 65.34 358.804 64.62C359.308 63.876 359.56 62.928 359.56 61.776C359.56 60.216 359.02 59.1 357.94 58.428C356.86 57.732 355.66 57.384 354.34 57.384H350.488V66.672ZM350.488 79.092H355.312C356.728 79.092 358.012 78.684 359.164 77.868C360.316 77.028 360.892 75.648 360.892 73.728C360.892 72.528 360.592 71.544 359.992 70.776C359.392 70.008 358.636 69.456 357.724 69.12C356.812 68.76 355.888 68.58 354.952 68.58H350.488V79.092Z" fill="#181818" fill-opacity="0.25"/>
<path d="M174.108 155.956C173.412 155.956 172.884 155.776 172.524 155.416C172.188 155.056 172.02 154.456 172.02 153.616V151.6C171.132 151.408 170.256 151.312 169.392 151.312C167.112 151.312 165.3 152.272 163.956 154.192C162.636 156.088 161.976 158.872 161.976 162.544C161.976 166.456 162.624 169.204 163.92 170.788C165.216 172.348 167.124 173.128 169.644 173.128C171.132 173.128 172.704 172.78 174.36 172.084L175.044 171.796C175.188 171.748 175.284 171.724 175.332 171.724C175.572 171.724 175.776 171.844 175.944 172.084C176.112 172.3 176.196 172.54 176.196 172.804C176.196 173.14 176.04 173.38 175.728 173.524L175.116 173.776C174.132 174.184 173.136 174.496 172.128 174.712C171.144 174.904 169.98 175 168.636 175C164.988 175 162.288 173.92 160.536 171.76C158.784 169.576 157.908 166.48 157.908 162.472C157.908 159.568 158.376 157.144 159.312 155.2C160.272 153.256 161.58 151.816 163.236 150.88C164.892 149.944 166.788 149.476 168.924 149.476C170.844 149.476 172.596 149.728 174.18 150.232C174.756 150.424 175.14 150.64 175.332 150.88C175.548 151.096 175.656 151.468 175.656 151.996V154.156C175.656 154.78 175.524 155.236 175.26 155.524C175.02 155.812 174.636 155.956 174.108 155.956Z" fill="#181818" fill-opacity="0.25"/>
<path d="M174.108 255.956C173.412 255.956 172.884 255.776 172.524 255.416C172.188 255.056 172.02 254.456 172.02 253.616V251.6C171.132 251.408 170.256 251.312 169.392 251.312C167.112 251.312 165.3 252.272 163.956 254.192C162.636 256.088 161.976 258.872 161.976 262.544C161.976 266.456 162.624 269.204 163.92 270.788C165.216 272.348 167.124 273.128 169.644 273.128C171.132 273.128 172.704 272.78 174.36 272.084L175.044 271.796C175.188 271.748 175.284 271.724 175.332 271.724C175.572 271.724 175.776 271.844 175.944 272.084C176.112 272.3 176.196 272.54 176.196 272.804C176.196 273.14 176.04 273.38 175.728 273.524L175.116 273.776C174.132 274.184 173.136 274.496 172.128 274.712C171.144 274.904 169.98 275 168.636 275C164.988 275 162.288 273.92 160.536 271.76C158.784 269.576 157.908 266.48 157.908 262.472C157.908 259.568 158.376 257.144 159.312 255.2C160.272 253.256 161.58 251.816 163.236 250.88C164.892 249.944 166.788 249.476 168.924 249.476C170.844 249.476 172.596 249.728 174.18 250.232C174.756 250.424 175.14 250.64 175.332 250.88C175.548 251.096 175.656 251.468 175.656 251.996V254.156C175.656 254.78 175.524 255.236 175.26 255.524C175.02 255.812 174.636 255.956 174.108 255.956Z" fill="#181818" fill-opacity="0.25"/>
<path d="M163.488 367.66C163.488 368.5 163.308 369.1 162.948 369.46C162.588 369.82 162.024 370 161.256 370C160.704 370 160.284 369.856 159.996 369.568C159.732 369.28 159.6 368.824 159.6 368.2V346.276C159.6 345.652 159.732 345.196 159.996 344.908C160.284 344.62 160.704 344.476 161.256 344.476H173.496C174.24 344.476 174.78 344.572 175.116 344.764C175.476 344.956 175.656 345.304 175.656 345.808V348.58C175.656 349.204 175.524 349.66 175.26 349.948C175.02 350.236 174.636 350.38 174.108 350.38C173.412 350.38 172.884 350.2 172.524 349.84C172.188 349.48 172.02 348.88 172.02 348.04V346.384H163.488V355.996H171.048C171.72 355.996 172.056 356.332 172.056 357.004C172.056 357.316 171.96 357.556 171.768 357.724C171.6 357.892 171.36 357.976 171.048 357.976H163.488V367.66Z" fill="#181818" fill-opacity="0.25"/>
<path d="M267.108 155.956C266.412 155.956 265.884 155.776 265.524 155.416C265.188 155.056 265.02 154.456 265.02 153.616V151.6C264.132 151.408 263.256 151.312 262.392 151.312C260.112 151.312 258.3 152.272 256.956 154.192C255.636 156.088 254.976 158.872 254.976 162.544C254.976 166.456 255.624 169.204 256.92 170.788C258.216 172.348 260.124 173.128 262.644 173.128C264.132 173.128 265.704 172.78 267.36 172.084L268.044 171.796C268.188 171.748 268.284 171.724 268.332 171.724C268.572 171.724 268.776 171.844 268.944 172.084C269.112 172.3 269.196 172.54 269.196 172.804C269.196 173.14 269.04 173.38 268.728 173.524L268.116 173.776C267.132 174.184 266.136 174.496 265.128 174.712C264.144 174.904 262.98 175 261.636 175C257.988 175 255.288 173.92 253.536 171.76C251.784 169.576 250.908 166.48 250.908 162.472C250.908 159.568 251.376 157.144 252.312 155.2C253.272 153.256 254.58 151.816 256.236 150.88C257.892 149.944 259.788 149.476 261.924 149.476C263.844 149.476 265.596 149.728 267.18 150.232C267.756 150.424 268.14 150.64 268.332 150.88C268.548 151.096 268.656 151.468 268.656 151.996V154.156C268.656 154.78 268.524 155.236 268.26 155.524C268.02 155.812 267.636 155.956 267.108 155.956Z" fill="#181818" fill-opacity="0.25"/>
<path d="M267.108 255.956C266.412 255.956 265.884 255.776 265.524 255.416C265.188 255.056 265.02 254.456 265.02 253.616V251.6C264.132 251.408 263.256 251.312 262.392 251.312C260.112 251.312 258.3 252.272 256.956 254.192C255.636 256.088 254.976 258.872 254.976 262.544C254.976 266.456 255.624 269.204 256.92 270.788C258.216 272.348 260.124 273.128 262.644 273.128C264.132 273.128 265.704 272.78 267.36 272.084L268.044 271.796C268.188 271.748 268.284 271.724 268.332 271.724C268.572 271.724 268.776 271.844 268.944 272.084C269.112 272.3 269.196 272.54 269.196 272.804C269.196 273.14 269.04 273.38 268.728 273.524L268.116 273.776C267.132 274.184 266.136 274.496 265.128 274.712C264.144 274.904 262.98 275 261.636 275C257.988 275 255.288 273.92 253.536 271.76C251.784 269.576 250.908 266.48 250.908 262.472C250.908 259.568 251.376 257.144 252.312 255.2C253.272 253.256 254.58 251.816 256.236 250.88C257.892 249.944 259.788 249.476 261.924 249.476C263.844 249.476 265.596 249.728 267.18 250.232C267.756 250.424 268.14 250.64 268.332 250.88C268.548 251.096 268.656 251.468 268.656 251.996V254.156C268.656 254.78 268.524 255.236 268.26 255.524C268.02 255.812 267.636 255.956 267.108 255.956Z" fill="#181818" fill-opacity="0.25"/>
<path d="M268.224 350.956C267.528 350.956 267 350.776 266.64 350.416C266.304 350.056 266.136 349.456 266.136 348.616V346.6C265.368 346.408 264.396 346.312 263.22 346.312C261.636 346.312 260.22 346.732 258.972 347.572C257.748 348.412 256.776 349.672 256.056 351.352C255.336 353.032 254.976 355.084 254.976 357.508C254.976 361.444 255.636 364.204 256.956 365.788C258.3 367.372 260.268 368.164 262.86 368.164C264.588 368.164 266.028 367.924 267.18 367.444V359.668H263.148C262.86 359.668 262.632 359.572 262.464 359.38C262.32 359.188 262.248 358.96 262.248 358.696C262.248 358.432 262.332 358.204 262.5 358.012C262.692 357.796 262.944 357.688 263.256 357.688H269.376C270 357.688 270.42 357.808 270.636 358.048C270.852 358.264 270.96 358.624 270.96 359.128V366.58C270.96 367.252 270.864 367.732 270.672 368.02C270.504 368.284 270.216 368.5 269.808 368.668C268.584 369.148 267.36 369.496 266.136 369.712C264.936 369.904 263.616 370 262.176 370C258.312 370 255.468 368.92 253.644 366.76C251.82 364.576 250.908 361.468 250.908 357.436C250.908 354.556 251.436 352.144 252.492 350.2C253.548 348.256 254.964 346.816 256.74 345.88C258.54 344.944 260.556 344.476 262.788 344.476C264.732 344.476 266.568 344.74 268.296 345.268C268.872 345.46 269.256 345.676 269.448 345.916C269.664 346.132 269.772 346.504 269.772 347.032V349.156C269.772 349.78 269.64 350.236 269.376 350.524C269.136 350.812 268.752 350.956 268.224 350.956Z" fill="#181818" fill-opacity="0.25"/>
<path d="M363.108 155.956C362.412 155.956 361.884 155.776 361.524 155.416C361.188 155.056 361.02 154.456 361.02 153.616V151.6C360.132 151.408 359.256 151.312 358.392 151.312C356.112 151.312 354.3 152.272 352.956 154.192C351.636 156.088 350.976 158.872 350.976 162.544C350.976 166.456 351.624 169.204 352.92 170.788C354.216 172.348 356.124 173.128 358.644 173.128C360.132 173.128 361.704 172.78 363.36 172.084L364.044 171.796C364.188 171.748 364.284 171.724 364.332 171.724C364.572 171.724 364.776 171.844 364.944 172.084C365.112 172.3 365.196 172.54 365.196 172.804C365.196 173.14 365.04 173.38 364.728 173.524L364.116 173.776C363.132 174.184 362.136 174.496 361.128 174.712C360.144 174.904 358.98 175 357.636 175C353.988 175 351.288 173.92 349.536 171.76C347.784 169.576 346.908 166.48 346.908 162.472C346.908 159.568 347.376 157.144 348.312 155.2C349.272 153.256 350.58 151.816 352.236 150.88C353.892 149.944 355.788 149.476 357.924 149.476C359.844 149.476 361.596 149.728 363.18 150.232C363.756 150.424 364.14 150.64 364.332 150.88C364.548 151.096 364.656 151.468 364.656 151.996V154.156C364.656 154.78 364.524 155.236 364.26 155.524C364.02 155.812 363.636 155.956 363.108 155.956Z" fill="#181818" fill-opacity="0.25"/>
<path d="M443.6 151.276C443.6 150.652 443.732 150.196 443.996 149.908C444.284 149.62 444.704 149.476 445.256 149.476H450.404C458.828 149.476 463.04 153.688 463.04 162.112C463.04 165.256 462.38 167.8 461.06 169.744C459.764 171.664 458.168 173.02 456.272 173.812C454.4 174.604 452.504 175 450.584 175H445.256C444.704 175 444.284 174.856 443.996 174.568C443.732 174.28 443.6 173.824 443.6 173.2V151.276ZM447.488 173.092H448.28V173.056H449.972C452.636 173.056 454.796 172.156 456.452 170.356C458.132 168.556 458.972 165.808 458.972 162.112C458.972 158.368 458.144 155.644 456.488 153.94C454.856 152.236 452.684 151.384 449.972 151.384H447.488V173.092Z" fill="#181818" fill-opacity="0.25"/>
<path d="M443.6 251.276C443.6 250.652 443.732 250.196 443.996 249.908C444.284 249.62 444.704 249.476 445.256 249.476H450.404C458.828 249.476 463.04 253.688 463.04 262.112C463.04 265.256 462.38 267.8 461.06 269.744C459.764 271.664 458.168 273.02 456.272 273.812C454.4 274.604 452.504 275 450.584 275H445.256C444.704 275 444.284 274.856 443.996 274.568C443.732 274.28 443.6 273.824 443.6 273.2V251.276ZM447.488 273.092H448.28V273.056H449.972C452.636 273.056 454.796 272.156 456.452 270.356C458.132 268.556 458.972 265.808 458.972 262.112C458.972 258.368 458.144 255.644 456.488 253.94C454.856 252.236 452.684 251.384 449.972 251.384H447.488V273.092Z" fill="#181818" fill-opacity="0.25"/>
<path d="M441.8 370C441.368 370 441.08 369.928 440.936 369.784C440.792 369.616 440.72 369.4 440.72 369.136C440.72 368.824 440.816 368.572 441.008 368.38C441.224 368.188 441.608 368.092 442.16 368.092H445.4V346.384H442.16C441.608 346.384 441.224 346.288 441.008 346.096C440.816 345.904 440.72 345.652 440.72 345.34C440.72 345.076 440.792 344.872 440.936 344.728C441.08 344.56 441.368 344.476 441.8 344.476H452.888C453.32 344.476 453.608 344.56 453.752 344.728C453.896 344.872 453.968 345.076 453.968 345.34C453.968 345.652 453.86 345.904 453.644 346.096C453.452 346.288 453.08 346.384 452.528 346.384H449.288V368.092H452.528C453.08 368.092 453.452 368.188 453.644 368.38C453.86 368.572 453.968 368.824 453.968 369.136C453.968 369.4 453.896 369.616 453.752 369.784C453.608 369.928 453.32 370 452.888 370H441.8Z" fill="#181818" fill-opacity="0.25"/>
<path d="M363.108 255.956C362.412 255.956 361.884 255.776 361.524 255.416C361.188 255.056 361.02 254.456 361.02 253.616V251.6C360.132 251.408 359.256 251.312 358.392 251.312C356.112 251.312 354.3 252.272 352.956 254.192C351.636 256.088 350.976 258.872 350.976 262.544C350.976 266.456 351.624 269.204 352.92 270.788C354.216 272.348 356.124 273.128 358.644 273.128C360.132 273.128 361.704 272.78 363.36 272.084L364.044 271.796C364.188 271.748 364.284 271.724 364.332 271.724C364.572 271.724 364.776 271.844 364.944 272.084C365.112 272.3 365.196 272.54 365.196 272.804C365.196 273.14 365.04 273.38 364.728 273.524L364.116 273.776C363.132 274.184 362.136 274.496 361.128 274.712C360.144 274.904 358.98 275 357.636 275C353.988 275 351.288 273.92 349.536 271.76C347.784 269.576 346.908 266.48 346.908 262.472C346.908 259.568 347.376 257.144 348.312 255.2C349.272 253.256 350.58 251.816 352.236 250.88C353.892 249.944 355.788 249.476 357.924 249.476C359.844 249.476 361.596 249.728 363.18 250.232C363.756 250.424 364.14 250.64 364.332 250.88C364.548 251.096 364.656 251.468 364.656 251.996V254.156C364.656 254.78 364.524 255.236 364.26 255.524C364.02 255.812 363.636 255.956 363.108 255.956Z" fill="#181818" fill-opacity="0.25"/>
<path d="M366.456 344.476C367.008 344.476 367.416 344.62 367.68 344.908C367.968 345.196 368.112 345.652 368.112 346.276V368.2C368.112 368.848 367.992 369.316 367.752 369.604C367.512 369.868 367.104 370 366.528 370C365.784 370 365.208 369.772 364.8 369.316C364.416 368.836 364.224 368.14 364.224 367.228V357.796H352.488V367.66C352.488 368.5 352.308 369.1 351.948 369.46C351.588 369.82 351.024 370 350.256 370C349.704 370 349.284 369.856 348.996 369.568C348.732 369.28 348.6 368.824 348.6 368.2V346.276C348.6 345.628 348.72 345.172 348.96 344.908C349.2 344.62 349.608 344.476 350.184 344.476C350.928 344.476 351.492 344.716 351.876 345.196C352.284 345.652 352.488 346.336 352.488 347.248V355.816H364.224V346.816C364.224 345.976 364.404 345.376 364.764 345.016C365.124 344.656 365.688 344.476 366.456 344.476Z" fill="#181818" fill-opacity="0.25"/>
<path d="M441.6 57.276C441.6 56.652 441.732 56.196 441.996 55.908C442.284 55.62 442.704 55.476 443.256 55.476H450.636C455.964 55.476 458.628 57.612 458.628 61.884C458.628 63.084 458.256 64.212 457.512 65.268C456.792 66.3 455.808 66.972 454.56 67.284V67.464C456.384 67.776 457.74 68.472 458.628 69.552C459.516 70.608 459.96 71.88 459.96 73.368C459.96 76.272 459.012 78.276 457.116 79.38C455.244 80.46 453.144 81 450.816 81H443.256C442.704 81 442.284 80.856 441.996 80.568C441.732 80.28 441.6 79.824 441.6 79.2V57.276ZM445.488 66.672H449.628C450.396 66.672 451.152 66.516 451.896 66.204C452.664 65.868 453.3 65.34 453.804 64.62C454.308 63.876 454.56 62.928 454.56 61.776C454.56 60.216 454.02 59.1 452.94 58.428C451.86 57.732 450.66 57.384 449.34 57.384H445.488V66.672ZM445.488 79.092H450.312C451.728 79.092 453.012 78.684 454.164 77.868C455.316 77.028 455.892 75.648 455.892 73.728C455.892 72.528 455.592 71.544 454.992 70.776C454.392 70.008 453.636 69.456 452.724 69.12C451.812 68.76 450.888 68.58 449.952 68.58H445.488V79.092Z" fill="#181818" fill-opacity="0.25"/>
<path d="M64.68 273.092C64.392 273.86 64.056 274.376 63.672 274.64C63.312 274.88 62.916 275 62.484 275C62.148 275 61.896 274.916 61.728 274.748C61.584 274.556 61.512 274.316 61.512 274.028C61.512 273.74 61.572 273.44 61.692 273.128L70.152 250.34C70.248 250.076 70.476 249.872 70.836 249.728C71.22 249.56 71.652 249.476 72.132 249.476C72.66 249.476 73.128 249.56 73.536 249.728C73.968 249.896 74.232 250.136 74.328 250.448L82.572 273.272C82.62 273.512 82.644 273.692 82.644 273.812C82.644 274.148 82.524 274.436 82.284 274.676C82.068 274.892 81.72 275 81.24 275C80.736 275 80.22 274.868 79.692 274.604C79.188 274.34 78.804 273.836 78.54 273.092L76.632 268.16H66.516L64.68 273.092ZM71.736 253.724H71.52L67.092 266.288H76.092L71.736 253.724Z" fill="#181818" fill-opacity="0.25"/>
<path d="M78.108 350.74C77.412 350.74 76.884 350.56 76.524 350.2C76.188 349.84 76.02 349.24 76.02 348.4V346.384H67.488V355.816H75.048C75.36 355.816 75.6 355.924 75.768 356.14C75.96 356.332 76.056 356.56 76.056 356.824C76.056 357.064 75.948 357.292 75.732 357.508C75.516 357.7 75.288 357.796 75.048 357.796H67.488V368.092H76.56V366.076C76.56 365.236 76.728 364.636 77.064 364.276C77.424 363.916 77.952 363.736 78.648 363.736C79.176 363.736 79.56 363.88 79.8 364.168C80.064 364.456 80.196 364.912 80.196 365.536V368.668C80.196 369.172 80.016 369.52 79.656 369.712C79.32 369.904 78.78 370 78.036 370H65.256C64.704 370 64.284 369.856 63.996 369.568C63.732 369.28 63.6 368.824 63.6 368.2V346.276C63.6 345.652 63.732 345.196 63.996 344.908C64.284 344.62 64.704 344.476 65.256 344.476H77.496C78.24 344.476 78.78 344.572 79.116 344.764C79.476 344.956 79.656 345.304 79.656 345.808V348.94C79.656 349.564 79.524 350.02 79.26 350.308C79.02 350.596 78.636 350.74 78.108 350.74Z" fill="#181818" fill-opacity="0.25"/>
<defs>
<filter id="filter0_d_121_159" x="0" y="0" width="528" height="432" filterUnits="userSpaceOnUse" color-interpolation-filters="sRGB">
<feFlood flood-opacity="0" result="BackgroundImageFix"/>
<feColorMatrix in="SourceAlpha" type="matrix" values="0 0 0 0 0 0 0 0 0 0 0 0 0 0 0 0 0 0 127 0" result="hardAlpha"/>
<feOffset dy="4"/>
<feGaussianBlur stdDeviation="4"/>
<feComposite in2="hardAlpha" operator="out"/>
<feColorMatrix type="matrix" values="0 0 0 0 0.129412 0 0 0 0 0.447059 0 0 0 0 1 0 0 0 0.25 0"/>
<feBlend mode="normal" in2="BackgroundImageFix" result="effect1_dropShadow_121_159"/>
<feBlend mode="normal" in="SourceGraphic" in2="effect1_dropShadow_121_159" result="shape"/>
</filter>
<filter id="filter1_d_121_159" x="16" y="16" width="112" height="304" filterUnits="userSpaceOnUse" color-interpolation-filters="sRGB">
<feFlood flood-opacity="0" result="BackgroundImageFix"/>
<feColorMatrix in="SourceAlpha" type="matrix" values="0 0 0 0 0 0 0 0 0 0 0 0 0 0 0 0 0 0 127 0" result="hardAlpha"/>
<feOffset dy="4"/>
<feGaussianBlur stdDeviation="4"/>
<feComposite in2="hardAlpha" operator="out"/>
<feColorMatrix type="matrix" values="0 0 0 0 1 0 0 0 0 1 0 0 0 0 1 0 0 0 0.25 0"/>
<feBlend mode="normal" in2="BackgroundImageFix" result="effect1_dropShadow_121_159"/>
<feBlend mode="normal" in="SourceGraphic" in2="effect1_dropShadow_121_159" result="shape"/>
</filter>
<filter id="filter2_d_121_159" x="112" y="112" width="304" height="208" filterUnits="userSpaceOnUse" color-interpolation-filters="sRGB">
<feFlood flood-opacity="0" result="BackgroundImageFix"/>
<feColorMatrix in="SourceAlpha" type="matrix" values="0 0 0 0 0 0 0 0 0 0 0 0 0 0 0 0 0 0 127 0" result="hardAlpha"/>
<feOffset dy="4"/>
<feGaussianBlur stdDeviation="4"/>
<feComposite in2="hardAlpha" operator="out"/>
<feColorMatrix type="matrix" values="0 0 0 0 1 0 0 0 0 1 0 0 0 0 1 0 0 0 0.25 0"/>
<feBlend mode="normal" in2="BackgroundImageFix" result="effect1_dropShadow_121_159"/>
<feBlend mode="normal" in="SourceGraphic" in2="effect1_dropShadow_121_159" result="shape"/>
</filter>
<filter id="filter3_d_121_159" x="112" y="304" width="112" height="112" filterUnits="userSpaceOnUse" color-interpolation-filters="sRGB">
<feFlood flood-opacity="0" result="BackgroundImageFix"/>
<feColorMatrix in="SourceAlpha" type="matrix" values="0 0 0 0 0 0 0 0 0 0 0 0 0 0 0 0 0 0 127 0" result="hardAlpha"/>
<feOffset dy="4"/>
<feGaussianBlur stdDeviation="4"/>
<feComposite in2="hardAlpha" operator="out"/>
<feColorMatrix type="matrix" values="0 0 0 0 1 0 0 0 0 1 0 0 0 0 1 0 0 0 0.25 0"/>
<feBlend mode="normal" in2="BackgroundImageFix" result="effect1_dropShadow_121_159"/>
<feBlend mode="normal" in="SourceGraphic" in2="effect1_dropShadow_121_159" result="shape"/>
</filter>
<filter id="filter4_d_121_159" x="112" y="16" width="400" height="112" filterUnits="userSpaceOnUse" color-interpolation-filters="sRGB">
<feFlood flood-opacity="0" result="BackgroundImageFix"/>
<feColorMatrix in="SourceAlpha" type="matrix" values="0 0 0 0 0 0 0 0 0 0 0 0 0 0 0 0 0 0 127 0" result="hardAlpha"/>
<feOffset dy="4"/>
<feGaussianBlur stdDeviation="4"/>
<feComposite in2="hardAlpha" operator="out"/>
<feColorMatrix type="matrix" values="0 0 0 0 1 0 0 0 0 1 0 0 0 0 1 0 0 0 0.25 0"/>
<feBlend mode="normal" in2="BackgroundImageFix" result="effect1_dropShadow_121_159"/>
<feBlend mode="normal" in="SourceGraphic" in2="effect1_dropShadow_121_159" result="shape"/>
</filter>
<filter id="filter5_d_121_159" x="208" y="304" width="112" height="112" filterUnits="userSpaceOnUse" color-interpolation-filters="sRGB">
<feFlood flood-opacity="0" result="BackgroundImageFix"/>
<feColorMatrix in="SourceAlpha" type="matrix" values="0 0 0 0 0 0 0 0 0 0 0 0 0 0 0 0 0 0 127 0" result="hardAlpha"/>
<feOffset dy="4"/>
<feGaussianBlur stdDeviation="4"/>
<feComposite in2="hardAlpha" operator="out"/>
<feColorMatrix type="matrix" values="0 0 0 0 1 0 0 0 0 1 0 0 0 0 1 0 0 0 0.25 0"/>
<feBlend mode="normal" in2="BackgroundImageFix" result="effect1_dropShadow_121_159"/>
<feBlend mode="normal" in="SourceGraphic" in2="effect1_dropShadow_121_159" result="shape"/>
</filter>
<filter id="filter6_d_121_159" x="16" y="304" width="112" height="112" filterUnits="userSpaceOnUse" color-interpolation-filters="sRGB">
<feFlood flood-opacity="0" result="BackgroundImageFix"/>
<feColorMatrix in="SourceAlpha" type="matrix" values="0 0 0 0 0 0 0 0 0 0 0 0 0 0 0 0 0 0 127 0" result="hardAlpha"/>
<feOffset dy="4"/>
<feGaussianBlur stdDeviation="4"/>
<feComposite in2="hardAlpha" operator="out"/>
<feColorMatrix type="matrix" values="0 0 0 0 1 0 0 0 0 1 0 0 0 0 1 0 0 0 0.25 0"/>
<feBlend mode="normal" in2="BackgroundImageFix" result="effect1_dropShadow_121_159"/>
<feBlend mode="normal" in="SourceGraphic" in2="effect1_dropShadow_121_159" result="shape"/>
</filter>
<filter id="filter7_d_121_159" x="304" y="304" width="112" height="112" filterUnits="userSpaceOnUse" color-interpolation-filters="sRGB">
<feFlood flood-opacity="0" result="BackgroundImageFix"/>
<feColorMatrix in="SourceAlpha" type="matrix" values="0 0 0 0 0 0 0 0 0 0 0 0 0 0 0 0 0 0 127 0" result="hardAlpha"/>
<feOffset dy="4"/>
<feGaussianBlur stdDeviation="4"/>
<feComposite in2="hardAlpha" operator="out"/>
<feColorMatrix type="matrix" values="0 0 0 0 1 0 0 0 0 1 0 0 0 0 1 0 0 0 0.25 0"/>
<feBlend mode="normal" in2="BackgroundImageFix" result="effect1_dropShadow_121_159"/>
<feBlend mode="normal" in="SourceGraphic" in2="effect1_dropShadow_121_159" result="shape"/>
</filter>
<filter id="filter8_d_121_159" x="400" y="112" width="112" height="208" filterUnits="userSpaceOnUse" color-interpolation-filters="sRGB">
<feFlood flood-opacity="0" result="BackgroundImageFix"/>
<feColorMatrix in="SourceAlpha" type="matrix" values="0 0 0 0 0 0 0 0 0 0 0 0 0 0 0 0 0 0 127 0" result="hardAlpha"/>
<feOffset dy="4"/>
<feGaussianBlur stdDeviation="4"/>
<feComposite in2="hardAlpha" operator="out"/>
<feColorMatrix type="matrix" values="0 0 0 0 1 0 0 0 0 1 0 0 0 0 1 0 0 0 0.25 0"/>
<feBlend mode="normal" in2="BackgroundImageFix" result="effect1_dropShadow_121_159"/>
<feBlend mode="normal" in="SourceGraphic" in2="effect1_dropShadow_121_159" result="shape"/>
</filter>
<filter id="filter9_d_121_159" x="400" y="304" width="112" height="112" filterUnits="userSpaceOnUse" color-interpolation-filters="sRGB">
<feFlood flood-opacity="0" result="BackgroundImageFix"/>
<feColorMatrix in="SourceAlpha" type="matrix" values="0 0 0 0 0 0 0 0 0 0 0 0 0 0 0 0 0 0 127 0" result="hardAlpha"/>
<feOffset dy="4"/>
<feGaussianBlur stdDeviation="4"/>
<feComposite in2="hardAlpha" operator="out"/>
<feColorMatrix type="matrix" values="0 0 0 0 1 0 0 0 0 1 0 0 0 0 1 0 0 0 0.25 0"/>
<feBlend mode="normal" in2="BackgroundImageFix" result="effect1_dropShadow_121_159"/>
<feBlend mode="normal" in="SourceGraphic" in2="effect1_dropShadow_121_159" result="shape"/>
</filter>
</defs>
</svg>
