<svg width="528" height="528" viewBox="0 0 528 528" fill="none" xmlns="http://www.w3.org/2000/svg">
<g filter="url(#filter0_d_121_159)">
<rect x="8" y="4" width="512" height="512" rx="8" fill="#2172FF" fill-opacity="0.8" shape-rendering="crispEdges"/>
</g>
<g filter="url(#filter1_d_121_159)">
<rect x="24" y="20" width="160" height="160" rx="8" fill="white" fill-opacity="0.75" shape-rendering="crispEdges"/>
</g>
<path d="M82.7955 106V97.2727H85.9318V106H82.7955ZM84.3636 96.3636C83.9394 96.3636 83.5758 96.2235 83.2727 95.9432C82.9697 95.6629 82.8182 95.3258 82.8182 94.9318C82.8182 94.5379 82.9697 94.2008 83.2727 93.9205C83.5758 93.6402 83.9394 93.5 84.3636 93.5C84.7917 93.5 85.1553 93.6402 85.4545 93.9205C85.7576 94.2008 85.9091 94.5379 85.9091 94.9318C85.9091 95.3258 85.7576 95.6629 85.4545 95.9432C85.1553 96.2235 84.7917 96.3636 84.3636 96.3636ZM92.7344 97.2727V99.5455H86.9844V97.2727H92.7344ZM88.098 95.1818H91.2344V103.193C91.2344 103.314 91.2552 103.417 91.2969 103.5C91.3385 103.58 91.4029 103.64 91.4901 103.682C91.5772 103.72 91.6889 103.739 91.8253 103.739C91.92 103.739 92.0298 103.727 92.1548 103.705C92.2836 103.682 92.3783 103.663 92.4389 103.648L92.8935 105.852C92.7533 105.894 92.5526 105.945 92.2912 106.006C92.0336 106.066 91.7268 106.106 91.3707 106.125C90.651 106.163 90.0469 106.089 89.5582 105.903C89.0696 105.714 88.7022 105.417 88.456 105.011C88.2098 104.606 88.0904 104.098 88.098 103.489V95.1818ZM98.1023 106.159C97.1705 106.159 96.3674 105.981 95.6932 105.625C95.0227 105.265 94.5057 104.75 94.142 104.08C93.7822 103.405 93.6023 102.598 93.6023 101.659C93.6023 100.758 93.7841 99.9697 94.1477 99.2955C94.5114 98.6212 95.0246 98.0966 95.6875 97.7216C96.3504 97.3466 97.1326 97.1591 98.0341 97.1591C98.6932 97.1591 99.2898 97.2614 99.8239 97.4659C100.358 97.6705 100.814 97.9678 101.193 98.358C101.572 98.7443 101.864 99.214 102.068 99.767C102.273 100.32 102.375 100.943 102.375 101.636V102.364H94.5795V100.636H99.4886C99.4848 100.386 99.4205 100.167 99.2955 99.9773C99.1742 99.7841 99.0095 99.6345 98.8011 99.5284C98.5966 99.4186 98.3636 99.3636 98.1023 99.3636C97.8485 99.3636 97.6155 99.4186 97.4034 99.5284C97.1913 99.6345 97.0208 99.7822 96.892 99.9716C96.767 100.161 96.7008 100.383 96.6932 100.636V102.5C96.6932 102.78 96.7519 103.03 96.8693 103.25C96.9867 103.47 97.1553 103.642 97.375 103.767C97.5947 103.892 97.8598 103.955 98.1705 103.955C98.3864 103.955 98.5833 103.924 98.7614 103.864C98.9432 103.803 99.0985 103.716 99.2273 103.602C99.3561 103.485 99.4508 103.345 99.5114 103.182H102.375C102.277 103.788 102.044 104.314 101.676 104.761C101.309 105.205 100.822 105.549 100.216 105.795C99.6136 106.038 98.9091 106.159 98.1023 106.159ZM103.655 106V97.2727H106.632V98.9318H106.723C106.905 98.3864 107.215 97.9545 107.655 97.6364C108.094 97.3182 108.617 97.1591 109.223 97.1591C109.837 97.1591 110.365 97.322 110.808 97.6477C111.251 97.9697 111.518 98.3977 111.609 98.9318H111.7C111.848 98.3977 112.162 97.9697 112.643 97.6477C113.125 97.322 113.689 97.1591 114.337 97.1591C115.174 97.1591 115.852 97.428 116.371 97.9659C116.893 98.5038 117.155 99.2197 117.155 100.114V106H114.018V100.909C114.018 100.527 113.922 100.227 113.729 100.011C113.536 99.7917 113.276 99.6818 112.95 99.6818C112.628 99.6818 112.373 99.7917 112.183 100.011C111.998 100.227 111.905 100.527 111.905 100.909V106H108.905V100.909C108.905 100.527 108.808 100.227 108.615 100.011C108.422 99.7917 108.162 99.6818 107.837 99.6818C107.621 99.6818 107.435 99.7311 107.28 99.8295C107.125 99.928 107.003 100.07 106.916 100.256C106.833 100.437 106.791 100.655 106.791 100.909V106H103.655ZM123.743 94.3636V106H120.584V97.2727H120.516L117.97 98.7955V96.1136L120.834 94.3636H123.743Z" fill="#181818" fill-opacity="0.75"/>
<g filter="url(#filter2_d_121_159)">
<rect x="24" y="180" width="160" height="160" rx="8" fill="white" fill-opacity="0.75" shape-rendering="crispEdges"/>
</g>
<path d="M80.7955 266V257.273H83.9318V266H80.7955ZM82.3636 256.364C81.9394 256.364 81.5758 256.223 81.2727 255.943C80.9697 255.663 80.8182 255.326 80.8182 254.932C80.8182 254.538 80.9697 254.201 81.2727 253.92C81.5758 253.64 81.9394 253.5 82.3636 253.5C82.7917 253.5 83.1553 253.64 83.4545 253.92C83.7576 254.201 83.9091 254.538 83.9091 254.932C83.9091 255.326 83.7576 255.663 83.4545 255.943C83.1553 256.223 82.7917 256.364 82.3636 256.364ZM90.7344 257.273V259.545H84.9844V257.273H90.7344ZM86.098 255.182H89.2344V263.193C89.2344 263.314 89.2552 263.417 89.2969 263.5C89.3385 263.58 89.4029 263.64 89.4901 263.682C89.5772 263.72 89.6889 263.739 89.8253 263.739C89.92 263.739 90.0298 263.727 90.1548 263.705C90.2836 263.682 90.3783 263.663 90.4389 263.648L90.8935 265.852C90.7533 265.894 90.5526 265.945 90.2912 266.006C90.0336 266.066 89.7268 266.106 89.3707 266.125C88.651 266.163 88.0469 266.089 87.5582 265.903C87.0696 265.714 86.7022 265.417 86.456 265.011C86.2098 264.606 86.0904 264.098 86.098 263.489V255.182ZM96.1023 266.159C95.1705 266.159 94.3674 265.981 93.6932 265.625C93.0227 265.265 92.5057 264.75 92.142 264.08C91.7822 263.405 91.6023 262.598 91.6023 261.659C91.6023 260.758 91.7841 259.97 92.1477 259.295C92.5114 258.621 93.0246 258.097 93.6875 257.722C94.3504 257.347 95.1326 257.159 96.0341 257.159C96.6932 257.159 97.2898 257.261 97.8239 257.466C98.358 257.67 98.8144 257.968 99.1932 258.358C99.572 258.744 99.8636 259.214 100.068 259.767C100.273 260.32 100.375 260.943 100.375 261.636V262.364H92.5795V260.636H97.4886C97.4848 260.386 97.4205 260.167 97.2955 259.977C97.1742 259.784 97.0095 259.634 96.8011 259.528C96.5966 259.419 96.3636 259.364 96.1023 259.364C95.8485 259.364 95.6155 259.419 95.4034 259.528C95.1913 259.634 95.0208 259.782 94.892 259.972C94.767 260.161 94.7008 260.383 94.6932 260.636V262.5C94.6932 262.78 94.7519 263.03 94.8693 263.25C94.9867 263.47 95.1553 263.642 95.375 263.767C95.5947 263.892 95.8598 263.955 96.1705 263.955C96.3864 263.955 96.5833 263.924 96.7614 263.864C96.9432 263.803 97.0985 263.716 97.2273 263.602C97.3561 263.485 97.4508 263.345 97.5114 263.182H100.375C100.277 263.788 100.044 264.314 99.6761 264.761C99.3087 265.205 98.822 265.549 98.2159 265.795C97.6136 266.038 96.9091 266.159 96.1023 266.159ZM101.655 266V257.273H104.632V258.932H104.723C104.905 258.386 105.215 257.955 105.655 257.636C106.094 257.318 106.617 257.159 107.223 257.159C107.837 257.159 108.365 257.322 108.808 257.648C109.251 257.97 109.518 258.398 109.609 258.932H109.7C109.848 258.398 110.162 257.97 110.643 257.648C111.125 257.322 111.689 257.159 112.337 257.159C113.174 257.159 113.852 257.428 114.371 257.966C114.893 258.504 115.155 259.22 115.155 260.114V266H112.018V260.909C112.018 260.527 111.922 260.227 111.729 260.011C111.536 259.792 111.276 259.682 110.95 259.682C110.628 259.682 110.373 259.792 110.183 260.011C109.998 260.227 109.905 260.527 109.905 260.909V266H106.905V260.909C106.905 260.527 106.808 260.227 106.615 260.011C106.422 259.792 106.162 259.682 105.837 259.682C105.621 259.682 105.435 259.731 105.28 259.83C105.125 259.928 105.003 260.07 104.916 260.256C104.833 260.437 104.791 260.655 104.791 260.909V266H101.655ZM116.565 264.182V261.727L121.247 254.364H123.474V257.636H122.202L119.679 261.636V261.727H126.588V264.182H116.565ZM122.224 266V263.432L122.293 262.364V254.364H125.247V266H122.224Z" fill="#181818" fill-opacity="0.75"/>
<g filter="url(#filter3_d_121_159)">
<rect x="24" y="340" width="160" height="160" rx="8" fill="white" fill-opacity="0.75" shape-rendering="crispEdges"/>
</g>
<path d="M81.7955 426V417.273H84.9318V426H81.7955ZM83.3636 416.364C82.9394 416.364 82.5758 416.223 82.2727 415.943C81.9697 415.663 81.8182 415.326 81.8182 414.932C81.8182 414.538 81.9697 414.201 82.2727 413.92C82.5758 413.64 82.9394 413.5 83.3636 413.5C83.7917 413.5 84.1553 413.64 84.4545 413.92C84.7576 414.201 84.9091 414.538 84.9091 414.932C84.9091 415.326 84.7576 415.663 84.4545 415.943C84.1553 416.223 83.7917 416.364 83.3636 416.364ZM91.7344 417.273V419.545H85.9844V417.273H91.7344ZM87.098 415.182H90.2344V423.193C90.2344 423.314 90.2552 423.417 90.2969 423.5C90.3385 423.58 90.4029 423.64 90.4901 423.682C90.5772 423.72 90.6889 423.739 90.8253 423.739C90.92 423.739 91.0298 423.727 91.1548 423.705C91.2836 423.682 91.3783 423.663 91.4389 423.648L91.8935 425.852C91.7533 425.894 91.5526 425.945 91.2912 426.006C91.0336 426.066 90.7268 426.106 90.3707 426.125C89.651 426.163 89.0469 426.089 88.5582 425.903C88.0696 425.714 87.7022 425.417 87.456 425.011C87.2098 424.606 87.0904 424.098 87.098 423.489V415.182ZM97.1023 426.159C96.1705 426.159 95.3674 425.981 94.6932 425.625C94.0227 425.265 93.5057 424.75 93.142 424.08C92.7822 423.405 92.6023 422.598 92.6023 421.659C92.6023 420.758 92.7841 419.97 93.1477 419.295C93.5114 418.621 94.0246 418.097 94.6875 417.722C95.3504 417.347 96.1326 417.159 97.0341 417.159C97.6932 417.159 98.2898 417.261 98.8239 417.466C99.358 417.67 99.8144 417.968 100.193 418.358C100.572 418.744 100.864 419.214 101.068 419.767C101.273 420.32 101.375 420.943 101.375 421.636V422.364H93.5795V420.636H98.4886C98.4848 420.386 98.4205 420.167 98.2955 419.977C98.1742 419.784 98.0095 419.634 97.8011 419.528C97.5966 419.419 97.3636 419.364 97.1023 419.364C96.8485 419.364 96.6155 419.419 96.4034 419.528C96.1913 419.634 96.0208 419.782 95.892 419.972C95.767 420.161 95.7008 420.383 95.6932 420.636V422.5C95.6932 422.78 95.7519 423.03 95.8693 423.25C95.9867 423.47 96.1553 423.642 96.375 423.767C96.5947 423.892 96.8598 423.955 97.1705 423.955C97.3864 423.955 97.5833 423.924 97.7614 423.864C97.9432 423.803 98.0985 423.716 98.2273 423.602C98.3561 423.485 98.4508 423.345 98.5114 423.182H101.375C101.277 423.788 101.044 424.314 100.676 424.761C100.309 425.205 99.822 425.549 99.2159 425.795C98.6136 426.038 97.9091 426.159 97.1023 426.159ZM102.655 426V417.273H105.632V418.932H105.723C105.905 418.386 106.215 417.955 106.655 417.636C107.094 417.318 107.617 417.159 108.223 417.159C108.837 417.159 109.365 417.322 109.808 417.648C110.251 417.97 110.518 418.398 110.609 418.932H110.7C110.848 418.398 111.162 417.97 111.643 417.648C112.125 417.322 112.689 417.159 113.337 417.159C114.174 417.159 114.852 417.428 115.371 417.966C115.893 418.504 116.155 419.22 116.155 420.114V426H113.018V420.909C113.018 420.527 112.922 420.227 112.729 420.011C112.536 419.792 112.276 419.682 111.95 419.682C111.628 419.682 111.373 419.792 111.183 420.011C110.998 420.227 110.905 420.527 110.905 420.909V426H107.905V420.909C107.905 420.527 107.808 420.227 107.615 420.011C107.422 419.792 107.162 419.682 106.837 419.682C106.621 419.682 106.435 419.731 106.28 419.83C106.125 419.928 106.003 420.07 105.916 420.256C105.833 420.437 105.791 420.655 105.791 420.909V426H102.655ZM118.202 426L122.77 416.955V416.886H117.406V414.364H126.043V416.886L121.452 426H118.202Z" fill="#181818" fill-opacity="0.75"/>
<g filter="url(#filter4_d_121_159)">
<rect x="184" y="20" width="160" height="160" rx="8" fill="white" fill-opacity="0.75" shape-rendering="crispEdges"/>
</g>
<path d="M240.795 106V97.2727H243.932V106H240.795ZM242.364 96.3636C241.939 96.3636 241.576 96.2235 241.273 95.9432C240.97 95.6629 240.818 95.3258 240.818 94.9318C240.818 94.5379 240.97 94.2008 241.273 93.9205C241.576 93.6402 241.939 93.5 242.364 93.5C242.792 93.5 243.155 93.6402 243.455 93.9205C243.758 94.2008 243.909 94.5379 243.909 94.9318C243.909 95.3258 243.758 95.6629 243.455 95.9432C243.155 96.2235 242.792 96.3636 242.364 96.3636ZM250.734 97.2727V99.5455H244.984V97.2727H250.734ZM246.098 95.1818H249.234V103.193C249.234 103.314 249.255 103.417 249.297 103.5C249.339 103.58 249.403 103.64 249.49 103.682C249.577 103.72 249.689 103.739 249.825 103.739C249.92 103.739 250.03 103.727 250.155 103.705C250.284 103.682 250.378 103.663 250.439 103.648L250.893 105.852C250.753 105.894 250.553 105.945 250.291 106.006C250.034 106.066 249.727 106.106 249.371 106.125C248.651 106.163 248.047 106.089 247.558 105.903C247.07 105.714 246.702 105.417 246.456 105.011C246.21 104.606 246.09 104.098 246.098 103.489V95.1818ZM256.102 106.159C255.17 106.159 254.367 105.981 253.693 105.625C253.023 105.265 252.506 104.75 252.142 104.08C251.782 103.405 251.602 102.598 251.602 101.659C251.602 100.758 251.784 99.9697 252.148 99.2955C252.511 98.6212 253.025 98.0966 253.688 97.7216C254.35 97.3466 255.133 97.1591 256.034 97.1591C256.693 97.1591 257.29 97.2614 257.824 97.4659C258.358 97.6705 258.814 97.9678 259.193 98.358C259.572 98.7443 259.864 99.214 260.068 99.767C260.273 100.32 260.375 100.943 260.375 101.636V102.364H252.58V100.636H257.489C257.485 100.386 257.42 100.167 257.295 99.9773C257.174 99.7841 257.009 99.6345 256.801 99.5284C256.597 99.4186 256.364 99.3636 256.102 99.3636C255.848 99.3636 255.616 99.4186 255.403 99.5284C255.191 99.6345 255.021 99.7822 254.892 99.9716C254.767 100.161 254.701 100.383 254.693 100.636V102.5C254.693 102.78 254.752 103.03 254.869 103.25C254.987 103.47 255.155 103.642 255.375 103.767C255.595 103.892 255.86 103.955 256.17 103.955C256.386 103.955 256.583 103.924 256.761 103.864C256.943 103.803 257.098 103.716 257.227 103.602C257.356 103.485 257.451 103.345 257.511 103.182H260.375C260.277 103.788 260.044 104.314 259.676 104.761C259.309 105.205 258.822 105.549 258.216 105.795C257.614 106.038 256.909 106.159 256.102 106.159ZM261.655 106V97.2727H264.632V98.9318H264.723C264.905 98.3864 265.215 97.9545 265.655 97.6364C266.094 97.3182 266.617 97.1591 267.223 97.1591C267.837 97.1591 268.365 97.322 268.808 97.6477C269.251 97.9697 269.518 98.3977 269.609 98.9318H269.7C269.848 98.3977 270.162 97.9697 270.643 97.6477C271.125 97.322 271.689 97.1591 272.337 97.1591C273.174 97.1591 273.852 97.428 274.371 97.9659C274.893 98.5038 275.155 99.2197 275.155 100.114V106H272.018V100.909C272.018 100.527 271.922 100.227 271.729 100.011C271.536 99.7917 271.276 99.6818 270.95 99.6818C270.628 99.6818 270.373 99.7917 270.183 100.011C269.998 100.227 269.905 100.527 269.905 100.909V106H266.905V100.909C266.905 100.527 266.808 100.227 266.615 100.011C266.422 99.7917 266.162 99.6818 265.837 99.6818C265.621 99.6818 265.435 99.7311 265.28 99.8295C265.125 99.928 265.003 100.07 264.916 100.256C264.833 100.437 264.791 100.655 264.791 100.909V106H261.655ZM276.679 106V103.727L281.02 100.136C281.308 99.8977 281.554 99.6742 281.759 99.4659C281.967 99.2538 282.126 99.036 282.236 98.8125C282.349 98.589 282.406 98.3409 282.406 98.0682C282.406 97.7689 282.342 97.5133 282.213 97.3011C282.088 97.089 281.914 96.9261 281.69 96.8125C281.467 96.6951 281.209 96.6364 280.918 96.6364C280.626 96.6364 280.368 96.6951 280.145 96.8125C279.925 96.9299 279.755 97.1023 279.634 97.3295C279.512 97.5568 279.452 97.8333 279.452 98.1591H276.452C276.452 97.3409 276.635 96.6364 277.003 96.0455C277.37 95.4545 277.889 95 278.56 94.6818C279.23 94.3636 280.016 94.2045 280.918 94.2045C281.849 94.2045 282.656 94.3542 283.338 94.6534C284.024 94.9489 284.552 95.3655 284.923 95.9034C285.298 96.4413 285.486 97.072 285.486 97.7955C285.486 98.2424 285.393 98.6875 285.207 99.1307C285.022 99.5701 284.688 100.057 284.207 100.591C283.726 101.125 283.043 101.761 282.156 102.5L281.065 103.409V103.477H285.611V106H276.679Z" fill="#181818" fill-opacity="0.75"/>
<g filter="url(#filter5_d_121_159)">
<rect x="184" y="180" width="160" height="160" rx="8" fill="white" fill-opacity="0.75" shape-rendering="crispEdges"/>
</g>
<path d="M240.795 266V257.273H243.932V266H240.795ZM242.364 256.364C241.939 256.364 241.576 256.223 241.273 255.943C240.97 255.663 240.818 255.326 240.818 254.932C240.818 254.538 240.97 254.201 241.273 253.92C241.576 253.64 241.939 253.5 242.364 253.5C242.792 253.5 243.155 253.64 243.455 253.92C243.758 254.201 243.909 254.538 243.909 254.932C243.909 255.326 243.758 255.663 243.455 255.943C243.155 256.223 242.792 256.364 242.364 256.364ZM250.734 257.273V259.545H244.984V257.273H250.734ZM246.098 255.182H249.234V263.193C249.234 263.314 249.255 263.417 249.297 263.5C249.339 263.58 249.403 263.64 249.49 263.682C249.577 263.72 249.689 263.739 249.825 263.739C249.92 263.739 250.03 263.727 250.155 263.705C250.284 263.682 250.378 263.663 250.439 263.648L250.893 265.852C250.753 265.894 250.553 265.945 250.291 266.006C250.034 266.066 249.727 266.106 249.371 266.125C248.651 266.163 248.047 266.089 247.558 265.903C247.07 265.714 246.702 265.417 246.456 265.011C246.21 264.606 246.09 264.098 246.098 263.489V255.182ZM256.102 266.159C255.17 266.159 254.367 265.981 253.693 265.625C253.023 265.265 252.506 264.75 252.142 264.08C251.782 263.405 251.602 262.598 251.602 261.659C251.602 260.758 251.784 259.97 252.148 259.295C252.511 258.621 253.025 258.097 253.688 257.722C254.35 257.347 255.133 257.159 256.034 257.159C256.693 257.159 257.29 257.261 257.824 257.466C258.358 257.67 258.814 257.968 259.193 258.358C259.572 258.744 259.864 259.214 260.068 259.767C260.273 260.32 260.375 260.943 260.375 261.636V262.364H252.58V260.636H257.489C257.485 260.386 257.42 260.167 257.295 259.977C257.174 259.784 257.009 259.634 256.801 259.528C256.597 259.419 256.364 259.364 256.102 259.364C255.848 259.364 255.616 259.419 255.403 259.528C255.191 259.634 255.021 259.782 254.892 259.972C254.767 260.161 254.701 260.383 254.693 260.636V262.5C254.693 262.78 254.752 263.03 254.869 263.25C254.987 263.47 255.155 263.642 255.375 263.767C255.595 263.892 255.86 263.955 256.17 263.955C256.386 263.955 256.583 263.924 256.761 263.864C256.943 263.803 257.098 263.716 257.227 263.602C257.356 263.485 257.451 263.345 257.511 263.182H260.375C260.277 263.788 260.044 264.314 259.676 264.761C259.309 265.205 258.822 265.549 258.216 265.795C257.614 266.038 256.909 266.159 256.102 266.159ZM261.655 266V257.273H264.632V258.932H264.723C264.905 258.386 265.215 257.955 265.655 257.636C266.094 257.318 266.617 257.159 267.223 257.159C267.837 257.159 268.365 257.322 268.808 257.648C269.251 257.97 269.518 258.398 269.609 258.932H269.7C269.848 258.398 270.162 257.97 270.643 257.648C271.125 257.322 271.689 257.159 272.337 257.159C273.174 257.159 273.852 257.428 274.371 257.966C274.893 258.504 275.155 259.22 275.155 260.114V266H272.018V260.909C272.018 260.527 271.922 260.227 271.729 260.011C271.536 259.792 271.276 259.682 270.95 259.682C270.628 259.682 270.373 259.792 270.183 260.011C269.998 260.227 269.905 260.527 269.905 260.909V266H266.905V260.909C266.905 260.527 266.808 260.227 266.615 260.011C266.422 259.792 266.162 259.682 265.837 259.682C265.621 259.682 265.435 259.731 265.28 259.83C265.125 259.928 265.003 260.07 264.916 260.256C264.833 260.437 264.791 260.655 264.791 260.909V266H261.655ZM281.338 266.159C280.444 266.159 279.651 266.002 278.957 265.688C278.268 265.369 277.724 264.932 277.327 264.375C276.933 263.818 276.732 263.178 276.724 262.455H279.793C279.804 262.856 279.959 263.176 280.259 263.415C280.562 263.653 280.921 263.773 281.338 263.773C281.66 263.773 281.944 263.705 282.19 263.568C282.437 263.428 282.63 263.231 282.77 262.977C282.91 262.723 282.978 262.428 282.974 262.091C282.978 261.75 282.91 261.455 282.77 261.205C282.63 260.951 282.437 260.756 282.19 260.619C281.944 260.479 281.66 260.409 281.338 260.409C281.005 260.409 280.696 260.491 280.412 260.653C280.132 260.812 279.925 261.034 279.793 261.318L277.02 260.773L277.474 254.364H285.293V256.886H280.065L279.838 259.455H279.906C280.088 259.102 280.402 258.811 280.849 258.58C281.296 258.345 281.815 258.227 282.406 258.227C283.099 258.227 283.717 258.388 284.259 258.71C284.804 259.032 285.234 259.477 285.548 260.045C285.866 260.61 286.024 261.261 286.02 262C286.024 262.811 285.83 263.53 285.44 264.159C285.054 264.784 284.51 265.275 283.81 265.631C283.109 265.983 282.285 266.159 281.338 266.159Z" fill="#181818" fill-opacity="0.75"/>
<g filter="url(#filter6_d_121_159)">
<rect x="184" y="340" width="160" height="160" rx="8" fill="white" fill-opacity="0.75" shape-rendering="crispEdges"/>
</g>
<path d="M240.795 426V417.273H243.932V426H240.795ZM242.364 416.364C241.939 416.364 241.576 416.223 241.273 415.943C240.97 415.663 240.818 415.326 240.818 414.932C240.818 414.538 240.97 414.201 241.273 413.92C241.576 413.64 241.939 413.5 242.364 413.5C242.792 413.5 243.155 413.64 243.455 413.92C243.758 414.201 243.909 414.538 243.909 414.932C243.909 415.326 243.758 415.663 243.455 415.943C243.155 416.223 242.792 416.364 242.364 416.364ZM250.734 417.273V419.545H244.984V417.273H250.734ZM246.098 415.182H249.234V423.193C249.234 423.314 249.255 423.417 249.297 423.5C249.339 423.58 249.403 423.64 249.49 423.682C249.577 423.72 249.689 423.739 249.825 423.739C249.92 423.739 250.03 423.727 250.155 423.705C250.284 423.682 250.378 423.663 250.439 423.648L250.893 425.852C250.753 425.894 250.553 425.945 250.291 426.006C250.034 426.066 249.727 426.106 249.371 426.125C248.651 426.163 248.047 426.089 247.558 425.903C247.07 425.714 246.702 425.417 246.456 425.011C246.21 424.606 246.09 424.098 246.098 423.489V415.182ZM256.102 426.159C255.17 426.159 254.367 425.981 253.693 425.625C253.023 425.265 252.506 424.75 252.142 424.08C251.782 423.405 251.602 422.598 251.602 421.659C251.602 420.758 251.784 419.97 252.148 419.295C252.511 418.621 253.025 418.097 253.688 417.722C254.35 417.347 255.133 417.159 256.034 417.159C256.693 417.159 257.29 417.261 257.824 417.466C258.358 417.67 258.814 417.968 259.193 418.358C259.572 418.744 259.864 419.214 260.068 419.767C260.273 420.32 260.375 420.943 260.375 421.636V422.364H252.58V420.636H257.489C257.485 420.386 257.42 420.167 257.295 419.977C257.174 419.784 257.009 419.634 256.801 419.528C256.597 419.419 256.364 419.364 256.102 419.364C255.848 419.364 255.616 419.419 255.403 419.528C255.191 419.634 255.021 419.782 254.892 419.972C254.767 420.161 254.701 420.383 254.693 420.636V422.5C254.693 422.78 254.752 423.03 254.869 423.25C254.987 423.47 255.155 423.642 255.375 423.767C255.595 423.892 255.86 423.955 256.17 423.955C256.386 423.955 256.583 423.924 256.761 423.864C256.943 423.803 257.098 423.716 257.227 423.602C257.356 423.485 257.451 423.345 257.511 423.182H260.375C260.277 423.788 260.044 424.314 259.676 424.761C259.309 425.205 258.822 425.549 258.216 425.795C257.614 426.038 256.909 426.159 256.102 426.159ZM261.655 426V417.273H264.632V418.932H264.723C264.905 418.386 265.215 417.955 265.655 417.636C266.094 417.318 266.617 417.159 267.223 417.159C267.837 417.159 268.365 417.322 268.808 417.648C269.251 417.97 269.518 418.398 269.609 418.932H269.7C269.848 418.398 270.162 417.97 270.643 417.648C271.125 417.322 271.689 417.159 272.337 417.159C273.174 417.159 273.852 417.428 274.371 417.966C274.893 418.504 275.155 419.22 275.155 420.114V426H272.018V420.909C272.018 420.527 271.922 420.227 271.729 420.011C271.536 419.792 271.276 419.682 270.95 419.682C270.628 419.682 270.373 419.792 270.183 420.011C269.998 420.227 269.905 420.527 269.905 420.909V426H266.905V420.909C266.905 420.527 266.808 420.227 266.615 420.011C266.422 419.792 266.162 419.682 265.837 419.682C265.621 419.682 265.435 419.731 265.28 419.83C265.125 419.928 265.003 420.07 264.916 420.256C264.833 420.437 264.791 420.655 264.791 420.909V426H261.655ZM281.429 426.159C280.49 426.159 279.651 426.013 278.912 425.722C278.177 425.43 277.598 425.034 277.173 424.534C276.753 424.034 276.543 423.47 276.543 422.841C276.543 422.36 276.662 421.92 276.901 421.523C277.143 421.125 277.469 420.795 277.878 420.534C278.287 420.269 278.743 420.098 279.247 420.023V419.932C278.584 419.818 278.039 419.525 277.611 419.051C277.187 418.574 276.974 418.011 276.974 417.364C276.974 416.754 277.168 416.212 277.554 415.739C277.94 415.261 278.469 414.886 279.139 414.614C279.81 414.341 280.573 414.205 281.429 414.205C282.285 414.205 283.048 414.343 283.719 414.619C284.389 414.892 284.918 415.267 285.304 415.744C285.69 416.218 285.884 416.758 285.884 417.364C285.884 418.015 285.668 418.578 285.236 419.051C284.804 419.525 284.262 419.818 283.611 419.932V420.023C284.111 420.098 284.565 420.269 284.974 420.534C285.384 420.795 285.709 421.125 285.952 421.523C286.194 421.92 286.315 422.36 286.315 422.841C286.315 423.47 286.103 424.034 285.679 424.534C285.259 425.034 284.679 425.43 283.94 425.722C283.205 426.013 282.368 426.159 281.429 426.159ZM281.429 423.977C281.728 423.977 281.993 423.917 282.224 423.795C282.455 423.674 282.637 423.508 282.77 423.295C282.906 423.08 282.974 422.837 282.974 422.568C282.974 422.299 282.906 422.061 282.77 421.852C282.637 421.644 282.455 421.481 282.224 421.364C281.993 421.242 281.728 421.182 281.429 421.182C281.134 421.182 280.868 421.242 280.634 421.364C280.402 421.481 280.219 421.644 280.082 421.852C279.95 422.061 279.884 422.299 279.884 422.568C279.884 422.837 279.95 423.078 280.082 423.29C280.219 423.502 280.402 423.67 280.634 423.795C280.868 423.917 281.134 423.977 281.429 423.977ZM281.429 419C281.694 419 281.929 418.945 282.134 418.835C282.338 418.725 282.499 418.574 282.616 418.381C282.734 418.187 282.793 417.97 282.793 417.727C282.793 417.485 282.734 417.271 282.616 417.085C282.499 416.896 282.338 416.748 282.134 416.642C281.929 416.532 281.694 416.477 281.429 416.477C281.168 416.477 280.933 416.532 280.724 416.642C280.52 416.748 280.359 416.896 280.241 417.085C280.124 417.271 280.065 417.485 280.065 417.727C280.065 417.97 280.124 418.187 280.241 418.381C280.359 418.57 280.52 418.722 280.724 418.835C280.933 418.945 281.168 419 281.429 419Z" fill="#181818" fill-opacity="0.75"/>
<g filter="url(#filter7_d_121_159)">
<rect x="344" y="20" width="160" height="160" rx="8" fill="white" fill-opacity="0.75" shape-rendering="crispEdges"/>
</g>
<path d="M400.795 106V97.2727H403.932V106H400.795ZM402.364 96.3636C401.939 96.3636 401.576 96.2235 401.273 95.9432C400.97 95.6629 400.818 95.3258 400.818 94.9318C400.818 94.5379 400.97 94.2008 401.273 93.9205C401.576 93.6402 401.939 93.5 402.364 93.5C402.792 93.5 403.155 93.6402 403.455 93.9205C403.758 94.2008 403.909 94.5379 403.909 94.9318C403.909 95.3258 403.758 95.6629 403.455 95.9432C403.155 96.2235 402.792 96.3636 402.364 96.3636ZM410.734 97.2727V99.5455H404.984V97.2727H410.734ZM406.098 95.1818H409.234V103.193C409.234 103.314 409.255 103.417 409.297 103.5C409.339 103.58 409.403 103.64 409.49 103.682C409.577 103.72 409.689 103.739 409.825 103.739C409.92 103.739 410.03 103.727 410.155 103.705C410.284 103.682 410.378 103.663 410.439 103.648L410.893 105.852C410.753 105.894 410.553 105.945 410.291 106.006C410.034 106.066 409.727 106.106 409.371 106.125C408.651 106.163 408.047 106.089 407.558 105.903C407.07 105.714 406.702 105.417 406.456 105.011C406.21 104.606 406.09 104.098 406.098 103.489V95.1818ZM416.102 106.159C415.17 106.159 414.367 105.981 413.693 105.625C413.023 105.265 412.506 104.75 412.142 104.08C411.782 103.405 411.602 102.598 411.602 101.659C411.602 100.758 411.784 99.9697 412.148 99.2955C412.511 98.6212 413.025 98.0966 413.688 97.7216C414.35 97.3466 415.133 97.1591 416.034 97.1591C416.693 97.1591 417.29 97.2614 417.824 97.4659C418.358 97.6705 418.814 97.9678 419.193 98.358C419.572 98.7443 419.864 99.214 420.068 99.767C420.273 100.32 420.375 100.943 420.375 101.636V102.364H412.58V100.636H417.489C417.485 100.386 417.42 100.167 417.295 99.9773C417.174 99.7841 417.009 99.6345 416.801 99.5284C416.597 99.4186 416.364 99.3636 416.102 99.3636C415.848 99.3636 415.616 99.4186 415.403 99.5284C415.191 99.6345 415.021 99.7822 414.892 99.9716C414.767 100.161 414.701 100.383 414.693 100.636V102.5C414.693 102.78 414.752 103.03 414.869 103.25C414.987 103.47 415.155 103.642 415.375 103.767C415.595 103.892 415.86 103.955 416.17 103.955C416.386 103.955 416.583 103.924 416.761 103.864C416.943 103.803 417.098 103.716 417.227 103.602C417.356 103.485 417.451 103.345 417.511 103.182H420.375C420.277 103.788 420.044 104.314 419.676 104.761C419.309 105.205 418.822 105.549 418.216 105.795C417.614 106.038 416.909 106.159 416.102 106.159ZM421.655 106V97.2727H424.632V98.9318H424.723C424.905 98.3864 425.215 97.9545 425.655 97.6364C426.094 97.3182 426.617 97.1591 427.223 97.1591C427.837 97.1591 428.365 97.322 428.808 97.6477C429.251 97.9697 429.518 98.3977 429.609 98.9318H429.7C429.848 98.3977 430.162 97.9697 430.643 97.6477C431.125 97.322 431.689 97.1591 432.337 97.1591C433.174 97.1591 433.852 97.428 434.371 97.9659C434.893 98.5038 435.155 99.2197 435.155 100.114V106H432.018V100.909C432.018 100.527 431.922 100.227 431.729 100.011C431.536 99.7917 431.276 99.6818 430.95 99.6818C430.628 99.6818 430.373 99.7917 430.183 100.011C429.998 100.227 429.905 100.527 429.905 100.909V106H426.905V100.909C426.905 100.527 426.808 100.227 426.615 100.011C426.422 99.7917 426.162 99.6818 425.837 99.6818C425.621 99.6818 425.435 99.7311 425.28 99.8295C425.125 99.928 425.003 100.07 424.916 100.256C424.833 100.437 424.791 100.655 424.791 100.909V106H421.655ZM441.224 106.159C440.308 106.159 439.493 106.002 438.781 105.688C438.073 105.369 437.516 104.932 437.111 104.375C436.705 103.818 436.501 103.178 436.497 102.455H439.679C439.683 102.678 439.751 102.879 439.884 103.057C440.02 103.231 440.205 103.367 440.44 103.466C440.675 103.564 440.944 103.614 441.247 103.614C441.539 103.614 441.796 103.562 442.02 103.46C442.243 103.354 442.418 103.208 442.543 103.023C442.668 102.837 442.728 102.625 442.724 102.386C442.728 102.152 442.656 101.943 442.509 101.761C442.365 101.58 442.162 101.437 441.901 101.335C441.639 101.233 441.338 101.182 440.997 101.182H439.815V99H440.997C441.312 99 441.588 98.9489 441.827 98.8466C442.069 98.7443 442.257 98.6023 442.389 98.4205C442.526 98.2386 442.592 98.0303 442.588 97.7955C442.592 97.5682 442.537 97.3674 442.423 97.1932C442.31 97.0189 442.151 96.8826 441.946 96.7841C441.745 96.6856 441.512 96.6364 441.247 96.6364C440.959 96.6364 440.702 96.6875 440.474 96.7898C440.251 96.892 440.075 97.0341 439.946 97.2159C439.817 97.3977 439.751 97.6061 439.747 97.8409H436.724C436.728 97.1288 436.923 96.5 437.31 95.9545C437.7 95.4091 438.234 94.9811 438.912 94.6705C439.59 94.3598 440.368 94.2045 441.247 94.2045C442.107 94.2045 442.866 94.3504 443.526 94.642C444.188 94.9337 444.705 95.3352 445.077 95.8466C445.452 96.3542 445.637 96.9356 445.634 97.5909C445.641 98.2424 445.418 98.7765 444.963 99.1932C444.512 99.6098 443.94 99.8561 443.247 99.9318V100.023C444.187 100.125 444.893 100.413 445.366 100.886C445.84 101.356 446.073 101.947 446.065 102.659C446.069 103.341 445.865 103.945 445.452 104.472C445.043 104.998 444.473 105.411 443.741 105.71C443.014 106.009 442.175 106.159 441.224 106.159Z" fill="#181818" fill-opacity="0.75"/>
<g filter="url(#filter8_d_121_159)">
<rect x="344" y="180" width="160" height="160" rx="8" fill="white" fill-opacity="0.75" shape-rendering="crispEdges"/>
</g>
<path d="M400.795 266V257.273H403.932V266H400.795ZM402.364 256.364C401.939 256.364 401.576 256.223 401.273 255.943C400.97 255.663 400.818 255.326 400.818 254.932C400.818 254.538 400.97 254.201 401.273 253.92C401.576 253.64 401.939 253.5 402.364 253.5C402.792 253.5 403.155 253.64 403.455 253.92C403.758 254.201 403.909 254.538 403.909 254.932C403.909 255.326 403.758 255.663 403.455 255.943C403.155 256.223 402.792 256.364 402.364 256.364ZM410.734 257.273V259.545H404.984V257.273H410.734ZM406.098 255.182H409.234V263.193C409.234 263.314 409.255 263.417 409.297 263.5C409.339 263.58 409.403 263.64 409.49 263.682C409.577 263.72 409.689 263.739 409.825 263.739C409.92 263.739 410.03 263.727 410.155 263.705C410.284 263.682 410.378 263.663 410.439 263.648L410.893 265.852C410.753 265.894 410.553 265.945 410.291 266.006C410.034 266.066 409.727 266.106 409.371 266.125C408.651 266.163 408.047 266.089 407.558 265.903C407.07 265.714 406.702 265.417 406.456 265.011C406.21 264.606 406.09 264.098 406.098 263.489V255.182ZM416.102 266.159C415.17 266.159 414.367 265.981 413.693 265.625C413.023 265.265 412.506 264.75 412.142 264.08C411.782 263.405 411.602 262.598 411.602 261.659C411.602 260.758 411.784 259.97 412.148 259.295C412.511 258.621 413.025 258.097 413.688 257.722C414.35 257.347 415.133 257.159 416.034 257.159C416.693 257.159 417.29 257.261 417.824 257.466C418.358 257.67 418.814 257.968 419.193 258.358C419.572 258.744 419.864 259.214 420.068 259.767C420.273 260.32 420.375 260.943 420.375 261.636V262.364H412.58V260.636H417.489C417.485 260.386 417.42 260.167 417.295 259.977C417.174 259.784 417.009 259.634 416.801 259.528C416.597 259.419 416.364 259.364 416.102 259.364C415.848 259.364 415.616 259.419 415.403 259.528C415.191 259.634 415.021 259.782 414.892 259.972C414.767 260.161 414.701 260.383 414.693 260.636V262.5C414.693 262.78 414.752 263.03 414.869 263.25C414.987 263.47 415.155 263.642 415.375 263.767C415.595 263.892 415.86 263.955 416.17 263.955C416.386 263.955 416.583 263.924 416.761 263.864C416.943 263.803 417.098 263.716 417.227 263.602C417.356 263.485 417.451 263.345 417.511 263.182H420.375C420.277 263.788 420.044 264.314 419.676 264.761C419.309 265.205 418.822 265.549 418.216 265.795C417.614 266.038 416.909 266.159 416.102 266.159ZM421.655 266V257.273H424.632V258.932H424.723C424.905 258.386 425.215 257.955 425.655 257.636C426.094 257.318 426.617 257.159 427.223 257.159C427.837 257.159 428.365 257.322 428.808 257.648C429.251 257.97 429.518 258.398 429.609 258.932H429.7C429.848 258.398 430.162 257.97 430.643 257.648C431.125 257.322 431.689 257.159 432.337 257.159C433.174 257.159 433.852 257.428 434.371 257.966C434.893 258.504 435.155 259.22 435.155 260.114V266H432.018V260.909C432.018 260.527 431.922 260.227 431.729 260.011C431.536 259.792 431.276 259.682 430.95 259.682C430.628 259.682 430.373 259.792 430.183 260.011C429.998 260.227 429.905 260.527 429.905 260.909V266H426.905V260.909C426.905 260.527 426.808 260.227 426.615 260.011C426.422 259.792 426.162 259.682 425.837 259.682C425.621 259.682 425.435 259.731 425.28 259.83C425.125 259.928 425.003 260.07 424.916 260.256C424.833 260.437 424.791 260.655 424.791 260.909V266H421.655ZM441.543 266.159C440.865 266.159 440.221 266.053 439.611 265.841C439.005 265.625 438.467 265.286 437.997 264.824C437.527 264.362 437.158 263.759 436.889 263.017C436.624 262.275 436.493 261.375 436.497 260.318C436.501 259.375 436.622 258.527 436.861 257.773C437.103 257.019 437.446 256.377 437.889 255.847C438.336 255.316 438.87 254.911 439.491 254.631C440.113 254.347 440.804 254.205 441.565 254.205C442.421 254.205 443.175 254.369 443.827 254.699C444.478 255.028 444.997 255.47 445.384 256.023C445.774 256.572 446.001 257.178 446.065 257.841H442.952C442.88 257.511 442.713 257.271 442.452 257.119C442.194 256.964 441.899 256.886 441.565 256.886C440.902 256.886 440.416 257.174 440.105 257.75C439.798 258.326 439.641 259.083 439.634 260.023H439.702C439.849 259.667 440.073 259.362 440.372 259.108C440.671 258.854 441.02 258.659 441.418 258.523C441.815 258.386 442.236 258.318 442.679 258.318C443.384 258.318 443.999 258.477 444.526 258.795C445.056 259.114 445.469 259.549 445.764 260.102C446.06 260.655 446.205 261.288 446.202 262C446.205 262.833 446.009 263.562 445.611 264.188C445.217 264.812 444.67 265.297 443.969 265.642C443.268 265.987 442.459 266.159 441.543 266.159ZM441.52 263.773C441.834 263.773 442.113 263.701 442.355 263.557C442.601 263.413 442.793 263.216 442.929 262.966C443.069 262.716 443.137 262.432 443.134 262.114C443.137 261.792 443.069 261.508 442.929 261.261C442.793 261.011 442.601 260.814 442.355 260.67C442.113 260.527 441.834 260.455 441.52 260.455C441.289 260.455 441.075 260.496 440.878 260.58C440.685 260.659 440.516 260.775 440.372 260.926C440.228 261.074 440.115 261.25 440.031 261.455C439.952 261.655 439.91 261.875 439.906 262.114C439.91 262.432 439.982 262.716 440.122 262.966C440.262 263.216 440.454 263.413 440.696 263.557C440.938 263.701 441.213 263.773 441.52 263.773Z" fill="#181818" fill-opacity="0.75"/>
<g filter="url(#filter9_d_121_159)">
<rect x="344" y="340" width="160" height="160" rx="8" fill="white" fill-opacity="0.75" shape-rendering="crispEdges"/>
</g>
<path d="M400.795 426V417.273H403.932V426H400.795ZM402.364 416.364C401.939 416.364 401.576 416.223 401.273 415.943C400.97 415.663 400.818 415.326 400.818 414.932C400.818 414.538 400.97 414.201 401.273 413.92C401.576 413.64 401.939 413.5 402.364 413.5C402.792 413.5 403.155 413.64 403.455 413.92C403.758 414.201 403.909 414.538 403.909 414.932C403.909 415.326 403.758 415.663 403.455 415.943C403.155 416.223 402.792 416.364 402.364 416.364ZM410.734 417.273V419.545H404.984V417.273H410.734ZM406.098 415.182H409.234V423.193C409.234 423.314 409.255 423.417 409.297 423.5C409.339 423.58 409.403 423.64 409.49 423.682C409.577 423.72 409.689 423.739 409.825 423.739C409.92 423.739 410.03 423.727 410.155 423.705C410.284 423.682 410.378 423.663 410.439 423.648L410.893 425.852C410.753 425.894 410.553 425.945 410.291 426.006C410.034 426.066 409.727 426.106 409.371 426.125C408.651 426.163 408.047 426.089 407.558 425.903C407.07 425.714 406.702 425.417 406.456 425.011C406.21 424.606 406.09 424.098 406.098 423.489V415.182ZM416.102 426.159C415.17 426.159 414.367 425.981 413.693 425.625C413.023 425.265 412.506 424.75 412.142 424.08C411.782 423.405 411.602 422.598 411.602 421.659C411.602 420.758 411.784 419.97 412.148 419.295C412.511 418.621 413.025 418.097 413.688 417.722C414.35 417.347 415.133 417.159 416.034 417.159C416.693 417.159 417.29 417.261 417.824 417.466C418.358 417.67 418.814 417.968 419.193 418.358C419.572 418.744 419.864 419.214 420.068 419.767C420.273 420.32 420.375 420.943 420.375 421.636V422.364H412.58V420.636H417.489C417.485 420.386 417.42 420.167 417.295 419.977C417.174 419.784 417.009 419.634 416.801 419.528C416.597 419.419 416.364 419.364 416.102 419.364C415.848 419.364 415.616 419.419 415.403 419.528C415.191 419.634 415.021 419.782 414.892 419.972C414.767 420.161 414.701 420.383 414.693 420.636V422.5C414.693 422.78 414.752 423.03 414.869 423.25C414.987 423.47 415.155 423.642 415.375 423.767C415.595 423.892 415.86 423.955 416.17 423.955C416.386 423.955 416.583 423.924 416.761 423.864C416.943 423.803 417.098 423.716 417.227 423.602C417.356 423.485 417.451 423.345 417.511 423.182H420.375C420.277 423.788 420.044 424.314 419.676 424.761C419.309 425.205 418.822 425.549 418.216 425.795C417.614 426.038 416.909 426.159 416.102 426.159ZM421.655 426V417.273H424.632V418.932H424.723C424.905 418.386 425.215 417.955 425.655 417.636C426.094 417.318 426.617 417.159 427.223 417.159C427.837 417.159 428.365 417.322 428.808 417.648C429.251 417.97 429.518 418.398 429.609 418.932H429.7C429.848 418.398 430.162 417.97 430.643 417.648C431.125 417.322 431.689 417.159 432.337 417.159C433.174 417.159 433.852 417.428 434.371 417.966C434.893 418.504 435.155 419.22 435.155 420.114V426H432.018V420.909C432.018 420.527 431.922 420.227 431.729 420.011C431.536 419.792 431.276 419.682 430.95 419.682C430.628 419.682 430.373 419.792 430.183 420.011C429.998 420.227 429.905 420.527 429.905 420.909V426H426.905V420.909C426.905 420.527 426.808 420.227 426.615 420.011C426.422 419.792 426.162 419.682 425.837 419.682C425.621 419.682 425.435 419.731 425.28 419.83C425.125 419.928 425.003 420.07 424.916 420.256C424.833 420.437 424.791 420.655 424.791 420.909V426H421.655ZM441.224 414.205C441.902 414.205 442.545 414.312 443.151 414.528C443.757 414.741 444.293 415.076 444.759 415.534C445.228 415.992 445.596 416.591 445.861 417.33C446.13 418.064 446.266 418.955 446.27 420C446.274 420.955 446.154 421.812 445.912 422.574C445.673 423.331 445.33 423.977 444.884 424.511C444.44 425.045 443.906 425.455 443.281 425.739C442.66 426.019 441.967 426.159 441.202 426.159C440.342 426.159 439.586 425.994 438.935 425.665C438.283 425.335 437.764 424.892 437.378 424.335C436.991 423.778 436.766 423.159 436.702 422.477H439.815C439.891 422.83 440.058 423.085 440.315 423.244C440.573 423.4 440.868 423.477 441.202 423.477C441.868 423.477 442.355 423.189 442.662 422.614C442.973 422.034 443.13 421.261 443.134 420.295H443.065C442.918 420.652 442.694 420.956 442.395 421.21C442.096 421.464 441.747 421.659 441.349 421.795C440.952 421.932 440.531 422 440.088 422C439.387 422 438.774 421.843 438.247 421.528C437.721 421.21 437.31 420.777 437.014 420.227C436.719 419.674 436.569 419.045 436.565 418.341C436.562 417.515 436.757 416.792 437.151 416.17C437.545 415.549 438.092 415.066 438.793 414.722C439.493 414.377 440.304 414.205 441.224 414.205ZM441.247 416.591C440.933 416.591 440.652 416.663 440.406 416.807C440.164 416.951 439.973 417.146 439.832 417.392C439.696 417.638 439.63 417.917 439.634 418.227C439.637 418.538 439.707 418.816 439.844 419.062C439.984 419.309 440.173 419.504 440.412 419.648C440.654 419.792 440.933 419.864 441.247 419.864C441.478 419.864 441.692 419.824 441.889 419.744C442.086 419.661 442.257 419.545 442.401 419.398C442.548 419.246 442.662 419.072 442.741 418.875C442.825 418.674 442.865 418.458 442.861 418.227C442.857 417.917 442.785 417.638 442.645 417.392C442.505 417.146 442.313 416.951 442.071 416.807C441.829 416.663 441.554 416.591 441.247 416.591Z" fill="#181818" fill-opacity="0.75"/>
<defs>
<filter id="filter0_d_121_159" x="0" y="0" width="528" height="528" filterUnits="userSpaceOnUse" color-interpolation-filters="sRGB">
<feFlood flood-opacity="0" result="BackgroundImageFix"/>
<feColorMatrix in="SourceAlpha" type="matrix" values="0 0 0 0 0 0 0 0 0 0 0 0 0 0 0 0 0 0 127 0" result="hardAlpha"/>
<feOffset dy="4"/>
<feGaussianBlur stdDeviation="4"/>
<feComposite in2="hardAlpha" operator="out"/>
<feColorMatrix type="matrix" values="0 0 0 0 0.129412 0 0 0 0 0.447059 0 0 0 0 1 0 0 0 0.25 0"/>
<feBlend mode="normal" in2="BackgroundImageFix" result="effect1_dropShadow_121_159"/>
<feBlend mode="normal" in="SourceGraphic" in2="effect1_dropShadow_121_159" result="shape"/>
</filter>
<filter id="filter1_d_121_159" x="16" y="16" width="176" height="176" filterUnits="userSpaceOnUse" color-interpolation-filters="sRGB">
<feFlood flood-opacity="0" result="BackgroundImageFix"/>
<feColorMatrix in="SourceAlpha" type="matrix" values="0 0 0 0 0 0 0 0 0 0 0 0 0 0 0 0 0 0 127 0" result="hardAlpha"/>
<feOffset dy="4"/>
<feGaussianBlur stdDeviation="4"/>
<feComposite in2="hardAlpha" operator="out"/>
<feColorMatrix type="matrix" values="0 0 0 0 1 0 0 0 0 1 0 0 0 0 1 0 0 0 0.25 0"/>
<feBlend mode="normal" in2="BackgroundImageFix" result="effect1_dropShadow_121_159"/>
<feBlend mode="normal" in="SourceGraphic" in2="effect1_dropShadow_121_159" result="shape"/>
</filter>
<filter id="filter2_d_121_159" x="16" y="176" width="176" height="176" filterUnits="userSpaceOnUse" color-interpolation-filters="sRGB">
<feFlood flood-opacity="0" result="BackgroundImageFix"/>
<feColorMatrix in="SourceAlpha" type="matrix" values="0 0 0 0 0 0 0 0 0 0 0 0 0 0 0 0 0 0 127 0" result="hardAlpha"/>
<feOffset dy="4"/>
<feGaussianBlur stdDeviation="4"/>
<feComposite in2="hardAlpha" operator="out"/>
<feColorMatrix type="matrix" values="0 0 0 0 1 0 0 0 0 1 0 0 0 0 1 0 0 0 0.25 0"/>
<feBlend mode="normal" in2="BackgroundImageFix" result="effect1_dropShadow_121_159"/>
<feBlend mode="normal" in="SourceGraphic" in2="effect1_dropShadow_121_159" result="shape"/>
</filter>
<filter id="filter3_d_121_159" x="16" y="336" width="176" height="176" filterUnits="userSpaceOnUse" color-interpolation-filters="sRGB">
<feFlood flood-opacity="0" result="BackgroundImageFix"/>
<feColorMatrix in="SourceAlpha" type="matrix" values="0 0 0 0 0 0 0 0 0 0 0 0 0 0 0 0 0 0 127 0" result="hardAlpha"/>
<feOffset dy="4"/>
<feGaussianBlur stdDeviation="4"/>
<feComposite in2="hardAlpha" operator="out"/>
<feColorMatrix type="matrix" values="0 0 0 0 1 0 0 0 0 1 0 0 0 0 1 0 0 0 0.25 0"/>
<feBlend mode="normal" in2="BackgroundImageFix" result="effect1_dropShadow_121_159"/>
<feBlend mode="normal" in="SourceGraphic" in2="effect1_dropShadow_121_159" result="shape"/>
</filter>
<filter id="filter4_d_121_159" x="176" y="16" width="176" height="176" filterUnits="userSpaceOnUse" color-interpolation-filters="sRGB">
<feFlood flood-opacity="0" result="BackgroundImageFix"/>
<feColorMatrix in="SourceAlpha" type="matrix" values="0 0 0 0 0 0 0 0 0 0 0 0 0 0 0 0 0 0 127 0" result="hardAlpha"/>
<feOffset dy="4"/>
<feGaussianBlur stdDeviation="4"/>
<feComposite in2="hardAlpha" operator="out"/>
<feColorMatrix type="matrix" values="0 0 0 0 1 0 0 0 0 1 0 0 0 0 1 0 0 0 0.25 0"/>
<feBlend mode="normal" in2="BackgroundImageFix" result="effect1_dropShadow_121_159"/>
<feBlend mode="normal" in="SourceGraphic" in2="effect1_dropShadow_121_159" result="shape"/>
</filter>
<filter id="filter5_d_121_159" x="176" y="176" width="176" height="176" filterUnits="userSpaceOnUse" color-interpolation-filters="sRGB">
<feFlood flood-opacity="0" result="BackgroundImageFix"/>
<feColorMatrix in="SourceAlpha" type="matrix" values="0 0 0 0 0 0 0 0 0 0 0 0 0 0 0 0 0 0 127 0" result="hardAlpha"/>
<feOffset dy="4"/>
<feGaussianBlur stdDeviation="4"/>
<feComposite in2="hardAlpha" operator="out"/>
<feColorMatrix type="matrix" values="0 0 0 0 1 0 0 0 0 1 0 0 0 0 1 0 0 0 0.25 0"/>
<feBlend mode="normal" in2="BackgroundImageFix" result="effect1_dropShadow_121_159"/>
<feBlend mode="normal" in="SourceGraphic" in2="effect1_dropShadow_121_159" result="shape"/>
</filter>
<filter id="filter6_d_121_159" x="176" y="336" width="176" height="176" filterUnits="userSpaceOnUse" color-interpolation-filters="sRGB">
<feFlood flood-opacity="0" result="BackgroundImageFix"/>
<feColorMatrix in="SourceAlpha" type="matrix" values="0 0 0 0 0 0 0 0 0 0 0 0 0 0 0 0 0 0 127 0" result="hardAlpha"/>
<feOffset dy="4"/>
<feGaussianBlur stdDeviation="4"/>
<feComposite in2="hardAlpha" operator="out"/>
<feColorMatrix type="matrix" values="0 0 0 0 1 0 0 0 0 1 0 0 0 0 1 0 0 0 0.25 0"/>
<feBlend mode="normal" in2="BackgroundImageFix" result="effect1_dropShadow_121_159"/>
<feBlend mode="normal" in="SourceGraphic" in2="effect1_dropShadow_121_159" result="shape"/>
</filter>
<filter id="filter7_d_121_159" x="336" y="16" width="176" height="176" filterUnits="userSpaceOnUse" color-interpolation-filters="sRGB">
<feFlood flood-opacity="0" result="BackgroundImageFix"/>
<feColorMatrix in="SourceAlpha" type="matrix" values="0 0 0 0 0 0 0 0 0 0 0 0 0 0 0 0 0 0 127 0" result="hardAlpha"/>
<feOffset dy="4"/>
<feGaussianBlur stdDeviation="4"/>
<feComposite in2="hardAlpha" operator="out"/>
<feColorMatrix type="matrix" values="0 0 0 0 1 0 0 0 0 1 0 0 0 0 1 0 0 0 0.25 0"/>
<feBlend mode="normal" in2="BackgroundImageFix" result="effect1_dropShadow_121_159"/>
<feBlend mode="normal" in="SourceGraphic" in2="effect1_dropShadow_121_159" result="shape"/>
</filter>
<filter id="filter8_d_121_159" x="336" y="176" width="176" height="176" filterUnits="userSpaceOnUse" color-interpolation-filters="sRGB">
<feFlood flood-opacity="0" result="BackgroundImageFix"/>
<feColorMatrix in="SourceAlpha" type="matrix" values="0 0 0 0 0 0 0 0 0 0 0 0 0 0 0 0 0 0 127 0" result="hardAlpha"/>
<feOffset dy="4"/>
<feGaussianBlur stdDeviation="4"/>
<feComposite in2="hardAlpha" operator="out"/>
<feColorMatrix type="matrix" values="0 0 0 0 1 0 0 0 0 1 0 0 0 0 1 0 0 0 0.25 0"/>
<feBlend mode="normal" in2="BackgroundImageFix" result="effect1_dropShadow_121_159"/>
<feBlend mode="normal" in="SourceGraphic" in2="effect1_dropShadow_121_159" result="shape"/>
</filter>
<filter id="filter9_d_121_159" x="336" y="336" width="176" height="176" filterUnits="userSpaceOnUse" color-interpolation-filters="sRGB">
<feFlood flood-opacity="0" result="BackgroundImageFix"/>
<feColorMatrix in="SourceAlpha" type="matrix" values="0 0 0 0 0 0 0 0 0 0 0 0 0 0 0 0 0 0 127 0" result="hardAlpha"/>
<feOffset dy="4"/>
<feGaussianBlur stdDeviation="4"/>
<feComposite in2="hardAlpha" operator="out"/>
<feColorMatrix type="matrix" values="0 0 0 0 1 0 0 0 0 1 0 0 0 0 1 0 0 0 0.25 0"/>
<feBlend mode="normal" in2="BackgroundImageFix" result="effect1_dropShadow_121_159"/>
<feBlend mode="normal" in="SourceGraphic" in2="effect1_dropShadow_121_159" result="shape"/>
</filter>
</defs>
</svg>
