<svg width="528" height="336" viewBox="0 0 528 336" fill="none" xmlns="http://www.w3.org/2000/svg">
<g filter="url(#filter0_d_121_159)">
<rect x="8" y="4" width="512" height="320" rx="8" fill="#2172FF" fill-opacity="0.8" shape-rendering="crispEdges"/>
</g>
<g filter="url(#filter1_d_121_159)">
<rect x="24" y="20" width="96" height="192" rx="8" fill="white" fill-opacity="0.75" shape-rendering="crispEdges"/>
</g>
<path d="M48.7955 74V65.2727H51.9318V74H48.7955ZM50.3636 64.3636C49.9394 64.3636 49.5758 64.2235 49.2727 63.9432C48.9697 63.6629 48.8182 63.3258 48.8182 62.9318C48.8182 62.5379 48.9697 62.2008 49.2727 61.9205C49.5758 61.6402 49.9394 61.5 50.3636 61.5C50.7917 61.5 51.1553 61.6402 51.4545 61.9205C51.7576 62.2008 51.9091 62.5379 51.9091 62.9318C51.9091 63.3258 51.7576 63.6629 51.4545 63.9432C51.1553 64.2235 50.7917 64.3636 50.3636 64.3636ZM58.7344 65.2727V67.5455H52.9844V65.2727H58.7344ZM54.098 63.1818H57.2344V71.1932C57.2344 71.3144 57.2552 71.4167 57.2969 71.5C57.3385 71.5795 57.4029 71.6402 57.4901 71.6818C57.5772 71.7197 57.6889 71.7386 57.8253 71.7386C57.92 71.7386 58.0298 71.7273 58.1548 71.7045C58.2836 71.6818 58.3783 71.6629 58.4389 71.6477L58.8935 73.8523C58.7533 73.8939 58.5526 73.9451 58.2912 74.0057C58.0336 74.0663 57.7268 74.1061 57.3707 74.125C56.651 74.1629 56.0469 74.089 55.5582 73.9034C55.0696 73.714 54.7022 73.4167 54.456 73.0114C54.2098 72.6061 54.0904 72.0985 54.098 71.4886V63.1818ZM64.1023 74.1591C63.1705 74.1591 62.3674 73.9811 61.6932 73.625C61.0227 73.2652 60.5057 72.75 60.142 72.0795C59.7822 71.4053 59.6023 70.5985 59.6023 69.6591C59.6023 68.7576 59.7841 67.9697 60.1477 67.2955C60.5114 66.6212 61.0246 66.0966 61.6875 65.7216C62.3504 65.3466 63.1326 65.1591 64.0341 65.1591C64.6932 65.1591 65.2898 65.2614 65.8239 65.4659C66.358 65.6705 66.8144 65.9678 67.1932 66.358C67.572 66.7443 67.8636 67.214 68.0682 67.767C68.2727 68.3201 68.375 68.9432 68.375 69.6364V70.3636H60.5795V68.6364H65.4886C65.4848 68.3864 65.4205 68.1667 65.2955 67.9773C65.1742 67.7841 65.0095 67.6345 64.8011 67.5284C64.5966 67.4186 64.3636 67.3636 64.1023 67.3636C63.8485 67.3636 63.6155 67.4186 63.4034 67.5284C63.1913 67.6345 63.0208 67.7822 62.892 67.9716C62.767 68.161 62.7008 68.3826 62.6932 68.6364V70.5C62.6932 70.7803 62.7519 71.0303 62.8693 71.25C62.9867 71.4697 63.1553 71.642 63.375 71.767C63.5947 71.892 63.8598 71.9545 64.1705 71.9545C64.3864 71.9545 64.5833 71.9242 64.7614 71.8636C64.9432 71.803 65.0985 71.7159 65.2273 71.6023C65.3561 71.4848 65.4508 71.3447 65.5114 71.1818H68.375C68.2765 71.7879 68.0436 72.3144 67.6761 72.7614C67.3087 73.2045 66.822 73.5492 66.2159 73.7955C65.6136 74.0379 64.9091 74.1591 64.1023 74.1591ZM69.6548 74V65.2727H72.6321V66.9318H72.723C72.9048 66.3864 73.2154 65.9545 73.6548 65.6364C74.0942 65.3182 74.617 65.1591 75.223 65.1591C75.8366 65.1591 76.3651 65.322 76.8082 65.6477C77.2514 65.9697 77.5185 66.3977 77.6094 66.9318H77.7003C77.848 66.3977 78.1624 65.9697 78.6435 65.6477C79.1245 65.322 79.6889 65.1591 80.3366 65.1591C81.1738 65.1591 81.8518 65.428 82.3707 65.9659C82.8935 66.5038 83.1548 67.2197 83.1548 68.1136V74H80.0185V68.9091C80.0185 68.5265 79.9219 68.2273 79.7287 68.0114C79.5355 67.7917 79.276 67.6818 78.9503 67.6818C78.6283 67.6818 78.3726 67.7917 78.1832 68.0114C77.9976 68.2273 77.9048 68.5265 77.9048 68.9091V74H74.9048V68.9091C74.9048 68.5265 74.8082 68.2273 74.6151 68.0114C74.4219 67.7917 74.1624 67.6818 73.8366 67.6818C73.6207 67.6818 73.4351 67.7311 73.2798 67.8295C73.1245 67.928 73.0033 68.0701 72.9162 68.2557C72.8329 68.4375 72.7912 68.6553 72.7912 68.9091V74H69.6548ZM84.679 74V71.7273L89.0199 68.1364C89.3078 67.8977 89.554 67.6742 89.7585 67.4659C89.9669 67.2538 90.1259 67.036 90.2358 66.8125C90.3494 66.589 90.4062 66.3409 90.4062 66.0682C90.4062 65.7689 90.3419 65.5133 90.2131 65.3011C90.0881 65.089 89.9138 64.9261 89.6903 64.8125C89.4669 64.6951 89.2093 64.6364 88.9176 64.6364C88.6259 64.6364 88.3684 64.6951 88.1449 64.8125C87.9252 64.9299 87.7547 65.1023 87.6335 65.3295C87.5123 65.5568 87.4517 65.8333 87.4517 66.1591H84.4517C84.4517 65.3409 84.6354 64.6364 85.0028 64.0455C85.3703 63.4545 85.8892 63 86.5597 62.6818C87.2301 62.3636 88.0161 62.2045 88.9176 62.2045C89.8494 62.2045 90.6563 62.3542 91.3381 62.6534C92.0237 62.9489 92.5521 63.3655 92.9233 63.9034C93.2983 64.4413 93.4858 65.072 93.4858 65.7955C93.4858 66.2424 93.393 66.6875 93.2074 67.1307C93.0218 67.5701 92.6884 68.0568 92.2074 68.5909C91.7263 69.125 91.0426 69.7614 90.1562 70.5L89.0653 71.4091V71.4773H93.6108V74H84.679Z" fill="#181818" fill-opacity="0.75"/>
<g filter="url(#filter2_d_121_159)">
<rect x="216" y="20" width="96" height="96" rx="8" fill="white" fill-opacity="0.75" shape-rendering="crispEdges"/>
</g>
<path d="M246.795 74V65.2727H249.932V74H246.795ZM248.364 64.3636C247.939 64.3636 247.576 64.2235 247.273 63.9432C246.97 63.6629 246.818 63.3258 246.818 62.9318C246.818 62.5379 246.97 62.2008 247.273 61.9205C247.576 61.6402 247.939 61.5 248.364 61.5C248.792 61.5 249.155 61.6402 249.455 61.9205C249.758 62.2008 249.909 62.5379 249.909 62.9318C249.909 63.3258 249.758 63.6629 249.455 63.9432C249.155 64.2235 248.792 64.3636 248.364 64.3636ZM256.734 65.2727V67.5455H250.984V65.2727H256.734ZM252.098 63.1818H255.234V71.1932C255.234 71.3144 255.255 71.4167 255.297 71.5C255.339 71.5795 255.403 71.6402 255.49 71.6818C255.577 71.7197 255.689 71.7386 255.825 71.7386C255.92 71.7386 256.03 71.7273 256.155 71.7045C256.284 71.6818 256.378 71.6629 256.439 71.6477L256.893 73.8523C256.753 73.8939 256.553 73.9451 256.291 74.0057C256.034 74.0663 255.727 74.1061 255.371 74.125C254.651 74.1629 254.047 74.089 253.558 73.9034C253.07 73.714 252.702 73.4167 252.456 73.0114C252.21 72.6061 252.09 72.0985 252.098 71.4886V63.1818ZM262.102 74.1591C261.17 74.1591 260.367 73.9811 259.693 73.625C259.023 73.2652 258.506 72.75 258.142 72.0795C257.782 71.4053 257.602 70.5985 257.602 69.6591C257.602 68.7576 257.784 67.9697 258.148 67.2955C258.511 66.6212 259.025 66.0966 259.688 65.7216C260.35 65.3466 261.133 65.1591 262.034 65.1591C262.693 65.1591 263.29 65.2614 263.824 65.4659C264.358 65.6705 264.814 65.9678 265.193 66.358C265.572 66.7443 265.864 67.214 266.068 67.767C266.273 68.3201 266.375 68.9432 266.375 69.6364V70.3636H258.58V68.6364H263.489C263.485 68.3864 263.42 68.1667 263.295 67.9773C263.174 67.7841 263.009 67.6345 262.801 67.5284C262.597 67.4186 262.364 67.3636 262.102 67.3636C261.848 67.3636 261.616 67.4186 261.403 67.5284C261.191 67.6345 261.021 67.7822 260.892 67.9716C260.767 68.161 260.701 68.3826 260.693 68.6364V70.5C260.693 70.7803 260.752 71.0303 260.869 71.25C260.987 71.4697 261.155 71.642 261.375 71.767C261.595 71.892 261.86 71.9545 262.17 71.9545C262.386 71.9545 262.583 71.9242 262.761 71.8636C262.943 71.803 263.098 71.7159 263.227 71.6023C263.356 71.4848 263.451 71.3447 263.511 71.1818H266.375C266.277 71.7879 266.044 72.3144 265.676 72.7614C265.309 73.2045 264.822 73.5492 264.216 73.7955C263.614 74.0379 262.909 74.1591 262.102 74.1591ZM267.655 74V65.2727H270.632V66.9318H270.723C270.905 66.3864 271.215 65.9545 271.655 65.6364C272.094 65.3182 272.617 65.1591 273.223 65.1591C273.837 65.1591 274.365 65.322 274.808 65.6477C275.251 65.9697 275.518 66.3977 275.609 66.9318H275.7C275.848 66.3977 276.162 65.9697 276.643 65.6477C277.125 65.322 277.689 65.1591 278.337 65.1591C279.174 65.1591 279.852 65.428 280.371 65.9659C280.893 66.5038 281.155 67.2197 281.155 68.1136V74H278.018V68.9091C278.018 68.5265 277.922 68.2273 277.729 68.0114C277.536 67.7917 277.276 67.6818 276.95 67.6818C276.628 67.6818 276.373 67.7917 276.183 68.0114C275.998 68.2273 275.905 68.5265 275.905 68.9091V74H272.905V68.9091C272.905 68.5265 272.808 68.2273 272.615 68.0114C272.422 67.7917 272.162 67.6818 271.837 67.6818C271.621 67.6818 271.435 67.7311 271.28 67.8295C271.125 67.928 271.003 68.0701 270.916 68.2557C270.833 68.4375 270.791 68.6553 270.791 68.9091V74H267.655Z" fill="#181818" fill-opacity="0.75"/>
<g filter="url(#filter3_d_121_159)">
<rect x="24" y="212" width="96" height="96" rx="8" fill="white" fill-opacity="0.75" shape-rendering="crispEdges"/>
</g>
<path d="M54.7955 266V257.273H57.9318V266H54.7955ZM56.3636 256.364C55.9394 256.364 55.5758 256.223 55.2727 255.943C54.9697 255.663 54.8182 255.326 54.8182 254.932C54.8182 254.538 54.9697 254.201 55.2727 253.92C55.5758 253.64 55.9394 253.5 56.3636 253.5C56.7917 253.5 57.1553 253.64 57.4545 253.92C57.7576 254.201 57.9091 254.538 57.9091 254.932C57.9091 255.326 57.7576 255.663 57.4545 255.943C57.1553 256.223 56.7917 256.364 56.3636 256.364ZM64.7344 257.273V259.545H58.9844V257.273H64.7344ZM60.098 255.182H63.2344V263.193C63.2344 263.314 63.2552 263.417 63.2969 263.5C63.3385 263.58 63.4029 263.64 63.4901 263.682C63.5772 263.72 63.6889 263.739 63.8253 263.739C63.92 263.739 64.0298 263.727 64.1548 263.705C64.2836 263.682 64.3783 263.663 64.4389 263.648L64.8935 265.852C64.7533 265.894 64.5526 265.945 64.2912 266.006C64.0336 266.066 63.7268 266.106 63.3707 266.125C62.651 266.163 62.0469 266.089 61.5582 265.903C61.0696 265.714 60.7022 265.417 60.456 265.011C60.2098 264.606 60.0904 264.098 60.098 263.489V255.182ZM70.1023 266.159C69.1705 266.159 68.3674 265.981 67.6932 265.625C67.0227 265.265 66.5057 264.75 66.142 264.08C65.7822 263.405 65.6023 262.598 65.6023 261.659C65.6023 260.758 65.7841 259.97 66.1477 259.295C66.5114 258.621 67.0246 258.097 67.6875 257.722C68.3504 257.347 69.1326 257.159 70.0341 257.159C70.6932 257.159 71.2898 257.261 71.8239 257.466C72.358 257.67 72.8144 257.968 73.1932 258.358C73.572 258.744 73.8636 259.214 74.0682 259.767C74.2727 260.32 74.375 260.943 74.375 261.636V262.364H66.5795V260.636H71.4886C71.4848 260.386 71.4205 260.167 71.2955 259.977C71.1742 259.784 71.0095 259.634 70.8011 259.528C70.5966 259.419 70.3636 259.364 70.1023 259.364C69.8485 259.364 69.6155 259.419 69.4034 259.528C69.1913 259.634 69.0208 259.782 68.892 259.972C68.767 260.161 68.7008 260.383 68.6932 260.636V262.5C68.6932 262.78 68.7519 263.03 68.8693 263.25C68.9867 263.47 69.1553 263.642 69.375 263.767C69.5947 263.892 69.8598 263.955 70.1705 263.955C70.3864 263.955 70.5833 263.924 70.7614 263.864C70.9432 263.803 71.0985 263.716 71.2273 263.602C71.3561 263.485 71.4508 263.345 71.5114 263.182H74.375C74.2765 263.788 74.0436 264.314 73.6761 264.761C73.3087 265.205 72.822 265.549 72.2159 265.795C71.6136 266.038 70.9091 266.159 70.1023 266.159ZM75.6548 266V257.273H78.6321V258.932H78.723C78.9048 258.386 79.2154 257.955 79.6548 257.636C80.0942 257.318 80.617 257.159 81.223 257.159C81.8366 257.159 82.3651 257.322 82.8082 257.648C83.2514 257.97 83.5185 258.398 83.6094 258.932H83.7003C83.848 258.398 84.1624 257.97 84.6435 257.648C85.1245 257.322 85.6889 257.159 86.3366 257.159C87.1738 257.159 87.8518 257.428 88.3707 257.966C88.8935 258.504 89.1548 259.22 89.1548 260.114V266H86.0185V260.909C86.0185 260.527 85.9219 260.227 85.7287 260.011C85.5355 259.792 85.276 259.682 84.9503 259.682C84.6283 259.682 84.3726 259.792 84.1832 260.011C83.9976 260.227 83.9048 260.527 83.9048 260.909V266H80.9048V260.909C80.9048 260.527 80.8082 260.227 80.6151 260.011C80.4219 259.792 80.1624 259.682 79.8366 259.682C79.6207 259.682 79.4351 259.731 79.2798 259.83C79.1245 259.928 79.0033 260.07 78.9162 260.256C78.8329 260.437 78.7912 260.655 78.7912 260.909V266H75.6548Z" fill="#181818" fill-opacity="0.75"/>
<g filter="url(#filter4_d_121_159)">
<rect x="120" y="20" width="96" height="96" rx="8" fill="white" fill-opacity="0.75" shape-rendering="crispEdges"/>
</g>
<path d="M150.795 74V65.2727H153.932V74H150.795ZM152.364 64.3636C151.939 64.3636 151.576 64.2235 151.273 63.9432C150.97 63.6629 150.818 63.3258 150.818 62.9318C150.818 62.5379 150.97 62.2008 151.273 61.9205C151.576 61.6402 151.939 61.5 152.364 61.5C152.792 61.5 153.155 61.6402 153.455 61.9205C153.758 62.2008 153.909 62.5379 153.909 62.9318C153.909 63.3258 153.758 63.6629 153.455 63.9432C153.155 64.2235 152.792 64.3636 152.364 64.3636ZM160.734 65.2727V67.5455H154.984V65.2727H160.734ZM156.098 63.1818H159.234V71.1932C159.234 71.3144 159.255 71.4167 159.297 71.5C159.339 71.5795 159.403 71.6402 159.49 71.6818C159.577 71.7197 159.689 71.7386 159.825 71.7386C159.92 71.7386 160.03 71.7273 160.155 71.7045C160.284 71.6818 160.378 71.6629 160.439 71.6477L160.893 73.8523C160.753 73.8939 160.553 73.9451 160.291 74.0057C160.034 74.0663 159.727 74.1061 159.371 74.125C158.651 74.1629 158.047 74.089 157.558 73.9034C157.07 73.714 156.702 73.4167 156.456 73.0114C156.21 72.6061 156.09 72.0985 156.098 71.4886V63.1818ZM166.102 74.1591C165.17 74.1591 164.367 73.9811 163.693 73.625C163.023 73.2652 162.506 72.75 162.142 72.0795C161.782 71.4053 161.602 70.5985 161.602 69.6591C161.602 68.7576 161.784 67.9697 162.148 67.2955C162.511 66.6212 163.025 66.0966 163.688 65.7216C164.35 65.3466 165.133 65.1591 166.034 65.1591C166.693 65.1591 167.29 65.2614 167.824 65.4659C168.358 65.6705 168.814 65.9678 169.193 66.358C169.572 66.7443 169.864 67.214 170.068 67.767C170.273 68.3201 170.375 68.9432 170.375 69.6364V70.3636H162.58V68.6364H167.489C167.485 68.3864 167.42 68.1667 167.295 67.9773C167.174 67.7841 167.009 67.6345 166.801 67.5284C166.597 67.4186 166.364 67.3636 166.102 67.3636C165.848 67.3636 165.616 67.4186 165.403 67.5284C165.191 67.6345 165.021 67.7822 164.892 67.9716C164.767 68.161 164.701 68.3826 164.693 68.6364V70.5C164.693 70.7803 164.752 71.0303 164.869 71.25C164.987 71.4697 165.155 71.642 165.375 71.767C165.595 71.892 165.86 71.9545 166.17 71.9545C166.386 71.9545 166.583 71.9242 166.761 71.8636C166.943 71.803 167.098 71.7159 167.227 71.6023C167.356 71.4848 167.451 71.3447 167.511 71.1818H170.375C170.277 71.7879 170.044 72.3144 169.676 72.7614C169.309 73.2045 168.822 73.5492 168.216 73.7955C167.614 74.0379 166.909 74.1591 166.102 74.1591ZM171.655 74V65.2727H174.632V66.9318H174.723C174.905 66.3864 175.215 65.9545 175.655 65.6364C176.094 65.3182 176.617 65.1591 177.223 65.1591C177.837 65.1591 178.365 65.322 178.808 65.6477C179.251 65.9697 179.518 66.3977 179.609 66.9318H179.7C179.848 66.3977 180.162 65.9697 180.643 65.6477C181.125 65.322 181.689 65.1591 182.337 65.1591C183.174 65.1591 183.852 65.428 184.371 65.9659C184.893 66.5038 185.155 67.2197 185.155 68.1136V74H182.018V68.9091C182.018 68.5265 181.922 68.2273 181.729 68.0114C181.536 67.7917 181.276 67.6818 180.95 67.6818C180.628 67.6818 180.373 67.7917 180.183 68.0114C179.998 68.2273 179.905 68.5265 179.905 68.9091V74H176.905V68.9091C176.905 68.5265 176.808 68.2273 176.615 68.0114C176.422 67.7917 176.162 67.6818 175.837 67.6818C175.621 67.6818 175.435 67.7311 175.28 67.8295C175.125 67.928 175.003 68.0701 174.916 68.2557C174.833 68.4375 174.791 68.6553 174.791 68.9091V74H171.655Z" fill="#181818" fill-opacity="0.75"/>
<g filter="url(#filter5_d_121_159)">
<rect x="120" y="116" width="96" height="96" rx="8" fill="white" fill-opacity="0.75" shape-rendering="crispEdges"/>
</g>
<path d="M150.795 170V161.273H153.932V170H150.795ZM152.364 160.364C151.939 160.364 151.576 160.223 151.273 159.943C150.97 159.663 150.818 159.326 150.818 158.932C150.818 158.538 150.97 158.201 151.273 157.92C151.576 157.64 151.939 157.5 152.364 157.5C152.792 157.5 153.155 157.64 153.455 157.92C153.758 158.201 153.909 158.538 153.909 158.932C153.909 159.326 153.758 159.663 153.455 159.943C153.155 160.223 152.792 160.364 152.364 160.364ZM160.734 161.273V163.545H154.984V161.273H160.734ZM156.098 159.182H159.234V167.193C159.234 167.314 159.255 167.417 159.297 167.5C159.339 167.58 159.403 167.64 159.49 167.682C159.577 167.72 159.689 167.739 159.825 167.739C159.92 167.739 160.03 167.727 160.155 167.705C160.284 167.682 160.378 167.663 160.439 167.648L160.893 169.852C160.753 169.894 160.553 169.945 160.291 170.006C160.034 170.066 159.727 170.106 159.371 170.125C158.651 170.163 158.047 170.089 157.558 169.903C157.07 169.714 156.702 169.417 156.456 169.011C156.21 168.606 156.09 168.098 156.098 167.489V159.182ZM166.102 170.159C165.17 170.159 164.367 169.981 163.693 169.625C163.023 169.265 162.506 168.75 162.142 168.08C161.782 167.405 161.602 166.598 161.602 165.659C161.602 164.758 161.784 163.97 162.148 163.295C162.511 162.621 163.025 162.097 163.688 161.722C164.35 161.347 165.133 161.159 166.034 161.159C166.693 161.159 167.29 161.261 167.824 161.466C168.358 161.67 168.814 161.968 169.193 162.358C169.572 162.744 169.864 163.214 170.068 163.767C170.273 164.32 170.375 164.943 170.375 165.636V166.364H162.58V164.636H167.489C167.485 164.386 167.42 164.167 167.295 163.977C167.174 163.784 167.009 163.634 166.801 163.528C166.597 163.419 166.364 163.364 166.102 163.364C165.848 163.364 165.616 163.419 165.403 163.528C165.191 163.634 165.021 163.782 164.892 163.972C164.767 164.161 164.701 164.383 164.693 164.636V166.5C164.693 166.78 164.752 167.03 164.869 167.25C164.987 167.47 165.155 167.642 165.375 167.767C165.595 167.892 165.86 167.955 166.17 167.955C166.386 167.955 166.583 167.924 166.761 167.864C166.943 167.803 167.098 167.716 167.227 167.602C167.356 167.485 167.451 167.345 167.511 167.182H170.375C170.277 167.788 170.044 168.314 169.676 168.761C169.309 169.205 168.822 169.549 168.216 169.795C167.614 170.038 166.909 170.159 166.102 170.159ZM171.655 170V161.273H174.632V162.932H174.723C174.905 162.386 175.215 161.955 175.655 161.636C176.094 161.318 176.617 161.159 177.223 161.159C177.837 161.159 178.365 161.322 178.808 161.648C179.251 161.97 179.518 162.398 179.609 162.932H179.7C179.848 162.398 180.162 161.97 180.643 161.648C181.125 161.322 181.689 161.159 182.337 161.159C183.174 161.159 183.852 161.428 184.371 161.966C184.893 162.504 185.155 163.22 185.155 164.114V170H182.018V164.909C182.018 164.527 181.922 164.227 181.729 164.011C181.536 163.792 181.276 163.682 180.95 163.682C180.628 163.682 180.373 163.792 180.183 164.011C179.998 164.227 179.905 164.527 179.905 164.909V170H176.905V164.909C176.905 164.527 176.808 164.227 176.615 164.011C176.422 163.792 176.162 163.682 175.837 163.682C175.621 163.682 175.435 163.731 175.28 163.83C175.125 163.928 175.003 164.07 174.916 164.256C174.833 164.437 174.791 164.655 174.791 164.909V170H171.655Z" fill="#181818" fill-opacity="0.75"/>
<g filter="url(#filter6_d_121_159)">
<rect x="120" y="212" width="96" height="96" rx="8" fill="white" fill-opacity="0.75" shape-rendering="crispEdges"/>
</g>
<path d="M150.795 266V257.273H153.932V266H150.795ZM152.364 256.364C151.939 256.364 151.576 256.223 151.273 255.943C150.97 255.663 150.818 255.326 150.818 254.932C150.818 254.538 150.97 254.201 151.273 253.92C151.576 253.64 151.939 253.5 152.364 253.5C152.792 253.5 153.155 253.64 153.455 253.92C153.758 254.201 153.909 254.538 153.909 254.932C153.909 255.326 153.758 255.663 153.455 255.943C153.155 256.223 152.792 256.364 152.364 256.364ZM160.734 257.273V259.545H154.984V257.273H160.734ZM156.098 255.182H159.234V263.193C159.234 263.314 159.255 263.417 159.297 263.5C159.339 263.58 159.403 263.64 159.49 263.682C159.577 263.72 159.689 263.739 159.825 263.739C159.92 263.739 160.03 263.727 160.155 263.705C160.284 263.682 160.378 263.663 160.439 263.648L160.893 265.852C160.753 265.894 160.553 265.945 160.291 266.006C160.034 266.066 159.727 266.106 159.371 266.125C158.651 266.163 158.047 266.089 157.558 265.903C157.07 265.714 156.702 265.417 156.456 265.011C156.21 264.606 156.09 264.098 156.098 263.489V255.182ZM166.102 266.159C165.17 266.159 164.367 265.981 163.693 265.625C163.023 265.265 162.506 264.75 162.142 264.08C161.782 263.405 161.602 262.598 161.602 261.659C161.602 260.758 161.784 259.97 162.148 259.295C162.511 258.621 163.025 258.097 163.688 257.722C164.35 257.347 165.133 257.159 166.034 257.159C166.693 257.159 167.29 257.261 167.824 257.466C168.358 257.67 168.814 257.968 169.193 258.358C169.572 258.744 169.864 259.214 170.068 259.767C170.273 260.32 170.375 260.943 170.375 261.636V262.364H162.58V260.636H167.489C167.485 260.386 167.42 260.167 167.295 259.977C167.174 259.784 167.009 259.634 166.801 259.528C166.597 259.419 166.364 259.364 166.102 259.364C165.848 259.364 165.616 259.419 165.403 259.528C165.191 259.634 165.021 259.782 164.892 259.972C164.767 260.161 164.701 260.383 164.693 260.636V262.5C164.693 262.78 164.752 263.03 164.869 263.25C164.987 263.47 165.155 263.642 165.375 263.767C165.595 263.892 165.86 263.955 166.17 263.955C166.386 263.955 166.583 263.924 166.761 263.864C166.943 263.803 167.098 263.716 167.227 263.602C167.356 263.485 167.451 263.345 167.511 263.182H170.375C170.277 263.788 170.044 264.314 169.676 264.761C169.309 265.205 168.822 265.549 168.216 265.795C167.614 266.038 166.909 266.159 166.102 266.159ZM171.655 266V257.273H174.632V258.932H174.723C174.905 258.386 175.215 257.955 175.655 257.636C176.094 257.318 176.617 257.159 177.223 257.159C177.837 257.159 178.365 257.322 178.808 257.648C179.251 257.97 179.518 258.398 179.609 258.932H179.7C179.848 258.398 180.162 257.97 180.643 257.648C181.125 257.322 181.689 257.159 182.337 257.159C183.174 257.159 183.852 257.428 184.371 257.966C184.893 258.504 185.155 259.22 185.155 260.114V266H182.018V260.909C182.018 260.527 181.922 260.227 181.729 260.011C181.536 259.792 181.276 259.682 180.95 259.682C180.628 259.682 180.373 259.792 180.183 260.011C179.998 260.227 179.905 260.527 179.905 260.909V266H176.905V260.909C176.905 260.527 176.808 260.227 176.615 260.011C176.422 259.792 176.162 259.682 175.837 259.682C175.621 259.682 175.435 259.731 175.28 259.83C175.125 259.928 175.003 260.07 174.916 260.256C174.833 260.437 174.791 260.655 174.791 260.909V266H171.655Z" fill="#181818" fill-opacity="0.75"/>
<g filter="url(#filter7_d_121_159)">
<rect x="216" y="116" width="96" height="96" rx="8" fill="white" fill-opacity="0.75" shape-rendering="crispEdges"/>
</g>
<path d="M246.795 170V161.273H249.932V170H246.795ZM248.364 160.364C247.939 160.364 247.576 160.223 247.273 159.943C246.97 159.663 246.818 159.326 246.818 158.932C246.818 158.538 246.97 158.201 247.273 157.92C247.576 157.64 247.939 157.5 248.364 157.5C248.792 157.5 249.155 157.64 249.455 157.92C249.758 158.201 249.909 158.538 249.909 158.932C249.909 159.326 249.758 159.663 249.455 159.943C249.155 160.223 248.792 160.364 248.364 160.364ZM256.734 161.273V163.545H250.984V161.273H256.734ZM252.098 159.182H255.234V167.193C255.234 167.314 255.255 167.417 255.297 167.5C255.339 167.58 255.403 167.64 255.49 167.682C255.577 167.72 255.689 167.739 255.825 167.739C255.92 167.739 256.03 167.727 256.155 167.705C256.284 167.682 256.378 167.663 256.439 167.648L256.893 169.852C256.753 169.894 256.553 169.945 256.291 170.006C256.034 170.066 255.727 170.106 255.371 170.125C254.651 170.163 254.047 170.089 253.558 169.903C253.07 169.714 252.702 169.417 252.456 169.011C252.21 168.606 252.09 168.098 252.098 167.489V159.182ZM262.102 170.159C261.17 170.159 260.367 169.981 259.693 169.625C259.023 169.265 258.506 168.75 258.142 168.08C257.782 167.405 257.602 166.598 257.602 165.659C257.602 164.758 257.784 163.97 258.148 163.295C258.511 162.621 259.025 162.097 259.688 161.722C260.35 161.347 261.133 161.159 262.034 161.159C262.693 161.159 263.29 161.261 263.824 161.466C264.358 161.67 264.814 161.968 265.193 162.358C265.572 162.744 265.864 163.214 266.068 163.767C266.273 164.32 266.375 164.943 266.375 165.636V166.364H258.58V164.636H263.489C263.485 164.386 263.42 164.167 263.295 163.977C263.174 163.784 263.009 163.634 262.801 163.528C262.597 163.419 262.364 163.364 262.102 163.364C261.848 163.364 261.616 163.419 261.403 163.528C261.191 163.634 261.021 163.782 260.892 163.972C260.767 164.161 260.701 164.383 260.693 164.636V166.5C260.693 166.78 260.752 167.03 260.869 167.25C260.987 167.47 261.155 167.642 261.375 167.767C261.595 167.892 261.86 167.955 262.17 167.955C262.386 167.955 262.583 167.924 262.761 167.864C262.943 167.803 263.098 167.716 263.227 167.602C263.356 167.485 263.451 167.345 263.511 167.182H266.375C266.277 167.788 266.044 168.314 265.676 168.761C265.309 169.205 264.822 169.549 264.216 169.795C263.614 170.038 262.909 170.159 262.102 170.159ZM267.655 170V161.273H270.632V162.932H270.723C270.905 162.386 271.215 161.955 271.655 161.636C272.094 161.318 272.617 161.159 273.223 161.159C273.837 161.159 274.365 161.322 274.808 161.648C275.251 161.97 275.518 162.398 275.609 162.932H275.7C275.848 162.398 276.162 161.97 276.643 161.648C277.125 161.322 277.689 161.159 278.337 161.159C279.174 161.159 279.852 161.428 280.371 161.966C280.893 162.504 281.155 163.22 281.155 164.114V170H278.018V164.909C278.018 164.527 277.922 164.227 277.729 164.011C277.536 163.792 277.276 163.682 276.95 163.682C276.628 163.682 276.373 163.792 276.183 164.011C275.998 164.227 275.905 164.527 275.905 164.909V170H272.905V164.909C272.905 164.527 272.808 164.227 272.615 164.011C272.422 163.792 272.162 163.682 271.837 163.682C271.621 163.682 271.435 163.731 271.28 163.83C271.125 163.928 271.003 164.07 270.916 164.256C270.833 164.437 270.791 164.655 270.791 164.909V170H267.655Z" fill="#181818" fill-opacity="0.75"/>
<g filter="url(#filter8_d_121_159)">
<rect x="216" y="212" width="96" height="96" rx="8" fill="white" fill-opacity="0.75" shape-rendering="crispEdges"/>
</g>
<path d="M246.795 266V257.273H249.932V266H246.795ZM248.364 256.364C247.939 256.364 247.576 256.223 247.273 255.943C246.97 255.663 246.818 255.326 246.818 254.932C246.818 254.538 246.97 254.201 247.273 253.92C247.576 253.64 247.939 253.5 248.364 253.5C248.792 253.5 249.155 253.64 249.455 253.92C249.758 254.201 249.909 254.538 249.909 254.932C249.909 255.326 249.758 255.663 249.455 255.943C249.155 256.223 248.792 256.364 248.364 256.364ZM256.734 257.273V259.545H250.984V257.273H256.734ZM252.098 255.182H255.234V263.193C255.234 263.314 255.255 263.417 255.297 263.5C255.339 263.58 255.403 263.64 255.49 263.682C255.577 263.72 255.689 263.739 255.825 263.739C255.92 263.739 256.03 263.727 256.155 263.705C256.284 263.682 256.378 263.663 256.439 263.648L256.893 265.852C256.753 265.894 256.553 265.945 256.291 266.006C256.034 266.066 255.727 266.106 255.371 266.125C254.651 266.163 254.047 266.089 253.558 265.903C253.07 265.714 252.702 265.417 252.456 265.011C252.21 264.606 252.09 264.098 252.098 263.489V255.182ZM262.102 266.159C261.17 266.159 260.367 265.981 259.693 265.625C259.023 265.265 258.506 264.75 258.142 264.08C257.782 263.405 257.602 262.598 257.602 261.659C257.602 260.758 257.784 259.97 258.148 259.295C258.511 258.621 259.025 258.097 259.688 257.722C260.35 257.347 261.133 257.159 262.034 257.159C262.693 257.159 263.29 257.261 263.824 257.466C264.358 257.67 264.814 257.968 265.193 258.358C265.572 258.744 265.864 259.214 266.068 259.767C266.273 260.32 266.375 260.943 266.375 261.636V262.364H258.58V260.636H263.489C263.485 260.386 263.42 260.167 263.295 259.977C263.174 259.784 263.009 259.634 262.801 259.528C262.597 259.419 262.364 259.364 262.102 259.364C261.848 259.364 261.616 259.419 261.403 259.528C261.191 259.634 261.021 259.782 260.892 259.972C260.767 260.161 260.701 260.383 260.693 260.636V262.5C260.693 262.78 260.752 263.03 260.869 263.25C260.987 263.47 261.155 263.642 261.375 263.767C261.595 263.892 261.86 263.955 262.17 263.955C262.386 263.955 262.583 263.924 262.761 263.864C262.943 263.803 263.098 263.716 263.227 263.602C263.356 263.485 263.451 263.345 263.511 263.182H266.375C266.277 263.788 266.044 264.314 265.676 264.761C265.309 265.205 264.822 265.549 264.216 265.795C263.614 266.038 262.909 266.159 262.102 266.159ZM267.655 266V257.273H270.632V258.932H270.723C270.905 258.386 271.215 257.955 271.655 257.636C272.094 257.318 272.617 257.159 273.223 257.159C273.837 257.159 274.365 257.322 274.808 257.648C275.251 257.97 275.518 258.398 275.609 258.932H275.7C275.848 258.398 276.162 257.97 276.643 257.648C277.125 257.322 277.689 257.159 278.337 257.159C279.174 257.159 279.852 257.428 280.371 257.966C280.893 258.504 281.155 259.22 281.155 260.114V266H278.018V260.909C278.018 260.527 277.922 260.227 277.729 260.011C277.536 259.792 277.276 259.682 276.95 259.682C276.628 259.682 276.373 259.792 276.183 260.011C275.998 260.227 275.905 260.527 275.905 260.909V266H272.905V260.909C272.905 260.527 272.808 260.227 272.615 260.011C272.422 259.792 272.162 259.682 271.837 259.682C271.621 259.682 271.435 259.731 271.28 259.83C271.125 259.928 271.003 260.07 270.916 260.256C270.833 260.437 270.791 260.655 270.791 260.909V266H267.655Z" fill="#181818" fill-opacity="0.75"/>
<g filter="url(#filter9_d_121_159)">
<rect x="408" y="20" width="96" height="192" rx="8" fill="white" fill-opacity="0.75" shape-rendering="crispEdges"/>
</g>
<path d="M432.795 74V65.2727H435.932V74H432.795ZM434.364 64.3636C433.939 64.3636 433.576 64.2235 433.273 63.9432C432.97 63.6629 432.818 63.3258 432.818 62.9318C432.818 62.5379 432.97 62.2008 433.273 61.9205C433.576 61.6402 433.939 61.5 434.364 61.5C434.792 61.5 435.155 61.6402 435.455 61.9205C435.758 62.2008 435.909 62.5379 435.909 62.9318C435.909 63.3258 435.758 63.6629 435.455 63.9432C435.155 64.2235 434.792 64.3636 434.364 64.3636ZM442.734 65.2727V67.5455H436.984V65.2727H442.734ZM438.098 63.1818H441.234V71.1932C441.234 71.3144 441.255 71.4167 441.297 71.5C441.339 71.5795 441.403 71.6402 441.49 71.6818C441.577 71.7197 441.689 71.7386 441.825 71.7386C441.92 71.7386 442.03 71.7273 442.155 71.7045C442.284 71.6818 442.378 71.6629 442.439 71.6477L442.893 73.8523C442.753 73.8939 442.553 73.9451 442.291 74.0057C442.034 74.0663 441.727 74.1061 441.371 74.125C440.651 74.1629 440.047 74.089 439.558 73.9034C439.07 73.714 438.702 73.4167 438.456 73.0114C438.21 72.6061 438.09 72.0985 438.098 71.4886V63.1818ZM448.102 74.1591C447.17 74.1591 446.367 73.9811 445.693 73.625C445.023 73.2652 444.506 72.75 444.142 72.0795C443.782 71.4053 443.602 70.5985 443.602 69.6591C443.602 68.7576 443.784 67.9697 444.148 67.2955C444.511 66.6212 445.025 66.0966 445.688 65.7216C446.35 65.3466 447.133 65.1591 448.034 65.1591C448.693 65.1591 449.29 65.2614 449.824 65.4659C450.358 65.6705 450.814 65.9678 451.193 66.358C451.572 66.7443 451.864 67.214 452.068 67.767C452.273 68.3201 452.375 68.9432 452.375 69.6364V70.3636H444.58V68.6364H449.489C449.485 68.3864 449.42 68.1667 449.295 67.9773C449.174 67.7841 449.009 67.6345 448.801 67.5284C448.597 67.4186 448.364 67.3636 448.102 67.3636C447.848 67.3636 447.616 67.4186 447.403 67.5284C447.191 67.6345 447.021 67.7822 446.892 67.9716C446.767 68.161 446.701 68.3826 446.693 68.6364V70.5C446.693 70.7803 446.752 71.0303 446.869 71.25C446.987 71.4697 447.155 71.642 447.375 71.767C447.595 71.892 447.86 71.9545 448.17 71.9545C448.386 71.9545 448.583 71.9242 448.761 71.8636C448.943 71.803 449.098 71.7159 449.227 71.6023C449.356 71.4848 449.451 71.3447 449.511 71.1818H452.375C452.277 71.7879 452.044 72.3144 451.676 72.7614C451.309 73.2045 450.822 73.5492 450.216 73.7955C449.614 74.0379 448.909 74.1591 448.102 74.1591ZM453.655 74V65.2727H456.632V66.9318H456.723C456.905 66.3864 457.215 65.9545 457.655 65.6364C458.094 65.3182 458.617 65.1591 459.223 65.1591C459.837 65.1591 460.365 65.322 460.808 65.6477C461.251 65.9697 461.518 66.3977 461.609 66.9318H461.7C461.848 66.3977 462.162 65.9697 462.643 65.6477C463.125 65.322 463.689 65.1591 464.337 65.1591C465.174 65.1591 465.852 65.428 466.371 65.9659C466.893 66.5038 467.155 67.2197 467.155 68.1136V74H464.018V68.9091C464.018 68.5265 463.922 68.2273 463.729 68.0114C463.536 67.7917 463.276 67.6818 462.95 67.6818C462.628 67.6818 462.373 67.7917 462.183 68.0114C461.998 68.2273 461.905 68.5265 461.905 68.9091V74H458.905V68.9091C458.905 68.5265 458.808 68.2273 458.615 68.0114C458.422 67.7917 458.162 67.6818 457.837 67.6818C457.621 67.6818 457.435 67.7311 457.28 67.8295C457.125 67.928 457.003 68.0701 456.916 68.2557C456.833 68.4375 456.791 68.6553 456.791 68.9091V74H453.655ZM473.338 74.1591C472.444 74.1591 471.651 74.0019 470.957 73.6875C470.268 73.3693 469.724 72.9318 469.327 72.375C468.933 71.8182 468.732 71.178 468.724 70.4545H471.793C471.804 70.8561 471.959 71.1761 472.259 71.4148C472.562 71.6534 472.921 71.7727 473.338 71.7727C473.66 71.7727 473.944 71.7045 474.19 71.5682C474.437 71.428 474.63 71.2311 474.77 70.9773C474.91 70.7235 474.978 70.428 474.974 70.0909C474.978 69.75 474.91 69.4545 474.77 69.2045C474.63 68.9508 474.437 68.7557 474.19 68.6193C473.944 68.4792 473.66 68.4091 473.338 68.4091C473.005 68.4091 472.696 68.4905 472.412 68.6534C472.132 68.8125 471.925 69.0341 471.793 69.3182L469.02 68.7727L469.474 62.3636H477.293V64.8864H472.065L471.838 67.4545H471.906C472.088 67.1023 472.402 66.8106 472.849 66.5795C473.296 66.3447 473.815 66.2273 474.406 66.2273C475.099 66.2273 475.717 66.3883 476.259 66.7102C476.804 67.0322 477.234 67.4773 477.548 68.0455C477.866 68.6098 478.024 69.2614 478.02 70C478.024 70.8106 477.83 71.5303 477.44 72.1591C477.054 72.7841 476.51 73.2746 475.81 73.6307C475.109 73.983 474.285 74.1591 473.338 74.1591Z" fill="#181818" fill-opacity="0.75"/>
<defs>
<filter id="filter0_d_121_159" x="0" y="0" width="528" height="336" filterUnits="userSpaceOnUse" color-interpolation-filters="sRGB">
<feFlood flood-opacity="0" result="BackgroundImageFix"/>
<feColorMatrix in="SourceAlpha" type="matrix" values="0 0 0 0 0 0 0 0 0 0 0 0 0 0 0 0 0 0 127 0" result="hardAlpha"/>
<feOffset dy="4"/>
<feGaussianBlur stdDeviation="4"/>
<feComposite in2="hardAlpha" operator="out"/>
<feColorMatrix type="matrix" values="0 0 0 0 0.129412 0 0 0 0 0.447059 0 0 0 0 1 0 0 0 0.25 0"/>
<feBlend mode="normal" in2="BackgroundImageFix" result="effect1_dropShadow_121_159"/>
<feBlend mode="normal" in="SourceGraphic" in2="effect1_dropShadow_121_159" result="shape"/>
</filter>
<filter id="filter1_d_121_159" x="16" y="16" width="112" height="208" filterUnits="userSpaceOnUse" color-interpolation-filters="sRGB">
<feFlood flood-opacity="0" result="BackgroundImageFix"/>
<feColorMatrix in="SourceAlpha" type="matrix" values="0 0 0 0 0 0 0 0 0 0 0 0 0 0 0 0 0 0 127 0" result="hardAlpha"/>
<feOffset dy="4"/>
<feGaussianBlur stdDeviation="4"/>
<feComposite in2="hardAlpha" operator="out"/>
<feColorMatrix type="matrix" values="0 0 0 0 1 0 0 0 0 1 0 0 0 0 1 0 0 0 0.25 0"/>
<feBlend mode="normal" in2="BackgroundImageFix" result="effect1_dropShadow_121_159"/>
<feBlend mode="normal" in="SourceGraphic" in2="effect1_dropShadow_121_159" result="shape"/>
</filter>
<filter id="filter2_d_121_159" x="208" y="16" width="112" height="112" filterUnits="userSpaceOnUse" color-interpolation-filters="sRGB">
<feFlood flood-opacity="0" result="BackgroundImageFix"/>
<feColorMatrix in="SourceAlpha" type="matrix" values="0 0 0 0 0 0 0 0 0 0 0 0 0 0 0 0 0 0 127 0" result="hardAlpha"/>
<feOffset dy="4"/>
<feGaussianBlur stdDeviation="4"/>
<feComposite in2="hardAlpha" operator="out"/>
<feColorMatrix type="matrix" values="0 0 0 0 1 0 0 0 0 1 0 0 0 0 1 0 0 0 0.25 0"/>
<feBlend mode="normal" in2="BackgroundImageFix" result="effect1_dropShadow_121_159"/>
<feBlend mode="normal" in="SourceGraphic" in2="effect1_dropShadow_121_159" result="shape"/>
</filter>
<filter id="filter3_d_121_159" x="16" y="208" width="112" height="112" filterUnits="userSpaceOnUse" color-interpolation-filters="sRGB">
<feFlood flood-opacity="0" result="BackgroundImageFix"/>
<feColorMatrix in="SourceAlpha" type="matrix" values="0 0 0 0 0 0 0 0 0 0 0 0 0 0 0 0 0 0 127 0" result="hardAlpha"/>
<feOffset dy="4"/>
<feGaussianBlur stdDeviation="4"/>
<feComposite in2="hardAlpha" operator="out"/>
<feColorMatrix type="matrix" values="0 0 0 0 1 0 0 0 0 1 0 0 0 0 1 0 0 0 0.25 0"/>
<feBlend mode="normal" in2="BackgroundImageFix" result="effect1_dropShadow_121_159"/>
<feBlend mode="normal" in="SourceGraphic" in2="effect1_dropShadow_121_159" result="shape"/>
</filter>
<filter id="filter4_d_121_159" x="112" y="16" width="112" height="112" filterUnits="userSpaceOnUse" color-interpolation-filters="sRGB">
<feFlood flood-opacity="0" result="BackgroundImageFix"/>
<feColorMatrix in="SourceAlpha" type="matrix" values="0 0 0 0 0 0 0 0 0 0 0 0 0 0 0 0 0 0 127 0" result="hardAlpha"/>
<feOffset dy="4"/>
<feGaussianBlur stdDeviation="4"/>
<feComposite in2="hardAlpha" operator="out"/>
<feColorMatrix type="matrix" values="0 0 0 0 1 0 0 0 0 1 0 0 0 0 1 0 0 0 0.25 0"/>
<feBlend mode="normal" in2="BackgroundImageFix" result="effect1_dropShadow_121_159"/>
<feBlend mode="normal" in="SourceGraphic" in2="effect1_dropShadow_121_159" result="shape"/>
</filter>
<filter id="filter5_d_121_159" x="112" y="112" width="112" height="112" filterUnits="userSpaceOnUse" color-interpolation-filters="sRGB">
<feFlood flood-opacity="0" result="BackgroundImageFix"/>
<feColorMatrix in="SourceAlpha" type="matrix" values="0 0 0 0 0 0 0 0 0 0 0 0 0 0 0 0 0 0 127 0" result="hardAlpha"/>
<feOffset dy="4"/>
<feGaussianBlur stdDeviation="4"/>
<feComposite in2="hardAlpha" operator="out"/>
<feColorMatrix type="matrix" values="0 0 0 0 1 0 0 0 0 1 0 0 0 0 1 0 0 0 0.25 0"/>
<feBlend mode="normal" in2="BackgroundImageFix" result="effect1_dropShadow_121_159"/>
<feBlend mode="normal" in="SourceGraphic" in2="effect1_dropShadow_121_159" result="shape"/>
</filter>
<filter id="filter6_d_121_159" x="112" y="208" width="112" height="112" filterUnits="userSpaceOnUse" color-interpolation-filters="sRGB">
<feFlood flood-opacity="0" result="BackgroundImageFix"/>
<feColorMatrix in="SourceAlpha" type="matrix" values="0 0 0 0 0 0 0 0 0 0 0 0 0 0 0 0 0 0 127 0" result="hardAlpha"/>
<feOffset dy="4"/>
<feGaussianBlur stdDeviation="4"/>
<feComposite in2="hardAlpha" operator="out"/>
<feColorMatrix type="matrix" values="0 0 0 0 1 0 0 0 0 1 0 0 0 0 1 0 0 0 0.25 0"/>
<feBlend mode="normal" in2="BackgroundImageFix" result="effect1_dropShadow_121_159"/>
<feBlend mode="normal" in="SourceGraphic" in2="effect1_dropShadow_121_159" result="shape"/>
</filter>
<filter id="filter7_d_121_159" x="208" y="112" width="112" height="112" filterUnits="userSpaceOnUse" color-interpolation-filters="sRGB">
<feFlood flood-opacity="0" result="BackgroundImageFix"/>
<feColorMatrix in="SourceAlpha" type="matrix" values="0 0 0 0 0 0 0 0 0 0 0 0 0 0 0 0 0 0 127 0" result="hardAlpha"/>
<feOffset dy="4"/>
<feGaussianBlur stdDeviation="4"/>
<feComposite in2="hardAlpha" operator="out"/>
<feColorMatrix type="matrix" values="0 0 0 0 1 0 0 0 0 1 0 0 0 0 1 0 0 0 0.25 0"/>
<feBlend mode="normal" in2="BackgroundImageFix" result="effect1_dropShadow_121_159"/>
<feBlend mode="normal" in="SourceGraphic" in2="effect1_dropShadow_121_159" result="shape"/>
</filter>
<filter id="filter8_d_121_159" x="208" y="208" width="112" height="112" filterUnits="userSpaceOnUse" color-interpolation-filters="sRGB">
<feFlood flood-opacity="0" result="BackgroundImageFix"/>
<feColorMatrix in="SourceAlpha" type="matrix" values="0 0 0 0 0 0 0 0 0 0 0 0 0 0 0 0 0 0 127 0" result="hardAlpha"/>
<feOffset dy="4"/>
<feGaussianBlur stdDeviation="4"/>
<feComposite in2="hardAlpha" operator="out"/>
<feColorMatrix type="matrix" values="0 0 0 0 1 0 0 0 0 1 0 0 0 0 1 0 0 0 0.25 0"/>
<feBlend mode="normal" in2="BackgroundImageFix" result="effect1_dropShadow_121_159"/>
<feBlend mode="normal" in="SourceGraphic" in2="effect1_dropShadow_121_159" result="shape"/>
</filter>
<filter id="filter9_d_121_159" x="400" y="16" width="112" height="208" filterUnits="userSpaceOnUse" color-interpolation-filters="sRGB">
<feFlood flood-opacity="0" result="BackgroundImageFix"/>
<feColorMatrix in="SourceAlpha" type="matrix" values="0 0 0 0 0 0 0 0 0 0 0 0 0 0 0 0 0 0 127 0" result="hardAlpha"/>
<feOffset dy="4"/>
<feGaussianBlur stdDeviation="4"/>
<feComposite in2="hardAlpha" operator="out"/>
<feColorMatrix type="matrix" values="0 0 0 0 1 0 0 0 0 1 0 0 0 0 1 0 0 0 0.25 0"/>
<feBlend mode="normal" in2="BackgroundImageFix" result="effect1_dropShadow_121_159"/>
<feBlend mode="normal" in="SourceGraphic" in2="effect1_dropShadow_121_159" result="shape"/>
</filter>
</defs>
</svg>
