<svg width="384" height="384" viewBox="0 0 384 384" fill="none" xmlns="http://www.w3.org/2000/svg">
<g filter="url(#filter0_d_128_685)">
<rect x="8" y="4" width="368" height="368" rx="8" fill="#2172FF" fill-opacity="0.8" shape-rendering="crispEdges"/>
</g>
<g filter="url(#filter1_d_128_685)">
<rect x="24" y="244" width="112" height="112" rx="8" fill="white" fill-opacity="0.75" shape-rendering="crispEdges"/>
</g>
<path d="M58.7727 300.114H55.8864C55.8712 299.936 55.8087 299.782 55.6989 299.653C55.589 299.525 55.447 299.426 55.2727 299.358C55.1023 299.286 54.9129 299.25 54.7045 299.25C54.4356 299.25 54.2045 299.299 54.0114 299.398C53.8182 299.496 53.7235 299.636 53.7273 299.818C53.7235 299.947 53.7784 300.066 53.892 300.176C54.0095 300.286 54.2348 300.371 54.5682 300.432L56.3409 300.75C57.2348 300.913 57.8996 301.187 58.3352 301.574C58.7746 301.956 58.9962 302.47 59 303.114C58.9962 303.735 58.8106 304.275 58.4432 304.733C58.0795 305.187 57.5814 305.54 56.9489 305.79C56.3201 306.036 55.6023 306.159 54.7955 306.159C53.4621 306.159 52.4186 305.886 51.6648 305.341C50.9148 304.795 50.4962 304.076 50.4091 303.182H53.5227C53.5644 303.458 53.7008 303.672 53.9318 303.824C54.1667 303.972 54.4621 304.045 54.8182 304.045C55.1061 304.045 55.3428 303.996 55.5284 303.898C55.7178 303.799 55.8144 303.659 55.8182 303.477C55.8144 303.311 55.7311 303.178 55.5682 303.08C55.4091 302.981 55.1591 302.902 54.8182 302.841L53.2727 302.568C52.3826 302.413 51.7159 302.117 51.2727 301.682C50.8295 301.246 50.6098 300.686 50.6136 300C50.6098 299.394 50.7689 298.881 51.0909 298.46C51.4167 298.036 51.8807 297.714 52.483 297.494C53.089 297.271 53.8068 297.159 54.6364 297.159C55.8977 297.159 56.892 297.42 57.6193 297.943C58.3504 298.466 58.7348 299.189 58.7727 300.114ZM65.4062 297.273V299.545H59.6562V297.273H65.4062ZM60.7699 295.182H63.9062V303.193C63.9062 303.314 63.9271 303.417 63.9688 303.5C64.0104 303.58 64.0748 303.64 64.1619 303.682C64.2491 303.72 64.3608 303.739 64.4972 303.739C64.5919 303.739 64.7017 303.727 64.8267 303.705C64.9555 303.682 65.0502 303.663 65.1108 303.648L65.5653 305.852C65.4252 305.894 65.2244 305.945 64.9631 306.006C64.7055 306.066 64.3987 306.106 64.0426 306.125C63.3229 306.163 62.7188 306.089 62.2301 305.903C61.7415 305.714 61.3741 305.417 61.1278 305.011C60.8816 304.606 60.7623 304.098 60.7699 303.489V295.182ZM66.6861 306V297.273H69.7315V298.932H69.8224C69.9815 298.318 70.2334 297.869 70.5781 297.585C70.9266 297.301 71.3338 297.159 71.7997 297.159C71.9361 297.159 72.0705 297.17 72.2031 297.193C72.3395 297.212 72.4702 297.241 72.5952 297.278V299.955C72.4399 299.902 72.2486 299.862 72.0213 299.835C71.794 299.809 71.599 299.795 71.4361 299.795C71.1293 299.795 70.8527 299.866 70.6065 300.006C70.3641 300.142 70.1728 300.335 70.0327 300.585C69.8925 300.831 69.8224 301.121 69.8224 301.455V306H66.6861ZM77.3054 306.159C76.3736 306.159 75.5705 305.981 74.8963 305.625C74.2259 305.265 73.7088 304.75 73.3452 304.08C72.9853 303.405 72.8054 302.598 72.8054 301.659C72.8054 300.758 72.9872 299.97 73.3509 299.295C73.7145 298.621 74.2277 298.097 74.8906 297.722C75.5535 297.347 76.3357 297.159 77.2372 297.159C77.8963 297.159 78.4929 297.261 79.027 297.466C79.5611 297.67 80.0175 297.968 80.3963 298.358C80.7751 298.744 81.0668 299.214 81.2713 299.767C81.4759 300.32 81.5781 300.943 81.5781 301.636V302.364H73.7827V300.636H78.6918C78.688 300.386 78.6236 300.167 78.4986 299.977C78.3774 299.784 78.2126 299.634 78.0043 299.528C77.7997 299.419 77.5668 299.364 77.3054 299.364C77.0516 299.364 76.8187 299.419 76.6065 299.528C76.3944 299.634 76.224 299.782 76.0952 299.972C75.9702 300.161 75.9039 300.383 75.8963 300.636V302.5C75.8963 302.78 75.955 303.03 76.0724 303.25C76.1899 303.47 76.3584 303.642 76.5781 303.767C76.7978 303.892 77.063 303.955 77.3736 303.955C77.5895 303.955 77.7865 303.924 77.9645 303.864C78.1463 303.803 78.3016 303.716 78.4304 303.602C78.5592 303.485 78.6539 303.345 78.7145 303.182H81.5781C81.4796 303.788 81.2467 304.314 80.8793 304.761C80.5118 305.205 80.0251 305.549 79.419 305.795C78.8168 306.038 78.1122 306.159 77.3054 306.159ZM88.0625 297.273V299.545H82.3125V297.273H88.0625ZM83.4261 295.182H86.5625V303.193C86.5625 303.314 86.5833 303.417 86.625 303.5C86.6667 303.58 86.7311 303.64 86.8182 303.682C86.9053 303.72 87.017 303.739 87.1534 303.739C87.2481 303.739 87.358 303.727 87.483 303.705C87.6117 303.682 87.7064 303.663 87.767 303.648L88.2216 305.852C88.0814 305.894 87.8807 305.945 87.6193 306.006C87.3617 306.066 87.0549 306.106 86.6989 306.125C85.9792 306.163 85.375 306.089 84.8864 305.903C84.3977 305.714 84.0303 305.417 83.7841 305.011C83.5379 304.606 83.4186 304.098 83.4261 303.489V295.182ZM93.4531 306.159C92.5062 306.159 91.6955 305.972 91.0213 305.597C90.3471 305.218 89.83 304.691 89.4702 304.017C89.1103 303.339 88.9304 302.553 88.9304 301.659C88.9304 300.765 89.1103 299.981 89.4702 299.307C89.83 298.629 90.3471 298.102 91.0213 297.727C91.6955 297.348 92.5062 297.159 93.4531 297.159C94.3092 297.159 95.0497 297.314 95.6747 297.625C96.3035 297.932 96.7902 298.367 97.1349 298.932C97.4796 299.492 97.6539 300.152 97.6577 300.909H94.7486C94.7069 300.451 94.5743 300.102 94.3509 299.864C94.1312 299.621 93.8471 299.5 93.4986 299.5C93.2259 299.5 92.9872 299.58 92.7827 299.739C92.5781 299.894 92.419 300.131 92.3054 300.449C92.1918 300.763 92.1349 301.159 92.1349 301.636C92.1349 302.114 92.1918 302.511 92.3054 302.83C92.419 303.144 92.5781 303.381 92.7827 303.54C92.9872 303.695 93.2259 303.773 93.4986 303.773C93.7296 303.773 93.9342 303.72 94.1122 303.614C94.2902 303.504 94.4342 303.345 94.544 303.136C94.6577 302.924 94.7259 302.667 94.7486 302.364H97.6577C97.6463 303.133 97.4702 303.803 97.1293 304.375C96.7884 304.943 96.3054 305.383 95.6804 305.693C95.0592 306.004 94.3168 306.159 93.4531 306.159ZM102.088 301.091V306H98.9517V294.364H101.974V298.932H102.065C102.262 298.375 102.59 297.941 103.048 297.631C103.507 297.316 104.058 297.159 104.702 297.159C105.319 297.159 105.855 297.299 106.31 297.58C106.768 297.86 107.122 298.246 107.372 298.739C107.626 299.231 107.751 299.795 107.747 300.432V306H104.611V301.091C104.615 300.659 104.507 300.32 104.287 300.074C104.071 299.828 103.762 299.705 103.361 299.705C103.107 299.705 102.884 299.761 102.69 299.875C102.501 299.985 102.353 300.144 102.247 300.352C102.145 300.557 102.092 300.803 102.088 301.091Z" fill="#181818" fill-opacity="0.75"/>
<g filter="url(#filter2_d_128_685)">
<rect x="24" y="20" width="112" height="72" rx="8" fill="white" fill-opacity="0.75" shape-rendering="crispEdges"/>
</g>
<path d="M70.7727 56.1136H67.8864C67.8712 55.9356 67.8087 55.7822 67.6989 55.6534C67.589 55.5246 67.447 55.4261 67.2727 55.358C67.1023 55.286 66.9129 55.25 66.7045 55.25C66.4356 55.25 66.2045 55.2992 66.0114 55.3977C65.8182 55.4962 65.7235 55.6364 65.7273 55.8182C65.7235 55.947 65.7784 56.0663 65.892 56.1761C66.0095 56.286 66.2348 56.3712 66.5682 56.4318L68.3409 56.75C69.2348 56.9129 69.8996 57.1875 70.3352 57.5739C70.7746 57.9564 70.9962 58.4697 71 59.1136C70.9962 59.7348 70.8106 60.2746 70.4432 60.733C70.0795 61.1875 69.5814 61.5398 68.9489 61.7898C68.3201 62.036 67.6023 62.1591 66.7955 62.1591C65.4621 62.1591 64.4186 61.8864 63.6648 61.3409C62.9148 60.7955 62.4962 60.0758 62.4091 59.1818H65.5227C65.5644 59.4583 65.7008 59.6723 65.9318 59.8239C66.1667 59.9716 66.4621 60.0455 66.8182 60.0455C67.1061 60.0455 67.3428 59.9962 67.5284 59.8977C67.7178 59.7992 67.8144 59.6591 67.8182 59.4773C67.8144 59.3106 67.7311 59.178 67.5682 59.0795C67.4091 58.9811 67.1591 58.9015 66.8182 58.8409L65.2727 58.5682C64.3826 58.4129 63.7159 58.1174 63.2727 57.6818C62.8295 57.2462 62.6098 56.6856 62.6136 56C62.6098 55.3939 62.7689 54.8807 63.0909 54.4602C63.4167 54.036 63.8807 53.714 64.483 53.4943C65.089 53.2708 65.8068 53.1591 66.6364 53.1591C67.8977 53.1591 68.892 53.4205 69.6193 53.9432C70.3504 54.4659 70.7348 55.1894 70.7727 56.1136ZM77.4062 53.2727V55.5455H71.6562V53.2727H77.4062ZM72.7699 51.1818H75.9062V59.1932C75.9062 59.3144 75.9271 59.4167 75.9688 59.5C76.0104 59.5795 76.0748 59.6402 76.1619 59.6818C76.2491 59.7197 76.3608 59.7386 76.4972 59.7386C76.5919 59.7386 76.7017 59.7273 76.8267 59.7045C76.9555 59.6818 77.0502 59.6629 77.1108 59.6477L77.5653 61.8523C77.4252 61.8939 77.2244 61.9451 76.9631 62.0057C76.7055 62.0663 76.3987 62.1061 76.0426 62.125C75.3229 62.1629 74.7188 62.089 74.2301 61.9034C73.7415 61.714 73.3741 61.4167 73.1278 61.0114C72.8816 60.6061 72.7623 60.0985 72.7699 59.4886V51.1818ZM81.1179 62.1364C80.5611 62.1364 80.0687 62.0455 79.6406 61.8636C79.2164 61.678 78.883 61.3977 78.6406 61.0227C78.3982 60.6477 78.277 60.1705 78.277 59.5909C78.277 59.1136 78.3584 58.7064 78.5213 58.3693C78.6842 58.0284 78.9115 57.75 79.2031 57.5341C79.4948 57.3182 79.8338 57.1534 80.2202 57.0398C80.6103 56.9261 81.0308 56.8523 81.4815 56.8182C81.9702 56.7803 82.3622 56.7348 82.6577 56.6818C82.9569 56.625 83.1728 56.5473 83.3054 56.4489C83.438 56.3466 83.5043 56.2121 83.5043 56.0455V56.0227C83.5043 55.7955 83.4171 55.6212 83.2429 55.5C83.0687 55.3788 82.8452 55.3182 82.5724 55.3182C82.2732 55.3182 82.0289 55.3845 81.8395 55.517C81.6539 55.6458 81.5421 55.8447 81.5043 56.1136H78.6179C78.6558 55.5833 78.8243 55.0947 79.1236 54.6477C79.4266 54.197 79.8679 53.8371 80.4474 53.5682C81.027 53.2955 81.7505 53.1591 82.6179 53.1591C83.2429 53.1591 83.8035 53.233 84.2997 53.3807C84.7959 53.5246 85.2183 53.7273 85.5668 53.9886C85.9152 54.2462 86.1804 54.5492 86.3622 54.8977C86.5478 55.2424 86.6406 55.6174 86.6406 56.0227V62H83.7088V60.7727H83.6406C83.4664 61.0985 83.2543 61.3617 83.0043 61.5625C82.758 61.7633 82.4759 61.9091 82.1577 62C81.8433 62.0909 81.4967 62.1364 81.1179 62.1364ZM82.1406 60.1591C82.3793 60.1591 82.6027 60.1098 82.8111 60.0114C83.0232 59.9129 83.1955 59.7708 83.3281 59.5852C83.4607 59.3996 83.527 59.1742 83.527 58.9091V58.1818C83.4437 58.2159 83.3546 58.2481 83.2599 58.2784C83.169 58.3087 83.0705 58.3371 82.9645 58.3636C82.8622 58.3902 82.7524 58.4148 82.6349 58.4375C82.5213 58.4602 82.402 58.4811 82.277 58.5C82.0346 58.5379 81.8357 58.6004 81.6804 58.6875C81.5289 58.7708 81.4152 58.875 81.3395 59C81.2675 59.1212 81.2315 59.2576 81.2315 59.4091C81.2315 59.6515 81.3168 59.8371 81.4872 59.9659C81.6577 60.0947 81.8755 60.1591 82.1406 60.1591ZM88.1392 62V53.2727H91.1847V54.9318H91.2756C91.4347 54.3182 91.6866 53.8693 92.0312 53.5852C92.3797 53.3011 92.7869 53.1591 93.2528 53.1591C93.3892 53.1591 93.5237 53.1705 93.6562 53.1932C93.7926 53.2121 93.9233 53.2405 94.0483 53.2784V55.9545C93.893 55.9015 93.7017 55.8617 93.4744 55.8352C93.2472 55.8087 93.0521 55.7955 92.8892 55.7955C92.5824 55.7955 92.3059 55.8655 92.0597 56.0057C91.8172 56.142 91.6259 56.3352 91.4858 56.5852C91.3456 56.8314 91.2756 57.1212 91.2756 57.4545V62H88.1392ZM100.641 53.2727V55.5455H94.8906V53.2727H100.641ZM96.0043 51.1818H99.1406V59.1932C99.1406 59.3144 99.1615 59.4167 99.2031 59.5C99.2448 59.5795 99.3092 59.6402 99.3963 59.6818C99.4834 59.7197 99.5952 59.7386 99.7315 59.7386C99.8262 59.7386 99.9361 59.7273 100.061 59.7045C100.19 59.6818 100.285 59.6629 100.345 59.6477L100.8 61.8523C100.66 61.8939 100.459 61.9451 100.197 62.0057C99.9399 62.0663 99.633 62.1061 99.277 62.125C98.5573 62.1629 97.9531 62.089 97.4645 61.9034C96.9759 61.714 96.6084 61.4167 96.3622 61.0114C96.116 60.6061 95.9967 60.0985 96.0043 59.4886V51.1818Z" fill="#181818" fill-opacity="0.75"/>
<g filter="url(#filter3_d_128_685)">
<rect x="248" y="60" width="112" height="72" rx="8" fill="white" fill-opacity="0.75" shape-rendering="crispEdges"/>
</g>
<path d="M292.977 102.159C292.045 102.159 291.242 101.981 290.568 101.625C289.898 101.265 289.381 100.75 289.017 100.08C288.657 99.4053 288.477 98.5985 288.477 97.6591C288.477 96.7576 288.659 95.9697 289.023 95.2955C289.386 94.6212 289.9 94.0966 290.562 93.7216C291.225 93.3466 292.008 93.1591 292.909 93.1591C293.568 93.1591 294.165 93.2614 294.699 93.4659C295.233 93.6705 295.689 93.9678 296.068 94.358C296.447 94.7443 296.739 95.214 296.943 95.767C297.148 96.3201 297.25 96.9432 297.25 97.6364V98.3636H289.455V96.6364H294.364C294.36 96.3864 294.295 96.1667 294.17 95.9773C294.049 95.7841 293.884 95.6345 293.676 95.5284C293.472 95.4186 293.239 95.3636 292.977 95.3636C292.723 95.3636 292.491 95.4186 292.278 95.5284C292.066 95.6345 291.896 95.7822 291.767 95.9716C291.642 96.161 291.576 96.3826 291.568 96.6364V98.5C291.568 98.7803 291.627 99.0303 291.744 99.25C291.862 99.4697 292.03 99.642 292.25 99.767C292.47 99.892 292.735 99.9545 293.045 99.9545C293.261 99.9545 293.458 99.9242 293.636 99.8636C293.818 99.803 293.973 99.7159 294.102 99.6023C294.231 99.4848 294.326 99.3447 294.386 99.1818H297.25C297.152 99.7879 296.919 100.314 296.551 100.761C296.184 101.205 295.697 101.549 295.091 101.795C294.489 102.038 293.784 102.159 292.977 102.159ZM301.666 97.0909V102H298.53V93.2727H301.507V94.9318H301.598C301.787 94.3788 302.121 93.9451 302.598 93.6307C303.079 93.3163 303.64 93.1591 304.28 93.1591C304.897 93.1591 305.433 93.3011 305.888 93.5852C306.346 93.8655 306.7 94.2519 306.95 94.7443C307.204 95.2367 307.329 95.7992 307.325 96.4318V102H304.189V97.0909C304.193 96.6591 304.083 96.3201 303.859 96.0739C303.64 95.8277 303.333 95.7045 302.939 95.7045C302.681 95.7045 302.456 95.7614 302.263 95.875C302.073 95.9848 301.928 96.1439 301.825 96.3523C301.723 96.5568 301.67 96.803 301.666 97.0909ZM312.033 102.114C311.411 102.114 310.839 101.951 310.317 101.625C309.798 101.299 309.381 100.805 309.067 100.142C308.756 99.4792 308.601 98.6439 308.601 97.6364C308.601 96.5833 308.764 95.7273 309.089 95.0682C309.419 94.4091 309.843 93.9261 310.362 93.6193C310.885 93.3125 311.434 93.1591 312.01 93.1591C312.442 93.1591 312.821 93.2348 313.146 93.3864C313.472 93.5341 313.745 93.733 313.964 93.983C314.184 94.2292 314.351 94.5 314.464 94.7955H314.51V90.3636H317.646V102H314.533V100.568H314.464C314.343 100.864 314.169 101.129 313.942 101.364C313.718 101.595 313.446 101.778 313.124 101.915C312.805 102.047 312.442 102.114 312.033 102.114ZM313.192 99.7045C313.48 99.7045 313.726 99.6212 313.93 99.4545C314.139 99.2841 314.298 99.0455 314.408 98.7386C314.521 98.428 314.578 98.0606 314.578 97.6364C314.578 97.2045 314.521 96.8352 314.408 96.5284C314.298 96.2178 314.139 95.9811 313.93 95.8182C313.726 95.6515 313.48 95.5682 313.192 95.5682C312.904 95.5682 312.658 95.6515 312.453 95.8182C312.252 95.9811 312.097 96.2178 311.987 96.5284C311.881 96.8352 311.828 97.2045 311.828 97.6364C311.828 98.0682 311.881 98.4394 311.987 98.75C312.097 99.0568 312.252 99.2936 312.453 99.4602C312.658 99.6231 312.904 99.7045 313.192 99.7045Z" fill="#181818" fill-opacity="0.75"/>
<g filter="url(#filter4_d_128_685)">
<rect x="136" y="152" width="112" height="72" rx="8" fill="white" fill-opacity="0.75" shape-rendering="crispEdges"/>
</g>
<path d="M170 194.159C169.053 194.159 168.242 193.972 167.568 193.597C166.894 193.218 166.377 192.691 166.017 192.017C165.657 191.339 165.477 190.553 165.477 189.659C165.477 188.765 165.657 187.981 166.017 187.307C166.377 186.629 166.894 186.102 167.568 185.727C168.242 185.348 169.053 185.159 170 185.159C170.856 185.159 171.597 185.314 172.222 185.625C172.85 185.932 173.337 186.367 173.682 186.932C174.027 187.492 174.201 188.152 174.205 188.909H171.295C171.254 188.451 171.121 188.102 170.898 187.864C170.678 187.621 170.394 187.5 170.045 187.5C169.773 187.5 169.534 187.58 169.33 187.739C169.125 187.894 168.966 188.131 168.852 188.449C168.739 188.763 168.682 189.159 168.682 189.636C168.682 190.114 168.739 190.511 168.852 190.83C168.966 191.144 169.125 191.381 169.33 191.54C169.534 191.695 169.773 191.773 170.045 191.773C170.277 191.773 170.481 191.72 170.659 191.614C170.837 191.504 170.981 191.345 171.091 191.136C171.205 190.924 171.273 190.667 171.295 190.364H174.205C174.193 191.133 174.017 191.803 173.676 192.375C173.335 192.943 172.852 193.383 172.227 193.693C171.606 194.004 170.864 194.159 170 194.159ZM179.68 194.159C178.749 194.159 177.946 193.981 177.271 193.625C176.601 193.265 176.084 192.75 175.72 192.08C175.36 191.405 175.18 190.598 175.18 189.659C175.18 188.758 175.362 187.97 175.726 187.295C176.089 186.621 176.603 186.097 177.266 185.722C177.929 185.347 178.711 185.159 179.612 185.159C180.271 185.159 180.868 185.261 181.402 185.466C181.936 185.67 182.393 185.968 182.771 186.358C183.15 186.744 183.442 187.214 183.646 187.767C183.851 188.32 183.953 188.943 183.953 189.636V190.364H176.158V188.636H181.067C181.063 188.386 180.999 188.167 180.874 187.977C180.752 187.784 180.588 187.634 180.379 187.528C180.175 187.419 179.942 187.364 179.68 187.364C179.427 187.364 179.194 187.419 178.982 187.528C178.769 187.634 178.599 187.782 178.47 187.972C178.345 188.161 178.279 188.383 178.271 188.636V190.5C178.271 190.78 178.33 191.03 178.447 191.25C178.565 191.47 178.733 191.642 178.953 191.767C179.173 191.892 179.438 191.955 179.749 191.955C179.964 191.955 180.161 191.924 180.339 191.864C180.521 191.803 180.677 191.716 180.805 191.602C180.934 191.485 181.029 191.345 181.089 191.182H183.953C183.855 191.788 183.622 192.314 183.254 192.761C182.887 193.205 182.4 193.549 181.794 193.795C181.192 194.038 180.487 194.159 179.68 194.159ZM188.369 189.091V194H185.233V185.273H188.21V186.932H188.301C188.491 186.379 188.824 185.945 189.301 185.631C189.782 185.316 190.343 185.159 190.983 185.159C191.6 185.159 192.136 185.301 192.591 185.585C193.049 185.866 193.403 186.252 193.653 186.744C193.907 187.237 194.032 187.799 194.028 188.432V194H190.892V189.091C190.896 188.659 190.786 188.32 190.562 188.074C190.343 187.828 190.036 187.705 189.642 187.705C189.384 187.705 189.159 187.761 188.966 187.875C188.777 187.985 188.631 188.144 188.528 188.352C188.426 188.557 188.373 188.803 188.369 189.091ZM200.781 185.273V187.545H195.031V185.273H200.781ZM196.145 183.182H199.281V191.193C199.281 191.314 199.302 191.417 199.344 191.5C199.385 191.58 199.45 191.64 199.537 191.682C199.624 191.72 199.736 191.739 199.872 191.739C199.967 191.739 200.077 191.727 200.202 191.705C200.33 191.682 200.425 191.663 200.486 191.648L200.94 193.852C200.8 193.894 200.599 193.945 200.338 194.006C200.08 194.066 199.774 194.106 199.418 194.125C198.698 194.163 198.094 194.089 197.605 193.903C197.116 193.714 196.749 193.417 196.503 193.011C196.257 192.606 196.137 192.098 196.145 191.489V183.182ZM206.149 194.159C205.217 194.159 204.414 193.981 203.74 193.625C203.07 193.265 202.553 192.75 202.189 192.08C201.829 191.405 201.649 190.598 201.649 189.659C201.649 188.758 201.831 187.97 202.195 187.295C202.558 186.621 203.071 186.097 203.734 185.722C204.397 185.347 205.179 185.159 206.081 185.159C206.74 185.159 207.337 185.261 207.871 185.466C208.405 185.67 208.861 185.968 209.24 186.358C209.619 186.744 209.911 187.214 210.115 187.767C210.32 188.32 210.422 188.943 210.422 189.636V190.364H202.626V188.636H207.536C207.532 188.386 207.467 188.167 207.342 187.977C207.221 187.784 207.056 187.634 206.848 187.528C206.643 187.419 206.411 187.364 206.149 187.364C205.895 187.364 205.662 187.419 205.45 187.528C205.238 187.634 205.068 187.782 204.939 187.972C204.814 188.161 204.748 188.383 204.74 188.636V190.5C204.74 190.78 204.799 191.03 204.916 191.25C205.034 191.47 205.202 191.642 205.422 191.767C205.642 191.892 205.907 191.955 206.217 191.955C206.433 191.955 206.63 191.924 206.808 191.864C206.99 191.803 207.145 191.716 207.274 191.602C207.403 191.485 207.498 191.345 207.558 191.182H210.422C210.323 191.788 210.09 192.314 209.723 192.761C209.356 193.205 208.869 193.549 208.263 193.795C207.661 194.038 206.956 194.159 206.149 194.159ZM211.702 194V185.273H214.747V186.932H214.838C214.997 186.318 215.249 185.869 215.594 185.585C215.942 185.301 216.349 185.159 216.815 185.159C216.952 185.159 217.086 185.17 217.219 185.193C217.355 185.212 217.486 185.241 217.611 185.278V187.955C217.455 187.902 217.264 187.862 217.037 187.835C216.81 187.809 216.615 187.795 216.452 187.795C216.145 187.795 215.868 187.866 215.622 188.006C215.38 188.142 215.188 188.335 215.048 188.585C214.908 188.831 214.838 189.121 214.838 189.455V194H211.702Z" fill="#181818" fill-opacity="0.75"/>
<g filter="url(#filter5_d_128_685)">
<rect x="248" y="244" width="112" height="112" rx="8" fill="white" fill-opacity="0.75" shape-rendering="crispEdges"/>
</g>
<path d="M282.773 300.114H279.886C279.871 299.936 279.809 299.782 279.699 299.653C279.589 299.525 279.447 299.426 279.273 299.358C279.102 299.286 278.913 299.25 278.705 299.25C278.436 299.25 278.205 299.299 278.011 299.398C277.818 299.496 277.723 299.636 277.727 299.818C277.723 299.947 277.778 300.066 277.892 300.176C278.009 300.286 278.235 300.371 278.568 300.432L280.341 300.75C281.235 300.913 281.9 301.187 282.335 301.574C282.775 301.956 282.996 302.47 283 303.114C282.996 303.735 282.811 304.275 282.443 304.733C282.08 305.187 281.581 305.54 280.949 305.79C280.32 306.036 279.602 306.159 278.795 306.159C277.462 306.159 276.419 305.886 275.665 305.341C274.915 304.795 274.496 304.076 274.409 303.182H277.523C277.564 303.458 277.701 303.672 277.932 303.824C278.167 303.972 278.462 304.045 278.818 304.045C279.106 304.045 279.343 303.996 279.528 303.898C279.718 303.799 279.814 303.659 279.818 303.477C279.814 303.311 279.731 303.178 279.568 303.08C279.409 302.981 279.159 302.902 278.818 302.841L277.273 302.568C276.383 302.413 275.716 302.117 275.273 301.682C274.83 301.246 274.61 300.686 274.614 300C274.61 299.394 274.769 298.881 275.091 298.46C275.417 298.036 275.881 297.714 276.483 297.494C277.089 297.271 277.807 297.159 278.636 297.159C279.898 297.159 280.892 297.42 281.619 297.943C282.35 298.466 282.735 299.189 282.773 300.114ZM289.406 297.273V299.545H283.656V297.273H289.406ZM284.77 295.182H287.906V303.193C287.906 303.314 287.927 303.417 287.969 303.5C288.01 303.58 288.075 303.64 288.162 303.682C288.249 303.72 288.361 303.739 288.497 303.739C288.592 303.739 288.702 303.727 288.827 303.705C288.955 303.682 289.05 303.663 289.111 303.648L289.565 305.852C289.425 305.894 289.224 305.945 288.963 306.006C288.705 306.066 288.399 306.106 288.043 306.125C287.323 306.163 286.719 306.089 286.23 305.903C285.741 305.714 285.374 305.417 285.128 305.011C284.882 304.606 284.762 304.098 284.77 303.489V295.182ZM290.686 306V297.273H293.732V298.932H293.822C293.982 298.318 294.233 297.869 294.578 297.585C294.927 297.301 295.334 297.159 295.8 297.159C295.936 297.159 296.071 297.17 296.203 297.193C296.339 297.212 296.47 297.241 296.595 297.278V299.955C296.44 299.902 296.249 299.862 296.021 299.835C295.794 299.809 295.599 299.795 295.436 299.795C295.129 299.795 294.853 299.866 294.607 300.006C294.364 300.142 294.173 300.335 294.033 300.585C293.893 300.831 293.822 301.121 293.822 301.455V306H290.686ZM301.305 306.159C300.374 306.159 299.571 305.981 298.896 305.625C298.226 305.265 297.709 304.75 297.345 304.08C296.985 303.405 296.805 302.598 296.805 301.659C296.805 300.758 296.987 299.97 297.351 299.295C297.714 298.621 298.228 298.097 298.891 297.722C299.554 297.347 300.336 297.159 301.237 297.159C301.896 297.159 302.493 297.261 303.027 297.466C303.561 297.67 304.018 297.968 304.396 298.358C304.775 298.744 305.067 299.214 305.271 299.767C305.476 300.32 305.578 300.943 305.578 301.636V302.364H297.783V300.636H302.692C302.688 300.386 302.624 300.167 302.499 299.977C302.377 299.784 302.213 299.634 302.004 299.528C301.8 299.419 301.567 299.364 301.305 299.364C301.052 299.364 300.819 299.419 300.607 299.528C300.394 299.634 300.224 299.782 300.095 299.972C299.97 300.161 299.904 300.383 299.896 300.636V302.5C299.896 302.78 299.955 303.03 300.072 303.25C300.19 303.47 300.358 303.642 300.578 303.767C300.798 303.892 301.063 303.955 301.374 303.955C301.589 303.955 301.786 303.924 301.964 303.864C302.146 303.803 302.302 303.716 302.43 303.602C302.559 303.485 302.654 303.345 302.714 303.182H305.578C305.48 303.788 305.247 304.314 304.879 304.761C304.512 305.205 304.025 305.549 303.419 305.795C302.817 306.038 302.112 306.159 301.305 306.159ZM312.062 297.273V299.545H306.312V297.273H312.062ZM307.426 295.182H310.562V303.193C310.562 303.314 310.583 303.417 310.625 303.5C310.667 303.58 310.731 303.64 310.818 303.682C310.905 303.72 311.017 303.739 311.153 303.739C311.248 303.739 311.358 303.727 311.483 303.705C311.612 303.682 311.706 303.663 311.767 303.648L312.222 305.852C312.081 305.894 311.881 305.945 311.619 306.006C311.362 306.066 311.055 306.106 310.699 306.125C309.979 306.163 309.375 306.089 308.886 305.903C308.398 305.714 308.03 305.417 307.784 305.011C307.538 304.606 307.419 304.098 307.426 303.489V295.182ZM317.453 306.159C316.506 306.159 315.696 305.972 315.021 305.597C314.347 305.218 313.83 304.691 313.47 304.017C313.11 303.339 312.93 302.553 312.93 301.659C312.93 300.765 313.11 299.981 313.47 299.307C313.83 298.629 314.347 298.102 315.021 297.727C315.696 297.348 316.506 297.159 317.453 297.159C318.309 297.159 319.05 297.314 319.675 297.625C320.304 297.932 320.79 298.367 321.135 298.932C321.48 299.492 321.654 300.152 321.658 300.909H318.749C318.707 300.451 318.574 300.102 318.351 299.864C318.131 299.621 317.847 299.5 317.499 299.5C317.226 299.5 316.987 299.58 316.783 299.739C316.578 299.894 316.419 300.131 316.305 300.449C316.192 300.763 316.135 301.159 316.135 301.636C316.135 302.114 316.192 302.511 316.305 302.83C316.419 303.144 316.578 303.381 316.783 303.54C316.987 303.695 317.226 303.773 317.499 303.773C317.73 303.773 317.934 303.72 318.112 303.614C318.29 303.504 318.434 303.345 318.544 303.136C318.658 302.924 318.726 302.667 318.749 302.364H321.658C321.646 303.133 321.47 303.803 321.129 304.375C320.788 304.943 320.305 305.383 319.68 305.693C319.059 306.004 318.317 306.159 317.453 306.159ZM326.088 301.091V306H322.952V294.364H325.974V298.932H326.065C326.262 298.375 326.59 297.941 327.048 297.631C327.507 297.316 328.058 297.159 328.702 297.159C329.319 297.159 329.855 297.299 330.31 297.58C330.768 297.86 331.122 298.246 331.372 298.739C331.626 299.231 331.751 299.795 331.747 300.432V306H328.611V301.091C328.615 300.659 328.507 300.32 328.287 300.074C328.071 299.828 327.762 299.705 327.361 299.705C327.107 299.705 326.884 299.761 326.69 299.875C326.501 299.985 326.353 300.144 326.247 300.352C326.145 300.557 326.092 300.803 326.088 301.091Z" fill="#181818" fill-opacity="0.75"/>
<defs>
<filter id="filter0_d_128_685" x="0" y="0" width="384" height="384" filterUnits="userSpaceOnUse" color-interpolation-filters="sRGB">
<feFlood flood-opacity="0" result="BackgroundImageFix"/>
<feColorMatrix in="SourceAlpha" type="matrix" values="0 0 0 0 0 0 0 0 0 0 0 0 0 0 0 0 0 0 127 0" result="hardAlpha"/>
<feOffset dy="4"/>
<feGaussianBlur stdDeviation="4"/>
<feComposite in2="hardAlpha" operator="out"/>
<feColorMatrix type="matrix" values="0 0 0 0 0.129412 0 0 0 0 0.447059 0 0 0 0 1 0 0 0 0.25 0"/>
<feBlend mode="normal" in2="BackgroundImageFix" result="effect1_dropShadow_128_685"/>
<feBlend mode="normal" in="SourceGraphic" in2="effect1_dropShadow_128_685" result="shape"/>
</filter>
<filter id="filter1_d_128_685" x="16" y="240" width="128" height="128" filterUnits="userSpaceOnUse" color-interpolation-filters="sRGB">
<feFlood flood-opacity="0" result="BackgroundImageFix"/>
<feColorMatrix in="SourceAlpha" type="matrix" values="0 0 0 0 0 0 0 0 0 0 0 0 0 0 0 0 0 0 127 0" result="hardAlpha"/>
<feOffset dy="4"/>
<feGaussianBlur stdDeviation="4"/>
<feComposite in2="hardAlpha" operator="out"/>
<feColorMatrix type="matrix" values="0 0 0 0 1 0 0 0 0 1 0 0 0 0 1 0 0 0 0.25 0"/>
<feBlend mode="normal" in2="BackgroundImageFix" result="effect1_dropShadow_128_685"/>
<feBlend mode="normal" in="SourceGraphic" in2="effect1_dropShadow_128_685" result="shape"/>
</filter>
<filter id="filter2_d_128_685" x="16" y="16" width="128" height="88" filterUnits="userSpaceOnUse" color-interpolation-filters="sRGB">
<feFlood flood-opacity="0" result="BackgroundImageFix"/>
<feColorMatrix in="SourceAlpha" type="matrix" values="0 0 0 0 0 0 0 0 0 0 0 0 0 0 0 0 0 0 127 0" result="hardAlpha"/>
<feOffset dy="4"/>
<feGaussianBlur stdDeviation="4"/>
<feComposite in2="hardAlpha" operator="out"/>
<feColorMatrix type="matrix" values="0 0 0 0 1 0 0 0 0 1 0 0 0 0 1 0 0 0 0.25 0"/>
<feBlend mode="normal" in2="BackgroundImageFix" result="effect1_dropShadow_128_685"/>
<feBlend mode="normal" in="SourceGraphic" in2="effect1_dropShadow_128_685" result="shape"/>
</filter>
<filter id="filter3_d_128_685" x="240" y="56" width="128" height="88" filterUnits="userSpaceOnUse" color-interpolation-filters="sRGB">
<feFlood flood-opacity="0" result="BackgroundImageFix"/>
<feColorMatrix in="SourceAlpha" type="matrix" values="0 0 0 0 0 0 0 0 0 0 0 0 0 0 0 0 0 0 127 0" result="hardAlpha"/>
<feOffset dy="4"/>
<feGaussianBlur stdDeviation="4"/>
<feComposite in2="hardAlpha" operator="out"/>
<feColorMatrix type="matrix" values="0 0 0 0 1 0 0 0 0 1 0 0 0 0 1 0 0 0 0.25 0"/>
<feBlend mode="normal" in2="BackgroundImageFix" result="effect1_dropShadow_128_685"/>
<feBlend mode="normal" in="SourceGraphic" in2="effect1_dropShadow_128_685" result="shape"/>
</filter>
<filter id="filter4_d_128_685" x="128" y="148" width="128" height="88" filterUnits="userSpaceOnUse" color-interpolation-filters="sRGB">
<feFlood flood-opacity="0" result="BackgroundImageFix"/>
<feColorMatrix in="SourceAlpha" type="matrix" values="0 0 0 0 0 0 0 0 0 0 0 0 0 0 0 0 0 0 127 0" result="hardAlpha"/>
<feOffset dy="4"/>
<feGaussianBlur stdDeviation="4"/>
<feComposite in2="hardAlpha" operator="out"/>
<feColorMatrix type="matrix" values="0 0 0 0 1 0 0 0 0 1 0 0 0 0 1 0 0 0 0.25 0"/>
<feBlend mode="normal" in2="BackgroundImageFix" result="effect1_dropShadow_128_685"/>
<feBlend mode="normal" in="SourceGraphic" in2="effect1_dropShadow_128_685" result="shape"/>
</filter>
<filter id="filter5_d_128_685" x="240" y="240" width="128" height="128" filterUnits="userSpaceOnUse" color-interpolation-filters="sRGB">
<feFlood flood-opacity="0" result="BackgroundImageFix"/>
<feColorMatrix in="SourceAlpha" type="matrix" values="0 0 0 0 0 0 0 0 0 0 0 0 0 0 0 0 0 0 127 0" result="hardAlpha"/>
<feOffset dy="4"/>
<feGaussianBlur stdDeviation="4"/>
<feComposite in2="hardAlpha" operator="out"/>
<feColorMatrix type="matrix" values="0 0 0 0 1 0 0 0 0 1 0 0 0 0 1 0 0 0 0.25 0"/>
<feBlend mode="normal" in2="BackgroundImageFix" result="effect1_dropShadow_128_685"/>
<feBlend mode="normal" in="SourceGraphic" in2="effect1_dropShadow_128_685" result="shape"/>
</filter>
</defs>
</svg>
