<svg width="784" height="376" viewBox="0 0 784 376" fill="none" xmlns="http://www.w3.org/2000/svg">
<g filter="url(#filter0_d_128_632)">
<rect x="8" y="4" width="368" height="360" rx="8" fill="#2172FF" fill-opacity="0.8" shape-rendering="crispEdges"/>
</g>
<g filter="url(#filter1_d_128_632)">
<rect x="156" y="180" width="72" height="72" rx="8" fill="white" fill-opacity="0.75" shape-rendering="crispEdges"/>
</g>
<path d="M174.795 221V212.273H177.932V221H174.795ZM176.364 211.364C175.939 211.364 175.576 211.223 175.273 210.943C174.97 210.663 174.818 210.326 174.818 209.932C174.818 209.538 174.97 209.201 175.273 208.92C175.576 208.64 175.939 208.5 176.364 208.5C176.792 208.5 177.155 208.64 177.455 208.92C177.758 209.201 177.909 209.538 177.909 209.932C177.909 210.326 177.758 210.663 177.455 210.943C177.155 211.223 176.792 211.364 176.364 211.364ZM184.734 212.273V214.545H178.984V212.273H184.734ZM180.098 210.182H183.234V218.193C183.234 218.314 183.255 218.417 183.297 218.5C183.339 218.58 183.403 218.64 183.49 218.682C183.577 218.72 183.689 218.739 183.825 218.739C183.92 218.739 184.03 218.727 184.155 218.705C184.284 218.682 184.378 218.663 184.439 218.648L184.893 220.852C184.753 220.894 184.553 220.945 184.291 221.006C184.034 221.066 183.727 221.106 183.371 221.125C182.651 221.163 182.047 221.089 181.558 220.903C181.07 220.714 180.702 220.417 180.456 220.011C180.21 219.606 180.09 219.098 180.098 218.489V210.182ZM190.102 221.159C189.17 221.159 188.367 220.981 187.693 220.625C187.023 220.265 186.506 219.75 186.142 219.08C185.782 218.405 185.602 217.598 185.602 216.659C185.602 215.758 185.784 214.97 186.148 214.295C186.511 213.621 187.025 213.097 187.688 212.722C188.35 212.347 189.133 212.159 190.034 212.159C190.693 212.159 191.29 212.261 191.824 212.466C192.358 212.67 192.814 212.968 193.193 213.358C193.572 213.744 193.864 214.214 194.068 214.767C194.273 215.32 194.375 215.943 194.375 216.636V217.364H186.58V215.636H191.489C191.485 215.386 191.42 215.167 191.295 214.977C191.174 214.784 191.009 214.634 190.801 214.528C190.597 214.419 190.364 214.364 190.102 214.364C189.848 214.364 189.616 214.419 189.403 214.528C189.191 214.634 189.021 214.782 188.892 214.972C188.767 215.161 188.701 215.383 188.693 215.636V217.5C188.693 217.78 188.752 218.03 188.869 218.25C188.987 218.47 189.155 218.642 189.375 218.767C189.595 218.892 189.86 218.955 190.17 218.955C190.386 218.955 190.583 218.924 190.761 218.864C190.943 218.803 191.098 218.716 191.227 218.602C191.356 218.485 191.451 218.345 191.511 218.182H194.375C194.277 218.788 194.044 219.314 193.676 219.761C193.309 220.205 192.822 220.549 192.216 220.795C191.614 221.038 190.909 221.159 190.102 221.159ZM195.655 221V212.273H198.632V213.932H198.723C198.905 213.386 199.215 212.955 199.655 212.636C200.094 212.318 200.617 212.159 201.223 212.159C201.837 212.159 202.365 212.322 202.808 212.648C203.251 212.97 203.518 213.398 203.609 213.932H203.7C203.848 213.398 204.162 212.97 204.643 212.648C205.125 212.322 205.689 212.159 206.337 212.159C207.174 212.159 207.852 212.428 208.371 212.966C208.893 213.504 209.155 214.22 209.155 215.114V221H206.018V215.909C206.018 215.527 205.922 215.227 205.729 215.011C205.536 214.792 205.276 214.682 204.95 214.682C204.628 214.682 204.373 214.792 204.183 215.011C203.998 215.227 203.905 215.527 203.905 215.909V221H200.905V215.909C200.905 215.527 200.808 215.227 200.615 215.011C200.422 214.792 200.162 214.682 199.837 214.682C199.621 214.682 199.435 214.731 199.28 214.83C199.125 214.928 199.003 215.07 198.916 215.256C198.833 215.437 198.791 215.655 198.791 215.909V221H195.655Z" fill="#181818" fill-opacity="0.75"/>
<g filter="url(#filter2_d_128_632)">
<rect x="156" y="36" width="72" height="72" rx="8" fill="white" fill-opacity="0.75" shape-rendering="crispEdges"/>
</g>
<path d="M174.795 77V68.2727H177.932V77H174.795ZM176.364 67.3636C175.939 67.3636 175.576 67.2235 175.273 66.9432C174.97 66.6629 174.818 66.3258 174.818 65.9318C174.818 65.5379 174.97 65.2008 175.273 64.9205C175.576 64.6402 175.939 64.5 176.364 64.5C176.792 64.5 177.155 64.6402 177.455 64.9205C177.758 65.2008 177.909 65.5379 177.909 65.9318C177.909 66.3258 177.758 66.6629 177.455 66.9432C177.155 67.2235 176.792 67.3636 176.364 67.3636ZM184.734 68.2727V70.5455H178.984V68.2727H184.734ZM180.098 66.1818H183.234V74.1932C183.234 74.3144 183.255 74.4167 183.297 74.5C183.339 74.5795 183.403 74.6402 183.49 74.6818C183.577 74.7197 183.689 74.7386 183.825 74.7386C183.92 74.7386 184.03 74.7273 184.155 74.7045C184.284 74.6818 184.378 74.6629 184.439 74.6477L184.893 76.8523C184.753 76.8939 184.553 76.9451 184.291 77.0057C184.034 77.0663 183.727 77.1061 183.371 77.125C182.651 77.1629 182.047 77.089 181.558 76.9034C181.07 76.714 180.702 76.4167 180.456 76.0114C180.21 75.6061 180.09 75.0985 180.098 74.4886V66.1818ZM190.102 77.1591C189.17 77.1591 188.367 76.9811 187.693 76.625C187.023 76.2652 186.506 75.75 186.142 75.0795C185.782 74.4053 185.602 73.5985 185.602 72.6591C185.602 71.7576 185.784 70.9697 186.148 70.2955C186.511 69.6212 187.025 69.0966 187.688 68.7216C188.35 68.3466 189.133 68.1591 190.034 68.1591C190.693 68.1591 191.29 68.2614 191.824 68.4659C192.358 68.6705 192.814 68.9678 193.193 69.358C193.572 69.7443 193.864 70.214 194.068 70.767C194.273 71.3201 194.375 71.9432 194.375 72.6364V73.3636H186.58V71.6364H191.489C191.485 71.3864 191.42 71.1667 191.295 70.9773C191.174 70.7841 191.009 70.6345 190.801 70.5284C190.597 70.4186 190.364 70.3636 190.102 70.3636C189.848 70.3636 189.616 70.4186 189.403 70.5284C189.191 70.6345 189.021 70.7822 188.892 70.9716C188.767 71.161 188.701 71.3826 188.693 71.6364V73.5C188.693 73.7803 188.752 74.0303 188.869 74.25C188.987 74.4697 189.155 74.642 189.375 74.767C189.595 74.892 189.86 74.9545 190.17 74.9545C190.386 74.9545 190.583 74.9242 190.761 74.8636C190.943 74.803 191.098 74.7159 191.227 74.6023C191.356 74.4848 191.451 74.3447 191.511 74.1818H194.375C194.277 74.7879 194.044 75.3144 193.676 75.7614C193.309 76.2045 192.822 76.5492 192.216 76.7955C191.614 77.0379 190.909 77.1591 190.102 77.1591ZM195.655 77V68.2727H198.632V69.9318H198.723C198.905 69.3864 199.215 68.9545 199.655 68.6364C200.094 68.3182 200.617 68.1591 201.223 68.1591C201.837 68.1591 202.365 68.322 202.808 68.6477C203.251 68.9697 203.518 69.3977 203.609 69.9318H203.7C203.848 69.3977 204.162 68.9697 204.643 68.6477C205.125 68.322 205.689 68.1591 206.337 68.1591C207.174 68.1591 207.852 68.428 208.371 68.9659C208.893 69.5038 209.155 70.2197 209.155 71.1136V77H206.018V71.9091C206.018 71.5265 205.922 71.2273 205.729 71.0114C205.536 70.7917 205.276 70.6818 204.95 70.6818C204.628 70.6818 204.373 70.7917 204.183 71.0114C203.998 71.2273 203.905 71.5265 203.905 71.9091V77H200.905V71.9091C200.905 71.5265 200.808 71.2273 200.615 71.0114C200.422 70.7917 200.162 70.6818 199.837 70.6818C199.621 70.6818 199.435 70.7311 199.28 70.8295C199.125 70.928 199.003 71.0701 198.916 71.2557C198.833 71.4375 198.791 71.6553 198.791 71.9091V77H195.655Z" fill="#181818" fill-opacity="0.75"/>
<g filter="url(#filter3_d_128_632)">
<rect x="84" y="180" width="72" height="72" rx="8" fill="white" fill-opacity="0.75" shape-rendering="crispEdges"/>
</g>
<path d="M102.795 221V212.273H105.932V221H102.795ZM104.364 211.364C103.939 211.364 103.576 211.223 103.273 210.943C102.97 210.663 102.818 210.326 102.818 209.932C102.818 209.538 102.97 209.201 103.273 208.92C103.576 208.64 103.939 208.5 104.364 208.5C104.792 208.5 105.155 208.64 105.455 208.92C105.758 209.201 105.909 209.538 105.909 209.932C105.909 210.326 105.758 210.663 105.455 210.943C105.155 211.223 104.792 211.364 104.364 211.364ZM112.734 212.273V214.545H106.984V212.273H112.734ZM108.098 210.182H111.234V218.193C111.234 218.314 111.255 218.417 111.297 218.5C111.339 218.58 111.403 218.64 111.49 218.682C111.577 218.72 111.689 218.739 111.825 218.739C111.92 218.739 112.03 218.727 112.155 218.705C112.284 218.682 112.378 218.663 112.439 218.648L112.893 220.852C112.753 220.894 112.553 220.945 112.291 221.006C112.034 221.066 111.727 221.106 111.371 221.125C110.651 221.163 110.047 221.089 109.558 220.903C109.07 220.714 108.702 220.417 108.456 220.011C108.21 219.606 108.09 219.098 108.098 218.489V210.182ZM118.102 221.159C117.17 221.159 116.367 220.981 115.693 220.625C115.023 220.265 114.506 219.75 114.142 219.08C113.782 218.405 113.602 217.598 113.602 216.659C113.602 215.758 113.784 214.97 114.148 214.295C114.511 213.621 115.025 213.097 115.688 212.722C116.35 212.347 117.133 212.159 118.034 212.159C118.693 212.159 119.29 212.261 119.824 212.466C120.358 212.67 120.814 212.968 121.193 213.358C121.572 213.744 121.864 214.214 122.068 214.767C122.273 215.32 122.375 215.943 122.375 216.636V217.364H114.58V215.636H119.489C119.485 215.386 119.42 215.167 119.295 214.977C119.174 214.784 119.009 214.634 118.801 214.528C118.597 214.419 118.364 214.364 118.102 214.364C117.848 214.364 117.616 214.419 117.403 214.528C117.191 214.634 117.021 214.782 116.892 214.972C116.767 215.161 116.701 215.383 116.693 215.636V217.5C116.693 217.78 116.752 218.03 116.869 218.25C116.987 218.47 117.155 218.642 117.375 218.767C117.595 218.892 117.86 218.955 118.17 218.955C118.386 218.955 118.583 218.924 118.761 218.864C118.943 218.803 119.098 218.716 119.227 218.602C119.356 218.485 119.451 218.345 119.511 218.182H122.375C122.277 218.788 122.044 219.314 121.676 219.761C121.309 220.205 120.822 220.549 120.216 220.795C119.614 221.038 118.909 221.159 118.102 221.159ZM123.655 221V212.273H126.632V213.932H126.723C126.905 213.386 127.215 212.955 127.655 212.636C128.094 212.318 128.617 212.159 129.223 212.159C129.837 212.159 130.365 212.322 130.808 212.648C131.251 212.97 131.518 213.398 131.609 213.932H131.7C131.848 213.398 132.162 212.97 132.643 212.648C133.125 212.322 133.689 212.159 134.337 212.159C135.174 212.159 135.852 212.428 136.371 212.966C136.893 213.504 137.155 214.22 137.155 215.114V221H134.018V215.909C134.018 215.527 133.922 215.227 133.729 215.011C133.536 214.792 133.276 214.682 132.95 214.682C132.628 214.682 132.373 214.792 132.183 215.011C131.998 215.227 131.905 215.527 131.905 215.909V221H128.905V215.909C128.905 215.527 128.808 215.227 128.615 215.011C128.422 214.792 128.162 214.682 127.837 214.682C127.621 214.682 127.435 214.731 127.28 214.83C127.125 214.928 127.003 215.07 126.916 215.256C126.833 215.437 126.791 215.655 126.791 215.909V221H123.655Z" fill="#181818" fill-opacity="0.75"/>
<g filter="url(#filter4_d_128_632)">
<rect x="84" y="36" width="72" height="72" rx="8" fill="white" fill-opacity="0.75" shape-rendering="crispEdges"/>
</g>
<path d="M102.795 77V68.2727H105.932V77H102.795ZM104.364 67.3636C103.939 67.3636 103.576 67.2235 103.273 66.9432C102.97 66.6629 102.818 66.3258 102.818 65.9318C102.818 65.5379 102.97 65.2008 103.273 64.9205C103.576 64.6402 103.939 64.5 104.364 64.5C104.792 64.5 105.155 64.6402 105.455 64.9205C105.758 65.2008 105.909 65.5379 105.909 65.9318C105.909 66.3258 105.758 66.6629 105.455 66.9432C105.155 67.2235 104.792 67.3636 104.364 67.3636ZM112.734 68.2727V70.5455H106.984V68.2727H112.734ZM108.098 66.1818H111.234V74.1932C111.234 74.3144 111.255 74.4167 111.297 74.5C111.339 74.5795 111.403 74.6402 111.49 74.6818C111.577 74.7197 111.689 74.7386 111.825 74.7386C111.92 74.7386 112.03 74.7273 112.155 74.7045C112.284 74.6818 112.378 74.6629 112.439 74.6477L112.893 76.8523C112.753 76.8939 112.553 76.9451 112.291 77.0057C112.034 77.0663 111.727 77.1061 111.371 77.125C110.651 77.1629 110.047 77.089 109.558 76.9034C109.07 76.714 108.702 76.4167 108.456 76.0114C108.21 75.6061 108.09 75.0985 108.098 74.4886V66.1818ZM118.102 77.1591C117.17 77.1591 116.367 76.9811 115.693 76.625C115.023 76.2652 114.506 75.75 114.142 75.0795C113.782 74.4053 113.602 73.5985 113.602 72.6591C113.602 71.7576 113.784 70.9697 114.148 70.2955C114.511 69.6212 115.025 69.0966 115.688 68.7216C116.35 68.3466 117.133 68.1591 118.034 68.1591C118.693 68.1591 119.29 68.2614 119.824 68.4659C120.358 68.6705 120.814 68.9678 121.193 69.358C121.572 69.7443 121.864 70.214 122.068 70.767C122.273 71.3201 122.375 71.9432 122.375 72.6364V73.3636H114.58V71.6364H119.489C119.485 71.3864 119.42 71.1667 119.295 70.9773C119.174 70.7841 119.009 70.6345 118.801 70.5284C118.597 70.4186 118.364 70.3636 118.102 70.3636C117.848 70.3636 117.616 70.4186 117.403 70.5284C117.191 70.6345 117.021 70.7822 116.892 70.9716C116.767 71.161 116.701 71.3826 116.693 71.6364V73.5C116.693 73.7803 116.752 74.0303 116.869 74.25C116.987 74.4697 117.155 74.642 117.375 74.767C117.595 74.892 117.86 74.9545 118.17 74.9545C118.386 74.9545 118.583 74.9242 118.761 74.8636C118.943 74.803 119.098 74.7159 119.227 74.6023C119.356 74.4848 119.451 74.3447 119.511 74.1818H122.375C122.277 74.7879 122.044 75.3144 121.676 75.7614C121.309 76.2045 120.822 76.5492 120.216 76.7955C119.614 77.0379 118.909 77.1591 118.102 77.1591ZM123.655 77V68.2727H126.632V69.9318H126.723C126.905 69.3864 127.215 68.9545 127.655 68.6364C128.094 68.3182 128.617 68.1591 129.223 68.1591C129.837 68.1591 130.365 68.322 130.808 68.6477C131.251 68.9697 131.518 69.3977 131.609 69.9318H131.7C131.848 69.3977 132.162 68.9697 132.643 68.6477C133.125 68.322 133.689 68.1591 134.337 68.1591C135.174 68.1591 135.852 68.428 136.371 68.9659C136.893 69.5038 137.155 70.2197 137.155 71.1136V77H134.018V71.9091C134.018 71.5265 133.922 71.2273 133.729 71.0114C133.536 70.7917 133.276 70.6818 132.95 70.6818C132.628 70.6818 132.373 70.7917 132.183 71.0114C131.998 71.2273 131.905 71.5265 131.905 71.9091V77H128.905V71.9091C128.905 71.5265 128.808 71.2273 128.615 71.0114C128.422 70.7917 128.162 70.6818 127.837 70.6818C127.621 70.6818 127.435 70.7311 127.28 70.8295C127.125 70.928 127.003 71.0701 126.916 71.2557C126.833 71.4375 126.791 71.6553 126.791 71.9091V77H123.655Z" fill="#181818" fill-opacity="0.75"/>
<g filter="url(#filter5_d_128_632)">
<rect x="228" y="36" width="72" height="72" rx="8" fill="white" fill-opacity="0.75" shape-rendering="crispEdges"/>
</g>
<path d="M246.795 77V68.2727H249.932V77H246.795ZM248.364 67.3636C247.939 67.3636 247.576 67.2235 247.273 66.9432C246.97 66.6629 246.818 66.3258 246.818 65.9318C246.818 65.5379 246.97 65.2008 247.273 64.9205C247.576 64.6402 247.939 64.5 248.364 64.5C248.792 64.5 249.155 64.6402 249.455 64.9205C249.758 65.2008 249.909 65.5379 249.909 65.9318C249.909 66.3258 249.758 66.6629 249.455 66.9432C249.155 67.2235 248.792 67.3636 248.364 67.3636ZM256.734 68.2727V70.5455H250.984V68.2727H256.734ZM252.098 66.1818H255.234V74.1932C255.234 74.3144 255.255 74.4167 255.297 74.5C255.339 74.5795 255.403 74.6402 255.49 74.6818C255.577 74.7197 255.689 74.7386 255.825 74.7386C255.92 74.7386 256.03 74.7273 256.155 74.7045C256.284 74.6818 256.378 74.6629 256.439 74.6477L256.893 76.8523C256.753 76.8939 256.553 76.9451 256.291 77.0057C256.034 77.0663 255.727 77.1061 255.371 77.125C254.651 77.1629 254.047 77.089 253.558 76.9034C253.07 76.714 252.702 76.4167 252.456 76.0114C252.21 75.6061 252.09 75.0985 252.098 74.4886V66.1818ZM262.102 77.1591C261.17 77.1591 260.367 76.9811 259.693 76.625C259.023 76.2652 258.506 75.75 258.142 75.0795C257.782 74.4053 257.602 73.5985 257.602 72.6591C257.602 71.7576 257.784 70.9697 258.148 70.2955C258.511 69.6212 259.025 69.0966 259.688 68.7216C260.35 68.3466 261.133 68.1591 262.034 68.1591C262.693 68.1591 263.29 68.2614 263.824 68.4659C264.358 68.6705 264.814 68.9678 265.193 69.358C265.572 69.7443 265.864 70.214 266.068 70.767C266.273 71.3201 266.375 71.9432 266.375 72.6364V73.3636H258.58V71.6364H263.489C263.485 71.3864 263.42 71.1667 263.295 70.9773C263.174 70.7841 263.009 70.6345 262.801 70.5284C262.597 70.4186 262.364 70.3636 262.102 70.3636C261.848 70.3636 261.616 70.4186 261.403 70.5284C261.191 70.6345 261.021 70.7822 260.892 70.9716C260.767 71.161 260.701 71.3826 260.693 71.6364V73.5C260.693 73.7803 260.752 74.0303 260.869 74.25C260.987 74.4697 261.155 74.642 261.375 74.767C261.595 74.892 261.86 74.9545 262.17 74.9545C262.386 74.9545 262.583 74.9242 262.761 74.8636C262.943 74.803 263.098 74.7159 263.227 74.6023C263.356 74.4848 263.451 74.3447 263.511 74.1818H266.375C266.277 74.7879 266.044 75.3144 265.676 75.7614C265.309 76.2045 264.822 76.5492 264.216 76.7955C263.614 77.0379 262.909 77.1591 262.102 77.1591ZM267.655 77V68.2727H270.632V69.9318H270.723C270.905 69.3864 271.215 68.9545 271.655 68.6364C272.094 68.3182 272.617 68.1591 273.223 68.1591C273.837 68.1591 274.365 68.322 274.808 68.6477C275.251 68.9697 275.518 69.3977 275.609 69.9318H275.7C275.848 69.3977 276.162 68.9697 276.643 68.6477C277.125 68.322 277.689 68.1591 278.337 68.1591C279.174 68.1591 279.852 68.428 280.371 68.9659C280.893 69.5038 281.155 70.2197 281.155 71.1136V77H278.018V71.9091C278.018 71.5265 277.922 71.2273 277.729 71.0114C277.536 70.7917 277.276 70.6818 276.95 70.6818C276.628 70.6818 276.373 70.7917 276.183 71.0114C275.998 71.2273 275.905 71.5265 275.905 71.9091V77H272.905V71.9091C272.905 71.5265 272.808 71.2273 272.615 71.0114C272.422 70.7917 272.162 70.6818 271.837 70.6818C271.621 70.6818 271.435 70.7311 271.28 70.8295C271.125 70.928 271.003 71.0701 270.916 71.2557C270.833 71.4375 270.791 71.6553 270.791 71.9091V77H267.655Z" fill="#181818" fill-opacity="0.75"/>
<g filter="url(#filter6_d_128_632)">
<rect x="156" y="108" width="72" height="72" rx="8" fill="white" fill-opacity="0.75" shape-rendering="crispEdges"/>
</g>
<path d="M174.795 149V140.273H177.932V149H174.795ZM176.364 139.364C175.939 139.364 175.576 139.223 175.273 138.943C174.97 138.663 174.818 138.326 174.818 137.932C174.818 137.538 174.97 137.201 175.273 136.92C175.576 136.64 175.939 136.5 176.364 136.5C176.792 136.5 177.155 136.64 177.455 136.92C177.758 137.201 177.909 137.538 177.909 137.932C177.909 138.326 177.758 138.663 177.455 138.943C177.155 139.223 176.792 139.364 176.364 139.364ZM184.734 140.273V142.545H178.984V140.273H184.734ZM180.098 138.182H183.234V146.193C183.234 146.314 183.255 146.417 183.297 146.5C183.339 146.58 183.403 146.64 183.49 146.682C183.577 146.72 183.689 146.739 183.825 146.739C183.92 146.739 184.03 146.727 184.155 146.705C184.284 146.682 184.378 146.663 184.439 146.648L184.893 148.852C184.753 148.894 184.553 148.945 184.291 149.006C184.034 149.066 183.727 149.106 183.371 149.125C182.651 149.163 182.047 149.089 181.558 148.903C181.07 148.714 180.702 148.417 180.456 148.011C180.21 147.606 180.09 147.098 180.098 146.489V138.182ZM190.102 149.159C189.17 149.159 188.367 148.981 187.693 148.625C187.023 148.265 186.506 147.75 186.142 147.08C185.782 146.405 185.602 145.598 185.602 144.659C185.602 143.758 185.784 142.97 186.148 142.295C186.511 141.621 187.025 141.097 187.688 140.722C188.35 140.347 189.133 140.159 190.034 140.159C190.693 140.159 191.29 140.261 191.824 140.466C192.358 140.67 192.814 140.968 193.193 141.358C193.572 141.744 193.864 142.214 194.068 142.767C194.273 143.32 194.375 143.943 194.375 144.636V145.364H186.58V143.636H191.489C191.485 143.386 191.42 143.167 191.295 142.977C191.174 142.784 191.009 142.634 190.801 142.528C190.597 142.419 190.364 142.364 190.102 142.364C189.848 142.364 189.616 142.419 189.403 142.528C189.191 142.634 189.021 142.782 188.892 142.972C188.767 143.161 188.701 143.383 188.693 143.636V145.5C188.693 145.78 188.752 146.03 188.869 146.25C188.987 146.47 189.155 146.642 189.375 146.767C189.595 146.892 189.86 146.955 190.17 146.955C190.386 146.955 190.583 146.924 190.761 146.864C190.943 146.803 191.098 146.716 191.227 146.602C191.356 146.485 191.451 146.345 191.511 146.182H194.375C194.277 146.788 194.044 147.314 193.676 147.761C193.309 148.205 192.822 148.549 192.216 148.795C191.614 149.038 190.909 149.159 190.102 149.159ZM195.655 149V140.273H198.632V141.932H198.723C198.905 141.386 199.215 140.955 199.655 140.636C200.094 140.318 200.617 140.159 201.223 140.159C201.837 140.159 202.365 140.322 202.808 140.648C203.251 140.97 203.518 141.398 203.609 141.932H203.7C203.848 141.398 204.162 140.97 204.643 140.648C205.125 140.322 205.689 140.159 206.337 140.159C207.174 140.159 207.852 140.428 208.371 140.966C208.893 141.504 209.155 142.22 209.155 143.114V149H206.018V143.909C206.018 143.527 205.922 143.227 205.729 143.011C205.536 142.792 205.276 142.682 204.95 142.682C204.628 142.682 204.373 142.792 204.183 143.011C203.998 143.227 203.905 143.527 203.905 143.909V149H200.905V143.909C200.905 143.527 200.808 143.227 200.615 143.011C200.422 142.792 200.162 142.682 199.837 142.682C199.621 142.682 199.435 142.731 199.28 142.83C199.125 142.928 199.003 143.07 198.916 143.256C198.833 143.437 198.791 143.655 198.791 143.909V149H195.655Z" fill="#181818" fill-opacity="0.75"/>
<g filter="url(#filter7_d_128_632)">
<rect x="84" y="108" width="72" height="72" rx="8" fill="white" fill-opacity="0.75" shape-rendering="crispEdges"/>
</g>
<path d="M102.795 149V140.273H105.932V149H102.795ZM104.364 139.364C103.939 139.364 103.576 139.223 103.273 138.943C102.97 138.663 102.818 138.326 102.818 137.932C102.818 137.538 102.97 137.201 103.273 136.92C103.576 136.64 103.939 136.5 104.364 136.5C104.792 136.5 105.155 136.64 105.455 136.92C105.758 137.201 105.909 137.538 105.909 137.932C105.909 138.326 105.758 138.663 105.455 138.943C105.155 139.223 104.792 139.364 104.364 139.364ZM112.734 140.273V142.545H106.984V140.273H112.734ZM108.098 138.182H111.234V146.193C111.234 146.314 111.255 146.417 111.297 146.5C111.339 146.58 111.403 146.64 111.49 146.682C111.577 146.72 111.689 146.739 111.825 146.739C111.92 146.739 112.03 146.727 112.155 146.705C112.284 146.682 112.378 146.663 112.439 146.648L112.893 148.852C112.753 148.894 112.553 148.945 112.291 149.006C112.034 149.066 111.727 149.106 111.371 149.125C110.651 149.163 110.047 149.089 109.558 148.903C109.07 148.714 108.702 148.417 108.456 148.011C108.21 147.606 108.09 147.098 108.098 146.489V138.182ZM118.102 149.159C117.17 149.159 116.367 148.981 115.693 148.625C115.023 148.265 114.506 147.75 114.142 147.08C113.782 146.405 113.602 145.598 113.602 144.659C113.602 143.758 113.784 142.97 114.148 142.295C114.511 141.621 115.025 141.097 115.688 140.722C116.35 140.347 117.133 140.159 118.034 140.159C118.693 140.159 119.29 140.261 119.824 140.466C120.358 140.67 120.814 140.968 121.193 141.358C121.572 141.744 121.864 142.214 122.068 142.767C122.273 143.32 122.375 143.943 122.375 144.636V145.364H114.58V143.636H119.489C119.485 143.386 119.42 143.167 119.295 142.977C119.174 142.784 119.009 142.634 118.801 142.528C118.597 142.419 118.364 142.364 118.102 142.364C117.848 142.364 117.616 142.419 117.403 142.528C117.191 142.634 117.021 142.782 116.892 142.972C116.767 143.161 116.701 143.383 116.693 143.636V145.5C116.693 145.78 116.752 146.03 116.869 146.25C116.987 146.47 117.155 146.642 117.375 146.767C117.595 146.892 117.86 146.955 118.17 146.955C118.386 146.955 118.583 146.924 118.761 146.864C118.943 146.803 119.098 146.716 119.227 146.602C119.356 146.485 119.451 146.345 119.511 146.182H122.375C122.277 146.788 122.044 147.314 121.676 147.761C121.309 148.205 120.822 148.549 120.216 148.795C119.614 149.038 118.909 149.159 118.102 149.159ZM123.655 149V140.273H126.632V141.932H126.723C126.905 141.386 127.215 140.955 127.655 140.636C128.094 140.318 128.617 140.159 129.223 140.159C129.837 140.159 130.365 140.322 130.808 140.648C131.251 140.97 131.518 141.398 131.609 141.932H131.7C131.848 141.398 132.162 140.97 132.643 140.648C133.125 140.322 133.689 140.159 134.337 140.159C135.174 140.159 135.852 140.428 136.371 140.966C136.893 141.504 137.155 142.22 137.155 143.114V149H134.018V143.909C134.018 143.527 133.922 143.227 133.729 143.011C133.536 142.792 133.276 142.682 132.95 142.682C132.628 142.682 132.373 142.792 132.183 143.011C131.998 143.227 131.905 143.527 131.905 143.909V149H128.905V143.909C128.905 143.527 128.808 143.227 128.615 143.011C128.422 142.792 128.162 142.682 127.837 142.682C127.621 142.682 127.435 142.731 127.28 142.83C127.125 142.928 127.003 143.07 126.916 143.256C126.833 143.437 126.791 143.655 126.791 143.909V149H123.655Z" fill="#181818" fill-opacity="0.75"/>
<g filter="url(#filter8_d_128_632)">
<rect x="228" y="108" width="72" height="72" rx="8" fill="white" fill-opacity="0.75" shape-rendering="crispEdges"/>
</g>
<path d="M246.795 149V140.273H249.932V149H246.795ZM248.364 139.364C247.939 139.364 247.576 139.223 247.273 138.943C246.97 138.663 246.818 138.326 246.818 137.932C246.818 137.538 246.97 137.201 247.273 136.92C247.576 136.64 247.939 136.5 248.364 136.5C248.792 136.5 249.155 136.64 249.455 136.92C249.758 137.201 249.909 137.538 249.909 137.932C249.909 138.326 249.758 138.663 249.455 138.943C249.155 139.223 248.792 139.364 248.364 139.364ZM256.734 140.273V142.545H250.984V140.273H256.734ZM252.098 138.182H255.234V146.193C255.234 146.314 255.255 146.417 255.297 146.5C255.339 146.58 255.403 146.64 255.49 146.682C255.577 146.72 255.689 146.739 255.825 146.739C255.92 146.739 256.03 146.727 256.155 146.705C256.284 146.682 256.378 146.663 256.439 146.648L256.893 148.852C256.753 148.894 256.553 148.945 256.291 149.006C256.034 149.066 255.727 149.106 255.371 149.125C254.651 149.163 254.047 149.089 253.558 148.903C253.07 148.714 252.702 148.417 252.456 148.011C252.21 147.606 252.09 147.098 252.098 146.489V138.182ZM262.102 149.159C261.17 149.159 260.367 148.981 259.693 148.625C259.023 148.265 258.506 147.75 258.142 147.08C257.782 146.405 257.602 145.598 257.602 144.659C257.602 143.758 257.784 142.97 258.148 142.295C258.511 141.621 259.025 141.097 259.688 140.722C260.35 140.347 261.133 140.159 262.034 140.159C262.693 140.159 263.29 140.261 263.824 140.466C264.358 140.67 264.814 140.968 265.193 141.358C265.572 141.744 265.864 142.214 266.068 142.767C266.273 143.32 266.375 143.943 266.375 144.636V145.364H258.58V143.636H263.489C263.485 143.386 263.42 143.167 263.295 142.977C263.174 142.784 263.009 142.634 262.801 142.528C262.597 142.419 262.364 142.364 262.102 142.364C261.848 142.364 261.616 142.419 261.403 142.528C261.191 142.634 261.021 142.782 260.892 142.972C260.767 143.161 260.701 143.383 260.693 143.636V145.5C260.693 145.78 260.752 146.03 260.869 146.25C260.987 146.47 261.155 146.642 261.375 146.767C261.595 146.892 261.86 146.955 262.17 146.955C262.386 146.955 262.583 146.924 262.761 146.864C262.943 146.803 263.098 146.716 263.227 146.602C263.356 146.485 263.451 146.345 263.511 146.182H266.375C266.277 146.788 266.044 147.314 265.676 147.761C265.309 148.205 264.822 148.549 264.216 148.795C263.614 149.038 262.909 149.159 262.102 149.159ZM267.655 149V140.273H270.632V141.932H270.723C270.905 141.386 271.215 140.955 271.655 140.636C272.094 140.318 272.617 140.159 273.223 140.159C273.837 140.159 274.365 140.322 274.808 140.648C275.251 140.97 275.518 141.398 275.609 141.932H275.7C275.848 141.398 276.162 140.97 276.643 140.648C277.125 140.322 277.689 140.159 278.337 140.159C279.174 140.159 279.852 140.428 280.371 140.966C280.893 141.504 281.155 142.22 281.155 143.114V149H278.018V143.909C278.018 143.527 277.922 143.227 277.729 143.011C277.536 142.792 277.276 142.682 276.95 142.682C276.628 142.682 276.373 142.792 276.183 143.011C275.998 143.227 275.905 143.527 275.905 143.909V149H272.905V143.909C272.905 143.527 272.808 143.227 272.615 143.011C272.422 142.792 272.162 142.682 271.837 142.682C271.621 142.682 271.435 142.731 271.28 142.83C271.125 142.928 271.003 143.07 270.916 143.256C270.833 143.437 270.791 143.655 270.791 143.909V149H267.655Z" fill="#181818" fill-opacity="0.75"/>
<g filter="url(#filter9_d_128_632)">
<rect x="228" y="180" width="72" height="72" rx="8" fill="white" fill-opacity="0.75" shape-rendering="crispEdges"/>
</g>
<path d="M246.795 221V212.273H249.932V221H246.795ZM248.364 211.364C247.939 211.364 247.576 211.223 247.273 210.943C246.97 210.663 246.818 210.326 246.818 209.932C246.818 209.538 246.97 209.201 247.273 208.92C247.576 208.64 247.939 208.5 248.364 208.5C248.792 208.5 249.155 208.64 249.455 208.92C249.758 209.201 249.909 209.538 249.909 209.932C249.909 210.326 249.758 210.663 249.455 210.943C249.155 211.223 248.792 211.364 248.364 211.364ZM256.734 212.273V214.545H250.984V212.273H256.734ZM252.098 210.182H255.234V218.193C255.234 218.314 255.255 218.417 255.297 218.5C255.339 218.58 255.403 218.64 255.49 218.682C255.577 218.72 255.689 218.739 255.825 218.739C255.92 218.739 256.03 218.727 256.155 218.705C256.284 218.682 256.378 218.663 256.439 218.648L256.893 220.852C256.753 220.894 256.553 220.945 256.291 221.006C256.034 221.066 255.727 221.106 255.371 221.125C254.651 221.163 254.047 221.089 253.558 220.903C253.07 220.714 252.702 220.417 252.456 220.011C252.21 219.606 252.09 219.098 252.098 218.489V210.182ZM262.102 221.159C261.17 221.159 260.367 220.981 259.693 220.625C259.023 220.265 258.506 219.75 258.142 219.08C257.782 218.405 257.602 217.598 257.602 216.659C257.602 215.758 257.784 214.97 258.148 214.295C258.511 213.621 259.025 213.097 259.688 212.722C260.35 212.347 261.133 212.159 262.034 212.159C262.693 212.159 263.29 212.261 263.824 212.466C264.358 212.67 264.814 212.968 265.193 213.358C265.572 213.744 265.864 214.214 266.068 214.767C266.273 215.32 266.375 215.943 266.375 216.636V217.364H258.58V215.636H263.489C263.485 215.386 263.42 215.167 263.295 214.977C263.174 214.784 263.009 214.634 262.801 214.528C262.597 214.419 262.364 214.364 262.102 214.364C261.848 214.364 261.616 214.419 261.403 214.528C261.191 214.634 261.021 214.782 260.892 214.972C260.767 215.161 260.701 215.383 260.693 215.636V217.5C260.693 217.78 260.752 218.03 260.869 218.25C260.987 218.47 261.155 218.642 261.375 218.767C261.595 218.892 261.86 218.955 262.17 218.955C262.386 218.955 262.583 218.924 262.761 218.864C262.943 218.803 263.098 218.716 263.227 218.602C263.356 218.485 263.451 218.345 263.511 218.182H266.375C266.277 218.788 266.044 219.314 265.676 219.761C265.309 220.205 264.822 220.549 264.216 220.795C263.614 221.038 262.909 221.159 262.102 221.159ZM267.655 221V212.273H270.632V213.932H270.723C270.905 213.386 271.215 212.955 271.655 212.636C272.094 212.318 272.617 212.159 273.223 212.159C273.837 212.159 274.365 212.322 274.808 212.648C275.251 212.97 275.518 213.398 275.609 213.932H275.7C275.848 213.398 276.162 212.97 276.643 212.648C277.125 212.322 277.689 212.159 278.337 212.159C279.174 212.159 279.852 212.428 280.371 212.966C280.893 213.504 281.155 214.22 281.155 215.114V221H278.018V215.909C278.018 215.527 277.922 215.227 277.729 215.011C277.536 214.792 277.276 214.682 276.95 214.682C276.628 214.682 276.373 214.792 276.183 215.011C275.998 215.227 275.905 215.527 275.905 215.909V221H272.905V215.909C272.905 215.527 272.808 215.227 272.615 215.011C272.422 214.792 272.162 214.682 271.837 214.682C271.621 214.682 271.435 214.731 271.28 214.83C271.125 214.928 271.003 215.07 270.916 215.256C270.833 215.437 270.791 215.655 270.791 215.909V221H267.655Z" fill="#181818" fill-opacity="0.75"/>
<path d="M171 27.1591C170.053 27.1591 169.242 26.9716 168.568 26.5966C167.894 26.2178 167.377 25.6913 167.017 25.017C166.657 24.339 166.477 23.553 166.477 22.6591C166.477 21.7652 166.657 20.9811 167.017 20.3068C167.377 19.6288 167.894 19.1023 168.568 18.7273C169.242 18.3485 170.053 18.1591 171 18.1591C171.856 18.1591 172.597 18.3144 173.222 18.625C173.85 18.9318 174.337 19.3674 174.682 19.9318C175.027 20.4924 175.201 21.1515 175.205 21.9091H172.295C172.254 21.4508 172.121 21.1023 171.898 20.8636C171.678 20.6212 171.394 20.5 171.045 20.5C170.773 20.5 170.534 20.5795 170.33 20.7386C170.125 20.8939 169.966 21.1307 169.852 21.4489C169.739 21.7633 169.682 22.1591 169.682 22.6364C169.682 23.1136 169.739 23.5114 169.852 23.8295C169.966 24.1439 170.125 24.3807 170.33 24.5398C170.534 24.6951 170.773 24.7727 171.045 24.7727C171.277 24.7727 171.481 24.7197 171.659 24.6136C171.837 24.5038 171.981 24.3447 172.091 24.1364C172.205 23.9242 172.273 23.6667 172.295 23.3636H175.205C175.193 24.1326 175.017 24.803 174.676 25.375C174.335 25.9432 173.852 26.3826 173.227 26.6932C172.606 27.0038 171.864 27.1591 171 27.1591ZM180.68 27.1591C179.749 27.1591 178.946 26.9811 178.271 26.625C177.601 26.2652 177.084 25.75 176.72 25.0795C176.36 24.4053 176.18 23.5985 176.18 22.6591C176.18 21.7576 176.362 20.9697 176.726 20.2955C177.089 19.6212 177.603 19.0966 178.266 18.7216C178.929 18.3466 179.711 18.1591 180.612 18.1591C181.271 18.1591 181.868 18.2614 182.402 18.4659C182.936 18.6705 183.393 18.9678 183.771 19.358C184.15 19.7443 184.442 20.214 184.646 20.767C184.851 21.3201 184.953 21.9432 184.953 22.6364V23.3636H177.158V21.6364H182.067C182.063 21.3864 181.999 21.1667 181.874 20.9773C181.752 20.7841 181.588 20.6345 181.379 20.5284C181.175 20.4186 180.942 20.3636 180.68 20.3636C180.427 20.3636 180.194 20.4186 179.982 20.5284C179.769 20.6345 179.599 20.7822 179.47 20.9716C179.345 21.161 179.279 21.3826 179.271 21.6364V23.5C179.271 23.7803 179.33 24.0303 179.447 24.25C179.565 24.4697 179.733 24.642 179.953 24.767C180.173 24.892 180.438 24.9545 180.749 24.9545C180.964 24.9545 181.161 24.9242 181.339 24.8636C181.521 24.803 181.677 24.7159 181.805 24.6023C181.934 24.4848 182.029 24.3447 182.089 24.1818H184.953C184.855 24.7879 184.622 25.3144 184.254 25.7614C183.887 26.2045 183.4 26.5492 182.794 26.7955C182.192 27.0379 181.487 27.1591 180.68 27.1591ZM189.369 22.0909V27H186.233V18.2727H189.21V19.9318H189.301C189.491 19.3788 189.824 18.9451 190.301 18.6307C190.782 18.3163 191.343 18.1591 191.983 18.1591C192.6 18.1591 193.136 18.3011 193.591 18.5852C194.049 18.8655 194.403 19.2519 194.653 19.7443C194.907 20.2367 195.032 20.7992 195.028 21.4318V27H191.892V22.0909C191.896 21.6591 191.786 21.3201 191.562 21.0739C191.343 20.8277 191.036 20.7045 190.642 20.7045C190.384 20.7045 190.159 20.7614 189.966 20.875C189.777 20.9848 189.631 21.1439 189.528 21.3523C189.426 21.5568 189.373 21.803 189.369 22.0909ZM201.781 18.2727V20.5455H196.031V18.2727H201.781ZM197.145 16.1818H200.281V24.1932C200.281 24.3144 200.302 24.4167 200.344 24.5C200.385 24.5795 200.45 24.6402 200.537 24.6818C200.624 24.7197 200.736 24.7386 200.872 24.7386C200.967 24.7386 201.077 24.7273 201.202 24.7045C201.33 24.6818 201.425 24.6629 201.486 24.6477L201.94 26.8523C201.8 26.8939 201.599 26.9451 201.338 27.0057C201.08 27.0663 200.774 27.1061 200.418 27.125C199.698 27.1629 199.094 27.089 198.605 26.9034C198.116 26.714 197.749 26.4167 197.503 26.0114C197.257 25.6061 197.137 25.0985 197.145 24.4886V16.1818ZM207.149 27.1591C206.217 27.1591 205.414 26.9811 204.74 26.625C204.07 26.2652 203.553 25.75 203.189 25.0795C202.829 24.4053 202.649 23.5985 202.649 22.6591C202.649 21.7576 202.831 20.9697 203.195 20.2955C203.558 19.6212 204.071 19.0966 204.734 18.7216C205.397 18.3466 206.179 18.1591 207.081 18.1591C207.74 18.1591 208.337 18.2614 208.871 18.4659C209.405 18.6705 209.861 18.9678 210.24 19.358C210.619 19.7443 210.911 20.214 211.115 20.767C211.32 21.3201 211.422 21.9432 211.422 22.6364V23.3636H203.626V21.6364H208.536C208.532 21.3864 208.467 21.1667 208.342 20.9773C208.221 20.7841 208.056 20.6345 207.848 20.5284C207.643 20.4186 207.411 20.3636 207.149 20.3636C206.895 20.3636 206.662 20.4186 206.45 20.5284C206.238 20.6345 206.068 20.7822 205.939 20.9716C205.814 21.161 205.748 21.3826 205.74 21.6364V23.5C205.74 23.7803 205.799 24.0303 205.916 24.25C206.034 24.4697 206.202 24.642 206.422 24.767C206.642 24.892 206.907 24.9545 207.217 24.9545C207.433 24.9545 207.63 24.9242 207.808 24.8636C207.99 24.803 208.145 24.7159 208.274 24.6023C208.403 24.4848 208.498 24.3447 208.558 24.1818H211.422C211.323 24.7879 211.09 25.3144 210.723 25.7614C210.356 26.2045 209.869 26.5492 209.263 26.7955C208.661 27.0379 207.956 27.1591 207.149 27.1591ZM212.702 27V18.2727H215.747V19.9318H215.838C215.997 19.3182 216.249 18.8693 216.594 18.5852C216.942 18.3011 217.349 18.1591 217.815 18.1591C217.952 18.1591 218.086 18.1705 218.219 18.1932C218.355 18.2121 218.486 18.2405 218.611 18.2784V20.9545C218.455 20.9015 218.264 20.8617 218.037 20.8352C217.81 20.8087 217.615 20.7955 217.452 20.7955C217.145 20.7955 216.868 20.8655 216.622 21.0057C216.38 21.142 216.188 21.3352 216.048 21.5852C215.908 21.8314 215.838 22.1212 215.838 22.4545V27H212.702Z" fill="#181818" fill-opacity="0.75"/>
<g filter="url(#filter10_d_128_632)">
<rect x="408" y="4" width="368" height="360" rx="8" fill="#2172FF" fill-opacity="0.8" shape-rendering="crispEdges"/>
</g>
<g filter="url(#filter11_d_128_632)">
<rect x="556" y="180" width="72" height="72" rx="8" fill="white" fill-opacity="0.75" shape-rendering="crispEdges"/>
</g>
<path d="M574.795 221V212.273H577.932V221H574.795ZM576.364 211.364C575.939 211.364 575.576 211.223 575.273 210.943C574.97 210.663 574.818 210.326 574.818 209.932C574.818 209.538 574.97 209.201 575.273 208.92C575.576 208.64 575.939 208.5 576.364 208.5C576.792 208.5 577.155 208.64 577.455 208.92C577.758 209.201 577.909 209.538 577.909 209.932C577.909 210.326 577.758 210.663 577.455 210.943C577.155 211.223 576.792 211.364 576.364 211.364ZM584.734 212.273V214.545H578.984V212.273H584.734ZM580.098 210.182H583.234V218.193C583.234 218.314 583.255 218.417 583.297 218.5C583.339 218.58 583.403 218.64 583.49 218.682C583.577 218.72 583.689 218.739 583.825 218.739C583.92 218.739 584.03 218.727 584.155 218.705C584.284 218.682 584.378 218.663 584.439 218.648L584.893 220.852C584.753 220.894 584.553 220.945 584.291 221.006C584.034 221.066 583.727 221.106 583.371 221.125C582.651 221.163 582.047 221.089 581.558 220.903C581.07 220.714 580.702 220.417 580.456 220.011C580.21 219.606 580.09 219.098 580.098 218.489V210.182ZM590.102 221.159C589.17 221.159 588.367 220.981 587.693 220.625C587.023 220.265 586.506 219.75 586.142 219.08C585.782 218.405 585.602 217.598 585.602 216.659C585.602 215.758 585.784 214.97 586.148 214.295C586.511 213.621 587.025 213.097 587.688 212.722C588.35 212.347 589.133 212.159 590.034 212.159C590.693 212.159 591.29 212.261 591.824 212.466C592.358 212.67 592.814 212.968 593.193 213.358C593.572 213.744 593.864 214.214 594.068 214.767C594.273 215.32 594.375 215.943 594.375 216.636V217.364H586.58V215.636H591.489C591.485 215.386 591.42 215.167 591.295 214.977C591.174 214.784 591.009 214.634 590.801 214.528C590.597 214.419 590.364 214.364 590.102 214.364C589.848 214.364 589.616 214.419 589.403 214.528C589.191 214.634 589.021 214.782 588.892 214.972C588.767 215.161 588.701 215.383 588.693 215.636V217.5C588.693 217.78 588.752 218.03 588.869 218.25C588.987 218.47 589.155 218.642 589.375 218.767C589.595 218.892 589.86 218.955 590.17 218.955C590.386 218.955 590.583 218.924 590.761 218.864C590.943 218.803 591.098 218.716 591.227 218.602C591.356 218.485 591.451 218.345 591.511 218.182H594.375C594.277 218.788 594.044 219.314 593.676 219.761C593.309 220.205 592.822 220.549 592.216 220.795C591.614 221.038 590.909 221.159 590.102 221.159ZM595.655 221V212.273H598.632V213.932H598.723C598.905 213.386 599.215 212.955 599.655 212.636C600.094 212.318 600.617 212.159 601.223 212.159C601.837 212.159 602.365 212.322 602.808 212.648C603.251 212.97 603.518 213.398 603.609 213.932H603.7C603.848 213.398 604.162 212.97 604.643 212.648C605.125 212.322 605.689 212.159 606.337 212.159C607.174 212.159 607.852 212.428 608.371 212.966C608.893 213.504 609.155 214.22 609.155 215.114V221H606.018V215.909C606.018 215.527 605.922 215.227 605.729 215.011C605.536 214.792 605.276 214.682 604.95 214.682C604.628 214.682 604.373 214.792 604.183 215.011C603.998 215.227 603.905 215.527 603.905 215.909V221H600.905V215.909C600.905 215.527 600.808 215.227 600.615 215.011C600.422 214.792 600.162 214.682 599.837 214.682C599.621 214.682 599.435 214.731 599.28 214.83C599.125 214.928 599.003 215.07 598.916 215.256C598.833 215.437 598.791 215.655 598.791 215.909V221H595.655Z" fill="#181818" fill-opacity="0.75"/>
<g filter="url(#filter12_d_128_632)">
<rect x="556" y="36" width="72" height="72" rx="8" fill="white" fill-opacity="0.75" shape-rendering="crispEdges"/>
</g>
<path d="M574.795 77V68.2727H577.932V77H574.795ZM576.364 67.3636C575.939 67.3636 575.576 67.2235 575.273 66.9432C574.97 66.6629 574.818 66.3258 574.818 65.9318C574.818 65.5379 574.97 65.2008 575.273 64.9205C575.576 64.6402 575.939 64.5 576.364 64.5C576.792 64.5 577.155 64.6402 577.455 64.9205C577.758 65.2008 577.909 65.5379 577.909 65.9318C577.909 66.3258 577.758 66.6629 577.455 66.9432C577.155 67.2235 576.792 67.3636 576.364 67.3636ZM584.734 68.2727V70.5455H578.984V68.2727H584.734ZM580.098 66.1818H583.234V74.1932C583.234 74.3144 583.255 74.4167 583.297 74.5C583.339 74.5795 583.403 74.6402 583.49 74.6818C583.577 74.7197 583.689 74.7386 583.825 74.7386C583.92 74.7386 584.03 74.7273 584.155 74.7045C584.284 74.6818 584.378 74.6629 584.439 74.6477L584.893 76.8523C584.753 76.8939 584.553 76.9451 584.291 77.0057C584.034 77.0663 583.727 77.1061 583.371 77.125C582.651 77.1629 582.047 77.089 581.558 76.9034C581.07 76.714 580.702 76.4167 580.456 76.0114C580.21 75.6061 580.09 75.0985 580.098 74.4886V66.1818ZM590.102 77.1591C589.17 77.1591 588.367 76.9811 587.693 76.625C587.023 76.2652 586.506 75.75 586.142 75.0795C585.782 74.4053 585.602 73.5985 585.602 72.6591C585.602 71.7576 585.784 70.9697 586.148 70.2955C586.511 69.6212 587.025 69.0966 587.688 68.7216C588.35 68.3466 589.133 68.1591 590.034 68.1591C590.693 68.1591 591.29 68.2614 591.824 68.4659C592.358 68.6705 592.814 68.9678 593.193 69.358C593.572 69.7443 593.864 70.214 594.068 70.767C594.273 71.3201 594.375 71.9432 594.375 72.6364V73.3636H586.58V71.6364H591.489C591.485 71.3864 591.42 71.1667 591.295 70.9773C591.174 70.7841 591.009 70.6345 590.801 70.5284C590.597 70.4186 590.364 70.3636 590.102 70.3636C589.848 70.3636 589.616 70.4186 589.403 70.5284C589.191 70.6345 589.021 70.7822 588.892 70.9716C588.767 71.161 588.701 71.3826 588.693 71.6364V73.5C588.693 73.7803 588.752 74.0303 588.869 74.25C588.987 74.4697 589.155 74.642 589.375 74.767C589.595 74.892 589.86 74.9545 590.17 74.9545C590.386 74.9545 590.583 74.9242 590.761 74.8636C590.943 74.803 591.098 74.7159 591.227 74.6023C591.356 74.4848 591.451 74.3447 591.511 74.1818H594.375C594.277 74.7879 594.044 75.3144 593.676 75.7614C593.309 76.2045 592.822 76.5492 592.216 76.7955C591.614 77.0379 590.909 77.1591 590.102 77.1591ZM595.655 77V68.2727H598.632V69.9318H598.723C598.905 69.3864 599.215 68.9545 599.655 68.6364C600.094 68.3182 600.617 68.1591 601.223 68.1591C601.837 68.1591 602.365 68.322 602.808 68.6477C603.251 68.9697 603.518 69.3977 603.609 69.9318H603.7C603.848 69.3977 604.162 68.9697 604.643 68.6477C605.125 68.322 605.689 68.1591 606.337 68.1591C607.174 68.1591 607.852 68.428 608.371 68.9659C608.893 69.5038 609.155 70.2197 609.155 71.1136V77H606.018V71.9091C606.018 71.5265 605.922 71.2273 605.729 71.0114C605.536 70.7917 605.276 70.6818 604.95 70.6818C604.628 70.6818 604.373 70.7917 604.183 71.0114C603.998 71.2273 603.905 71.5265 603.905 71.9091V77H600.905V71.9091C600.905 71.5265 600.808 71.2273 600.615 71.0114C600.422 70.7917 600.162 70.6818 599.837 70.6818C599.621 70.6818 599.435 70.7311 599.28 70.8295C599.125 70.928 599.003 71.0701 598.916 71.2557C598.833 71.4375 598.791 71.6553 598.791 71.9091V77H595.655Z" fill="#181818" fill-opacity="0.75"/>
<g filter="url(#filter13_d_128_632)">
<rect x="424" y="180" width="72" height="72" rx="8" fill="white" fill-opacity="0.75" shape-rendering="crispEdges"/>
</g>
<path d="M442.795 221V212.273H445.932V221H442.795ZM444.364 211.364C443.939 211.364 443.576 211.223 443.273 210.943C442.97 210.663 442.818 210.326 442.818 209.932C442.818 209.538 442.97 209.201 443.273 208.92C443.576 208.64 443.939 208.5 444.364 208.5C444.792 208.5 445.155 208.64 445.455 208.92C445.758 209.201 445.909 209.538 445.909 209.932C445.909 210.326 445.758 210.663 445.455 210.943C445.155 211.223 444.792 211.364 444.364 211.364ZM452.734 212.273V214.545H446.984V212.273H452.734ZM448.098 210.182H451.234V218.193C451.234 218.314 451.255 218.417 451.297 218.5C451.339 218.58 451.403 218.64 451.49 218.682C451.577 218.72 451.689 218.739 451.825 218.739C451.92 218.739 452.03 218.727 452.155 218.705C452.284 218.682 452.378 218.663 452.439 218.648L452.893 220.852C452.753 220.894 452.553 220.945 452.291 221.006C452.034 221.066 451.727 221.106 451.371 221.125C450.651 221.163 450.047 221.089 449.558 220.903C449.07 220.714 448.702 220.417 448.456 220.011C448.21 219.606 448.09 219.098 448.098 218.489V210.182ZM458.102 221.159C457.17 221.159 456.367 220.981 455.693 220.625C455.023 220.265 454.506 219.75 454.142 219.08C453.782 218.405 453.602 217.598 453.602 216.659C453.602 215.758 453.784 214.97 454.148 214.295C454.511 213.621 455.025 213.097 455.688 212.722C456.35 212.347 457.133 212.159 458.034 212.159C458.693 212.159 459.29 212.261 459.824 212.466C460.358 212.67 460.814 212.968 461.193 213.358C461.572 213.744 461.864 214.214 462.068 214.767C462.273 215.32 462.375 215.943 462.375 216.636V217.364H454.58V215.636H459.489C459.485 215.386 459.42 215.167 459.295 214.977C459.174 214.784 459.009 214.634 458.801 214.528C458.597 214.419 458.364 214.364 458.102 214.364C457.848 214.364 457.616 214.419 457.403 214.528C457.191 214.634 457.021 214.782 456.892 214.972C456.767 215.161 456.701 215.383 456.693 215.636V217.5C456.693 217.78 456.752 218.03 456.869 218.25C456.987 218.47 457.155 218.642 457.375 218.767C457.595 218.892 457.86 218.955 458.17 218.955C458.386 218.955 458.583 218.924 458.761 218.864C458.943 218.803 459.098 218.716 459.227 218.602C459.356 218.485 459.451 218.345 459.511 218.182H462.375C462.277 218.788 462.044 219.314 461.676 219.761C461.309 220.205 460.822 220.549 460.216 220.795C459.614 221.038 458.909 221.159 458.102 221.159ZM463.655 221V212.273H466.632V213.932H466.723C466.905 213.386 467.215 212.955 467.655 212.636C468.094 212.318 468.617 212.159 469.223 212.159C469.837 212.159 470.365 212.322 470.808 212.648C471.251 212.97 471.518 213.398 471.609 213.932H471.7C471.848 213.398 472.162 212.97 472.643 212.648C473.125 212.322 473.689 212.159 474.337 212.159C475.174 212.159 475.852 212.428 476.371 212.966C476.893 213.504 477.155 214.22 477.155 215.114V221H474.018V215.909C474.018 215.527 473.922 215.227 473.729 215.011C473.536 214.792 473.276 214.682 472.95 214.682C472.628 214.682 472.373 214.792 472.183 215.011C471.998 215.227 471.905 215.527 471.905 215.909V221H468.905V215.909C468.905 215.527 468.808 215.227 468.615 215.011C468.422 214.792 468.162 214.682 467.837 214.682C467.621 214.682 467.435 214.731 467.28 214.83C467.125 214.928 467.003 215.07 466.916 215.256C466.833 215.437 466.791 215.655 466.791 215.909V221H463.655Z" fill="#181818" fill-opacity="0.75"/>
<g filter="url(#filter14_d_128_632)">
<rect x="424" y="36" width="72" height="72" rx="8" fill="white" fill-opacity="0.75" shape-rendering="crispEdges"/>
</g>
<path d="M442.795 77V68.2727H445.932V77H442.795ZM444.364 67.3636C443.939 67.3636 443.576 67.2235 443.273 66.9432C442.97 66.6629 442.818 66.3258 442.818 65.9318C442.818 65.5379 442.97 65.2008 443.273 64.9205C443.576 64.6402 443.939 64.5 444.364 64.5C444.792 64.5 445.155 64.6402 445.455 64.9205C445.758 65.2008 445.909 65.5379 445.909 65.9318C445.909 66.3258 445.758 66.6629 445.455 66.9432C445.155 67.2235 444.792 67.3636 444.364 67.3636ZM452.734 68.2727V70.5455H446.984V68.2727H452.734ZM448.098 66.1818H451.234V74.1932C451.234 74.3144 451.255 74.4167 451.297 74.5C451.339 74.5795 451.403 74.6402 451.49 74.6818C451.577 74.7197 451.689 74.7386 451.825 74.7386C451.92 74.7386 452.03 74.7273 452.155 74.7045C452.284 74.6818 452.378 74.6629 452.439 74.6477L452.893 76.8523C452.753 76.8939 452.553 76.9451 452.291 77.0057C452.034 77.0663 451.727 77.1061 451.371 77.125C450.651 77.1629 450.047 77.089 449.558 76.9034C449.07 76.714 448.702 76.4167 448.456 76.0114C448.21 75.6061 448.09 75.0985 448.098 74.4886V66.1818ZM458.102 77.1591C457.17 77.1591 456.367 76.9811 455.693 76.625C455.023 76.2652 454.506 75.75 454.142 75.0795C453.782 74.4053 453.602 73.5985 453.602 72.6591C453.602 71.7576 453.784 70.9697 454.148 70.2955C454.511 69.6212 455.025 69.0966 455.688 68.7216C456.35 68.3466 457.133 68.1591 458.034 68.1591C458.693 68.1591 459.29 68.2614 459.824 68.4659C460.358 68.6705 460.814 68.9678 461.193 69.358C461.572 69.7443 461.864 70.214 462.068 70.767C462.273 71.3201 462.375 71.9432 462.375 72.6364V73.3636H454.58V71.6364H459.489C459.485 71.3864 459.42 71.1667 459.295 70.9773C459.174 70.7841 459.009 70.6345 458.801 70.5284C458.597 70.4186 458.364 70.3636 458.102 70.3636C457.848 70.3636 457.616 70.4186 457.403 70.5284C457.191 70.6345 457.021 70.7822 456.892 70.9716C456.767 71.161 456.701 71.3826 456.693 71.6364V73.5C456.693 73.7803 456.752 74.0303 456.869 74.25C456.987 74.4697 457.155 74.642 457.375 74.767C457.595 74.892 457.86 74.9545 458.17 74.9545C458.386 74.9545 458.583 74.9242 458.761 74.8636C458.943 74.803 459.098 74.7159 459.227 74.6023C459.356 74.4848 459.451 74.3447 459.511 74.1818H462.375C462.277 74.7879 462.044 75.3144 461.676 75.7614C461.309 76.2045 460.822 76.5492 460.216 76.7955C459.614 77.0379 458.909 77.1591 458.102 77.1591ZM463.655 77V68.2727H466.632V69.9318H466.723C466.905 69.3864 467.215 68.9545 467.655 68.6364C468.094 68.3182 468.617 68.1591 469.223 68.1591C469.837 68.1591 470.365 68.322 470.808 68.6477C471.251 68.9697 471.518 69.3977 471.609 69.9318H471.7C471.848 69.3977 472.162 68.9697 472.643 68.6477C473.125 68.322 473.689 68.1591 474.337 68.1591C475.174 68.1591 475.852 68.428 476.371 68.9659C476.893 69.5038 477.155 70.2197 477.155 71.1136V77H474.018V71.9091C474.018 71.5265 473.922 71.2273 473.729 71.0114C473.536 70.7917 473.276 70.6818 472.95 70.6818C472.628 70.6818 472.373 70.7917 472.183 71.0114C471.998 71.2273 471.905 71.5265 471.905 71.9091V77H468.905V71.9091C468.905 71.5265 468.808 71.2273 468.615 71.0114C468.422 70.7917 468.162 70.6818 467.837 70.6818C467.621 70.6818 467.435 70.7311 467.28 70.8295C467.125 70.928 467.003 71.0701 466.916 71.2557C466.833 71.4375 466.791 71.6553 466.791 71.9091V77H463.655Z" fill="#181818" fill-opacity="0.75"/>
<g filter="url(#filter15_d_128_632)">
<rect x="688" y="36" width="72" height="72" rx="8" fill="white" fill-opacity="0.75" shape-rendering="crispEdges"/>
</g>
<path d="M706.795 77V68.2727H709.932V77H706.795ZM708.364 67.3636C707.939 67.3636 707.576 67.2235 707.273 66.9432C706.97 66.6629 706.818 66.3258 706.818 65.9318C706.818 65.5379 706.97 65.2008 707.273 64.9205C707.576 64.6402 707.939 64.5 708.364 64.5C708.792 64.5 709.155 64.6402 709.455 64.9205C709.758 65.2008 709.909 65.5379 709.909 65.9318C709.909 66.3258 709.758 66.6629 709.455 66.9432C709.155 67.2235 708.792 67.3636 708.364 67.3636ZM716.734 68.2727V70.5455H710.984V68.2727H716.734ZM712.098 66.1818H715.234V74.1932C715.234 74.3144 715.255 74.4167 715.297 74.5C715.339 74.5795 715.403 74.6402 715.49 74.6818C715.577 74.7197 715.689 74.7386 715.825 74.7386C715.92 74.7386 716.03 74.7273 716.155 74.7045C716.284 74.6818 716.378 74.6629 716.439 74.6477L716.893 76.8523C716.753 76.8939 716.553 76.9451 716.291 77.0057C716.034 77.0663 715.727 77.1061 715.371 77.125C714.651 77.1629 714.047 77.089 713.558 76.9034C713.07 76.714 712.702 76.4167 712.456 76.0114C712.21 75.6061 712.09 75.0985 712.098 74.4886V66.1818ZM722.102 77.1591C721.17 77.1591 720.367 76.9811 719.693 76.625C719.023 76.2652 718.506 75.75 718.142 75.0795C717.782 74.4053 717.602 73.5985 717.602 72.6591C717.602 71.7576 717.784 70.9697 718.148 70.2955C718.511 69.6212 719.025 69.0966 719.688 68.7216C720.35 68.3466 721.133 68.1591 722.034 68.1591C722.693 68.1591 723.29 68.2614 723.824 68.4659C724.358 68.6705 724.814 68.9678 725.193 69.358C725.572 69.7443 725.864 70.214 726.068 70.767C726.273 71.3201 726.375 71.9432 726.375 72.6364V73.3636H718.58V71.6364H723.489C723.485 71.3864 723.42 71.1667 723.295 70.9773C723.174 70.7841 723.009 70.6345 722.801 70.5284C722.597 70.4186 722.364 70.3636 722.102 70.3636C721.848 70.3636 721.616 70.4186 721.403 70.5284C721.191 70.6345 721.021 70.7822 720.892 70.9716C720.767 71.161 720.701 71.3826 720.693 71.6364V73.5C720.693 73.7803 720.752 74.0303 720.869 74.25C720.987 74.4697 721.155 74.642 721.375 74.767C721.595 74.892 721.86 74.9545 722.17 74.9545C722.386 74.9545 722.583 74.9242 722.761 74.8636C722.943 74.803 723.098 74.7159 723.227 74.6023C723.356 74.4848 723.451 74.3447 723.511 74.1818H726.375C726.277 74.7879 726.044 75.3144 725.676 75.7614C725.309 76.2045 724.822 76.5492 724.216 76.7955C723.614 77.0379 722.909 77.1591 722.102 77.1591ZM727.655 77V68.2727H730.632V69.9318H730.723C730.905 69.3864 731.215 68.9545 731.655 68.6364C732.094 68.3182 732.617 68.1591 733.223 68.1591C733.837 68.1591 734.365 68.322 734.808 68.6477C735.251 68.9697 735.518 69.3977 735.609 69.9318H735.7C735.848 69.3977 736.162 68.9697 736.643 68.6477C737.125 68.322 737.689 68.1591 738.337 68.1591C739.174 68.1591 739.852 68.428 740.371 68.9659C740.893 69.5038 741.155 70.2197 741.155 71.1136V77H738.018V71.9091C738.018 71.5265 737.922 71.2273 737.729 71.0114C737.536 70.7917 737.276 70.6818 736.95 70.6818C736.628 70.6818 736.373 70.7917 736.183 71.0114C735.998 71.2273 735.905 71.5265 735.905 71.9091V77H732.905V71.9091C732.905 71.5265 732.808 71.2273 732.615 71.0114C732.422 70.7917 732.162 70.6818 731.837 70.6818C731.621 70.6818 731.435 70.7311 731.28 70.8295C731.125 70.928 731.003 71.0701 730.916 71.2557C730.833 71.4375 730.791 71.6553 730.791 71.9091V77H727.655Z" fill="#181818" fill-opacity="0.75"/>
<g filter="url(#filter16_d_128_632)">
<rect x="556" y="108" width="72" height="72" rx="8" fill="white" fill-opacity="0.75" shape-rendering="crispEdges"/>
</g>
<path d="M574.795 149V140.273H577.932V149H574.795ZM576.364 139.364C575.939 139.364 575.576 139.223 575.273 138.943C574.97 138.663 574.818 138.326 574.818 137.932C574.818 137.538 574.97 137.201 575.273 136.92C575.576 136.64 575.939 136.5 576.364 136.5C576.792 136.5 577.155 136.64 577.455 136.92C577.758 137.201 577.909 137.538 577.909 137.932C577.909 138.326 577.758 138.663 577.455 138.943C577.155 139.223 576.792 139.364 576.364 139.364ZM584.734 140.273V142.545H578.984V140.273H584.734ZM580.098 138.182H583.234V146.193C583.234 146.314 583.255 146.417 583.297 146.5C583.339 146.58 583.403 146.64 583.49 146.682C583.577 146.72 583.689 146.739 583.825 146.739C583.92 146.739 584.03 146.727 584.155 146.705C584.284 146.682 584.378 146.663 584.439 146.648L584.893 148.852C584.753 148.894 584.553 148.945 584.291 149.006C584.034 149.066 583.727 149.106 583.371 149.125C582.651 149.163 582.047 149.089 581.558 148.903C581.07 148.714 580.702 148.417 580.456 148.011C580.21 147.606 580.09 147.098 580.098 146.489V138.182ZM590.102 149.159C589.17 149.159 588.367 148.981 587.693 148.625C587.023 148.265 586.506 147.75 586.142 147.08C585.782 146.405 585.602 145.598 585.602 144.659C585.602 143.758 585.784 142.97 586.148 142.295C586.511 141.621 587.025 141.097 587.688 140.722C588.35 140.347 589.133 140.159 590.034 140.159C590.693 140.159 591.29 140.261 591.824 140.466C592.358 140.67 592.814 140.968 593.193 141.358C593.572 141.744 593.864 142.214 594.068 142.767C594.273 143.32 594.375 143.943 594.375 144.636V145.364H586.58V143.636H591.489C591.485 143.386 591.42 143.167 591.295 142.977C591.174 142.784 591.009 142.634 590.801 142.528C590.597 142.419 590.364 142.364 590.102 142.364C589.848 142.364 589.616 142.419 589.403 142.528C589.191 142.634 589.021 142.782 588.892 142.972C588.767 143.161 588.701 143.383 588.693 143.636V145.5C588.693 145.78 588.752 146.03 588.869 146.25C588.987 146.47 589.155 146.642 589.375 146.767C589.595 146.892 589.86 146.955 590.17 146.955C590.386 146.955 590.583 146.924 590.761 146.864C590.943 146.803 591.098 146.716 591.227 146.602C591.356 146.485 591.451 146.345 591.511 146.182H594.375C594.277 146.788 594.044 147.314 593.676 147.761C593.309 148.205 592.822 148.549 592.216 148.795C591.614 149.038 590.909 149.159 590.102 149.159ZM595.655 149V140.273H598.632V141.932H598.723C598.905 141.386 599.215 140.955 599.655 140.636C600.094 140.318 600.617 140.159 601.223 140.159C601.837 140.159 602.365 140.322 602.808 140.648C603.251 140.97 603.518 141.398 603.609 141.932H603.7C603.848 141.398 604.162 140.97 604.643 140.648C605.125 140.322 605.689 140.159 606.337 140.159C607.174 140.159 607.852 140.428 608.371 140.966C608.893 141.504 609.155 142.22 609.155 143.114V149H606.018V143.909C606.018 143.527 605.922 143.227 605.729 143.011C605.536 142.792 605.276 142.682 604.95 142.682C604.628 142.682 604.373 142.792 604.183 143.011C603.998 143.227 603.905 143.527 603.905 143.909V149H600.905V143.909C600.905 143.527 600.808 143.227 600.615 143.011C600.422 142.792 600.162 142.682 599.837 142.682C599.621 142.682 599.435 142.731 599.28 142.83C599.125 142.928 599.003 143.07 598.916 143.256C598.833 143.437 598.791 143.655 598.791 143.909V149H595.655Z" fill="#181818" fill-opacity="0.75"/>
<g filter="url(#filter17_d_128_632)">
<rect x="424" y="108" width="72" height="72" rx="8" fill="white" fill-opacity="0.75" shape-rendering="crispEdges"/>
</g>
<path d="M442.795 149V140.273H445.932V149H442.795ZM444.364 139.364C443.939 139.364 443.576 139.223 443.273 138.943C442.97 138.663 442.818 138.326 442.818 137.932C442.818 137.538 442.97 137.201 443.273 136.92C443.576 136.64 443.939 136.5 444.364 136.5C444.792 136.5 445.155 136.64 445.455 136.92C445.758 137.201 445.909 137.538 445.909 137.932C445.909 138.326 445.758 138.663 445.455 138.943C445.155 139.223 444.792 139.364 444.364 139.364ZM452.734 140.273V142.545H446.984V140.273H452.734ZM448.098 138.182H451.234V146.193C451.234 146.314 451.255 146.417 451.297 146.5C451.339 146.58 451.403 146.64 451.49 146.682C451.577 146.72 451.689 146.739 451.825 146.739C451.92 146.739 452.03 146.727 452.155 146.705C452.284 146.682 452.378 146.663 452.439 146.648L452.893 148.852C452.753 148.894 452.553 148.945 452.291 149.006C452.034 149.066 451.727 149.106 451.371 149.125C450.651 149.163 450.047 149.089 449.558 148.903C449.07 148.714 448.702 148.417 448.456 148.011C448.21 147.606 448.09 147.098 448.098 146.489V138.182ZM458.102 149.159C457.17 149.159 456.367 148.981 455.693 148.625C455.023 148.265 454.506 147.75 454.142 147.08C453.782 146.405 453.602 145.598 453.602 144.659C453.602 143.758 453.784 142.97 454.148 142.295C454.511 141.621 455.025 141.097 455.688 140.722C456.35 140.347 457.133 140.159 458.034 140.159C458.693 140.159 459.29 140.261 459.824 140.466C460.358 140.67 460.814 140.968 461.193 141.358C461.572 141.744 461.864 142.214 462.068 142.767C462.273 143.32 462.375 143.943 462.375 144.636V145.364H454.58V143.636H459.489C459.485 143.386 459.42 143.167 459.295 142.977C459.174 142.784 459.009 142.634 458.801 142.528C458.597 142.419 458.364 142.364 458.102 142.364C457.848 142.364 457.616 142.419 457.403 142.528C457.191 142.634 457.021 142.782 456.892 142.972C456.767 143.161 456.701 143.383 456.693 143.636V145.5C456.693 145.78 456.752 146.03 456.869 146.25C456.987 146.47 457.155 146.642 457.375 146.767C457.595 146.892 457.86 146.955 458.17 146.955C458.386 146.955 458.583 146.924 458.761 146.864C458.943 146.803 459.098 146.716 459.227 146.602C459.356 146.485 459.451 146.345 459.511 146.182H462.375C462.277 146.788 462.044 147.314 461.676 147.761C461.309 148.205 460.822 148.549 460.216 148.795C459.614 149.038 458.909 149.159 458.102 149.159ZM463.655 149V140.273H466.632V141.932H466.723C466.905 141.386 467.215 140.955 467.655 140.636C468.094 140.318 468.617 140.159 469.223 140.159C469.837 140.159 470.365 140.322 470.808 140.648C471.251 140.97 471.518 141.398 471.609 141.932H471.7C471.848 141.398 472.162 140.97 472.643 140.648C473.125 140.322 473.689 140.159 474.337 140.159C475.174 140.159 475.852 140.428 476.371 140.966C476.893 141.504 477.155 142.22 477.155 143.114V149H474.018V143.909C474.018 143.527 473.922 143.227 473.729 143.011C473.536 142.792 473.276 142.682 472.95 142.682C472.628 142.682 472.373 142.792 472.183 143.011C471.998 143.227 471.905 143.527 471.905 143.909V149H468.905V143.909C468.905 143.527 468.808 143.227 468.615 143.011C468.422 142.792 468.162 142.682 467.837 142.682C467.621 142.682 467.435 142.731 467.28 142.83C467.125 142.928 467.003 143.07 466.916 143.256C466.833 143.437 466.791 143.655 466.791 143.909V149H463.655Z" fill="#181818" fill-opacity="0.75"/>
<g filter="url(#filter18_d_128_632)">
<rect x="688" y="108" width="72" height="72" rx="8" fill="white" fill-opacity="0.75" shape-rendering="crispEdges"/>
</g>
<path d="M706.795 149V140.273H709.932V149H706.795ZM708.364 139.364C707.939 139.364 707.576 139.223 707.273 138.943C706.97 138.663 706.818 138.326 706.818 137.932C706.818 137.538 706.97 137.201 707.273 136.92C707.576 136.64 707.939 136.5 708.364 136.5C708.792 136.5 709.155 136.64 709.455 136.92C709.758 137.201 709.909 137.538 709.909 137.932C709.909 138.326 709.758 138.663 709.455 138.943C709.155 139.223 708.792 139.364 708.364 139.364ZM716.734 140.273V142.545H710.984V140.273H716.734ZM712.098 138.182H715.234V146.193C715.234 146.314 715.255 146.417 715.297 146.5C715.339 146.58 715.403 146.64 715.49 146.682C715.577 146.72 715.689 146.739 715.825 146.739C715.92 146.739 716.03 146.727 716.155 146.705C716.284 146.682 716.378 146.663 716.439 146.648L716.893 148.852C716.753 148.894 716.553 148.945 716.291 149.006C716.034 149.066 715.727 149.106 715.371 149.125C714.651 149.163 714.047 149.089 713.558 148.903C713.07 148.714 712.702 148.417 712.456 148.011C712.21 147.606 712.09 147.098 712.098 146.489V138.182ZM722.102 149.159C721.17 149.159 720.367 148.981 719.693 148.625C719.023 148.265 718.506 147.75 718.142 147.08C717.782 146.405 717.602 145.598 717.602 144.659C717.602 143.758 717.784 142.97 718.148 142.295C718.511 141.621 719.025 141.097 719.688 140.722C720.35 140.347 721.133 140.159 722.034 140.159C722.693 140.159 723.29 140.261 723.824 140.466C724.358 140.67 724.814 140.968 725.193 141.358C725.572 141.744 725.864 142.214 726.068 142.767C726.273 143.32 726.375 143.943 726.375 144.636V145.364H718.58V143.636H723.489C723.485 143.386 723.42 143.167 723.295 142.977C723.174 142.784 723.009 142.634 722.801 142.528C722.597 142.419 722.364 142.364 722.102 142.364C721.848 142.364 721.616 142.419 721.403 142.528C721.191 142.634 721.021 142.782 720.892 142.972C720.767 143.161 720.701 143.383 720.693 143.636V145.5C720.693 145.78 720.752 146.03 720.869 146.25C720.987 146.47 721.155 146.642 721.375 146.767C721.595 146.892 721.86 146.955 722.17 146.955C722.386 146.955 722.583 146.924 722.761 146.864C722.943 146.803 723.098 146.716 723.227 146.602C723.356 146.485 723.451 146.345 723.511 146.182H726.375C726.277 146.788 726.044 147.314 725.676 147.761C725.309 148.205 724.822 148.549 724.216 148.795C723.614 149.038 722.909 149.159 722.102 149.159ZM727.655 149V140.273H730.632V141.932H730.723C730.905 141.386 731.215 140.955 731.655 140.636C732.094 140.318 732.617 140.159 733.223 140.159C733.837 140.159 734.365 140.322 734.808 140.648C735.251 140.97 735.518 141.398 735.609 141.932H735.7C735.848 141.398 736.162 140.97 736.643 140.648C737.125 140.322 737.689 140.159 738.337 140.159C739.174 140.159 739.852 140.428 740.371 140.966C740.893 141.504 741.155 142.22 741.155 143.114V149H738.018V143.909C738.018 143.527 737.922 143.227 737.729 143.011C737.536 142.792 737.276 142.682 736.95 142.682C736.628 142.682 736.373 142.792 736.183 143.011C735.998 143.227 735.905 143.527 735.905 143.909V149H732.905V143.909C732.905 143.527 732.808 143.227 732.615 143.011C732.422 142.792 732.162 142.682 731.837 142.682C731.621 142.682 731.435 142.731 731.28 142.83C731.125 142.928 731.003 143.07 730.916 143.256C730.833 143.437 730.791 143.655 730.791 143.909V149H727.655Z" fill="#181818" fill-opacity="0.75"/>
<g filter="url(#filter19_d_128_632)">
<rect x="688" y="180" width="72" height="72" rx="8" fill="white" fill-opacity="0.75" shape-rendering="crispEdges"/>
</g>
<path d="M706.795 221V212.273H709.932V221H706.795ZM708.364 211.364C707.939 211.364 707.576 211.223 707.273 210.943C706.97 210.663 706.818 210.326 706.818 209.932C706.818 209.538 706.97 209.201 707.273 208.92C707.576 208.64 707.939 208.5 708.364 208.5C708.792 208.5 709.155 208.64 709.455 208.92C709.758 209.201 709.909 209.538 709.909 209.932C709.909 210.326 709.758 210.663 709.455 210.943C709.155 211.223 708.792 211.364 708.364 211.364ZM716.734 212.273V214.545H710.984V212.273H716.734ZM712.098 210.182H715.234V218.193C715.234 218.314 715.255 218.417 715.297 218.5C715.339 218.58 715.403 218.64 715.49 218.682C715.577 218.72 715.689 218.739 715.825 218.739C715.92 218.739 716.03 218.727 716.155 218.705C716.284 218.682 716.378 218.663 716.439 218.648L716.893 220.852C716.753 220.894 716.553 220.945 716.291 221.006C716.034 221.066 715.727 221.106 715.371 221.125C714.651 221.163 714.047 221.089 713.558 220.903C713.07 220.714 712.702 220.417 712.456 220.011C712.21 219.606 712.09 219.098 712.098 218.489V210.182ZM722.102 221.159C721.17 221.159 720.367 220.981 719.693 220.625C719.023 220.265 718.506 219.75 718.142 219.08C717.782 218.405 717.602 217.598 717.602 216.659C717.602 215.758 717.784 214.97 718.148 214.295C718.511 213.621 719.025 213.097 719.688 212.722C720.35 212.347 721.133 212.159 722.034 212.159C722.693 212.159 723.29 212.261 723.824 212.466C724.358 212.67 724.814 212.968 725.193 213.358C725.572 213.744 725.864 214.214 726.068 214.767C726.273 215.32 726.375 215.943 726.375 216.636V217.364H718.58V215.636H723.489C723.485 215.386 723.42 215.167 723.295 214.977C723.174 214.784 723.009 214.634 722.801 214.528C722.597 214.419 722.364 214.364 722.102 214.364C721.848 214.364 721.616 214.419 721.403 214.528C721.191 214.634 721.021 214.782 720.892 214.972C720.767 215.161 720.701 215.383 720.693 215.636V217.5C720.693 217.78 720.752 218.03 720.869 218.25C720.987 218.47 721.155 218.642 721.375 218.767C721.595 218.892 721.86 218.955 722.17 218.955C722.386 218.955 722.583 218.924 722.761 218.864C722.943 218.803 723.098 218.716 723.227 218.602C723.356 218.485 723.451 218.345 723.511 218.182H726.375C726.277 218.788 726.044 219.314 725.676 219.761C725.309 220.205 724.822 220.549 724.216 220.795C723.614 221.038 722.909 221.159 722.102 221.159ZM727.655 221V212.273H730.632V213.932H730.723C730.905 213.386 731.215 212.955 731.655 212.636C732.094 212.318 732.617 212.159 733.223 212.159C733.837 212.159 734.365 212.322 734.808 212.648C735.251 212.97 735.518 213.398 735.609 213.932H735.7C735.848 213.398 736.162 212.97 736.643 212.648C737.125 212.322 737.689 212.159 738.337 212.159C739.174 212.159 739.852 212.428 740.371 212.966C740.893 213.504 741.155 214.22 741.155 215.114V221H738.018V215.909C738.018 215.527 737.922 215.227 737.729 215.011C737.536 214.792 737.276 214.682 736.95 214.682C736.628 214.682 736.373 214.792 736.183 215.011C735.998 215.227 735.905 215.527 735.905 215.909V221H732.905V215.909C732.905 215.527 732.808 215.227 732.615 215.011C732.422 214.792 732.162 214.682 731.837 214.682C731.621 214.682 731.435 214.731 731.28 214.83C731.125 214.928 731.003 215.07 730.916 215.256C730.833 215.437 730.791 215.655 730.791 215.909V221H727.655Z" fill="#181818" fill-opacity="0.75"/>
<path d="M537.773 21.1136H534.886C534.871 20.9356 534.809 20.7822 534.699 20.6534C534.589 20.5246 534.447 20.4261 534.273 20.358C534.102 20.286 533.913 20.25 533.705 20.25C533.436 20.25 533.205 20.2992 533.011 20.3977C532.818 20.4962 532.723 20.6364 532.727 20.8182C532.723 20.947 532.778 21.0663 532.892 21.1761C533.009 21.286 533.235 21.3712 533.568 21.4318L535.341 21.75C536.235 21.9129 536.9 22.1875 537.335 22.5739C537.775 22.9564 537.996 23.4697 538 24.1136C537.996 24.7348 537.811 25.2746 537.443 25.733C537.08 26.1875 536.581 26.5398 535.949 26.7898C535.32 27.036 534.602 27.1591 533.795 27.1591C532.462 27.1591 531.419 26.8864 530.665 26.3409C529.915 25.7955 529.496 25.0758 529.409 24.1818H532.523C532.564 24.4583 532.701 24.6723 532.932 24.8239C533.167 24.9716 533.462 25.0455 533.818 25.0455C534.106 25.0455 534.343 24.9962 534.528 24.8977C534.718 24.7992 534.814 24.6591 534.818 24.4773C534.814 24.3106 534.731 24.178 534.568 24.0795C534.409 23.9811 534.159 23.9015 533.818 23.8409L532.273 23.5682C531.383 23.4129 530.716 23.1174 530.273 22.6818C529.83 22.2462 529.61 21.6856 529.614 21C529.61 20.3939 529.769 19.8807 530.091 19.4602C530.417 19.036 530.881 18.714 531.483 18.4943C532.089 18.2708 532.807 18.1591 533.636 18.1591C534.898 18.1591 535.892 18.4205 536.619 18.9432C537.35 19.4659 537.735 20.1894 537.773 21.1136ZM539.202 30.2727V18.2727H542.315V19.7955H542.384C542.497 19.5 542.664 19.2292 542.884 18.983C543.103 18.733 543.376 18.5341 543.702 18.3864C544.027 18.2348 544.406 18.1591 544.838 18.1591C545.414 18.1591 545.961 18.3125 546.48 18.6193C547.003 18.9261 547.427 19.4091 547.753 20.0682C548.082 20.7273 548.247 21.5833 548.247 22.6364C548.247 23.6439 548.09 24.4792 547.776 25.142C547.465 25.8049 547.048 26.2992 546.526 26.625C546.007 26.9508 545.437 27.1136 544.815 27.1136C544.406 27.1136 544.041 27.0473 543.719 26.9148C543.401 26.7784 543.128 26.5947 542.901 26.3636C542.677 26.1288 542.505 25.8636 542.384 25.5682H542.338V30.2727H539.202ZM542.27 22.6364C542.27 23.0606 542.325 23.428 542.435 23.7386C542.548 24.0455 542.707 24.2841 542.912 24.4545C543.12 24.6212 543.368 24.7045 543.656 24.7045C543.944 24.7045 544.188 24.6231 544.389 24.4602C544.594 24.2936 544.749 24.0568 544.855 23.75C544.965 23.4394 545.02 23.0682 545.02 22.6364C545.02 22.2045 544.965 21.8352 544.855 21.5284C544.749 21.2178 544.594 20.9811 544.389 20.8182C544.188 20.6515 543.944 20.5682 543.656 20.5682C543.368 20.5682 543.12 20.6515 542.912 20.8182C542.707 20.9811 542.548 21.2178 542.435 21.5284C542.325 21.8352 542.27 22.2045 542.27 22.6364ZM551.993 27.1364C551.436 27.1364 550.944 27.0455 550.516 26.8636C550.091 26.678 549.758 26.3977 549.516 26.0227C549.273 25.6477 549.152 25.1705 549.152 24.5909C549.152 24.1136 549.233 23.7064 549.396 23.3693C549.559 23.0284 549.786 22.75 550.078 22.5341C550.37 22.3182 550.709 22.1534 551.095 22.0398C551.485 21.9261 551.906 21.8523 552.357 21.8182C552.845 21.7803 553.237 21.7348 553.533 21.6818C553.832 21.625 554.048 21.5473 554.18 21.4489C554.313 21.3466 554.379 21.2121 554.379 21.0455V21.0227C554.379 20.7955 554.292 20.6212 554.118 20.5C553.944 20.3788 553.72 20.3182 553.447 20.3182C553.148 20.3182 552.904 20.3845 552.714 20.517C552.529 20.6458 552.417 20.8447 552.379 21.1136H549.493C549.531 20.5833 549.699 20.0947 549.999 19.6477C550.302 19.197 550.743 18.8371 551.322 18.5682C551.902 18.2955 552.625 18.1591 553.493 18.1591C554.118 18.1591 554.679 18.233 555.175 18.3807C555.671 18.5246 556.093 18.7273 556.442 18.9886C556.79 19.2462 557.055 19.5492 557.237 19.8977C557.423 20.2424 557.516 20.6174 557.516 21.0227V27H554.584V25.7727H554.516C554.341 26.0985 554.129 26.3617 553.879 26.5625C553.633 26.7633 553.351 26.9091 553.033 27C552.718 27.0909 552.372 27.1364 551.993 27.1364ZM553.016 25.1591C553.254 25.1591 553.478 25.1098 553.686 25.0114C553.898 24.9129 554.071 24.7708 554.203 24.5852C554.336 24.3996 554.402 24.1742 554.402 23.9091V23.1818C554.319 23.2159 554.23 23.2481 554.135 23.2784C554.044 23.3087 553.946 23.3371 553.839 23.3636C553.737 23.3902 553.627 23.4148 553.51 23.4375C553.396 23.4602 553.277 23.4811 553.152 23.5C552.91 23.5379 552.711 23.6004 552.555 23.6875C552.404 23.7708 552.29 23.875 552.214 24C552.143 24.1212 552.107 24.2576 552.107 24.4091C552.107 24.6515 552.192 24.8371 552.362 24.9659C552.533 25.0947 552.75 25.1591 553.016 25.1591ZM563.219 27.1591C562.272 27.1591 561.461 26.9716 560.787 26.5966C560.113 26.2178 559.596 25.6913 559.236 25.017C558.876 24.339 558.696 23.553 558.696 22.6591C558.696 21.7652 558.876 20.9811 559.236 20.3068C559.596 19.6288 560.113 19.1023 560.787 18.7273C561.461 18.3485 562.272 18.1591 563.219 18.1591C564.075 18.1591 564.815 18.3144 565.44 18.625C566.069 18.9318 566.556 19.3674 566.901 19.9318C567.245 20.4924 567.42 21.1515 567.423 21.9091H564.514C564.473 21.4508 564.34 21.1023 564.116 20.8636C563.897 20.6212 563.613 20.5 563.264 20.5C562.991 20.5 562.753 20.5795 562.548 20.7386C562.344 20.8939 562.185 21.1307 562.071 21.4489C561.957 21.7633 561.901 22.1591 561.901 22.6364C561.901 23.1136 561.957 23.5114 562.071 23.8295C562.185 24.1439 562.344 24.3807 562.548 24.5398C562.753 24.6951 562.991 24.7727 563.264 24.7727C563.495 24.7727 563.7 24.7197 563.878 24.6136C564.056 24.5038 564.2 24.3447 564.31 24.1364C564.423 23.9242 564.491 23.6667 564.514 23.3636H567.423C567.412 24.1326 567.236 24.803 566.895 25.375C566.554 25.9432 566.071 26.3826 565.446 26.6932C564.825 27.0038 564.082 27.1591 563.219 27.1591ZM572.899 27.1591C571.967 27.1591 571.164 26.9811 570.49 26.625C569.82 26.2652 569.303 25.75 568.939 25.0795C568.579 24.4053 568.399 23.5985 568.399 22.6591C568.399 21.7576 568.581 20.9697 568.945 20.2955C569.308 19.6212 569.821 19.0966 570.484 18.7216C571.147 18.3466 571.929 18.1591 572.831 18.1591C573.49 18.1591 574.087 18.2614 574.621 18.4659C575.155 18.6705 575.611 18.9678 575.99 19.358C576.369 19.7443 576.661 20.214 576.865 20.767C577.07 21.3201 577.172 21.9432 577.172 22.6364V23.3636H569.376V21.6364H574.286C574.282 21.3864 574.217 21.1667 574.092 20.9773C573.971 20.7841 573.806 20.6345 573.598 20.5284C573.393 20.4186 573.161 20.3636 572.899 20.3636C572.645 20.3636 572.412 20.4186 572.2 20.5284C571.988 20.6345 571.818 20.7822 571.689 20.9716C571.564 21.161 571.498 21.3826 571.49 21.6364V23.5C571.49 23.7803 571.549 24.0303 571.666 24.25C571.784 24.4697 571.952 24.642 572.172 24.767C572.392 24.892 572.657 24.9545 572.967 24.9545C573.183 24.9545 573.38 24.9242 573.558 24.8636C573.74 24.803 573.895 24.7159 574.024 24.6023C574.153 24.4848 574.248 24.3447 574.308 24.1818H577.172C577.073 24.7879 576.84 25.3144 576.473 25.7614C576.106 26.2045 575.619 26.5492 575.013 26.7955C574.411 27.0379 573.706 27.1591 572.899 27.1591ZM584.179 21.1818V23.5455H578.724V21.1818H584.179ZM586 27V15.3636H589.136V19.7955H589.182C589.295 19.5 589.462 19.2292 589.682 18.983C589.902 18.733 590.174 18.5341 590.5 18.3864C590.826 18.2348 591.205 18.1591 591.636 18.1591C592.212 18.1591 592.759 18.3125 593.278 18.6193C593.801 18.9261 594.225 19.4091 594.551 20.0682C594.881 20.7273 595.045 21.5833 595.045 22.6364C595.045 23.6439 594.888 24.4792 594.574 25.142C594.263 25.8049 593.847 26.2992 593.324 26.625C592.805 26.9508 592.235 27.1136 591.614 27.1136C591.205 27.1136 590.839 27.0473 590.517 26.9148C590.199 26.7784 589.926 26.5947 589.699 26.3636C589.475 26.1288 589.303 25.8636 589.182 25.5682H589.114V27H586ZM589.068 22.6364C589.068 23.0606 589.123 23.428 589.233 23.7386C589.347 24.0455 589.506 24.2841 589.71 24.4545C589.919 24.6212 590.167 24.7045 590.455 24.7045C590.742 24.7045 590.987 24.6231 591.188 24.4602C591.392 24.2936 591.547 24.0568 591.653 23.75C591.763 23.4394 591.818 23.0682 591.818 22.6364C591.818 22.2045 591.763 21.8352 591.653 21.5284C591.547 21.2178 591.392 20.9811 591.188 20.8182C590.987 20.6515 590.742 20.5682 590.455 20.5682C590.167 20.5682 589.919 20.6515 589.71 20.8182C589.506 20.9811 589.347 21.2178 589.233 21.5284C589.123 21.8352 589.068 22.2045 589.068 22.6364ZM600.54 27.1591C599.608 27.1591 598.805 26.9811 598.131 26.625C597.46 26.2652 596.943 25.75 596.58 25.0795C596.22 24.4053 596.04 23.5985 596.04 22.6591C596.04 21.7576 596.222 20.9697 596.585 20.2955C596.949 19.6212 597.462 19.0966 598.125 18.7216C598.788 18.3466 599.57 18.1591 600.472 18.1591C601.131 18.1591 601.727 18.2614 602.261 18.4659C602.795 18.6705 603.252 18.9678 603.631 19.358C604.009 19.7443 604.301 20.214 604.506 20.767C604.71 21.3201 604.812 21.9432 604.812 22.6364V23.3636H597.017V21.6364H601.926C601.922 21.3864 601.858 21.1667 601.733 20.9773C601.612 20.7841 601.447 20.6345 601.239 20.5284C601.034 20.4186 600.801 20.3636 600.54 20.3636C600.286 20.3636 600.053 20.4186 599.841 20.5284C599.629 20.6345 599.458 20.7822 599.33 20.9716C599.205 21.161 599.138 21.3826 599.131 21.6364V23.5C599.131 23.7803 599.189 24.0303 599.307 24.25C599.424 24.4697 599.593 24.642 599.812 24.767C600.032 24.892 600.297 24.9545 600.608 24.9545C600.824 24.9545 601.021 24.9242 601.199 24.8636C601.381 24.803 601.536 24.7159 601.665 24.6023C601.794 24.4848 601.888 24.3447 601.949 24.1818H604.812C604.714 24.7879 604.481 25.3144 604.114 25.7614C603.746 26.2045 603.259 26.5492 602.653 26.7955C602.051 27.0379 601.347 27.1591 600.54 27.1591ZM611.297 18.2727V20.5455H605.547V18.2727H611.297ZM606.661 16.1818H609.797V24.1932C609.797 24.3144 609.818 24.4167 609.859 24.5C609.901 24.5795 609.965 24.6402 610.053 24.6818C610.14 24.7197 610.251 24.7386 610.388 24.7386C610.482 24.7386 610.592 24.7273 610.717 24.7045C610.846 24.6818 610.941 24.6629 611.001 24.6477L611.456 26.8523C611.316 26.8939 611.115 26.9451 610.854 27.0057C610.596 27.0663 610.289 27.1061 609.933 27.125C609.214 27.1629 608.609 27.089 608.121 26.9034C607.632 26.714 607.265 26.4167 607.018 26.0114C606.772 25.6061 606.653 25.0985 606.661 24.4886V16.1818ZM614.122 27L611.94 18.2727H615.077L616.077 23.5909H616.145L617.259 18.2727H620.304L621.463 23.5455H621.531L622.486 18.2727H625.622L623.44 27H620.054L618.827 22.3182H618.736L617.509 27H614.122ZM630.602 27.1591C629.67 27.1591 628.867 26.9811 628.193 26.625C627.523 26.2652 627.006 25.75 626.642 25.0795C626.282 24.4053 626.102 23.5985 626.102 22.6591C626.102 21.7576 626.284 20.9697 626.648 20.2955C627.011 19.6212 627.525 19.0966 628.188 18.7216C628.85 18.3466 629.633 18.1591 630.534 18.1591C631.193 18.1591 631.79 18.2614 632.324 18.4659C632.858 18.6705 633.314 18.9678 633.693 19.358C634.072 19.7443 634.364 20.214 634.568 20.767C634.773 21.3201 634.875 21.9432 634.875 22.6364V23.3636H627.08V21.6364H631.989C631.985 21.3864 631.92 21.1667 631.795 20.9773C631.674 20.7841 631.509 20.6345 631.301 20.5284C631.097 20.4186 630.864 20.3636 630.602 20.3636C630.348 20.3636 630.116 20.4186 629.903 20.5284C629.691 20.6345 629.521 20.7822 629.392 20.9716C629.267 21.161 629.201 21.3826 629.193 21.6364V23.5C629.193 23.7803 629.252 24.0303 629.369 24.25C629.487 24.4697 629.655 24.642 629.875 24.767C630.095 24.892 630.36 24.9545 630.67 24.9545C630.886 24.9545 631.083 24.9242 631.261 24.8636C631.443 24.803 631.598 24.7159 631.727 24.6023C631.856 24.4848 631.951 24.3447 632.011 24.1818H634.875C634.777 24.7879 634.544 25.3144 634.176 25.7614C633.809 26.2045 633.322 26.5492 632.716 26.7955C632.114 27.0379 631.409 27.1591 630.602 27.1591ZM640.337 27.1591C639.405 27.1591 638.602 26.9811 637.928 26.625C637.257 26.2652 636.74 25.75 636.376 25.0795C636.017 24.4053 635.837 23.5985 635.837 22.6591C635.837 21.7576 636.018 20.9697 636.382 20.2955C636.746 19.6212 637.259 19.0966 637.922 18.7216C638.585 18.3466 639.367 18.1591 640.268 18.1591C640.928 18.1591 641.524 18.2614 642.058 18.4659C642.592 18.6705 643.049 18.9678 643.428 19.358C643.806 19.7443 644.098 20.214 644.303 20.767C644.507 21.3201 644.609 21.9432 644.609 22.6364V23.3636H636.814V21.6364H641.723C641.719 21.3864 641.655 21.1667 641.53 20.9773C641.409 20.7841 641.244 20.6345 641.036 20.5284C640.831 20.4186 640.598 20.3636 640.337 20.3636C640.083 20.3636 639.85 20.4186 639.638 20.5284C639.426 20.6345 639.255 20.7822 639.126 20.9716C639.001 21.161 638.935 21.3826 638.928 21.6364V23.5C638.928 23.7803 638.986 24.0303 639.104 24.25C639.221 24.4697 639.39 24.642 639.609 24.767C639.829 24.892 640.094 24.9545 640.405 24.9545C640.621 24.9545 640.818 24.9242 640.996 24.8636C641.178 24.803 641.333 24.7159 641.462 24.6023C641.59 24.4848 641.685 24.3447 641.746 24.1818H644.609C644.511 24.7879 644.278 25.3144 643.911 25.7614C643.543 26.2045 643.056 26.5492 642.45 26.7955C641.848 27.0379 641.143 27.1591 640.337 27.1591ZM649.026 22.0909V27H645.889V18.2727H648.866V19.9318H648.957C649.147 19.3788 649.48 18.9451 649.957 18.6307C650.438 18.3163 650.999 18.1591 651.639 18.1591C652.257 18.1591 652.793 18.3011 653.247 18.5852C653.705 18.8655 654.06 19.2519 654.31 19.7443C654.563 20.2367 654.688 20.7992 654.685 21.4318V27H651.548V22.0909C651.552 21.6591 651.442 21.3201 651.219 21.0739C650.999 20.8277 650.692 20.7045 650.298 20.7045C650.041 20.7045 649.815 20.7614 649.622 20.875C649.433 20.9848 649.287 21.1439 649.185 21.3523C649.082 21.5568 649.029 21.803 649.026 22.0909Z" fill="#181818" fill-opacity="0.75"/>
<defs>
<filter id="filter0_d_128_632" x="0" y="0" width="384" height="376" filterUnits="userSpaceOnUse" color-interpolation-filters="sRGB">
<feFlood flood-opacity="0" result="BackgroundImageFix"/>
<feColorMatrix in="SourceAlpha" type="matrix" values="0 0 0 0 0 0 0 0 0 0 0 0 0 0 0 0 0 0 127 0" result="hardAlpha"/>
<feOffset dy="4"/>
<feGaussianBlur stdDeviation="4"/>
<feComposite in2="hardAlpha" operator="out"/>
<feColorMatrix type="matrix" values="0 0 0 0 0.129412 0 0 0 0 0.447059 0 0 0 0 1 0 0 0 0.25 0"/>
<feBlend mode="normal" in2="BackgroundImageFix" result="effect1_dropShadow_128_632"/>
<feBlend mode="normal" in="SourceGraphic" in2="effect1_dropShadow_128_632" result="shape"/>
</filter>
<filter id="filter1_d_128_632" x="148" y="176" width="88" height="88" filterUnits="userSpaceOnUse" color-interpolation-filters="sRGB">
<feFlood flood-opacity="0" result="BackgroundImageFix"/>
<feColorMatrix in="SourceAlpha" type="matrix" values="0 0 0 0 0 0 0 0 0 0 0 0 0 0 0 0 0 0 127 0" result="hardAlpha"/>
<feOffset dy="4"/>
<feGaussianBlur stdDeviation="4"/>
<feComposite in2="hardAlpha" operator="out"/>
<feColorMatrix type="matrix" values="0 0 0 0 1 0 0 0 0 1 0 0 0 0 1 0 0 0 0.25 0"/>
<feBlend mode="normal" in2="BackgroundImageFix" result="effect1_dropShadow_128_632"/>
<feBlend mode="normal" in="SourceGraphic" in2="effect1_dropShadow_128_632" result="shape"/>
</filter>
<filter id="filter2_d_128_632" x="148" y="32" width="88" height="88" filterUnits="userSpaceOnUse" color-interpolation-filters="sRGB">
<feFlood flood-opacity="0" result="BackgroundImageFix"/>
<feColorMatrix in="SourceAlpha" type="matrix" values="0 0 0 0 0 0 0 0 0 0 0 0 0 0 0 0 0 0 127 0" result="hardAlpha"/>
<feOffset dy="4"/>
<feGaussianBlur stdDeviation="4"/>
<feComposite in2="hardAlpha" operator="out"/>
<feColorMatrix type="matrix" values="0 0 0 0 1 0 0 0 0 1 0 0 0 0 1 0 0 0 0.25 0"/>
<feBlend mode="normal" in2="BackgroundImageFix" result="effect1_dropShadow_128_632"/>
<feBlend mode="normal" in="SourceGraphic" in2="effect1_dropShadow_128_632" result="shape"/>
</filter>
<filter id="filter3_d_128_632" x="76" y="176" width="88" height="88" filterUnits="userSpaceOnUse" color-interpolation-filters="sRGB">
<feFlood flood-opacity="0" result="BackgroundImageFix"/>
<feColorMatrix in="SourceAlpha" type="matrix" values="0 0 0 0 0 0 0 0 0 0 0 0 0 0 0 0 0 0 127 0" result="hardAlpha"/>
<feOffset dy="4"/>
<feGaussianBlur stdDeviation="4"/>
<feComposite in2="hardAlpha" operator="out"/>
<feColorMatrix type="matrix" values="0 0 0 0 1 0 0 0 0 1 0 0 0 0 1 0 0 0 0.25 0"/>
<feBlend mode="normal" in2="BackgroundImageFix" result="effect1_dropShadow_128_632"/>
<feBlend mode="normal" in="SourceGraphic" in2="effect1_dropShadow_128_632" result="shape"/>
</filter>
<filter id="filter4_d_128_632" x="76" y="32" width="88" height="88" filterUnits="userSpaceOnUse" color-interpolation-filters="sRGB">
<feFlood flood-opacity="0" result="BackgroundImageFix"/>
<feColorMatrix in="SourceAlpha" type="matrix" values="0 0 0 0 0 0 0 0 0 0 0 0 0 0 0 0 0 0 127 0" result="hardAlpha"/>
<feOffset dy="4"/>
<feGaussianBlur stdDeviation="4"/>
<feComposite in2="hardAlpha" operator="out"/>
<feColorMatrix type="matrix" values="0 0 0 0 1 0 0 0 0 1 0 0 0 0 1 0 0 0 0.25 0"/>
<feBlend mode="normal" in2="BackgroundImageFix" result="effect1_dropShadow_128_632"/>
<feBlend mode="normal" in="SourceGraphic" in2="effect1_dropShadow_128_632" result="shape"/>
</filter>
<filter id="filter5_d_128_632" x="220" y="32" width="88" height="88" filterUnits="userSpaceOnUse" color-interpolation-filters="sRGB">
<feFlood flood-opacity="0" result="BackgroundImageFix"/>
<feColorMatrix in="SourceAlpha" type="matrix" values="0 0 0 0 0 0 0 0 0 0 0 0 0 0 0 0 0 0 127 0" result="hardAlpha"/>
<feOffset dy="4"/>
<feGaussianBlur stdDeviation="4"/>
<feComposite in2="hardAlpha" operator="out"/>
<feColorMatrix type="matrix" values="0 0 0 0 1 0 0 0 0 1 0 0 0 0 1 0 0 0 0.25 0"/>
<feBlend mode="normal" in2="BackgroundImageFix" result="effect1_dropShadow_128_632"/>
<feBlend mode="normal" in="SourceGraphic" in2="effect1_dropShadow_128_632" result="shape"/>
</filter>
<filter id="filter6_d_128_632" x="148" y="104" width="88" height="88" filterUnits="userSpaceOnUse" color-interpolation-filters="sRGB">
<feFlood flood-opacity="0" result="BackgroundImageFix"/>
<feColorMatrix in="SourceAlpha" type="matrix" values="0 0 0 0 0 0 0 0 0 0 0 0 0 0 0 0 0 0 127 0" result="hardAlpha"/>
<feOffset dy="4"/>
<feGaussianBlur stdDeviation="4"/>
<feComposite in2="hardAlpha" operator="out"/>
<feColorMatrix type="matrix" values="0 0 0 0 1 0 0 0 0 1 0 0 0 0 1 0 0 0 0.25 0"/>
<feBlend mode="normal" in2="BackgroundImageFix" result="effect1_dropShadow_128_632"/>
<feBlend mode="normal" in="SourceGraphic" in2="effect1_dropShadow_128_632" result="shape"/>
</filter>
<filter id="filter7_d_128_632" x="76" y="104" width="88" height="88" filterUnits="userSpaceOnUse" color-interpolation-filters="sRGB">
<feFlood flood-opacity="0" result="BackgroundImageFix"/>
<feColorMatrix in="SourceAlpha" type="matrix" values="0 0 0 0 0 0 0 0 0 0 0 0 0 0 0 0 0 0 127 0" result="hardAlpha"/>
<feOffset dy="4"/>
<feGaussianBlur stdDeviation="4"/>
<feComposite in2="hardAlpha" operator="out"/>
<feColorMatrix type="matrix" values="0 0 0 0 1 0 0 0 0 1 0 0 0 0 1 0 0 0 0.25 0"/>
<feBlend mode="normal" in2="BackgroundImageFix" result="effect1_dropShadow_128_632"/>
<feBlend mode="normal" in="SourceGraphic" in2="effect1_dropShadow_128_632" result="shape"/>
</filter>
<filter id="filter8_d_128_632" x="220" y="104" width="88" height="88" filterUnits="userSpaceOnUse" color-interpolation-filters="sRGB">
<feFlood flood-opacity="0" result="BackgroundImageFix"/>
<feColorMatrix in="SourceAlpha" type="matrix" values="0 0 0 0 0 0 0 0 0 0 0 0 0 0 0 0 0 0 127 0" result="hardAlpha"/>
<feOffset dy="4"/>
<feGaussianBlur stdDeviation="4"/>
<feComposite in2="hardAlpha" operator="out"/>
<feColorMatrix type="matrix" values="0 0 0 0 1 0 0 0 0 1 0 0 0 0 1 0 0 0 0.25 0"/>
<feBlend mode="normal" in2="BackgroundImageFix" result="effect1_dropShadow_128_632"/>
<feBlend mode="normal" in="SourceGraphic" in2="effect1_dropShadow_128_632" result="shape"/>
</filter>
<filter id="filter9_d_128_632" x="220" y="176" width="88" height="88" filterUnits="userSpaceOnUse" color-interpolation-filters="sRGB">
<feFlood flood-opacity="0" result="BackgroundImageFix"/>
<feColorMatrix in="SourceAlpha" type="matrix" values="0 0 0 0 0 0 0 0 0 0 0 0 0 0 0 0 0 0 127 0" result="hardAlpha"/>
<feOffset dy="4"/>
<feGaussianBlur stdDeviation="4"/>
<feComposite in2="hardAlpha" operator="out"/>
<feColorMatrix type="matrix" values="0 0 0 0 1 0 0 0 0 1 0 0 0 0 1 0 0 0 0.25 0"/>
<feBlend mode="normal" in2="BackgroundImageFix" result="effect1_dropShadow_128_632"/>
<feBlend mode="normal" in="SourceGraphic" in2="effect1_dropShadow_128_632" result="shape"/>
</filter>
<filter id="filter10_d_128_632" x="400" y="0" width="384" height="376" filterUnits="userSpaceOnUse" color-interpolation-filters="sRGB">
<feFlood flood-opacity="0" result="BackgroundImageFix"/>
<feColorMatrix in="SourceAlpha" type="matrix" values="0 0 0 0 0 0 0 0 0 0 0 0 0 0 0 0 0 0 127 0" result="hardAlpha"/>
<feOffset dy="4"/>
<feGaussianBlur stdDeviation="4"/>
<feComposite in2="hardAlpha" operator="out"/>
<feColorMatrix type="matrix" values="0 0 0 0 0.129412 0 0 0 0 0.447059 0 0 0 0 1 0 0 0 0.25 0"/>
<feBlend mode="normal" in2="BackgroundImageFix" result="effect1_dropShadow_128_632"/>
<feBlend mode="normal" in="SourceGraphic" in2="effect1_dropShadow_128_632" result="shape"/>
</filter>
<filter id="filter11_d_128_632" x="548" y="176" width="88" height="88" filterUnits="userSpaceOnUse" color-interpolation-filters="sRGB">
<feFlood flood-opacity="0" result="BackgroundImageFix"/>
<feColorMatrix in="SourceAlpha" type="matrix" values="0 0 0 0 0 0 0 0 0 0 0 0 0 0 0 0 0 0 127 0" result="hardAlpha"/>
<feOffset dy="4"/>
<feGaussianBlur stdDeviation="4"/>
<feComposite in2="hardAlpha" operator="out"/>
<feColorMatrix type="matrix" values="0 0 0 0 1 0 0 0 0 1 0 0 0 0 1 0 0 0 0.25 0"/>
<feBlend mode="normal" in2="BackgroundImageFix" result="effect1_dropShadow_128_632"/>
<feBlend mode="normal" in="SourceGraphic" in2="effect1_dropShadow_128_632" result="shape"/>
</filter>
<filter id="filter12_d_128_632" x="548" y="32" width="88" height="88" filterUnits="userSpaceOnUse" color-interpolation-filters="sRGB">
<feFlood flood-opacity="0" result="BackgroundImageFix"/>
<feColorMatrix in="SourceAlpha" type="matrix" values="0 0 0 0 0 0 0 0 0 0 0 0 0 0 0 0 0 0 127 0" result="hardAlpha"/>
<feOffset dy="4"/>
<feGaussianBlur stdDeviation="4"/>
<feComposite in2="hardAlpha" operator="out"/>
<feColorMatrix type="matrix" values="0 0 0 0 1 0 0 0 0 1 0 0 0 0 1 0 0 0 0.25 0"/>
<feBlend mode="normal" in2="BackgroundImageFix" result="effect1_dropShadow_128_632"/>
<feBlend mode="normal" in="SourceGraphic" in2="effect1_dropShadow_128_632" result="shape"/>
</filter>
<filter id="filter13_d_128_632" x="416" y="176" width="88" height="88" filterUnits="userSpaceOnUse" color-interpolation-filters="sRGB">
<feFlood flood-opacity="0" result="BackgroundImageFix"/>
<feColorMatrix in="SourceAlpha" type="matrix" values="0 0 0 0 0 0 0 0 0 0 0 0 0 0 0 0 0 0 127 0" result="hardAlpha"/>
<feOffset dy="4"/>
<feGaussianBlur stdDeviation="4"/>
<feComposite in2="hardAlpha" operator="out"/>
<feColorMatrix type="matrix" values="0 0 0 0 1 0 0 0 0 1 0 0 0 0 1 0 0 0 0.25 0"/>
<feBlend mode="normal" in2="BackgroundImageFix" result="effect1_dropShadow_128_632"/>
<feBlend mode="normal" in="SourceGraphic" in2="effect1_dropShadow_128_632" result="shape"/>
</filter>
<filter id="filter14_d_128_632" x="416" y="32" width="88" height="88" filterUnits="userSpaceOnUse" color-interpolation-filters="sRGB">
<feFlood flood-opacity="0" result="BackgroundImageFix"/>
<feColorMatrix in="SourceAlpha" type="matrix" values="0 0 0 0 0 0 0 0 0 0 0 0 0 0 0 0 0 0 127 0" result="hardAlpha"/>
<feOffset dy="4"/>
<feGaussianBlur stdDeviation="4"/>
<feComposite in2="hardAlpha" operator="out"/>
<feColorMatrix type="matrix" values="0 0 0 0 1 0 0 0 0 1 0 0 0 0 1 0 0 0 0.25 0"/>
<feBlend mode="normal" in2="BackgroundImageFix" result="effect1_dropShadow_128_632"/>
<feBlend mode="normal" in="SourceGraphic" in2="effect1_dropShadow_128_632" result="shape"/>
</filter>
<filter id="filter15_d_128_632" x="680" y="32" width="88" height="88" filterUnits="userSpaceOnUse" color-interpolation-filters="sRGB">
<feFlood flood-opacity="0" result="BackgroundImageFix"/>
<feColorMatrix in="SourceAlpha" type="matrix" values="0 0 0 0 0 0 0 0 0 0 0 0 0 0 0 0 0 0 127 0" result="hardAlpha"/>
<feOffset dy="4"/>
<feGaussianBlur stdDeviation="4"/>
<feComposite in2="hardAlpha" operator="out"/>
<feColorMatrix type="matrix" values="0 0 0 0 1 0 0 0 0 1 0 0 0 0 1 0 0 0 0.25 0"/>
<feBlend mode="normal" in2="BackgroundImageFix" result="effect1_dropShadow_128_632"/>
<feBlend mode="normal" in="SourceGraphic" in2="effect1_dropShadow_128_632" result="shape"/>
</filter>
<filter id="filter16_d_128_632" x="548" y="104" width="88" height="88" filterUnits="userSpaceOnUse" color-interpolation-filters="sRGB">
<feFlood flood-opacity="0" result="BackgroundImageFix"/>
<feColorMatrix in="SourceAlpha" type="matrix" values="0 0 0 0 0 0 0 0 0 0 0 0 0 0 0 0 0 0 127 0" result="hardAlpha"/>
<feOffset dy="4"/>
<feGaussianBlur stdDeviation="4"/>
<feComposite in2="hardAlpha" operator="out"/>
<feColorMatrix type="matrix" values="0 0 0 0 1 0 0 0 0 1 0 0 0 0 1 0 0 0 0.25 0"/>
<feBlend mode="normal" in2="BackgroundImageFix" result="effect1_dropShadow_128_632"/>
<feBlend mode="normal" in="SourceGraphic" in2="effect1_dropShadow_128_632" result="shape"/>
</filter>
<filter id="filter17_d_128_632" x="416" y="104" width="88" height="88" filterUnits="userSpaceOnUse" color-interpolation-filters="sRGB">
<feFlood flood-opacity="0" result="BackgroundImageFix"/>
<feColorMatrix in="SourceAlpha" type="matrix" values="0 0 0 0 0 0 0 0 0 0 0 0 0 0 0 0 0 0 127 0" result="hardAlpha"/>
<feOffset dy="4"/>
<feGaussianBlur stdDeviation="4"/>
<feComposite in2="hardAlpha" operator="out"/>
<feColorMatrix type="matrix" values="0 0 0 0 1 0 0 0 0 1 0 0 0 0 1 0 0 0 0.25 0"/>
<feBlend mode="normal" in2="BackgroundImageFix" result="effect1_dropShadow_128_632"/>
<feBlend mode="normal" in="SourceGraphic" in2="effect1_dropShadow_128_632" result="shape"/>
</filter>
<filter id="filter18_d_128_632" x="680" y="104" width="88" height="88" filterUnits="userSpaceOnUse" color-interpolation-filters="sRGB">
<feFlood flood-opacity="0" result="BackgroundImageFix"/>
<feColorMatrix in="SourceAlpha" type="matrix" values="0 0 0 0 0 0 0 0 0 0 0 0 0 0 0 0 0 0 127 0" result="hardAlpha"/>
<feOffset dy="4"/>
<feGaussianBlur stdDeviation="4"/>
<feComposite in2="hardAlpha" operator="out"/>
<feColorMatrix type="matrix" values="0 0 0 0 1 0 0 0 0 1 0 0 0 0 1 0 0 0 0.25 0"/>
<feBlend mode="normal" in2="BackgroundImageFix" result="effect1_dropShadow_128_632"/>
<feBlend mode="normal" in="SourceGraphic" in2="effect1_dropShadow_128_632" result="shape"/>
</filter>
<filter id="filter19_d_128_632" x="680" y="176" width="88" height="88" filterUnits="userSpaceOnUse" color-interpolation-filters="sRGB">
<feFlood flood-opacity="0" result="BackgroundImageFix"/>
<feColorMatrix in="SourceAlpha" type="matrix" values="0 0 0 0 0 0 0 0 0 0 0 0 0 0 0 0 0 0 127 0" result="hardAlpha"/>
<feOffset dy="4"/>
<feGaussianBlur stdDeviation="4"/>
<feComposite in2="hardAlpha" operator="out"/>
<feColorMatrix type="matrix" values="0 0 0 0 1 0 0 0 0 1 0 0 0 0 1 0 0 0 0.25 0"/>
<feBlend mode="normal" in2="BackgroundImageFix" result="effect1_dropShadow_128_632"/>
<feBlend mode="normal" in="SourceGraphic" in2="effect1_dropShadow_128_632" result="shape"/>
</filter>
</defs>
</svg>
