<svg width="528" height="432" viewBox="0 0 528 432" fill="none" xmlns="http://www.w3.org/2000/svg">
<g filter="url(#filter0_d_121_159)">
<rect x="8" y="4" width="512" height="416" rx="8" fill="#2172FF" fill-opacity="0.8" shape-rendering="crispEdges"/>
</g>
<g filter="url(#filter1_d_121_159)">
<rect x="24" y="20" width="96" height="288" rx="8" fill="white" fill-opacity="0.75" shape-rendering="crispEdges"/>
</g>
<path d="M50.7955 74V65.2727H53.9318V74H50.7955ZM52.3636 64.3636C51.9394 64.3636 51.5758 64.2235 51.2727 63.9432C50.9697 63.6629 50.8182 63.3258 50.8182 62.9318C50.8182 62.5379 50.9697 62.2008 51.2727 61.9205C51.5758 61.6402 51.9394 61.5 52.3636 61.5C52.7917 61.5 53.1553 61.6402 53.4545 61.9205C53.7576 62.2008 53.9091 62.5379 53.9091 62.9318C53.9091 63.3258 53.7576 63.6629 53.4545 63.9432C53.1553 64.2235 52.7917 64.3636 52.3636 64.3636ZM60.7344 65.2727V67.5455H54.9844V65.2727H60.7344ZM56.098 63.1818H59.2344V71.1932C59.2344 71.3144 59.2552 71.4167 59.2969 71.5C59.3385 71.5795 59.4029 71.6402 59.4901 71.6818C59.5772 71.7197 59.6889 71.7386 59.8253 71.7386C59.92 71.7386 60.0298 71.7273 60.1548 71.7045C60.2836 71.6818 60.3783 71.6629 60.4389 71.6477L60.8935 73.8523C60.7533 73.8939 60.5526 73.9451 60.2912 74.0057C60.0336 74.0663 59.7268 74.1061 59.3707 74.125C58.651 74.1629 58.0469 74.089 57.5582 73.9034C57.0696 73.714 56.7022 73.4167 56.456 73.0114C56.2098 72.6061 56.0904 72.0985 56.098 71.4886V63.1818ZM66.1023 74.1591C65.1705 74.1591 64.3674 73.9811 63.6932 73.625C63.0227 73.2652 62.5057 72.75 62.142 72.0795C61.7822 71.4053 61.6023 70.5985 61.6023 69.6591C61.6023 68.7576 61.7841 67.9697 62.1477 67.2955C62.5114 66.6212 63.0246 66.0966 63.6875 65.7216C64.3504 65.3466 65.1326 65.1591 66.0341 65.1591C66.6932 65.1591 67.2898 65.2614 67.8239 65.4659C68.358 65.6705 68.8144 65.9678 69.1932 66.358C69.572 66.7443 69.8636 67.214 70.0682 67.767C70.2727 68.3201 70.375 68.9432 70.375 69.6364V70.3636H62.5795V68.6364H67.4886C67.4848 68.3864 67.4205 68.1667 67.2955 67.9773C67.1742 67.7841 67.0095 67.6345 66.8011 67.5284C66.5966 67.4186 66.3636 67.3636 66.1023 67.3636C65.8485 67.3636 65.6155 67.4186 65.4034 67.5284C65.1913 67.6345 65.0208 67.7822 64.892 67.9716C64.767 68.161 64.7008 68.3826 64.6932 68.6364V70.5C64.6932 70.7803 64.7519 71.0303 64.8693 71.25C64.9867 71.4697 65.1553 71.642 65.375 71.767C65.5947 71.892 65.8598 71.9545 66.1705 71.9545C66.3864 71.9545 66.5833 71.9242 66.7614 71.8636C66.9432 71.803 67.0985 71.7159 67.2273 71.6023C67.3561 71.4848 67.4508 71.3447 67.5114 71.1818H70.375C70.2765 71.7879 70.0436 72.3144 69.6761 72.7614C69.3087 73.2045 68.822 73.5492 68.2159 73.7955C67.6136 74.0379 66.9091 74.1591 66.1023 74.1591ZM71.6548 74V65.2727H74.6321V66.9318H74.723C74.9048 66.3864 75.2154 65.9545 75.6548 65.6364C76.0942 65.3182 76.617 65.1591 77.223 65.1591C77.8366 65.1591 78.3651 65.322 78.8082 65.6477C79.2514 65.9697 79.5185 66.3977 79.6094 66.9318H79.7003C79.848 66.3977 80.1624 65.9697 80.6435 65.6477C81.1245 65.322 81.6889 65.1591 82.3366 65.1591C83.1738 65.1591 83.8518 65.428 84.3707 65.9659C84.8935 66.5038 85.1548 67.2197 85.1548 68.1136V74H82.0185V68.9091C82.0185 68.5265 81.9219 68.2273 81.7287 68.0114C81.5355 67.7917 81.276 67.6818 80.9503 67.6818C80.6283 67.6818 80.3726 67.7917 80.1832 68.0114C79.9976 68.2273 79.9048 68.5265 79.9048 68.9091V74H76.9048V68.9091C76.9048 68.5265 76.8082 68.2273 76.6151 68.0114C76.4219 67.7917 76.1624 67.6818 75.8366 67.6818C75.6207 67.6818 75.4351 67.7311 75.2798 67.8295C75.1245 67.928 75.0033 68.0701 74.9162 68.2557C74.8329 68.4375 74.7912 68.6553 74.7912 68.9091V74H71.6548ZM91.7429 62.3636V74H88.5838V65.2727H88.5156L85.9702 66.7955V64.1136L88.8338 62.3636H91.7429Z" fill="#181818" fill-opacity="0.75"/>
<g filter="url(#filter2_d_121_159)">
<rect x="120" y="116" width="288" height="192" rx="8" fill="white" fill-opacity="0.75" shape-rendering="crispEdges"/>
</g>
<path d="M145.795 170V161.273H148.932V170H145.795ZM147.364 160.364C146.939 160.364 146.576 160.223 146.273 159.943C145.97 159.663 145.818 159.326 145.818 158.932C145.818 158.538 145.97 158.201 146.273 157.92C146.576 157.64 146.939 157.5 147.364 157.5C147.792 157.5 148.155 157.64 148.455 157.92C148.758 158.201 148.909 158.538 148.909 158.932C148.909 159.326 148.758 159.663 148.455 159.943C148.155 160.223 147.792 160.364 147.364 160.364ZM155.734 161.273V163.545H149.984V161.273H155.734ZM151.098 159.182H154.234V167.193C154.234 167.314 154.255 167.417 154.297 167.5C154.339 167.58 154.403 167.64 154.49 167.682C154.577 167.72 154.689 167.739 154.825 167.739C154.92 167.739 155.03 167.727 155.155 167.705C155.284 167.682 155.378 167.663 155.439 167.648L155.893 169.852C155.753 169.894 155.553 169.945 155.291 170.006C155.034 170.066 154.727 170.106 154.371 170.125C153.651 170.163 153.047 170.089 152.558 169.903C152.07 169.714 151.702 169.417 151.456 169.011C151.21 168.606 151.09 168.098 151.098 167.489V159.182ZM161.102 170.159C160.17 170.159 159.367 169.981 158.693 169.625C158.023 169.265 157.506 168.75 157.142 168.08C156.782 167.405 156.602 166.598 156.602 165.659C156.602 164.758 156.784 163.97 157.148 163.295C157.511 162.621 158.025 162.097 158.688 161.722C159.35 161.347 160.133 161.159 161.034 161.159C161.693 161.159 162.29 161.261 162.824 161.466C163.358 161.67 163.814 161.968 164.193 162.358C164.572 162.744 164.864 163.214 165.068 163.767C165.273 164.32 165.375 164.943 165.375 165.636V166.364H157.58V164.636H162.489C162.485 164.386 162.42 164.167 162.295 163.977C162.174 163.784 162.009 163.634 161.801 163.528C161.597 163.419 161.364 163.364 161.102 163.364C160.848 163.364 160.616 163.419 160.403 163.528C160.191 163.634 160.021 163.782 159.892 163.972C159.767 164.161 159.701 164.383 159.693 164.636V166.5C159.693 166.78 159.752 167.03 159.869 167.25C159.987 167.47 160.155 167.642 160.375 167.767C160.595 167.892 160.86 167.955 161.17 167.955C161.386 167.955 161.583 167.924 161.761 167.864C161.943 167.803 162.098 167.716 162.227 167.602C162.356 167.485 162.451 167.345 162.511 167.182H165.375C165.277 167.788 165.044 168.314 164.676 168.761C164.309 169.205 163.822 169.549 163.216 169.795C162.614 170.038 161.909 170.159 161.102 170.159ZM166.655 170V161.273H169.632V162.932H169.723C169.905 162.386 170.215 161.955 170.655 161.636C171.094 161.318 171.617 161.159 172.223 161.159C172.837 161.159 173.365 161.322 173.808 161.648C174.251 161.97 174.518 162.398 174.609 162.932H174.7C174.848 162.398 175.162 161.97 175.643 161.648C176.125 161.322 176.689 161.159 177.337 161.159C178.174 161.159 178.852 161.428 179.371 161.966C179.893 162.504 180.155 163.22 180.155 164.114V170H177.018V164.909C177.018 164.527 176.922 164.227 176.729 164.011C176.536 163.792 176.276 163.682 175.95 163.682C175.628 163.682 175.373 163.792 175.183 164.011C174.998 164.227 174.905 164.527 174.905 164.909V170H171.905V164.909C171.905 164.527 171.808 164.227 171.615 164.011C171.422 163.792 171.162 163.682 170.837 163.682C170.621 163.682 170.435 163.731 170.28 163.83C170.125 163.928 170.003 164.07 169.916 164.256C169.833 164.437 169.791 164.655 169.791 164.909V170H166.655ZM186.224 170.159C185.308 170.159 184.493 170.002 183.781 169.688C183.073 169.369 182.516 168.932 182.111 168.375C181.705 167.818 181.501 167.178 181.497 166.455H184.679C184.683 166.678 184.751 166.879 184.884 167.057C185.02 167.231 185.205 167.367 185.44 167.466C185.675 167.564 185.944 167.614 186.247 167.614C186.539 167.614 186.796 167.562 187.02 167.46C187.243 167.354 187.418 167.208 187.543 167.023C187.668 166.837 187.728 166.625 187.724 166.386C187.728 166.152 187.656 165.943 187.509 165.761C187.365 165.58 187.162 165.437 186.901 165.335C186.639 165.233 186.338 165.182 185.997 165.182H184.815V163H185.997C186.312 163 186.588 162.949 186.827 162.847C187.069 162.744 187.257 162.602 187.389 162.42C187.526 162.239 187.592 162.03 187.588 161.795C187.592 161.568 187.537 161.367 187.423 161.193C187.31 161.019 187.151 160.883 186.946 160.784C186.745 160.686 186.512 160.636 186.247 160.636C185.959 160.636 185.702 160.687 185.474 160.79C185.251 160.892 185.075 161.034 184.946 161.216C184.817 161.398 184.751 161.606 184.747 161.841H181.724C181.728 161.129 181.923 160.5 182.31 159.955C182.7 159.409 183.234 158.981 183.912 158.67C184.59 158.36 185.368 158.205 186.247 158.205C187.107 158.205 187.866 158.35 188.526 158.642C189.188 158.934 189.705 159.335 190.077 159.847C190.452 160.354 190.637 160.936 190.634 161.591C190.641 162.242 190.418 162.777 189.963 163.193C189.512 163.61 188.94 163.856 188.247 163.932V164.023C189.187 164.125 189.893 164.413 190.366 164.886C190.84 165.356 191.073 165.947 191.065 166.659C191.069 167.341 190.865 167.945 190.452 168.472C190.043 168.998 189.473 169.411 188.741 169.71C188.014 170.009 187.175 170.159 186.224 170.159Z" fill="#181818" fill-opacity="0.75"/>
<g filter="url(#filter3_d_121_159)">
<rect x="120" y="308" width="96" height="96" rx="8" fill="white" fill-opacity="0.75" shape-rendering="crispEdges"/>
</g>
<path d="M141.795 362V353.273H144.932V362H141.795ZM143.364 352.364C142.939 352.364 142.576 352.223 142.273 351.943C141.97 351.663 141.818 351.326 141.818 350.932C141.818 350.538 141.97 350.201 142.273 349.92C142.576 349.64 142.939 349.5 143.364 349.5C143.792 349.5 144.155 349.64 144.455 349.92C144.758 350.201 144.909 350.538 144.909 350.932C144.909 351.326 144.758 351.663 144.455 351.943C144.155 352.223 143.792 352.364 143.364 352.364ZM151.734 353.273V355.545H145.984V353.273H151.734ZM147.098 351.182H150.234V359.193C150.234 359.314 150.255 359.417 150.297 359.5C150.339 359.58 150.403 359.64 150.49 359.682C150.577 359.72 150.689 359.739 150.825 359.739C150.92 359.739 151.03 359.727 151.155 359.705C151.284 359.682 151.378 359.663 151.439 359.648L151.893 361.852C151.753 361.894 151.553 361.945 151.291 362.006C151.034 362.066 150.727 362.106 150.371 362.125C149.651 362.163 149.047 362.089 148.558 361.903C148.07 361.714 147.702 361.417 147.456 361.011C147.21 360.606 147.09 360.098 147.098 359.489V351.182ZM157.102 362.159C156.17 362.159 155.367 361.981 154.693 361.625C154.023 361.265 153.506 360.75 153.142 360.08C152.782 359.405 152.602 358.598 152.602 357.659C152.602 356.758 152.784 355.97 153.148 355.295C153.511 354.621 154.025 354.097 154.688 353.722C155.35 353.347 156.133 353.159 157.034 353.159C157.693 353.159 158.29 353.261 158.824 353.466C159.358 353.67 159.814 353.968 160.193 354.358C160.572 354.744 160.864 355.214 161.068 355.767C161.273 356.32 161.375 356.943 161.375 357.636V358.364H153.58V356.636H158.489C158.485 356.386 158.42 356.167 158.295 355.977C158.174 355.784 158.009 355.634 157.801 355.528C157.597 355.419 157.364 355.364 157.102 355.364C156.848 355.364 156.616 355.419 156.403 355.528C156.191 355.634 156.021 355.782 155.892 355.972C155.767 356.161 155.701 356.383 155.693 356.636V358.5C155.693 358.78 155.752 359.03 155.869 359.25C155.987 359.47 156.155 359.642 156.375 359.767C156.595 359.892 156.86 359.955 157.17 359.955C157.386 359.955 157.583 359.924 157.761 359.864C157.943 359.803 158.098 359.716 158.227 359.602C158.356 359.485 158.451 359.345 158.511 359.182H161.375C161.277 359.788 161.044 360.314 160.676 360.761C160.309 361.205 159.822 361.549 159.216 361.795C158.614 362.038 157.909 362.159 157.102 362.159ZM162.655 362V353.273H165.632V354.932H165.723C165.905 354.386 166.215 353.955 166.655 353.636C167.094 353.318 167.617 353.159 168.223 353.159C168.837 353.159 169.365 353.322 169.808 353.648C170.251 353.97 170.518 354.398 170.609 354.932H170.7C170.848 354.398 171.162 353.97 171.643 353.648C172.125 353.322 172.689 353.159 173.337 353.159C174.174 353.159 174.852 353.428 175.371 353.966C175.893 354.504 176.155 355.22 176.155 356.114V362H173.018V356.909C173.018 356.527 172.922 356.227 172.729 356.011C172.536 355.792 172.276 355.682 171.95 355.682C171.628 355.682 171.373 355.792 171.183 356.011C170.998 356.227 170.905 356.527 170.905 356.909V362H167.905V356.909C167.905 356.527 167.808 356.227 167.615 356.011C167.422 355.792 167.162 355.682 166.837 355.682C166.621 355.682 166.435 355.731 166.28 355.83C166.125 355.928 166.003 356.07 165.916 356.256C165.833 356.437 165.791 356.655 165.791 356.909V362H162.655ZM182.543 362.159C181.865 362.159 181.221 362.053 180.611 361.841C180.005 361.625 179.467 361.286 178.997 360.824C178.527 360.362 178.158 359.759 177.889 359.017C177.624 358.275 177.493 357.375 177.497 356.318C177.501 355.375 177.622 354.527 177.861 353.773C178.103 353.019 178.446 352.377 178.889 351.847C179.336 351.316 179.87 350.911 180.491 350.631C181.113 350.347 181.804 350.205 182.565 350.205C183.421 350.205 184.175 350.369 184.827 350.699C185.478 351.028 185.997 351.47 186.384 352.023C186.774 352.572 187.001 353.178 187.065 353.841H183.952C183.88 353.511 183.713 353.271 183.452 353.119C183.194 352.964 182.899 352.886 182.565 352.886C181.902 352.886 181.416 353.174 181.105 353.75C180.798 354.326 180.641 355.083 180.634 356.023H180.702C180.849 355.667 181.073 355.362 181.372 355.108C181.671 354.854 182.02 354.659 182.418 354.523C182.815 354.386 183.236 354.318 183.679 354.318C184.384 354.318 184.999 354.477 185.526 354.795C186.056 355.114 186.469 355.549 186.764 356.102C187.06 356.655 187.205 357.288 187.202 358C187.205 358.833 187.009 359.562 186.611 360.188C186.217 360.812 185.67 361.297 184.969 361.642C184.268 361.987 183.459 362.159 182.543 362.159ZM182.52 359.773C182.834 359.773 183.113 359.701 183.355 359.557C183.601 359.413 183.793 359.216 183.929 358.966C184.069 358.716 184.137 358.432 184.134 358.114C184.137 357.792 184.069 357.508 183.929 357.261C183.793 357.011 183.601 356.814 183.355 356.67C183.113 356.527 182.834 356.455 182.52 356.455C182.289 356.455 182.075 356.496 181.878 356.58C181.685 356.659 181.516 356.775 181.372 356.926C181.228 357.074 181.115 357.25 181.031 357.455C180.952 357.655 180.91 357.875 180.906 358.114C180.91 358.432 180.982 358.716 181.122 358.966C181.262 359.216 181.454 359.413 181.696 359.557C181.938 359.701 182.213 359.773 182.52 359.773Z" fill="#181818" fill-opacity="0.75"/>
<g filter="url(#filter4_d_121_159)">
<rect x="120" y="20" width="384" height="96" rx="8" fill="white" fill-opacity="0.75" shape-rendering="crispEdges"/>
</g>
<path d="M144.795 74V65.2727H147.932V74H144.795ZM146.364 64.3636C145.939 64.3636 145.576 64.2235 145.273 63.9432C144.97 63.6629 144.818 63.3258 144.818 62.9318C144.818 62.5379 144.97 62.2008 145.273 61.9205C145.576 61.6402 145.939 61.5 146.364 61.5C146.792 61.5 147.155 61.6402 147.455 61.9205C147.758 62.2008 147.909 62.5379 147.909 62.9318C147.909 63.3258 147.758 63.6629 147.455 63.9432C147.155 64.2235 146.792 64.3636 146.364 64.3636ZM154.734 65.2727V67.5455H148.984V65.2727H154.734ZM150.098 63.1818H153.234V71.1932C153.234 71.3144 153.255 71.4167 153.297 71.5C153.339 71.5795 153.403 71.6402 153.49 71.6818C153.577 71.7197 153.689 71.7386 153.825 71.7386C153.92 71.7386 154.03 71.7273 154.155 71.7045C154.284 71.6818 154.378 71.6629 154.439 71.6477L154.893 73.8523C154.753 73.8939 154.553 73.9451 154.291 74.0057C154.034 74.0663 153.727 74.1061 153.371 74.125C152.651 74.1629 152.047 74.089 151.558 73.9034C151.07 73.714 150.702 73.4167 150.456 73.0114C150.21 72.6061 150.09 72.0985 150.098 71.4886V63.1818ZM160.102 74.1591C159.17 74.1591 158.367 73.9811 157.693 73.625C157.023 73.2652 156.506 72.75 156.142 72.0795C155.782 71.4053 155.602 70.5985 155.602 69.6591C155.602 68.7576 155.784 67.9697 156.148 67.2955C156.511 66.6212 157.025 66.0966 157.688 65.7216C158.35 65.3466 159.133 65.1591 160.034 65.1591C160.693 65.1591 161.29 65.2614 161.824 65.4659C162.358 65.6705 162.814 65.9678 163.193 66.358C163.572 66.7443 163.864 67.214 164.068 67.767C164.273 68.3201 164.375 68.9432 164.375 69.6364V70.3636H156.58V68.6364H161.489C161.485 68.3864 161.42 68.1667 161.295 67.9773C161.174 67.7841 161.009 67.6345 160.801 67.5284C160.597 67.4186 160.364 67.3636 160.102 67.3636C159.848 67.3636 159.616 67.4186 159.403 67.5284C159.191 67.6345 159.021 67.7822 158.892 67.9716C158.767 68.161 158.701 68.3826 158.693 68.6364V70.5C158.693 70.7803 158.752 71.0303 158.869 71.25C158.987 71.4697 159.155 71.642 159.375 71.767C159.595 71.892 159.86 71.9545 160.17 71.9545C160.386 71.9545 160.583 71.9242 160.761 71.8636C160.943 71.803 161.098 71.7159 161.227 71.6023C161.356 71.4848 161.451 71.3447 161.511 71.1818H164.375C164.277 71.7879 164.044 72.3144 163.676 72.7614C163.309 73.2045 162.822 73.5492 162.216 73.7955C161.614 74.0379 160.909 74.1591 160.102 74.1591ZM165.655 74V65.2727H168.632V66.9318H168.723C168.905 66.3864 169.215 65.9545 169.655 65.6364C170.094 65.3182 170.617 65.1591 171.223 65.1591C171.837 65.1591 172.365 65.322 172.808 65.6477C173.251 65.9697 173.518 66.3977 173.609 66.9318H173.7C173.848 66.3977 174.162 65.9697 174.643 65.6477C175.125 65.322 175.689 65.1591 176.337 65.1591C177.174 65.1591 177.852 65.428 178.371 65.9659C178.893 66.5038 179.155 67.2197 179.155 68.1136V74H176.018V68.9091C176.018 68.5265 175.922 68.2273 175.729 68.0114C175.536 67.7917 175.276 67.6818 174.95 67.6818C174.628 67.6818 174.373 67.7917 174.183 68.0114C173.998 68.2273 173.905 68.5265 173.905 68.9091V74H170.905V68.9091C170.905 68.5265 170.808 68.2273 170.615 68.0114C170.422 67.7917 170.162 67.6818 169.837 67.6818C169.621 67.6818 169.435 67.7311 169.28 67.8295C169.125 67.928 169.003 68.0701 168.916 68.2557C168.833 68.4375 168.791 68.6553 168.791 68.9091V74H165.655ZM180.679 74V71.7273L185.02 68.1364C185.308 67.8977 185.554 67.6742 185.759 67.4659C185.967 67.2538 186.126 67.036 186.236 66.8125C186.349 66.589 186.406 66.3409 186.406 66.0682C186.406 65.7689 186.342 65.5133 186.213 65.3011C186.088 65.089 185.914 64.9261 185.69 64.8125C185.467 64.6951 185.209 64.6364 184.918 64.6364C184.626 64.6364 184.368 64.6951 184.145 64.8125C183.925 64.9299 183.755 65.1023 183.634 65.3295C183.512 65.5568 183.452 65.8333 183.452 66.1591H180.452C180.452 65.3409 180.635 64.6364 181.003 64.0455C181.37 63.4545 181.889 63 182.56 62.6818C183.23 62.3636 184.016 62.2045 184.918 62.2045C185.849 62.2045 186.656 62.3542 187.338 62.6534C188.024 62.9489 188.552 63.3655 188.923 63.9034C189.298 64.4413 189.486 65.072 189.486 65.7955C189.486 66.2424 189.393 66.6875 189.207 67.1307C189.022 67.5701 188.688 68.0568 188.207 68.5909C187.726 69.125 187.043 69.7614 186.156 70.5L185.065 71.4091V71.4773H189.611V74H180.679Z" fill="#181818" fill-opacity="0.75"/>
<g filter="url(#filter5_d_121_159)">
<rect x="216" y="308" width="96" height="96" rx="8" fill="white" fill-opacity="0.75" shape-rendering="crispEdges"/>
</g>
<path d="M236.795 362V353.273H239.932V362H236.795ZM238.364 352.364C237.939 352.364 237.576 352.223 237.273 351.943C236.97 351.663 236.818 351.326 236.818 350.932C236.818 350.538 236.97 350.201 237.273 349.92C237.576 349.64 237.939 349.5 238.364 349.5C238.792 349.5 239.155 349.64 239.455 349.92C239.758 350.201 239.909 350.538 239.909 350.932C239.909 351.326 239.758 351.663 239.455 351.943C239.155 352.223 238.792 352.364 238.364 352.364ZM246.734 353.273V355.545H240.984V353.273H246.734ZM242.098 351.182H245.234V359.193C245.234 359.314 245.255 359.417 245.297 359.5C245.339 359.58 245.403 359.64 245.49 359.682C245.577 359.72 245.689 359.739 245.825 359.739C245.92 359.739 246.03 359.727 246.155 359.705C246.284 359.682 246.378 359.663 246.439 359.648L246.893 361.852C246.753 361.894 246.553 361.945 246.291 362.006C246.034 362.066 245.727 362.106 245.371 362.125C244.651 362.163 244.047 362.089 243.558 361.903C243.07 361.714 242.702 361.417 242.456 361.011C242.21 360.606 242.09 360.098 242.098 359.489V351.182ZM252.102 362.159C251.17 362.159 250.367 361.981 249.693 361.625C249.023 361.265 248.506 360.75 248.142 360.08C247.782 359.405 247.602 358.598 247.602 357.659C247.602 356.758 247.784 355.97 248.148 355.295C248.511 354.621 249.025 354.097 249.688 353.722C250.35 353.347 251.133 353.159 252.034 353.159C252.693 353.159 253.29 353.261 253.824 353.466C254.358 353.67 254.814 353.968 255.193 354.358C255.572 354.744 255.864 355.214 256.068 355.767C256.273 356.32 256.375 356.943 256.375 357.636V358.364H248.58V356.636H253.489C253.485 356.386 253.42 356.167 253.295 355.977C253.174 355.784 253.009 355.634 252.801 355.528C252.597 355.419 252.364 355.364 252.102 355.364C251.848 355.364 251.616 355.419 251.403 355.528C251.191 355.634 251.021 355.782 250.892 355.972C250.767 356.161 250.701 356.383 250.693 356.636V358.5C250.693 358.78 250.752 359.03 250.869 359.25C250.987 359.47 251.155 359.642 251.375 359.767C251.595 359.892 251.86 359.955 252.17 359.955C252.386 359.955 252.583 359.924 252.761 359.864C252.943 359.803 253.098 359.716 253.227 359.602C253.356 359.485 253.451 359.345 253.511 359.182H256.375C256.277 359.788 256.044 360.314 255.676 360.761C255.309 361.205 254.822 361.549 254.216 361.795C253.614 362.038 252.909 362.159 252.102 362.159ZM257.655 362V353.273H260.632V354.932H260.723C260.905 354.386 261.215 353.955 261.655 353.636C262.094 353.318 262.617 353.159 263.223 353.159C263.837 353.159 264.365 353.322 264.808 353.648C265.251 353.97 265.518 354.398 265.609 354.932H265.7C265.848 354.398 266.162 353.97 266.643 353.648C267.125 353.322 267.689 353.159 268.337 353.159C269.174 353.159 269.852 353.428 270.371 353.966C270.893 354.504 271.155 355.22 271.155 356.114V362H268.018V356.909C268.018 356.527 267.922 356.227 267.729 356.011C267.536 355.792 267.276 355.682 266.95 355.682C266.628 355.682 266.373 355.792 266.183 356.011C265.998 356.227 265.905 356.527 265.905 356.909V362H262.905V356.909C262.905 356.527 262.808 356.227 262.615 356.011C262.422 355.792 262.162 355.682 261.837 355.682C261.621 355.682 261.435 355.731 261.28 355.83C261.125 355.928 261.003 356.07 260.916 356.256C260.833 356.437 260.791 356.655 260.791 356.909V362H257.655ZM273.202 362L277.77 352.955V352.886H272.406V350.364H281.043V352.886L276.452 362H273.202Z" fill="#181818" fill-opacity="0.75"/>
<g filter="url(#filter6_d_121_159)">
<rect x="312" y="308" width="96" height="96" rx="8" fill="white" fill-opacity="0.75" shape-rendering="crispEdges"/>
</g>
<path d="M332.795 362V353.273H335.932V362H332.795ZM334.364 352.364C333.939 352.364 333.576 352.223 333.273 351.943C332.97 351.663 332.818 351.326 332.818 350.932C332.818 350.538 332.97 350.201 333.273 349.92C333.576 349.64 333.939 349.5 334.364 349.5C334.792 349.5 335.155 349.64 335.455 349.92C335.758 350.201 335.909 350.538 335.909 350.932C335.909 351.326 335.758 351.663 335.455 351.943C335.155 352.223 334.792 352.364 334.364 352.364ZM342.734 353.273V355.545H336.984V353.273H342.734ZM338.098 351.182H341.234V359.193C341.234 359.314 341.255 359.417 341.297 359.5C341.339 359.58 341.403 359.64 341.49 359.682C341.577 359.72 341.689 359.739 341.825 359.739C341.92 359.739 342.03 359.727 342.155 359.705C342.284 359.682 342.378 359.663 342.439 359.648L342.893 361.852C342.753 361.894 342.553 361.945 342.291 362.006C342.034 362.066 341.727 362.106 341.371 362.125C340.651 362.163 340.047 362.089 339.558 361.903C339.07 361.714 338.702 361.417 338.456 361.011C338.21 360.606 338.09 360.098 338.098 359.489V351.182ZM348.102 362.159C347.17 362.159 346.367 361.981 345.693 361.625C345.023 361.265 344.506 360.75 344.142 360.08C343.782 359.405 343.602 358.598 343.602 357.659C343.602 356.758 343.784 355.97 344.148 355.295C344.511 354.621 345.025 354.097 345.688 353.722C346.35 353.347 347.133 353.159 348.034 353.159C348.693 353.159 349.29 353.261 349.824 353.466C350.358 353.67 350.814 353.968 351.193 354.358C351.572 354.744 351.864 355.214 352.068 355.767C352.273 356.32 352.375 356.943 352.375 357.636V358.364H344.58V356.636H349.489C349.485 356.386 349.42 356.167 349.295 355.977C349.174 355.784 349.009 355.634 348.801 355.528C348.597 355.419 348.364 355.364 348.102 355.364C347.848 355.364 347.616 355.419 347.403 355.528C347.191 355.634 347.021 355.782 346.892 355.972C346.767 356.161 346.701 356.383 346.693 356.636V358.5C346.693 358.78 346.752 359.03 346.869 359.25C346.987 359.47 347.155 359.642 347.375 359.767C347.595 359.892 347.86 359.955 348.17 359.955C348.386 359.955 348.583 359.924 348.761 359.864C348.943 359.803 349.098 359.716 349.227 359.602C349.356 359.485 349.451 359.345 349.511 359.182H352.375C352.277 359.788 352.044 360.314 351.676 360.761C351.309 361.205 350.822 361.549 350.216 361.795C349.614 362.038 348.909 362.159 348.102 362.159ZM353.655 362V353.273H356.632V354.932H356.723C356.905 354.386 357.215 353.955 357.655 353.636C358.094 353.318 358.617 353.159 359.223 353.159C359.837 353.159 360.365 353.322 360.808 353.648C361.251 353.97 361.518 354.398 361.609 354.932H361.7C361.848 354.398 362.162 353.97 362.643 353.648C363.125 353.322 363.689 353.159 364.337 353.159C365.174 353.159 365.852 353.428 366.371 353.966C366.893 354.504 367.155 355.22 367.155 356.114V362H364.018V356.909C364.018 356.527 363.922 356.227 363.729 356.011C363.536 355.792 363.276 355.682 362.95 355.682C362.628 355.682 362.373 355.792 362.183 356.011C361.998 356.227 361.905 356.527 361.905 356.909V362H358.905V356.909C358.905 356.527 358.808 356.227 358.615 356.011C358.422 355.792 358.162 355.682 357.837 355.682C357.621 355.682 357.435 355.731 357.28 355.83C357.125 355.928 357.003 356.07 356.916 356.256C356.833 356.437 356.791 356.655 356.791 356.909V362H353.655ZM373.429 362.159C372.49 362.159 371.651 362.013 370.912 361.722C370.177 361.43 369.598 361.034 369.173 360.534C368.753 360.034 368.543 359.47 368.543 358.841C368.543 358.36 368.662 357.92 368.901 357.523C369.143 357.125 369.469 356.795 369.878 356.534C370.287 356.269 370.743 356.098 371.247 356.023V355.932C370.584 355.818 370.039 355.525 369.611 355.051C369.187 354.574 368.974 354.011 368.974 353.364C368.974 352.754 369.168 352.212 369.554 351.739C369.94 351.261 370.469 350.886 371.139 350.614C371.81 350.341 372.573 350.205 373.429 350.205C374.285 350.205 375.048 350.343 375.719 350.619C376.389 350.892 376.918 351.267 377.304 351.744C377.69 352.218 377.884 352.758 377.884 353.364C377.884 354.015 377.668 354.578 377.236 355.051C376.804 355.525 376.262 355.818 375.611 355.932V356.023C376.111 356.098 376.565 356.269 376.974 356.534C377.384 356.795 377.709 357.125 377.952 357.523C378.194 357.92 378.315 358.36 378.315 358.841C378.315 359.47 378.103 360.034 377.679 360.534C377.259 361.034 376.679 361.43 375.94 361.722C375.205 362.013 374.368 362.159 373.429 362.159ZM373.429 359.977C373.728 359.977 373.993 359.917 374.224 359.795C374.455 359.674 374.637 359.508 374.77 359.295C374.906 359.08 374.974 358.837 374.974 358.568C374.974 358.299 374.906 358.061 374.77 357.852C374.637 357.644 374.455 357.481 374.224 357.364C373.993 357.242 373.728 357.182 373.429 357.182C373.134 357.182 372.868 357.242 372.634 357.364C372.402 357.481 372.219 357.644 372.082 357.852C371.95 358.061 371.884 358.299 371.884 358.568C371.884 358.837 371.95 359.078 372.082 359.29C372.219 359.502 372.402 359.67 372.634 359.795C372.868 359.917 373.134 359.977 373.429 359.977ZM373.429 355C373.694 355 373.929 354.945 374.134 354.835C374.338 354.725 374.499 354.574 374.616 354.381C374.734 354.187 374.793 353.97 374.793 353.727C374.793 353.485 374.734 353.271 374.616 353.085C374.499 352.896 374.338 352.748 374.134 352.642C373.929 352.532 373.694 352.477 373.429 352.477C373.168 352.477 372.933 352.532 372.724 352.642C372.52 352.748 372.359 352.896 372.241 353.085C372.124 353.271 372.065 353.485 372.065 353.727C372.065 353.97 372.124 354.187 372.241 354.381C372.359 354.57 372.52 354.722 372.724 354.835C372.933 354.945 373.168 355 373.429 355Z" fill="#181818" fill-opacity="0.75"/>
<g filter="url(#filter7_d_121_159)">
<rect x="408" y="116" width="96" height="192" rx="8" fill="white" fill-opacity="0.75" shape-rendering="crispEdges"/>
</g>
<path d="M428.795 170V161.273H431.932V170H428.795ZM430.364 160.364C429.939 160.364 429.576 160.223 429.273 159.943C428.97 159.663 428.818 159.326 428.818 158.932C428.818 158.538 428.97 158.201 429.273 157.92C429.576 157.64 429.939 157.5 430.364 157.5C430.792 157.5 431.155 157.64 431.455 157.92C431.758 158.201 431.909 158.538 431.909 158.932C431.909 159.326 431.758 159.663 431.455 159.943C431.155 160.223 430.792 160.364 430.364 160.364ZM438.734 161.273V163.545H432.984V161.273H438.734ZM434.098 159.182H437.234V167.193C437.234 167.314 437.255 167.417 437.297 167.5C437.339 167.58 437.403 167.64 437.49 167.682C437.577 167.72 437.689 167.739 437.825 167.739C437.92 167.739 438.03 167.727 438.155 167.705C438.284 167.682 438.378 167.663 438.439 167.648L438.893 169.852C438.753 169.894 438.553 169.945 438.291 170.006C438.034 170.066 437.727 170.106 437.371 170.125C436.651 170.163 436.047 170.089 435.558 169.903C435.07 169.714 434.702 169.417 434.456 169.011C434.21 168.606 434.09 168.098 434.098 167.489V159.182ZM444.102 170.159C443.17 170.159 442.367 169.981 441.693 169.625C441.023 169.265 440.506 168.75 440.142 168.08C439.782 167.405 439.602 166.598 439.602 165.659C439.602 164.758 439.784 163.97 440.148 163.295C440.511 162.621 441.025 162.097 441.688 161.722C442.35 161.347 443.133 161.159 444.034 161.159C444.693 161.159 445.29 161.261 445.824 161.466C446.358 161.67 446.814 161.968 447.193 162.358C447.572 162.744 447.864 163.214 448.068 163.767C448.273 164.32 448.375 164.943 448.375 165.636V166.364H440.58V164.636H445.489C445.485 164.386 445.42 164.167 445.295 163.977C445.174 163.784 445.009 163.634 444.801 163.528C444.597 163.419 444.364 163.364 444.102 163.364C443.848 163.364 443.616 163.419 443.403 163.528C443.191 163.634 443.021 163.782 442.892 163.972C442.767 164.161 442.701 164.383 442.693 164.636V166.5C442.693 166.78 442.752 167.03 442.869 167.25C442.987 167.47 443.155 167.642 443.375 167.767C443.595 167.892 443.86 167.955 444.17 167.955C444.386 167.955 444.583 167.924 444.761 167.864C444.943 167.803 445.098 167.716 445.227 167.602C445.356 167.485 445.451 167.345 445.511 167.182H448.375C448.277 167.788 448.044 168.314 447.676 168.761C447.309 169.205 446.822 169.549 446.216 169.795C445.614 170.038 444.909 170.159 444.102 170.159ZM449.655 170V161.273H452.632V162.932H452.723C452.905 162.386 453.215 161.955 453.655 161.636C454.094 161.318 454.617 161.159 455.223 161.159C455.837 161.159 456.365 161.322 456.808 161.648C457.251 161.97 457.518 162.398 457.609 162.932H457.7C457.848 162.398 458.162 161.97 458.643 161.648C459.125 161.322 459.689 161.159 460.337 161.159C461.174 161.159 461.852 161.428 462.371 161.966C462.893 162.504 463.155 163.22 463.155 164.114V170H460.018V164.909C460.018 164.527 459.922 164.227 459.729 164.011C459.536 163.792 459.276 163.682 458.95 163.682C458.628 163.682 458.373 163.792 458.183 164.011C457.998 164.227 457.905 164.527 457.905 164.909V170H454.905V164.909C454.905 164.527 454.808 164.227 454.615 164.011C454.422 163.792 454.162 163.682 453.837 163.682C453.621 163.682 453.435 163.731 453.28 163.83C453.125 163.928 453.003 164.07 452.916 164.256C452.833 164.437 452.791 164.655 452.791 164.909V170H449.655ZM464.565 168.182V165.727L469.247 158.364H471.474V161.636H470.202L467.679 165.636V165.727H474.588V168.182H464.565ZM470.224 170V167.432L470.293 166.364V158.364H473.247V170H470.224Z" fill="#181818" fill-opacity="0.75"/>
<defs>
<filter id="filter0_d_121_159" x="0" y="0" width="528" height="432" filterUnits="userSpaceOnUse" color-interpolation-filters="sRGB">
<feFlood flood-opacity="0" result="BackgroundImageFix"/>
<feColorMatrix in="SourceAlpha" type="matrix" values="0 0 0 0 0 0 0 0 0 0 0 0 0 0 0 0 0 0 127 0" result="hardAlpha"/>
<feOffset dy="4"/>
<feGaussianBlur stdDeviation="4"/>
<feComposite in2="hardAlpha" operator="out"/>
<feColorMatrix type="matrix" values="0 0 0 0 0.129412 0 0 0 0 0.447059 0 0 0 0 1 0 0 0 0.25 0"/>
<feBlend mode="normal" in2="BackgroundImageFix" result="effect1_dropShadow_121_159"/>
<feBlend mode="normal" in="SourceGraphic" in2="effect1_dropShadow_121_159" result="shape"/>
</filter>
<filter id="filter1_d_121_159" x="16" y="16" width="112" height="304" filterUnits="userSpaceOnUse" color-interpolation-filters="sRGB">
<feFlood flood-opacity="0" result="BackgroundImageFix"/>
<feColorMatrix in="SourceAlpha" type="matrix" values="0 0 0 0 0 0 0 0 0 0 0 0 0 0 0 0 0 0 127 0" result="hardAlpha"/>
<feOffset dy="4"/>
<feGaussianBlur stdDeviation="4"/>
<feComposite in2="hardAlpha" operator="out"/>
<feColorMatrix type="matrix" values="0 0 0 0 1 0 0 0 0 1 0 0 0 0 1 0 0 0 0.25 0"/>
<feBlend mode="normal" in2="BackgroundImageFix" result="effect1_dropShadow_121_159"/>
<feBlend mode="normal" in="SourceGraphic" in2="effect1_dropShadow_121_159" result="shape"/>
</filter>
<filter id="filter2_d_121_159" x="112" y="112" width="304" height="208" filterUnits="userSpaceOnUse" color-interpolation-filters="sRGB">
<feFlood flood-opacity="0" result="BackgroundImageFix"/>
<feColorMatrix in="SourceAlpha" type="matrix" values="0 0 0 0 0 0 0 0 0 0 0 0 0 0 0 0 0 0 127 0" result="hardAlpha"/>
<feOffset dy="4"/>
<feGaussianBlur stdDeviation="4"/>
<feComposite in2="hardAlpha" operator="out"/>
<feColorMatrix type="matrix" values="0 0 0 0 1 0 0 0 0 1 0 0 0 0 1 0 0 0 0.25 0"/>
<feBlend mode="normal" in2="BackgroundImageFix" result="effect1_dropShadow_121_159"/>
<feBlend mode="normal" in="SourceGraphic" in2="effect1_dropShadow_121_159" result="shape"/>
</filter>
<filter id="filter3_d_121_159" x="112" y="304" width="112" height="112" filterUnits="userSpaceOnUse" color-interpolation-filters="sRGB">
<feFlood flood-opacity="0" result="BackgroundImageFix"/>
<feColorMatrix in="SourceAlpha" type="matrix" values="0 0 0 0 0 0 0 0 0 0 0 0 0 0 0 0 0 0 127 0" result="hardAlpha"/>
<feOffset dy="4"/>
<feGaussianBlur stdDeviation="4"/>
<feComposite in2="hardAlpha" operator="out"/>
<feColorMatrix type="matrix" values="0 0 0 0 1 0 0 0 0 1 0 0 0 0 1 0 0 0 0.25 0"/>
<feBlend mode="normal" in2="BackgroundImageFix" result="effect1_dropShadow_121_159"/>
<feBlend mode="normal" in="SourceGraphic" in2="effect1_dropShadow_121_159" result="shape"/>
</filter>
<filter id="filter4_d_121_159" x="112" y="16" width="400" height="112" filterUnits="userSpaceOnUse" color-interpolation-filters="sRGB">
<feFlood flood-opacity="0" result="BackgroundImageFix"/>
<feColorMatrix in="SourceAlpha" type="matrix" values="0 0 0 0 0 0 0 0 0 0 0 0 0 0 0 0 0 0 127 0" result="hardAlpha"/>
<feOffset dy="4"/>
<feGaussianBlur stdDeviation="4"/>
<feComposite in2="hardAlpha" operator="out"/>
<feColorMatrix type="matrix" values="0 0 0 0 1 0 0 0 0 1 0 0 0 0 1 0 0 0 0.25 0"/>
<feBlend mode="normal" in2="BackgroundImageFix" result="effect1_dropShadow_121_159"/>
<feBlend mode="normal" in="SourceGraphic" in2="effect1_dropShadow_121_159" result="shape"/>
</filter>
<filter id="filter5_d_121_159" x="208" y="304" width="112" height="112" filterUnits="userSpaceOnUse" color-interpolation-filters="sRGB">
<feFlood flood-opacity="0" result="BackgroundImageFix"/>
<feColorMatrix in="SourceAlpha" type="matrix" values="0 0 0 0 0 0 0 0 0 0 0 0 0 0 0 0 0 0 127 0" result="hardAlpha"/>
<feOffset dy="4"/>
<feGaussianBlur stdDeviation="4"/>
<feComposite in2="hardAlpha" operator="out"/>
<feColorMatrix type="matrix" values="0 0 0 0 1 0 0 0 0 1 0 0 0 0 1 0 0 0 0.25 0"/>
<feBlend mode="normal" in2="BackgroundImageFix" result="effect1_dropShadow_121_159"/>
<feBlend mode="normal" in="SourceGraphic" in2="effect1_dropShadow_121_159" result="shape"/>
</filter>
<filter id="filter6_d_121_159" x="304" y="304" width="112" height="112" filterUnits="userSpaceOnUse" color-interpolation-filters="sRGB">
<feFlood flood-opacity="0" result="BackgroundImageFix"/>
<feColorMatrix in="SourceAlpha" type="matrix" values="0 0 0 0 0 0 0 0 0 0 0 0 0 0 0 0 0 0 127 0" result="hardAlpha"/>
<feOffset dy="4"/>
<feGaussianBlur stdDeviation="4"/>
<feComposite in2="hardAlpha" operator="out"/>
<feColorMatrix type="matrix" values="0 0 0 0 1 0 0 0 0 1 0 0 0 0 1 0 0 0 0.25 0"/>
<feBlend mode="normal" in2="BackgroundImageFix" result="effect1_dropShadow_121_159"/>
<feBlend mode="normal" in="SourceGraphic" in2="effect1_dropShadow_121_159" result="shape"/>
</filter>
<filter id="filter7_d_121_159" x="400" y="112" width="112" height="208" filterUnits="userSpaceOnUse" color-interpolation-filters="sRGB">
<feFlood flood-opacity="0" result="BackgroundImageFix"/>
<feColorMatrix in="SourceAlpha" type="matrix" values="0 0 0 0 0 0 0 0 0 0 0 0 0 0 0 0 0 0 127 0" result="hardAlpha"/>
<feOffset dy="4"/>
<feGaussianBlur stdDeviation="4"/>
<feComposite in2="hardAlpha" operator="out"/>
<feColorMatrix type="matrix" values="0 0 0 0 1 0 0 0 0 1 0 0 0 0 1 0 0 0 0.25 0"/>
<feBlend mode="normal" in2="BackgroundImageFix" result="effect1_dropShadow_121_159"/>
<feBlend mode="normal" in="SourceGraphic" in2="effect1_dropShadow_121_159" result="shape"/>
</filter>
</defs>
</svg>
