<svg width="784" height="376" viewBox="0 0 784 376" fill="none" xmlns="http://www.w3.org/2000/svg">
<g filter="url(#filter0_d_128_632)">
<rect x="8" y="4" width="368" height="360" rx="8" fill="#2172FF" fill-opacity="0.8" shape-rendering="crispEdges"/>
</g>
<g filter="url(#filter1_d_128_632)">
<rect x="96" y="180" width="72" height="72" rx="8" fill="white" fill-opacity="0.75" shape-rendering="crispEdges"/>
</g>
<path d="M114.795 221V212.273H117.932V221H114.795ZM116.364 211.364C115.939 211.364 115.576 211.223 115.273 210.943C114.97 210.663 114.818 210.326 114.818 209.932C114.818 209.538 114.97 209.201 115.273 208.92C115.576 208.64 115.939 208.5 116.364 208.5C116.792 208.5 117.155 208.64 117.455 208.92C117.758 209.201 117.909 209.538 117.909 209.932C117.909 210.326 117.758 210.663 117.455 210.943C117.155 211.223 116.792 211.364 116.364 211.364ZM124.734 212.273V214.545H118.984V212.273H124.734ZM120.098 210.182H123.234V218.193C123.234 218.314 123.255 218.417 123.297 218.5C123.339 218.58 123.403 218.64 123.49 218.682C123.577 218.72 123.689 218.739 123.825 218.739C123.92 218.739 124.03 218.727 124.155 218.705C124.284 218.682 124.378 218.663 124.439 218.648L124.893 220.852C124.753 220.894 124.553 220.945 124.291 221.006C124.034 221.066 123.727 221.106 123.371 221.125C122.651 221.163 122.047 221.089 121.558 220.903C121.07 220.714 120.702 220.417 120.456 220.011C120.21 219.606 120.09 219.098 120.098 218.489V210.182ZM130.102 221.159C129.17 221.159 128.367 220.981 127.693 220.625C127.023 220.265 126.506 219.75 126.142 219.08C125.782 218.405 125.602 217.598 125.602 216.659C125.602 215.758 125.784 214.97 126.148 214.295C126.511 213.621 127.025 213.097 127.688 212.722C128.35 212.347 129.133 212.159 130.034 212.159C130.693 212.159 131.29 212.261 131.824 212.466C132.358 212.67 132.814 212.968 133.193 213.358C133.572 213.744 133.864 214.214 134.068 214.767C134.273 215.32 134.375 215.943 134.375 216.636V217.364H126.58V215.636H131.489C131.485 215.386 131.42 215.167 131.295 214.977C131.174 214.784 131.009 214.634 130.801 214.528C130.597 214.419 130.364 214.364 130.102 214.364C129.848 214.364 129.616 214.419 129.403 214.528C129.191 214.634 129.021 214.782 128.892 214.972C128.767 215.161 128.701 215.383 128.693 215.636V217.5C128.693 217.78 128.752 218.03 128.869 218.25C128.987 218.47 129.155 218.642 129.375 218.767C129.595 218.892 129.86 218.955 130.17 218.955C130.386 218.955 130.583 218.924 130.761 218.864C130.943 218.803 131.098 218.716 131.227 218.602C131.356 218.485 131.451 218.345 131.511 218.182H134.375C134.277 218.788 134.044 219.314 133.676 219.761C133.309 220.205 132.822 220.549 132.216 220.795C131.614 221.038 130.909 221.159 130.102 221.159ZM135.655 221V212.273H138.632V213.932H138.723C138.905 213.386 139.215 212.955 139.655 212.636C140.094 212.318 140.617 212.159 141.223 212.159C141.837 212.159 142.365 212.322 142.808 212.648C143.251 212.97 143.518 213.398 143.609 213.932H143.7C143.848 213.398 144.162 212.97 144.643 212.648C145.125 212.322 145.689 212.159 146.337 212.159C147.174 212.159 147.852 212.428 148.371 212.966C148.893 213.504 149.155 214.22 149.155 215.114V221H146.018V215.909C146.018 215.527 145.922 215.227 145.729 215.011C145.536 214.792 145.276 214.682 144.95 214.682C144.628 214.682 144.373 214.792 144.183 215.011C143.998 215.227 143.905 215.527 143.905 215.909V221H140.905V215.909C140.905 215.527 140.808 215.227 140.615 215.011C140.422 214.792 140.162 214.682 139.837 214.682C139.621 214.682 139.435 214.731 139.28 214.83C139.125 214.928 139.003 215.07 138.916 215.256C138.833 215.437 138.791 215.655 138.791 215.909V221H135.655Z" fill="#181818" fill-opacity="0.75"/>
<g filter="url(#filter2_d_128_632)">
<rect x="96" y="36" width="72" height="72" rx="8" fill="white" fill-opacity="0.75" shape-rendering="crispEdges"/>
</g>
<path d="M114.795 77V68.2727H117.932V77H114.795ZM116.364 67.3636C115.939 67.3636 115.576 67.2235 115.273 66.9432C114.97 66.6629 114.818 66.3258 114.818 65.9318C114.818 65.5379 114.97 65.2008 115.273 64.9205C115.576 64.6402 115.939 64.5 116.364 64.5C116.792 64.5 117.155 64.6402 117.455 64.9205C117.758 65.2008 117.909 65.5379 117.909 65.9318C117.909 66.3258 117.758 66.6629 117.455 66.9432C117.155 67.2235 116.792 67.3636 116.364 67.3636ZM124.734 68.2727V70.5455H118.984V68.2727H124.734ZM120.098 66.1818H123.234V74.1932C123.234 74.3144 123.255 74.4167 123.297 74.5C123.339 74.5795 123.403 74.6402 123.49 74.6818C123.577 74.7197 123.689 74.7386 123.825 74.7386C123.92 74.7386 124.03 74.7273 124.155 74.7045C124.284 74.6818 124.378 74.6629 124.439 74.6477L124.893 76.8523C124.753 76.8939 124.553 76.9451 124.291 77.0057C124.034 77.0663 123.727 77.1061 123.371 77.125C122.651 77.1629 122.047 77.089 121.558 76.9034C121.07 76.714 120.702 76.4167 120.456 76.0114C120.21 75.6061 120.09 75.0985 120.098 74.4886V66.1818ZM130.102 77.1591C129.17 77.1591 128.367 76.9811 127.693 76.625C127.023 76.2652 126.506 75.75 126.142 75.0795C125.782 74.4053 125.602 73.5985 125.602 72.6591C125.602 71.7576 125.784 70.9697 126.148 70.2955C126.511 69.6212 127.025 69.0966 127.688 68.7216C128.35 68.3466 129.133 68.1591 130.034 68.1591C130.693 68.1591 131.29 68.2614 131.824 68.4659C132.358 68.6705 132.814 68.9678 133.193 69.358C133.572 69.7443 133.864 70.214 134.068 70.767C134.273 71.3201 134.375 71.9432 134.375 72.6364V73.3636H126.58V71.6364H131.489C131.485 71.3864 131.42 71.1667 131.295 70.9773C131.174 70.7841 131.009 70.6345 130.801 70.5284C130.597 70.4186 130.364 70.3636 130.102 70.3636C129.848 70.3636 129.616 70.4186 129.403 70.5284C129.191 70.6345 129.021 70.7822 128.892 70.9716C128.767 71.161 128.701 71.3826 128.693 71.6364V73.5C128.693 73.7803 128.752 74.0303 128.869 74.25C128.987 74.4697 129.155 74.642 129.375 74.767C129.595 74.892 129.86 74.9545 130.17 74.9545C130.386 74.9545 130.583 74.9242 130.761 74.8636C130.943 74.803 131.098 74.7159 131.227 74.6023C131.356 74.4848 131.451 74.3447 131.511 74.1818H134.375C134.277 74.7879 134.044 75.3144 133.676 75.7614C133.309 76.2045 132.822 76.5492 132.216 76.7955C131.614 77.0379 130.909 77.1591 130.102 77.1591ZM135.655 77V68.2727H138.632V69.9318H138.723C138.905 69.3864 139.215 68.9545 139.655 68.6364C140.094 68.3182 140.617 68.1591 141.223 68.1591C141.837 68.1591 142.365 68.322 142.808 68.6477C143.251 68.9697 143.518 69.3977 143.609 69.9318H143.7C143.848 69.3977 144.162 68.9697 144.643 68.6477C145.125 68.322 145.689 68.1591 146.337 68.1591C147.174 68.1591 147.852 68.428 148.371 68.9659C148.893 69.5038 149.155 70.2197 149.155 71.1136V77H146.018V71.9091C146.018 71.5265 145.922 71.2273 145.729 71.0114C145.536 70.7917 145.276 70.6818 144.95 70.6818C144.628 70.6818 144.373 70.7917 144.183 71.0114C143.998 71.2273 143.905 71.5265 143.905 71.9091V77H140.905V71.9091C140.905 71.5265 140.808 71.2273 140.615 71.0114C140.422 70.7917 140.162 70.6818 139.837 70.6818C139.621 70.6818 139.435 70.7311 139.28 70.8295C139.125 70.928 139.003 71.0701 138.916 71.2557C138.833 71.4375 138.791 71.6553 138.791 71.9091V77H135.655Z" fill="#181818" fill-opacity="0.75"/>
<g filter="url(#filter3_d_128_632)">
<rect x="24" y="180" width="72" height="72" rx="8" fill="white" fill-opacity="0.75" shape-rendering="crispEdges"/>
</g>
<path d="M42.7955 221V212.273H45.9318V221H42.7955ZM44.3636 211.364C43.9394 211.364 43.5758 211.223 43.2727 210.943C42.9697 210.663 42.8182 210.326 42.8182 209.932C42.8182 209.538 42.9697 209.201 43.2727 208.92C43.5758 208.64 43.9394 208.5 44.3636 208.5C44.7917 208.5 45.1553 208.64 45.4545 208.92C45.7576 209.201 45.9091 209.538 45.9091 209.932C45.9091 210.326 45.7576 210.663 45.4545 210.943C45.1553 211.223 44.7917 211.364 44.3636 211.364ZM52.7344 212.273V214.545H46.9844V212.273H52.7344ZM48.098 210.182H51.2344V218.193C51.2344 218.314 51.2552 218.417 51.2969 218.5C51.3385 218.58 51.4029 218.64 51.4901 218.682C51.5772 218.72 51.6889 218.739 51.8253 218.739C51.92 218.739 52.0298 218.727 52.1548 218.705C52.2836 218.682 52.3783 218.663 52.4389 218.648L52.8935 220.852C52.7533 220.894 52.5526 220.945 52.2912 221.006C52.0336 221.066 51.7268 221.106 51.3707 221.125C50.651 221.163 50.0469 221.089 49.5582 220.903C49.0696 220.714 48.7022 220.417 48.456 220.011C48.2098 219.606 48.0904 219.098 48.098 218.489V210.182ZM58.1023 221.159C57.1705 221.159 56.3674 220.981 55.6932 220.625C55.0227 220.265 54.5057 219.75 54.142 219.08C53.7822 218.405 53.6023 217.598 53.6023 216.659C53.6023 215.758 53.7841 214.97 54.1477 214.295C54.5114 213.621 55.0246 213.097 55.6875 212.722C56.3504 212.347 57.1326 212.159 58.0341 212.159C58.6932 212.159 59.2898 212.261 59.8239 212.466C60.358 212.67 60.8144 212.968 61.1932 213.358C61.572 213.744 61.8636 214.214 62.0682 214.767C62.2727 215.32 62.375 215.943 62.375 216.636V217.364H54.5795V215.636H59.4886C59.4848 215.386 59.4205 215.167 59.2955 214.977C59.1742 214.784 59.0095 214.634 58.8011 214.528C58.5966 214.419 58.3636 214.364 58.1023 214.364C57.8485 214.364 57.6155 214.419 57.4034 214.528C57.1913 214.634 57.0208 214.782 56.892 214.972C56.767 215.161 56.7008 215.383 56.6932 215.636V217.5C56.6932 217.78 56.7519 218.03 56.8693 218.25C56.9867 218.47 57.1553 218.642 57.375 218.767C57.5947 218.892 57.8598 218.955 58.1705 218.955C58.3864 218.955 58.5833 218.924 58.7614 218.864C58.9432 218.803 59.0985 218.716 59.2273 218.602C59.3561 218.485 59.4508 218.345 59.5114 218.182H62.375C62.2765 218.788 62.0436 219.314 61.6761 219.761C61.3087 220.205 60.822 220.549 60.2159 220.795C59.6136 221.038 58.9091 221.159 58.1023 221.159ZM63.6548 221V212.273H66.6321V213.932H66.723C66.9048 213.386 67.2154 212.955 67.6548 212.636C68.0942 212.318 68.617 212.159 69.223 212.159C69.8366 212.159 70.3651 212.322 70.8082 212.648C71.2514 212.97 71.5185 213.398 71.6094 213.932H71.7003C71.848 213.398 72.1624 212.97 72.6435 212.648C73.1245 212.322 73.6889 212.159 74.3366 212.159C75.1738 212.159 75.8518 212.428 76.3707 212.966C76.8935 213.504 77.1548 214.22 77.1548 215.114V221H74.0185V215.909C74.0185 215.527 73.9219 215.227 73.7287 215.011C73.5355 214.792 73.276 214.682 72.9503 214.682C72.6283 214.682 72.3726 214.792 72.1832 215.011C71.9976 215.227 71.9048 215.527 71.9048 215.909V221H68.9048V215.909C68.9048 215.527 68.8082 215.227 68.6151 215.011C68.4219 214.792 68.1624 214.682 67.8366 214.682C67.6207 214.682 67.4351 214.731 67.2798 214.83C67.1245 214.928 67.0033 215.07 66.9162 215.256C66.8329 215.437 66.7912 215.655 66.7912 215.909V221H63.6548Z" fill="#181818" fill-opacity="0.75"/>
<g filter="url(#filter4_d_128_632)">
<rect x="24" y="36" width="72" height="72" rx="8" fill="white" fill-opacity="0.75" shape-rendering="crispEdges"/>
</g>
<path d="M42.7955 77V68.2727H45.9318V77H42.7955ZM44.3636 67.3636C43.9394 67.3636 43.5758 67.2235 43.2727 66.9432C42.9697 66.6629 42.8182 66.3258 42.8182 65.9318C42.8182 65.5379 42.9697 65.2008 43.2727 64.9205C43.5758 64.6402 43.9394 64.5 44.3636 64.5C44.7917 64.5 45.1553 64.6402 45.4545 64.9205C45.7576 65.2008 45.9091 65.5379 45.9091 65.9318C45.9091 66.3258 45.7576 66.6629 45.4545 66.9432C45.1553 67.2235 44.7917 67.3636 44.3636 67.3636ZM52.7344 68.2727V70.5455H46.9844V68.2727H52.7344ZM48.098 66.1818H51.2344V74.1932C51.2344 74.3144 51.2552 74.4167 51.2969 74.5C51.3385 74.5795 51.4029 74.6402 51.4901 74.6818C51.5772 74.7197 51.6889 74.7386 51.8253 74.7386C51.92 74.7386 52.0298 74.7273 52.1548 74.7045C52.2836 74.6818 52.3783 74.6629 52.4389 74.6477L52.8935 76.8523C52.7533 76.8939 52.5526 76.9451 52.2912 77.0057C52.0336 77.0663 51.7268 77.1061 51.3707 77.125C50.651 77.1629 50.0469 77.089 49.5582 76.9034C49.0696 76.714 48.7022 76.4167 48.456 76.0114C48.2098 75.6061 48.0904 75.0985 48.098 74.4886V66.1818ZM58.1023 77.1591C57.1705 77.1591 56.3674 76.9811 55.6932 76.625C55.0227 76.2652 54.5057 75.75 54.142 75.0795C53.7822 74.4053 53.6023 73.5985 53.6023 72.6591C53.6023 71.7576 53.7841 70.9697 54.1477 70.2955C54.5114 69.6212 55.0246 69.0966 55.6875 68.7216C56.3504 68.3466 57.1326 68.1591 58.0341 68.1591C58.6932 68.1591 59.2898 68.2614 59.8239 68.4659C60.358 68.6705 60.8144 68.9678 61.1932 69.358C61.572 69.7443 61.8636 70.214 62.0682 70.767C62.2727 71.3201 62.375 71.9432 62.375 72.6364V73.3636H54.5795V71.6364H59.4886C59.4848 71.3864 59.4205 71.1667 59.2955 70.9773C59.1742 70.7841 59.0095 70.6345 58.8011 70.5284C58.5966 70.4186 58.3636 70.3636 58.1023 70.3636C57.8485 70.3636 57.6155 70.4186 57.4034 70.5284C57.1913 70.6345 57.0208 70.7822 56.892 70.9716C56.767 71.161 56.7008 71.3826 56.6932 71.6364V73.5C56.6932 73.7803 56.7519 74.0303 56.8693 74.25C56.9867 74.4697 57.1553 74.642 57.375 74.767C57.5947 74.892 57.8598 74.9545 58.1705 74.9545C58.3864 74.9545 58.5833 74.9242 58.7614 74.8636C58.9432 74.803 59.0985 74.7159 59.2273 74.6023C59.3561 74.4848 59.4508 74.3447 59.5114 74.1818H62.375C62.2765 74.7879 62.0436 75.3144 61.6761 75.7614C61.3087 76.2045 60.822 76.5492 60.2159 76.7955C59.6136 77.0379 58.9091 77.1591 58.1023 77.1591ZM63.6548 77V68.2727H66.6321V69.9318H66.723C66.9048 69.3864 67.2154 68.9545 67.6548 68.6364C68.0942 68.3182 68.617 68.1591 69.223 68.1591C69.8366 68.1591 70.3651 68.322 70.8082 68.6477C71.2514 68.9697 71.5185 69.3977 71.6094 69.9318H71.7003C71.848 69.3977 72.1624 68.9697 72.6435 68.6477C73.1245 68.322 73.6889 68.1591 74.3366 68.1591C75.1738 68.1591 75.8518 68.428 76.3707 68.9659C76.8935 69.5038 77.1548 70.2197 77.1548 71.1136V77H74.0185V71.9091C74.0185 71.5265 73.9219 71.2273 73.7287 71.0114C73.5355 70.7917 73.276 70.6818 72.9503 70.6818C72.6283 70.6818 72.3726 70.7917 72.1832 71.0114C71.9976 71.2273 71.9048 71.5265 71.9048 71.9091V77H68.9048V71.9091C68.9048 71.5265 68.8082 71.2273 68.6151 71.0114C68.4219 70.7917 68.1624 70.6818 67.8366 70.6818C67.6207 70.6818 67.4351 70.7311 67.2798 70.8295C67.1245 70.928 67.0033 71.0701 66.9162 71.2557C66.8329 71.4375 66.7912 71.6553 66.7912 71.9091V77H63.6548Z" fill="#181818" fill-opacity="0.75"/>
<g filter="url(#filter5_d_128_632)">
<rect x="168" y="36" width="72" height="72" rx="8" fill="white" fill-opacity="0.75" shape-rendering="crispEdges"/>
</g>
<path d="M186.795 77V68.2727H189.932V77H186.795ZM188.364 67.3636C187.939 67.3636 187.576 67.2235 187.273 66.9432C186.97 66.6629 186.818 66.3258 186.818 65.9318C186.818 65.5379 186.97 65.2008 187.273 64.9205C187.576 64.6402 187.939 64.5 188.364 64.5C188.792 64.5 189.155 64.6402 189.455 64.9205C189.758 65.2008 189.909 65.5379 189.909 65.9318C189.909 66.3258 189.758 66.6629 189.455 66.9432C189.155 67.2235 188.792 67.3636 188.364 67.3636ZM196.734 68.2727V70.5455H190.984V68.2727H196.734ZM192.098 66.1818H195.234V74.1932C195.234 74.3144 195.255 74.4167 195.297 74.5C195.339 74.5795 195.403 74.6402 195.49 74.6818C195.577 74.7197 195.689 74.7386 195.825 74.7386C195.92 74.7386 196.03 74.7273 196.155 74.7045C196.284 74.6818 196.378 74.6629 196.439 74.6477L196.893 76.8523C196.753 76.8939 196.553 76.9451 196.291 77.0057C196.034 77.0663 195.727 77.1061 195.371 77.125C194.651 77.1629 194.047 77.089 193.558 76.9034C193.07 76.714 192.702 76.4167 192.456 76.0114C192.21 75.6061 192.09 75.0985 192.098 74.4886V66.1818ZM202.102 77.1591C201.17 77.1591 200.367 76.9811 199.693 76.625C199.023 76.2652 198.506 75.75 198.142 75.0795C197.782 74.4053 197.602 73.5985 197.602 72.6591C197.602 71.7576 197.784 70.9697 198.148 70.2955C198.511 69.6212 199.025 69.0966 199.688 68.7216C200.35 68.3466 201.133 68.1591 202.034 68.1591C202.693 68.1591 203.29 68.2614 203.824 68.4659C204.358 68.6705 204.814 68.9678 205.193 69.358C205.572 69.7443 205.864 70.214 206.068 70.767C206.273 71.3201 206.375 71.9432 206.375 72.6364V73.3636H198.58V71.6364H203.489C203.485 71.3864 203.42 71.1667 203.295 70.9773C203.174 70.7841 203.009 70.6345 202.801 70.5284C202.597 70.4186 202.364 70.3636 202.102 70.3636C201.848 70.3636 201.616 70.4186 201.403 70.5284C201.191 70.6345 201.021 70.7822 200.892 70.9716C200.767 71.161 200.701 71.3826 200.693 71.6364V73.5C200.693 73.7803 200.752 74.0303 200.869 74.25C200.987 74.4697 201.155 74.642 201.375 74.767C201.595 74.892 201.86 74.9545 202.17 74.9545C202.386 74.9545 202.583 74.9242 202.761 74.8636C202.943 74.803 203.098 74.7159 203.227 74.6023C203.356 74.4848 203.451 74.3447 203.511 74.1818H206.375C206.277 74.7879 206.044 75.3144 205.676 75.7614C205.309 76.2045 204.822 76.5492 204.216 76.7955C203.614 77.0379 202.909 77.1591 202.102 77.1591ZM207.655 77V68.2727H210.632V69.9318H210.723C210.905 69.3864 211.215 68.9545 211.655 68.6364C212.094 68.3182 212.617 68.1591 213.223 68.1591C213.837 68.1591 214.365 68.322 214.808 68.6477C215.251 68.9697 215.518 69.3977 215.609 69.9318H215.7C215.848 69.3977 216.162 68.9697 216.643 68.6477C217.125 68.322 217.689 68.1591 218.337 68.1591C219.174 68.1591 219.852 68.428 220.371 68.9659C220.893 69.5038 221.155 70.2197 221.155 71.1136V77H218.018V71.9091C218.018 71.5265 217.922 71.2273 217.729 71.0114C217.536 70.7917 217.276 70.6818 216.95 70.6818C216.628 70.6818 216.373 70.7917 216.183 71.0114C215.998 71.2273 215.905 71.5265 215.905 71.9091V77H212.905V71.9091C212.905 71.5265 212.808 71.2273 212.615 71.0114C212.422 70.7917 212.162 70.6818 211.837 70.6818C211.621 70.6818 211.435 70.7311 211.28 70.8295C211.125 70.928 211.003 71.0701 210.916 71.2557C210.833 71.4375 210.791 71.6553 210.791 71.9091V77H207.655Z" fill="#181818" fill-opacity="0.75"/>
<g filter="url(#filter6_d_128_632)">
<rect x="96" y="108" width="72" height="72" rx="8" fill="white" fill-opacity="0.75" shape-rendering="crispEdges"/>
</g>
<path d="M114.795 149V140.273H117.932V149H114.795ZM116.364 139.364C115.939 139.364 115.576 139.223 115.273 138.943C114.97 138.663 114.818 138.326 114.818 137.932C114.818 137.538 114.97 137.201 115.273 136.92C115.576 136.64 115.939 136.5 116.364 136.5C116.792 136.5 117.155 136.64 117.455 136.92C117.758 137.201 117.909 137.538 117.909 137.932C117.909 138.326 117.758 138.663 117.455 138.943C117.155 139.223 116.792 139.364 116.364 139.364ZM124.734 140.273V142.545H118.984V140.273H124.734ZM120.098 138.182H123.234V146.193C123.234 146.314 123.255 146.417 123.297 146.5C123.339 146.58 123.403 146.64 123.49 146.682C123.577 146.72 123.689 146.739 123.825 146.739C123.92 146.739 124.03 146.727 124.155 146.705C124.284 146.682 124.378 146.663 124.439 146.648L124.893 148.852C124.753 148.894 124.553 148.945 124.291 149.006C124.034 149.066 123.727 149.106 123.371 149.125C122.651 149.163 122.047 149.089 121.558 148.903C121.07 148.714 120.702 148.417 120.456 148.011C120.21 147.606 120.09 147.098 120.098 146.489V138.182ZM130.102 149.159C129.17 149.159 128.367 148.981 127.693 148.625C127.023 148.265 126.506 147.75 126.142 147.08C125.782 146.405 125.602 145.598 125.602 144.659C125.602 143.758 125.784 142.97 126.148 142.295C126.511 141.621 127.025 141.097 127.688 140.722C128.35 140.347 129.133 140.159 130.034 140.159C130.693 140.159 131.29 140.261 131.824 140.466C132.358 140.67 132.814 140.968 133.193 141.358C133.572 141.744 133.864 142.214 134.068 142.767C134.273 143.32 134.375 143.943 134.375 144.636V145.364H126.58V143.636H131.489C131.485 143.386 131.42 143.167 131.295 142.977C131.174 142.784 131.009 142.634 130.801 142.528C130.597 142.419 130.364 142.364 130.102 142.364C129.848 142.364 129.616 142.419 129.403 142.528C129.191 142.634 129.021 142.782 128.892 142.972C128.767 143.161 128.701 143.383 128.693 143.636V145.5C128.693 145.78 128.752 146.03 128.869 146.25C128.987 146.47 129.155 146.642 129.375 146.767C129.595 146.892 129.86 146.955 130.17 146.955C130.386 146.955 130.583 146.924 130.761 146.864C130.943 146.803 131.098 146.716 131.227 146.602C131.356 146.485 131.451 146.345 131.511 146.182H134.375C134.277 146.788 134.044 147.314 133.676 147.761C133.309 148.205 132.822 148.549 132.216 148.795C131.614 149.038 130.909 149.159 130.102 149.159ZM135.655 149V140.273H138.632V141.932H138.723C138.905 141.386 139.215 140.955 139.655 140.636C140.094 140.318 140.617 140.159 141.223 140.159C141.837 140.159 142.365 140.322 142.808 140.648C143.251 140.97 143.518 141.398 143.609 141.932H143.7C143.848 141.398 144.162 140.97 144.643 140.648C145.125 140.322 145.689 140.159 146.337 140.159C147.174 140.159 147.852 140.428 148.371 140.966C148.893 141.504 149.155 142.22 149.155 143.114V149H146.018V143.909C146.018 143.527 145.922 143.227 145.729 143.011C145.536 142.792 145.276 142.682 144.95 142.682C144.628 142.682 144.373 142.792 144.183 143.011C143.998 143.227 143.905 143.527 143.905 143.909V149H140.905V143.909C140.905 143.527 140.808 143.227 140.615 143.011C140.422 142.792 140.162 142.682 139.837 142.682C139.621 142.682 139.435 142.731 139.28 142.83C139.125 142.928 139.003 143.07 138.916 143.256C138.833 143.437 138.791 143.655 138.791 143.909V149H135.655Z" fill="#181818" fill-opacity="0.75"/>
<g filter="url(#filter7_d_128_632)">
<rect x="24" y="108" width="72" height="72" rx="8" fill="white" fill-opacity="0.75" shape-rendering="crispEdges"/>
</g>
<path d="M42.7955 149V140.273H45.9318V149H42.7955ZM44.3636 139.364C43.9394 139.364 43.5758 139.223 43.2727 138.943C42.9697 138.663 42.8182 138.326 42.8182 137.932C42.8182 137.538 42.9697 137.201 43.2727 136.92C43.5758 136.64 43.9394 136.5 44.3636 136.5C44.7917 136.5 45.1553 136.64 45.4545 136.92C45.7576 137.201 45.9091 137.538 45.9091 137.932C45.9091 138.326 45.7576 138.663 45.4545 138.943C45.1553 139.223 44.7917 139.364 44.3636 139.364ZM52.7344 140.273V142.545H46.9844V140.273H52.7344ZM48.098 138.182H51.2344V146.193C51.2344 146.314 51.2552 146.417 51.2969 146.5C51.3385 146.58 51.4029 146.64 51.4901 146.682C51.5772 146.72 51.6889 146.739 51.8253 146.739C51.92 146.739 52.0298 146.727 52.1548 146.705C52.2836 146.682 52.3783 146.663 52.4389 146.648L52.8935 148.852C52.7533 148.894 52.5526 148.945 52.2912 149.006C52.0336 149.066 51.7268 149.106 51.3707 149.125C50.651 149.163 50.0469 149.089 49.5582 148.903C49.0696 148.714 48.7022 148.417 48.456 148.011C48.2098 147.606 48.0904 147.098 48.098 146.489V138.182ZM58.1023 149.159C57.1705 149.159 56.3674 148.981 55.6932 148.625C55.0227 148.265 54.5057 147.75 54.142 147.08C53.7822 146.405 53.6023 145.598 53.6023 144.659C53.6023 143.758 53.7841 142.97 54.1477 142.295C54.5114 141.621 55.0246 141.097 55.6875 140.722C56.3504 140.347 57.1326 140.159 58.0341 140.159C58.6932 140.159 59.2898 140.261 59.8239 140.466C60.358 140.67 60.8144 140.968 61.1932 141.358C61.572 141.744 61.8636 142.214 62.0682 142.767C62.2727 143.32 62.375 143.943 62.375 144.636V145.364H54.5795V143.636H59.4886C59.4848 143.386 59.4205 143.167 59.2955 142.977C59.1742 142.784 59.0095 142.634 58.8011 142.528C58.5966 142.419 58.3636 142.364 58.1023 142.364C57.8485 142.364 57.6155 142.419 57.4034 142.528C57.1913 142.634 57.0208 142.782 56.892 142.972C56.767 143.161 56.7008 143.383 56.6932 143.636V145.5C56.6932 145.78 56.7519 146.03 56.8693 146.25C56.9867 146.47 57.1553 146.642 57.375 146.767C57.5947 146.892 57.8598 146.955 58.1705 146.955C58.3864 146.955 58.5833 146.924 58.7614 146.864C58.9432 146.803 59.0985 146.716 59.2273 146.602C59.3561 146.485 59.4508 146.345 59.5114 146.182H62.375C62.2765 146.788 62.0436 147.314 61.6761 147.761C61.3087 148.205 60.822 148.549 60.2159 148.795C59.6136 149.038 58.9091 149.159 58.1023 149.159ZM63.6548 149V140.273H66.6321V141.932H66.723C66.9048 141.386 67.2154 140.955 67.6548 140.636C68.0942 140.318 68.617 140.159 69.223 140.159C69.8366 140.159 70.3651 140.322 70.8082 140.648C71.2514 140.97 71.5185 141.398 71.6094 141.932H71.7003C71.848 141.398 72.1624 140.97 72.6435 140.648C73.1245 140.322 73.6889 140.159 74.3366 140.159C75.1738 140.159 75.8518 140.428 76.3707 140.966C76.8935 141.504 77.1548 142.22 77.1548 143.114V149H74.0185V143.909C74.0185 143.527 73.9219 143.227 73.7287 143.011C73.5355 142.792 73.276 142.682 72.9503 142.682C72.6283 142.682 72.3726 142.792 72.1832 143.011C71.9976 143.227 71.9048 143.527 71.9048 143.909V149H68.9048V143.909C68.9048 143.527 68.8082 143.227 68.6151 143.011C68.4219 142.792 68.1624 142.682 67.8366 142.682C67.6207 142.682 67.4351 142.731 67.2798 142.83C67.1245 142.928 67.0033 143.07 66.9162 143.256C66.8329 143.437 66.7912 143.655 66.7912 143.909V149H63.6548Z" fill="#181818" fill-opacity="0.75"/>
<g filter="url(#filter8_d_128_632)">
<rect x="168" y="108" width="72" height="72" rx="8" fill="white" fill-opacity="0.75" shape-rendering="crispEdges"/>
</g>
<path d="M186.795 149V140.273H189.932V149H186.795ZM188.364 139.364C187.939 139.364 187.576 139.223 187.273 138.943C186.97 138.663 186.818 138.326 186.818 137.932C186.818 137.538 186.97 137.201 187.273 136.92C187.576 136.64 187.939 136.5 188.364 136.5C188.792 136.5 189.155 136.64 189.455 136.92C189.758 137.201 189.909 137.538 189.909 137.932C189.909 138.326 189.758 138.663 189.455 138.943C189.155 139.223 188.792 139.364 188.364 139.364ZM196.734 140.273V142.545H190.984V140.273H196.734ZM192.098 138.182H195.234V146.193C195.234 146.314 195.255 146.417 195.297 146.5C195.339 146.58 195.403 146.64 195.49 146.682C195.577 146.72 195.689 146.739 195.825 146.739C195.92 146.739 196.03 146.727 196.155 146.705C196.284 146.682 196.378 146.663 196.439 146.648L196.893 148.852C196.753 148.894 196.553 148.945 196.291 149.006C196.034 149.066 195.727 149.106 195.371 149.125C194.651 149.163 194.047 149.089 193.558 148.903C193.07 148.714 192.702 148.417 192.456 148.011C192.21 147.606 192.09 147.098 192.098 146.489V138.182ZM202.102 149.159C201.17 149.159 200.367 148.981 199.693 148.625C199.023 148.265 198.506 147.75 198.142 147.08C197.782 146.405 197.602 145.598 197.602 144.659C197.602 143.758 197.784 142.97 198.148 142.295C198.511 141.621 199.025 141.097 199.688 140.722C200.35 140.347 201.133 140.159 202.034 140.159C202.693 140.159 203.29 140.261 203.824 140.466C204.358 140.67 204.814 140.968 205.193 141.358C205.572 141.744 205.864 142.214 206.068 142.767C206.273 143.32 206.375 143.943 206.375 144.636V145.364H198.58V143.636H203.489C203.485 143.386 203.42 143.167 203.295 142.977C203.174 142.784 203.009 142.634 202.801 142.528C202.597 142.419 202.364 142.364 202.102 142.364C201.848 142.364 201.616 142.419 201.403 142.528C201.191 142.634 201.021 142.782 200.892 142.972C200.767 143.161 200.701 143.383 200.693 143.636V145.5C200.693 145.78 200.752 146.03 200.869 146.25C200.987 146.47 201.155 146.642 201.375 146.767C201.595 146.892 201.86 146.955 202.17 146.955C202.386 146.955 202.583 146.924 202.761 146.864C202.943 146.803 203.098 146.716 203.227 146.602C203.356 146.485 203.451 146.345 203.511 146.182H206.375C206.277 146.788 206.044 147.314 205.676 147.761C205.309 148.205 204.822 148.549 204.216 148.795C203.614 149.038 202.909 149.159 202.102 149.159ZM207.655 149V140.273H210.632V141.932H210.723C210.905 141.386 211.215 140.955 211.655 140.636C212.094 140.318 212.617 140.159 213.223 140.159C213.837 140.159 214.365 140.322 214.808 140.648C215.251 140.97 215.518 141.398 215.609 141.932H215.7C215.848 141.398 216.162 140.97 216.643 140.648C217.125 140.322 217.689 140.159 218.337 140.159C219.174 140.159 219.852 140.428 220.371 140.966C220.893 141.504 221.155 142.22 221.155 143.114V149H218.018V143.909C218.018 143.527 217.922 143.227 217.729 143.011C217.536 142.792 217.276 142.682 216.95 142.682C216.628 142.682 216.373 142.792 216.183 143.011C215.998 143.227 215.905 143.527 215.905 143.909V149H212.905V143.909C212.905 143.527 212.808 143.227 212.615 143.011C212.422 142.792 212.162 142.682 211.837 142.682C211.621 142.682 211.435 142.731 211.28 142.83C211.125 142.928 211.003 143.07 210.916 143.256C210.833 143.437 210.791 143.655 210.791 143.909V149H207.655Z" fill="#181818" fill-opacity="0.75"/>
<g filter="url(#filter9_d_128_632)">
<rect x="168" y="180" width="72" height="72" rx="8" fill="white" fill-opacity="0.75" shape-rendering="crispEdges"/>
</g>
<path d="M186.795 221V212.273H189.932V221H186.795ZM188.364 211.364C187.939 211.364 187.576 211.223 187.273 210.943C186.97 210.663 186.818 210.326 186.818 209.932C186.818 209.538 186.97 209.201 187.273 208.92C187.576 208.64 187.939 208.5 188.364 208.5C188.792 208.5 189.155 208.64 189.455 208.92C189.758 209.201 189.909 209.538 189.909 209.932C189.909 210.326 189.758 210.663 189.455 210.943C189.155 211.223 188.792 211.364 188.364 211.364ZM196.734 212.273V214.545H190.984V212.273H196.734ZM192.098 210.182H195.234V218.193C195.234 218.314 195.255 218.417 195.297 218.5C195.339 218.58 195.403 218.64 195.49 218.682C195.577 218.72 195.689 218.739 195.825 218.739C195.92 218.739 196.03 218.727 196.155 218.705C196.284 218.682 196.378 218.663 196.439 218.648L196.893 220.852C196.753 220.894 196.553 220.945 196.291 221.006C196.034 221.066 195.727 221.106 195.371 221.125C194.651 221.163 194.047 221.089 193.558 220.903C193.07 220.714 192.702 220.417 192.456 220.011C192.21 219.606 192.09 219.098 192.098 218.489V210.182ZM202.102 221.159C201.17 221.159 200.367 220.981 199.693 220.625C199.023 220.265 198.506 219.75 198.142 219.08C197.782 218.405 197.602 217.598 197.602 216.659C197.602 215.758 197.784 214.97 198.148 214.295C198.511 213.621 199.025 213.097 199.688 212.722C200.35 212.347 201.133 212.159 202.034 212.159C202.693 212.159 203.29 212.261 203.824 212.466C204.358 212.67 204.814 212.968 205.193 213.358C205.572 213.744 205.864 214.214 206.068 214.767C206.273 215.32 206.375 215.943 206.375 216.636V217.364H198.58V215.636H203.489C203.485 215.386 203.42 215.167 203.295 214.977C203.174 214.784 203.009 214.634 202.801 214.528C202.597 214.419 202.364 214.364 202.102 214.364C201.848 214.364 201.616 214.419 201.403 214.528C201.191 214.634 201.021 214.782 200.892 214.972C200.767 215.161 200.701 215.383 200.693 215.636V217.5C200.693 217.78 200.752 218.03 200.869 218.25C200.987 218.47 201.155 218.642 201.375 218.767C201.595 218.892 201.86 218.955 202.17 218.955C202.386 218.955 202.583 218.924 202.761 218.864C202.943 218.803 203.098 218.716 203.227 218.602C203.356 218.485 203.451 218.345 203.511 218.182H206.375C206.277 218.788 206.044 219.314 205.676 219.761C205.309 220.205 204.822 220.549 204.216 220.795C203.614 221.038 202.909 221.159 202.102 221.159ZM207.655 221V212.273H210.632V213.932H210.723C210.905 213.386 211.215 212.955 211.655 212.636C212.094 212.318 212.617 212.159 213.223 212.159C213.837 212.159 214.365 212.322 214.808 212.648C215.251 212.97 215.518 213.398 215.609 213.932H215.7C215.848 213.398 216.162 212.97 216.643 212.648C217.125 212.322 217.689 212.159 218.337 212.159C219.174 212.159 219.852 212.428 220.371 212.966C220.893 213.504 221.155 214.22 221.155 215.114V221H218.018V215.909C218.018 215.527 217.922 215.227 217.729 215.011C217.536 214.792 217.276 214.682 216.95 214.682C216.628 214.682 216.373 214.792 216.183 215.011C215.998 215.227 215.905 215.527 215.905 215.909V221H212.905V215.909C212.905 215.527 212.808 215.227 212.615 215.011C212.422 214.792 212.162 214.682 211.837 214.682C211.621 214.682 211.435 214.731 211.28 214.83C211.125 214.928 211.003 215.07 210.916 215.256C210.833 215.437 210.791 215.655 210.791 215.909V221H207.655Z" fill="#181818" fill-opacity="0.75"/>
<path d="M32.7727 21.1136H29.8864C29.8712 20.9356 29.8087 20.7822 29.6989 20.6534C29.589 20.5246 29.447 20.4261 29.2727 20.358C29.1023 20.286 28.9129 20.25 28.7045 20.25C28.4356 20.25 28.2045 20.2992 28.0114 20.3977C27.8182 20.4962 27.7235 20.6364 27.7273 20.8182C27.7235 20.947 27.7784 21.0663 27.892 21.1761C28.0095 21.286 28.2348 21.3712 28.5682 21.4318L30.3409 21.75C31.2348 21.9129 31.8996 22.1875 32.3352 22.5739C32.7746 22.9564 32.9962 23.4697 33 24.1136C32.9962 24.7348 32.8106 25.2746 32.4432 25.733C32.0795 26.1875 31.5814 26.5398 30.9489 26.7898C30.3201 27.036 29.6023 27.1591 28.7955 27.1591C27.4621 27.1591 26.4186 26.8864 25.6648 26.3409C24.9148 25.7955 24.4962 25.0758 24.4091 24.1818H27.5227C27.5644 24.4583 27.7008 24.6723 27.9318 24.8239C28.1667 24.9716 28.4621 25.0455 28.8182 25.0455C29.1061 25.0455 29.3428 24.9962 29.5284 24.8977C29.7178 24.7992 29.8144 24.6591 29.8182 24.4773C29.8144 24.3106 29.7311 24.178 29.5682 24.0795C29.4091 23.9811 29.1591 23.9015 28.8182 23.8409L27.2727 23.5682C26.3826 23.4129 25.7159 23.1174 25.2727 22.6818C24.8295 22.2462 24.6098 21.6856 24.6136 21C24.6098 20.3939 24.7689 19.8807 25.0909 19.4602C25.4167 19.036 25.8807 18.714 26.483 18.4943C27.089 18.2708 27.8068 18.1591 28.6364 18.1591C29.8977 18.1591 30.892 18.4205 31.6193 18.9432C32.3504 19.4659 32.7348 20.1894 32.7727 21.1136ZM39.4062 18.2727V20.5455H33.6562V18.2727H39.4062ZM34.7699 16.1818H37.9062V24.1932C37.9062 24.3144 37.9271 24.4167 37.9688 24.5C38.0104 24.5795 38.0748 24.6402 38.1619 24.6818C38.2491 24.7197 38.3608 24.7386 38.4972 24.7386C38.5919 24.7386 38.7017 24.7273 38.8267 24.7045C38.9555 24.6818 39.0502 24.6629 39.1108 24.6477L39.5653 26.8523C39.4252 26.8939 39.2244 26.9451 38.9631 27.0057C38.7055 27.0663 38.3987 27.1061 38.0426 27.125C37.3229 27.1629 36.7188 27.089 36.2301 26.9034C35.7415 26.714 35.3741 26.4167 35.1278 26.0114C34.8816 25.6061 34.7623 25.0985 34.7699 24.4886V16.1818ZM43.1179 27.1364C42.5611 27.1364 42.0687 27.0455 41.6406 26.8636C41.2164 26.678 40.883 26.3977 40.6406 26.0227C40.3982 25.6477 40.277 25.1705 40.277 24.5909C40.277 24.1136 40.3584 23.7064 40.5213 23.3693C40.6842 23.0284 40.9115 22.75 41.2031 22.5341C41.4948 22.3182 41.8338 22.1534 42.2202 22.0398C42.6103 21.9261 43.0308 21.8523 43.4815 21.8182C43.9702 21.7803 44.3622 21.7348 44.6577 21.6818C44.9569 21.625 45.1728 21.5473 45.3054 21.4489C45.438 21.3466 45.5043 21.2121 45.5043 21.0455V21.0227C45.5043 20.7955 45.4171 20.6212 45.2429 20.5C45.0687 20.3788 44.8452 20.3182 44.5724 20.3182C44.2732 20.3182 44.0289 20.3845 43.8395 20.517C43.6539 20.6458 43.5421 20.8447 43.5043 21.1136H40.6179C40.6558 20.5833 40.8243 20.0947 41.1236 19.6477C41.4266 19.197 41.8679 18.8371 42.4474 18.5682C43.027 18.2955 43.7505 18.1591 44.6179 18.1591C45.2429 18.1591 45.8035 18.233 46.2997 18.3807C46.7959 18.5246 47.2183 18.7273 47.5668 18.9886C47.9152 19.2462 48.1804 19.5492 48.3622 19.8977C48.5478 20.2424 48.6406 20.6174 48.6406 21.0227V27H45.7088V25.7727H45.6406C45.4664 26.0985 45.2543 26.3617 45.0043 26.5625C44.758 26.7633 44.4759 26.9091 44.1577 27C43.8433 27.0909 43.4967 27.1364 43.1179 27.1364ZM44.1406 25.1591C44.3793 25.1591 44.6027 25.1098 44.8111 25.0114C45.0232 24.9129 45.1955 24.7708 45.3281 24.5852C45.4607 24.3996 45.527 24.1742 45.527 23.9091V23.1818C45.4437 23.2159 45.3546 23.2481 45.2599 23.2784C45.169 23.3087 45.0705 23.3371 44.9645 23.3636C44.8622 23.3902 44.7524 23.4148 44.6349 23.4375C44.5213 23.4602 44.402 23.4811 44.277 23.5C44.0346 23.5379 43.8357 23.6004 43.6804 23.6875C43.5289 23.7708 43.4152 23.875 43.3395 24C43.2675 24.1212 43.2315 24.2576 43.2315 24.4091C43.2315 24.6515 43.3168 24.8371 43.4872 24.9659C43.6577 25.0947 43.8755 25.1591 44.1406 25.1591ZM50.1392 27V18.2727H53.1847V19.9318H53.2756C53.4347 19.3182 53.6866 18.8693 54.0312 18.5852C54.3797 18.3011 54.7869 18.1591 55.2528 18.1591C55.3892 18.1591 55.5237 18.1705 55.6562 18.1932C55.7926 18.2121 55.9233 18.2405 56.0483 18.2784V20.9545C55.893 20.9015 55.7017 20.8617 55.4744 20.8352C55.2472 20.8087 55.0521 20.7955 54.8892 20.7955C54.5824 20.7955 54.3059 20.8655 54.0597 21.0057C53.8172 21.142 53.6259 21.3352 53.4858 21.5852C53.3456 21.8314 53.2756 22.1212 53.2756 22.4545V27H50.1392ZM62.6406 18.2727V20.5455H56.8906V18.2727H62.6406ZM58.0043 16.1818H61.1406V24.1932C61.1406 24.3144 61.1615 24.4167 61.2031 24.5C61.2448 24.5795 61.3092 24.6402 61.3963 24.6818C61.4834 24.7197 61.5952 24.7386 61.7315 24.7386C61.8262 24.7386 61.9361 24.7273 62.0611 24.7045C62.1899 24.6818 62.2846 24.6629 62.3452 24.6477L62.7997 26.8523C62.6596 26.8939 62.4588 26.9451 62.1974 27.0057C61.9399 27.0663 61.633 27.1061 61.277 27.125C60.5573 27.1629 59.9531 27.089 59.4645 26.9034C58.9759 26.714 58.6084 26.4167 58.3622 26.0114C58.116 25.6061 57.9967 25.0985 58.0043 24.4886V16.1818Z" fill="#181818" fill-opacity="0.75"/>
<g filter="url(#filter10_d_128_632)">
<rect x="408" y="4" width="368" height="360" rx="8" fill="#2172FF" fill-opacity="0.8" shape-rendering="crispEdges"/>
</g>
<g filter="url(#filter11_d_128_632)">
<rect x="616" y="180" width="72" height="72" rx="8" fill="white" fill-opacity="0.75" shape-rendering="crispEdges"/>
</g>
<path d="M634.795 221V212.273H637.932V221H634.795ZM636.364 211.364C635.939 211.364 635.576 211.223 635.273 210.943C634.97 210.663 634.818 210.326 634.818 209.932C634.818 209.538 634.97 209.201 635.273 208.92C635.576 208.64 635.939 208.5 636.364 208.5C636.792 208.5 637.155 208.64 637.455 208.92C637.758 209.201 637.909 209.538 637.909 209.932C637.909 210.326 637.758 210.663 637.455 210.943C637.155 211.223 636.792 211.364 636.364 211.364ZM644.734 212.273V214.545H638.984V212.273H644.734ZM640.098 210.182H643.234V218.193C643.234 218.314 643.255 218.417 643.297 218.5C643.339 218.58 643.403 218.64 643.49 218.682C643.577 218.72 643.689 218.739 643.825 218.739C643.92 218.739 644.03 218.727 644.155 218.705C644.284 218.682 644.378 218.663 644.439 218.648L644.893 220.852C644.753 220.894 644.553 220.945 644.291 221.006C644.034 221.066 643.727 221.106 643.371 221.125C642.651 221.163 642.047 221.089 641.558 220.903C641.07 220.714 640.702 220.417 640.456 220.011C640.21 219.606 640.09 219.098 640.098 218.489V210.182ZM650.102 221.159C649.17 221.159 648.367 220.981 647.693 220.625C647.023 220.265 646.506 219.75 646.142 219.08C645.782 218.405 645.602 217.598 645.602 216.659C645.602 215.758 645.784 214.97 646.148 214.295C646.511 213.621 647.025 213.097 647.688 212.722C648.35 212.347 649.133 212.159 650.034 212.159C650.693 212.159 651.29 212.261 651.824 212.466C652.358 212.67 652.814 212.968 653.193 213.358C653.572 213.744 653.864 214.214 654.068 214.767C654.273 215.32 654.375 215.943 654.375 216.636V217.364H646.58V215.636H651.489C651.485 215.386 651.42 215.167 651.295 214.977C651.174 214.784 651.009 214.634 650.801 214.528C650.597 214.419 650.364 214.364 650.102 214.364C649.848 214.364 649.616 214.419 649.403 214.528C649.191 214.634 649.021 214.782 648.892 214.972C648.767 215.161 648.701 215.383 648.693 215.636V217.5C648.693 217.78 648.752 218.03 648.869 218.25C648.987 218.47 649.155 218.642 649.375 218.767C649.595 218.892 649.86 218.955 650.17 218.955C650.386 218.955 650.583 218.924 650.761 218.864C650.943 218.803 651.098 218.716 651.227 218.602C651.356 218.485 651.451 218.345 651.511 218.182H654.375C654.277 218.788 654.044 219.314 653.676 219.761C653.309 220.205 652.822 220.549 652.216 220.795C651.614 221.038 650.909 221.159 650.102 221.159ZM655.655 221V212.273H658.632V213.932H658.723C658.905 213.386 659.215 212.955 659.655 212.636C660.094 212.318 660.617 212.159 661.223 212.159C661.837 212.159 662.365 212.322 662.808 212.648C663.251 212.97 663.518 213.398 663.609 213.932H663.7C663.848 213.398 664.162 212.97 664.643 212.648C665.125 212.322 665.689 212.159 666.337 212.159C667.174 212.159 667.852 212.428 668.371 212.966C668.893 213.504 669.155 214.22 669.155 215.114V221H666.018V215.909C666.018 215.527 665.922 215.227 665.729 215.011C665.536 214.792 665.276 214.682 664.95 214.682C664.628 214.682 664.373 214.792 664.183 215.011C663.998 215.227 663.905 215.527 663.905 215.909V221H660.905V215.909C660.905 215.527 660.808 215.227 660.615 215.011C660.422 214.792 660.162 214.682 659.837 214.682C659.621 214.682 659.435 214.731 659.28 214.83C659.125 214.928 659.003 215.07 658.916 215.256C658.833 215.437 658.791 215.655 658.791 215.909V221H655.655Z" fill="#181818" fill-opacity="0.75"/>
<g filter="url(#filter12_d_128_632)">
<rect x="616" y="36" width="72" height="72" rx="8" fill="white" fill-opacity="0.75" shape-rendering="crispEdges"/>
</g>
<path d="M634.795 77V68.2727H637.932V77H634.795ZM636.364 67.3636C635.939 67.3636 635.576 67.2235 635.273 66.9432C634.97 66.6629 634.818 66.3258 634.818 65.9318C634.818 65.5379 634.97 65.2008 635.273 64.9205C635.576 64.6402 635.939 64.5 636.364 64.5C636.792 64.5 637.155 64.6402 637.455 64.9205C637.758 65.2008 637.909 65.5379 637.909 65.9318C637.909 66.3258 637.758 66.6629 637.455 66.9432C637.155 67.2235 636.792 67.3636 636.364 67.3636ZM644.734 68.2727V70.5455H638.984V68.2727H644.734ZM640.098 66.1818H643.234V74.1932C643.234 74.3144 643.255 74.4167 643.297 74.5C643.339 74.5795 643.403 74.6402 643.49 74.6818C643.577 74.7197 643.689 74.7386 643.825 74.7386C643.92 74.7386 644.03 74.7273 644.155 74.7045C644.284 74.6818 644.378 74.6629 644.439 74.6477L644.893 76.8523C644.753 76.8939 644.553 76.9451 644.291 77.0057C644.034 77.0663 643.727 77.1061 643.371 77.125C642.651 77.1629 642.047 77.089 641.558 76.9034C641.07 76.714 640.702 76.4167 640.456 76.0114C640.21 75.6061 640.09 75.0985 640.098 74.4886V66.1818ZM650.102 77.1591C649.17 77.1591 648.367 76.9811 647.693 76.625C647.023 76.2652 646.506 75.75 646.142 75.0795C645.782 74.4053 645.602 73.5985 645.602 72.6591C645.602 71.7576 645.784 70.9697 646.148 70.2955C646.511 69.6212 647.025 69.0966 647.688 68.7216C648.35 68.3466 649.133 68.1591 650.034 68.1591C650.693 68.1591 651.29 68.2614 651.824 68.4659C652.358 68.6705 652.814 68.9678 653.193 69.358C653.572 69.7443 653.864 70.214 654.068 70.767C654.273 71.3201 654.375 71.9432 654.375 72.6364V73.3636H646.58V71.6364H651.489C651.485 71.3864 651.42 71.1667 651.295 70.9773C651.174 70.7841 651.009 70.6345 650.801 70.5284C650.597 70.4186 650.364 70.3636 650.102 70.3636C649.848 70.3636 649.616 70.4186 649.403 70.5284C649.191 70.6345 649.021 70.7822 648.892 70.9716C648.767 71.161 648.701 71.3826 648.693 71.6364V73.5C648.693 73.7803 648.752 74.0303 648.869 74.25C648.987 74.4697 649.155 74.642 649.375 74.767C649.595 74.892 649.86 74.9545 650.17 74.9545C650.386 74.9545 650.583 74.9242 650.761 74.8636C650.943 74.803 651.098 74.7159 651.227 74.6023C651.356 74.4848 651.451 74.3447 651.511 74.1818H654.375C654.277 74.7879 654.044 75.3144 653.676 75.7614C653.309 76.2045 652.822 76.5492 652.216 76.7955C651.614 77.0379 650.909 77.1591 650.102 77.1591ZM655.655 77V68.2727H658.632V69.9318H658.723C658.905 69.3864 659.215 68.9545 659.655 68.6364C660.094 68.3182 660.617 68.1591 661.223 68.1591C661.837 68.1591 662.365 68.322 662.808 68.6477C663.251 68.9697 663.518 69.3977 663.609 69.9318H663.7C663.848 69.3977 664.162 68.9697 664.643 68.6477C665.125 68.322 665.689 68.1591 666.337 68.1591C667.174 68.1591 667.852 68.428 668.371 68.9659C668.893 69.5038 669.155 70.2197 669.155 71.1136V77H666.018V71.9091C666.018 71.5265 665.922 71.2273 665.729 71.0114C665.536 70.7917 665.276 70.6818 664.95 70.6818C664.628 70.6818 664.373 70.7917 664.183 71.0114C663.998 71.2273 663.905 71.5265 663.905 71.9091V77H660.905V71.9091C660.905 71.5265 660.808 71.2273 660.615 71.0114C660.422 70.7917 660.162 70.6818 659.837 70.6818C659.621 70.6818 659.435 70.7311 659.28 70.8295C659.125 70.928 659.003 71.0701 658.916 71.2557C658.833 71.4375 658.791 71.6553 658.791 71.9091V77H655.655Z" fill="#181818" fill-opacity="0.75"/>
<g filter="url(#filter13_d_128_632)">
<rect x="544" y="180" width="72" height="72" rx="8" fill="white" fill-opacity="0.75" shape-rendering="crispEdges"/>
</g>
<path d="M562.795 221V212.273H565.932V221H562.795ZM564.364 211.364C563.939 211.364 563.576 211.223 563.273 210.943C562.97 210.663 562.818 210.326 562.818 209.932C562.818 209.538 562.97 209.201 563.273 208.92C563.576 208.64 563.939 208.5 564.364 208.5C564.792 208.5 565.155 208.64 565.455 208.92C565.758 209.201 565.909 209.538 565.909 209.932C565.909 210.326 565.758 210.663 565.455 210.943C565.155 211.223 564.792 211.364 564.364 211.364ZM572.734 212.273V214.545H566.984V212.273H572.734ZM568.098 210.182H571.234V218.193C571.234 218.314 571.255 218.417 571.297 218.5C571.339 218.58 571.403 218.64 571.49 218.682C571.577 218.72 571.689 218.739 571.825 218.739C571.92 218.739 572.03 218.727 572.155 218.705C572.284 218.682 572.378 218.663 572.439 218.648L572.893 220.852C572.753 220.894 572.553 220.945 572.291 221.006C572.034 221.066 571.727 221.106 571.371 221.125C570.651 221.163 570.047 221.089 569.558 220.903C569.07 220.714 568.702 220.417 568.456 220.011C568.21 219.606 568.09 219.098 568.098 218.489V210.182ZM578.102 221.159C577.17 221.159 576.367 220.981 575.693 220.625C575.023 220.265 574.506 219.75 574.142 219.08C573.782 218.405 573.602 217.598 573.602 216.659C573.602 215.758 573.784 214.97 574.148 214.295C574.511 213.621 575.025 213.097 575.688 212.722C576.35 212.347 577.133 212.159 578.034 212.159C578.693 212.159 579.29 212.261 579.824 212.466C580.358 212.67 580.814 212.968 581.193 213.358C581.572 213.744 581.864 214.214 582.068 214.767C582.273 215.32 582.375 215.943 582.375 216.636V217.364H574.58V215.636H579.489C579.485 215.386 579.42 215.167 579.295 214.977C579.174 214.784 579.009 214.634 578.801 214.528C578.597 214.419 578.364 214.364 578.102 214.364C577.848 214.364 577.616 214.419 577.403 214.528C577.191 214.634 577.021 214.782 576.892 214.972C576.767 215.161 576.701 215.383 576.693 215.636V217.5C576.693 217.78 576.752 218.03 576.869 218.25C576.987 218.47 577.155 218.642 577.375 218.767C577.595 218.892 577.86 218.955 578.17 218.955C578.386 218.955 578.583 218.924 578.761 218.864C578.943 218.803 579.098 218.716 579.227 218.602C579.356 218.485 579.451 218.345 579.511 218.182H582.375C582.277 218.788 582.044 219.314 581.676 219.761C581.309 220.205 580.822 220.549 580.216 220.795C579.614 221.038 578.909 221.159 578.102 221.159ZM583.655 221V212.273H586.632V213.932H586.723C586.905 213.386 587.215 212.955 587.655 212.636C588.094 212.318 588.617 212.159 589.223 212.159C589.837 212.159 590.365 212.322 590.808 212.648C591.251 212.97 591.518 213.398 591.609 213.932H591.7C591.848 213.398 592.162 212.97 592.643 212.648C593.125 212.322 593.689 212.159 594.337 212.159C595.174 212.159 595.852 212.428 596.371 212.966C596.893 213.504 597.155 214.22 597.155 215.114V221H594.018V215.909C594.018 215.527 593.922 215.227 593.729 215.011C593.536 214.792 593.276 214.682 592.95 214.682C592.628 214.682 592.373 214.792 592.183 215.011C591.998 215.227 591.905 215.527 591.905 215.909V221H588.905V215.909C588.905 215.527 588.808 215.227 588.615 215.011C588.422 214.792 588.162 214.682 587.837 214.682C587.621 214.682 587.435 214.731 587.28 214.83C587.125 214.928 587.003 215.07 586.916 215.256C586.833 215.437 586.791 215.655 586.791 215.909V221H583.655Z" fill="#181818" fill-opacity="0.75"/>
<g filter="url(#filter14_d_128_632)">
<rect x="544" y="36" width="72" height="72" rx="8" fill="white" fill-opacity="0.75" shape-rendering="crispEdges"/>
</g>
<path d="M562.795 77V68.2727H565.932V77H562.795ZM564.364 67.3636C563.939 67.3636 563.576 67.2235 563.273 66.9432C562.97 66.6629 562.818 66.3258 562.818 65.9318C562.818 65.5379 562.97 65.2008 563.273 64.9205C563.576 64.6402 563.939 64.5 564.364 64.5C564.792 64.5 565.155 64.6402 565.455 64.9205C565.758 65.2008 565.909 65.5379 565.909 65.9318C565.909 66.3258 565.758 66.6629 565.455 66.9432C565.155 67.2235 564.792 67.3636 564.364 67.3636ZM572.734 68.2727V70.5455H566.984V68.2727H572.734ZM568.098 66.1818H571.234V74.1932C571.234 74.3144 571.255 74.4167 571.297 74.5C571.339 74.5795 571.403 74.6402 571.49 74.6818C571.577 74.7197 571.689 74.7386 571.825 74.7386C571.92 74.7386 572.03 74.7273 572.155 74.7045C572.284 74.6818 572.378 74.6629 572.439 74.6477L572.893 76.8523C572.753 76.8939 572.553 76.9451 572.291 77.0057C572.034 77.0663 571.727 77.1061 571.371 77.125C570.651 77.1629 570.047 77.089 569.558 76.9034C569.07 76.714 568.702 76.4167 568.456 76.0114C568.21 75.6061 568.09 75.0985 568.098 74.4886V66.1818ZM578.102 77.1591C577.17 77.1591 576.367 76.9811 575.693 76.625C575.023 76.2652 574.506 75.75 574.142 75.0795C573.782 74.4053 573.602 73.5985 573.602 72.6591C573.602 71.7576 573.784 70.9697 574.148 70.2955C574.511 69.6212 575.025 69.0966 575.688 68.7216C576.35 68.3466 577.133 68.1591 578.034 68.1591C578.693 68.1591 579.29 68.2614 579.824 68.4659C580.358 68.6705 580.814 68.9678 581.193 69.358C581.572 69.7443 581.864 70.214 582.068 70.767C582.273 71.3201 582.375 71.9432 582.375 72.6364V73.3636H574.58V71.6364H579.489C579.485 71.3864 579.42 71.1667 579.295 70.9773C579.174 70.7841 579.009 70.6345 578.801 70.5284C578.597 70.4186 578.364 70.3636 578.102 70.3636C577.848 70.3636 577.616 70.4186 577.403 70.5284C577.191 70.6345 577.021 70.7822 576.892 70.9716C576.767 71.161 576.701 71.3826 576.693 71.6364V73.5C576.693 73.7803 576.752 74.0303 576.869 74.25C576.987 74.4697 577.155 74.642 577.375 74.767C577.595 74.892 577.86 74.9545 578.17 74.9545C578.386 74.9545 578.583 74.9242 578.761 74.8636C578.943 74.803 579.098 74.7159 579.227 74.6023C579.356 74.4848 579.451 74.3447 579.511 74.1818H582.375C582.277 74.7879 582.044 75.3144 581.676 75.7614C581.309 76.2045 580.822 76.5492 580.216 76.7955C579.614 77.0379 578.909 77.1591 578.102 77.1591ZM583.655 77V68.2727H586.632V69.9318H586.723C586.905 69.3864 587.215 68.9545 587.655 68.6364C588.094 68.3182 588.617 68.1591 589.223 68.1591C589.837 68.1591 590.365 68.322 590.808 68.6477C591.251 68.9697 591.518 69.3977 591.609 69.9318H591.7C591.848 69.3977 592.162 68.9697 592.643 68.6477C593.125 68.322 593.689 68.1591 594.337 68.1591C595.174 68.1591 595.852 68.428 596.371 68.9659C596.893 69.5038 597.155 70.2197 597.155 71.1136V77H594.018V71.9091C594.018 71.5265 593.922 71.2273 593.729 71.0114C593.536 70.7917 593.276 70.6818 592.95 70.6818C592.628 70.6818 592.373 70.7917 592.183 71.0114C591.998 71.2273 591.905 71.5265 591.905 71.9091V77H588.905V71.9091C588.905 71.5265 588.808 71.2273 588.615 71.0114C588.422 70.7917 588.162 70.6818 587.837 70.6818C587.621 70.6818 587.435 70.7311 587.28 70.8295C587.125 70.928 587.003 71.0701 586.916 71.2557C586.833 71.4375 586.791 71.6553 586.791 71.9091V77H583.655Z" fill="#181818" fill-opacity="0.75"/>
<g filter="url(#filter15_d_128_632)">
<rect x="688" y="36" width="72" height="72" rx="8" fill="white" fill-opacity="0.75" shape-rendering="crispEdges"/>
</g>
<path d="M706.795 77V68.2727H709.932V77H706.795ZM708.364 67.3636C707.939 67.3636 707.576 67.2235 707.273 66.9432C706.97 66.6629 706.818 66.3258 706.818 65.9318C706.818 65.5379 706.97 65.2008 707.273 64.9205C707.576 64.6402 707.939 64.5 708.364 64.5C708.792 64.5 709.155 64.6402 709.455 64.9205C709.758 65.2008 709.909 65.5379 709.909 65.9318C709.909 66.3258 709.758 66.6629 709.455 66.9432C709.155 67.2235 708.792 67.3636 708.364 67.3636ZM716.734 68.2727V70.5455H710.984V68.2727H716.734ZM712.098 66.1818H715.234V74.1932C715.234 74.3144 715.255 74.4167 715.297 74.5C715.339 74.5795 715.403 74.6402 715.49 74.6818C715.577 74.7197 715.689 74.7386 715.825 74.7386C715.92 74.7386 716.03 74.7273 716.155 74.7045C716.284 74.6818 716.378 74.6629 716.439 74.6477L716.893 76.8523C716.753 76.8939 716.553 76.9451 716.291 77.0057C716.034 77.0663 715.727 77.1061 715.371 77.125C714.651 77.1629 714.047 77.089 713.558 76.9034C713.07 76.714 712.702 76.4167 712.456 76.0114C712.21 75.6061 712.09 75.0985 712.098 74.4886V66.1818ZM722.102 77.1591C721.17 77.1591 720.367 76.9811 719.693 76.625C719.023 76.2652 718.506 75.75 718.142 75.0795C717.782 74.4053 717.602 73.5985 717.602 72.6591C717.602 71.7576 717.784 70.9697 718.148 70.2955C718.511 69.6212 719.025 69.0966 719.688 68.7216C720.35 68.3466 721.133 68.1591 722.034 68.1591C722.693 68.1591 723.29 68.2614 723.824 68.4659C724.358 68.6705 724.814 68.9678 725.193 69.358C725.572 69.7443 725.864 70.214 726.068 70.767C726.273 71.3201 726.375 71.9432 726.375 72.6364V73.3636H718.58V71.6364H723.489C723.485 71.3864 723.42 71.1667 723.295 70.9773C723.174 70.7841 723.009 70.6345 722.801 70.5284C722.597 70.4186 722.364 70.3636 722.102 70.3636C721.848 70.3636 721.616 70.4186 721.403 70.5284C721.191 70.6345 721.021 70.7822 720.892 70.9716C720.767 71.161 720.701 71.3826 720.693 71.6364V73.5C720.693 73.7803 720.752 74.0303 720.869 74.25C720.987 74.4697 721.155 74.642 721.375 74.767C721.595 74.892 721.86 74.9545 722.17 74.9545C722.386 74.9545 722.583 74.9242 722.761 74.8636C722.943 74.803 723.098 74.7159 723.227 74.6023C723.356 74.4848 723.451 74.3447 723.511 74.1818H726.375C726.277 74.7879 726.044 75.3144 725.676 75.7614C725.309 76.2045 724.822 76.5492 724.216 76.7955C723.614 77.0379 722.909 77.1591 722.102 77.1591ZM727.655 77V68.2727H730.632V69.9318H730.723C730.905 69.3864 731.215 68.9545 731.655 68.6364C732.094 68.3182 732.617 68.1591 733.223 68.1591C733.837 68.1591 734.365 68.322 734.808 68.6477C735.251 68.9697 735.518 69.3977 735.609 69.9318H735.7C735.848 69.3977 736.162 68.9697 736.643 68.6477C737.125 68.322 737.689 68.1591 738.337 68.1591C739.174 68.1591 739.852 68.428 740.371 68.9659C740.893 69.5038 741.155 70.2197 741.155 71.1136V77H738.018V71.9091C738.018 71.5265 737.922 71.2273 737.729 71.0114C737.536 70.7917 737.276 70.6818 736.95 70.6818C736.628 70.6818 736.373 70.7917 736.183 71.0114C735.998 71.2273 735.905 71.5265 735.905 71.9091V77H732.905V71.9091C732.905 71.5265 732.808 71.2273 732.615 71.0114C732.422 70.7917 732.162 70.6818 731.837 70.6818C731.621 70.6818 731.435 70.7311 731.28 70.8295C731.125 70.928 731.003 71.0701 730.916 71.2557C730.833 71.4375 730.791 71.6553 730.791 71.9091V77H727.655Z" fill="#181818" fill-opacity="0.75"/>
<g filter="url(#filter16_d_128_632)">
<rect x="616" y="108" width="72" height="72" rx="8" fill="white" fill-opacity="0.75" shape-rendering="crispEdges"/>
</g>
<path d="M634.795 149V140.273H637.932V149H634.795ZM636.364 139.364C635.939 139.364 635.576 139.223 635.273 138.943C634.97 138.663 634.818 138.326 634.818 137.932C634.818 137.538 634.97 137.201 635.273 136.92C635.576 136.64 635.939 136.5 636.364 136.5C636.792 136.5 637.155 136.64 637.455 136.92C637.758 137.201 637.909 137.538 637.909 137.932C637.909 138.326 637.758 138.663 637.455 138.943C637.155 139.223 636.792 139.364 636.364 139.364ZM644.734 140.273V142.545H638.984V140.273H644.734ZM640.098 138.182H643.234V146.193C643.234 146.314 643.255 146.417 643.297 146.5C643.339 146.58 643.403 146.64 643.49 146.682C643.577 146.72 643.689 146.739 643.825 146.739C643.92 146.739 644.03 146.727 644.155 146.705C644.284 146.682 644.378 146.663 644.439 146.648L644.893 148.852C644.753 148.894 644.553 148.945 644.291 149.006C644.034 149.066 643.727 149.106 643.371 149.125C642.651 149.163 642.047 149.089 641.558 148.903C641.07 148.714 640.702 148.417 640.456 148.011C640.21 147.606 640.09 147.098 640.098 146.489V138.182ZM650.102 149.159C649.17 149.159 648.367 148.981 647.693 148.625C647.023 148.265 646.506 147.75 646.142 147.08C645.782 146.405 645.602 145.598 645.602 144.659C645.602 143.758 645.784 142.97 646.148 142.295C646.511 141.621 647.025 141.097 647.688 140.722C648.35 140.347 649.133 140.159 650.034 140.159C650.693 140.159 651.29 140.261 651.824 140.466C652.358 140.67 652.814 140.968 653.193 141.358C653.572 141.744 653.864 142.214 654.068 142.767C654.273 143.32 654.375 143.943 654.375 144.636V145.364H646.58V143.636H651.489C651.485 143.386 651.42 143.167 651.295 142.977C651.174 142.784 651.009 142.634 650.801 142.528C650.597 142.419 650.364 142.364 650.102 142.364C649.848 142.364 649.616 142.419 649.403 142.528C649.191 142.634 649.021 142.782 648.892 142.972C648.767 143.161 648.701 143.383 648.693 143.636V145.5C648.693 145.78 648.752 146.03 648.869 146.25C648.987 146.47 649.155 146.642 649.375 146.767C649.595 146.892 649.86 146.955 650.17 146.955C650.386 146.955 650.583 146.924 650.761 146.864C650.943 146.803 651.098 146.716 651.227 146.602C651.356 146.485 651.451 146.345 651.511 146.182H654.375C654.277 146.788 654.044 147.314 653.676 147.761C653.309 148.205 652.822 148.549 652.216 148.795C651.614 149.038 650.909 149.159 650.102 149.159ZM655.655 149V140.273H658.632V141.932H658.723C658.905 141.386 659.215 140.955 659.655 140.636C660.094 140.318 660.617 140.159 661.223 140.159C661.837 140.159 662.365 140.322 662.808 140.648C663.251 140.97 663.518 141.398 663.609 141.932H663.7C663.848 141.398 664.162 140.97 664.643 140.648C665.125 140.322 665.689 140.159 666.337 140.159C667.174 140.159 667.852 140.428 668.371 140.966C668.893 141.504 669.155 142.22 669.155 143.114V149H666.018V143.909C666.018 143.527 665.922 143.227 665.729 143.011C665.536 142.792 665.276 142.682 664.95 142.682C664.628 142.682 664.373 142.792 664.183 143.011C663.998 143.227 663.905 143.527 663.905 143.909V149H660.905V143.909C660.905 143.527 660.808 143.227 660.615 143.011C660.422 142.792 660.162 142.682 659.837 142.682C659.621 142.682 659.435 142.731 659.28 142.83C659.125 142.928 659.003 143.07 658.916 143.256C658.833 143.437 658.791 143.655 658.791 143.909V149H655.655Z" fill="#181818" fill-opacity="0.75"/>
<g filter="url(#filter17_d_128_632)">
<rect x="544" y="108" width="72" height="72" rx="8" fill="white" fill-opacity="0.75" shape-rendering="crispEdges"/>
</g>
<path d="M562.795 149V140.273H565.932V149H562.795ZM564.364 139.364C563.939 139.364 563.576 139.223 563.273 138.943C562.97 138.663 562.818 138.326 562.818 137.932C562.818 137.538 562.97 137.201 563.273 136.92C563.576 136.64 563.939 136.5 564.364 136.5C564.792 136.5 565.155 136.64 565.455 136.92C565.758 137.201 565.909 137.538 565.909 137.932C565.909 138.326 565.758 138.663 565.455 138.943C565.155 139.223 564.792 139.364 564.364 139.364ZM572.734 140.273V142.545H566.984V140.273H572.734ZM568.098 138.182H571.234V146.193C571.234 146.314 571.255 146.417 571.297 146.5C571.339 146.58 571.403 146.64 571.49 146.682C571.577 146.72 571.689 146.739 571.825 146.739C571.92 146.739 572.03 146.727 572.155 146.705C572.284 146.682 572.378 146.663 572.439 146.648L572.893 148.852C572.753 148.894 572.553 148.945 572.291 149.006C572.034 149.066 571.727 149.106 571.371 149.125C570.651 149.163 570.047 149.089 569.558 148.903C569.07 148.714 568.702 148.417 568.456 148.011C568.21 147.606 568.09 147.098 568.098 146.489V138.182ZM578.102 149.159C577.17 149.159 576.367 148.981 575.693 148.625C575.023 148.265 574.506 147.75 574.142 147.08C573.782 146.405 573.602 145.598 573.602 144.659C573.602 143.758 573.784 142.97 574.148 142.295C574.511 141.621 575.025 141.097 575.688 140.722C576.35 140.347 577.133 140.159 578.034 140.159C578.693 140.159 579.29 140.261 579.824 140.466C580.358 140.67 580.814 140.968 581.193 141.358C581.572 141.744 581.864 142.214 582.068 142.767C582.273 143.32 582.375 143.943 582.375 144.636V145.364H574.58V143.636H579.489C579.485 143.386 579.42 143.167 579.295 142.977C579.174 142.784 579.009 142.634 578.801 142.528C578.597 142.419 578.364 142.364 578.102 142.364C577.848 142.364 577.616 142.419 577.403 142.528C577.191 142.634 577.021 142.782 576.892 142.972C576.767 143.161 576.701 143.383 576.693 143.636V145.5C576.693 145.78 576.752 146.03 576.869 146.25C576.987 146.47 577.155 146.642 577.375 146.767C577.595 146.892 577.86 146.955 578.17 146.955C578.386 146.955 578.583 146.924 578.761 146.864C578.943 146.803 579.098 146.716 579.227 146.602C579.356 146.485 579.451 146.345 579.511 146.182H582.375C582.277 146.788 582.044 147.314 581.676 147.761C581.309 148.205 580.822 148.549 580.216 148.795C579.614 149.038 578.909 149.159 578.102 149.159ZM583.655 149V140.273H586.632V141.932H586.723C586.905 141.386 587.215 140.955 587.655 140.636C588.094 140.318 588.617 140.159 589.223 140.159C589.837 140.159 590.365 140.322 590.808 140.648C591.251 140.97 591.518 141.398 591.609 141.932H591.7C591.848 141.398 592.162 140.97 592.643 140.648C593.125 140.322 593.689 140.159 594.337 140.159C595.174 140.159 595.852 140.428 596.371 140.966C596.893 141.504 597.155 142.22 597.155 143.114V149H594.018V143.909C594.018 143.527 593.922 143.227 593.729 143.011C593.536 142.792 593.276 142.682 592.95 142.682C592.628 142.682 592.373 142.792 592.183 143.011C591.998 143.227 591.905 143.527 591.905 143.909V149H588.905V143.909C588.905 143.527 588.808 143.227 588.615 143.011C588.422 142.792 588.162 142.682 587.837 142.682C587.621 142.682 587.435 142.731 587.28 142.83C587.125 142.928 587.003 143.07 586.916 143.256C586.833 143.437 586.791 143.655 586.791 143.909V149H583.655Z" fill="#181818" fill-opacity="0.75"/>
<g filter="url(#filter18_d_128_632)">
<rect x="688" y="108" width="72" height="72" rx="8" fill="white" fill-opacity="0.75" shape-rendering="crispEdges"/>
</g>
<path d="M706.795 149V140.273H709.932V149H706.795ZM708.364 139.364C707.939 139.364 707.576 139.223 707.273 138.943C706.97 138.663 706.818 138.326 706.818 137.932C706.818 137.538 706.97 137.201 707.273 136.92C707.576 136.64 707.939 136.5 708.364 136.5C708.792 136.5 709.155 136.64 709.455 136.92C709.758 137.201 709.909 137.538 709.909 137.932C709.909 138.326 709.758 138.663 709.455 138.943C709.155 139.223 708.792 139.364 708.364 139.364ZM716.734 140.273V142.545H710.984V140.273H716.734ZM712.098 138.182H715.234V146.193C715.234 146.314 715.255 146.417 715.297 146.5C715.339 146.58 715.403 146.64 715.49 146.682C715.577 146.72 715.689 146.739 715.825 146.739C715.92 146.739 716.03 146.727 716.155 146.705C716.284 146.682 716.378 146.663 716.439 146.648L716.893 148.852C716.753 148.894 716.553 148.945 716.291 149.006C716.034 149.066 715.727 149.106 715.371 149.125C714.651 149.163 714.047 149.089 713.558 148.903C713.07 148.714 712.702 148.417 712.456 148.011C712.21 147.606 712.09 147.098 712.098 146.489V138.182ZM722.102 149.159C721.17 149.159 720.367 148.981 719.693 148.625C719.023 148.265 718.506 147.75 718.142 147.08C717.782 146.405 717.602 145.598 717.602 144.659C717.602 143.758 717.784 142.97 718.148 142.295C718.511 141.621 719.025 141.097 719.688 140.722C720.35 140.347 721.133 140.159 722.034 140.159C722.693 140.159 723.29 140.261 723.824 140.466C724.358 140.67 724.814 140.968 725.193 141.358C725.572 141.744 725.864 142.214 726.068 142.767C726.273 143.32 726.375 143.943 726.375 144.636V145.364H718.58V143.636H723.489C723.485 143.386 723.42 143.167 723.295 142.977C723.174 142.784 723.009 142.634 722.801 142.528C722.597 142.419 722.364 142.364 722.102 142.364C721.848 142.364 721.616 142.419 721.403 142.528C721.191 142.634 721.021 142.782 720.892 142.972C720.767 143.161 720.701 143.383 720.693 143.636V145.5C720.693 145.78 720.752 146.03 720.869 146.25C720.987 146.47 721.155 146.642 721.375 146.767C721.595 146.892 721.86 146.955 722.17 146.955C722.386 146.955 722.583 146.924 722.761 146.864C722.943 146.803 723.098 146.716 723.227 146.602C723.356 146.485 723.451 146.345 723.511 146.182H726.375C726.277 146.788 726.044 147.314 725.676 147.761C725.309 148.205 724.822 148.549 724.216 148.795C723.614 149.038 722.909 149.159 722.102 149.159ZM727.655 149V140.273H730.632V141.932H730.723C730.905 141.386 731.215 140.955 731.655 140.636C732.094 140.318 732.617 140.159 733.223 140.159C733.837 140.159 734.365 140.322 734.808 140.648C735.251 140.97 735.518 141.398 735.609 141.932H735.7C735.848 141.398 736.162 140.97 736.643 140.648C737.125 140.322 737.689 140.159 738.337 140.159C739.174 140.159 739.852 140.428 740.371 140.966C740.893 141.504 741.155 142.22 741.155 143.114V149H738.018V143.909C738.018 143.527 737.922 143.227 737.729 143.011C737.536 142.792 737.276 142.682 736.95 142.682C736.628 142.682 736.373 142.792 736.183 143.011C735.998 143.227 735.905 143.527 735.905 143.909V149H732.905V143.909C732.905 143.527 732.808 143.227 732.615 143.011C732.422 142.792 732.162 142.682 731.837 142.682C731.621 142.682 731.435 142.731 731.28 142.83C731.125 142.928 731.003 143.07 730.916 143.256C730.833 143.437 730.791 143.655 730.791 143.909V149H727.655Z" fill="#181818" fill-opacity="0.75"/>
<g filter="url(#filter19_d_128_632)">
<rect x="688" y="180" width="72" height="72" rx="8" fill="white" fill-opacity="0.75" shape-rendering="crispEdges"/>
</g>
<path d="M706.795 221V212.273H709.932V221H706.795ZM708.364 211.364C707.939 211.364 707.576 211.223 707.273 210.943C706.97 210.663 706.818 210.326 706.818 209.932C706.818 209.538 706.97 209.201 707.273 208.92C707.576 208.64 707.939 208.5 708.364 208.5C708.792 208.5 709.155 208.64 709.455 208.92C709.758 209.201 709.909 209.538 709.909 209.932C709.909 210.326 709.758 210.663 709.455 210.943C709.155 211.223 708.792 211.364 708.364 211.364ZM716.734 212.273V214.545H710.984V212.273H716.734ZM712.098 210.182H715.234V218.193C715.234 218.314 715.255 218.417 715.297 218.5C715.339 218.58 715.403 218.64 715.49 218.682C715.577 218.72 715.689 218.739 715.825 218.739C715.92 218.739 716.03 218.727 716.155 218.705C716.284 218.682 716.378 218.663 716.439 218.648L716.893 220.852C716.753 220.894 716.553 220.945 716.291 221.006C716.034 221.066 715.727 221.106 715.371 221.125C714.651 221.163 714.047 221.089 713.558 220.903C713.07 220.714 712.702 220.417 712.456 220.011C712.21 219.606 712.09 219.098 712.098 218.489V210.182ZM722.102 221.159C721.17 221.159 720.367 220.981 719.693 220.625C719.023 220.265 718.506 219.75 718.142 219.08C717.782 218.405 717.602 217.598 717.602 216.659C717.602 215.758 717.784 214.97 718.148 214.295C718.511 213.621 719.025 213.097 719.688 212.722C720.35 212.347 721.133 212.159 722.034 212.159C722.693 212.159 723.29 212.261 723.824 212.466C724.358 212.67 724.814 212.968 725.193 213.358C725.572 213.744 725.864 214.214 726.068 214.767C726.273 215.32 726.375 215.943 726.375 216.636V217.364H718.58V215.636H723.489C723.485 215.386 723.42 215.167 723.295 214.977C723.174 214.784 723.009 214.634 722.801 214.528C722.597 214.419 722.364 214.364 722.102 214.364C721.848 214.364 721.616 214.419 721.403 214.528C721.191 214.634 721.021 214.782 720.892 214.972C720.767 215.161 720.701 215.383 720.693 215.636V217.5C720.693 217.78 720.752 218.03 720.869 218.25C720.987 218.47 721.155 218.642 721.375 218.767C721.595 218.892 721.86 218.955 722.17 218.955C722.386 218.955 722.583 218.924 722.761 218.864C722.943 218.803 723.098 218.716 723.227 218.602C723.356 218.485 723.451 218.345 723.511 218.182H726.375C726.277 218.788 726.044 219.314 725.676 219.761C725.309 220.205 724.822 220.549 724.216 220.795C723.614 221.038 722.909 221.159 722.102 221.159ZM727.655 221V212.273H730.632V213.932H730.723C730.905 213.386 731.215 212.955 731.655 212.636C732.094 212.318 732.617 212.159 733.223 212.159C733.837 212.159 734.365 212.322 734.808 212.648C735.251 212.97 735.518 213.398 735.609 213.932H735.7C735.848 213.398 736.162 212.97 736.643 212.648C737.125 212.322 737.689 212.159 738.337 212.159C739.174 212.159 739.852 212.428 740.371 212.966C740.893 213.504 741.155 214.22 741.155 215.114V221H738.018V215.909C738.018 215.527 737.922 215.227 737.729 215.011C737.536 214.792 737.276 214.682 736.95 214.682C736.628 214.682 736.373 214.792 736.183 215.011C735.998 215.227 735.905 215.527 735.905 215.909V221H732.905V215.909C732.905 215.527 732.808 215.227 732.615 215.011C732.422 214.792 732.162 214.682 731.837 214.682C731.621 214.682 731.435 214.731 731.28 214.83C731.125 214.928 731.003 215.07 730.916 215.256C730.833 215.437 730.791 215.655 730.791 215.909V221H727.655Z" fill="#181818" fill-opacity="0.75"/>
<path d="M733.977 27.1591C733.045 27.1591 732.242 26.9811 731.568 26.625C730.898 26.2652 730.381 25.75 730.017 25.0795C729.657 24.4053 729.477 23.5985 729.477 22.6591C729.477 21.7576 729.659 20.9697 730.023 20.2955C730.386 19.6212 730.9 19.0966 731.562 18.7216C732.225 18.3466 733.008 18.1591 733.909 18.1591C734.568 18.1591 735.165 18.2614 735.699 18.4659C736.233 18.6705 736.689 18.9678 737.068 19.358C737.447 19.7443 737.739 20.214 737.943 20.767C738.148 21.3201 738.25 21.9432 738.25 22.6364V23.3636H730.455V21.6364H735.364C735.36 21.3864 735.295 21.1667 735.17 20.9773C735.049 20.7841 734.884 20.6345 734.676 20.5284C734.472 20.4186 734.239 20.3636 733.977 20.3636C733.723 20.3636 733.491 20.4186 733.278 20.5284C733.066 20.6345 732.896 20.7822 732.767 20.9716C732.642 21.161 732.576 21.3826 732.568 21.6364V23.5C732.568 23.7803 732.627 24.0303 732.744 24.25C732.862 24.4697 733.03 24.642 733.25 24.767C733.47 24.892 733.735 24.9545 734.045 24.9545C734.261 24.9545 734.458 24.9242 734.636 24.8636C734.818 24.803 734.973 24.7159 735.102 24.6023C735.231 24.4848 735.326 24.3447 735.386 24.1818H738.25C738.152 24.7879 737.919 25.3144 737.551 25.7614C737.184 26.2045 736.697 26.5492 736.091 26.7955C735.489 27.0379 734.784 27.1591 733.977 27.1591ZM742.666 22.0909V27H739.53V18.2727H742.507V19.9318H742.598C742.787 19.3788 743.121 18.9451 743.598 18.6307C744.079 18.3163 744.64 18.1591 745.28 18.1591C745.897 18.1591 746.433 18.3011 746.888 18.5852C747.346 18.8655 747.7 19.2519 747.95 19.7443C748.204 20.2367 748.329 20.7992 748.325 21.4318V27H745.189V22.0909C745.193 21.6591 745.083 21.3201 744.859 21.0739C744.64 20.8277 744.333 20.7045 743.939 20.7045C743.681 20.7045 743.456 20.7614 743.263 20.875C743.073 20.9848 742.928 21.1439 742.825 21.3523C742.723 21.5568 742.67 21.803 742.666 22.0909ZM753.033 27.1136C752.411 27.1136 751.839 26.9508 751.317 26.625C750.798 26.2992 750.381 25.8049 750.067 25.142C749.756 24.4792 749.601 23.6439 749.601 22.6364C749.601 21.5833 749.764 20.7273 750.089 20.0682C750.419 19.4091 750.843 18.9261 751.362 18.6193C751.885 18.3125 752.434 18.1591 753.01 18.1591C753.442 18.1591 753.821 18.2348 754.146 18.3864C754.472 18.5341 754.745 18.733 754.964 18.983C755.184 19.2292 755.351 19.5 755.464 19.7955H755.51V15.3636H758.646V27H755.533V25.5682H755.464C755.343 25.8636 755.169 26.1288 754.942 26.3636C754.718 26.5947 754.446 26.7784 754.124 26.9148C753.805 27.0473 753.442 27.1136 753.033 27.1136ZM754.192 24.7045C754.48 24.7045 754.726 24.6212 754.93 24.4545C755.139 24.2841 755.298 24.0455 755.408 23.7386C755.521 23.428 755.578 23.0606 755.578 22.6364C755.578 22.2045 755.521 21.8352 755.408 21.5284C755.298 21.2178 755.139 20.9811 754.93 20.8182C754.726 20.6515 754.48 20.5682 754.192 20.5682C753.904 20.5682 753.658 20.6515 753.453 20.8182C753.252 20.9811 753.097 21.2178 752.987 21.5284C752.881 21.8352 752.828 22.2045 752.828 22.6364C752.828 23.0682 752.881 23.4394 752.987 23.75C753.097 24.0568 753.252 24.2936 753.453 24.4602C753.658 24.6231 753.904 24.7045 754.192 24.7045Z" fill="#181818" fill-opacity="0.75"/>
<defs>
<filter id="filter0_d_128_632" x="0" y="0" width="384" height="376" filterUnits="userSpaceOnUse" color-interpolation-filters="sRGB">
<feFlood flood-opacity="0" result="BackgroundImageFix"/>
<feColorMatrix in="SourceAlpha" type="matrix" values="0 0 0 0 0 0 0 0 0 0 0 0 0 0 0 0 0 0 127 0" result="hardAlpha"/>
<feOffset dy="4"/>
<feGaussianBlur stdDeviation="4"/>
<feComposite in2="hardAlpha" operator="out"/>
<feColorMatrix type="matrix" values="0 0 0 0 0.129412 0 0 0 0 0.447059 0 0 0 0 1 0 0 0 0.25 0"/>
<feBlend mode="normal" in2="BackgroundImageFix" result="effect1_dropShadow_128_632"/>
<feBlend mode="normal" in="SourceGraphic" in2="effect1_dropShadow_128_632" result="shape"/>
</filter>
<filter id="filter1_d_128_632" x="88" y="176" width="88" height="88" filterUnits="userSpaceOnUse" color-interpolation-filters="sRGB">
<feFlood flood-opacity="0" result="BackgroundImageFix"/>
<feColorMatrix in="SourceAlpha" type="matrix" values="0 0 0 0 0 0 0 0 0 0 0 0 0 0 0 0 0 0 127 0" result="hardAlpha"/>
<feOffset dy="4"/>
<feGaussianBlur stdDeviation="4"/>
<feComposite in2="hardAlpha" operator="out"/>
<feColorMatrix type="matrix" values="0 0 0 0 1 0 0 0 0 1 0 0 0 0 1 0 0 0 0.25 0"/>
<feBlend mode="normal" in2="BackgroundImageFix" result="effect1_dropShadow_128_632"/>
<feBlend mode="normal" in="SourceGraphic" in2="effect1_dropShadow_128_632" result="shape"/>
</filter>
<filter id="filter2_d_128_632" x="88" y="32" width="88" height="88" filterUnits="userSpaceOnUse" color-interpolation-filters="sRGB">
<feFlood flood-opacity="0" result="BackgroundImageFix"/>
<feColorMatrix in="SourceAlpha" type="matrix" values="0 0 0 0 0 0 0 0 0 0 0 0 0 0 0 0 0 0 127 0" result="hardAlpha"/>
<feOffset dy="4"/>
<feGaussianBlur stdDeviation="4"/>
<feComposite in2="hardAlpha" operator="out"/>
<feColorMatrix type="matrix" values="0 0 0 0 1 0 0 0 0 1 0 0 0 0 1 0 0 0 0.25 0"/>
<feBlend mode="normal" in2="BackgroundImageFix" result="effect1_dropShadow_128_632"/>
<feBlend mode="normal" in="SourceGraphic" in2="effect1_dropShadow_128_632" result="shape"/>
</filter>
<filter id="filter3_d_128_632" x="16" y="176" width="88" height="88" filterUnits="userSpaceOnUse" color-interpolation-filters="sRGB">
<feFlood flood-opacity="0" result="BackgroundImageFix"/>
<feColorMatrix in="SourceAlpha" type="matrix" values="0 0 0 0 0 0 0 0 0 0 0 0 0 0 0 0 0 0 127 0" result="hardAlpha"/>
<feOffset dy="4"/>
<feGaussianBlur stdDeviation="4"/>
<feComposite in2="hardAlpha" operator="out"/>
<feColorMatrix type="matrix" values="0 0 0 0 1 0 0 0 0 1 0 0 0 0 1 0 0 0 0.25 0"/>
<feBlend mode="normal" in2="BackgroundImageFix" result="effect1_dropShadow_128_632"/>
<feBlend mode="normal" in="SourceGraphic" in2="effect1_dropShadow_128_632" result="shape"/>
</filter>
<filter id="filter4_d_128_632" x="16" y="32" width="88" height="88" filterUnits="userSpaceOnUse" color-interpolation-filters="sRGB">
<feFlood flood-opacity="0" result="BackgroundImageFix"/>
<feColorMatrix in="SourceAlpha" type="matrix" values="0 0 0 0 0 0 0 0 0 0 0 0 0 0 0 0 0 0 127 0" result="hardAlpha"/>
<feOffset dy="4"/>
<feGaussianBlur stdDeviation="4"/>
<feComposite in2="hardAlpha" operator="out"/>
<feColorMatrix type="matrix" values="0 0 0 0 1 0 0 0 0 1 0 0 0 0 1 0 0 0 0.25 0"/>
<feBlend mode="normal" in2="BackgroundImageFix" result="effect1_dropShadow_128_632"/>
<feBlend mode="normal" in="SourceGraphic" in2="effect1_dropShadow_128_632" result="shape"/>
</filter>
<filter id="filter5_d_128_632" x="160" y="32" width="88" height="88" filterUnits="userSpaceOnUse" color-interpolation-filters="sRGB">
<feFlood flood-opacity="0" result="BackgroundImageFix"/>
<feColorMatrix in="SourceAlpha" type="matrix" values="0 0 0 0 0 0 0 0 0 0 0 0 0 0 0 0 0 0 127 0" result="hardAlpha"/>
<feOffset dy="4"/>
<feGaussianBlur stdDeviation="4"/>
<feComposite in2="hardAlpha" operator="out"/>
<feColorMatrix type="matrix" values="0 0 0 0 1 0 0 0 0 1 0 0 0 0 1 0 0 0 0.25 0"/>
<feBlend mode="normal" in2="BackgroundImageFix" result="effect1_dropShadow_128_632"/>
<feBlend mode="normal" in="SourceGraphic" in2="effect1_dropShadow_128_632" result="shape"/>
</filter>
<filter id="filter6_d_128_632" x="88" y="104" width="88" height="88" filterUnits="userSpaceOnUse" color-interpolation-filters="sRGB">
<feFlood flood-opacity="0" result="BackgroundImageFix"/>
<feColorMatrix in="SourceAlpha" type="matrix" values="0 0 0 0 0 0 0 0 0 0 0 0 0 0 0 0 0 0 127 0" result="hardAlpha"/>
<feOffset dy="4"/>
<feGaussianBlur stdDeviation="4"/>
<feComposite in2="hardAlpha" operator="out"/>
<feColorMatrix type="matrix" values="0 0 0 0 1 0 0 0 0 1 0 0 0 0 1 0 0 0 0.25 0"/>
<feBlend mode="normal" in2="BackgroundImageFix" result="effect1_dropShadow_128_632"/>
<feBlend mode="normal" in="SourceGraphic" in2="effect1_dropShadow_128_632" result="shape"/>
</filter>
<filter id="filter7_d_128_632" x="16" y="104" width="88" height="88" filterUnits="userSpaceOnUse" color-interpolation-filters="sRGB">
<feFlood flood-opacity="0" result="BackgroundImageFix"/>
<feColorMatrix in="SourceAlpha" type="matrix" values="0 0 0 0 0 0 0 0 0 0 0 0 0 0 0 0 0 0 127 0" result="hardAlpha"/>
<feOffset dy="4"/>
<feGaussianBlur stdDeviation="4"/>
<feComposite in2="hardAlpha" operator="out"/>
<feColorMatrix type="matrix" values="0 0 0 0 1 0 0 0 0 1 0 0 0 0 1 0 0 0 0.25 0"/>
<feBlend mode="normal" in2="BackgroundImageFix" result="effect1_dropShadow_128_632"/>
<feBlend mode="normal" in="SourceGraphic" in2="effect1_dropShadow_128_632" result="shape"/>
</filter>
<filter id="filter8_d_128_632" x="160" y="104" width="88" height="88" filterUnits="userSpaceOnUse" color-interpolation-filters="sRGB">
<feFlood flood-opacity="0" result="BackgroundImageFix"/>
<feColorMatrix in="SourceAlpha" type="matrix" values="0 0 0 0 0 0 0 0 0 0 0 0 0 0 0 0 0 0 127 0" result="hardAlpha"/>
<feOffset dy="4"/>
<feGaussianBlur stdDeviation="4"/>
<feComposite in2="hardAlpha" operator="out"/>
<feColorMatrix type="matrix" values="0 0 0 0 1 0 0 0 0 1 0 0 0 0 1 0 0 0 0.25 0"/>
<feBlend mode="normal" in2="BackgroundImageFix" result="effect1_dropShadow_128_632"/>
<feBlend mode="normal" in="SourceGraphic" in2="effect1_dropShadow_128_632" result="shape"/>
</filter>
<filter id="filter9_d_128_632" x="160" y="176" width="88" height="88" filterUnits="userSpaceOnUse" color-interpolation-filters="sRGB">
<feFlood flood-opacity="0" result="BackgroundImageFix"/>
<feColorMatrix in="SourceAlpha" type="matrix" values="0 0 0 0 0 0 0 0 0 0 0 0 0 0 0 0 0 0 127 0" result="hardAlpha"/>
<feOffset dy="4"/>
<feGaussianBlur stdDeviation="4"/>
<feComposite in2="hardAlpha" operator="out"/>
<feColorMatrix type="matrix" values="0 0 0 0 1 0 0 0 0 1 0 0 0 0 1 0 0 0 0.25 0"/>
<feBlend mode="normal" in2="BackgroundImageFix" result="effect1_dropShadow_128_632"/>
<feBlend mode="normal" in="SourceGraphic" in2="effect1_dropShadow_128_632" result="shape"/>
</filter>
<filter id="filter10_d_128_632" x="400" y="0" width="384" height="376" filterUnits="userSpaceOnUse" color-interpolation-filters="sRGB">
<feFlood flood-opacity="0" result="BackgroundImageFix"/>
<feColorMatrix in="SourceAlpha" type="matrix" values="0 0 0 0 0 0 0 0 0 0 0 0 0 0 0 0 0 0 127 0" result="hardAlpha"/>
<feOffset dy="4"/>
<feGaussianBlur stdDeviation="4"/>
<feComposite in2="hardAlpha" operator="out"/>
<feColorMatrix type="matrix" values="0 0 0 0 0.129412 0 0 0 0 0.447059 0 0 0 0 1 0 0 0 0.25 0"/>
<feBlend mode="normal" in2="BackgroundImageFix" result="effect1_dropShadow_128_632"/>
<feBlend mode="normal" in="SourceGraphic" in2="effect1_dropShadow_128_632" result="shape"/>
</filter>
<filter id="filter11_d_128_632" x="608" y="176" width="88" height="88" filterUnits="userSpaceOnUse" color-interpolation-filters="sRGB">
<feFlood flood-opacity="0" result="BackgroundImageFix"/>
<feColorMatrix in="SourceAlpha" type="matrix" values="0 0 0 0 0 0 0 0 0 0 0 0 0 0 0 0 0 0 127 0" result="hardAlpha"/>
<feOffset dy="4"/>
<feGaussianBlur stdDeviation="4"/>
<feComposite in2="hardAlpha" operator="out"/>
<feColorMatrix type="matrix" values="0 0 0 0 1 0 0 0 0 1 0 0 0 0 1 0 0 0 0.25 0"/>
<feBlend mode="normal" in2="BackgroundImageFix" result="effect1_dropShadow_128_632"/>
<feBlend mode="normal" in="SourceGraphic" in2="effect1_dropShadow_128_632" result="shape"/>
</filter>
<filter id="filter12_d_128_632" x="608" y="32" width="88" height="88" filterUnits="userSpaceOnUse" color-interpolation-filters="sRGB">
<feFlood flood-opacity="0" result="BackgroundImageFix"/>
<feColorMatrix in="SourceAlpha" type="matrix" values="0 0 0 0 0 0 0 0 0 0 0 0 0 0 0 0 0 0 127 0" result="hardAlpha"/>
<feOffset dy="4"/>
<feGaussianBlur stdDeviation="4"/>
<feComposite in2="hardAlpha" operator="out"/>
<feColorMatrix type="matrix" values="0 0 0 0 1 0 0 0 0 1 0 0 0 0 1 0 0 0 0.25 0"/>
<feBlend mode="normal" in2="BackgroundImageFix" result="effect1_dropShadow_128_632"/>
<feBlend mode="normal" in="SourceGraphic" in2="effect1_dropShadow_128_632" result="shape"/>
</filter>
<filter id="filter13_d_128_632" x="536" y="176" width="88" height="88" filterUnits="userSpaceOnUse" color-interpolation-filters="sRGB">
<feFlood flood-opacity="0" result="BackgroundImageFix"/>
<feColorMatrix in="SourceAlpha" type="matrix" values="0 0 0 0 0 0 0 0 0 0 0 0 0 0 0 0 0 0 127 0" result="hardAlpha"/>
<feOffset dy="4"/>
<feGaussianBlur stdDeviation="4"/>
<feComposite in2="hardAlpha" operator="out"/>
<feColorMatrix type="matrix" values="0 0 0 0 1 0 0 0 0 1 0 0 0 0 1 0 0 0 0.25 0"/>
<feBlend mode="normal" in2="BackgroundImageFix" result="effect1_dropShadow_128_632"/>
<feBlend mode="normal" in="SourceGraphic" in2="effect1_dropShadow_128_632" result="shape"/>
</filter>
<filter id="filter14_d_128_632" x="536" y="32" width="88" height="88" filterUnits="userSpaceOnUse" color-interpolation-filters="sRGB">
<feFlood flood-opacity="0" result="BackgroundImageFix"/>
<feColorMatrix in="SourceAlpha" type="matrix" values="0 0 0 0 0 0 0 0 0 0 0 0 0 0 0 0 0 0 127 0" result="hardAlpha"/>
<feOffset dy="4"/>
<feGaussianBlur stdDeviation="4"/>
<feComposite in2="hardAlpha" operator="out"/>
<feColorMatrix type="matrix" values="0 0 0 0 1 0 0 0 0 1 0 0 0 0 1 0 0 0 0.25 0"/>
<feBlend mode="normal" in2="BackgroundImageFix" result="effect1_dropShadow_128_632"/>
<feBlend mode="normal" in="SourceGraphic" in2="effect1_dropShadow_128_632" result="shape"/>
</filter>
<filter id="filter15_d_128_632" x="680" y="32" width="88" height="88" filterUnits="userSpaceOnUse" color-interpolation-filters="sRGB">
<feFlood flood-opacity="0" result="BackgroundImageFix"/>
<feColorMatrix in="SourceAlpha" type="matrix" values="0 0 0 0 0 0 0 0 0 0 0 0 0 0 0 0 0 0 127 0" result="hardAlpha"/>
<feOffset dy="4"/>
<feGaussianBlur stdDeviation="4"/>
<feComposite in2="hardAlpha" operator="out"/>
<feColorMatrix type="matrix" values="0 0 0 0 1 0 0 0 0 1 0 0 0 0 1 0 0 0 0.25 0"/>
<feBlend mode="normal" in2="BackgroundImageFix" result="effect1_dropShadow_128_632"/>
<feBlend mode="normal" in="SourceGraphic" in2="effect1_dropShadow_128_632" result="shape"/>
</filter>
<filter id="filter16_d_128_632" x="608" y="104" width="88" height="88" filterUnits="userSpaceOnUse" color-interpolation-filters="sRGB">
<feFlood flood-opacity="0" result="BackgroundImageFix"/>
<feColorMatrix in="SourceAlpha" type="matrix" values="0 0 0 0 0 0 0 0 0 0 0 0 0 0 0 0 0 0 127 0" result="hardAlpha"/>
<feOffset dy="4"/>
<feGaussianBlur stdDeviation="4"/>
<feComposite in2="hardAlpha" operator="out"/>
<feColorMatrix type="matrix" values="0 0 0 0 1 0 0 0 0 1 0 0 0 0 1 0 0 0 0.25 0"/>
<feBlend mode="normal" in2="BackgroundImageFix" result="effect1_dropShadow_128_632"/>
<feBlend mode="normal" in="SourceGraphic" in2="effect1_dropShadow_128_632" result="shape"/>
</filter>
<filter id="filter17_d_128_632" x="536" y="104" width="88" height="88" filterUnits="userSpaceOnUse" color-interpolation-filters="sRGB">
<feFlood flood-opacity="0" result="BackgroundImageFix"/>
<feColorMatrix in="SourceAlpha" type="matrix" values="0 0 0 0 0 0 0 0 0 0 0 0 0 0 0 0 0 0 127 0" result="hardAlpha"/>
<feOffset dy="4"/>
<feGaussianBlur stdDeviation="4"/>
<feComposite in2="hardAlpha" operator="out"/>
<feColorMatrix type="matrix" values="0 0 0 0 1 0 0 0 0 1 0 0 0 0 1 0 0 0 0.25 0"/>
<feBlend mode="normal" in2="BackgroundImageFix" result="effect1_dropShadow_128_632"/>
<feBlend mode="normal" in="SourceGraphic" in2="effect1_dropShadow_128_632" result="shape"/>
</filter>
<filter id="filter18_d_128_632" x="680" y="104" width="88" height="88" filterUnits="userSpaceOnUse" color-interpolation-filters="sRGB">
<feFlood flood-opacity="0" result="BackgroundImageFix"/>
<feColorMatrix in="SourceAlpha" type="matrix" values="0 0 0 0 0 0 0 0 0 0 0 0 0 0 0 0 0 0 127 0" result="hardAlpha"/>
<feOffset dy="4"/>
<feGaussianBlur stdDeviation="4"/>
<feComposite in2="hardAlpha" operator="out"/>
<feColorMatrix type="matrix" values="0 0 0 0 1 0 0 0 0 1 0 0 0 0 1 0 0 0 0.25 0"/>
<feBlend mode="normal" in2="BackgroundImageFix" result="effect1_dropShadow_128_632"/>
<feBlend mode="normal" in="SourceGraphic" in2="effect1_dropShadow_128_632" result="shape"/>
</filter>
<filter id="filter19_d_128_632" x="680" y="176" width="88" height="88" filterUnits="userSpaceOnUse" color-interpolation-filters="sRGB">
<feFlood flood-opacity="0" result="BackgroundImageFix"/>
<feColorMatrix in="SourceAlpha" type="matrix" values="0 0 0 0 0 0 0 0 0 0 0 0 0 0 0 0 0 0 127 0" result="hardAlpha"/>
<feOffset dy="4"/>
<feGaussianBlur stdDeviation="4"/>
<feComposite in2="hardAlpha" operator="out"/>
<feColorMatrix type="matrix" values="0 0 0 0 1 0 0 0 0 1 0 0 0 0 1 0 0 0 0.25 0"/>
<feBlend mode="normal" in2="BackgroundImageFix" result="effect1_dropShadow_128_632"/>
<feBlend mode="normal" in="SourceGraphic" in2="effect1_dropShadow_128_632" result="shape"/>
</filter>
</defs>
</svg>
