<svg width="778" height="376" viewBox="0 0 778 376" fill="none" xmlns="http://www.w3.org/2000/svg">
<g filter="url(#filter0_d_128_685)">
<rect x="8" y="4" width="368" height="360" rx="8" fill="#2172FF" fill-opacity="0.8" shape-rendering="crispEdges"/>
</g>
<g filter="url(#filter1_d_128_685)">
<rect x="156" y="244" width="72" height="104" rx="8" fill="white" fill-opacity="0.75" shape-rendering="crispEdges"/>
</g>
<path d="M174.795 302V293.273H177.932V302H174.795ZM176.364 292.364C175.939 292.364 175.576 292.223 175.273 291.943C174.97 291.663 174.818 291.326 174.818 290.932C174.818 290.538 174.97 290.201 175.273 289.92C175.576 289.64 175.939 289.5 176.364 289.5C176.792 289.5 177.155 289.64 177.455 289.92C177.758 290.201 177.909 290.538 177.909 290.932C177.909 291.326 177.758 291.663 177.455 291.943C177.155 292.223 176.792 292.364 176.364 292.364ZM184.734 293.273V295.545H178.984V293.273H184.734ZM180.098 291.182H183.234V299.193C183.234 299.314 183.255 299.417 183.297 299.5C183.339 299.58 183.403 299.64 183.49 299.682C183.577 299.72 183.689 299.739 183.825 299.739C183.92 299.739 184.03 299.727 184.155 299.705C184.284 299.682 184.378 299.663 184.439 299.648L184.893 301.852C184.753 301.894 184.553 301.945 184.291 302.006C184.034 302.066 183.727 302.106 183.371 302.125C182.651 302.163 182.047 302.089 181.558 301.903C181.07 301.714 180.702 301.417 180.456 301.011C180.21 300.606 180.09 300.098 180.098 299.489V291.182ZM190.102 302.159C189.17 302.159 188.367 301.981 187.693 301.625C187.023 301.265 186.506 300.75 186.142 300.08C185.782 299.405 185.602 298.598 185.602 297.659C185.602 296.758 185.784 295.97 186.148 295.295C186.511 294.621 187.025 294.097 187.688 293.722C188.35 293.347 189.133 293.159 190.034 293.159C190.693 293.159 191.29 293.261 191.824 293.466C192.358 293.67 192.814 293.968 193.193 294.358C193.572 294.744 193.864 295.214 194.068 295.767C194.273 296.32 194.375 296.943 194.375 297.636V298.364H186.58V296.636H191.489C191.485 296.386 191.42 296.167 191.295 295.977C191.174 295.784 191.009 295.634 190.801 295.528C190.597 295.419 190.364 295.364 190.102 295.364C189.848 295.364 189.616 295.419 189.403 295.528C189.191 295.634 189.021 295.782 188.892 295.972C188.767 296.161 188.701 296.383 188.693 296.636V298.5C188.693 298.78 188.752 299.03 188.869 299.25C188.987 299.47 189.155 299.642 189.375 299.767C189.595 299.892 189.86 299.955 190.17 299.955C190.386 299.955 190.583 299.924 190.761 299.864C190.943 299.803 191.098 299.716 191.227 299.602C191.356 299.485 191.451 299.345 191.511 299.182H194.375C194.277 299.788 194.044 300.314 193.676 300.761C193.309 301.205 192.822 301.549 192.216 301.795C191.614 302.038 190.909 302.159 190.102 302.159ZM195.655 302V293.273H198.632V294.932H198.723C198.905 294.386 199.215 293.955 199.655 293.636C200.094 293.318 200.617 293.159 201.223 293.159C201.837 293.159 202.365 293.322 202.808 293.648C203.251 293.97 203.518 294.398 203.609 294.932H203.7C203.848 294.398 204.162 293.97 204.643 293.648C205.125 293.322 205.689 293.159 206.337 293.159C207.174 293.159 207.852 293.428 208.371 293.966C208.893 294.504 209.155 295.22 209.155 296.114V302H206.018V296.909C206.018 296.527 205.922 296.227 205.729 296.011C205.536 295.792 205.276 295.682 204.95 295.682C204.628 295.682 204.373 295.792 204.183 296.011C203.998 296.227 203.905 296.527 203.905 296.909V302H200.905V296.909C200.905 296.527 200.808 296.227 200.615 296.011C200.422 295.792 200.162 295.682 199.837 295.682C199.621 295.682 199.435 295.731 199.28 295.83C199.125 295.928 199.003 296.07 198.916 296.256C198.833 296.437 198.791 296.655 198.791 296.909V302H195.655Z" fill="#181818" fill-opacity="0.75"/>
<g filter="url(#filter2_d_128_685)">
<rect x="156" y="36" width="72" height="104" rx="8" fill="white" fill-opacity="0.75" shape-rendering="crispEdges"/>
</g>
<path d="M174.795 94V85.2727H177.932V94H174.795ZM176.364 84.3636C175.939 84.3636 175.576 84.2235 175.273 83.9432C174.97 83.6629 174.818 83.3258 174.818 82.9318C174.818 82.5379 174.97 82.2008 175.273 81.9205C175.576 81.6402 175.939 81.5 176.364 81.5C176.792 81.5 177.155 81.6402 177.455 81.9205C177.758 82.2008 177.909 82.5379 177.909 82.9318C177.909 83.3258 177.758 83.6629 177.455 83.9432C177.155 84.2235 176.792 84.3636 176.364 84.3636ZM184.734 85.2727V87.5455H178.984V85.2727H184.734ZM180.098 83.1818H183.234V91.1932C183.234 91.3144 183.255 91.4167 183.297 91.5C183.339 91.5795 183.403 91.6402 183.49 91.6818C183.577 91.7197 183.689 91.7386 183.825 91.7386C183.92 91.7386 184.03 91.7273 184.155 91.7045C184.284 91.6818 184.378 91.6629 184.439 91.6477L184.893 93.8523C184.753 93.8939 184.553 93.9451 184.291 94.0057C184.034 94.0663 183.727 94.1061 183.371 94.125C182.651 94.1629 182.047 94.089 181.558 93.9034C181.07 93.714 180.702 93.4167 180.456 93.0114C180.21 92.6061 180.09 92.0985 180.098 91.4886V83.1818ZM190.102 94.1591C189.17 94.1591 188.367 93.9811 187.693 93.625C187.023 93.2652 186.506 92.75 186.142 92.0795C185.782 91.4053 185.602 90.5985 185.602 89.6591C185.602 88.7576 185.784 87.9697 186.148 87.2955C186.511 86.6212 187.025 86.0966 187.688 85.7216C188.35 85.3466 189.133 85.1591 190.034 85.1591C190.693 85.1591 191.29 85.2614 191.824 85.4659C192.358 85.6705 192.814 85.9678 193.193 86.358C193.572 86.7443 193.864 87.214 194.068 87.767C194.273 88.3201 194.375 88.9432 194.375 89.6364V90.3636H186.58V88.6364H191.489C191.485 88.3864 191.42 88.1667 191.295 87.9773C191.174 87.7841 191.009 87.6345 190.801 87.5284C190.597 87.4186 190.364 87.3636 190.102 87.3636C189.848 87.3636 189.616 87.4186 189.403 87.5284C189.191 87.6345 189.021 87.7822 188.892 87.9716C188.767 88.161 188.701 88.3826 188.693 88.6364V90.5C188.693 90.7803 188.752 91.0303 188.869 91.25C188.987 91.4697 189.155 91.642 189.375 91.767C189.595 91.892 189.86 91.9545 190.17 91.9545C190.386 91.9545 190.583 91.9242 190.761 91.8636C190.943 91.803 191.098 91.7159 191.227 91.6023C191.356 91.4848 191.451 91.3447 191.511 91.1818H194.375C194.277 91.7879 194.044 92.3144 193.676 92.7614C193.309 93.2045 192.822 93.5492 192.216 93.7955C191.614 94.0379 190.909 94.1591 190.102 94.1591ZM195.655 94V85.2727H198.632V86.9318H198.723C198.905 86.3864 199.215 85.9545 199.655 85.6364C200.094 85.3182 200.617 85.1591 201.223 85.1591C201.837 85.1591 202.365 85.322 202.808 85.6477C203.251 85.9697 203.518 86.3977 203.609 86.9318H203.7C203.848 86.3977 204.162 85.9697 204.643 85.6477C205.125 85.322 205.689 85.1591 206.337 85.1591C207.174 85.1591 207.852 85.428 208.371 85.9659C208.893 86.5038 209.155 87.2197 209.155 88.1136V94H206.018V88.9091C206.018 88.5265 205.922 88.2273 205.729 88.0114C205.536 87.7917 205.276 87.6818 204.95 87.6818C204.628 87.6818 204.373 87.7917 204.183 88.0114C203.998 88.2273 203.905 88.5265 203.905 88.9091V94H200.905V88.9091C200.905 88.5265 200.808 88.2273 200.615 88.0114C200.422 87.7917 200.162 87.6818 199.837 87.6818C199.621 87.6818 199.435 87.7311 199.28 87.8295C199.125 87.928 199.003 88.0701 198.916 88.2557C198.833 88.4375 198.791 88.6553 198.791 88.9091V94H195.655Z" fill="#181818" fill-opacity="0.75"/>
<g filter="url(#filter3_d_128_685)">
<rect x="54" y="244" width="72" height="104" rx="8" fill="white" fill-opacity="0.75" shape-rendering="crispEdges"/>
</g>
<path d="M72.7955 302V293.273H75.9318V302H72.7955ZM74.3636 292.364C73.9394 292.364 73.5758 292.223 73.2727 291.943C72.9697 291.663 72.8182 291.326 72.8182 290.932C72.8182 290.538 72.9697 290.201 73.2727 289.92C73.5758 289.64 73.9394 289.5 74.3636 289.5C74.7917 289.5 75.1553 289.64 75.4545 289.92C75.7576 290.201 75.9091 290.538 75.9091 290.932C75.9091 291.326 75.7576 291.663 75.4545 291.943C75.1553 292.223 74.7917 292.364 74.3636 292.364ZM82.7344 293.273V295.545H76.9844V293.273H82.7344ZM78.098 291.182H81.2344V299.193C81.2344 299.314 81.2552 299.417 81.2969 299.5C81.3385 299.58 81.4029 299.64 81.4901 299.682C81.5772 299.72 81.6889 299.739 81.8253 299.739C81.92 299.739 82.0298 299.727 82.1548 299.705C82.2836 299.682 82.3783 299.663 82.4389 299.648L82.8935 301.852C82.7533 301.894 82.5526 301.945 82.2912 302.006C82.0336 302.066 81.7268 302.106 81.3707 302.125C80.651 302.163 80.0469 302.089 79.5582 301.903C79.0696 301.714 78.7022 301.417 78.456 301.011C78.2098 300.606 78.0904 300.098 78.098 299.489V291.182ZM88.1023 302.159C87.1705 302.159 86.3674 301.981 85.6932 301.625C85.0227 301.265 84.5057 300.75 84.142 300.08C83.7822 299.405 83.6023 298.598 83.6023 297.659C83.6023 296.758 83.7841 295.97 84.1477 295.295C84.5114 294.621 85.0246 294.097 85.6875 293.722C86.3504 293.347 87.1326 293.159 88.0341 293.159C88.6932 293.159 89.2898 293.261 89.8239 293.466C90.358 293.67 90.8144 293.968 91.1932 294.358C91.572 294.744 91.8636 295.214 92.0682 295.767C92.2727 296.32 92.375 296.943 92.375 297.636V298.364H84.5795V296.636H89.4886C89.4848 296.386 89.4205 296.167 89.2955 295.977C89.1742 295.784 89.0095 295.634 88.8011 295.528C88.5966 295.419 88.3636 295.364 88.1023 295.364C87.8485 295.364 87.6155 295.419 87.4034 295.528C87.1913 295.634 87.0208 295.782 86.892 295.972C86.767 296.161 86.7008 296.383 86.6932 296.636V298.5C86.6932 298.78 86.7519 299.03 86.8693 299.25C86.9867 299.47 87.1553 299.642 87.375 299.767C87.5947 299.892 87.8598 299.955 88.1705 299.955C88.3864 299.955 88.5833 299.924 88.7614 299.864C88.9432 299.803 89.0985 299.716 89.2273 299.602C89.3561 299.485 89.4508 299.345 89.5114 299.182H92.375C92.2765 299.788 92.0436 300.314 91.6761 300.761C91.3087 301.205 90.822 301.549 90.2159 301.795C89.6136 302.038 88.9091 302.159 88.1023 302.159ZM93.6548 302V293.273H96.6321V294.932H96.723C96.9048 294.386 97.2154 293.955 97.6548 293.636C98.0942 293.318 98.617 293.159 99.223 293.159C99.8366 293.159 100.365 293.322 100.808 293.648C101.251 293.97 101.518 294.398 101.609 294.932H101.7C101.848 294.398 102.162 293.97 102.643 293.648C103.125 293.322 103.689 293.159 104.337 293.159C105.174 293.159 105.852 293.428 106.371 293.966C106.893 294.504 107.155 295.22 107.155 296.114V302H104.018V296.909C104.018 296.527 103.922 296.227 103.729 296.011C103.536 295.792 103.276 295.682 102.95 295.682C102.628 295.682 102.373 295.792 102.183 296.011C101.998 296.227 101.905 296.527 101.905 296.909V302H98.9048V296.909C98.9048 296.527 98.8082 296.227 98.6151 296.011C98.4219 295.792 98.1624 295.682 97.8366 295.682C97.6207 295.682 97.4351 295.731 97.2798 295.83C97.1245 295.928 97.0033 296.07 96.9162 296.256C96.8329 296.437 96.7912 296.655 96.7912 296.909V302H93.6548Z" fill="#181818" fill-opacity="0.75"/>
<g filter="url(#filter4_d_128_685)">
<rect x="54" y="36" width="72" height="104" rx="8" fill="white" fill-opacity="0.75" shape-rendering="crispEdges"/>
</g>
<path d="M72.7955 94V85.2727H75.9318V94H72.7955ZM74.3636 84.3636C73.9394 84.3636 73.5758 84.2235 73.2727 83.9432C72.9697 83.6629 72.8182 83.3258 72.8182 82.9318C72.8182 82.5379 72.9697 82.2008 73.2727 81.9205C73.5758 81.6402 73.9394 81.5 74.3636 81.5C74.7917 81.5 75.1553 81.6402 75.4545 81.9205C75.7576 82.2008 75.9091 82.5379 75.9091 82.9318C75.9091 83.3258 75.7576 83.6629 75.4545 83.9432C75.1553 84.2235 74.7917 84.3636 74.3636 84.3636ZM82.7344 85.2727V87.5455H76.9844V85.2727H82.7344ZM78.098 83.1818H81.2344V91.1932C81.2344 91.3144 81.2552 91.4167 81.2969 91.5C81.3385 91.5795 81.4029 91.6402 81.4901 91.6818C81.5772 91.7197 81.6889 91.7386 81.8253 91.7386C81.92 91.7386 82.0298 91.7273 82.1548 91.7045C82.2836 91.6818 82.3783 91.6629 82.4389 91.6477L82.8935 93.8523C82.7533 93.8939 82.5526 93.9451 82.2912 94.0057C82.0336 94.0663 81.7268 94.1061 81.3707 94.125C80.651 94.1629 80.0469 94.089 79.5582 93.9034C79.0696 93.714 78.7022 93.4167 78.456 93.0114C78.2098 92.6061 78.0904 92.0985 78.098 91.4886V83.1818ZM88.1023 94.1591C87.1705 94.1591 86.3674 93.9811 85.6932 93.625C85.0227 93.2652 84.5057 92.75 84.142 92.0795C83.7822 91.4053 83.6023 90.5985 83.6023 89.6591C83.6023 88.7576 83.7841 87.9697 84.1477 87.2955C84.5114 86.6212 85.0246 86.0966 85.6875 85.7216C86.3504 85.3466 87.1326 85.1591 88.0341 85.1591C88.6932 85.1591 89.2898 85.2614 89.8239 85.4659C90.358 85.6705 90.8144 85.9678 91.1932 86.358C91.572 86.7443 91.8636 87.214 92.0682 87.767C92.2727 88.3201 92.375 88.9432 92.375 89.6364V90.3636H84.5795V88.6364H89.4886C89.4848 88.3864 89.4205 88.1667 89.2955 87.9773C89.1742 87.7841 89.0095 87.6345 88.8011 87.5284C88.5966 87.4186 88.3636 87.3636 88.1023 87.3636C87.8485 87.3636 87.6155 87.4186 87.4034 87.5284C87.1913 87.6345 87.0208 87.7822 86.892 87.9716C86.767 88.161 86.7008 88.3826 86.6932 88.6364V90.5C86.6932 90.7803 86.7519 91.0303 86.8693 91.25C86.9867 91.4697 87.1553 91.642 87.375 91.767C87.5947 91.892 87.8598 91.9545 88.1705 91.9545C88.3864 91.9545 88.5833 91.9242 88.7614 91.8636C88.9432 91.803 89.0985 91.7159 89.2273 91.6023C89.3561 91.4848 89.4508 91.3447 89.5114 91.1818H92.375C92.2765 91.7879 92.0436 92.3144 91.6761 92.7614C91.3087 93.2045 90.822 93.5492 90.2159 93.7955C89.6136 94.0379 88.9091 94.1591 88.1023 94.1591ZM93.6548 94V85.2727H96.6321V86.9318H96.723C96.9048 86.3864 97.2154 85.9545 97.6548 85.6364C98.0942 85.3182 98.617 85.1591 99.223 85.1591C99.8366 85.1591 100.365 85.322 100.808 85.6477C101.251 85.9697 101.518 86.3977 101.609 86.9318H101.7C101.848 86.3977 102.162 85.9697 102.643 85.6477C103.125 85.322 103.689 85.1591 104.337 85.1591C105.174 85.1591 105.852 85.428 106.371 85.9659C106.893 86.5038 107.155 87.2197 107.155 88.1136V94H104.018V88.9091C104.018 88.5265 103.922 88.2273 103.729 88.0114C103.536 87.7917 103.276 87.6818 102.95 87.6818C102.628 87.6818 102.373 87.7917 102.183 88.0114C101.998 88.2273 101.905 88.5265 101.905 88.9091V94H98.9048V88.9091C98.9048 88.5265 98.8082 88.2273 98.6151 88.0114C98.4219 87.7917 98.1624 87.6818 97.8366 87.6818C97.6207 87.6818 97.4351 87.7311 97.2798 87.8295C97.1245 87.928 97.0033 88.0701 96.9162 88.2557C96.8329 88.4375 96.7912 88.6553 96.7912 88.9091V94H93.6548Z" fill="#181818" fill-opacity="0.75"/>
<g filter="url(#filter5_d_128_685)">
<rect x="258" y="36" width="72" height="104" rx="8" fill="white" fill-opacity="0.75" shape-rendering="crispEdges"/>
</g>
<path d="M276.795 94V85.2727H279.932V94H276.795ZM278.364 84.3636C277.939 84.3636 277.576 84.2235 277.273 83.9432C276.97 83.6629 276.818 83.3258 276.818 82.9318C276.818 82.5379 276.97 82.2008 277.273 81.9205C277.576 81.6402 277.939 81.5 278.364 81.5C278.792 81.5 279.155 81.6402 279.455 81.9205C279.758 82.2008 279.909 82.5379 279.909 82.9318C279.909 83.3258 279.758 83.6629 279.455 83.9432C279.155 84.2235 278.792 84.3636 278.364 84.3636ZM286.734 85.2727V87.5455H280.984V85.2727H286.734ZM282.098 83.1818H285.234V91.1932C285.234 91.3144 285.255 91.4167 285.297 91.5C285.339 91.5795 285.403 91.6402 285.49 91.6818C285.577 91.7197 285.689 91.7386 285.825 91.7386C285.92 91.7386 286.03 91.7273 286.155 91.7045C286.284 91.6818 286.378 91.6629 286.439 91.6477L286.893 93.8523C286.753 93.8939 286.553 93.9451 286.291 94.0057C286.034 94.0663 285.727 94.1061 285.371 94.125C284.651 94.1629 284.047 94.089 283.558 93.9034C283.07 93.714 282.702 93.4167 282.456 93.0114C282.21 92.6061 282.09 92.0985 282.098 91.4886V83.1818ZM292.102 94.1591C291.17 94.1591 290.367 93.9811 289.693 93.625C289.023 93.2652 288.506 92.75 288.142 92.0795C287.782 91.4053 287.602 90.5985 287.602 89.6591C287.602 88.7576 287.784 87.9697 288.148 87.2955C288.511 86.6212 289.025 86.0966 289.688 85.7216C290.35 85.3466 291.133 85.1591 292.034 85.1591C292.693 85.1591 293.29 85.2614 293.824 85.4659C294.358 85.6705 294.814 85.9678 295.193 86.358C295.572 86.7443 295.864 87.214 296.068 87.767C296.273 88.3201 296.375 88.9432 296.375 89.6364V90.3636H288.58V88.6364H293.489C293.485 88.3864 293.42 88.1667 293.295 87.9773C293.174 87.7841 293.009 87.6345 292.801 87.5284C292.597 87.4186 292.364 87.3636 292.102 87.3636C291.848 87.3636 291.616 87.4186 291.403 87.5284C291.191 87.6345 291.021 87.7822 290.892 87.9716C290.767 88.161 290.701 88.3826 290.693 88.6364V90.5C290.693 90.7803 290.752 91.0303 290.869 91.25C290.987 91.4697 291.155 91.642 291.375 91.767C291.595 91.892 291.86 91.9545 292.17 91.9545C292.386 91.9545 292.583 91.9242 292.761 91.8636C292.943 91.803 293.098 91.7159 293.227 91.6023C293.356 91.4848 293.451 91.3447 293.511 91.1818H296.375C296.277 91.7879 296.044 92.3144 295.676 92.7614C295.309 93.2045 294.822 93.5492 294.216 93.7955C293.614 94.0379 292.909 94.1591 292.102 94.1591ZM297.655 94V85.2727H300.632V86.9318H300.723C300.905 86.3864 301.215 85.9545 301.655 85.6364C302.094 85.3182 302.617 85.1591 303.223 85.1591C303.837 85.1591 304.365 85.322 304.808 85.6477C305.251 85.9697 305.518 86.3977 305.609 86.9318H305.7C305.848 86.3977 306.162 85.9697 306.643 85.6477C307.125 85.322 307.689 85.1591 308.337 85.1591C309.174 85.1591 309.852 85.428 310.371 85.9659C310.893 86.5038 311.155 87.2197 311.155 88.1136V94H308.018V88.9091C308.018 88.5265 307.922 88.2273 307.729 88.0114C307.536 87.7917 307.276 87.6818 306.95 87.6818C306.628 87.6818 306.373 87.7917 306.183 88.0114C305.998 88.2273 305.905 88.5265 305.905 88.9091V94H302.905V88.9091C302.905 88.5265 302.808 88.2273 302.615 88.0114C302.422 87.7917 302.162 87.6818 301.837 87.6818C301.621 87.6818 301.435 87.7311 301.28 87.8295C301.125 87.928 301.003 88.0701 300.916 88.2557C300.833 88.4375 300.791 88.6553 300.791 88.9091V94H297.655Z" fill="#181818" fill-opacity="0.75"/>
<g filter="url(#filter6_d_128_685)">
<rect x="156" y="140" width="72" height="104" rx="8" fill="white" fill-opacity="0.75" shape-rendering="crispEdges"/>
</g>
<path d="M174.795 198V189.273H177.932V198H174.795ZM176.364 188.364C175.939 188.364 175.576 188.223 175.273 187.943C174.97 187.663 174.818 187.326 174.818 186.932C174.818 186.538 174.97 186.201 175.273 185.92C175.576 185.64 175.939 185.5 176.364 185.5C176.792 185.5 177.155 185.64 177.455 185.92C177.758 186.201 177.909 186.538 177.909 186.932C177.909 187.326 177.758 187.663 177.455 187.943C177.155 188.223 176.792 188.364 176.364 188.364ZM184.734 189.273V191.545H178.984V189.273H184.734ZM180.098 187.182H183.234V195.193C183.234 195.314 183.255 195.417 183.297 195.5C183.339 195.58 183.403 195.64 183.49 195.682C183.577 195.72 183.689 195.739 183.825 195.739C183.92 195.739 184.03 195.727 184.155 195.705C184.284 195.682 184.378 195.663 184.439 195.648L184.893 197.852C184.753 197.894 184.553 197.945 184.291 198.006C184.034 198.066 183.727 198.106 183.371 198.125C182.651 198.163 182.047 198.089 181.558 197.903C181.07 197.714 180.702 197.417 180.456 197.011C180.21 196.606 180.09 196.098 180.098 195.489V187.182ZM190.102 198.159C189.17 198.159 188.367 197.981 187.693 197.625C187.023 197.265 186.506 196.75 186.142 196.08C185.782 195.405 185.602 194.598 185.602 193.659C185.602 192.758 185.784 191.97 186.148 191.295C186.511 190.621 187.025 190.097 187.688 189.722C188.35 189.347 189.133 189.159 190.034 189.159C190.693 189.159 191.29 189.261 191.824 189.466C192.358 189.67 192.814 189.968 193.193 190.358C193.572 190.744 193.864 191.214 194.068 191.767C194.273 192.32 194.375 192.943 194.375 193.636V194.364H186.58V192.636H191.489C191.485 192.386 191.42 192.167 191.295 191.977C191.174 191.784 191.009 191.634 190.801 191.528C190.597 191.419 190.364 191.364 190.102 191.364C189.848 191.364 189.616 191.419 189.403 191.528C189.191 191.634 189.021 191.782 188.892 191.972C188.767 192.161 188.701 192.383 188.693 192.636V194.5C188.693 194.78 188.752 195.03 188.869 195.25C188.987 195.47 189.155 195.642 189.375 195.767C189.595 195.892 189.86 195.955 190.17 195.955C190.386 195.955 190.583 195.924 190.761 195.864C190.943 195.803 191.098 195.716 191.227 195.602C191.356 195.485 191.451 195.345 191.511 195.182H194.375C194.277 195.788 194.044 196.314 193.676 196.761C193.309 197.205 192.822 197.549 192.216 197.795C191.614 198.038 190.909 198.159 190.102 198.159ZM195.655 198V189.273H198.632V190.932H198.723C198.905 190.386 199.215 189.955 199.655 189.636C200.094 189.318 200.617 189.159 201.223 189.159C201.837 189.159 202.365 189.322 202.808 189.648C203.251 189.97 203.518 190.398 203.609 190.932H203.7C203.848 190.398 204.162 189.97 204.643 189.648C205.125 189.322 205.689 189.159 206.337 189.159C207.174 189.159 207.852 189.428 208.371 189.966C208.893 190.504 209.155 191.22 209.155 192.114V198H206.018V192.909C206.018 192.527 205.922 192.227 205.729 192.011C205.536 191.792 205.276 191.682 204.95 191.682C204.628 191.682 204.373 191.792 204.183 192.011C203.998 192.227 203.905 192.527 203.905 192.909V198H200.905V192.909C200.905 192.527 200.808 192.227 200.615 192.011C200.422 191.792 200.162 191.682 199.837 191.682C199.621 191.682 199.435 191.731 199.28 191.83C199.125 191.928 199.003 192.07 198.916 192.256C198.833 192.437 198.791 192.655 198.791 192.909V198H195.655Z" fill="#181818" fill-opacity="0.75"/>
<g filter="url(#filter7_d_128_685)">
<rect x="54" y="140" width="72" height="104" rx="8" fill="white" fill-opacity="0.75" shape-rendering="crispEdges"/>
</g>
<path d="M72.7955 198V189.273H75.9318V198H72.7955ZM74.3636 188.364C73.9394 188.364 73.5758 188.223 73.2727 187.943C72.9697 187.663 72.8182 187.326 72.8182 186.932C72.8182 186.538 72.9697 186.201 73.2727 185.92C73.5758 185.64 73.9394 185.5 74.3636 185.5C74.7917 185.5 75.1553 185.64 75.4545 185.92C75.7576 186.201 75.9091 186.538 75.9091 186.932C75.9091 187.326 75.7576 187.663 75.4545 187.943C75.1553 188.223 74.7917 188.364 74.3636 188.364ZM82.7344 189.273V191.545H76.9844V189.273H82.7344ZM78.098 187.182H81.2344V195.193C81.2344 195.314 81.2552 195.417 81.2969 195.5C81.3385 195.58 81.4029 195.64 81.4901 195.682C81.5772 195.72 81.6889 195.739 81.8253 195.739C81.92 195.739 82.0298 195.727 82.1548 195.705C82.2836 195.682 82.3783 195.663 82.4389 195.648L82.8935 197.852C82.7533 197.894 82.5526 197.945 82.2912 198.006C82.0336 198.066 81.7268 198.106 81.3707 198.125C80.651 198.163 80.0469 198.089 79.5582 197.903C79.0696 197.714 78.7022 197.417 78.456 197.011C78.2098 196.606 78.0904 196.098 78.098 195.489V187.182ZM88.1023 198.159C87.1705 198.159 86.3674 197.981 85.6932 197.625C85.0227 197.265 84.5057 196.75 84.142 196.08C83.7822 195.405 83.6023 194.598 83.6023 193.659C83.6023 192.758 83.7841 191.97 84.1477 191.295C84.5114 190.621 85.0246 190.097 85.6875 189.722C86.3504 189.347 87.1326 189.159 88.0341 189.159C88.6932 189.159 89.2898 189.261 89.8239 189.466C90.358 189.67 90.8144 189.968 91.1932 190.358C91.572 190.744 91.8636 191.214 92.0682 191.767C92.2727 192.32 92.375 192.943 92.375 193.636V194.364H84.5795V192.636H89.4886C89.4848 192.386 89.4205 192.167 89.2955 191.977C89.1742 191.784 89.0095 191.634 88.8011 191.528C88.5966 191.419 88.3636 191.364 88.1023 191.364C87.8485 191.364 87.6155 191.419 87.4034 191.528C87.1913 191.634 87.0208 191.782 86.892 191.972C86.767 192.161 86.7008 192.383 86.6932 192.636V194.5C86.6932 194.78 86.7519 195.03 86.8693 195.25C86.9867 195.47 87.1553 195.642 87.375 195.767C87.5947 195.892 87.8598 195.955 88.1705 195.955C88.3864 195.955 88.5833 195.924 88.7614 195.864C88.9432 195.803 89.0985 195.716 89.2273 195.602C89.3561 195.485 89.4508 195.345 89.5114 195.182H92.375C92.2765 195.788 92.0436 196.314 91.6761 196.761C91.3087 197.205 90.822 197.549 90.2159 197.795C89.6136 198.038 88.9091 198.159 88.1023 198.159ZM93.6548 198V189.273H96.6321V190.932H96.723C96.9048 190.386 97.2154 189.955 97.6548 189.636C98.0942 189.318 98.617 189.159 99.223 189.159C99.8366 189.159 100.365 189.322 100.808 189.648C101.251 189.97 101.518 190.398 101.609 190.932H101.7C101.848 190.398 102.162 189.97 102.643 189.648C103.125 189.322 103.689 189.159 104.337 189.159C105.174 189.159 105.852 189.428 106.371 189.966C106.893 190.504 107.155 191.22 107.155 192.114V198H104.018V192.909C104.018 192.527 103.922 192.227 103.729 192.011C103.536 191.792 103.276 191.682 102.95 191.682C102.628 191.682 102.373 191.792 102.183 192.011C101.998 192.227 101.905 192.527 101.905 192.909V198H98.9048V192.909C98.9048 192.527 98.8082 192.227 98.6151 192.011C98.4219 191.792 98.1624 191.682 97.8366 191.682C97.6207 191.682 97.4351 191.731 97.2798 191.83C97.1245 191.928 97.0033 192.07 96.9162 192.256C96.8329 192.437 96.7912 192.655 96.7912 192.909V198H93.6548Z" fill="#181818" fill-opacity="0.75"/>
<g filter="url(#filter8_d_128_685)">
<rect x="258" y="140" width="72" height="104" rx="8" fill="white" fill-opacity="0.75" shape-rendering="crispEdges"/>
</g>
<path d="M276.795 198V189.273H279.932V198H276.795ZM278.364 188.364C277.939 188.364 277.576 188.223 277.273 187.943C276.97 187.663 276.818 187.326 276.818 186.932C276.818 186.538 276.97 186.201 277.273 185.92C277.576 185.64 277.939 185.5 278.364 185.5C278.792 185.5 279.155 185.64 279.455 185.92C279.758 186.201 279.909 186.538 279.909 186.932C279.909 187.326 279.758 187.663 279.455 187.943C279.155 188.223 278.792 188.364 278.364 188.364ZM286.734 189.273V191.545H280.984V189.273H286.734ZM282.098 187.182H285.234V195.193C285.234 195.314 285.255 195.417 285.297 195.5C285.339 195.58 285.403 195.64 285.49 195.682C285.577 195.72 285.689 195.739 285.825 195.739C285.92 195.739 286.03 195.727 286.155 195.705C286.284 195.682 286.378 195.663 286.439 195.648L286.893 197.852C286.753 197.894 286.553 197.945 286.291 198.006C286.034 198.066 285.727 198.106 285.371 198.125C284.651 198.163 284.047 198.089 283.558 197.903C283.07 197.714 282.702 197.417 282.456 197.011C282.21 196.606 282.09 196.098 282.098 195.489V187.182ZM292.102 198.159C291.17 198.159 290.367 197.981 289.693 197.625C289.023 197.265 288.506 196.75 288.142 196.08C287.782 195.405 287.602 194.598 287.602 193.659C287.602 192.758 287.784 191.97 288.148 191.295C288.511 190.621 289.025 190.097 289.688 189.722C290.35 189.347 291.133 189.159 292.034 189.159C292.693 189.159 293.29 189.261 293.824 189.466C294.358 189.67 294.814 189.968 295.193 190.358C295.572 190.744 295.864 191.214 296.068 191.767C296.273 192.32 296.375 192.943 296.375 193.636V194.364H288.58V192.636H293.489C293.485 192.386 293.42 192.167 293.295 191.977C293.174 191.784 293.009 191.634 292.801 191.528C292.597 191.419 292.364 191.364 292.102 191.364C291.848 191.364 291.616 191.419 291.403 191.528C291.191 191.634 291.021 191.782 290.892 191.972C290.767 192.161 290.701 192.383 290.693 192.636V194.5C290.693 194.78 290.752 195.03 290.869 195.25C290.987 195.47 291.155 195.642 291.375 195.767C291.595 195.892 291.86 195.955 292.17 195.955C292.386 195.955 292.583 195.924 292.761 195.864C292.943 195.803 293.098 195.716 293.227 195.602C293.356 195.485 293.451 195.345 293.511 195.182H296.375C296.277 195.788 296.044 196.314 295.676 196.761C295.309 197.205 294.822 197.549 294.216 197.795C293.614 198.038 292.909 198.159 292.102 198.159ZM297.655 198V189.273H300.632V190.932H300.723C300.905 190.386 301.215 189.955 301.655 189.636C302.094 189.318 302.617 189.159 303.223 189.159C303.837 189.159 304.365 189.322 304.808 189.648C305.251 189.97 305.518 190.398 305.609 190.932H305.7C305.848 190.398 306.162 189.97 306.643 189.648C307.125 189.322 307.689 189.159 308.337 189.159C309.174 189.159 309.852 189.428 310.371 189.966C310.893 190.504 311.155 191.22 311.155 192.114V198H308.018V192.909C308.018 192.527 307.922 192.227 307.729 192.011C307.536 191.792 307.276 191.682 306.95 191.682C306.628 191.682 306.373 191.792 306.183 192.011C305.998 192.227 305.905 192.527 305.905 192.909V198H302.905V192.909C302.905 192.527 302.808 192.227 302.615 192.011C302.422 191.792 302.162 191.682 301.837 191.682C301.621 191.682 301.435 191.731 301.28 191.83C301.125 191.928 301.003 192.07 300.916 192.256C300.833 192.437 300.791 192.655 300.791 192.909V198H297.655Z" fill="#181818" fill-opacity="0.75"/>
<g filter="url(#filter9_d_128_685)">
<rect x="258" y="244" width="72" height="104" rx="8" fill="white" fill-opacity="0.75" shape-rendering="crispEdges"/>
</g>
<path d="M276.795 302V293.273H279.932V302H276.795ZM278.364 292.364C277.939 292.364 277.576 292.223 277.273 291.943C276.97 291.663 276.818 291.326 276.818 290.932C276.818 290.538 276.97 290.201 277.273 289.92C277.576 289.64 277.939 289.5 278.364 289.5C278.792 289.5 279.155 289.64 279.455 289.92C279.758 290.201 279.909 290.538 279.909 290.932C279.909 291.326 279.758 291.663 279.455 291.943C279.155 292.223 278.792 292.364 278.364 292.364ZM286.734 293.273V295.545H280.984V293.273H286.734ZM282.098 291.182H285.234V299.193C285.234 299.314 285.255 299.417 285.297 299.5C285.339 299.58 285.403 299.64 285.49 299.682C285.577 299.72 285.689 299.739 285.825 299.739C285.92 299.739 286.03 299.727 286.155 299.705C286.284 299.682 286.378 299.663 286.439 299.648L286.893 301.852C286.753 301.894 286.553 301.945 286.291 302.006C286.034 302.066 285.727 302.106 285.371 302.125C284.651 302.163 284.047 302.089 283.558 301.903C283.07 301.714 282.702 301.417 282.456 301.011C282.21 300.606 282.09 300.098 282.098 299.489V291.182ZM292.102 302.159C291.17 302.159 290.367 301.981 289.693 301.625C289.023 301.265 288.506 300.75 288.142 300.08C287.782 299.405 287.602 298.598 287.602 297.659C287.602 296.758 287.784 295.97 288.148 295.295C288.511 294.621 289.025 294.097 289.688 293.722C290.35 293.347 291.133 293.159 292.034 293.159C292.693 293.159 293.29 293.261 293.824 293.466C294.358 293.67 294.814 293.968 295.193 294.358C295.572 294.744 295.864 295.214 296.068 295.767C296.273 296.32 296.375 296.943 296.375 297.636V298.364H288.58V296.636H293.489C293.485 296.386 293.42 296.167 293.295 295.977C293.174 295.784 293.009 295.634 292.801 295.528C292.597 295.419 292.364 295.364 292.102 295.364C291.848 295.364 291.616 295.419 291.403 295.528C291.191 295.634 291.021 295.782 290.892 295.972C290.767 296.161 290.701 296.383 290.693 296.636V298.5C290.693 298.78 290.752 299.03 290.869 299.25C290.987 299.47 291.155 299.642 291.375 299.767C291.595 299.892 291.86 299.955 292.17 299.955C292.386 299.955 292.583 299.924 292.761 299.864C292.943 299.803 293.098 299.716 293.227 299.602C293.356 299.485 293.451 299.345 293.511 299.182H296.375C296.277 299.788 296.044 300.314 295.676 300.761C295.309 301.205 294.822 301.549 294.216 301.795C293.614 302.038 292.909 302.159 292.102 302.159ZM297.655 302V293.273H300.632V294.932H300.723C300.905 294.386 301.215 293.955 301.655 293.636C302.094 293.318 302.617 293.159 303.223 293.159C303.837 293.159 304.365 293.322 304.808 293.648C305.251 293.97 305.518 294.398 305.609 294.932H305.7C305.848 294.398 306.162 293.97 306.643 293.648C307.125 293.322 307.689 293.159 308.337 293.159C309.174 293.159 309.852 293.428 310.371 293.966C310.893 294.504 311.155 295.22 311.155 296.114V302H308.018V296.909C308.018 296.527 307.922 296.227 307.729 296.011C307.536 295.792 307.276 295.682 306.95 295.682C306.628 295.682 306.373 295.792 306.183 296.011C305.998 296.227 305.905 296.527 305.905 296.909V302H302.905V296.909C302.905 296.527 302.808 296.227 302.615 296.011C302.422 295.792 302.162 295.682 301.837 295.682C301.621 295.682 301.435 295.731 301.28 295.83C301.125 295.928 301.003 296.07 300.916 296.256C300.833 296.437 300.791 296.655 300.791 296.909V302H297.655Z" fill="#181818" fill-opacity="0.75"/>
<path d="M171 27.1591C170.053 27.1591 169.242 26.9716 168.568 26.5966C167.894 26.2178 167.377 25.6913 167.017 25.017C166.657 24.339 166.477 23.553 166.477 22.6591C166.477 21.7652 166.657 20.9811 167.017 20.3068C167.377 19.6288 167.894 19.1023 168.568 18.7273C169.242 18.3485 170.053 18.1591 171 18.1591C171.856 18.1591 172.597 18.3144 173.222 18.625C173.85 18.9318 174.337 19.3674 174.682 19.9318C175.027 20.4924 175.201 21.1515 175.205 21.9091H172.295C172.254 21.4508 172.121 21.1023 171.898 20.8636C171.678 20.6212 171.394 20.5 171.045 20.5C170.773 20.5 170.534 20.5795 170.33 20.7386C170.125 20.8939 169.966 21.1307 169.852 21.4489C169.739 21.7633 169.682 22.1591 169.682 22.6364C169.682 23.1136 169.739 23.5114 169.852 23.8295C169.966 24.1439 170.125 24.3807 170.33 24.5398C170.534 24.6951 170.773 24.7727 171.045 24.7727C171.277 24.7727 171.481 24.7197 171.659 24.6136C171.837 24.5038 171.981 24.3447 172.091 24.1364C172.205 23.9242 172.273 23.6667 172.295 23.3636H175.205C175.193 24.1326 175.017 24.803 174.676 25.375C174.335 25.9432 173.852 26.3826 173.227 26.6932C172.606 27.0038 171.864 27.1591 171 27.1591ZM180.68 27.1591C179.749 27.1591 178.946 26.9811 178.271 26.625C177.601 26.2652 177.084 25.75 176.72 25.0795C176.36 24.4053 176.18 23.5985 176.18 22.6591C176.18 21.7576 176.362 20.9697 176.726 20.2955C177.089 19.6212 177.603 19.0966 178.266 18.7216C178.929 18.3466 179.711 18.1591 180.612 18.1591C181.271 18.1591 181.868 18.2614 182.402 18.4659C182.936 18.6705 183.393 18.9678 183.771 19.358C184.15 19.7443 184.442 20.214 184.646 20.767C184.851 21.3201 184.953 21.9432 184.953 22.6364V23.3636H177.158V21.6364H182.067C182.063 21.3864 181.999 21.1667 181.874 20.9773C181.752 20.7841 181.588 20.6345 181.379 20.5284C181.175 20.4186 180.942 20.3636 180.68 20.3636C180.427 20.3636 180.194 20.4186 179.982 20.5284C179.769 20.6345 179.599 20.7822 179.47 20.9716C179.345 21.161 179.279 21.3826 179.271 21.6364V23.5C179.271 23.7803 179.33 24.0303 179.447 24.25C179.565 24.4697 179.733 24.642 179.953 24.767C180.173 24.892 180.438 24.9545 180.749 24.9545C180.964 24.9545 181.161 24.9242 181.339 24.8636C181.521 24.803 181.677 24.7159 181.805 24.6023C181.934 24.4848 182.029 24.3447 182.089 24.1818H184.953C184.855 24.7879 184.622 25.3144 184.254 25.7614C183.887 26.2045 183.4 26.5492 182.794 26.7955C182.192 27.0379 181.487 27.1591 180.68 27.1591ZM189.369 22.0909V27H186.233V18.2727H189.21V19.9318H189.301C189.491 19.3788 189.824 18.9451 190.301 18.6307C190.782 18.3163 191.343 18.1591 191.983 18.1591C192.6 18.1591 193.136 18.3011 193.591 18.5852C194.049 18.8655 194.403 19.2519 194.653 19.7443C194.907 20.2367 195.032 20.7992 195.028 21.4318V27H191.892V22.0909C191.896 21.6591 191.786 21.3201 191.562 21.0739C191.343 20.8277 191.036 20.7045 190.642 20.7045C190.384 20.7045 190.159 20.7614 189.966 20.875C189.777 20.9848 189.631 21.1439 189.528 21.3523C189.426 21.5568 189.373 21.803 189.369 22.0909ZM201.781 18.2727V20.5455H196.031V18.2727H201.781ZM197.145 16.1818H200.281V24.1932C200.281 24.3144 200.302 24.4167 200.344 24.5C200.385 24.5795 200.45 24.6402 200.537 24.6818C200.624 24.7197 200.736 24.7386 200.872 24.7386C200.967 24.7386 201.077 24.7273 201.202 24.7045C201.33 24.6818 201.425 24.6629 201.486 24.6477L201.94 26.8523C201.8 26.8939 201.599 26.9451 201.338 27.0057C201.08 27.0663 200.774 27.1061 200.418 27.125C199.698 27.1629 199.094 27.089 198.605 26.9034C198.116 26.714 197.749 26.4167 197.503 26.0114C197.257 25.6061 197.137 25.0985 197.145 24.4886V16.1818ZM207.149 27.1591C206.217 27.1591 205.414 26.9811 204.74 26.625C204.07 26.2652 203.553 25.75 203.189 25.0795C202.829 24.4053 202.649 23.5985 202.649 22.6591C202.649 21.7576 202.831 20.9697 203.195 20.2955C203.558 19.6212 204.071 19.0966 204.734 18.7216C205.397 18.3466 206.179 18.1591 207.081 18.1591C207.74 18.1591 208.337 18.2614 208.871 18.4659C209.405 18.6705 209.861 18.9678 210.24 19.358C210.619 19.7443 210.911 20.214 211.115 20.767C211.32 21.3201 211.422 21.9432 211.422 22.6364V23.3636H203.626V21.6364H208.536C208.532 21.3864 208.467 21.1667 208.342 20.9773C208.221 20.7841 208.056 20.6345 207.848 20.5284C207.643 20.4186 207.411 20.3636 207.149 20.3636C206.895 20.3636 206.662 20.4186 206.45 20.5284C206.238 20.6345 206.068 20.7822 205.939 20.9716C205.814 21.161 205.748 21.3826 205.74 21.6364V23.5C205.74 23.7803 205.799 24.0303 205.916 24.25C206.034 24.4697 206.202 24.642 206.422 24.767C206.642 24.892 206.907 24.9545 207.217 24.9545C207.433 24.9545 207.63 24.9242 207.808 24.8636C207.99 24.803 208.145 24.7159 208.274 24.6023C208.403 24.4848 208.498 24.3447 208.558 24.1818H211.422C211.323 24.7879 211.09 25.3144 210.723 25.7614C210.356 26.2045 209.869 26.5492 209.263 26.7955C208.661 27.0379 207.956 27.1591 207.149 27.1591ZM212.702 27V18.2727H215.747V19.9318H215.838C215.997 19.3182 216.249 18.8693 216.594 18.5852C216.942 18.3011 217.349 18.1591 217.815 18.1591C217.952 18.1591 218.086 18.1705 218.219 18.1932C218.355 18.2121 218.486 18.2405 218.611 18.2784V20.9545C218.455 20.9015 218.264 20.8617 218.037 20.8352C217.81 20.8087 217.615 20.7955 217.452 20.7955C217.145 20.7955 216.868 20.8655 216.622 21.0057C216.38 21.142 216.188 21.3352 216.048 21.5852C215.908 21.8314 215.838 22.1212 215.838 22.4545V27H212.702Z" fill="#181818" fill-opacity="0.75"/>
<g filter="url(#filter10_d_128_685)">
<rect x="402" y="4" width="368" height="360" rx="8" fill="#2172FF" fill-opacity="0.8" shape-rendering="crispEdges"/>
</g>
<g filter="url(#filter11_d_128_685)">
<rect x="530" y="244" width="112" height="104" rx="8" fill="white" fill-opacity="0.75" shape-rendering="crispEdges"/>
</g>
<path d="M568.795 302V293.273H571.932V302H568.795ZM570.364 292.364C569.939 292.364 569.576 292.223 569.273 291.943C568.97 291.663 568.818 291.326 568.818 290.932C568.818 290.538 568.97 290.201 569.273 289.92C569.576 289.64 569.939 289.5 570.364 289.5C570.792 289.5 571.155 289.64 571.455 289.92C571.758 290.201 571.909 290.538 571.909 290.932C571.909 291.326 571.758 291.663 571.455 291.943C571.155 292.223 570.792 292.364 570.364 292.364ZM578.734 293.273V295.545H572.984V293.273H578.734ZM574.098 291.182H577.234V299.193C577.234 299.314 577.255 299.417 577.297 299.5C577.339 299.58 577.403 299.64 577.49 299.682C577.577 299.72 577.689 299.739 577.825 299.739C577.92 299.739 578.03 299.727 578.155 299.705C578.284 299.682 578.378 299.663 578.439 299.648L578.893 301.852C578.753 301.894 578.553 301.945 578.291 302.006C578.034 302.066 577.727 302.106 577.371 302.125C576.651 302.163 576.047 302.089 575.558 301.903C575.07 301.714 574.702 301.417 574.456 301.011C574.21 300.606 574.09 300.098 574.098 299.489V291.182ZM584.102 302.159C583.17 302.159 582.367 301.981 581.693 301.625C581.023 301.265 580.506 300.75 580.142 300.08C579.782 299.405 579.602 298.598 579.602 297.659C579.602 296.758 579.784 295.97 580.148 295.295C580.511 294.621 581.025 294.097 581.688 293.722C582.35 293.347 583.133 293.159 584.034 293.159C584.693 293.159 585.29 293.261 585.824 293.466C586.358 293.67 586.814 293.968 587.193 294.358C587.572 294.744 587.864 295.214 588.068 295.767C588.273 296.32 588.375 296.943 588.375 297.636V298.364H580.58V296.636H585.489C585.485 296.386 585.42 296.167 585.295 295.977C585.174 295.784 585.009 295.634 584.801 295.528C584.597 295.419 584.364 295.364 584.102 295.364C583.848 295.364 583.616 295.419 583.403 295.528C583.191 295.634 583.021 295.782 582.892 295.972C582.767 296.161 582.701 296.383 582.693 296.636V298.5C582.693 298.78 582.752 299.03 582.869 299.25C582.987 299.47 583.155 299.642 583.375 299.767C583.595 299.892 583.86 299.955 584.17 299.955C584.386 299.955 584.583 299.924 584.761 299.864C584.943 299.803 585.098 299.716 585.227 299.602C585.356 299.485 585.451 299.345 585.511 299.182H588.375C588.277 299.788 588.044 300.314 587.676 300.761C587.309 301.205 586.822 301.549 586.216 301.795C585.614 302.038 584.909 302.159 584.102 302.159ZM589.655 302V293.273H592.632V294.932H592.723C592.905 294.386 593.215 293.955 593.655 293.636C594.094 293.318 594.617 293.159 595.223 293.159C595.837 293.159 596.365 293.322 596.808 293.648C597.251 293.97 597.518 294.398 597.609 294.932H597.7C597.848 294.398 598.162 293.97 598.643 293.648C599.125 293.322 599.689 293.159 600.337 293.159C601.174 293.159 601.852 293.428 602.371 293.966C602.893 294.504 603.155 295.22 603.155 296.114V302H600.018V296.909C600.018 296.527 599.922 296.227 599.729 296.011C599.536 295.792 599.276 295.682 598.95 295.682C598.628 295.682 598.373 295.792 598.183 296.011C597.998 296.227 597.905 296.527 597.905 296.909V302H594.905V296.909C594.905 296.527 594.808 296.227 594.615 296.011C594.422 295.792 594.162 295.682 593.837 295.682C593.621 295.682 593.435 295.731 593.28 295.83C593.125 295.928 593.003 296.07 592.916 296.256C592.833 296.437 592.791 296.655 592.791 296.909V302H589.655Z" fill="#181818" fill-opacity="0.75"/>
<g filter="url(#filter12_d_128_685)">
<rect x="530" y="36" width="112" height="104" rx="8" fill="white" fill-opacity="0.75" shape-rendering="crispEdges"/>
</g>
<path d="M568.795 94V85.2727H571.932V94H568.795ZM570.364 84.3636C569.939 84.3636 569.576 84.2235 569.273 83.9432C568.97 83.6629 568.818 83.3258 568.818 82.9318C568.818 82.5379 568.97 82.2008 569.273 81.9205C569.576 81.6402 569.939 81.5 570.364 81.5C570.792 81.5 571.155 81.6402 571.455 81.9205C571.758 82.2008 571.909 82.5379 571.909 82.9318C571.909 83.3258 571.758 83.6629 571.455 83.9432C571.155 84.2235 570.792 84.3636 570.364 84.3636ZM578.734 85.2727V87.5455H572.984V85.2727H578.734ZM574.098 83.1818H577.234V91.1932C577.234 91.3144 577.255 91.4167 577.297 91.5C577.339 91.5795 577.403 91.6402 577.49 91.6818C577.577 91.7197 577.689 91.7386 577.825 91.7386C577.92 91.7386 578.03 91.7273 578.155 91.7045C578.284 91.6818 578.378 91.6629 578.439 91.6477L578.893 93.8523C578.753 93.8939 578.553 93.9451 578.291 94.0057C578.034 94.0663 577.727 94.1061 577.371 94.125C576.651 94.1629 576.047 94.089 575.558 93.9034C575.07 93.714 574.702 93.4167 574.456 93.0114C574.21 92.6061 574.09 92.0985 574.098 91.4886V83.1818ZM584.102 94.1591C583.17 94.1591 582.367 93.9811 581.693 93.625C581.023 93.2652 580.506 92.75 580.142 92.0795C579.782 91.4053 579.602 90.5985 579.602 89.6591C579.602 88.7576 579.784 87.9697 580.148 87.2955C580.511 86.6212 581.025 86.0966 581.688 85.7216C582.35 85.3466 583.133 85.1591 584.034 85.1591C584.693 85.1591 585.29 85.2614 585.824 85.4659C586.358 85.6705 586.814 85.9678 587.193 86.358C587.572 86.7443 587.864 87.214 588.068 87.767C588.273 88.3201 588.375 88.9432 588.375 89.6364V90.3636H580.58V88.6364H585.489C585.485 88.3864 585.42 88.1667 585.295 87.9773C585.174 87.7841 585.009 87.6345 584.801 87.5284C584.597 87.4186 584.364 87.3636 584.102 87.3636C583.848 87.3636 583.616 87.4186 583.403 87.5284C583.191 87.6345 583.021 87.7822 582.892 87.9716C582.767 88.161 582.701 88.3826 582.693 88.6364V90.5C582.693 90.7803 582.752 91.0303 582.869 91.25C582.987 91.4697 583.155 91.642 583.375 91.767C583.595 91.892 583.86 91.9545 584.17 91.9545C584.386 91.9545 584.583 91.9242 584.761 91.8636C584.943 91.803 585.098 91.7159 585.227 91.6023C585.356 91.4848 585.451 91.3447 585.511 91.1818H588.375C588.277 91.7879 588.044 92.3144 587.676 92.7614C587.309 93.2045 586.822 93.5492 586.216 93.7955C585.614 94.0379 584.909 94.1591 584.102 94.1591ZM589.655 94V85.2727H592.632V86.9318H592.723C592.905 86.3864 593.215 85.9545 593.655 85.6364C594.094 85.3182 594.617 85.1591 595.223 85.1591C595.837 85.1591 596.365 85.322 596.808 85.6477C597.251 85.9697 597.518 86.3977 597.609 86.9318H597.7C597.848 86.3977 598.162 85.9697 598.643 85.6477C599.125 85.322 599.689 85.1591 600.337 85.1591C601.174 85.1591 601.852 85.428 602.371 85.9659C602.893 86.5038 603.155 87.2197 603.155 88.1136V94H600.018V88.9091C600.018 88.5265 599.922 88.2273 599.729 88.0114C599.536 87.7917 599.276 87.6818 598.95 87.6818C598.628 87.6818 598.373 87.7917 598.183 88.0114C597.998 88.2273 597.905 88.5265 597.905 88.9091V94H594.905V88.9091C594.905 88.5265 594.808 88.2273 594.615 88.0114C594.422 87.7917 594.162 87.6818 593.837 87.6818C593.621 87.6818 593.435 87.7311 593.28 87.8295C593.125 87.928 593.003 88.0701 592.916 88.2557C592.833 88.4375 592.791 88.6553 592.791 88.9091V94H589.655Z" fill="#181818" fill-opacity="0.75"/>
<g filter="url(#filter13_d_128_685)">
<rect x="418" y="244" width="112" height="104" rx="8" fill="white" fill-opacity="0.75" shape-rendering="crispEdges"/>
</g>
<path d="M456.795 302V293.273H459.932V302H456.795ZM458.364 292.364C457.939 292.364 457.576 292.223 457.273 291.943C456.97 291.663 456.818 291.326 456.818 290.932C456.818 290.538 456.97 290.201 457.273 289.92C457.576 289.64 457.939 289.5 458.364 289.5C458.792 289.5 459.155 289.64 459.455 289.92C459.758 290.201 459.909 290.538 459.909 290.932C459.909 291.326 459.758 291.663 459.455 291.943C459.155 292.223 458.792 292.364 458.364 292.364ZM466.734 293.273V295.545H460.984V293.273H466.734ZM462.098 291.182H465.234V299.193C465.234 299.314 465.255 299.417 465.297 299.5C465.339 299.58 465.403 299.64 465.49 299.682C465.577 299.72 465.689 299.739 465.825 299.739C465.92 299.739 466.03 299.727 466.155 299.705C466.284 299.682 466.378 299.663 466.439 299.648L466.893 301.852C466.753 301.894 466.553 301.945 466.291 302.006C466.034 302.066 465.727 302.106 465.371 302.125C464.651 302.163 464.047 302.089 463.558 301.903C463.07 301.714 462.702 301.417 462.456 301.011C462.21 300.606 462.09 300.098 462.098 299.489V291.182ZM472.102 302.159C471.17 302.159 470.367 301.981 469.693 301.625C469.023 301.265 468.506 300.75 468.142 300.08C467.782 299.405 467.602 298.598 467.602 297.659C467.602 296.758 467.784 295.97 468.148 295.295C468.511 294.621 469.025 294.097 469.688 293.722C470.35 293.347 471.133 293.159 472.034 293.159C472.693 293.159 473.29 293.261 473.824 293.466C474.358 293.67 474.814 293.968 475.193 294.358C475.572 294.744 475.864 295.214 476.068 295.767C476.273 296.32 476.375 296.943 476.375 297.636V298.364H468.58V296.636H473.489C473.485 296.386 473.42 296.167 473.295 295.977C473.174 295.784 473.009 295.634 472.801 295.528C472.597 295.419 472.364 295.364 472.102 295.364C471.848 295.364 471.616 295.419 471.403 295.528C471.191 295.634 471.021 295.782 470.892 295.972C470.767 296.161 470.701 296.383 470.693 296.636V298.5C470.693 298.78 470.752 299.03 470.869 299.25C470.987 299.47 471.155 299.642 471.375 299.767C471.595 299.892 471.86 299.955 472.17 299.955C472.386 299.955 472.583 299.924 472.761 299.864C472.943 299.803 473.098 299.716 473.227 299.602C473.356 299.485 473.451 299.345 473.511 299.182H476.375C476.277 299.788 476.044 300.314 475.676 300.761C475.309 301.205 474.822 301.549 474.216 301.795C473.614 302.038 472.909 302.159 472.102 302.159ZM477.655 302V293.273H480.632V294.932H480.723C480.905 294.386 481.215 293.955 481.655 293.636C482.094 293.318 482.617 293.159 483.223 293.159C483.837 293.159 484.365 293.322 484.808 293.648C485.251 293.97 485.518 294.398 485.609 294.932H485.7C485.848 294.398 486.162 293.97 486.643 293.648C487.125 293.322 487.689 293.159 488.337 293.159C489.174 293.159 489.852 293.428 490.371 293.966C490.893 294.504 491.155 295.22 491.155 296.114V302H488.018V296.909C488.018 296.527 487.922 296.227 487.729 296.011C487.536 295.792 487.276 295.682 486.95 295.682C486.628 295.682 486.373 295.792 486.183 296.011C485.998 296.227 485.905 296.527 485.905 296.909V302H482.905V296.909C482.905 296.527 482.808 296.227 482.615 296.011C482.422 295.792 482.162 295.682 481.837 295.682C481.621 295.682 481.435 295.731 481.28 295.83C481.125 295.928 481.003 296.07 480.916 296.256C480.833 296.437 480.791 296.655 480.791 296.909V302H477.655Z" fill="#181818" fill-opacity="0.75"/>
<g filter="url(#filter14_d_128_685)">
<rect x="418" y="36" width="112" height="104" rx="8" fill="white" fill-opacity="0.75" shape-rendering="crispEdges"/>
</g>
<path d="M456.795 94V85.2727H459.932V94H456.795ZM458.364 84.3636C457.939 84.3636 457.576 84.2235 457.273 83.9432C456.97 83.6629 456.818 83.3258 456.818 82.9318C456.818 82.5379 456.97 82.2008 457.273 81.9205C457.576 81.6402 457.939 81.5 458.364 81.5C458.792 81.5 459.155 81.6402 459.455 81.9205C459.758 82.2008 459.909 82.5379 459.909 82.9318C459.909 83.3258 459.758 83.6629 459.455 83.9432C459.155 84.2235 458.792 84.3636 458.364 84.3636ZM466.734 85.2727V87.5455H460.984V85.2727H466.734ZM462.098 83.1818H465.234V91.1932C465.234 91.3144 465.255 91.4167 465.297 91.5C465.339 91.5795 465.403 91.6402 465.49 91.6818C465.577 91.7197 465.689 91.7386 465.825 91.7386C465.92 91.7386 466.03 91.7273 466.155 91.7045C466.284 91.6818 466.378 91.6629 466.439 91.6477L466.893 93.8523C466.753 93.8939 466.553 93.9451 466.291 94.0057C466.034 94.0663 465.727 94.1061 465.371 94.125C464.651 94.1629 464.047 94.089 463.558 93.9034C463.07 93.714 462.702 93.4167 462.456 93.0114C462.21 92.6061 462.09 92.0985 462.098 91.4886V83.1818ZM472.102 94.1591C471.17 94.1591 470.367 93.9811 469.693 93.625C469.023 93.2652 468.506 92.75 468.142 92.0795C467.782 91.4053 467.602 90.5985 467.602 89.6591C467.602 88.7576 467.784 87.9697 468.148 87.2955C468.511 86.6212 469.025 86.0966 469.688 85.7216C470.35 85.3466 471.133 85.1591 472.034 85.1591C472.693 85.1591 473.29 85.2614 473.824 85.4659C474.358 85.6705 474.814 85.9678 475.193 86.358C475.572 86.7443 475.864 87.214 476.068 87.767C476.273 88.3201 476.375 88.9432 476.375 89.6364V90.3636H468.58V88.6364H473.489C473.485 88.3864 473.42 88.1667 473.295 87.9773C473.174 87.7841 473.009 87.6345 472.801 87.5284C472.597 87.4186 472.364 87.3636 472.102 87.3636C471.848 87.3636 471.616 87.4186 471.403 87.5284C471.191 87.6345 471.021 87.7822 470.892 87.9716C470.767 88.161 470.701 88.3826 470.693 88.6364V90.5C470.693 90.7803 470.752 91.0303 470.869 91.25C470.987 91.4697 471.155 91.642 471.375 91.767C471.595 91.892 471.86 91.9545 472.17 91.9545C472.386 91.9545 472.583 91.9242 472.761 91.8636C472.943 91.803 473.098 91.7159 473.227 91.6023C473.356 91.4848 473.451 91.3447 473.511 91.1818H476.375C476.277 91.7879 476.044 92.3144 475.676 92.7614C475.309 93.2045 474.822 93.5492 474.216 93.7955C473.614 94.0379 472.909 94.1591 472.102 94.1591ZM477.655 94V85.2727H480.632V86.9318H480.723C480.905 86.3864 481.215 85.9545 481.655 85.6364C482.094 85.3182 482.617 85.1591 483.223 85.1591C483.837 85.1591 484.365 85.322 484.808 85.6477C485.251 85.9697 485.518 86.3977 485.609 86.9318H485.7C485.848 86.3977 486.162 85.9697 486.643 85.6477C487.125 85.322 487.689 85.1591 488.337 85.1591C489.174 85.1591 489.852 85.428 490.371 85.9659C490.893 86.5038 491.155 87.2197 491.155 88.1136V94H488.018V88.9091C488.018 88.5265 487.922 88.2273 487.729 88.0114C487.536 87.7917 487.276 87.6818 486.95 87.6818C486.628 87.6818 486.373 87.7917 486.183 88.0114C485.998 88.2273 485.905 88.5265 485.905 88.9091V94H482.905V88.9091C482.905 88.5265 482.808 88.2273 482.615 88.0114C482.422 87.7917 482.162 87.6818 481.837 87.6818C481.621 87.6818 481.435 87.7311 481.28 87.8295C481.125 87.928 481.003 88.0701 480.916 88.2557C480.833 88.4375 480.791 88.6553 480.791 88.9091V94H477.655Z" fill="#181818" fill-opacity="0.75"/>
<g filter="url(#filter15_d_128_685)">
<rect x="642" y="36" width="112" height="104" rx="8" fill="white" fill-opacity="0.75" shape-rendering="crispEdges"/>
</g>
<path d="M680.795 94V85.2727H683.932V94H680.795ZM682.364 84.3636C681.939 84.3636 681.576 84.2235 681.273 83.9432C680.97 83.6629 680.818 83.3258 680.818 82.9318C680.818 82.5379 680.97 82.2008 681.273 81.9205C681.576 81.6402 681.939 81.5 682.364 81.5C682.792 81.5 683.155 81.6402 683.455 81.9205C683.758 82.2008 683.909 82.5379 683.909 82.9318C683.909 83.3258 683.758 83.6629 683.455 83.9432C683.155 84.2235 682.792 84.3636 682.364 84.3636ZM690.734 85.2727V87.5455H684.984V85.2727H690.734ZM686.098 83.1818H689.234V91.1932C689.234 91.3144 689.255 91.4167 689.297 91.5C689.339 91.5795 689.403 91.6402 689.49 91.6818C689.577 91.7197 689.689 91.7386 689.825 91.7386C689.92 91.7386 690.03 91.7273 690.155 91.7045C690.284 91.6818 690.378 91.6629 690.439 91.6477L690.893 93.8523C690.753 93.8939 690.553 93.9451 690.291 94.0057C690.034 94.0663 689.727 94.1061 689.371 94.125C688.651 94.1629 688.047 94.089 687.558 93.9034C687.07 93.714 686.702 93.4167 686.456 93.0114C686.21 92.6061 686.09 92.0985 686.098 91.4886V83.1818ZM696.102 94.1591C695.17 94.1591 694.367 93.9811 693.693 93.625C693.023 93.2652 692.506 92.75 692.142 92.0795C691.782 91.4053 691.602 90.5985 691.602 89.6591C691.602 88.7576 691.784 87.9697 692.148 87.2955C692.511 86.6212 693.025 86.0966 693.688 85.7216C694.35 85.3466 695.133 85.1591 696.034 85.1591C696.693 85.1591 697.29 85.2614 697.824 85.4659C698.358 85.6705 698.814 85.9678 699.193 86.358C699.572 86.7443 699.864 87.214 700.068 87.767C700.273 88.3201 700.375 88.9432 700.375 89.6364V90.3636H692.58V88.6364H697.489C697.485 88.3864 697.42 88.1667 697.295 87.9773C697.174 87.7841 697.009 87.6345 696.801 87.5284C696.597 87.4186 696.364 87.3636 696.102 87.3636C695.848 87.3636 695.616 87.4186 695.403 87.5284C695.191 87.6345 695.021 87.7822 694.892 87.9716C694.767 88.161 694.701 88.3826 694.693 88.6364V90.5C694.693 90.7803 694.752 91.0303 694.869 91.25C694.987 91.4697 695.155 91.642 695.375 91.767C695.595 91.892 695.86 91.9545 696.17 91.9545C696.386 91.9545 696.583 91.9242 696.761 91.8636C696.943 91.803 697.098 91.7159 697.227 91.6023C697.356 91.4848 697.451 91.3447 697.511 91.1818H700.375C700.277 91.7879 700.044 92.3144 699.676 92.7614C699.309 93.2045 698.822 93.5492 698.216 93.7955C697.614 94.0379 696.909 94.1591 696.102 94.1591ZM701.655 94V85.2727H704.632V86.9318H704.723C704.905 86.3864 705.215 85.9545 705.655 85.6364C706.094 85.3182 706.617 85.1591 707.223 85.1591C707.837 85.1591 708.365 85.322 708.808 85.6477C709.251 85.9697 709.518 86.3977 709.609 86.9318H709.7C709.848 86.3977 710.162 85.9697 710.643 85.6477C711.125 85.322 711.689 85.1591 712.337 85.1591C713.174 85.1591 713.852 85.428 714.371 85.9659C714.893 86.5038 715.155 87.2197 715.155 88.1136V94H712.018V88.9091C712.018 88.5265 711.922 88.2273 711.729 88.0114C711.536 87.7917 711.276 87.6818 710.95 87.6818C710.628 87.6818 710.373 87.7917 710.183 88.0114C709.998 88.2273 709.905 88.5265 709.905 88.9091V94H706.905V88.9091C706.905 88.5265 706.808 88.2273 706.615 88.0114C706.422 87.7917 706.162 87.6818 705.837 87.6818C705.621 87.6818 705.435 87.7311 705.28 87.8295C705.125 87.928 705.003 88.0701 704.916 88.2557C704.833 88.4375 704.791 88.6553 704.791 88.9091V94H701.655Z" fill="#181818" fill-opacity="0.75"/>
<g filter="url(#filter16_d_128_685)">
<rect x="530" y="140" width="112" height="104" rx="8" fill="white" fill-opacity="0.75" shape-rendering="crispEdges"/>
</g>
<path d="M568.795 198V189.273H571.932V198H568.795ZM570.364 188.364C569.939 188.364 569.576 188.223 569.273 187.943C568.97 187.663 568.818 187.326 568.818 186.932C568.818 186.538 568.97 186.201 569.273 185.92C569.576 185.64 569.939 185.5 570.364 185.5C570.792 185.5 571.155 185.64 571.455 185.92C571.758 186.201 571.909 186.538 571.909 186.932C571.909 187.326 571.758 187.663 571.455 187.943C571.155 188.223 570.792 188.364 570.364 188.364ZM578.734 189.273V191.545H572.984V189.273H578.734ZM574.098 187.182H577.234V195.193C577.234 195.314 577.255 195.417 577.297 195.5C577.339 195.58 577.403 195.64 577.49 195.682C577.577 195.72 577.689 195.739 577.825 195.739C577.92 195.739 578.03 195.727 578.155 195.705C578.284 195.682 578.378 195.663 578.439 195.648L578.893 197.852C578.753 197.894 578.553 197.945 578.291 198.006C578.034 198.066 577.727 198.106 577.371 198.125C576.651 198.163 576.047 198.089 575.558 197.903C575.07 197.714 574.702 197.417 574.456 197.011C574.21 196.606 574.09 196.098 574.098 195.489V187.182ZM584.102 198.159C583.17 198.159 582.367 197.981 581.693 197.625C581.023 197.265 580.506 196.75 580.142 196.08C579.782 195.405 579.602 194.598 579.602 193.659C579.602 192.758 579.784 191.97 580.148 191.295C580.511 190.621 581.025 190.097 581.688 189.722C582.35 189.347 583.133 189.159 584.034 189.159C584.693 189.159 585.29 189.261 585.824 189.466C586.358 189.67 586.814 189.968 587.193 190.358C587.572 190.744 587.864 191.214 588.068 191.767C588.273 192.32 588.375 192.943 588.375 193.636V194.364H580.58V192.636H585.489C585.485 192.386 585.42 192.167 585.295 191.977C585.174 191.784 585.009 191.634 584.801 191.528C584.597 191.419 584.364 191.364 584.102 191.364C583.848 191.364 583.616 191.419 583.403 191.528C583.191 191.634 583.021 191.782 582.892 191.972C582.767 192.161 582.701 192.383 582.693 192.636V194.5C582.693 194.78 582.752 195.03 582.869 195.25C582.987 195.47 583.155 195.642 583.375 195.767C583.595 195.892 583.86 195.955 584.17 195.955C584.386 195.955 584.583 195.924 584.761 195.864C584.943 195.803 585.098 195.716 585.227 195.602C585.356 195.485 585.451 195.345 585.511 195.182H588.375C588.277 195.788 588.044 196.314 587.676 196.761C587.309 197.205 586.822 197.549 586.216 197.795C585.614 198.038 584.909 198.159 584.102 198.159ZM589.655 198V189.273H592.632V190.932H592.723C592.905 190.386 593.215 189.955 593.655 189.636C594.094 189.318 594.617 189.159 595.223 189.159C595.837 189.159 596.365 189.322 596.808 189.648C597.251 189.97 597.518 190.398 597.609 190.932H597.7C597.848 190.398 598.162 189.97 598.643 189.648C599.125 189.322 599.689 189.159 600.337 189.159C601.174 189.159 601.852 189.428 602.371 189.966C602.893 190.504 603.155 191.22 603.155 192.114V198H600.018V192.909C600.018 192.527 599.922 192.227 599.729 192.011C599.536 191.792 599.276 191.682 598.95 191.682C598.628 191.682 598.373 191.792 598.183 192.011C597.998 192.227 597.905 192.527 597.905 192.909V198H594.905V192.909C594.905 192.527 594.808 192.227 594.615 192.011C594.422 191.792 594.162 191.682 593.837 191.682C593.621 191.682 593.435 191.731 593.28 191.83C593.125 191.928 593.003 192.07 592.916 192.256C592.833 192.437 592.791 192.655 592.791 192.909V198H589.655Z" fill="#181818" fill-opacity="0.75"/>
<g filter="url(#filter17_d_128_685)">
<rect x="418" y="140" width="112" height="104" rx="8" fill="white" fill-opacity="0.75" shape-rendering="crispEdges"/>
</g>
<path d="M456.795 198V189.273H459.932V198H456.795ZM458.364 188.364C457.939 188.364 457.576 188.223 457.273 187.943C456.97 187.663 456.818 187.326 456.818 186.932C456.818 186.538 456.97 186.201 457.273 185.92C457.576 185.64 457.939 185.5 458.364 185.5C458.792 185.5 459.155 185.64 459.455 185.92C459.758 186.201 459.909 186.538 459.909 186.932C459.909 187.326 459.758 187.663 459.455 187.943C459.155 188.223 458.792 188.364 458.364 188.364ZM466.734 189.273V191.545H460.984V189.273H466.734ZM462.098 187.182H465.234V195.193C465.234 195.314 465.255 195.417 465.297 195.5C465.339 195.58 465.403 195.64 465.49 195.682C465.577 195.72 465.689 195.739 465.825 195.739C465.92 195.739 466.03 195.727 466.155 195.705C466.284 195.682 466.378 195.663 466.439 195.648L466.893 197.852C466.753 197.894 466.553 197.945 466.291 198.006C466.034 198.066 465.727 198.106 465.371 198.125C464.651 198.163 464.047 198.089 463.558 197.903C463.07 197.714 462.702 197.417 462.456 197.011C462.21 196.606 462.09 196.098 462.098 195.489V187.182ZM472.102 198.159C471.17 198.159 470.367 197.981 469.693 197.625C469.023 197.265 468.506 196.75 468.142 196.08C467.782 195.405 467.602 194.598 467.602 193.659C467.602 192.758 467.784 191.97 468.148 191.295C468.511 190.621 469.025 190.097 469.688 189.722C470.35 189.347 471.133 189.159 472.034 189.159C472.693 189.159 473.29 189.261 473.824 189.466C474.358 189.67 474.814 189.968 475.193 190.358C475.572 190.744 475.864 191.214 476.068 191.767C476.273 192.32 476.375 192.943 476.375 193.636V194.364H468.58V192.636H473.489C473.485 192.386 473.42 192.167 473.295 191.977C473.174 191.784 473.009 191.634 472.801 191.528C472.597 191.419 472.364 191.364 472.102 191.364C471.848 191.364 471.616 191.419 471.403 191.528C471.191 191.634 471.021 191.782 470.892 191.972C470.767 192.161 470.701 192.383 470.693 192.636V194.5C470.693 194.78 470.752 195.03 470.869 195.25C470.987 195.47 471.155 195.642 471.375 195.767C471.595 195.892 471.86 195.955 472.17 195.955C472.386 195.955 472.583 195.924 472.761 195.864C472.943 195.803 473.098 195.716 473.227 195.602C473.356 195.485 473.451 195.345 473.511 195.182H476.375C476.277 195.788 476.044 196.314 475.676 196.761C475.309 197.205 474.822 197.549 474.216 197.795C473.614 198.038 472.909 198.159 472.102 198.159ZM477.655 198V189.273H480.632V190.932H480.723C480.905 190.386 481.215 189.955 481.655 189.636C482.094 189.318 482.617 189.159 483.223 189.159C483.837 189.159 484.365 189.322 484.808 189.648C485.251 189.97 485.518 190.398 485.609 190.932H485.7C485.848 190.398 486.162 189.97 486.643 189.648C487.125 189.322 487.689 189.159 488.337 189.159C489.174 189.159 489.852 189.428 490.371 189.966C490.893 190.504 491.155 191.22 491.155 192.114V198H488.018V192.909C488.018 192.527 487.922 192.227 487.729 192.011C487.536 191.792 487.276 191.682 486.95 191.682C486.628 191.682 486.373 191.792 486.183 192.011C485.998 192.227 485.905 192.527 485.905 192.909V198H482.905V192.909C482.905 192.527 482.808 192.227 482.615 192.011C482.422 191.792 482.162 191.682 481.837 191.682C481.621 191.682 481.435 191.731 481.28 191.83C481.125 191.928 481.003 192.07 480.916 192.256C480.833 192.437 480.791 192.655 480.791 192.909V198H477.655Z" fill="#181818" fill-opacity="0.75"/>
<g filter="url(#filter18_d_128_685)">
<rect x="642" y="140" width="112" height="104" rx="8" fill="white" fill-opacity="0.75" shape-rendering="crispEdges"/>
</g>
<path d="M680.795 198V189.273H683.932V198H680.795ZM682.364 188.364C681.939 188.364 681.576 188.223 681.273 187.943C680.97 187.663 680.818 187.326 680.818 186.932C680.818 186.538 680.97 186.201 681.273 185.92C681.576 185.64 681.939 185.5 682.364 185.5C682.792 185.5 683.155 185.64 683.455 185.92C683.758 186.201 683.909 186.538 683.909 186.932C683.909 187.326 683.758 187.663 683.455 187.943C683.155 188.223 682.792 188.364 682.364 188.364ZM690.734 189.273V191.545H684.984V189.273H690.734ZM686.098 187.182H689.234V195.193C689.234 195.314 689.255 195.417 689.297 195.5C689.339 195.58 689.403 195.64 689.49 195.682C689.577 195.72 689.689 195.739 689.825 195.739C689.92 195.739 690.03 195.727 690.155 195.705C690.284 195.682 690.378 195.663 690.439 195.648L690.893 197.852C690.753 197.894 690.553 197.945 690.291 198.006C690.034 198.066 689.727 198.106 689.371 198.125C688.651 198.163 688.047 198.089 687.558 197.903C687.07 197.714 686.702 197.417 686.456 197.011C686.21 196.606 686.09 196.098 686.098 195.489V187.182ZM696.102 198.159C695.17 198.159 694.367 197.981 693.693 197.625C693.023 197.265 692.506 196.75 692.142 196.08C691.782 195.405 691.602 194.598 691.602 193.659C691.602 192.758 691.784 191.97 692.148 191.295C692.511 190.621 693.025 190.097 693.688 189.722C694.35 189.347 695.133 189.159 696.034 189.159C696.693 189.159 697.29 189.261 697.824 189.466C698.358 189.67 698.814 189.968 699.193 190.358C699.572 190.744 699.864 191.214 700.068 191.767C700.273 192.32 700.375 192.943 700.375 193.636V194.364H692.58V192.636H697.489C697.485 192.386 697.42 192.167 697.295 191.977C697.174 191.784 697.009 191.634 696.801 191.528C696.597 191.419 696.364 191.364 696.102 191.364C695.848 191.364 695.616 191.419 695.403 191.528C695.191 191.634 695.021 191.782 694.892 191.972C694.767 192.161 694.701 192.383 694.693 192.636V194.5C694.693 194.78 694.752 195.03 694.869 195.25C694.987 195.47 695.155 195.642 695.375 195.767C695.595 195.892 695.86 195.955 696.17 195.955C696.386 195.955 696.583 195.924 696.761 195.864C696.943 195.803 697.098 195.716 697.227 195.602C697.356 195.485 697.451 195.345 697.511 195.182H700.375C700.277 195.788 700.044 196.314 699.676 196.761C699.309 197.205 698.822 197.549 698.216 197.795C697.614 198.038 696.909 198.159 696.102 198.159ZM701.655 198V189.273H704.632V190.932H704.723C704.905 190.386 705.215 189.955 705.655 189.636C706.094 189.318 706.617 189.159 707.223 189.159C707.837 189.159 708.365 189.322 708.808 189.648C709.251 189.97 709.518 190.398 709.609 190.932H709.7C709.848 190.398 710.162 189.97 710.643 189.648C711.125 189.322 711.689 189.159 712.337 189.159C713.174 189.159 713.852 189.428 714.371 189.966C714.893 190.504 715.155 191.22 715.155 192.114V198H712.018V192.909C712.018 192.527 711.922 192.227 711.729 192.011C711.536 191.792 711.276 191.682 710.95 191.682C710.628 191.682 710.373 191.792 710.183 192.011C709.998 192.227 709.905 192.527 709.905 192.909V198H706.905V192.909C706.905 192.527 706.808 192.227 706.615 192.011C706.422 191.792 706.162 191.682 705.837 191.682C705.621 191.682 705.435 191.731 705.28 191.83C705.125 191.928 705.003 192.07 704.916 192.256C704.833 192.437 704.791 192.655 704.791 192.909V198H701.655Z" fill="#181818" fill-opacity="0.75"/>
<g filter="url(#filter19_d_128_685)">
<rect x="642" y="244" width="112" height="104" rx="8" fill="white" fill-opacity="0.75" shape-rendering="crispEdges"/>
</g>
<path d="M680.795 302V293.273H683.932V302H680.795ZM682.364 292.364C681.939 292.364 681.576 292.223 681.273 291.943C680.97 291.663 680.818 291.326 680.818 290.932C680.818 290.538 680.97 290.201 681.273 289.92C681.576 289.64 681.939 289.5 682.364 289.5C682.792 289.5 683.155 289.64 683.455 289.92C683.758 290.201 683.909 290.538 683.909 290.932C683.909 291.326 683.758 291.663 683.455 291.943C683.155 292.223 682.792 292.364 682.364 292.364ZM690.734 293.273V295.545H684.984V293.273H690.734ZM686.098 291.182H689.234V299.193C689.234 299.314 689.255 299.417 689.297 299.5C689.339 299.58 689.403 299.64 689.49 299.682C689.577 299.72 689.689 299.739 689.825 299.739C689.92 299.739 690.03 299.727 690.155 299.705C690.284 299.682 690.378 299.663 690.439 299.648L690.893 301.852C690.753 301.894 690.553 301.945 690.291 302.006C690.034 302.066 689.727 302.106 689.371 302.125C688.651 302.163 688.047 302.089 687.558 301.903C687.07 301.714 686.702 301.417 686.456 301.011C686.21 300.606 686.09 300.098 686.098 299.489V291.182ZM696.102 302.159C695.17 302.159 694.367 301.981 693.693 301.625C693.023 301.265 692.506 300.75 692.142 300.08C691.782 299.405 691.602 298.598 691.602 297.659C691.602 296.758 691.784 295.97 692.148 295.295C692.511 294.621 693.025 294.097 693.688 293.722C694.35 293.347 695.133 293.159 696.034 293.159C696.693 293.159 697.29 293.261 697.824 293.466C698.358 293.67 698.814 293.968 699.193 294.358C699.572 294.744 699.864 295.214 700.068 295.767C700.273 296.32 700.375 296.943 700.375 297.636V298.364H692.58V296.636H697.489C697.485 296.386 697.42 296.167 697.295 295.977C697.174 295.784 697.009 295.634 696.801 295.528C696.597 295.419 696.364 295.364 696.102 295.364C695.848 295.364 695.616 295.419 695.403 295.528C695.191 295.634 695.021 295.782 694.892 295.972C694.767 296.161 694.701 296.383 694.693 296.636V298.5C694.693 298.78 694.752 299.03 694.869 299.25C694.987 299.47 695.155 299.642 695.375 299.767C695.595 299.892 695.86 299.955 696.17 299.955C696.386 299.955 696.583 299.924 696.761 299.864C696.943 299.803 697.098 299.716 697.227 299.602C697.356 299.485 697.451 299.345 697.511 299.182H700.375C700.277 299.788 700.044 300.314 699.676 300.761C699.309 301.205 698.822 301.549 698.216 301.795C697.614 302.038 696.909 302.159 696.102 302.159ZM701.655 302V293.273H704.632V294.932H704.723C704.905 294.386 705.215 293.955 705.655 293.636C706.094 293.318 706.617 293.159 707.223 293.159C707.837 293.159 708.365 293.322 708.808 293.648C709.251 293.97 709.518 294.398 709.609 294.932H709.7C709.848 294.398 710.162 293.97 710.643 293.648C711.125 293.322 711.689 293.159 712.337 293.159C713.174 293.159 713.852 293.428 714.371 293.966C714.893 294.504 715.155 295.22 715.155 296.114V302H712.018V296.909C712.018 296.527 711.922 296.227 711.729 296.011C711.536 295.792 711.276 295.682 710.95 295.682C710.628 295.682 710.373 295.792 710.183 296.011C709.998 296.227 709.905 296.527 709.905 296.909V302H706.905V296.909C706.905 296.527 706.808 296.227 706.615 296.011C706.422 295.792 706.162 295.682 705.837 295.682C705.621 295.682 705.435 295.731 705.28 295.83C705.125 295.928 705.003 296.07 704.916 296.256C704.833 296.437 704.791 296.655 704.791 296.909V302H701.655Z" fill="#181818" fill-opacity="0.75"/>
<path d="M564.773 21.1136H561.886C561.871 20.9356 561.809 20.7822 561.699 20.6534C561.589 20.5246 561.447 20.4261 561.273 20.358C561.102 20.286 560.913 20.25 560.705 20.25C560.436 20.25 560.205 20.2992 560.011 20.3977C559.818 20.4962 559.723 20.6364 559.727 20.8182C559.723 20.947 559.778 21.0663 559.892 21.1761C560.009 21.286 560.235 21.3712 560.568 21.4318L562.341 21.75C563.235 21.9129 563.9 22.1875 564.335 22.5739C564.775 22.9564 564.996 23.4697 565 24.1136C564.996 24.7348 564.811 25.2746 564.443 25.733C564.08 26.1875 563.581 26.5398 562.949 26.7898C562.32 27.036 561.602 27.1591 560.795 27.1591C559.462 27.1591 558.419 26.8864 557.665 26.3409C556.915 25.7955 556.496 25.0758 556.409 24.1818H559.523C559.564 24.4583 559.701 24.6723 559.932 24.8239C560.167 24.9716 560.462 25.0455 560.818 25.0455C561.106 25.0455 561.343 24.9962 561.528 24.8977C561.718 24.7992 561.814 24.6591 561.818 24.4773C561.814 24.3106 561.731 24.178 561.568 24.0795C561.409 23.9811 561.159 23.9015 560.818 23.8409L559.273 23.5682C558.383 23.4129 557.716 23.1174 557.273 22.6818C556.83 22.2462 556.61 21.6856 556.614 21C556.61 20.3939 556.769 19.8807 557.091 19.4602C557.417 19.036 557.881 18.714 558.483 18.4943C559.089 18.2708 559.807 18.1591 560.636 18.1591C561.898 18.1591 562.892 18.4205 563.619 18.9432C564.35 19.4659 564.735 20.1894 564.773 21.1136ZM571.406 18.2727V20.5455H565.656V18.2727H571.406ZM566.77 16.1818H569.906V24.1932C569.906 24.3144 569.927 24.4167 569.969 24.5C570.01 24.5795 570.075 24.6402 570.162 24.6818C570.249 24.7197 570.361 24.7386 570.497 24.7386C570.592 24.7386 570.702 24.7273 570.827 24.7045C570.955 24.6818 571.05 24.6629 571.111 24.6477L571.565 26.8523C571.425 26.8939 571.224 26.9451 570.963 27.0057C570.705 27.0663 570.399 27.1061 570.043 27.125C569.323 27.1629 568.719 27.089 568.23 26.9034C567.741 26.714 567.374 26.4167 567.128 26.0114C566.882 25.6061 566.762 25.0985 566.77 24.4886V16.1818ZM572.686 27V18.2727H575.732V19.9318H575.822C575.982 19.3182 576.233 18.8693 576.578 18.5852C576.927 18.3011 577.334 18.1591 577.8 18.1591C577.936 18.1591 578.071 18.1705 578.203 18.1932C578.339 18.2121 578.47 18.2405 578.595 18.2784V20.9545C578.44 20.9015 578.249 20.8617 578.021 20.8352C577.794 20.8087 577.599 20.7955 577.436 20.7955C577.129 20.7955 576.853 20.8655 576.607 21.0057C576.364 21.142 576.173 21.3352 576.033 21.5852C575.893 21.8314 575.822 22.1212 575.822 22.4545V27H572.686ZM583.305 27.1591C582.374 27.1591 581.571 26.9811 580.896 26.625C580.226 26.2652 579.709 25.75 579.345 25.0795C578.985 24.4053 578.805 23.5985 578.805 22.6591C578.805 21.7576 578.987 20.9697 579.351 20.2955C579.714 19.6212 580.228 19.0966 580.891 18.7216C581.554 18.3466 582.336 18.1591 583.237 18.1591C583.896 18.1591 584.493 18.2614 585.027 18.4659C585.561 18.6705 586.018 18.9678 586.396 19.358C586.775 19.7443 587.067 20.214 587.271 20.767C587.476 21.3201 587.578 21.9432 587.578 22.6364V23.3636H579.783V21.6364H584.692C584.688 21.3864 584.624 21.1667 584.499 20.9773C584.377 20.7841 584.213 20.6345 584.004 20.5284C583.8 20.4186 583.567 20.3636 583.305 20.3636C583.052 20.3636 582.819 20.4186 582.607 20.5284C582.394 20.6345 582.224 20.7822 582.095 20.9716C581.97 21.161 581.904 21.3826 581.896 21.6364V23.5C581.896 23.7803 581.955 24.0303 582.072 24.25C582.19 24.4697 582.358 24.642 582.578 24.767C582.798 24.892 583.063 24.9545 583.374 24.9545C583.589 24.9545 583.786 24.9242 583.964 24.8636C584.146 24.803 584.302 24.7159 584.43 24.6023C584.559 24.4848 584.654 24.3447 584.714 24.1818H587.578C587.48 24.7879 587.247 25.3144 586.879 25.7614C586.512 26.2045 586.025 26.5492 585.419 26.7955C584.817 27.0379 584.112 27.1591 583.305 27.1591ZM594.062 18.2727V20.5455H588.312V18.2727H594.062ZM589.426 16.1818H592.562V24.1932C592.562 24.3144 592.583 24.4167 592.625 24.5C592.667 24.5795 592.731 24.6402 592.818 24.6818C592.905 24.7197 593.017 24.7386 593.153 24.7386C593.248 24.7386 593.358 24.7273 593.483 24.7045C593.612 24.6818 593.706 24.6629 593.767 24.6477L594.222 26.8523C594.081 26.8939 593.881 26.9451 593.619 27.0057C593.362 27.0663 593.055 27.1061 592.699 27.125C591.979 27.1629 591.375 27.089 590.886 26.9034C590.398 26.714 590.03 26.4167 589.784 26.0114C589.538 25.6061 589.419 25.0985 589.426 24.4886V16.1818ZM599.453 27.1591C598.506 27.1591 597.696 26.9716 597.021 26.5966C596.347 26.2178 595.83 25.6913 595.47 25.017C595.11 24.339 594.93 23.553 594.93 22.6591C594.93 21.7652 595.11 20.9811 595.47 20.3068C595.83 19.6288 596.347 19.1023 597.021 18.7273C597.696 18.3485 598.506 18.1591 599.453 18.1591C600.309 18.1591 601.05 18.3144 601.675 18.625C602.304 18.9318 602.79 19.3674 603.135 19.9318C603.48 20.4924 603.654 21.1515 603.658 21.9091H600.749C600.707 21.4508 600.574 21.1023 600.351 20.8636C600.131 20.6212 599.847 20.5 599.499 20.5C599.226 20.5 598.987 20.5795 598.783 20.7386C598.578 20.8939 598.419 21.1307 598.305 21.4489C598.192 21.7633 598.135 22.1591 598.135 22.6364C598.135 23.1136 598.192 23.5114 598.305 23.8295C598.419 24.1439 598.578 24.3807 598.783 24.5398C598.987 24.6951 599.226 24.7727 599.499 24.7727C599.73 24.7727 599.934 24.7197 600.112 24.6136C600.29 24.5038 600.434 24.3447 600.544 24.1364C600.658 23.9242 600.726 23.6667 600.749 23.3636H603.658C603.646 24.1326 603.47 24.803 603.129 25.375C602.788 25.9432 602.305 26.3826 601.68 26.6932C601.059 27.0038 600.317 27.1591 599.453 27.1591ZM608.088 22.0909V27H604.952V15.3636H607.974V19.9318H608.065C608.262 19.375 608.59 18.9413 609.048 18.6307C609.507 18.3163 610.058 18.1591 610.702 18.1591C611.319 18.1591 611.855 18.2992 612.31 18.5795C612.768 18.8598 613.122 19.2462 613.372 19.7386C613.626 20.2311 613.751 20.7955 613.747 21.4318V27H610.611V22.0909C610.615 21.6591 610.507 21.3201 610.287 21.0739C610.071 20.8277 609.762 20.7045 609.361 20.7045C609.107 20.7045 608.884 20.7614 608.69 20.875C608.501 20.9848 608.353 21.1439 608.247 21.3523C608.145 21.5568 608.092 21.803 608.088 22.0909Z" fill="#181818" fill-opacity="0.75"/>
<defs>
<filter id="filter0_d_128_685" x="0" y="0" width="384" height="376" filterUnits="userSpaceOnUse" color-interpolation-filters="sRGB">
<feFlood flood-opacity="0" result="BackgroundImageFix"/>
<feColorMatrix in="SourceAlpha" type="matrix" values="0 0 0 0 0 0 0 0 0 0 0 0 0 0 0 0 0 0 127 0" result="hardAlpha"/>
<feOffset dy="4"/>
<feGaussianBlur stdDeviation="4"/>
<feComposite in2="hardAlpha" operator="out"/>
<feColorMatrix type="matrix" values="0 0 0 0 0.129412 0 0 0 0 0.447059 0 0 0 0 1 0 0 0 0.25 0"/>
<feBlend mode="normal" in2="BackgroundImageFix" result="effect1_dropShadow_128_685"/>
<feBlend mode="normal" in="SourceGraphic" in2="effect1_dropShadow_128_685" result="shape"/>
</filter>
<filter id="filter1_d_128_685" x="148" y="240" width="88" height="120" filterUnits="userSpaceOnUse" color-interpolation-filters="sRGB">
<feFlood flood-opacity="0" result="BackgroundImageFix"/>
<feColorMatrix in="SourceAlpha" type="matrix" values="0 0 0 0 0 0 0 0 0 0 0 0 0 0 0 0 0 0 127 0" result="hardAlpha"/>
<feOffset dy="4"/>
<feGaussianBlur stdDeviation="4"/>
<feComposite in2="hardAlpha" operator="out"/>
<feColorMatrix type="matrix" values="0 0 0 0 1 0 0 0 0 1 0 0 0 0 1 0 0 0 0.25 0"/>
<feBlend mode="normal" in2="BackgroundImageFix" result="effect1_dropShadow_128_685"/>
<feBlend mode="normal" in="SourceGraphic" in2="effect1_dropShadow_128_685" result="shape"/>
</filter>
<filter id="filter2_d_128_685" x="148" y="32" width="88" height="120" filterUnits="userSpaceOnUse" color-interpolation-filters="sRGB">
<feFlood flood-opacity="0" result="BackgroundImageFix"/>
<feColorMatrix in="SourceAlpha" type="matrix" values="0 0 0 0 0 0 0 0 0 0 0 0 0 0 0 0 0 0 127 0" result="hardAlpha"/>
<feOffset dy="4"/>
<feGaussianBlur stdDeviation="4"/>
<feComposite in2="hardAlpha" operator="out"/>
<feColorMatrix type="matrix" values="0 0 0 0 1 0 0 0 0 1 0 0 0 0 1 0 0 0 0.25 0"/>
<feBlend mode="normal" in2="BackgroundImageFix" result="effect1_dropShadow_128_685"/>
<feBlend mode="normal" in="SourceGraphic" in2="effect1_dropShadow_128_685" result="shape"/>
</filter>
<filter id="filter3_d_128_685" x="46" y="240" width="88" height="120" filterUnits="userSpaceOnUse" color-interpolation-filters="sRGB">
<feFlood flood-opacity="0" result="BackgroundImageFix"/>
<feColorMatrix in="SourceAlpha" type="matrix" values="0 0 0 0 0 0 0 0 0 0 0 0 0 0 0 0 0 0 127 0" result="hardAlpha"/>
<feOffset dy="4"/>
<feGaussianBlur stdDeviation="4"/>
<feComposite in2="hardAlpha" operator="out"/>
<feColorMatrix type="matrix" values="0 0 0 0 1 0 0 0 0 1 0 0 0 0 1 0 0 0 0.25 0"/>
<feBlend mode="normal" in2="BackgroundImageFix" result="effect1_dropShadow_128_685"/>
<feBlend mode="normal" in="SourceGraphic" in2="effect1_dropShadow_128_685" result="shape"/>
</filter>
<filter id="filter4_d_128_685" x="46" y="32" width="88" height="120" filterUnits="userSpaceOnUse" color-interpolation-filters="sRGB">
<feFlood flood-opacity="0" result="BackgroundImageFix"/>
<feColorMatrix in="SourceAlpha" type="matrix" values="0 0 0 0 0 0 0 0 0 0 0 0 0 0 0 0 0 0 127 0" result="hardAlpha"/>
<feOffset dy="4"/>
<feGaussianBlur stdDeviation="4"/>
<feComposite in2="hardAlpha" operator="out"/>
<feColorMatrix type="matrix" values="0 0 0 0 1 0 0 0 0 1 0 0 0 0 1 0 0 0 0.25 0"/>
<feBlend mode="normal" in2="BackgroundImageFix" result="effect1_dropShadow_128_685"/>
<feBlend mode="normal" in="SourceGraphic" in2="effect1_dropShadow_128_685" result="shape"/>
</filter>
<filter id="filter5_d_128_685" x="250" y="32" width="88" height="120" filterUnits="userSpaceOnUse" color-interpolation-filters="sRGB">
<feFlood flood-opacity="0" result="BackgroundImageFix"/>
<feColorMatrix in="SourceAlpha" type="matrix" values="0 0 0 0 0 0 0 0 0 0 0 0 0 0 0 0 0 0 127 0" result="hardAlpha"/>
<feOffset dy="4"/>
<feGaussianBlur stdDeviation="4"/>
<feComposite in2="hardAlpha" operator="out"/>
<feColorMatrix type="matrix" values="0 0 0 0 1 0 0 0 0 1 0 0 0 0 1 0 0 0 0.25 0"/>
<feBlend mode="normal" in2="BackgroundImageFix" result="effect1_dropShadow_128_685"/>
<feBlend mode="normal" in="SourceGraphic" in2="effect1_dropShadow_128_685" result="shape"/>
</filter>
<filter id="filter6_d_128_685" x="148" y="136" width="88" height="120" filterUnits="userSpaceOnUse" color-interpolation-filters="sRGB">
<feFlood flood-opacity="0" result="BackgroundImageFix"/>
<feColorMatrix in="SourceAlpha" type="matrix" values="0 0 0 0 0 0 0 0 0 0 0 0 0 0 0 0 0 0 127 0" result="hardAlpha"/>
<feOffset dy="4"/>
<feGaussianBlur stdDeviation="4"/>
<feComposite in2="hardAlpha" operator="out"/>
<feColorMatrix type="matrix" values="0 0 0 0 1 0 0 0 0 1 0 0 0 0 1 0 0 0 0.25 0"/>
<feBlend mode="normal" in2="BackgroundImageFix" result="effect1_dropShadow_128_685"/>
<feBlend mode="normal" in="SourceGraphic" in2="effect1_dropShadow_128_685" result="shape"/>
</filter>
<filter id="filter7_d_128_685" x="46" y="136" width="88" height="120" filterUnits="userSpaceOnUse" color-interpolation-filters="sRGB">
<feFlood flood-opacity="0" result="BackgroundImageFix"/>
<feColorMatrix in="SourceAlpha" type="matrix" values="0 0 0 0 0 0 0 0 0 0 0 0 0 0 0 0 0 0 127 0" result="hardAlpha"/>
<feOffset dy="4"/>
<feGaussianBlur stdDeviation="4"/>
<feComposite in2="hardAlpha" operator="out"/>
<feColorMatrix type="matrix" values="0 0 0 0 1 0 0 0 0 1 0 0 0 0 1 0 0 0 0.25 0"/>
<feBlend mode="normal" in2="BackgroundImageFix" result="effect1_dropShadow_128_685"/>
<feBlend mode="normal" in="SourceGraphic" in2="effect1_dropShadow_128_685" result="shape"/>
</filter>
<filter id="filter8_d_128_685" x="250" y="136" width="88" height="120" filterUnits="userSpaceOnUse" color-interpolation-filters="sRGB">
<feFlood flood-opacity="0" result="BackgroundImageFix"/>
<feColorMatrix in="SourceAlpha" type="matrix" values="0 0 0 0 0 0 0 0 0 0 0 0 0 0 0 0 0 0 127 0" result="hardAlpha"/>
<feOffset dy="4"/>
<feGaussianBlur stdDeviation="4"/>
<feComposite in2="hardAlpha" operator="out"/>
<feColorMatrix type="matrix" values="0 0 0 0 1 0 0 0 0 1 0 0 0 0 1 0 0 0 0.25 0"/>
<feBlend mode="normal" in2="BackgroundImageFix" result="effect1_dropShadow_128_685"/>
<feBlend mode="normal" in="SourceGraphic" in2="effect1_dropShadow_128_685" result="shape"/>
</filter>
<filter id="filter9_d_128_685" x="250" y="240" width="88" height="120" filterUnits="userSpaceOnUse" color-interpolation-filters="sRGB">
<feFlood flood-opacity="0" result="BackgroundImageFix"/>
<feColorMatrix in="SourceAlpha" type="matrix" values="0 0 0 0 0 0 0 0 0 0 0 0 0 0 0 0 0 0 127 0" result="hardAlpha"/>
<feOffset dy="4"/>
<feGaussianBlur stdDeviation="4"/>
<feComposite in2="hardAlpha" operator="out"/>
<feColorMatrix type="matrix" values="0 0 0 0 1 0 0 0 0 1 0 0 0 0 1 0 0 0 0.25 0"/>
<feBlend mode="normal" in2="BackgroundImageFix" result="effect1_dropShadow_128_685"/>
<feBlend mode="normal" in="SourceGraphic" in2="effect1_dropShadow_128_685" result="shape"/>
</filter>
<filter id="filter10_d_128_685" x="394" y="0" width="384" height="376" filterUnits="userSpaceOnUse" color-interpolation-filters="sRGB">
<feFlood flood-opacity="0" result="BackgroundImageFix"/>
<feColorMatrix in="SourceAlpha" type="matrix" values="0 0 0 0 0 0 0 0 0 0 0 0 0 0 0 0 0 0 127 0" result="hardAlpha"/>
<feOffset dy="4"/>
<feGaussianBlur stdDeviation="4"/>
<feComposite in2="hardAlpha" operator="out"/>
<feColorMatrix type="matrix" values="0 0 0 0 0.129412 0 0 0 0 0.447059 0 0 0 0 1 0 0 0 0.25 0"/>
<feBlend mode="normal" in2="BackgroundImageFix" result="effect1_dropShadow_128_685"/>
<feBlend mode="normal" in="SourceGraphic" in2="effect1_dropShadow_128_685" result="shape"/>
</filter>
<filter id="filter11_d_128_685" x="522" y="240" width="128" height="120" filterUnits="userSpaceOnUse" color-interpolation-filters="sRGB">
<feFlood flood-opacity="0" result="BackgroundImageFix"/>
<feColorMatrix in="SourceAlpha" type="matrix" values="0 0 0 0 0 0 0 0 0 0 0 0 0 0 0 0 0 0 127 0" result="hardAlpha"/>
<feOffset dy="4"/>
<feGaussianBlur stdDeviation="4"/>
<feComposite in2="hardAlpha" operator="out"/>
<feColorMatrix type="matrix" values="0 0 0 0 1 0 0 0 0 1 0 0 0 0 1 0 0 0 0.25 0"/>
<feBlend mode="normal" in2="BackgroundImageFix" result="effect1_dropShadow_128_685"/>
<feBlend mode="normal" in="SourceGraphic" in2="effect1_dropShadow_128_685" result="shape"/>
</filter>
<filter id="filter12_d_128_685" x="522" y="32" width="128" height="120" filterUnits="userSpaceOnUse" color-interpolation-filters="sRGB">
<feFlood flood-opacity="0" result="BackgroundImageFix"/>
<feColorMatrix in="SourceAlpha" type="matrix" values="0 0 0 0 0 0 0 0 0 0 0 0 0 0 0 0 0 0 127 0" result="hardAlpha"/>
<feOffset dy="4"/>
<feGaussianBlur stdDeviation="4"/>
<feComposite in2="hardAlpha" operator="out"/>
<feColorMatrix type="matrix" values="0 0 0 0 1 0 0 0 0 1 0 0 0 0 1 0 0 0 0.25 0"/>
<feBlend mode="normal" in2="BackgroundImageFix" result="effect1_dropShadow_128_685"/>
<feBlend mode="normal" in="SourceGraphic" in2="effect1_dropShadow_128_685" result="shape"/>
</filter>
<filter id="filter13_d_128_685" x="410" y="240" width="128" height="120" filterUnits="userSpaceOnUse" color-interpolation-filters="sRGB">
<feFlood flood-opacity="0" result="BackgroundImageFix"/>
<feColorMatrix in="SourceAlpha" type="matrix" values="0 0 0 0 0 0 0 0 0 0 0 0 0 0 0 0 0 0 127 0" result="hardAlpha"/>
<feOffset dy="4"/>
<feGaussianBlur stdDeviation="4"/>
<feComposite in2="hardAlpha" operator="out"/>
<feColorMatrix type="matrix" values="0 0 0 0 1 0 0 0 0 1 0 0 0 0 1 0 0 0 0.25 0"/>
<feBlend mode="normal" in2="BackgroundImageFix" result="effect1_dropShadow_128_685"/>
<feBlend mode="normal" in="SourceGraphic" in2="effect1_dropShadow_128_685" result="shape"/>
</filter>
<filter id="filter14_d_128_685" x="410" y="32" width="128" height="120" filterUnits="userSpaceOnUse" color-interpolation-filters="sRGB">
<feFlood flood-opacity="0" result="BackgroundImageFix"/>
<feColorMatrix in="SourceAlpha" type="matrix" values="0 0 0 0 0 0 0 0 0 0 0 0 0 0 0 0 0 0 127 0" result="hardAlpha"/>
<feOffset dy="4"/>
<feGaussianBlur stdDeviation="4"/>
<feComposite in2="hardAlpha" operator="out"/>
<feColorMatrix type="matrix" values="0 0 0 0 1 0 0 0 0 1 0 0 0 0 1 0 0 0 0.25 0"/>
<feBlend mode="normal" in2="BackgroundImageFix" result="effect1_dropShadow_128_685"/>
<feBlend mode="normal" in="SourceGraphic" in2="effect1_dropShadow_128_685" result="shape"/>
</filter>
<filter id="filter15_d_128_685" x="634" y="32" width="128" height="120" filterUnits="userSpaceOnUse" color-interpolation-filters="sRGB">
<feFlood flood-opacity="0" result="BackgroundImageFix"/>
<feColorMatrix in="SourceAlpha" type="matrix" values="0 0 0 0 0 0 0 0 0 0 0 0 0 0 0 0 0 0 127 0" result="hardAlpha"/>
<feOffset dy="4"/>
<feGaussianBlur stdDeviation="4"/>
<feComposite in2="hardAlpha" operator="out"/>
<feColorMatrix type="matrix" values="0 0 0 0 1 0 0 0 0 1 0 0 0 0 1 0 0 0 0.25 0"/>
<feBlend mode="normal" in2="BackgroundImageFix" result="effect1_dropShadow_128_685"/>
<feBlend mode="normal" in="SourceGraphic" in2="effect1_dropShadow_128_685" result="shape"/>
</filter>
<filter id="filter16_d_128_685" x="522" y="136" width="128" height="120" filterUnits="userSpaceOnUse" color-interpolation-filters="sRGB">
<feFlood flood-opacity="0" result="BackgroundImageFix"/>
<feColorMatrix in="SourceAlpha" type="matrix" values="0 0 0 0 0 0 0 0 0 0 0 0 0 0 0 0 0 0 127 0" result="hardAlpha"/>
<feOffset dy="4"/>
<feGaussianBlur stdDeviation="4"/>
<feComposite in2="hardAlpha" operator="out"/>
<feColorMatrix type="matrix" values="0 0 0 0 1 0 0 0 0 1 0 0 0 0 1 0 0 0 0.25 0"/>
<feBlend mode="normal" in2="BackgroundImageFix" result="effect1_dropShadow_128_685"/>
<feBlend mode="normal" in="SourceGraphic" in2="effect1_dropShadow_128_685" result="shape"/>
</filter>
<filter id="filter17_d_128_685" x="410" y="136" width="128" height="120" filterUnits="userSpaceOnUse" color-interpolation-filters="sRGB">
<feFlood flood-opacity="0" result="BackgroundImageFix"/>
<feColorMatrix in="SourceAlpha" type="matrix" values="0 0 0 0 0 0 0 0 0 0 0 0 0 0 0 0 0 0 127 0" result="hardAlpha"/>
<feOffset dy="4"/>
<feGaussianBlur stdDeviation="4"/>
<feComposite in2="hardAlpha" operator="out"/>
<feColorMatrix type="matrix" values="0 0 0 0 1 0 0 0 0 1 0 0 0 0 1 0 0 0 0.25 0"/>
<feBlend mode="normal" in2="BackgroundImageFix" result="effect1_dropShadow_128_685"/>
<feBlend mode="normal" in="SourceGraphic" in2="effect1_dropShadow_128_685" result="shape"/>
</filter>
<filter id="filter18_d_128_685" x="634" y="136" width="128" height="120" filterUnits="userSpaceOnUse" color-interpolation-filters="sRGB">
<feFlood flood-opacity="0" result="BackgroundImageFix"/>
<feColorMatrix in="SourceAlpha" type="matrix" values="0 0 0 0 0 0 0 0 0 0 0 0 0 0 0 0 0 0 127 0" result="hardAlpha"/>
<feOffset dy="4"/>
<feGaussianBlur stdDeviation="4"/>
<feComposite in2="hardAlpha" operator="out"/>
<feColorMatrix type="matrix" values="0 0 0 0 1 0 0 0 0 1 0 0 0 0 1 0 0 0 0.25 0"/>
<feBlend mode="normal" in2="BackgroundImageFix" result="effect1_dropShadow_128_685"/>
<feBlend mode="normal" in="SourceGraphic" in2="effect1_dropShadow_128_685" result="shape"/>
</filter>
<filter id="filter19_d_128_685" x="634" y="240" width="128" height="120" filterUnits="userSpaceOnUse" color-interpolation-filters="sRGB">
<feFlood flood-opacity="0" result="BackgroundImageFix"/>
<feColorMatrix in="SourceAlpha" type="matrix" values="0 0 0 0 0 0 0 0 0 0 0 0 0 0 0 0 0 0 127 0" result="hardAlpha"/>
<feOffset dy="4"/>
<feGaussianBlur stdDeviation="4"/>
<feComposite in2="hardAlpha" operator="out"/>
<feColorMatrix type="matrix" values="0 0 0 0 1 0 0 0 0 1 0 0 0 0 1 0 0 0 0.25 0"/>
<feBlend mode="normal" in2="BackgroundImageFix" result="effect1_dropShadow_128_685"/>
<feBlend mode="normal" in="SourceGraphic" in2="effect1_dropShadow_128_685" result="shape"/>
</filter>
</defs>
</svg>
