<svg width="384" height="360" viewBox="0 0 384 360" fill="none" xmlns="http://www.w3.org/2000/svg">
<g filter="url(#filter0_d_121_159)">
<rect x="8" y="4" width="368" height="344" rx="8" fill="#2172FF" fill-opacity="0.8" shape-rendering="crispEdges"/>
</g>
<g filter="url(#filter1_d_121_159)">
<rect x="144" y="236" width="96" height="96" rx="8" fill="white" fill-opacity="0.75" shape-rendering="crispEdges"/>
</g>
<path d="M174.795 290V281.273H177.932V290H174.795ZM176.364 280.364C175.939 280.364 175.576 280.223 175.273 279.943C174.97 279.663 174.818 279.326 174.818 278.932C174.818 278.538 174.97 278.201 175.273 277.92C175.576 277.64 175.939 277.5 176.364 277.5C176.792 277.5 177.155 277.64 177.455 277.92C177.758 278.201 177.909 278.538 177.909 278.932C177.909 279.326 177.758 279.663 177.455 279.943C177.155 280.223 176.792 280.364 176.364 280.364ZM184.734 281.273V283.545H178.984V281.273H184.734ZM180.098 279.182H183.234V287.193C183.234 287.314 183.255 287.417 183.297 287.5C183.339 287.58 183.403 287.64 183.49 287.682C183.577 287.72 183.689 287.739 183.825 287.739C183.92 287.739 184.03 287.727 184.155 287.705C184.284 287.682 184.378 287.663 184.439 287.648L184.893 289.852C184.753 289.894 184.553 289.945 184.291 290.006C184.034 290.066 183.727 290.106 183.371 290.125C182.651 290.163 182.047 290.089 181.558 289.903C181.07 289.714 180.702 289.417 180.456 289.011C180.21 288.606 180.09 288.098 180.098 287.489V279.182ZM190.102 290.159C189.17 290.159 188.367 289.981 187.693 289.625C187.023 289.265 186.506 288.75 186.142 288.08C185.782 287.405 185.602 286.598 185.602 285.659C185.602 284.758 185.784 283.97 186.148 283.295C186.511 282.621 187.025 282.097 187.688 281.722C188.35 281.347 189.133 281.159 190.034 281.159C190.693 281.159 191.29 281.261 191.824 281.466C192.358 281.67 192.814 281.968 193.193 282.358C193.572 282.744 193.864 283.214 194.068 283.767C194.273 284.32 194.375 284.943 194.375 285.636V286.364H186.58V284.636H191.489C191.485 284.386 191.42 284.167 191.295 283.977C191.174 283.784 191.009 283.634 190.801 283.528C190.597 283.419 190.364 283.364 190.102 283.364C189.848 283.364 189.616 283.419 189.403 283.528C189.191 283.634 189.021 283.782 188.892 283.972C188.767 284.161 188.701 284.383 188.693 284.636V286.5C188.693 286.78 188.752 287.03 188.869 287.25C188.987 287.47 189.155 287.642 189.375 287.767C189.595 287.892 189.86 287.955 190.17 287.955C190.386 287.955 190.583 287.924 190.761 287.864C190.943 287.803 191.098 287.716 191.227 287.602C191.356 287.485 191.451 287.345 191.511 287.182H194.375C194.277 287.788 194.044 288.314 193.676 288.761C193.309 289.205 192.822 289.549 192.216 289.795C191.614 290.038 190.909 290.159 190.102 290.159ZM195.655 290V281.273H198.632V282.932H198.723C198.905 282.386 199.215 281.955 199.655 281.636C200.094 281.318 200.617 281.159 201.223 281.159C201.837 281.159 202.365 281.322 202.808 281.648C203.251 281.97 203.518 282.398 203.609 282.932H203.7C203.848 282.398 204.162 281.97 204.643 281.648C205.125 281.322 205.689 281.159 206.337 281.159C207.174 281.159 207.852 281.428 208.371 281.966C208.893 282.504 209.155 283.22 209.155 284.114V290H206.018V284.909C206.018 284.527 205.922 284.227 205.729 284.011C205.536 283.792 205.276 283.682 204.95 283.682C204.628 283.682 204.373 283.792 204.183 284.011C203.998 284.227 203.905 284.527 203.905 284.909V290H200.905V284.909C200.905 284.527 200.808 284.227 200.615 284.011C200.422 283.792 200.162 283.682 199.837 283.682C199.621 283.682 199.435 283.731 199.28 283.83C199.125 283.928 199.003 284.07 198.916 284.256C198.833 284.437 198.791 284.655 198.791 284.909V290H195.655Z" fill="#181818" fill-opacity="0.75"/>
<g filter="url(#filter2_d_121_159)">
<rect x="144" y="20" width="96" height="96" rx="8" fill="white" fill-opacity="0.75" shape-rendering="crispEdges"/>
</g>
<path d="M174.795 74V65.2727H177.932V74H174.795ZM176.364 64.3636C175.939 64.3636 175.576 64.2235 175.273 63.9432C174.97 63.6629 174.818 63.3258 174.818 62.9318C174.818 62.5379 174.97 62.2008 175.273 61.9205C175.576 61.6402 175.939 61.5 176.364 61.5C176.792 61.5 177.155 61.6402 177.455 61.9205C177.758 62.2008 177.909 62.5379 177.909 62.9318C177.909 63.3258 177.758 63.6629 177.455 63.9432C177.155 64.2235 176.792 64.3636 176.364 64.3636ZM184.734 65.2727V67.5455H178.984V65.2727H184.734ZM180.098 63.1818H183.234V71.1932C183.234 71.3144 183.255 71.4167 183.297 71.5C183.339 71.5795 183.403 71.6402 183.49 71.6818C183.577 71.7197 183.689 71.7386 183.825 71.7386C183.92 71.7386 184.03 71.7273 184.155 71.7045C184.284 71.6818 184.378 71.6629 184.439 71.6477L184.893 73.8523C184.753 73.8939 184.553 73.9451 184.291 74.0057C184.034 74.0663 183.727 74.1061 183.371 74.125C182.651 74.1629 182.047 74.089 181.558 73.9034C181.07 73.714 180.702 73.4167 180.456 73.0114C180.21 72.6061 180.09 72.0985 180.098 71.4886V63.1818ZM190.102 74.1591C189.17 74.1591 188.367 73.9811 187.693 73.625C187.023 73.2652 186.506 72.75 186.142 72.0795C185.782 71.4053 185.602 70.5985 185.602 69.6591C185.602 68.7576 185.784 67.9697 186.148 67.2955C186.511 66.6212 187.025 66.0966 187.688 65.7216C188.35 65.3466 189.133 65.1591 190.034 65.1591C190.693 65.1591 191.29 65.2614 191.824 65.4659C192.358 65.6705 192.814 65.9678 193.193 66.358C193.572 66.7443 193.864 67.214 194.068 67.767C194.273 68.3201 194.375 68.9432 194.375 69.6364V70.3636H186.58V68.6364H191.489C191.485 68.3864 191.42 68.1667 191.295 67.9773C191.174 67.7841 191.009 67.6345 190.801 67.5284C190.597 67.4186 190.364 67.3636 190.102 67.3636C189.848 67.3636 189.616 67.4186 189.403 67.5284C189.191 67.6345 189.021 67.7822 188.892 67.9716C188.767 68.161 188.701 68.3826 188.693 68.6364V70.5C188.693 70.7803 188.752 71.0303 188.869 71.25C188.987 71.4697 189.155 71.642 189.375 71.767C189.595 71.892 189.86 71.9545 190.17 71.9545C190.386 71.9545 190.583 71.9242 190.761 71.8636C190.943 71.803 191.098 71.7159 191.227 71.6023C191.356 71.4848 191.451 71.3447 191.511 71.1818H194.375C194.277 71.7879 194.044 72.3144 193.676 72.7614C193.309 73.2045 192.822 73.5492 192.216 73.7955C191.614 74.0379 190.909 74.1591 190.102 74.1591ZM195.655 74V65.2727H198.632V66.9318H198.723C198.905 66.3864 199.215 65.9545 199.655 65.6364C200.094 65.3182 200.617 65.1591 201.223 65.1591C201.837 65.1591 202.365 65.322 202.808 65.6477C203.251 65.9697 203.518 66.3977 203.609 66.9318H203.7C203.848 66.3977 204.162 65.9697 204.643 65.6477C205.125 65.322 205.689 65.1591 206.337 65.1591C207.174 65.1591 207.852 65.428 208.371 65.9659C208.893 66.5038 209.155 67.2197 209.155 68.1136V74H206.018V68.9091C206.018 68.5265 205.922 68.2273 205.729 68.0114C205.536 67.7917 205.276 67.6818 204.95 67.6818C204.628 67.6818 204.373 67.7917 204.183 68.0114C203.998 68.2273 203.905 68.5265 203.905 68.9091V74H200.905V68.9091C200.905 68.5265 200.808 68.2273 200.615 68.0114C200.422 67.7917 200.162 67.6818 199.837 67.6818C199.621 67.6818 199.435 67.7311 199.28 67.8295C199.125 67.928 199.003 68.0701 198.916 68.2557C198.833 68.4375 198.791 68.6553 198.791 68.9091V74H195.655Z" fill="#181818" fill-opacity="0.75"/>
<g filter="url(#filter3_d_121_159)">
<rect x="24" y="236" width="96" height="96" rx="8" fill="white" fill-opacity="0.75" shape-rendering="crispEdges"/>
</g>
<path d="M54.7955 290V281.273H57.9318V290H54.7955ZM56.3636 280.364C55.9394 280.364 55.5758 280.223 55.2727 279.943C54.9697 279.663 54.8182 279.326 54.8182 278.932C54.8182 278.538 54.9697 278.201 55.2727 277.92C55.5758 277.64 55.9394 277.5 56.3636 277.5C56.7917 277.5 57.1553 277.64 57.4545 277.92C57.7576 278.201 57.9091 278.538 57.9091 278.932C57.9091 279.326 57.7576 279.663 57.4545 279.943C57.1553 280.223 56.7917 280.364 56.3636 280.364ZM64.7344 281.273V283.545H58.9844V281.273H64.7344ZM60.098 279.182H63.2344V287.193C63.2344 287.314 63.2552 287.417 63.2969 287.5C63.3385 287.58 63.4029 287.64 63.4901 287.682C63.5772 287.72 63.6889 287.739 63.8253 287.739C63.92 287.739 64.0298 287.727 64.1548 287.705C64.2836 287.682 64.3783 287.663 64.4389 287.648L64.8935 289.852C64.7533 289.894 64.5526 289.945 64.2912 290.006C64.0336 290.066 63.7268 290.106 63.3707 290.125C62.651 290.163 62.0469 290.089 61.5582 289.903C61.0696 289.714 60.7022 289.417 60.456 289.011C60.2098 288.606 60.0904 288.098 60.098 287.489V279.182ZM70.1023 290.159C69.1705 290.159 68.3674 289.981 67.6932 289.625C67.0227 289.265 66.5057 288.75 66.142 288.08C65.7822 287.405 65.6023 286.598 65.6023 285.659C65.6023 284.758 65.7841 283.97 66.1477 283.295C66.5114 282.621 67.0246 282.097 67.6875 281.722C68.3504 281.347 69.1326 281.159 70.0341 281.159C70.6932 281.159 71.2898 281.261 71.8239 281.466C72.358 281.67 72.8144 281.968 73.1932 282.358C73.572 282.744 73.8636 283.214 74.0682 283.767C74.2727 284.32 74.375 284.943 74.375 285.636V286.364H66.5795V284.636H71.4886C71.4848 284.386 71.4205 284.167 71.2955 283.977C71.1742 283.784 71.0095 283.634 70.8011 283.528C70.5966 283.419 70.3636 283.364 70.1023 283.364C69.8485 283.364 69.6155 283.419 69.4034 283.528C69.1913 283.634 69.0208 283.782 68.892 283.972C68.767 284.161 68.7008 284.383 68.6932 284.636V286.5C68.6932 286.78 68.7519 287.03 68.8693 287.25C68.9867 287.47 69.1553 287.642 69.375 287.767C69.5947 287.892 69.8598 287.955 70.1705 287.955C70.3864 287.955 70.5833 287.924 70.7614 287.864C70.9432 287.803 71.0985 287.716 71.2273 287.602C71.3561 287.485 71.4508 287.345 71.5114 287.182H74.375C74.2765 287.788 74.0436 288.314 73.6761 288.761C73.3087 289.205 72.822 289.549 72.2159 289.795C71.6136 290.038 70.9091 290.159 70.1023 290.159ZM75.6548 290V281.273H78.6321V282.932H78.723C78.9048 282.386 79.2154 281.955 79.6548 281.636C80.0942 281.318 80.617 281.159 81.223 281.159C81.8366 281.159 82.3651 281.322 82.8082 281.648C83.2514 281.97 83.5185 282.398 83.6094 282.932H83.7003C83.848 282.398 84.1624 281.97 84.6435 281.648C85.1245 281.322 85.6889 281.159 86.3366 281.159C87.1738 281.159 87.8518 281.428 88.3707 281.966C88.8935 282.504 89.1548 283.22 89.1548 284.114V290H86.0185V284.909C86.0185 284.527 85.9219 284.227 85.7287 284.011C85.5355 283.792 85.276 283.682 84.9503 283.682C84.6283 283.682 84.3726 283.792 84.1832 284.011C83.9976 284.227 83.9048 284.527 83.9048 284.909V290H80.9048V284.909C80.9048 284.527 80.8082 284.227 80.6151 284.011C80.4219 283.792 80.1624 283.682 79.8366 283.682C79.6207 283.682 79.4351 283.731 79.2798 283.83C79.1245 283.928 79.0033 284.07 78.9162 284.256C78.8329 284.437 78.7912 284.655 78.7912 284.909V290H75.6548Z" fill="#181818" fill-opacity="0.75"/>
<g filter="url(#filter4_d_121_159)">
<rect x="24" y="20" width="96" height="96" rx="8" fill="white" fill-opacity="0.75" shape-rendering="crispEdges"/>
</g>
<path d="M54.7955 74V65.2727H57.9318V74H54.7955ZM56.3636 64.3636C55.9394 64.3636 55.5758 64.2235 55.2727 63.9432C54.9697 63.6629 54.8182 63.3258 54.8182 62.9318C54.8182 62.5379 54.9697 62.2008 55.2727 61.9205C55.5758 61.6402 55.9394 61.5 56.3636 61.5C56.7917 61.5 57.1553 61.6402 57.4545 61.9205C57.7576 62.2008 57.9091 62.5379 57.9091 62.9318C57.9091 63.3258 57.7576 63.6629 57.4545 63.9432C57.1553 64.2235 56.7917 64.3636 56.3636 64.3636ZM64.7344 65.2727V67.5455H58.9844V65.2727H64.7344ZM60.098 63.1818H63.2344V71.1932C63.2344 71.3144 63.2552 71.4167 63.2969 71.5C63.3385 71.5795 63.4029 71.6402 63.4901 71.6818C63.5772 71.7197 63.6889 71.7386 63.8253 71.7386C63.92 71.7386 64.0298 71.7273 64.1548 71.7045C64.2836 71.6818 64.3783 71.6629 64.4389 71.6477L64.8935 73.8523C64.7533 73.8939 64.5526 73.9451 64.2912 74.0057C64.0336 74.0663 63.7268 74.1061 63.3707 74.125C62.651 74.1629 62.0469 74.089 61.5582 73.9034C61.0696 73.714 60.7022 73.4167 60.456 73.0114C60.2098 72.6061 60.0904 72.0985 60.098 71.4886V63.1818ZM70.1023 74.1591C69.1705 74.1591 68.3674 73.9811 67.6932 73.625C67.0227 73.2652 66.5057 72.75 66.142 72.0795C65.7822 71.4053 65.6023 70.5985 65.6023 69.6591C65.6023 68.7576 65.7841 67.9697 66.1477 67.2955C66.5114 66.6212 67.0246 66.0966 67.6875 65.7216C68.3504 65.3466 69.1326 65.1591 70.0341 65.1591C70.6932 65.1591 71.2898 65.2614 71.8239 65.4659C72.358 65.6705 72.8144 65.9678 73.1932 66.358C73.572 66.7443 73.8636 67.214 74.0682 67.767C74.2727 68.3201 74.375 68.9432 74.375 69.6364V70.3636H66.5795V68.6364H71.4886C71.4848 68.3864 71.4205 68.1667 71.2955 67.9773C71.1742 67.7841 71.0095 67.6345 70.8011 67.5284C70.5966 67.4186 70.3636 67.3636 70.1023 67.3636C69.8485 67.3636 69.6155 67.4186 69.4034 67.5284C69.1913 67.6345 69.0208 67.7822 68.892 67.9716C68.767 68.161 68.7008 68.3826 68.6932 68.6364V70.5C68.6932 70.7803 68.7519 71.0303 68.8693 71.25C68.9867 71.4697 69.1553 71.642 69.375 71.767C69.5947 71.892 69.8598 71.9545 70.1705 71.9545C70.3864 71.9545 70.5833 71.9242 70.7614 71.8636C70.9432 71.803 71.0985 71.7159 71.2273 71.6023C71.3561 71.4848 71.4508 71.3447 71.5114 71.1818H74.375C74.2765 71.7879 74.0436 72.3144 73.6761 72.7614C73.3087 73.2045 72.822 73.5492 72.2159 73.7955C71.6136 74.0379 70.9091 74.1591 70.1023 74.1591ZM75.6548 74V65.2727H78.6321V66.9318H78.723C78.9048 66.3864 79.2154 65.9545 79.6548 65.6364C80.0942 65.3182 80.617 65.1591 81.223 65.1591C81.8366 65.1591 82.3651 65.322 82.8082 65.6477C83.2514 65.9697 83.5185 66.3977 83.6094 66.9318H83.7003C83.848 66.3977 84.1624 65.9697 84.6435 65.6477C85.1245 65.322 85.6889 65.1591 86.3366 65.1591C87.1738 65.1591 87.8518 65.428 88.3707 65.9659C88.8935 66.5038 89.1548 67.2197 89.1548 68.1136V74H86.0185V68.9091C86.0185 68.5265 85.9219 68.2273 85.7287 68.0114C85.5355 67.7917 85.276 67.6818 84.9503 67.6818C84.6283 67.6818 84.3726 67.7917 84.1832 68.0114C83.9976 68.2273 83.9048 68.5265 83.9048 68.9091V74H80.9048V68.9091C80.9048 68.5265 80.8082 68.2273 80.6151 68.0114C80.4219 67.7917 80.1624 67.6818 79.8366 67.6818C79.6207 67.6818 79.4351 67.7311 79.2798 67.8295C79.1245 67.928 79.0033 68.0701 78.9162 68.2557C78.8329 68.4375 78.7912 68.6553 78.7912 68.9091V74H75.6548Z" fill="#181818" fill-opacity="0.75"/>
<g filter="url(#filter5_d_121_159)">
<rect x="264" y="20" width="96" height="96" rx="8" fill="white" fill-opacity="0.75" shape-rendering="crispEdges"/>
</g>
<path d="M294.795 74V65.2727H297.932V74H294.795ZM296.364 64.3636C295.939 64.3636 295.576 64.2235 295.273 63.9432C294.97 63.6629 294.818 63.3258 294.818 62.9318C294.818 62.5379 294.97 62.2008 295.273 61.9205C295.576 61.6402 295.939 61.5 296.364 61.5C296.792 61.5 297.155 61.6402 297.455 61.9205C297.758 62.2008 297.909 62.5379 297.909 62.9318C297.909 63.3258 297.758 63.6629 297.455 63.9432C297.155 64.2235 296.792 64.3636 296.364 64.3636ZM304.734 65.2727V67.5455H298.984V65.2727H304.734ZM300.098 63.1818H303.234V71.1932C303.234 71.3144 303.255 71.4167 303.297 71.5C303.339 71.5795 303.403 71.6402 303.49 71.6818C303.577 71.7197 303.689 71.7386 303.825 71.7386C303.92 71.7386 304.03 71.7273 304.155 71.7045C304.284 71.6818 304.378 71.6629 304.439 71.6477L304.893 73.8523C304.753 73.8939 304.553 73.9451 304.291 74.0057C304.034 74.0663 303.727 74.1061 303.371 74.125C302.651 74.1629 302.047 74.089 301.558 73.9034C301.07 73.714 300.702 73.4167 300.456 73.0114C300.21 72.6061 300.09 72.0985 300.098 71.4886V63.1818ZM310.102 74.1591C309.17 74.1591 308.367 73.9811 307.693 73.625C307.023 73.2652 306.506 72.75 306.142 72.0795C305.782 71.4053 305.602 70.5985 305.602 69.6591C305.602 68.7576 305.784 67.9697 306.148 67.2955C306.511 66.6212 307.025 66.0966 307.688 65.7216C308.35 65.3466 309.133 65.1591 310.034 65.1591C310.693 65.1591 311.29 65.2614 311.824 65.4659C312.358 65.6705 312.814 65.9678 313.193 66.358C313.572 66.7443 313.864 67.214 314.068 67.767C314.273 68.3201 314.375 68.9432 314.375 69.6364V70.3636H306.58V68.6364H311.489C311.485 68.3864 311.42 68.1667 311.295 67.9773C311.174 67.7841 311.009 67.6345 310.801 67.5284C310.597 67.4186 310.364 67.3636 310.102 67.3636C309.848 67.3636 309.616 67.4186 309.403 67.5284C309.191 67.6345 309.021 67.7822 308.892 67.9716C308.767 68.161 308.701 68.3826 308.693 68.6364V70.5C308.693 70.7803 308.752 71.0303 308.869 71.25C308.987 71.4697 309.155 71.642 309.375 71.767C309.595 71.892 309.86 71.9545 310.17 71.9545C310.386 71.9545 310.583 71.9242 310.761 71.8636C310.943 71.803 311.098 71.7159 311.227 71.6023C311.356 71.4848 311.451 71.3447 311.511 71.1818H314.375C314.277 71.7879 314.044 72.3144 313.676 72.7614C313.309 73.2045 312.822 73.5492 312.216 73.7955C311.614 74.0379 310.909 74.1591 310.102 74.1591ZM315.655 74V65.2727H318.632V66.9318H318.723C318.905 66.3864 319.215 65.9545 319.655 65.6364C320.094 65.3182 320.617 65.1591 321.223 65.1591C321.837 65.1591 322.365 65.322 322.808 65.6477C323.251 65.9697 323.518 66.3977 323.609 66.9318H323.7C323.848 66.3977 324.162 65.9697 324.643 65.6477C325.125 65.322 325.689 65.1591 326.337 65.1591C327.174 65.1591 327.852 65.428 328.371 65.9659C328.893 66.5038 329.155 67.2197 329.155 68.1136V74H326.018V68.9091C326.018 68.5265 325.922 68.2273 325.729 68.0114C325.536 67.7917 325.276 67.6818 324.95 67.6818C324.628 67.6818 324.373 67.7917 324.183 68.0114C323.998 68.2273 323.905 68.5265 323.905 68.9091V74H320.905V68.9091C320.905 68.5265 320.808 68.2273 320.615 68.0114C320.422 67.7917 320.162 67.6818 319.837 67.6818C319.621 67.6818 319.435 67.7311 319.28 67.8295C319.125 67.928 319.003 68.0701 318.916 68.2557C318.833 68.4375 318.791 68.6553 318.791 68.9091V74H315.655Z" fill="#181818" fill-opacity="0.75"/>
<g filter="url(#filter6_d_121_159)">
<rect x="144" y="128" width="96" height="96" rx="8" fill="white" fill-opacity="0.75" shape-rendering="crispEdges"/>
</g>
<path d="M174.795 182V173.273H177.932V182H174.795ZM176.364 172.364C175.939 172.364 175.576 172.223 175.273 171.943C174.97 171.663 174.818 171.326 174.818 170.932C174.818 170.538 174.97 170.201 175.273 169.92C175.576 169.64 175.939 169.5 176.364 169.5C176.792 169.5 177.155 169.64 177.455 169.92C177.758 170.201 177.909 170.538 177.909 170.932C177.909 171.326 177.758 171.663 177.455 171.943C177.155 172.223 176.792 172.364 176.364 172.364ZM184.734 173.273V175.545H178.984V173.273H184.734ZM180.098 171.182H183.234V179.193C183.234 179.314 183.255 179.417 183.297 179.5C183.339 179.58 183.403 179.64 183.49 179.682C183.577 179.72 183.689 179.739 183.825 179.739C183.92 179.739 184.03 179.727 184.155 179.705C184.284 179.682 184.378 179.663 184.439 179.648L184.893 181.852C184.753 181.894 184.553 181.945 184.291 182.006C184.034 182.066 183.727 182.106 183.371 182.125C182.651 182.163 182.047 182.089 181.558 181.903C181.07 181.714 180.702 181.417 180.456 181.011C180.21 180.606 180.09 180.098 180.098 179.489V171.182ZM190.102 182.159C189.17 182.159 188.367 181.981 187.693 181.625C187.023 181.265 186.506 180.75 186.142 180.08C185.782 179.405 185.602 178.598 185.602 177.659C185.602 176.758 185.784 175.97 186.148 175.295C186.511 174.621 187.025 174.097 187.688 173.722C188.35 173.347 189.133 173.159 190.034 173.159C190.693 173.159 191.29 173.261 191.824 173.466C192.358 173.67 192.814 173.968 193.193 174.358C193.572 174.744 193.864 175.214 194.068 175.767C194.273 176.32 194.375 176.943 194.375 177.636V178.364H186.58V176.636H191.489C191.485 176.386 191.42 176.167 191.295 175.977C191.174 175.784 191.009 175.634 190.801 175.528C190.597 175.419 190.364 175.364 190.102 175.364C189.848 175.364 189.616 175.419 189.403 175.528C189.191 175.634 189.021 175.782 188.892 175.972C188.767 176.161 188.701 176.383 188.693 176.636V178.5C188.693 178.78 188.752 179.03 188.869 179.25C188.987 179.47 189.155 179.642 189.375 179.767C189.595 179.892 189.86 179.955 190.17 179.955C190.386 179.955 190.583 179.924 190.761 179.864C190.943 179.803 191.098 179.716 191.227 179.602C191.356 179.485 191.451 179.345 191.511 179.182H194.375C194.277 179.788 194.044 180.314 193.676 180.761C193.309 181.205 192.822 181.549 192.216 181.795C191.614 182.038 190.909 182.159 190.102 182.159ZM195.655 182V173.273H198.632V174.932H198.723C198.905 174.386 199.215 173.955 199.655 173.636C200.094 173.318 200.617 173.159 201.223 173.159C201.837 173.159 202.365 173.322 202.808 173.648C203.251 173.97 203.518 174.398 203.609 174.932H203.7C203.848 174.398 204.162 173.97 204.643 173.648C205.125 173.322 205.689 173.159 206.337 173.159C207.174 173.159 207.852 173.428 208.371 173.966C208.893 174.504 209.155 175.22 209.155 176.114V182H206.018V176.909C206.018 176.527 205.922 176.227 205.729 176.011C205.536 175.792 205.276 175.682 204.95 175.682C204.628 175.682 204.373 175.792 204.183 176.011C203.998 176.227 203.905 176.527 203.905 176.909V182H200.905V176.909C200.905 176.527 200.808 176.227 200.615 176.011C200.422 175.792 200.162 175.682 199.837 175.682C199.621 175.682 199.435 175.731 199.28 175.83C199.125 175.928 199.003 176.07 198.916 176.256C198.833 176.437 198.791 176.655 198.791 176.909V182H195.655Z" fill="#181818" fill-opacity="0.75"/>
<g filter="url(#filter7_d_121_159)">
<rect x="24" y="128" width="96" height="96" rx="8" fill="white" fill-opacity="0.75" shape-rendering="crispEdges"/>
</g>
<path d="M54.7955 182V173.273H57.9318V182H54.7955ZM56.3636 172.364C55.9394 172.364 55.5758 172.223 55.2727 171.943C54.9697 171.663 54.8182 171.326 54.8182 170.932C54.8182 170.538 54.9697 170.201 55.2727 169.92C55.5758 169.64 55.9394 169.5 56.3636 169.5C56.7917 169.5 57.1553 169.64 57.4545 169.92C57.7576 170.201 57.9091 170.538 57.9091 170.932C57.9091 171.326 57.7576 171.663 57.4545 171.943C57.1553 172.223 56.7917 172.364 56.3636 172.364ZM64.7344 173.273V175.545H58.9844V173.273H64.7344ZM60.098 171.182H63.2344V179.193C63.2344 179.314 63.2552 179.417 63.2969 179.5C63.3385 179.58 63.4029 179.64 63.4901 179.682C63.5772 179.72 63.6889 179.739 63.8253 179.739C63.92 179.739 64.0298 179.727 64.1548 179.705C64.2836 179.682 64.3783 179.663 64.4389 179.648L64.8935 181.852C64.7533 181.894 64.5526 181.945 64.2912 182.006C64.0336 182.066 63.7268 182.106 63.3707 182.125C62.651 182.163 62.0469 182.089 61.5582 181.903C61.0696 181.714 60.7022 181.417 60.456 181.011C60.2098 180.606 60.0904 180.098 60.098 179.489V171.182ZM70.1023 182.159C69.1705 182.159 68.3674 181.981 67.6932 181.625C67.0227 181.265 66.5057 180.75 66.142 180.08C65.7822 179.405 65.6023 178.598 65.6023 177.659C65.6023 176.758 65.7841 175.97 66.1477 175.295C66.5114 174.621 67.0246 174.097 67.6875 173.722C68.3504 173.347 69.1326 173.159 70.0341 173.159C70.6932 173.159 71.2898 173.261 71.8239 173.466C72.358 173.67 72.8144 173.968 73.1932 174.358C73.572 174.744 73.8636 175.214 74.0682 175.767C74.2727 176.32 74.375 176.943 74.375 177.636V178.364H66.5795V176.636H71.4886C71.4848 176.386 71.4205 176.167 71.2955 175.977C71.1742 175.784 71.0095 175.634 70.8011 175.528C70.5966 175.419 70.3636 175.364 70.1023 175.364C69.8485 175.364 69.6155 175.419 69.4034 175.528C69.1913 175.634 69.0208 175.782 68.892 175.972C68.767 176.161 68.7008 176.383 68.6932 176.636V178.5C68.6932 178.78 68.7519 179.03 68.8693 179.25C68.9867 179.47 69.1553 179.642 69.375 179.767C69.5947 179.892 69.8598 179.955 70.1705 179.955C70.3864 179.955 70.5833 179.924 70.7614 179.864C70.9432 179.803 71.0985 179.716 71.2273 179.602C71.3561 179.485 71.4508 179.345 71.5114 179.182H74.375C74.2765 179.788 74.0436 180.314 73.6761 180.761C73.3087 181.205 72.822 181.549 72.2159 181.795C71.6136 182.038 70.9091 182.159 70.1023 182.159ZM75.6548 182V173.273H78.6321V174.932H78.723C78.9048 174.386 79.2154 173.955 79.6548 173.636C80.0942 173.318 80.617 173.159 81.223 173.159C81.8366 173.159 82.3651 173.322 82.8082 173.648C83.2514 173.97 83.5185 174.398 83.6094 174.932H83.7003C83.848 174.398 84.1624 173.97 84.6435 173.648C85.1245 173.322 85.6889 173.159 86.3366 173.159C87.1738 173.159 87.8518 173.428 88.3707 173.966C88.8935 174.504 89.1548 175.22 89.1548 176.114V182H86.0185V176.909C86.0185 176.527 85.9219 176.227 85.7287 176.011C85.5355 175.792 85.276 175.682 84.9503 175.682C84.6283 175.682 84.3726 175.792 84.1832 176.011C83.9976 176.227 83.9048 176.527 83.9048 176.909V182H80.9048V176.909C80.9048 176.527 80.8082 176.227 80.6151 176.011C80.4219 175.792 80.1624 175.682 79.8366 175.682C79.6207 175.682 79.4351 175.731 79.2798 175.83C79.1245 175.928 79.0033 176.07 78.9162 176.256C78.8329 176.437 78.7912 176.655 78.7912 176.909V182H75.6548Z" fill="#181818" fill-opacity="0.75"/>
<g filter="url(#filter8_d_121_159)">
<rect x="264" y="128" width="96" height="96" rx="8" fill="white" fill-opacity="0.75" shape-rendering="crispEdges"/>
</g>
<path d="M294.795 182V173.273H297.932V182H294.795ZM296.364 172.364C295.939 172.364 295.576 172.223 295.273 171.943C294.97 171.663 294.818 171.326 294.818 170.932C294.818 170.538 294.97 170.201 295.273 169.92C295.576 169.64 295.939 169.5 296.364 169.5C296.792 169.5 297.155 169.64 297.455 169.92C297.758 170.201 297.909 170.538 297.909 170.932C297.909 171.326 297.758 171.663 297.455 171.943C297.155 172.223 296.792 172.364 296.364 172.364ZM304.734 173.273V175.545H298.984V173.273H304.734ZM300.098 171.182H303.234V179.193C303.234 179.314 303.255 179.417 303.297 179.5C303.339 179.58 303.403 179.64 303.49 179.682C303.577 179.72 303.689 179.739 303.825 179.739C303.92 179.739 304.03 179.727 304.155 179.705C304.284 179.682 304.378 179.663 304.439 179.648L304.893 181.852C304.753 181.894 304.553 181.945 304.291 182.006C304.034 182.066 303.727 182.106 303.371 182.125C302.651 182.163 302.047 182.089 301.558 181.903C301.07 181.714 300.702 181.417 300.456 181.011C300.21 180.606 300.09 180.098 300.098 179.489V171.182ZM310.102 182.159C309.17 182.159 308.367 181.981 307.693 181.625C307.023 181.265 306.506 180.75 306.142 180.08C305.782 179.405 305.602 178.598 305.602 177.659C305.602 176.758 305.784 175.97 306.148 175.295C306.511 174.621 307.025 174.097 307.688 173.722C308.35 173.347 309.133 173.159 310.034 173.159C310.693 173.159 311.29 173.261 311.824 173.466C312.358 173.67 312.814 173.968 313.193 174.358C313.572 174.744 313.864 175.214 314.068 175.767C314.273 176.32 314.375 176.943 314.375 177.636V178.364H306.58V176.636H311.489C311.485 176.386 311.42 176.167 311.295 175.977C311.174 175.784 311.009 175.634 310.801 175.528C310.597 175.419 310.364 175.364 310.102 175.364C309.848 175.364 309.616 175.419 309.403 175.528C309.191 175.634 309.021 175.782 308.892 175.972C308.767 176.161 308.701 176.383 308.693 176.636V178.5C308.693 178.78 308.752 179.03 308.869 179.25C308.987 179.47 309.155 179.642 309.375 179.767C309.595 179.892 309.86 179.955 310.17 179.955C310.386 179.955 310.583 179.924 310.761 179.864C310.943 179.803 311.098 179.716 311.227 179.602C311.356 179.485 311.451 179.345 311.511 179.182H314.375C314.277 179.788 314.044 180.314 313.676 180.761C313.309 181.205 312.822 181.549 312.216 181.795C311.614 182.038 310.909 182.159 310.102 182.159ZM315.655 182V173.273H318.632V174.932H318.723C318.905 174.386 319.215 173.955 319.655 173.636C320.094 173.318 320.617 173.159 321.223 173.159C321.837 173.159 322.365 173.322 322.808 173.648C323.251 173.97 323.518 174.398 323.609 174.932H323.7C323.848 174.398 324.162 173.97 324.643 173.648C325.125 173.322 325.689 173.159 326.337 173.159C327.174 173.159 327.852 173.428 328.371 173.966C328.893 174.504 329.155 175.22 329.155 176.114V182H326.018V176.909C326.018 176.527 325.922 176.227 325.729 176.011C325.536 175.792 325.276 175.682 324.95 175.682C324.628 175.682 324.373 175.792 324.183 176.011C323.998 176.227 323.905 176.527 323.905 176.909V182H320.905V176.909C320.905 176.527 320.808 176.227 320.615 176.011C320.422 175.792 320.162 175.682 319.837 175.682C319.621 175.682 319.435 175.731 319.28 175.83C319.125 175.928 319.003 176.07 318.916 176.256C318.833 176.437 318.791 176.655 318.791 176.909V182H315.655Z" fill="#181818" fill-opacity="0.75"/>
<g filter="url(#filter9_d_121_159)">
<rect x="264" y="236" width="96" height="96" rx="8" fill="white" fill-opacity="0.75" shape-rendering="crispEdges"/>
</g>
<path d="M294.795 290V281.273H297.932V290H294.795ZM296.364 280.364C295.939 280.364 295.576 280.223 295.273 279.943C294.97 279.663 294.818 279.326 294.818 278.932C294.818 278.538 294.97 278.201 295.273 277.92C295.576 277.64 295.939 277.5 296.364 277.5C296.792 277.5 297.155 277.64 297.455 277.92C297.758 278.201 297.909 278.538 297.909 278.932C297.909 279.326 297.758 279.663 297.455 279.943C297.155 280.223 296.792 280.364 296.364 280.364ZM304.734 281.273V283.545H298.984V281.273H304.734ZM300.098 279.182H303.234V287.193C303.234 287.314 303.255 287.417 303.297 287.5C303.339 287.58 303.403 287.64 303.49 287.682C303.577 287.72 303.689 287.739 303.825 287.739C303.92 287.739 304.03 287.727 304.155 287.705C304.284 287.682 304.378 287.663 304.439 287.648L304.893 289.852C304.753 289.894 304.553 289.945 304.291 290.006C304.034 290.066 303.727 290.106 303.371 290.125C302.651 290.163 302.047 290.089 301.558 289.903C301.07 289.714 300.702 289.417 300.456 289.011C300.21 288.606 300.09 288.098 300.098 287.489V279.182ZM310.102 290.159C309.17 290.159 308.367 289.981 307.693 289.625C307.023 289.265 306.506 288.75 306.142 288.08C305.782 287.405 305.602 286.598 305.602 285.659C305.602 284.758 305.784 283.97 306.148 283.295C306.511 282.621 307.025 282.097 307.688 281.722C308.35 281.347 309.133 281.159 310.034 281.159C310.693 281.159 311.29 281.261 311.824 281.466C312.358 281.67 312.814 281.968 313.193 282.358C313.572 282.744 313.864 283.214 314.068 283.767C314.273 284.32 314.375 284.943 314.375 285.636V286.364H306.58V284.636H311.489C311.485 284.386 311.42 284.167 311.295 283.977C311.174 283.784 311.009 283.634 310.801 283.528C310.597 283.419 310.364 283.364 310.102 283.364C309.848 283.364 309.616 283.419 309.403 283.528C309.191 283.634 309.021 283.782 308.892 283.972C308.767 284.161 308.701 284.383 308.693 284.636V286.5C308.693 286.78 308.752 287.03 308.869 287.25C308.987 287.47 309.155 287.642 309.375 287.767C309.595 287.892 309.86 287.955 310.17 287.955C310.386 287.955 310.583 287.924 310.761 287.864C310.943 287.803 311.098 287.716 311.227 287.602C311.356 287.485 311.451 287.345 311.511 287.182H314.375C314.277 287.788 314.044 288.314 313.676 288.761C313.309 289.205 312.822 289.549 312.216 289.795C311.614 290.038 310.909 290.159 310.102 290.159ZM315.655 290V281.273H318.632V282.932H318.723C318.905 282.386 319.215 281.955 319.655 281.636C320.094 281.318 320.617 281.159 321.223 281.159C321.837 281.159 322.365 281.322 322.808 281.648C323.251 281.97 323.518 282.398 323.609 282.932H323.7C323.848 282.398 324.162 281.97 324.643 281.648C325.125 281.322 325.689 281.159 326.337 281.159C327.174 281.159 327.852 281.428 328.371 281.966C328.893 282.504 329.155 283.22 329.155 284.114V290H326.018V284.909C326.018 284.527 325.922 284.227 325.729 284.011C325.536 283.792 325.276 283.682 324.95 283.682C324.628 283.682 324.373 283.792 324.183 284.011C323.998 284.227 323.905 284.527 323.905 284.909V290H320.905V284.909C320.905 284.527 320.808 284.227 320.615 284.011C320.422 283.792 320.162 283.682 319.837 283.682C319.621 283.682 319.435 283.731 319.28 283.83C319.125 283.928 319.003 284.07 318.916 284.256C318.833 284.437 318.791 284.655 318.791 284.909V290H315.655Z" fill="#181818" fill-opacity="0.75"/>
<defs>
<filter id="filter0_d_121_159" x="0" y="0" width="384" height="360" filterUnits="userSpaceOnUse" color-interpolation-filters="sRGB">
<feFlood flood-opacity="0" result="BackgroundImageFix"/>
<feColorMatrix in="SourceAlpha" type="matrix" values="0 0 0 0 0 0 0 0 0 0 0 0 0 0 0 0 0 0 127 0" result="hardAlpha"/>
<feOffset dy="4"/>
<feGaussianBlur stdDeviation="4"/>
<feComposite in2="hardAlpha" operator="out"/>
<feColorMatrix type="matrix" values="0 0 0 0 0.129412 0 0 0 0 0.447059 0 0 0 0 1 0 0 0 0.25 0"/>
<feBlend mode="normal" in2="BackgroundImageFix" result="effect1_dropShadow_121_159"/>
<feBlend mode="normal" in="SourceGraphic" in2="effect1_dropShadow_121_159" result="shape"/>
</filter>
<filter id="filter1_d_121_159" x="136" y="232" width="112" height="112" filterUnits="userSpaceOnUse" color-interpolation-filters="sRGB">
<feFlood flood-opacity="0" result="BackgroundImageFix"/>
<feColorMatrix in="SourceAlpha" type="matrix" values="0 0 0 0 0 0 0 0 0 0 0 0 0 0 0 0 0 0 127 0" result="hardAlpha"/>
<feOffset dy="4"/>
<feGaussianBlur stdDeviation="4"/>
<feComposite in2="hardAlpha" operator="out"/>
<feColorMatrix type="matrix" values="0 0 0 0 1 0 0 0 0 1 0 0 0 0 1 0 0 0 0.25 0"/>
<feBlend mode="normal" in2="BackgroundImageFix" result="effect1_dropShadow_121_159"/>
<feBlend mode="normal" in="SourceGraphic" in2="effect1_dropShadow_121_159" result="shape"/>
</filter>
<filter id="filter2_d_121_159" x="136" y="16" width="112" height="112" filterUnits="userSpaceOnUse" color-interpolation-filters="sRGB">
<feFlood flood-opacity="0" result="BackgroundImageFix"/>
<feColorMatrix in="SourceAlpha" type="matrix" values="0 0 0 0 0 0 0 0 0 0 0 0 0 0 0 0 0 0 127 0" result="hardAlpha"/>
<feOffset dy="4"/>
<feGaussianBlur stdDeviation="4"/>
<feComposite in2="hardAlpha" operator="out"/>
<feColorMatrix type="matrix" values="0 0 0 0 1 0 0 0 0 1 0 0 0 0 1 0 0 0 0.25 0"/>
<feBlend mode="normal" in2="BackgroundImageFix" result="effect1_dropShadow_121_159"/>
<feBlend mode="normal" in="SourceGraphic" in2="effect1_dropShadow_121_159" result="shape"/>
</filter>
<filter id="filter3_d_121_159" x="16" y="232" width="112" height="112" filterUnits="userSpaceOnUse" color-interpolation-filters="sRGB">
<feFlood flood-opacity="0" result="BackgroundImageFix"/>
<feColorMatrix in="SourceAlpha" type="matrix" values="0 0 0 0 0 0 0 0 0 0 0 0 0 0 0 0 0 0 127 0" result="hardAlpha"/>
<feOffset dy="4"/>
<feGaussianBlur stdDeviation="4"/>
<feComposite in2="hardAlpha" operator="out"/>
<feColorMatrix type="matrix" values="0 0 0 0 1 0 0 0 0 1 0 0 0 0 1 0 0 0 0.25 0"/>
<feBlend mode="normal" in2="BackgroundImageFix" result="effect1_dropShadow_121_159"/>
<feBlend mode="normal" in="SourceGraphic" in2="effect1_dropShadow_121_159" result="shape"/>
</filter>
<filter id="filter4_d_121_159" x="16" y="16" width="112" height="112" filterUnits="userSpaceOnUse" color-interpolation-filters="sRGB">
<feFlood flood-opacity="0" result="BackgroundImageFix"/>
<feColorMatrix in="SourceAlpha" type="matrix" values="0 0 0 0 0 0 0 0 0 0 0 0 0 0 0 0 0 0 127 0" result="hardAlpha"/>
<feOffset dy="4"/>
<feGaussianBlur stdDeviation="4"/>
<feComposite in2="hardAlpha" operator="out"/>
<feColorMatrix type="matrix" values="0 0 0 0 1 0 0 0 0 1 0 0 0 0 1 0 0 0 0.25 0"/>
<feBlend mode="normal" in2="BackgroundImageFix" result="effect1_dropShadow_121_159"/>
<feBlend mode="normal" in="SourceGraphic" in2="effect1_dropShadow_121_159" result="shape"/>
</filter>
<filter id="filter5_d_121_159" x="256" y="16" width="112" height="112" filterUnits="userSpaceOnUse" color-interpolation-filters="sRGB">
<feFlood flood-opacity="0" result="BackgroundImageFix"/>
<feColorMatrix in="SourceAlpha" type="matrix" values="0 0 0 0 0 0 0 0 0 0 0 0 0 0 0 0 0 0 127 0" result="hardAlpha"/>
<feOffset dy="4"/>
<feGaussianBlur stdDeviation="4"/>
<feComposite in2="hardAlpha" operator="out"/>
<feColorMatrix type="matrix" values="0 0 0 0 1 0 0 0 0 1 0 0 0 0 1 0 0 0 0.25 0"/>
<feBlend mode="normal" in2="BackgroundImageFix" result="effect1_dropShadow_121_159"/>
<feBlend mode="normal" in="SourceGraphic" in2="effect1_dropShadow_121_159" result="shape"/>
</filter>
<filter id="filter6_d_121_159" x="136" y="124" width="112" height="112" filterUnits="userSpaceOnUse" color-interpolation-filters="sRGB">
<feFlood flood-opacity="0" result="BackgroundImageFix"/>
<feColorMatrix in="SourceAlpha" type="matrix" values="0 0 0 0 0 0 0 0 0 0 0 0 0 0 0 0 0 0 127 0" result="hardAlpha"/>
<feOffset dy="4"/>
<feGaussianBlur stdDeviation="4"/>
<feComposite in2="hardAlpha" operator="out"/>
<feColorMatrix type="matrix" values="0 0 0 0 1 0 0 0 0 1 0 0 0 0 1 0 0 0 0.25 0"/>
<feBlend mode="normal" in2="BackgroundImageFix" result="effect1_dropShadow_121_159"/>
<feBlend mode="normal" in="SourceGraphic" in2="effect1_dropShadow_121_159" result="shape"/>
</filter>
<filter id="filter7_d_121_159" x="16" y="124" width="112" height="112" filterUnits="userSpaceOnUse" color-interpolation-filters="sRGB">
<feFlood flood-opacity="0" result="BackgroundImageFix"/>
<feColorMatrix in="SourceAlpha" type="matrix" values="0 0 0 0 0 0 0 0 0 0 0 0 0 0 0 0 0 0 127 0" result="hardAlpha"/>
<feOffset dy="4"/>
<feGaussianBlur stdDeviation="4"/>
<feComposite in2="hardAlpha" operator="out"/>
<feColorMatrix type="matrix" values="0 0 0 0 1 0 0 0 0 1 0 0 0 0 1 0 0 0 0.25 0"/>
<feBlend mode="normal" in2="BackgroundImageFix" result="effect1_dropShadow_121_159"/>
<feBlend mode="normal" in="SourceGraphic" in2="effect1_dropShadow_121_159" result="shape"/>
</filter>
<filter id="filter8_d_121_159" x="256" y="124" width="112" height="112" filterUnits="userSpaceOnUse" color-interpolation-filters="sRGB">
<feFlood flood-opacity="0" result="BackgroundImageFix"/>
<feColorMatrix in="SourceAlpha" type="matrix" values="0 0 0 0 0 0 0 0 0 0 0 0 0 0 0 0 0 0 127 0" result="hardAlpha"/>
<feOffset dy="4"/>
<feGaussianBlur stdDeviation="4"/>
<feComposite in2="hardAlpha" operator="out"/>
<feColorMatrix type="matrix" values="0 0 0 0 1 0 0 0 0 1 0 0 0 0 1 0 0 0 0.25 0"/>
<feBlend mode="normal" in2="BackgroundImageFix" result="effect1_dropShadow_121_159"/>
<feBlend mode="normal" in="SourceGraphic" in2="effect1_dropShadow_121_159" result="shape"/>
</filter>
<filter id="filter9_d_121_159" x="256" y="232" width="112" height="112" filterUnits="userSpaceOnUse" color-interpolation-filters="sRGB">
<feFlood flood-opacity="0" result="BackgroundImageFix"/>
<feColorMatrix in="SourceAlpha" type="matrix" values="0 0 0 0 0 0 0 0 0 0 0 0 0 0 0 0 0 0 127 0" result="hardAlpha"/>
<feOffset dy="4"/>
<feGaussianBlur stdDeviation="4"/>
<feComposite in2="hardAlpha" operator="out"/>
<feColorMatrix type="matrix" values="0 0 0 0 1 0 0 0 0 1 0 0 0 0 1 0 0 0 0.25 0"/>
<feBlend mode="normal" in2="BackgroundImageFix" result="effect1_dropShadow_121_159"/>
<feBlend mode="normal" in="SourceGraphic" in2="effect1_dropShadow_121_159" result="shape"/>
</filter>
</defs>
</svg>
