<svg width="784" height="403" viewBox="0 0 784 403" fill="none" xmlns="http://www.w3.org/2000/svg">
<g filter="url(#filter0_d_129_739)">
<rect x="8" y="4" width="368" height="387" rx="8" fill="#2172FF" fill-opacity="0.8" shape-rendering="crispEdges"/>
</g>
<g filter="url(#filter1_d_129_739)">
<rect x="136" y="263" width="112" height="72" rx="8" fill="white" fill-opacity="0.75" shape-rendering="crispEdges"/>
</g>
<path d="M170.795 305V296.273H173.932V305H170.795ZM172.364 295.364C171.939 295.364 171.576 295.223 171.273 294.943C170.97 294.663 170.818 294.326 170.818 293.932C170.818 293.538 170.97 293.201 171.273 292.92C171.576 292.64 171.939 292.5 172.364 292.5C172.792 292.5 173.155 292.64 173.455 292.92C173.758 293.201 173.909 293.538 173.909 293.932C173.909 294.326 173.758 294.663 173.455 294.943C173.155 295.223 172.792 295.364 172.364 295.364ZM180.734 296.273V298.545H174.984V296.273H180.734ZM176.098 294.182H179.234V302.193C179.234 302.314 179.255 302.417 179.297 302.5C179.339 302.58 179.403 302.64 179.49 302.682C179.577 302.72 179.689 302.739 179.825 302.739C179.92 302.739 180.03 302.727 180.155 302.705C180.284 302.682 180.378 302.663 180.439 302.648L180.893 304.852C180.753 304.894 180.553 304.945 180.291 305.006C180.034 305.066 179.727 305.106 179.371 305.125C178.651 305.163 178.047 305.089 177.558 304.903C177.07 304.714 176.702 304.417 176.456 304.011C176.21 303.606 176.09 303.098 176.098 302.489V294.182ZM186.102 305.159C185.17 305.159 184.367 304.981 183.693 304.625C183.023 304.265 182.506 303.75 182.142 303.08C181.782 302.405 181.602 301.598 181.602 300.659C181.602 299.758 181.784 298.97 182.148 298.295C182.511 297.621 183.025 297.097 183.688 296.722C184.35 296.347 185.133 296.159 186.034 296.159C186.693 296.159 187.29 296.261 187.824 296.466C188.358 296.67 188.814 296.968 189.193 297.358C189.572 297.744 189.864 298.214 190.068 298.767C190.273 299.32 190.375 299.943 190.375 300.636V301.364H182.58V299.636H187.489C187.485 299.386 187.42 299.167 187.295 298.977C187.174 298.784 187.009 298.634 186.801 298.528C186.597 298.419 186.364 298.364 186.102 298.364C185.848 298.364 185.616 298.419 185.403 298.528C185.191 298.634 185.021 298.782 184.892 298.972C184.767 299.161 184.701 299.383 184.693 299.636V301.5C184.693 301.78 184.752 302.03 184.869 302.25C184.987 302.47 185.155 302.642 185.375 302.767C185.595 302.892 185.86 302.955 186.17 302.955C186.386 302.955 186.583 302.924 186.761 302.864C186.943 302.803 187.098 302.716 187.227 302.602C187.356 302.485 187.451 302.345 187.511 302.182H190.375C190.277 302.788 190.044 303.314 189.676 303.761C189.309 304.205 188.822 304.549 188.216 304.795C187.614 305.038 186.909 305.159 186.102 305.159ZM191.655 305V296.273H194.632V297.932H194.723C194.905 297.386 195.215 296.955 195.655 296.636C196.094 296.318 196.617 296.159 197.223 296.159C197.837 296.159 198.365 296.322 198.808 296.648C199.251 296.97 199.518 297.398 199.609 297.932H199.7C199.848 297.398 200.162 296.97 200.643 296.648C201.125 296.322 201.689 296.159 202.337 296.159C203.174 296.159 203.852 296.428 204.371 296.966C204.893 297.504 205.155 298.22 205.155 299.114V305H202.018V299.909C202.018 299.527 201.922 299.227 201.729 299.011C201.536 298.792 201.276 298.682 200.95 298.682C200.628 298.682 200.373 298.792 200.183 299.011C199.998 299.227 199.905 299.527 199.905 299.909V305H196.905V299.909C196.905 299.527 196.808 299.227 196.615 299.011C196.422 298.792 196.162 298.682 195.837 298.682C195.621 298.682 195.435 298.731 195.28 298.83C195.125 298.928 195.003 299.07 194.916 299.256C194.833 299.437 194.791 299.655 194.791 299.909V305H191.655Z" fill="#181818" fill-opacity="0.75"/>
<g filter="url(#filter2_d_129_739)">
<rect x="136" y="39" width="112" height="72" rx="8" fill="white" fill-opacity="0.75" shape-rendering="crispEdges"/>
</g>
<path d="M170.795 81V72.2727H173.932V81H170.795ZM172.364 71.3636C171.939 71.3636 171.576 71.2235 171.273 70.9432C170.97 70.6629 170.818 70.3258 170.818 69.9318C170.818 69.5379 170.97 69.2008 171.273 68.9205C171.576 68.6402 171.939 68.5 172.364 68.5C172.792 68.5 173.155 68.6402 173.455 68.9205C173.758 69.2008 173.909 69.5379 173.909 69.9318C173.909 70.3258 173.758 70.6629 173.455 70.9432C173.155 71.2235 172.792 71.3636 172.364 71.3636ZM180.734 72.2727V74.5455H174.984V72.2727H180.734ZM176.098 70.1818H179.234V78.1932C179.234 78.3144 179.255 78.4167 179.297 78.5C179.339 78.5795 179.403 78.6402 179.49 78.6818C179.577 78.7197 179.689 78.7386 179.825 78.7386C179.92 78.7386 180.03 78.7273 180.155 78.7045C180.284 78.6818 180.378 78.6629 180.439 78.6477L180.893 80.8523C180.753 80.8939 180.553 80.9451 180.291 81.0057C180.034 81.0663 179.727 81.1061 179.371 81.125C178.651 81.1629 178.047 81.089 177.558 80.9034C177.07 80.714 176.702 80.4167 176.456 80.0114C176.21 79.6061 176.09 79.0985 176.098 78.4886V70.1818ZM186.102 81.1591C185.17 81.1591 184.367 80.9811 183.693 80.625C183.023 80.2652 182.506 79.75 182.142 79.0795C181.782 78.4053 181.602 77.5985 181.602 76.6591C181.602 75.7576 181.784 74.9697 182.148 74.2955C182.511 73.6212 183.025 73.0966 183.688 72.7216C184.35 72.3466 185.133 72.1591 186.034 72.1591C186.693 72.1591 187.29 72.2614 187.824 72.4659C188.358 72.6705 188.814 72.9678 189.193 73.358C189.572 73.7443 189.864 74.214 190.068 74.767C190.273 75.3201 190.375 75.9432 190.375 76.6364V77.3636H182.58V75.6364H187.489C187.485 75.3864 187.42 75.1667 187.295 74.9773C187.174 74.7841 187.009 74.6345 186.801 74.5284C186.597 74.4186 186.364 74.3636 186.102 74.3636C185.848 74.3636 185.616 74.4186 185.403 74.5284C185.191 74.6345 185.021 74.7822 184.892 74.9716C184.767 75.161 184.701 75.3826 184.693 75.6364V77.5C184.693 77.7803 184.752 78.0303 184.869 78.25C184.987 78.4697 185.155 78.642 185.375 78.767C185.595 78.892 185.86 78.9545 186.17 78.9545C186.386 78.9545 186.583 78.9242 186.761 78.8636C186.943 78.803 187.098 78.7159 187.227 78.6023C187.356 78.4848 187.451 78.3447 187.511 78.1818H190.375C190.277 78.7879 190.044 79.3144 189.676 79.7614C189.309 80.2045 188.822 80.5492 188.216 80.7955C187.614 81.0379 186.909 81.1591 186.102 81.1591ZM191.655 81V72.2727H194.632V73.9318H194.723C194.905 73.3864 195.215 72.9545 195.655 72.6364C196.094 72.3182 196.617 72.1591 197.223 72.1591C197.837 72.1591 198.365 72.322 198.808 72.6477C199.251 72.9697 199.518 73.3977 199.609 73.9318H199.7C199.848 73.3977 200.162 72.9697 200.643 72.6477C201.125 72.322 201.689 72.1591 202.337 72.1591C203.174 72.1591 203.852 72.428 204.371 72.9659C204.893 73.5038 205.155 74.2197 205.155 75.1136V81H202.018V75.9091C202.018 75.5265 201.922 75.2273 201.729 75.0114C201.536 74.7917 201.276 74.6818 200.95 74.6818C200.628 74.6818 200.373 74.7917 200.183 75.0114C199.998 75.2273 199.905 75.5265 199.905 75.9091V81H196.905V75.9091C196.905 75.5265 196.808 75.2273 196.615 75.0114C196.422 74.7917 196.162 74.6818 195.837 74.6818C195.621 74.6818 195.435 74.7311 195.28 74.8295C195.125 74.928 195.003 75.0701 194.916 75.2557C194.833 75.4375 194.791 75.6553 194.791 75.9091V81H191.655Z" fill="#181818" fill-opacity="0.75"/>
<g filter="url(#filter3_d_129_739)">
<rect x="24" y="263" width="112" height="72" rx="8" fill="white" fill-opacity="0.75" shape-rendering="crispEdges"/>
</g>
<path d="M58.7955 305V296.273H61.9318V305H58.7955ZM60.3636 295.364C59.9394 295.364 59.5758 295.223 59.2727 294.943C58.9697 294.663 58.8182 294.326 58.8182 293.932C58.8182 293.538 58.9697 293.201 59.2727 292.92C59.5758 292.64 59.9394 292.5 60.3636 292.5C60.7917 292.5 61.1553 292.64 61.4545 292.92C61.7576 293.201 61.9091 293.538 61.9091 293.932C61.9091 294.326 61.7576 294.663 61.4545 294.943C61.1553 295.223 60.7917 295.364 60.3636 295.364ZM68.7344 296.273V298.545H62.9844V296.273H68.7344ZM64.098 294.182H67.2344V302.193C67.2344 302.314 67.2552 302.417 67.2969 302.5C67.3385 302.58 67.4029 302.64 67.4901 302.682C67.5772 302.72 67.6889 302.739 67.8253 302.739C67.92 302.739 68.0298 302.727 68.1548 302.705C68.2836 302.682 68.3783 302.663 68.4389 302.648L68.8935 304.852C68.7533 304.894 68.5526 304.945 68.2912 305.006C68.0336 305.066 67.7268 305.106 67.3707 305.125C66.651 305.163 66.0469 305.089 65.5582 304.903C65.0696 304.714 64.7022 304.417 64.456 304.011C64.2098 303.606 64.0904 303.098 64.098 302.489V294.182ZM74.1023 305.159C73.1705 305.159 72.3674 304.981 71.6932 304.625C71.0227 304.265 70.5057 303.75 70.142 303.08C69.7822 302.405 69.6023 301.598 69.6023 300.659C69.6023 299.758 69.7841 298.97 70.1477 298.295C70.5114 297.621 71.0246 297.097 71.6875 296.722C72.3504 296.347 73.1326 296.159 74.0341 296.159C74.6932 296.159 75.2898 296.261 75.8239 296.466C76.358 296.67 76.8144 296.968 77.1932 297.358C77.572 297.744 77.8636 298.214 78.0682 298.767C78.2727 299.32 78.375 299.943 78.375 300.636V301.364H70.5795V299.636H75.4886C75.4848 299.386 75.4205 299.167 75.2955 298.977C75.1742 298.784 75.0095 298.634 74.8011 298.528C74.5966 298.419 74.3636 298.364 74.1023 298.364C73.8485 298.364 73.6155 298.419 73.4034 298.528C73.1913 298.634 73.0208 298.782 72.892 298.972C72.767 299.161 72.7008 299.383 72.6932 299.636V301.5C72.6932 301.78 72.7519 302.03 72.8693 302.25C72.9867 302.47 73.1553 302.642 73.375 302.767C73.5947 302.892 73.8598 302.955 74.1705 302.955C74.3864 302.955 74.5833 302.924 74.7614 302.864C74.9432 302.803 75.0985 302.716 75.2273 302.602C75.3561 302.485 75.4508 302.345 75.5114 302.182H78.375C78.2765 302.788 78.0436 303.314 77.6761 303.761C77.3087 304.205 76.822 304.549 76.2159 304.795C75.6136 305.038 74.9091 305.159 74.1023 305.159ZM79.6548 305V296.273H82.6321V297.932H82.723C82.9048 297.386 83.2154 296.955 83.6548 296.636C84.0942 296.318 84.617 296.159 85.223 296.159C85.8366 296.159 86.3651 296.322 86.8082 296.648C87.2514 296.97 87.5185 297.398 87.6094 297.932H87.7003C87.848 297.398 88.1624 296.97 88.6435 296.648C89.1245 296.322 89.6889 296.159 90.3366 296.159C91.1738 296.159 91.8518 296.428 92.3707 296.966C92.8935 297.504 93.1548 298.22 93.1548 299.114V305H90.0185V299.909C90.0185 299.527 89.9219 299.227 89.7287 299.011C89.5355 298.792 89.276 298.682 88.9503 298.682C88.6283 298.682 88.3726 298.792 88.1832 299.011C87.9976 299.227 87.9048 299.527 87.9048 299.909V305H84.9048V299.909C84.9048 299.527 84.8082 299.227 84.6151 299.011C84.4219 298.792 84.1624 298.682 83.8366 298.682C83.6207 298.682 83.4351 298.731 83.2798 298.83C83.1245 298.928 83.0033 299.07 82.9162 299.256C82.8329 299.437 82.7912 299.655 82.7912 299.909V305H79.6548Z" fill="#181818" fill-opacity="0.75"/>
<g filter="url(#filter4_d_129_739)">
<rect x="24" y="39" width="112" height="72" rx="8" fill="white" fill-opacity="0.75" shape-rendering="crispEdges"/>
</g>
<path d="M58.7955 81V72.2727H61.9318V81H58.7955ZM60.3636 71.3636C59.9394 71.3636 59.5758 71.2235 59.2727 70.9432C58.9697 70.6629 58.8182 70.3258 58.8182 69.9318C58.8182 69.5379 58.9697 69.2008 59.2727 68.9205C59.5758 68.6402 59.9394 68.5 60.3636 68.5C60.7917 68.5 61.1553 68.6402 61.4545 68.9205C61.7576 69.2008 61.9091 69.5379 61.9091 69.9318C61.9091 70.3258 61.7576 70.6629 61.4545 70.9432C61.1553 71.2235 60.7917 71.3636 60.3636 71.3636ZM68.7344 72.2727V74.5455H62.9844V72.2727H68.7344ZM64.098 70.1818H67.2344V78.1932C67.2344 78.3144 67.2552 78.4167 67.2969 78.5C67.3385 78.5795 67.4029 78.6402 67.4901 78.6818C67.5772 78.7197 67.6889 78.7386 67.8253 78.7386C67.92 78.7386 68.0298 78.7273 68.1548 78.7045C68.2836 78.6818 68.3783 78.6629 68.4389 78.6477L68.8935 80.8523C68.7533 80.8939 68.5526 80.9451 68.2912 81.0057C68.0336 81.0663 67.7268 81.1061 67.3707 81.125C66.651 81.1629 66.0469 81.089 65.5582 80.9034C65.0696 80.714 64.7022 80.4167 64.456 80.0114C64.2098 79.6061 64.0904 79.0985 64.098 78.4886V70.1818ZM74.1023 81.1591C73.1705 81.1591 72.3674 80.9811 71.6932 80.625C71.0227 80.2652 70.5057 79.75 70.142 79.0795C69.7822 78.4053 69.6023 77.5985 69.6023 76.6591C69.6023 75.7576 69.7841 74.9697 70.1477 74.2955C70.5114 73.6212 71.0246 73.0966 71.6875 72.7216C72.3504 72.3466 73.1326 72.1591 74.0341 72.1591C74.6932 72.1591 75.2898 72.2614 75.8239 72.4659C76.358 72.6705 76.8144 72.9678 77.1932 73.358C77.572 73.7443 77.8636 74.214 78.0682 74.767C78.2727 75.3201 78.375 75.9432 78.375 76.6364V77.3636H70.5795V75.6364H75.4886C75.4848 75.3864 75.4205 75.1667 75.2955 74.9773C75.1742 74.7841 75.0095 74.6345 74.8011 74.5284C74.5966 74.4186 74.3636 74.3636 74.1023 74.3636C73.8485 74.3636 73.6155 74.4186 73.4034 74.5284C73.1913 74.6345 73.0208 74.7822 72.892 74.9716C72.767 75.161 72.7008 75.3826 72.6932 75.6364V77.5C72.6932 77.7803 72.7519 78.0303 72.8693 78.25C72.9867 78.4697 73.1553 78.642 73.375 78.767C73.5947 78.892 73.8598 78.9545 74.1705 78.9545C74.3864 78.9545 74.5833 78.9242 74.7614 78.8636C74.9432 78.803 75.0985 78.7159 75.2273 78.6023C75.3561 78.4848 75.4508 78.3447 75.5114 78.1818H78.375C78.2765 78.7879 78.0436 79.3144 77.6761 79.7614C77.3087 80.2045 76.822 80.5492 76.2159 80.7955C75.6136 81.0379 74.9091 81.1591 74.1023 81.1591ZM79.6548 81V72.2727H82.6321V73.9318H82.723C82.9048 73.3864 83.2154 72.9545 83.6548 72.6364C84.0942 72.3182 84.617 72.1591 85.223 72.1591C85.8366 72.1591 86.3651 72.322 86.8082 72.6477C87.2514 72.9697 87.5185 73.3977 87.6094 73.9318H87.7003C87.848 73.3977 88.1624 72.9697 88.6435 72.6477C89.1245 72.322 89.6889 72.1591 90.3366 72.1591C91.1738 72.1591 91.8518 72.428 92.3707 72.9659C92.8935 73.5038 93.1548 74.2197 93.1548 75.1136V81H90.0185V75.9091C90.0185 75.5265 89.9219 75.2273 89.7287 75.0114C89.5355 74.7917 89.276 74.6818 88.9503 74.6818C88.6283 74.6818 88.3726 74.7917 88.1832 75.0114C87.9976 75.2273 87.9048 75.5265 87.9048 75.9091V81H84.9048V75.9091C84.9048 75.5265 84.8082 75.2273 84.6151 75.0114C84.4219 74.7917 84.1624 74.6818 83.8366 74.6818C83.6207 74.6818 83.4351 74.7311 83.2798 74.8295C83.1245 74.928 83.0033 75.0701 82.9162 75.2557C82.8329 75.4375 82.7912 75.6553 82.7912 75.9091V81H79.6548Z" fill="#181818" fill-opacity="0.75"/>
<g filter="url(#filter5_d_129_739)">
<rect x="248" y="39" width="112" height="72" rx="8" fill="white" fill-opacity="0.75" shape-rendering="crispEdges"/>
</g>
<path d="M282.795 81V72.2727H285.932V81H282.795ZM284.364 71.3636C283.939 71.3636 283.576 71.2235 283.273 70.9432C282.97 70.6629 282.818 70.3258 282.818 69.9318C282.818 69.5379 282.97 69.2008 283.273 68.9205C283.576 68.6402 283.939 68.5 284.364 68.5C284.792 68.5 285.155 68.6402 285.455 68.9205C285.758 69.2008 285.909 69.5379 285.909 69.9318C285.909 70.3258 285.758 70.6629 285.455 70.9432C285.155 71.2235 284.792 71.3636 284.364 71.3636ZM292.734 72.2727V74.5455H286.984V72.2727H292.734ZM288.098 70.1818H291.234V78.1932C291.234 78.3144 291.255 78.4167 291.297 78.5C291.339 78.5795 291.403 78.6402 291.49 78.6818C291.577 78.7197 291.689 78.7386 291.825 78.7386C291.92 78.7386 292.03 78.7273 292.155 78.7045C292.284 78.6818 292.378 78.6629 292.439 78.6477L292.893 80.8523C292.753 80.8939 292.553 80.9451 292.291 81.0057C292.034 81.0663 291.727 81.1061 291.371 81.125C290.651 81.1629 290.047 81.089 289.558 80.9034C289.07 80.714 288.702 80.4167 288.456 80.0114C288.21 79.6061 288.09 79.0985 288.098 78.4886V70.1818ZM298.102 81.1591C297.17 81.1591 296.367 80.9811 295.693 80.625C295.023 80.2652 294.506 79.75 294.142 79.0795C293.782 78.4053 293.602 77.5985 293.602 76.6591C293.602 75.7576 293.784 74.9697 294.148 74.2955C294.511 73.6212 295.025 73.0966 295.688 72.7216C296.35 72.3466 297.133 72.1591 298.034 72.1591C298.693 72.1591 299.29 72.2614 299.824 72.4659C300.358 72.6705 300.814 72.9678 301.193 73.358C301.572 73.7443 301.864 74.214 302.068 74.767C302.273 75.3201 302.375 75.9432 302.375 76.6364V77.3636H294.58V75.6364H299.489C299.485 75.3864 299.42 75.1667 299.295 74.9773C299.174 74.7841 299.009 74.6345 298.801 74.5284C298.597 74.4186 298.364 74.3636 298.102 74.3636C297.848 74.3636 297.616 74.4186 297.403 74.5284C297.191 74.6345 297.021 74.7822 296.892 74.9716C296.767 75.161 296.701 75.3826 296.693 75.6364V77.5C296.693 77.7803 296.752 78.0303 296.869 78.25C296.987 78.4697 297.155 78.642 297.375 78.767C297.595 78.892 297.86 78.9545 298.17 78.9545C298.386 78.9545 298.583 78.9242 298.761 78.8636C298.943 78.803 299.098 78.7159 299.227 78.6023C299.356 78.4848 299.451 78.3447 299.511 78.1818H302.375C302.277 78.7879 302.044 79.3144 301.676 79.7614C301.309 80.2045 300.822 80.5492 300.216 80.7955C299.614 81.0379 298.909 81.1591 298.102 81.1591ZM303.655 81V72.2727H306.632V73.9318H306.723C306.905 73.3864 307.215 72.9545 307.655 72.6364C308.094 72.3182 308.617 72.1591 309.223 72.1591C309.837 72.1591 310.365 72.322 310.808 72.6477C311.251 72.9697 311.518 73.3977 311.609 73.9318H311.7C311.848 73.3977 312.162 72.9697 312.643 72.6477C313.125 72.322 313.689 72.1591 314.337 72.1591C315.174 72.1591 315.852 72.428 316.371 72.9659C316.893 73.5038 317.155 74.2197 317.155 75.1136V81H314.018V75.9091C314.018 75.5265 313.922 75.2273 313.729 75.0114C313.536 74.7917 313.276 74.6818 312.95 74.6818C312.628 74.6818 312.373 74.7917 312.183 75.0114C311.998 75.2273 311.905 75.5265 311.905 75.9091V81H308.905V75.9091C308.905 75.5265 308.808 75.2273 308.615 75.0114C308.422 74.7917 308.162 74.6818 307.837 74.6818C307.621 74.6818 307.435 74.7311 307.28 74.8295C307.125 74.928 307.003 75.0701 306.916 75.2557C306.833 75.4375 306.791 75.6553 306.791 75.9091V81H303.655Z" fill="#181818" fill-opacity="0.75"/>
<g filter="url(#filter6_d_129_739)">
<rect x="136" y="151" width="112" height="72" rx="8" fill="white" fill-opacity="0.75" shape-rendering="crispEdges"/>
</g>
<path d="M170.795 193V184.273H173.932V193H170.795ZM172.364 183.364C171.939 183.364 171.576 183.223 171.273 182.943C170.97 182.663 170.818 182.326 170.818 181.932C170.818 181.538 170.97 181.201 171.273 180.92C171.576 180.64 171.939 180.5 172.364 180.5C172.792 180.5 173.155 180.64 173.455 180.92C173.758 181.201 173.909 181.538 173.909 181.932C173.909 182.326 173.758 182.663 173.455 182.943C173.155 183.223 172.792 183.364 172.364 183.364ZM180.734 184.273V186.545H174.984V184.273H180.734ZM176.098 182.182H179.234V190.193C179.234 190.314 179.255 190.417 179.297 190.5C179.339 190.58 179.403 190.64 179.49 190.682C179.577 190.72 179.689 190.739 179.825 190.739C179.92 190.739 180.03 190.727 180.155 190.705C180.284 190.682 180.378 190.663 180.439 190.648L180.893 192.852C180.753 192.894 180.553 192.945 180.291 193.006C180.034 193.066 179.727 193.106 179.371 193.125C178.651 193.163 178.047 193.089 177.558 192.903C177.07 192.714 176.702 192.417 176.456 192.011C176.21 191.606 176.09 191.098 176.098 190.489V182.182ZM186.102 193.159C185.17 193.159 184.367 192.981 183.693 192.625C183.023 192.265 182.506 191.75 182.142 191.08C181.782 190.405 181.602 189.598 181.602 188.659C181.602 187.758 181.784 186.97 182.148 186.295C182.511 185.621 183.025 185.097 183.688 184.722C184.35 184.347 185.133 184.159 186.034 184.159C186.693 184.159 187.29 184.261 187.824 184.466C188.358 184.67 188.814 184.968 189.193 185.358C189.572 185.744 189.864 186.214 190.068 186.767C190.273 187.32 190.375 187.943 190.375 188.636V189.364H182.58V187.636H187.489C187.485 187.386 187.42 187.167 187.295 186.977C187.174 186.784 187.009 186.634 186.801 186.528C186.597 186.419 186.364 186.364 186.102 186.364C185.848 186.364 185.616 186.419 185.403 186.528C185.191 186.634 185.021 186.782 184.892 186.972C184.767 187.161 184.701 187.383 184.693 187.636V189.5C184.693 189.78 184.752 190.03 184.869 190.25C184.987 190.47 185.155 190.642 185.375 190.767C185.595 190.892 185.86 190.955 186.17 190.955C186.386 190.955 186.583 190.924 186.761 190.864C186.943 190.803 187.098 190.716 187.227 190.602C187.356 190.485 187.451 190.345 187.511 190.182H190.375C190.277 190.788 190.044 191.314 189.676 191.761C189.309 192.205 188.822 192.549 188.216 192.795C187.614 193.038 186.909 193.159 186.102 193.159ZM191.655 193V184.273H194.632V185.932H194.723C194.905 185.386 195.215 184.955 195.655 184.636C196.094 184.318 196.617 184.159 197.223 184.159C197.837 184.159 198.365 184.322 198.808 184.648C199.251 184.97 199.518 185.398 199.609 185.932H199.7C199.848 185.398 200.162 184.97 200.643 184.648C201.125 184.322 201.689 184.159 202.337 184.159C203.174 184.159 203.852 184.428 204.371 184.966C204.893 185.504 205.155 186.22 205.155 187.114V193H202.018V187.909C202.018 187.527 201.922 187.227 201.729 187.011C201.536 186.792 201.276 186.682 200.95 186.682C200.628 186.682 200.373 186.792 200.183 187.011C199.998 187.227 199.905 187.527 199.905 187.909V193H196.905V187.909C196.905 187.527 196.808 187.227 196.615 187.011C196.422 186.792 196.162 186.682 195.837 186.682C195.621 186.682 195.435 186.731 195.28 186.83C195.125 186.928 195.003 187.07 194.916 187.256C194.833 187.437 194.791 187.655 194.791 187.909V193H191.655Z" fill="#181818" fill-opacity="0.75"/>
<g filter="url(#filter7_d_129_739)">
<rect x="24" y="151" width="112" height="72" rx="8" fill="white" fill-opacity="0.75" shape-rendering="crispEdges"/>
</g>
<path d="M58.7955 193V184.273H61.9318V193H58.7955ZM60.3636 183.364C59.9394 183.364 59.5758 183.223 59.2727 182.943C58.9697 182.663 58.8182 182.326 58.8182 181.932C58.8182 181.538 58.9697 181.201 59.2727 180.92C59.5758 180.64 59.9394 180.5 60.3636 180.5C60.7917 180.5 61.1553 180.64 61.4545 180.92C61.7576 181.201 61.9091 181.538 61.9091 181.932C61.9091 182.326 61.7576 182.663 61.4545 182.943C61.1553 183.223 60.7917 183.364 60.3636 183.364ZM68.7344 184.273V186.545H62.9844V184.273H68.7344ZM64.098 182.182H67.2344V190.193C67.2344 190.314 67.2552 190.417 67.2969 190.5C67.3385 190.58 67.4029 190.64 67.4901 190.682C67.5772 190.72 67.6889 190.739 67.8253 190.739C67.92 190.739 68.0298 190.727 68.1548 190.705C68.2836 190.682 68.3783 190.663 68.4389 190.648L68.8935 192.852C68.7533 192.894 68.5526 192.945 68.2912 193.006C68.0336 193.066 67.7268 193.106 67.3707 193.125C66.651 193.163 66.0469 193.089 65.5582 192.903C65.0696 192.714 64.7022 192.417 64.456 192.011C64.2098 191.606 64.0904 191.098 64.098 190.489V182.182ZM74.1023 193.159C73.1705 193.159 72.3674 192.981 71.6932 192.625C71.0227 192.265 70.5057 191.75 70.142 191.08C69.7822 190.405 69.6023 189.598 69.6023 188.659C69.6023 187.758 69.7841 186.97 70.1477 186.295C70.5114 185.621 71.0246 185.097 71.6875 184.722C72.3504 184.347 73.1326 184.159 74.0341 184.159C74.6932 184.159 75.2898 184.261 75.8239 184.466C76.358 184.67 76.8144 184.968 77.1932 185.358C77.572 185.744 77.8636 186.214 78.0682 186.767C78.2727 187.32 78.375 187.943 78.375 188.636V189.364H70.5795V187.636H75.4886C75.4848 187.386 75.4205 187.167 75.2955 186.977C75.1742 186.784 75.0095 186.634 74.8011 186.528C74.5966 186.419 74.3636 186.364 74.1023 186.364C73.8485 186.364 73.6155 186.419 73.4034 186.528C73.1913 186.634 73.0208 186.782 72.892 186.972C72.767 187.161 72.7008 187.383 72.6932 187.636V189.5C72.6932 189.78 72.7519 190.03 72.8693 190.25C72.9867 190.47 73.1553 190.642 73.375 190.767C73.5947 190.892 73.8598 190.955 74.1705 190.955C74.3864 190.955 74.5833 190.924 74.7614 190.864C74.9432 190.803 75.0985 190.716 75.2273 190.602C75.3561 190.485 75.4508 190.345 75.5114 190.182H78.375C78.2765 190.788 78.0436 191.314 77.6761 191.761C77.3087 192.205 76.822 192.549 76.2159 192.795C75.6136 193.038 74.9091 193.159 74.1023 193.159ZM79.6548 193V184.273H82.6321V185.932H82.723C82.9048 185.386 83.2154 184.955 83.6548 184.636C84.0942 184.318 84.617 184.159 85.223 184.159C85.8366 184.159 86.3651 184.322 86.8082 184.648C87.2514 184.97 87.5185 185.398 87.6094 185.932H87.7003C87.848 185.398 88.1624 184.97 88.6435 184.648C89.1245 184.322 89.6889 184.159 90.3366 184.159C91.1738 184.159 91.8518 184.428 92.3707 184.966C92.8935 185.504 93.1548 186.22 93.1548 187.114V193H90.0185V187.909C90.0185 187.527 89.9219 187.227 89.7287 187.011C89.5355 186.792 89.276 186.682 88.9503 186.682C88.6283 186.682 88.3726 186.792 88.1832 187.011C87.9976 187.227 87.9048 187.527 87.9048 187.909V193H84.9048V187.909C84.9048 187.527 84.8082 187.227 84.6151 187.011C84.4219 186.792 84.1624 186.682 83.8366 186.682C83.6207 186.682 83.4351 186.731 83.2798 186.83C83.1245 186.928 83.0033 187.07 82.9162 187.256C82.8329 187.437 82.7912 187.655 82.7912 187.909V193H79.6548Z" fill="#181818" fill-opacity="0.75"/>
<g filter="url(#filter8_d_129_739)">
<rect x="248" y="151" width="112" height="72" rx="8" fill="white" fill-opacity="0.75" shape-rendering="crispEdges"/>
</g>
<path d="M282.795 193V184.273H285.932V193H282.795ZM284.364 183.364C283.939 183.364 283.576 183.223 283.273 182.943C282.97 182.663 282.818 182.326 282.818 181.932C282.818 181.538 282.97 181.201 283.273 180.92C283.576 180.64 283.939 180.5 284.364 180.5C284.792 180.5 285.155 180.64 285.455 180.92C285.758 181.201 285.909 181.538 285.909 181.932C285.909 182.326 285.758 182.663 285.455 182.943C285.155 183.223 284.792 183.364 284.364 183.364ZM292.734 184.273V186.545H286.984V184.273H292.734ZM288.098 182.182H291.234V190.193C291.234 190.314 291.255 190.417 291.297 190.5C291.339 190.58 291.403 190.64 291.49 190.682C291.577 190.72 291.689 190.739 291.825 190.739C291.92 190.739 292.03 190.727 292.155 190.705C292.284 190.682 292.378 190.663 292.439 190.648L292.893 192.852C292.753 192.894 292.553 192.945 292.291 193.006C292.034 193.066 291.727 193.106 291.371 193.125C290.651 193.163 290.047 193.089 289.558 192.903C289.07 192.714 288.702 192.417 288.456 192.011C288.21 191.606 288.09 191.098 288.098 190.489V182.182ZM298.102 193.159C297.17 193.159 296.367 192.981 295.693 192.625C295.023 192.265 294.506 191.75 294.142 191.08C293.782 190.405 293.602 189.598 293.602 188.659C293.602 187.758 293.784 186.97 294.148 186.295C294.511 185.621 295.025 185.097 295.688 184.722C296.35 184.347 297.133 184.159 298.034 184.159C298.693 184.159 299.29 184.261 299.824 184.466C300.358 184.67 300.814 184.968 301.193 185.358C301.572 185.744 301.864 186.214 302.068 186.767C302.273 187.32 302.375 187.943 302.375 188.636V189.364H294.58V187.636H299.489C299.485 187.386 299.42 187.167 299.295 186.977C299.174 186.784 299.009 186.634 298.801 186.528C298.597 186.419 298.364 186.364 298.102 186.364C297.848 186.364 297.616 186.419 297.403 186.528C297.191 186.634 297.021 186.782 296.892 186.972C296.767 187.161 296.701 187.383 296.693 187.636V189.5C296.693 189.78 296.752 190.03 296.869 190.25C296.987 190.47 297.155 190.642 297.375 190.767C297.595 190.892 297.86 190.955 298.17 190.955C298.386 190.955 298.583 190.924 298.761 190.864C298.943 190.803 299.098 190.716 299.227 190.602C299.356 190.485 299.451 190.345 299.511 190.182H302.375C302.277 190.788 302.044 191.314 301.676 191.761C301.309 192.205 300.822 192.549 300.216 192.795C299.614 193.038 298.909 193.159 298.102 193.159ZM303.655 193V184.273H306.632V185.932H306.723C306.905 185.386 307.215 184.955 307.655 184.636C308.094 184.318 308.617 184.159 309.223 184.159C309.837 184.159 310.365 184.322 310.808 184.648C311.251 184.97 311.518 185.398 311.609 185.932H311.7C311.848 185.398 312.162 184.97 312.643 184.648C313.125 184.322 313.689 184.159 314.337 184.159C315.174 184.159 315.852 184.428 316.371 184.966C316.893 185.504 317.155 186.22 317.155 187.114V193H314.018V187.909C314.018 187.527 313.922 187.227 313.729 187.011C313.536 186.792 313.276 186.682 312.95 186.682C312.628 186.682 312.373 186.792 312.183 187.011C311.998 187.227 311.905 187.527 311.905 187.909V193H308.905V187.909C308.905 187.527 308.808 187.227 308.615 187.011C308.422 186.792 308.162 186.682 307.837 186.682C307.621 186.682 307.435 186.731 307.28 186.83C307.125 186.928 307.003 187.07 306.916 187.256C306.833 187.437 306.791 187.655 306.791 187.909V193H303.655Z" fill="#181818" fill-opacity="0.75"/>
<g filter="url(#filter9_d_129_739)">
<rect x="248" y="263" width="112" height="72" rx="8" fill="white" fill-opacity="0.75" shape-rendering="crispEdges"/>
</g>
<path d="M282.795 305V296.273H285.932V305H282.795ZM284.364 295.364C283.939 295.364 283.576 295.223 283.273 294.943C282.97 294.663 282.818 294.326 282.818 293.932C282.818 293.538 282.97 293.201 283.273 292.92C283.576 292.64 283.939 292.5 284.364 292.5C284.792 292.5 285.155 292.64 285.455 292.92C285.758 293.201 285.909 293.538 285.909 293.932C285.909 294.326 285.758 294.663 285.455 294.943C285.155 295.223 284.792 295.364 284.364 295.364ZM292.734 296.273V298.545H286.984V296.273H292.734ZM288.098 294.182H291.234V302.193C291.234 302.314 291.255 302.417 291.297 302.5C291.339 302.58 291.403 302.64 291.49 302.682C291.577 302.72 291.689 302.739 291.825 302.739C291.92 302.739 292.03 302.727 292.155 302.705C292.284 302.682 292.378 302.663 292.439 302.648L292.893 304.852C292.753 304.894 292.553 304.945 292.291 305.006C292.034 305.066 291.727 305.106 291.371 305.125C290.651 305.163 290.047 305.089 289.558 304.903C289.07 304.714 288.702 304.417 288.456 304.011C288.21 303.606 288.09 303.098 288.098 302.489V294.182ZM298.102 305.159C297.17 305.159 296.367 304.981 295.693 304.625C295.023 304.265 294.506 303.75 294.142 303.08C293.782 302.405 293.602 301.598 293.602 300.659C293.602 299.758 293.784 298.97 294.148 298.295C294.511 297.621 295.025 297.097 295.688 296.722C296.35 296.347 297.133 296.159 298.034 296.159C298.693 296.159 299.29 296.261 299.824 296.466C300.358 296.67 300.814 296.968 301.193 297.358C301.572 297.744 301.864 298.214 302.068 298.767C302.273 299.32 302.375 299.943 302.375 300.636V301.364H294.58V299.636H299.489C299.485 299.386 299.42 299.167 299.295 298.977C299.174 298.784 299.009 298.634 298.801 298.528C298.597 298.419 298.364 298.364 298.102 298.364C297.848 298.364 297.616 298.419 297.403 298.528C297.191 298.634 297.021 298.782 296.892 298.972C296.767 299.161 296.701 299.383 296.693 299.636V301.5C296.693 301.78 296.752 302.03 296.869 302.25C296.987 302.47 297.155 302.642 297.375 302.767C297.595 302.892 297.86 302.955 298.17 302.955C298.386 302.955 298.583 302.924 298.761 302.864C298.943 302.803 299.098 302.716 299.227 302.602C299.356 302.485 299.451 302.345 299.511 302.182H302.375C302.277 302.788 302.044 303.314 301.676 303.761C301.309 304.205 300.822 304.549 300.216 304.795C299.614 305.038 298.909 305.159 298.102 305.159ZM303.655 305V296.273H306.632V297.932H306.723C306.905 297.386 307.215 296.955 307.655 296.636C308.094 296.318 308.617 296.159 309.223 296.159C309.837 296.159 310.365 296.322 310.808 296.648C311.251 296.97 311.518 297.398 311.609 297.932H311.7C311.848 297.398 312.162 296.97 312.643 296.648C313.125 296.322 313.689 296.159 314.337 296.159C315.174 296.159 315.852 296.428 316.371 296.966C316.893 297.504 317.155 298.22 317.155 299.114V305H314.018V299.909C314.018 299.527 313.922 299.227 313.729 299.011C313.536 298.792 313.276 298.682 312.95 298.682C312.628 298.682 312.373 298.792 312.183 299.011C311.998 299.227 311.905 299.527 311.905 299.909V305H308.905V299.909C308.905 299.527 308.808 299.227 308.615 299.011C308.422 298.792 308.162 298.682 307.837 298.682C307.621 298.682 307.435 298.731 307.28 298.83C307.125 298.928 307.003 299.07 306.916 299.256C306.833 299.437 306.791 299.655 306.791 299.909V305H303.655Z" fill="#181818" fill-opacity="0.75"/>
<path d="M180.773 21.1136H177.886C177.871 20.9356 177.809 20.7822 177.699 20.6534C177.589 20.5246 177.447 20.4261 177.273 20.358C177.102 20.286 176.913 20.25 176.705 20.25C176.436 20.25 176.205 20.2992 176.011 20.3977C175.818 20.4962 175.723 20.6364 175.727 20.8182C175.723 20.947 175.778 21.0663 175.892 21.1761C176.009 21.286 176.235 21.3712 176.568 21.4318L178.341 21.75C179.235 21.9129 179.9 22.1875 180.335 22.5739C180.775 22.9564 180.996 23.4697 181 24.1136C180.996 24.7348 180.811 25.2746 180.443 25.733C180.08 26.1875 179.581 26.5398 178.949 26.7898C178.32 27.036 177.602 27.1591 176.795 27.1591C175.462 27.1591 174.419 26.8864 173.665 26.3409C172.915 25.7955 172.496 25.0758 172.409 24.1818H175.523C175.564 24.4583 175.701 24.6723 175.932 24.8239C176.167 24.9716 176.462 25.0455 176.818 25.0455C177.106 25.0455 177.343 24.9962 177.528 24.8977C177.718 24.7992 177.814 24.6591 177.818 24.4773C177.814 24.3106 177.731 24.178 177.568 24.0795C177.409 23.9811 177.159 23.9015 176.818 23.8409L175.273 23.5682C174.383 23.4129 173.716 23.1174 173.273 22.6818C172.83 22.2462 172.61 21.6856 172.614 21C172.61 20.3939 172.769 19.8807 173.091 19.4602C173.417 19.036 173.881 18.714 174.483 18.4943C175.089 18.2708 175.807 18.1591 176.636 18.1591C177.898 18.1591 178.892 18.4205 179.619 18.9432C180.35 19.4659 180.735 20.1894 180.773 21.1136ZM187.406 18.2727V20.5455H181.656V18.2727H187.406ZM182.77 16.1818H185.906V24.1932C185.906 24.3144 185.927 24.4167 185.969 24.5C186.01 24.5795 186.075 24.6402 186.162 24.6818C186.249 24.7197 186.361 24.7386 186.497 24.7386C186.592 24.7386 186.702 24.7273 186.827 24.7045C186.955 24.6818 187.05 24.6629 187.111 24.6477L187.565 26.8523C187.425 26.8939 187.224 26.9451 186.963 27.0057C186.705 27.0663 186.399 27.1061 186.043 27.125C185.323 27.1629 184.719 27.089 184.23 26.9034C183.741 26.714 183.374 26.4167 183.128 26.0114C182.882 25.6061 182.762 25.0985 182.77 24.4886V16.1818ZM191.118 27.1364C190.561 27.1364 190.069 27.0455 189.641 26.8636C189.216 26.678 188.883 26.3977 188.641 26.0227C188.398 25.6477 188.277 25.1705 188.277 24.5909C188.277 24.1136 188.358 23.7064 188.521 23.3693C188.684 23.0284 188.911 22.75 189.203 22.5341C189.495 22.3182 189.834 22.1534 190.22 22.0398C190.61 21.9261 191.031 21.8523 191.482 21.8182C191.97 21.7803 192.362 21.7348 192.658 21.6818C192.957 21.625 193.173 21.5473 193.305 21.4489C193.438 21.3466 193.504 21.2121 193.504 21.0455V21.0227C193.504 20.7955 193.417 20.6212 193.243 20.5C193.069 20.3788 192.845 20.3182 192.572 20.3182C192.273 20.3182 192.029 20.3845 191.839 20.517C191.654 20.6458 191.542 20.8447 191.504 21.1136H188.618C188.656 20.5833 188.824 20.0947 189.124 19.6477C189.427 19.197 189.868 18.8371 190.447 18.5682C191.027 18.2955 191.75 18.1591 192.618 18.1591C193.243 18.1591 193.804 18.233 194.3 18.3807C194.796 18.5246 195.218 18.7273 195.567 18.9886C195.915 19.2462 196.18 19.5492 196.362 19.8977C196.548 20.2424 196.641 20.6174 196.641 21.0227V27H193.709V25.7727H193.641C193.466 26.0985 193.254 26.3617 193.004 26.5625C192.758 26.7633 192.476 26.9091 192.158 27C191.843 27.0909 191.497 27.1364 191.118 27.1364ZM192.141 25.1591C192.379 25.1591 192.603 25.1098 192.811 25.0114C193.023 24.9129 193.196 24.7708 193.328 24.5852C193.461 24.3996 193.527 24.1742 193.527 23.9091V23.1818C193.444 23.2159 193.355 23.2481 193.26 23.2784C193.169 23.3087 193.071 23.3371 192.964 23.3636C192.862 23.3902 192.752 23.4148 192.635 23.4375C192.521 23.4602 192.402 23.4811 192.277 23.5C192.035 23.5379 191.836 23.6004 191.68 23.6875C191.529 23.7708 191.415 23.875 191.339 24C191.268 24.1212 191.232 24.2576 191.232 24.4091C191.232 24.6515 191.317 24.8371 191.487 24.9659C191.658 25.0947 191.875 25.1591 192.141 25.1591ZM198.139 27V18.2727H201.185V19.9318H201.276C201.435 19.3182 201.687 18.8693 202.031 18.5852C202.38 18.3011 202.787 18.1591 203.253 18.1591C203.389 18.1591 203.524 18.1705 203.656 18.1932C203.793 18.2121 203.923 18.2405 204.048 18.2784V20.9545C203.893 20.9015 203.702 20.8617 203.474 20.8352C203.247 20.8087 203.052 20.7955 202.889 20.7955C202.582 20.7955 202.306 20.8655 202.06 21.0057C201.817 21.142 201.626 21.3352 201.486 21.5852C201.346 21.8314 201.276 22.1212 201.276 22.4545V27H198.139ZM210.641 18.2727V20.5455H204.891V18.2727H210.641ZM206.004 16.1818H209.141V24.1932C209.141 24.3144 209.161 24.4167 209.203 24.5C209.245 24.5795 209.309 24.6402 209.396 24.6818C209.483 24.7197 209.595 24.7386 209.732 24.7386C209.826 24.7386 209.936 24.7273 210.061 24.7045C210.19 24.6818 210.285 24.6629 210.345 24.6477L210.8 26.8523C210.66 26.8939 210.459 26.9451 210.197 27.0057C209.94 27.0663 209.633 27.1061 209.277 27.125C208.557 27.1629 207.953 27.089 207.464 26.9034C206.976 26.714 206.608 26.4167 206.362 26.0114C206.116 25.6061 205.997 25.0985 206.004 24.4886V16.1818Z" fill="#181818" fill-opacity="0.75"/>
<g filter="url(#filter10_d_129_739)">
<rect x="408" y="4" width="368" height="387" rx="8" fill="#2172FF" fill-opacity="0.8" shape-rendering="crispEdges"/>
</g>
<g filter="url(#filter11_d_129_739)">
<rect x="536" y="303" width="112" height="72" rx="8" fill="white" fill-opacity="0.75" shape-rendering="crispEdges"/>
</g>
<path d="M570.795 345V336.273H573.932V345H570.795ZM572.364 335.364C571.939 335.364 571.576 335.223 571.273 334.943C570.97 334.663 570.818 334.326 570.818 333.932C570.818 333.538 570.97 333.201 571.273 332.92C571.576 332.64 571.939 332.5 572.364 332.5C572.792 332.5 573.155 332.64 573.455 332.92C573.758 333.201 573.909 333.538 573.909 333.932C573.909 334.326 573.758 334.663 573.455 334.943C573.155 335.223 572.792 335.364 572.364 335.364ZM580.734 336.273V338.545H574.984V336.273H580.734ZM576.098 334.182H579.234V342.193C579.234 342.314 579.255 342.417 579.297 342.5C579.339 342.58 579.403 342.64 579.49 342.682C579.577 342.72 579.689 342.739 579.825 342.739C579.92 342.739 580.03 342.727 580.155 342.705C580.284 342.682 580.378 342.663 580.439 342.648L580.893 344.852C580.753 344.894 580.553 344.945 580.291 345.006C580.034 345.066 579.727 345.106 579.371 345.125C578.651 345.163 578.047 345.089 577.558 344.903C577.07 344.714 576.702 344.417 576.456 344.011C576.21 343.606 576.09 343.098 576.098 342.489V334.182ZM586.102 345.159C585.17 345.159 584.367 344.981 583.693 344.625C583.023 344.265 582.506 343.75 582.142 343.08C581.782 342.405 581.602 341.598 581.602 340.659C581.602 339.758 581.784 338.97 582.148 338.295C582.511 337.621 583.025 337.097 583.688 336.722C584.35 336.347 585.133 336.159 586.034 336.159C586.693 336.159 587.29 336.261 587.824 336.466C588.358 336.67 588.814 336.968 589.193 337.358C589.572 337.744 589.864 338.214 590.068 338.767C590.273 339.32 590.375 339.943 590.375 340.636V341.364H582.58V339.636H587.489C587.485 339.386 587.42 339.167 587.295 338.977C587.174 338.784 587.009 338.634 586.801 338.528C586.597 338.419 586.364 338.364 586.102 338.364C585.848 338.364 585.616 338.419 585.403 338.528C585.191 338.634 585.021 338.782 584.892 338.972C584.767 339.161 584.701 339.383 584.693 339.636V341.5C584.693 341.78 584.752 342.03 584.869 342.25C584.987 342.47 585.155 342.642 585.375 342.767C585.595 342.892 585.86 342.955 586.17 342.955C586.386 342.955 586.583 342.924 586.761 342.864C586.943 342.803 587.098 342.716 587.227 342.602C587.356 342.485 587.451 342.345 587.511 342.182H590.375C590.277 342.788 590.044 343.314 589.676 343.761C589.309 344.205 588.822 344.549 588.216 344.795C587.614 345.038 586.909 345.159 586.102 345.159ZM591.655 345V336.273H594.632V337.932H594.723C594.905 337.386 595.215 336.955 595.655 336.636C596.094 336.318 596.617 336.159 597.223 336.159C597.837 336.159 598.365 336.322 598.808 336.648C599.251 336.97 599.518 337.398 599.609 337.932H599.7C599.848 337.398 600.162 336.97 600.643 336.648C601.125 336.322 601.689 336.159 602.337 336.159C603.174 336.159 603.852 336.428 604.371 336.966C604.893 337.504 605.155 338.22 605.155 339.114V345H602.018V339.909C602.018 339.527 601.922 339.227 601.729 339.011C601.536 338.792 601.276 338.682 600.95 338.682C600.628 338.682 600.373 338.792 600.183 339.011C599.998 339.227 599.905 339.527 599.905 339.909V345H596.905V339.909C596.905 339.527 596.808 339.227 596.615 339.011C596.422 338.792 596.162 338.682 595.837 338.682C595.621 338.682 595.435 338.731 595.28 338.83C595.125 338.928 595.003 339.07 594.916 339.256C594.833 339.437 594.791 339.655 594.791 339.909V345H591.655Z" fill="#181818" fill-opacity="0.75"/>
<g filter="url(#filter12_d_129_739)">
<rect x="536" y="79" width="112" height="72" rx="8" fill="white" fill-opacity="0.75" shape-rendering="crispEdges"/>
</g>
<path d="M570.795 121V112.273H573.932V121H570.795ZM572.364 111.364C571.939 111.364 571.576 111.223 571.273 110.943C570.97 110.663 570.818 110.326 570.818 109.932C570.818 109.538 570.97 109.201 571.273 108.92C571.576 108.64 571.939 108.5 572.364 108.5C572.792 108.5 573.155 108.64 573.455 108.92C573.758 109.201 573.909 109.538 573.909 109.932C573.909 110.326 573.758 110.663 573.455 110.943C573.155 111.223 572.792 111.364 572.364 111.364ZM580.734 112.273V114.545H574.984V112.273H580.734ZM576.098 110.182H579.234V118.193C579.234 118.314 579.255 118.417 579.297 118.5C579.339 118.58 579.403 118.64 579.49 118.682C579.577 118.72 579.689 118.739 579.825 118.739C579.92 118.739 580.03 118.727 580.155 118.705C580.284 118.682 580.378 118.663 580.439 118.648L580.893 120.852C580.753 120.894 580.553 120.945 580.291 121.006C580.034 121.066 579.727 121.106 579.371 121.125C578.651 121.163 578.047 121.089 577.558 120.903C577.07 120.714 576.702 120.417 576.456 120.011C576.21 119.606 576.09 119.098 576.098 118.489V110.182ZM586.102 121.159C585.17 121.159 584.367 120.981 583.693 120.625C583.023 120.265 582.506 119.75 582.142 119.08C581.782 118.405 581.602 117.598 581.602 116.659C581.602 115.758 581.784 114.97 582.148 114.295C582.511 113.621 583.025 113.097 583.688 112.722C584.35 112.347 585.133 112.159 586.034 112.159C586.693 112.159 587.29 112.261 587.824 112.466C588.358 112.67 588.814 112.968 589.193 113.358C589.572 113.744 589.864 114.214 590.068 114.767C590.273 115.32 590.375 115.943 590.375 116.636V117.364H582.58V115.636H587.489C587.485 115.386 587.42 115.167 587.295 114.977C587.174 114.784 587.009 114.634 586.801 114.528C586.597 114.419 586.364 114.364 586.102 114.364C585.848 114.364 585.616 114.419 585.403 114.528C585.191 114.634 585.021 114.782 584.892 114.972C584.767 115.161 584.701 115.383 584.693 115.636V117.5C584.693 117.78 584.752 118.03 584.869 118.25C584.987 118.47 585.155 118.642 585.375 118.767C585.595 118.892 585.86 118.955 586.17 118.955C586.386 118.955 586.583 118.924 586.761 118.864C586.943 118.803 587.098 118.716 587.227 118.602C587.356 118.485 587.451 118.345 587.511 118.182H590.375C590.277 118.788 590.044 119.314 589.676 119.761C589.309 120.205 588.822 120.549 588.216 120.795C587.614 121.038 586.909 121.159 586.102 121.159ZM591.655 121V112.273H594.632V113.932H594.723C594.905 113.386 595.215 112.955 595.655 112.636C596.094 112.318 596.617 112.159 597.223 112.159C597.837 112.159 598.365 112.322 598.808 112.648C599.251 112.97 599.518 113.398 599.609 113.932H599.7C599.848 113.398 600.162 112.97 600.643 112.648C601.125 112.322 601.689 112.159 602.337 112.159C603.174 112.159 603.852 112.428 604.371 112.966C604.893 113.504 605.155 114.22 605.155 115.114V121H602.018V115.909C602.018 115.527 601.922 115.227 601.729 115.011C601.536 114.792 601.276 114.682 600.95 114.682C600.628 114.682 600.373 114.792 600.183 115.011C599.998 115.227 599.905 115.527 599.905 115.909V121H596.905V115.909C596.905 115.527 596.808 115.227 596.615 115.011C596.422 114.792 596.162 114.682 595.837 114.682C595.621 114.682 595.435 114.731 595.28 114.83C595.125 114.928 595.003 115.07 594.916 115.256C594.833 115.437 594.791 115.655 594.791 115.909V121H591.655Z" fill="#181818" fill-opacity="0.75"/>
<g filter="url(#filter13_d_129_739)">
<rect x="424" y="303" width="112" height="72" rx="8" fill="white" fill-opacity="0.75" shape-rendering="crispEdges"/>
</g>
<path d="M458.795 345V336.273H461.932V345H458.795ZM460.364 335.364C459.939 335.364 459.576 335.223 459.273 334.943C458.97 334.663 458.818 334.326 458.818 333.932C458.818 333.538 458.97 333.201 459.273 332.92C459.576 332.64 459.939 332.5 460.364 332.5C460.792 332.5 461.155 332.64 461.455 332.92C461.758 333.201 461.909 333.538 461.909 333.932C461.909 334.326 461.758 334.663 461.455 334.943C461.155 335.223 460.792 335.364 460.364 335.364ZM468.734 336.273V338.545H462.984V336.273H468.734ZM464.098 334.182H467.234V342.193C467.234 342.314 467.255 342.417 467.297 342.5C467.339 342.58 467.403 342.64 467.49 342.682C467.577 342.72 467.689 342.739 467.825 342.739C467.92 342.739 468.03 342.727 468.155 342.705C468.284 342.682 468.378 342.663 468.439 342.648L468.893 344.852C468.753 344.894 468.553 344.945 468.291 345.006C468.034 345.066 467.727 345.106 467.371 345.125C466.651 345.163 466.047 345.089 465.558 344.903C465.07 344.714 464.702 344.417 464.456 344.011C464.21 343.606 464.09 343.098 464.098 342.489V334.182ZM474.102 345.159C473.17 345.159 472.367 344.981 471.693 344.625C471.023 344.265 470.506 343.75 470.142 343.08C469.782 342.405 469.602 341.598 469.602 340.659C469.602 339.758 469.784 338.97 470.148 338.295C470.511 337.621 471.025 337.097 471.688 336.722C472.35 336.347 473.133 336.159 474.034 336.159C474.693 336.159 475.29 336.261 475.824 336.466C476.358 336.67 476.814 336.968 477.193 337.358C477.572 337.744 477.864 338.214 478.068 338.767C478.273 339.32 478.375 339.943 478.375 340.636V341.364H470.58V339.636H475.489C475.485 339.386 475.42 339.167 475.295 338.977C475.174 338.784 475.009 338.634 474.801 338.528C474.597 338.419 474.364 338.364 474.102 338.364C473.848 338.364 473.616 338.419 473.403 338.528C473.191 338.634 473.021 338.782 472.892 338.972C472.767 339.161 472.701 339.383 472.693 339.636V341.5C472.693 341.78 472.752 342.03 472.869 342.25C472.987 342.47 473.155 342.642 473.375 342.767C473.595 342.892 473.86 342.955 474.17 342.955C474.386 342.955 474.583 342.924 474.761 342.864C474.943 342.803 475.098 342.716 475.227 342.602C475.356 342.485 475.451 342.345 475.511 342.182H478.375C478.277 342.788 478.044 343.314 477.676 343.761C477.309 344.205 476.822 344.549 476.216 344.795C475.614 345.038 474.909 345.159 474.102 345.159ZM479.655 345V336.273H482.632V337.932H482.723C482.905 337.386 483.215 336.955 483.655 336.636C484.094 336.318 484.617 336.159 485.223 336.159C485.837 336.159 486.365 336.322 486.808 336.648C487.251 336.97 487.518 337.398 487.609 337.932H487.7C487.848 337.398 488.162 336.97 488.643 336.648C489.125 336.322 489.689 336.159 490.337 336.159C491.174 336.159 491.852 336.428 492.371 336.966C492.893 337.504 493.155 338.22 493.155 339.114V345H490.018V339.909C490.018 339.527 489.922 339.227 489.729 339.011C489.536 338.792 489.276 338.682 488.95 338.682C488.628 338.682 488.373 338.792 488.183 339.011C487.998 339.227 487.905 339.527 487.905 339.909V345H484.905V339.909C484.905 339.527 484.808 339.227 484.615 339.011C484.422 338.792 484.162 338.682 483.837 338.682C483.621 338.682 483.435 338.731 483.28 338.83C483.125 338.928 483.003 339.07 482.916 339.256C482.833 339.437 482.791 339.655 482.791 339.909V345H479.655Z" fill="#181818" fill-opacity="0.75"/>
<g filter="url(#filter14_d_129_739)">
<rect x="424" y="79" width="112" height="72" rx="8" fill="white" fill-opacity="0.75" shape-rendering="crispEdges"/>
</g>
<path d="M458.795 121V112.273H461.932V121H458.795ZM460.364 111.364C459.939 111.364 459.576 111.223 459.273 110.943C458.97 110.663 458.818 110.326 458.818 109.932C458.818 109.538 458.97 109.201 459.273 108.92C459.576 108.64 459.939 108.5 460.364 108.5C460.792 108.5 461.155 108.64 461.455 108.92C461.758 109.201 461.909 109.538 461.909 109.932C461.909 110.326 461.758 110.663 461.455 110.943C461.155 111.223 460.792 111.364 460.364 111.364ZM468.734 112.273V114.545H462.984V112.273H468.734ZM464.098 110.182H467.234V118.193C467.234 118.314 467.255 118.417 467.297 118.5C467.339 118.58 467.403 118.64 467.49 118.682C467.577 118.72 467.689 118.739 467.825 118.739C467.92 118.739 468.03 118.727 468.155 118.705C468.284 118.682 468.378 118.663 468.439 118.648L468.893 120.852C468.753 120.894 468.553 120.945 468.291 121.006C468.034 121.066 467.727 121.106 467.371 121.125C466.651 121.163 466.047 121.089 465.558 120.903C465.07 120.714 464.702 120.417 464.456 120.011C464.21 119.606 464.09 119.098 464.098 118.489V110.182ZM474.102 121.159C473.17 121.159 472.367 120.981 471.693 120.625C471.023 120.265 470.506 119.75 470.142 119.08C469.782 118.405 469.602 117.598 469.602 116.659C469.602 115.758 469.784 114.97 470.148 114.295C470.511 113.621 471.025 113.097 471.688 112.722C472.35 112.347 473.133 112.159 474.034 112.159C474.693 112.159 475.29 112.261 475.824 112.466C476.358 112.67 476.814 112.968 477.193 113.358C477.572 113.744 477.864 114.214 478.068 114.767C478.273 115.32 478.375 115.943 478.375 116.636V117.364H470.58V115.636H475.489C475.485 115.386 475.42 115.167 475.295 114.977C475.174 114.784 475.009 114.634 474.801 114.528C474.597 114.419 474.364 114.364 474.102 114.364C473.848 114.364 473.616 114.419 473.403 114.528C473.191 114.634 473.021 114.782 472.892 114.972C472.767 115.161 472.701 115.383 472.693 115.636V117.5C472.693 117.78 472.752 118.03 472.869 118.25C472.987 118.47 473.155 118.642 473.375 118.767C473.595 118.892 473.86 118.955 474.17 118.955C474.386 118.955 474.583 118.924 474.761 118.864C474.943 118.803 475.098 118.716 475.227 118.602C475.356 118.485 475.451 118.345 475.511 118.182H478.375C478.277 118.788 478.044 119.314 477.676 119.761C477.309 120.205 476.822 120.549 476.216 120.795C475.614 121.038 474.909 121.159 474.102 121.159ZM479.655 121V112.273H482.632V113.932H482.723C482.905 113.386 483.215 112.955 483.655 112.636C484.094 112.318 484.617 112.159 485.223 112.159C485.837 112.159 486.365 112.322 486.808 112.648C487.251 112.97 487.518 113.398 487.609 113.932H487.7C487.848 113.398 488.162 112.97 488.643 112.648C489.125 112.322 489.689 112.159 490.337 112.159C491.174 112.159 491.852 112.428 492.371 112.966C492.893 113.504 493.155 114.22 493.155 115.114V121H490.018V115.909C490.018 115.527 489.922 115.227 489.729 115.011C489.536 114.792 489.276 114.682 488.95 114.682C488.628 114.682 488.373 114.792 488.183 115.011C487.998 115.227 487.905 115.527 487.905 115.909V121H484.905V115.909C484.905 115.527 484.808 115.227 484.615 115.011C484.422 114.792 484.162 114.682 483.837 114.682C483.621 114.682 483.435 114.731 483.28 114.83C483.125 114.928 483.003 115.07 482.916 115.256C482.833 115.437 482.791 115.655 482.791 115.909V121H479.655Z" fill="#181818" fill-opacity="0.75"/>
<g filter="url(#filter15_d_129_739)">
<rect x="648" y="79" width="112" height="72" rx="8" fill="white" fill-opacity="0.75" shape-rendering="crispEdges"/>
</g>
<path d="M682.795 121V112.273H685.932V121H682.795ZM684.364 111.364C683.939 111.364 683.576 111.223 683.273 110.943C682.97 110.663 682.818 110.326 682.818 109.932C682.818 109.538 682.97 109.201 683.273 108.92C683.576 108.64 683.939 108.5 684.364 108.5C684.792 108.5 685.155 108.64 685.455 108.92C685.758 109.201 685.909 109.538 685.909 109.932C685.909 110.326 685.758 110.663 685.455 110.943C685.155 111.223 684.792 111.364 684.364 111.364ZM692.734 112.273V114.545H686.984V112.273H692.734ZM688.098 110.182H691.234V118.193C691.234 118.314 691.255 118.417 691.297 118.5C691.339 118.58 691.403 118.64 691.49 118.682C691.577 118.72 691.689 118.739 691.825 118.739C691.92 118.739 692.03 118.727 692.155 118.705C692.284 118.682 692.378 118.663 692.439 118.648L692.893 120.852C692.753 120.894 692.553 120.945 692.291 121.006C692.034 121.066 691.727 121.106 691.371 121.125C690.651 121.163 690.047 121.089 689.558 120.903C689.07 120.714 688.702 120.417 688.456 120.011C688.21 119.606 688.09 119.098 688.098 118.489V110.182ZM698.102 121.159C697.17 121.159 696.367 120.981 695.693 120.625C695.023 120.265 694.506 119.75 694.142 119.08C693.782 118.405 693.602 117.598 693.602 116.659C693.602 115.758 693.784 114.97 694.148 114.295C694.511 113.621 695.025 113.097 695.688 112.722C696.35 112.347 697.133 112.159 698.034 112.159C698.693 112.159 699.29 112.261 699.824 112.466C700.358 112.67 700.814 112.968 701.193 113.358C701.572 113.744 701.864 114.214 702.068 114.767C702.273 115.32 702.375 115.943 702.375 116.636V117.364H694.58V115.636H699.489C699.485 115.386 699.42 115.167 699.295 114.977C699.174 114.784 699.009 114.634 698.801 114.528C698.597 114.419 698.364 114.364 698.102 114.364C697.848 114.364 697.616 114.419 697.403 114.528C697.191 114.634 697.021 114.782 696.892 114.972C696.767 115.161 696.701 115.383 696.693 115.636V117.5C696.693 117.78 696.752 118.03 696.869 118.25C696.987 118.47 697.155 118.642 697.375 118.767C697.595 118.892 697.86 118.955 698.17 118.955C698.386 118.955 698.583 118.924 698.761 118.864C698.943 118.803 699.098 118.716 699.227 118.602C699.356 118.485 699.451 118.345 699.511 118.182H702.375C702.277 118.788 702.044 119.314 701.676 119.761C701.309 120.205 700.822 120.549 700.216 120.795C699.614 121.038 698.909 121.159 698.102 121.159ZM703.655 121V112.273H706.632V113.932H706.723C706.905 113.386 707.215 112.955 707.655 112.636C708.094 112.318 708.617 112.159 709.223 112.159C709.837 112.159 710.365 112.322 710.808 112.648C711.251 112.97 711.518 113.398 711.609 113.932H711.7C711.848 113.398 712.162 112.97 712.643 112.648C713.125 112.322 713.689 112.159 714.337 112.159C715.174 112.159 715.852 112.428 716.371 112.966C716.893 113.504 717.155 114.22 717.155 115.114V121H714.018V115.909C714.018 115.527 713.922 115.227 713.729 115.011C713.536 114.792 713.276 114.682 712.95 114.682C712.628 114.682 712.373 114.792 712.183 115.011C711.998 115.227 711.905 115.527 711.905 115.909V121H708.905V115.909C708.905 115.527 708.808 115.227 708.615 115.011C708.422 114.792 708.162 114.682 707.837 114.682C707.621 114.682 707.435 114.731 707.28 114.83C707.125 114.928 707.003 115.07 706.916 115.256C706.833 115.437 706.791 115.655 706.791 115.909V121H703.655Z" fill="#181818" fill-opacity="0.75"/>
<g filter="url(#filter16_d_129_739)">
<rect x="536" y="191" width="112" height="72" rx="8" fill="white" fill-opacity="0.75" shape-rendering="crispEdges"/>
</g>
<path d="M570.795 233V224.273H573.932V233H570.795ZM572.364 223.364C571.939 223.364 571.576 223.223 571.273 222.943C570.97 222.663 570.818 222.326 570.818 221.932C570.818 221.538 570.97 221.201 571.273 220.92C571.576 220.64 571.939 220.5 572.364 220.5C572.792 220.5 573.155 220.64 573.455 220.92C573.758 221.201 573.909 221.538 573.909 221.932C573.909 222.326 573.758 222.663 573.455 222.943C573.155 223.223 572.792 223.364 572.364 223.364ZM580.734 224.273V226.545H574.984V224.273H580.734ZM576.098 222.182H579.234V230.193C579.234 230.314 579.255 230.417 579.297 230.5C579.339 230.58 579.403 230.64 579.49 230.682C579.577 230.72 579.689 230.739 579.825 230.739C579.92 230.739 580.03 230.727 580.155 230.705C580.284 230.682 580.378 230.663 580.439 230.648L580.893 232.852C580.753 232.894 580.553 232.945 580.291 233.006C580.034 233.066 579.727 233.106 579.371 233.125C578.651 233.163 578.047 233.089 577.558 232.903C577.07 232.714 576.702 232.417 576.456 232.011C576.21 231.606 576.09 231.098 576.098 230.489V222.182ZM586.102 233.159C585.17 233.159 584.367 232.981 583.693 232.625C583.023 232.265 582.506 231.75 582.142 231.08C581.782 230.405 581.602 229.598 581.602 228.659C581.602 227.758 581.784 226.97 582.148 226.295C582.511 225.621 583.025 225.097 583.688 224.722C584.35 224.347 585.133 224.159 586.034 224.159C586.693 224.159 587.29 224.261 587.824 224.466C588.358 224.67 588.814 224.968 589.193 225.358C589.572 225.744 589.864 226.214 590.068 226.767C590.273 227.32 590.375 227.943 590.375 228.636V229.364H582.58V227.636H587.489C587.485 227.386 587.42 227.167 587.295 226.977C587.174 226.784 587.009 226.634 586.801 226.528C586.597 226.419 586.364 226.364 586.102 226.364C585.848 226.364 585.616 226.419 585.403 226.528C585.191 226.634 585.021 226.782 584.892 226.972C584.767 227.161 584.701 227.383 584.693 227.636V229.5C584.693 229.78 584.752 230.03 584.869 230.25C584.987 230.47 585.155 230.642 585.375 230.767C585.595 230.892 585.86 230.955 586.17 230.955C586.386 230.955 586.583 230.924 586.761 230.864C586.943 230.803 587.098 230.716 587.227 230.602C587.356 230.485 587.451 230.345 587.511 230.182H590.375C590.277 230.788 590.044 231.314 589.676 231.761C589.309 232.205 588.822 232.549 588.216 232.795C587.614 233.038 586.909 233.159 586.102 233.159ZM591.655 233V224.273H594.632V225.932H594.723C594.905 225.386 595.215 224.955 595.655 224.636C596.094 224.318 596.617 224.159 597.223 224.159C597.837 224.159 598.365 224.322 598.808 224.648C599.251 224.97 599.518 225.398 599.609 225.932H599.7C599.848 225.398 600.162 224.97 600.643 224.648C601.125 224.322 601.689 224.159 602.337 224.159C603.174 224.159 603.852 224.428 604.371 224.966C604.893 225.504 605.155 226.22 605.155 227.114V233H602.018V227.909C602.018 227.527 601.922 227.227 601.729 227.011C601.536 226.792 601.276 226.682 600.95 226.682C600.628 226.682 600.373 226.792 600.183 227.011C599.998 227.227 599.905 227.527 599.905 227.909V233H596.905V227.909C596.905 227.527 596.808 227.227 596.615 227.011C596.422 226.792 596.162 226.682 595.837 226.682C595.621 226.682 595.435 226.731 595.28 226.83C595.125 226.928 595.003 227.07 594.916 227.256C594.833 227.437 594.791 227.655 594.791 227.909V233H591.655Z" fill="#181818" fill-opacity="0.75"/>
<g filter="url(#filter17_d_129_739)">
<rect x="424" y="191" width="112" height="72" rx="8" fill="white" fill-opacity="0.75" shape-rendering="crispEdges"/>
</g>
<path d="M458.795 233V224.273H461.932V233H458.795ZM460.364 223.364C459.939 223.364 459.576 223.223 459.273 222.943C458.97 222.663 458.818 222.326 458.818 221.932C458.818 221.538 458.97 221.201 459.273 220.92C459.576 220.64 459.939 220.5 460.364 220.5C460.792 220.5 461.155 220.64 461.455 220.92C461.758 221.201 461.909 221.538 461.909 221.932C461.909 222.326 461.758 222.663 461.455 222.943C461.155 223.223 460.792 223.364 460.364 223.364ZM468.734 224.273V226.545H462.984V224.273H468.734ZM464.098 222.182H467.234V230.193C467.234 230.314 467.255 230.417 467.297 230.5C467.339 230.58 467.403 230.64 467.49 230.682C467.577 230.72 467.689 230.739 467.825 230.739C467.92 230.739 468.03 230.727 468.155 230.705C468.284 230.682 468.378 230.663 468.439 230.648L468.893 232.852C468.753 232.894 468.553 232.945 468.291 233.006C468.034 233.066 467.727 233.106 467.371 233.125C466.651 233.163 466.047 233.089 465.558 232.903C465.07 232.714 464.702 232.417 464.456 232.011C464.21 231.606 464.09 231.098 464.098 230.489V222.182ZM474.102 233.159C473.17 233.159 472.367 232.981 471.693 232.625C471.023 232.265 470.506 231.75 470.142 231.08C469.782 230.405 469.602 229.598 469.602 228.659C469.602 227.758 469.784 226.97 470.148 226.295C470.511 225.621 471.025 225.097 471.688 224.722C472.35 224.347 473.133 224.159 474.034 224.159C474.693 224.159 475.29 224.261 475.824 224.466C476.358 224.67 476.814 224.968 477.193 225.358C477.572 225.744 477.864 226.214 478.068 226.767C478.273 227.32 478.375 227.943 478.375 228.636V229.364H470.58V227.636H475.489C475.485 227.386 475.42 227.167 475.295 226.977C475.174 226.784 475.009 226.634 474.801 226.528C474.597 226.419 474.364 226.364 474.102 226.364C473.848 226.364 473.616 226.419 473.403 226.528C473.191 226.634 473.021 226.782 472.892 226.972C472.767 227.161 472.701 227.383 472.693 227.636V229.5C472.693 229.78 472.752 230.03 472.869 230.25C472.987 230.47 473.155 230.642 473.375 230.767C473.595 230.892 473.86 230.955 474.17 230.955C474.386 230.955 474.583 230.924 474.761 230.864C474.943 230.803 475.098 230.716 475.227 230.602C475.356 230.485 475.451 230.345 475.511 230.182H478.375C478.277 230.788 478.044 231.314 477.676 231.761C477.309 232.205 476.822 232.549 476.216 232.795C475.614 233.038 474.909 233.159 474.102 233.159ZM479.655 233V224.273H482.632V225.932H482.723C482.905 225.386 483.215 224.955 483.655 224.636C484.094 224.318 484.617 224.159 485.223 224.159C485.837 224.159 486.365 224.322 486.808 224.648C487.251 224.97 487.518 225.398 487.609 225.932H487.7C487.848 225.398 488.162 224.97 488.643 224.648C489.125 224.322 489.689 224.159 490.337 224.159C491.174 224.159 491.852 224.428 492.371 224.966C492.893 225.504 493.155 226.22 493.155 227.114V233H490.018V227.909C490.018 227.527 489.922 227.227 489.729 227.011C489.536 226.792 489.276 226.682 488.95 226.682C488.628 226.682 488.373 226.792 488.183 227.011C487.998 227.227 487.905 227.527 487.905 227.909V233H484.905V227.909C484.905 227.527 484.808 227.227 484.615 227.011C484.422 226.792 484.162 226.682 483.837 226.682C483.621 226.682 483.435 226.731 483.28 226.83C483.125 226.928 483.003 227.07 482.916 227.256C482.833 227.437 482.791 227.655 482.791 227.909V233H479.655Z" fill="#181818" fill-opacity="0.75"/>
<g filter="url(#filter18_d_129_739)">
<rect x="648" y="191" width="112" height="72" rx="8" fill="white" fill-opacity="0.75" shape-rendering="crispEdges"/>
</g>
<path d="M682.795 233V224.273H685.932V233H682.795ZM684.364 223.364C683.939 223.364 683.576 223.223 683.273 222.943C682.97 222.663 682.818 222.326 682.818 221.932C682.818 221.538 682.97 221.201 683.273 220.92C683.576 220.64 683.939 220.5 684.364 220.5C684.792 220.5 685.155 220.64 685.455 220.92C685.758 221.201 685.909 221.538 685.909 221.932C685.909 222.326 685.758 222.663 685.455 222.943C685.155 223.223 684.792 223.364 684.364 223.364ZM692.734 224.273V226.545H686.984V224.273H692.734ZM688.098 222.182H691.234V230.193C691.234 230.314 691.255 230.417 691.297 230.5C691.339 230.58 691.403 230.64 691.49 230.682C691.577 230.72 691.689 230.739 691.825 230.739C691.92 230.739 692.03 230.727 692.155 230.705C692.284 230.682 692.378 230.663 692.439 230.648L692.893 232.852C692.753 232.894 692.553 232.945 692.291 233.006C692.034 233.066 691.727 233.106 691.371 233.125C690.651 233.163 690.047 233.089 689.558 232.903C689.07 232.714 688.702 232.417 688.456 232.011C688.21 231.606 688.09 231.098 688.098 230.489V222.182ZM698.102 233.159C697.17 233.159 696.367 232.981 695.693 232.625C695.023 232.265 694.506 231.75 694.142 231.08C693.782 230.405 693.602 229.598 693.602 228.659C693.602 227.758 693.784 226.97 694.148 226.295C694.511 225.621 695.025 225.097 695.688 224.722C696.35 224.347 697.133 224.159 698.034 224.159C698.693 224.159 699.29 224.261 699.824 224.466C700.358 224.67 700.814 224.968 701.193 225.358C701.572 225.744 701.864 226.214 702.068 226.767C702.273 227.32 702.375 227.943 702.375 228.636V229.364H694.58V227.636H699.489C699.485 227.386 699.42 227.167 699.295 226.977C699.174 226.784 699.009 226.634 698.801 226.528C698.597 226.419 698.364 226.364 698.102 226.364C697.848 226.364 697.616 226.419 697.403 226.528C697.191 226.634 697.021 226.782 696.892 226.972C696.767 227.161 696.701 227.383 696.693 227.636V229.5C696.693 229.78 696.752 230.03 696.869 230.25C696.987 230.47 697.155 230.642 697.375 230.767C697.595 230.892 697.86 230.955 698.17 230.955C698.386 230.955 698.583 230.924 698.761 230.864C698.943 230.803 699.098 230.716 699.227 230.602C699.356 230.485 699.451 230.345 699.511 230.182H702.375C702.277 230.788 702.044 231.314 701.676 231.761C701.309 232.205 700.822 232.549 700.216 232.795C699.614 233.038 698.909 233.159 698.102 233.159ZM703.655 233V224.273H706.632V225.932H706.723C706.905 225.386 707.215 224.955 707.655 224.636C708.094 224.318 708.617 224.159 709.223 224.159C709.837 224.159 710.365 224.322 710.808 224.648C711.251 224.97 711.518 225.398 711.609 225.932H711.7C711.848 225.398 712.162 224.97 712.643 224.648C713.125 224.322 713.689 224.159 714.337 224.159C715.174 224.159 715.852 224.428 716.371 224.966C716.893 225.504 717.155 226.22 717.155 227.114V233H714.018V227.909C714.018 227.527 713.922 227.227 713.729 227.011C713.536 226.792 713.276 226.682 712.95 226.682C712.628 226.682 712.373 226.792 712.183 227.011C711.998 227.227 711.905 227.527 711.905 227.909V233H708.905V227.909C708.905 227.527 708.808 227.227 708.615 227.011C708.422 226.792 708.162 226.682 707.837 226.682C707.621 226.682 707.435 226.731 707.28 226.83C707.125 226.928 707.003 227.07 706.916 227.256C706.833 227.437 706.791 227.655 706.791 227.909V233H703.655Z" fill="#181818" fill-opacity="0.75"/>
<g filter="url(#filter19_d_129_739)">
<rect x="648" y="303" width="112" height="72" rx="8" fill="white" fill-opacity="0.75" shape-rendering="crispEdges"/>
</g>
<path d="M682.795 345V336.273H685.932V345H682.795ZM684.364 335.364C683.939 335.364 683.576 335.223 683.273 334.943C682.97 334.663 682.818 334.326 682.818 333.932C682.818 333.538 682.97 333.201 683.273 332.92C683.576 332.64 683.939 332.5 684.364 332.5C684.792 332.5 685.155 332.64 685.455 332.92C685.758 333.201 685.909 333.538 685.909 333.932C685.909 334.326 685.758 334.663 685.455 334.943C685.155 335.223 684.792 335.364 684.364 335.364ZM692.734 336.273V338.545H686.984V336.273H692.734ZM688.098 334.182H691.234V342.193C691.234 342.314 691.255 342.417 691.297 342.5C691.339 342.58 691.403 342.64 691.49 342.682C691.577 342.72 691.689 342.739 691.825 342.739C691.92 342.739 692.03 342.727 692.155 342.705C692.284 342.682 692.378 342.663 692.439 342.648L692.893 344.852C692.753 344.894 692.553 344.945 692.291 345.006C692.034 345.066 691.727 345.106 691.371 345.125C690.651 345.163 690.047 345.089 689.558 344.903C689.07 344.714 688.702 344.417 688.456 344.011C688.21 343.606 688.09 343.098 688.098 342.489V334.182ZM698.102 345.159C697.17 345.159 696.367 344.981 695.693 344.625C695.023 344.265 694.506 343.75 694.142 343.08C693.782 342.405 693.602 341.598 693.602 340.659C693.602 339.758 693.784 338.97 694.148 338.295C694.511 337.621 695.025 337.097 695.688 336.722C696.35 336.347 697.133 336.159 698.034 336.159C698.693 336.159 699.29 336.261 699.824 336.466C700.358 336.67 700.814 336.968 701.193 337.358C701.572 337.744 701.864 338.214 702.068 338.767C702.273 339.32 702.375 339.943 702.375 340.636V341.364H694.58V339.636H699.489C699.485 339.386 699.42 339.167 699.295 338.977C699.174 338.784 699.009 338.634 698.801 338.528C698.597 338.419 698.364 338.364 698.102 338.364C697.848 338.364 697.616 338.419 697.403 338.528C697.191 338.634 697.021 338.782 696.892 338.972C696.767 339.161 696.701 339.383 696.693 339.636V341.5C696.693 341.78 696.752 342.03 696.869 342.25C696.987 342.47 697.155 342.642 697.375 342.767C697.595 342.892 697.86 342.955 698.17 342.955C698.386 342.955 698.583 342.924 698.761 342.864C698.943 342.803 699.098 342.716 699.227 342.602C699.356 342.485 699.451 342.345 699.511 342.182H702.375C702.277 342.788 702.044 343.314 701.676 343.761C701.309 344.205 700.822 344.549 700.216 344.795C699.614 345.038 698.909 345.159 698.102 345.159ZM703.655 345V336.273H706.632V337.932H706.723C706.905 337.386 707.215 336.955 707.655 336.636C708.094 336.318 708.617 336.159 709.223 336.159C709.837 336.159 710.365 336.322 710.808 336.648C711.251 336.97 711.518 337.398 711.609 337.932H711.7C711.848 337.398 712.162 336.97 712.643 336.648C713.125 336.322 713.689 336.159 714.337 336.159C715.174 336.159 715.852 336.428 716.371 336.966C716.893 337.504 717.155 338.22 717.155 339.114V345H714.018V339.909C714.018 339.527 713.922 339.227 713.729 339.011C713.536 338.792 713.276 338.682 712.95 338.682C712.628 338.682 712.373 338.792 712.183 339.011C711.998 339.227 711.905 339.527 711.905 339.909V345H708.905V339.909C708.905 339.527 708.808 339.227 708.615 339.011C708.422 338.792 708.162 338.682 707.837 338.682C707.621 338.682 707.435 338.731 707.28 338.83C707.125 338.928 707.003 339.07 706.916 339.256C706.833 339.437 706.791 339.655 706.791 339.909V345H703.655Z" fill="#181818" fill-opacity="0.75"/>
<path d="M581.977 27.1591C581.045 27.1591 580.242 26.9811 579.568 26.625C578.898 26.2652 578.381 25.75 578.017 25.0795C577.657 24.4053 577.477 23.5985 577.477 22.6591C577.477 21.7576 577.659 20.9697 578.023 20.2955C578.386 19.6212 578.9 19.0966 579.562 18.7216C580.225 18.3466 581.008 18.1591 581.909 18.1591C582.568 18.1591 583.165 18.2614 583.699 18.4659C584.233 18.6705 584.689 18.9678 585.068 19.358C585.447 19.7443 585.739 20.214 585.943 20.767C586.148 21.3201 586.25 21.9432 586.25 22.6364V23.3636H578.455V21.6364H583.364C583.36 21.3864 583.295 21.1667 583.17 20.9773C583.049 20.7841 582.884 20.6345 582.676 20.5284C582.472 20.4186 582.239 20.3636 581.977 20.3636C581.723 20.3636 581.491 20.4186 581.278 20.5284C581.066 20.6345 580.896 20.7822 580.767 20.9716C580.642 21.161 580.576 21.3826 580.568 21.6364V23.5C580.568 23.7803 580.627 24.0303 580.744 24.25C580.862 24.4697 581.03 24.642 581.25 24.767C581.47 24.892 581.735 24.9545 582.045 24.9545C582.261 24.9545 582.458 24.9242 582.636 24.8636C582.818 24.803 582.973 24.7159 583.102 24.6023C583.231 24.4848 583.326 24.3447 583.386 24.1818H586.25C586.152 24.7879 585.919 25.3144 585.551 25.7614C585.184 26.2045 584.697 26.5492 584.091 26.7955C583.489 27.0379 582.784 27.1591 581.977 27.1591ZM590.666 22.0909V27H587.53V18.2727H590.507V19.9318H590.598C590.787 19.3788 591.121 18.9451 591.598 18.6307C592.079 18.3163 592.64 18.1591 593.28 18.1591C593.897 18.1591 594.433 18.3011 594.888 18.5852C595.346 18.8655 595.7 19.2519 595.95 19.7443C596.204 20.2367 596.329 20.7992 596.325 21.4318V27H593.189V22.0909C593.193 21.6591 593.083 21.3201 592.859 21.0739C592.64 20.8277 592.333 20.7045 591.939 20.7045C591.681 20.7045 591.456 20.7614 591.263 20.875C591.073 20.9848 590.928 21.1439 590.825 21.3523C590.723 21.5568 590.67 21.803 590.666 22.0909ZM601.033 27.1136C600.411 27.1136 599.839 26.9508 599.317 26.625C598.798 26.2992 598.381 25.8049 598.067 25.142C597.756 24.4792 597.601 23.6439 597.601 22.6364C597.601 21.5833 597.764 20.7273 598.089 20.0682C598.419 19.4091 598.843 18.9261 599.362 18.6193C599.885 18.3125 600.434 18.1591 601.01 18.1591C601.442 18.1591 601.821 18.2348 602.146 18.3864C602.472 18.5341 602.745 18.733 602.964 18.983C603.184 19.2292 603.351 19.5 603.464 19.7955H603.51V15.3636H606.646V27H603.533V25.5682H603.464C603.343 25.8636 603.169 26.1288 602.942 26.3636C602.718 26.5947 602.446 26.7784 602.124 26.9148C601.805 27.0473 601.442 27.1136 601.033 27.1136ZM602.192 24.7045C602.48 24.7045 602.726 24.6212 602.93 24.4545C603.139 24.2841 603.298 24.0455 603.408 23.7386C603.521 23.428 603.578 23.0606 603.578 22.6364C603.578 22.2045 603.521 21.8352 603.408 21.5284C603.298 21.2178 603.139 20.9811 602.93 20.8182C602.726 20.6515 602.48 20.5682 602.192 20.5682C601.904 20.5682 601.658 20.6515 601.453 20.8182C601.252 20.9811 601.097 21.2178 600.987 21.5284C600.881 21.8352 600.828 22.2045 600.828 22.6364C600.828 23.0682 600.881 23.4394 600.987 23.75C601.097 24.0568 601.252 24.2936 601.453 24.4602C601.658 24.6231 601.904 24.7045 602.192 24.7045Z" fill="#181818" fill-opacity="0.75"/>
<defs>
<filter id="filter0_d_129_739" x="0" y="0" width="384" height="403" filterUnits="userSpaceOnUse" color-interpolation-filters="sRGB">
<feFlood flood-opacity="0" result="BackgroundImageFix"/>
<feColorMatrix in="SourceAlpha" type="matrix" values="0 0 0 0 0 0 0 0 0 0 0 0 0 0 0 0 0 0 127 0" result="hardAlpha"/>
<feOffset dy="4"/>
<feGaussianBlur stdDeviation="4"/>
<feComposite in2="hardAlpha" operator="out"/>
<feColorMatrix type="matrix" values="0 0 0 0 0.129412 0 0 0 0 0.447059 0 0 0 0 1 0 0 0 0.25 0"/>
<feBlend mode="normal" in2="BackgroundImageFix" result="effect1_dropShadow_129_739"/>
<feBlend mode="normal" in="SourceGraphic" in2="effect1_dropShadow_129_739" result="shape"/>
</filter>
<filter id="filter1_d_129_739" x="128" y="259" width="128" height="88" filterUnits="userSpaceOnUse" color-interpolation-filters="sRGB">
<feFlood flood-opacity="0" result="BackgroundImageFix"/>
<feColorMatrix in="SourceAlpha" type="matrix" values="0 0 0 0 0 0 0 0 0 0 0 0 0 0 0 0 0 0 127 0" result="hardAlpha"/>
<feOffset dy="4"/>
<feGaussianBlur stdDeviation="4"/>
<feComposite in2="hardAlpha" operator="out"/>
<feColorMatrix type="matrix" values="0 0 0 0 1 0 0 0 0 1 0 0 0 0 1 0 0 0 0.25 0"/>
<feBlend mode="normal" in2="BackgroundImageFix" result="effect1_dropShadow_129_739"/>
<feBlend mode="normal" in="SourceGraphic" in2="effect1_dropShadow_129_739" result="shape"/>
</filter>
<filter id="filter2_d_129_739" x="128" y="35" width="128" height="88" filterUnits="userSpaceOnUse" color-interpolation-filters="sRGB">
<feFlood flood-opacity="0" result="BackgroundImageFix"/>
<feColorMatrix in="SourceAlpha" type="matrix" values="0 0 0 0 0 0 0 0 0 0 0 0 0 0 0 0 0 0 127 0" result="hardAlpha"/>
<feOffset dy="4"/>
<feGaussianBlur stdDeviation="4"/>
<feComposite in2="hardAlpha" operator="out"/>
<feColorMatrix type="matrix" values="0 0 0 0 1 0 0 0 0 1 0 0 0 0 1 0 0 0 0.25 0"/>
<feBlend mode="normal" in2="BackgroundImageFix" result="effect1_dropShadow_129_739"/>
<feBlend mode="normal" in="SourceGraphic" in2="effect1_dropShadow_129_739" result="shape"/>
</filter>
<filter id="filter3_d_129_739" x="16" y="259" width="128" height="88" filterUnits="userSpaceOnUse" color-interpolation-filters="sRGB">
<feFlood flood-opacity="0" result="BackgroundImageFix"/>
<feColorMatrix in="SourceAlpha" type="matrix" values="0 0 0 0 0 0 0 0 0 0 0 0 0 0 0 0 0 0 127 0" result="hardAlpha"/>
<feOffset dy="4"/>
<feGaussianBlur stdDeviation="4"/>
<feComposite in2="hardAlpha" operator="out"/>
<feColorMatrix type="matrix" values="0 0 0 0 1 0 0 0 0 1 0 0 0 0 1 0 0 0 0.25 0"/>
<feBlend mode="normal" in2="BackgroundImageFix" result="effect1_dropShadow_129_739"/>
<feBlend mode="normal" in="SourceGraphic" in2="effect1_dropShadow_129_739" result="shape"/>
</filter>
<filter id="filter4_d_129_739" x="16" y="35" width="128" height="88" filterUnits="userSpaceOnUse" color-interpolation-filters="sRGB">
<feFlood flood-opacity="0" result="BackgroundImageFix"/>
<feColorMatrix in="SourceAlpha" type="matrix" values="0 0 0 0 0 0 0 0 0 0 0 0 0 0 0 0 0 0 127 0" result="hardAlpha"/>
<feOffset dy="4"/>
<feGaussianBlur stdDeviation="4"/>
<feComposite in2="hardAlpha" operator="out"/>
<feColorMatrix type="matrix" values="0 0 0 0 1 0 0 0 0 1 0 0 0 0 1 0 0 0 0.25 0"/>
<feBlend mode="normal" in2="BackgroundImageFix" result="effect1_dropShadow_129_739"/>
<feBlend mode="normal" in="SourceGraphic" in2="effect1_dropShadow_129_739" result="shape"/>
</filter>
<filter id="filter5_d_129_739" x="240" y="35" width="128" height="88" filterUnits="userSpaceOnUse" color-interpolation-filters="sRGB">
<feFlood flood-opacity="0" result="BackgroundImageFix"/>
<feColorMatrix in="SourceAlpha" type="matrix" values="0 0 0 0 0 0 0 0 0 0 0 0 0 0 0 0 0 0 127 0" result="hardAlpha"/>
<feOffset dy="4"/>
<feGaussianBlur stdDeviation="4"/>
<feComposite in2="hardAlpha" operator="out"/>
<feColorMatrix type="matrix" values="0 0 0 0 1 0 0 0 0 1 0 0 0 0 1 0 0 0 0.25 0"/>
<feBlend mode="normal" in2="BackgroundImageFix" result="effect1_dropShadow_129_739"/>
<feBlend mode="normal" in="SourceGraphic" in2="effect1_dropShadow_129_739" result="shape"/>
</filter>
<filter id="filter6_d_129_739" x="128" y="147" width="128" height="88" filterUnits="userSpaceOnUse" color-interpolation-filters="sRGB">
<feFlood flood-opacity="0" result="BackgroundImageFix"/>
<feColorMatrix in="SourceAlpha" type="matrix" values="0 0 0 0 0 0 0 0 0 0 0 0 0 0 0 0 0 0 127 0" result="hardAlpha"/>
<feOffset dy="4"/>
<feGaussianBlur stdDeviation="4"/>
<feComposite in2="hardAlpha" operator="out"/>
<feColorMatrix type="matrix" values="0 0 0 0 1 0 0 0 0 1 0 0 0 0 1 0 0 0 0.25 0"/>
<feBlend mode="normal" in2="BackgroundImageFix" result="effect1_dropShadow_129_739"/>
<feBlend mode="normal" in="SourceGraphic" in2="effect1_dropShadow_129_739" result="shape"/>
</filter>
<filter id="filter7_d_129_739" x="16" y="147" width="128" height="88" filterUnits="userSpaceOnUse" color-interpolation-filters="sRGB">
<feFlood flood-opacity="0" result="BackgroundImageFix"/>
<feColorMatrix in="SourceAlpha" type="matrix" values="0 0 0 0 0 0 0 0 0 0 0 0 0 0 0 0 0 0 127 0" result="hardAlpha"/>
<feOffset dy="4"/>
<feGaussianBlur stdDeviation="4"/>
<feComposite in2="hardAlpha" operator="out"/>
<feColorMatrix type="matrix" values="0 0 0 0 1 0 0 0 0 1 0 0 0 0 1 0 0 0 0.25 0"/>
<feBlend mode="normal" in2="BackgroundImageFix" result="effect1_dropShadow_129_739"/>
<feBlend mode="normal" in="SourceGraphic" in2="effect1_dropShadow_129_739" result="shape"/>
</filter>
<filter id="filter8_d_129_739" x="240" y="147" width="128" height="88" filterUnits="userSpaceOnUse" color-interpolation-filters="sRGB">
<feFlood flood-opacity="0" result="BackgroundImageFix"/>
<feColorMatrix in="SourceAlpha" type="matrix" values="0 0 0 0 0 0 0 0 0 0 0 0 0 0 0 0 0 0 127 0" result="hardAlpha"/>
<feOffset dy="4"/>
<feGaussianBlur stdDeviation="4"/>
<feComposite in2="hardAlpha" operator="out"/>
<feColorMatrix type="matrix" values="0 0 0 0 1 0 0 0 0 1 0 0 0 0 1 0 0 0 0.25 0"/>
<feBlend mode="normal" in2="BackgroundImageFix" result="effect1_dropShadow_129_739"/>
<feBlend mode="normal" in="SourceGraphic" in2="effect1_dropShadow_129_739" result="shape"/>
</filter>
<filter id="filter9_d_129_739" x="240" y="259" width="128" height="88" filterUnits="userSpaceOnUse" color-interpolation-filters="sRGB">
<feFlood flood-opacity="0" result="BackgroundImageFix"/>
<feColorMatrix in="SourceAlpha" type="matrix" values="0 0 0 0 0 0 0 0 0 0 0 0 0 0 0 0 0 0 127 0" result="hardAlpha"/>
<feOffset dy="4"/>
<feGaussianBlur stdDeviation="4"/>
<feComposite in2="hardAlpha" operator="out"/>
<feColorMatrix type="matrix" values="0 0 0 0 1 0 0 0 0 1 0 0 0 0 1 0 0 0 0.25 0"/>
<feBlend mode="normal" in2="BackgroundImageFix" result="effect1_dropShadow_129_739"/>
<feBlend mode="normal" in="SourceGraphic" in2="effect1_dropShadow_129_739" result="shape"/>
</filter>
<filter id="filter10_d_129_739" x="400" y="0" width="384" height="403" filterUnits="userSpaceOnUse" color-interpolation-filters="sRGB">
<feFlood flood-opacity="0" result="BackgroundImageFix"/>
<feColorMatrix in="SourceAlpha" type="matrix" values="0 0 0 0 0 0 0 0 0 0 0 0 0 0 0 0 0 0 127 0" result="hardAlpha"/>
<feOffset dy="4"/>
<feGaussianBlur stdDeviation="4"/>
<feComposite in2="hardAlpha" operator="out"/>
<feColorMatrix type="matrix" values="0 0 0 0 0.129412 0 0 0 0 0.447059 0 0 0 0 1 0 0 0 0.25 0"/>
<feBlend mode="normal" in2="BackgroundImageFix" result="effect1_dropShadow_129_739"/>
<feBlend mode="normal" in="SourceGraphic" in2="effect1_dropShadow_129_739" result="shape"/>
</filter>
<filter id="filter11_d_129_739" x="528" y="299" width="128" height="88" filterUnits="userSpaceOnUse" color-interpolation-filters="sRGB">
<feFlood flood-opacity="0" result="BackgroundImageFix"/>
<feColorMatrix in="SourceAlpha" type="matrix" values="0 0 0 0 0 0 0 0 0 0 0 0 0 0 0 0 0 0 127 0" result="hardAlpha"/>
<feOffset dy="4"/>
<feGaussianBlur stdDeviation="4"/>
<feComposite in2="hardAlpha" operator="out"/>
<feColorMatrix type="matrix" values="0 0 0 0 1 0 0 0 0 1 0 0 0 0 1 0 0 0 0.25 0"/>
<feBlend mode="normal" in2="BackgroundImageFix" result="effect1_dropShadow_129_739"/>
<feBlend mode="normal" in="SourceGraphic" in2="effect1_dropShadow_129_739" result="shape"/>
</filter>
<filter id="filter12_d_129_739" x="528" y="75" width="128" height="88" filterUnits="userSpaceOnUse" color-interpolation-filters="sRGB">
<feFlood flood-opacity="0" result="BackgroundImageFix"/>
<feColorMatrix in="SourceAlpha" type="matrix" values="0 0 0 0 0 0 0 0 0 0 0 0 0 0 0 0 0 0 127 0" result="hardAlpha"/>
<feOffset dy="4"/>
<feGaussianBlur stdDeviation="4"/>
<feComposite in2="hardAlpha" operator="out"/>
<feColorMatrix type="matrix" values="0 0 0 0 1 0 0 0 0 1 0 0 0 0 1 0 0 0 0.25 0"/>
<feBlend mode="normal" in2="BackgroundImageFix" result="effect1_dropShadow_129_739"/>
<feBlend mode="normal" in="SourceGraphic" in2="effect1_dropShadow_129_739" result="shape"/>
</filter>
<filter id="filter13_d_129_739" x="416" y="299" width="128" height="88" filterUnits="userSpaceOnUse" color-interpolation-filters="sRGB">
<feFlood flood-opacity="0" result="BackgroundImageFix"/>
<feColorMatrix in="SourceAlpha" type="matrix" values="0 0 0 0 0 0 0 0 0 0 0 0 0 0 0 0 0 0 127 0" result="hardAlpha"/>
<feOffset dy="4"/>
<feGaussianBlur stdDeviation="4"/>
<feComposite in2="hardAlpha" operator="out"/>
<feColorMatrix type="matrix" values="0 0 0 0 1 0 0 0 0 1 0 0 0 0 1 0 0 0 0.25 0"/>
<feBlend mode="normal" in2="BackgroundImageFix" result="effect1_dropShadow_129_739"/>
<feBlend mode="normal" in="SourceGraphic" in2="effect1_dropShadow_129_739" result="shape"/>
</filter>
<filter id="filter14_d_129_739" x="416" y="75" width="128" height="88" filterUnits="userSpaceOnUse" color-interpolation-filters="sRGB">
<feFlood flood-opacity="0" result="BackgroundImageFix"/>
<feColorMatrix in="SourceAlpha" type="matrix" values="0 0 0 0 0 0 0 0 0 0 0 0 0 0 0 0 0 0 127 0" result="hardAlpha"/>
<feOffset dy="4"/>
<feGaussianBlur stdDeviation="4"/>
<feComposite in2="hardAlpha" operator="out"/>
<feColorMatrix type="matrix" values="0 0 0 0 1 0 0 0 0 1 0 0 0 0 1 0 0 0 0.25 0"/>
<feBlend mode="normal" in2="BackgroundImageFix" result="effect1_dropShadow_129_739"/>
<feBlend mode="normal" in="SourceGraphic" in2="effect1_dropShadow_129_739" result="shape"/>
</filter>
<filter id="filter15_d_129_739" x="640" y="75" width="128" height="88" filterUnits="userSpaceOnUse" color-interpolation-filters="sRGB">
<feFlood flood-opacity="0" result="BackgroundImageFix"/>
<feColorMatrix in="SourceAlpha" type="matrix" values="0 0 0 0 0 0 0 0 0 0 0 0 0 0 0 0 0 0 127 0" result="hardAlpha"/>
<feOffset dy="4"/>
<feGaussianBlur stdDeviation="4"/>
<feComposite in2="hardAlpha" operator="out"/>
<feColorMatrix type="matrix" values="0 0 0 0 1 0 0 0 0 1 0 0 0 0 1 0 0 0 0.25 0"/>
<feBlend mode="normal" in2="BackgroundImageFix" result="effect1_dropShadow_129_739"/>
<feBlend mode="normal" in="SourceGraphic" in2="effect1_dropShadow_129_739" result="shape"/>
</filter>
<filter id="filter16_d_129_739" x="528" y="187" width="128" height="88" filterUnits="userSpaceOnUse" color-interpolation-filters="sRGB">
<feFlood flood-opacity="0" result="BackgroundImageFix"/>
<feColorMatrix in="SourceAlpha" type="matrix" values="0 0 0 0 0 0 0 0 0 0 0 0 0 0 0 0 0 0 127 0" result="hardAlpha"/>
<feOffset dy="4"/>
<feGaussianBlur stdDeviation="4"/>
<feComposite in2="hardAlpha" operator="out"/>
<feColorMatrix type="matrix" values="0 0 0 0 1 0 0 0 0 1 0 0 0 0 1 0 0 0 0.25 0"/>
<feBlend mode="normal" in2="BackgroundImageFix" result="effect1_dropShadow_129_739"/>
<feBlend mode="normal" in="SourceGraphic" in2="effect1_dropShadow_129_739" result="shape"/>
</filter>
<filter id="filter17_d_129_739" x="416" y="187" width="128" height="88" filterUnits="userSpaceOnUse" color-interpolation-filters="sRGB">
<feFlood flood-opacity="0" result="BackgroundImageFix"/>
<feColorMatrix in="SourceAlpha" type="matrix" values="0 0 0 0 0 0 0 0 0 0 0 0 0 0 0 0 0 0 127 0" result="hardAlpha"/>
<feOffset dy="4"/>
<feGaussianBlur stdDeviation="4"/>
<feComposite in2="hardAlpha" operator="out"/>
<feColorMatrix type="matrix" values="0 0 0 0 1 0 0 0 0 1 0 0 0 0 1 0 0 0 0.25 0"/>
<feBlend mode="normal" in2="BackgroundImageFix" result="effect1_dropShadow_129_739"/>
<feBlend mode="normal" in="SourceGraphic" in2="effect1_dropShadow_129_739" result="shape"/>
</filter>
<filter id="filter18_d_129_739" x="640" y="187" width="128" height="88" filterUnits="userSpaceOnUse" color-interpolation-filters="sRGB">
<feFlood flood-opacity="0" result="BackgroundImageFix"/>
<feColorMatrix in="SourceAlpha" type="matrix" values="0 0 0 0 0 0 0 0 0 0 0 0 0 0 0 0 0 0 127 0" result="hardAlpha"/>
<feOffset dy="4"/>
<feGaussianBlur stdDeviation="4"/>
<feComposite in2="hardAlpha" operator="out"/>
<feColorMatrix type="matrix" values="0 0 0 0 1 0 0 0 0 1 0 0 0 0 1 0 0 0 0.25 0"/>
<feBlend mode="normal" in2="BackgroundImageFix" result="effect1_dropShadow_129_739"/>
<feBlend mode="normal" in="SourceGraphic" in2="effect1_dropShadow_129_739" result="shape"/>
</filter>
<filter id="filter19_d_129_739" x="640" y="299" width="128" height="88" filterUnits="userSpaceOnUse" color-interpolation-filters="sRGB">
<feFlood flood-opacity="0" result="BackgroundImageFix"/>
<feColorMatrix in="SourceAlpha" type="matrix" values="0 0 0 0 0 0 0 0 0 0 0 0 0 0 0 0 0 0 127 0" result="hardAlpha"/>
<feOffset dy="4"/>
<feGaussianBlur stdDeviation="4"/>
<feComposite in2="hardAlpha" operator="out"/>
<feColorMatrix type="matrix" values="0 0 0 0 1 0 0 0 0 1 0 0 0 0 1 0 0 0 0.25 0"/>
<feBlend mode="normal" in2="BackgroundImageFix" result="effect1_dropShadow_129_739"/>
<feBlend mode="normal" in="SourceGraphic" in2="effect1_dropShadow_129_739" result="shape"/>
</filter>
</defs>
</svg>
