<svg width="778" height="376" viewBox="0 0 778 376" fill="none" xmlns="http://www.w3.org/2000/svg">
<g filter="url(#filter0_d_128_685)">
<rect x="8" y="4" width="368" height="360" rx="8" fill="#2172FF" fill-opacity="0.8" shape-rendering="crispEdges"/>
</g>
<g filter="url(#filter1_d_128_685)">
<rect x="136" y="244" width="72" height="104" rx="8" fill="white" fill-opacity="0.75" shape-rendering="crispEdges"/>
</g>
<path d="M154.795 302V293.273H157.932V302H154.795ZM156.364 292.364C155.939 292.364 155.576 292.223 155.273 291.943C154.97 291.663 154.818 291.326 154.818 290.932C154.818 290.538 154.97 290.201 155.273 289.92C155.576 289.64 155.939 289.5 156.364 289.5C156.792 289.5 157.155 289.64 157.455 289.92C157.758 290.201 157.909 290.538 157.909 290.932C157.909 291.326 157.758 291.663 157.455 291.943C157.155 292.223 156.792 292.364 156.364 292.364ZM164.734 293.273V295.545H158.984V293.273H164.734ZM160.098 291.182H163.234V299.193C163.234 299.314 163.255 299.417 163.297 299.5C163.339 299.58 163.403 299.64 163.49 299.682C163.577 299.72 163.689 299.739 163.825 299.739C163.92 299.739 164.03 299.727 164.155 299.705C164.284 299.682 164.378 299.663 164.439 299.648L164.893 301.852C164.753 301.894 164.553 301.945 164.291 302.006C164.034 302.066 163.727 302.106 163.371 302.125C162.651 302.163 162.047 302.089 161.558 301.903C161.07 301.714 160.702 301.417 160.456 301.011C160.21 300.606 160.09 300.098 160.098 299.489V291.182ZM170.102 302.159C169.17 302.159 168.367 301.981 167.693 301.625C167.023 301.265 166.506 300.75 166.142 300.08C165.782 299.405 165.602 298.598 165.602 297.659C165.602 296.758 165.784 295.97 166.148 295.295C166.511 294.621 167.025 294.097 167.688 293.722C168.35 293.347 169.133 293.159 170.034 293.159C170.693 293.159 171.29 293.261 171.824 293.466C172.358 293.67 172.814 293.968 173.193 294.358C173.572 294.744 173.864 295.214 174.068 295.767C174.273 296.32 174.375 296.943 174.375 297.636V298.364H166.58V296.636H171.489C171.485 296.386 171.42 296.167 171.295 295.977C171.174 295.784 171.009 295.634 170.801 295.528C170.597 295.419 170.364 295.364 170.102 295.364C169.848 295.364 169.616 295.419 169.403 295.528C169.191 295.634 169.021 295.782 168.892 295.972C168.767 296.161 168.701 296.383 168.693 296.636V298.5C168.693 298.78 168.752 299.03 168.869 299.25C168.987 299.47 169.155 299.642 169.375 299.767C169.595 299.892 169.86 299.955 170.17 299.955C170.386 299.955 170.583 299.924 170.761 299.864C170.943 299.803 171.098 299.716 171.227 299.602C171.356 299.485 171.451 299.345 171.511 299.182H174.375C174.277 299.788 174.044 300.314 173.676 300.761C173.309 301.205 172.822 301.549 172.216 301.795C171.614 302.038 170.909 302.159 170.102 302.159ZM175.655 302V293.273H178.632V294.932H178.723C178.905 294.386 179.215 293.955 179.655 293.636C180.094 293.318 180.617 293.159 181.223 293.159C181.837 293.159 182.365 293.322 182.808 293.648C183.251 293.97 183.518 294.398 183.609 294.932H183.7C183.848 294.398 184.162 293.97 184.643 293.648C185.125 293.322 185.689 293.159 186.337 293.159C187.174 293.159 187.852 293.428 188.371 293.966C188.893 294.504 189.155 295.22 189.155 296.114V302H186.018V296.909C186.018 296.527 185.922 296.227 185.729 296.011C185.536 295.792 185.276 295.682 184.95 295.682C184.628 295.682 184.373 295.792 184.183 296.011C183.998 296.227 183.905 296.527 183.905 296.909V302H180.905V296.909C180.905 296.527 180.808 296.227 180.615 296.011C180.422 295.792 180.162 295.682 179.837 295.682C179.621 295.682 179.435 295.731 179.28 295.83C179.125 295.928 179.003 296.07 178.916 296.256C178.833 296.437 178.791 296.655 178.791 296.909V302H175.655Z" fill="#181818" fill-opacity="0.75"/>
<g filter="url(#filter2_d_128_685)">
<rect x="136" y="36" width="72" height="104" rx="8" fill="white" fill-opacity="0.75" shape-rendering="crispEdges"/>
</g>
<path d="M154.795 94V85.2727H157.932V94H154.795ZM156.364 84.3636C155.939 84.3636 155.576 84.2235 155.273 83.9432C154.97 83.6629 154.818 83.3258 154.818 82.9318C154.818 82.5379 154.97 82.2008 155.273 81.9205C155.576 81.6402 155.939 81.5 156.364 81.5C156.792 81.5 157.155 81.6402 157.455 81.9205C157.758 82.2008 157.909 82.5379 157.909 82.9318C157.909 83.3258 157.758 83.6629 157.455 83.9432C157.155 84.2235 156.792 84.3636 156.364 84.3636ZM164.734 85.2727V87.5455H158.984V85.2727H164.734ZM160.098 83.1818H163.234V91.1932C163.234 91.3144 163.255 91.4167 163.297 91.5C163.339 91.5795 163.403 91.6402 163.49 91.6818C163.577 91.7197 163.689 91.7386 163.825 91.7386C163.92 91.7386 164.03 91.7273 164.155 91.7045C164.284 91.6818 164.378 91.6629 164.439 91.6477L164.893 93.8523C164.753 93.8939 164.553 93.9451 164.291 94.0057C164.034 94.0663 163.727 94.1061 163.371 94.125C162.651 94.1629 162.047 94.089 161.558 93.9034C161.07 93.714 160.702 93.4167 160.456 93.0114C160.21 92.6061 160.09 92.0985 160.098 91.4886V83.1818ZM170.102 94.1591C169.17 94.1591 168.367 93.9811 167.693 93.625C167.023 93.2652 166.506 92.75 166.142 92.0795C165.782 91.4053 165.602 90.5985 165.602 89.6591C165.602 88.7576 165.784 87.9697 166.148 87.2955C166.511 86.6212 167.025 86.0966 167.688 85.7216C168.35 85.3466 169.133 85.1591 170.034 85.1591C170.693 85.1591 171.29 85.2614 171.824 85.4659C172.358 85.6705 172.814 85.9678 173.193 86.358C173.572 86.7443 173.864 87.214 174.068 87.767C174.273 88.3201 174.375 88.9432 174.375 89.6364V90.3636H166.58V88.6364H171.489C171.485 88.3864 171.42 88.1667 171.295 87.9773C171.174 87.7841 171.009 87.6345 170.801 87.5284C170.597 87.4186 170.364 87.3636 170.102 87.3636C169.848 87.3636 169.616 87.4186 169.403 87.5284C169.191 87.6345 169.021 87.7822 168.892 87.9716C168.767 88.161 168.701 88.3826 168.693 88.6364V90.5C168.693 90.7803 168.752 91.0303 168.869 91.25C168.987 91.4697 169.155 91.642 169.375 91.767C169.595 91.892 169.86 91.9545 170.17 91.9545C170.386 91.9545 170.583 91.9242 170.761 91.8636C170.943 91.803 171.098 91.7159 171.227 91.6023C171.356 91.4848 171.451 91.3447 171.511 91.1818H174.375C174.277 91.7879 174.044 92.3144 173.676 92.7614C173.309 93.2045 172.822 93.5492 172.216 93.7955C171.614 94.0379 170.909 94.1591 170.102 94.1591ZM175.655 94V85.2727H178.632V86.9318H178.723C178.905 86.3864 179.215 85.9545 179.655 85.6364C180.094 85.3182 180.617 85.1591 181.223 85.1591C181.837 85.1591 182.365 85.322 182.808 85.6477C183.251 85.9697 183.518 86.3977 183.609 86.9318H183.7C183.848 86.3977 184.162 85.9697 184.643 85.6477C185.125 85.322 185.689 85.1591 186.337 85.1591C187.174 85.1591 187.852 85.428 188.371 85.9659C188.893 86.5038 189.155 87.2197 189.155 88.1136V94H186.018V88.9091C186.018 88.5265 185.922 88.2273 185.729 88.0114C185.536 87.7917 185.276 87.6818 184.95 87.6818C184.628 87.6818 184.373 87.7917 184.183 88.0114C183.998 88.2273 183.905 88.5265 183.905 88.9091V94H180.905V88.9091C180.905 88.5265 180.808 88.2273 180.615 88.0114C180.422 87.7917 180.162 87.6818 179.837 87.6818C179.621 87.6818 179.435 87.7311 179.28 87.8295C179.125 87.928 179.003 88.0701 178.916 88.2557C178.833 88.4375 178.791 88.6553 178.791 88.9091V94H175.655Z" fill="#181818" fill-opacity="0.75"/>
<g filter="url(#filter3_d_128_685)">
<rect x="24" y="244" width="72" height="104" rx="8" fill="white" fill-opacity="0.75" shape-rendering="crispEdges"/>
</g>
<path d="M42.7955 302V293.273H45.9318V302H42.7955ZM44.3636 292.364C43.9394 292.364 43.5758 292.223 43.2727 291.943C42.9697 291.663 42.8182 291.326 42.8182 290.932C42.8182 290.538 42.9697 290.201 43.2727 289.92C43.5758 289.64 43.9394 289.5 44.3636 289.5C44.7917 289.5 45.1553 289.64 45.4545 289.92C45.7576 290.201 45.9091 290.538 45.9091 290.932C45.9091 291.326 45.7576 291.663 45.4545 291.943C45.1553 292.223 44.7917 292.364 44.3636 292.364ZM52.7344 293.273V295.545H46.9844V293.273H52.7344ZM48.098 291.182H51.2344V299.193C51.2344 299.314 51.2552 299.417 51.2969 299.5C51.3385 299.58 51.4029 299.64 51.4901 299.682C51.5772 299.72 51.6889 299.739 51.8253 299.739C51.92 299.739 52.0298 299.727 52.1548 299.705C52.2836 299.682 52.3783 299.663 52.4389 299.648L52.8935 301.852C52.7533 301.894 52.5526 301.945 52.2912 302.006C52.0336 302.066 51.7268 302.106 51.3707 302.125C50.651 302.163 50.0469 302.089 49.5582 301.903C49.0696 301.714 48.7022 301.417 48.456 301.011C48.2098 300.606 48.0904 300.098 48.098 299.489V291.182ZM58.1023 302.159C57.1705 302.159 56.3674 301.981 55.6932 301.625C55.0227 301.265 54.5057 300.75 54.142 300.08C53.7822 299.405 53.6023 298.598 53.6023 297.659C53.6023 296.758 53.7841 295.97 54.1477 295.295C54.5114 294.621 55.0246 294.097 55.6875 293.722C56.3504 293.347 57.1326 293.159 58.0341 293.159C58.6932 293.159 59.2898 293.261 59.8239 293.466C60.358 293.67 60.8144 293.968 61.1932 294.358C61.572 294.744 61.8636 295.214 62.0682 295.767C62.2727 296.32 62.375 296.943 62.375 297.636V298.364H54.5795V296.636H59.4886C59.4848 296.386 59.4205 296.167 59.2955 295.977C59.1742 295.784 59.0095 295.634 58.8011 295.528C58.5966 295.419 58.3636 295.364 58.1023 295.364C57.8485 295.364 57.6155 295.419 57.4034 295.528C57.1913 295.634 57.0208 295.782 56.892 295.972C56.767 296.161 56.7008 296.383 56.6932 296.636V298.5C56.6932 298.78 56.7519 299.03 56.8693 299.25C56.9867 299.47 57.1553 299.642 57.375 299.767C57.5947 299.892 57.8598 299.955 58.1705 299.955C58.3864 299.955 58.5833 299.924 58.7614 299.864C58.9432 299.803 59.0985 299.716 59.2273 299.602C59.3561 299.485 59.4508 299.345 59.5114 299.182H62.375C62.2765 299.788 62.0436 300.314 61.6761 300.761C61.3087 301.205 60.822 301.549 60.2159 301.795C59.6136 302.038 58.9091 302.159 58.1023 302.159ZM63.6548 302V293.273H66.6321V294.932H66.723C66.9048 294.386 67.2154 293.955 67.6548 293.636C68.0942 293.318 68.617 293.159 69.223 293.159C69.8366 293.159 70.3651 293.322 70.8082 293.648C71.2514 293.97 71.5185 294.398 71.6094 294.932H71.7003C71.848 294.398 72.1624 293.97 72.6435 293.648C73.1245 293.322 73.6889 293.159 74.3366 293.159C75.1738 293.159 75.8518 293.428 76.3707 293.966C76.8935 294.504 77.1548 295.22 77.1548 296.114V302H74.0185V296.909C74.0185 296.527 73.9219 296.227 73.7287 296.011C73.5355 295.792 73.276 295.682 72.9503 295.682C72.6283 295.682 72.3726 295.792 72.1832 296.011C71.9976 296.227 71.9048 296.527 71.9048 296.909V302H68.9048V296.909C68.9048 296.527 68.8082 296.227 68.6151 296.011C68.4219 295.792 68.1624 295.682 67.8366 295.682C67.6207 295.682 67.4351 295.731 67.2798 295.83C67.1245 295.928 67.0033 296.07 66.9162 296.256C66.8329 296.437 66.7912 296.655 66.7912 296.909V302H63.6548Z" fill="#181818" fill-opacity="0.75"/>
<g filter="url(#filter4_d_128_685)">
<rect x="24" y="36" width="72" height="104" rx="8" fill="white" fill-opacity="0.75" shape-rendering="crispEdges"/>
</g>
<path d="M42.7955 94V85.2727H45.9318V94H42.7955ZM44.3636 84.3636C43.9394 84.3636 43.5758 84.2235 43.2727 83.9432C42.9697 83.6629 42.8182 83.3258 42.8182 82.9318C42.8182 82.5379 42.9697 82.2008 43.2727 81.9205C43.5758 81.6402 43.9394 81.5 44.3636 81.5C44.7917 81.5 45.1553 81.6402 45.4545 81.9205C45.7576 82.2008 45.9091 82.5379 45.9091 82.9318C45.9091 83.3258 45.7576 83.6629 45.4545 83.9432C45.1553 84.2235 44.7917 84.3636 44.3636 84.3636ZM52.7344 85.2727V87.5455H46.9844V85.2727H52.7344ZM48.098 83.1818H51.2344V91.1932C51.2344 91.3144 51.2552 91.4167 51.2969 91.5C51.3385 91.5795 51.4029 91.6402 51.4901 91.6818C51.5772 91.7197 51.6889 91.7386 51.8253 91.7386C51.92 91.7386 52.0298 91.7273 52.1548 91.7045C52.2836 91.6818 52.3783 91.6629 52.4389 91.6477L52.8935 93.8523C52.7533 93.8939 52.5526 93.9451 52.2912 94.0057C52.0336 94.0663 51.7268 94.1061 51.3707 94.125C50.651 94.1629 50.0469 94.089 49.5582 93.9034C49.0696 93.714 48.7022 93.4167 48.456 93.0114C48.2098 92.6061 48.0904 92.0985 48.098 91.4886V83.1818ZM58.1023 94.1591C57.1705 94.1591 56.3674 93.9811 55.6932 93.625C55.0227 93.2652 54.5057 92.75 54.142 92.0795C53.7822 91.4053 53.6023 90.5985 53.6023 89.6591C53.6023 88.7576 53.7841 87.9697 54.1477 87.2955C54.5114 86.6212 55.0246 86.0966 55.6875 85.7216C56.3504 85.3466 57.1326 85.1591 58.0341 85.1591C58.6932 85.1591 59.2898 85.2614 59.8239 85.4659C60.358 85.6705 60.8144 85.9678 61.1932 86.358C61.572 86.7443 61.8636 87.214 62.0682 87.767C62.2727 88.3201 62.375 88.9432 62.375 89.6364V90.3636H54.5795V88.6364H59.4886C59.4848 88.3864 59.4205 88.1667 59.2955 87.9773C59.1742 87.7841 59.0095 87.6345 58.8011 87.5284C58.5966 87.4186 58.3636 87.3636 58.1023 87.3636C57.8485 87.3636 57.6155 87.4186 57.4034 87.5284C57.1913 87.6345 57.0208 87.7822 56.892 87.9716C56.767 88.161 56.7008 88.3826 56.6932 88.6364V90.5C56.6932 90.7803 56.7519 91.0303 56.8693 91.25C56.9867 91.4697 57.1553 91.642 57.375 91.767C57.5947 91.892 57.8598 91.9545 58.1705 91.9545C58.3864 91.9545 58.5833 91.9242 58.7614 91.8636C58.9432 91.803 59.0985 91.7159 59.2273 91.6023C59.3561 91.4848 59.4508 91.3447 59.5114 91.1818H62.375C62.2765 91.7879 62.0436 92.3144 61.6761 92.7614C61.3087 93.2045 60.822 93.5492 60.2159 93.7955C59.6136 94.0379 58.9091 94.1591 58.1023 94.1591ZM63.6548 94V85.2727H66.6321V86.9318H66.723C66.9048 86.3864 67.2154 85.9545 67.6548 85.6364C68.0942 85.3182 68.617 85.1591 69.223 85.1591C69.8366 85.1591 70.3651 85.322 70.8082 85.6477C71.2514 85.9697 71.5185 86.3977 71.6094 86.9318H71.7003C71.848 86.3977 72.1624 85.9697 72.6435 85.6477C73.1245 85.322 73.6889 85.1591 74.3366 85.1591C75.1738 85.1591 75.8518 85.428 76.3707 85.9659C76.8935 86.5038 77.1548 87.2197 77.1548 88.1136V94H74.0185V88.9091C74.0185 88.5265 73.9219 88.2273 73.7287 88.0114C73.5355 87.7917 73.276 87.6818 72.9503 87.6818C72.6283 87.6818 72.3726 87.7917 72.1832 88.0114C71.9976 88.2273 71.9048 88.5265 71.9048 88.9091V94H68.9048V88.9091C68.9048 88.5265 68.8082 88.2273 68.6151 88.0114C68.4219 87.7917 68.1624 87.6818 67.8366 87.6818C67.6207 87.6818 67.4351 87.7311 67.2798 87.8295C67.1245 87.928 67.0033 88.0701 66.9162 88.2557C66.8329 88.4375 66.7912 88.6553 66.7912 88.9091V94H63.6548Z" fill="#181818" fill-opacity="0.75"/>
<g filter="url(#filter5_d_128_685)">
<rect x="248" y="36" width="72" height="104" rx="8" fill="white" fill-opacity="0.75" shape-rendering="crispEdges"/>
</g>
<path d="M266.795 94V85.2727H269.932V94H266.795ZM268.364 84.3636C267.939 84.3636 267.576 84.2235 267.273 83.9432C266.97 83.6629 266.818 83.3258 266.818 82.9318C266.818 82.5379 266.97 82.2008 267.273 81.9205C267.576 81.6402 267.939 81.5 268.364 81.5C268.792 81.5 269.155 81.6402 269.455 81.9205C269.758 82.2008 269.909 82.5379 269.909 82.9318C269.909 83.3258 269.758 83.6629 269.455 83.9432C269.155 84.2235 268.792 84.3636 268.364 84.3636ZM276.734 85.2727V87.5455H270.984V85.2727H276.734ZM272.098 83.1818H275.234V91.1932C275.234 91.3144 275.255 91.4167 275.297 91.5C275.339 91.5795 275.403 91.6402 275.49 91.6818C275.577 91.7197 275.689 91.7386 275.825 91.7386C275.92 91.7386 276.03 91.7273 276.155 91.7045C276.284 91.6818 276.378 91.6629 276.439 91.6477L276.893 93.8523C276.753 93.8939 276.553 93.9451 276.291 94.0057C276.034 94.0663 275.727 94.1061 275.371 94.125C274.651 94.1629 274.047 94.089 273.558 93.9034C273.07 93.714 272.702 93.4167 272.456 93.0114C272.21 92.6061 272.09 92.0985 272.098 91.4886V83.1818ZM282.102 94.1591C281.17 94.1591 280.367 93.9811 279.693 93.625C279.023 93.2652 278.506 92.75 278.142 92.0795C277.782 91.4053 277.602 90.5985 277.602 89.6591C277.602 88.7576 277.784 87.9697 278.148 87.2955C278.511 86.6212 279.025 86.0966 279.688 85.7216C280.35 85.3466 281.133 85.1591 282.034 85.1591C282.693 85.1591 283.29 85.2614 283.824 85.4659C284.358 85.6705 284.814 85.9678 285.193 86.358C285.572 86.7443 285.864 87.214 286.068 87.767C286.273 88.3201 286.375 88.9432 286.375 89.6364V90.3636H278.58V88.6364H283.489C283.485 88.3864 283.42 88.1667 283.295 87.9773C283.174 87.7841 283.009 87.6345 282.801 87.5284C282.597 87.4186 282.364 87.3636 282.102 87.3636C281.848 87.3636 281.616 87.4186 281.403 87.5284C281.191 87.6345 281.021 87.7822 280.892 87.9716C280.767 88.161 280.701 88.3826 280.693 88.6364V90.5C280.693 90.7803 280.752 91.0303 280.869 91.25C280.987 91.4697 281.155 91.642 281.375 91.767C281.595 91.892 281.86 91.9545 282.17 91.9545C282.386 91.9545 282.583 91.9242 282.761 91.8636C282.943 91.803 283.098 91.7159 283.227 91.6023C283.356 91.4848 283.451 91.3447 283.511 91.1818H286.375C286.277 91.7879 286.044 92.3144 285.676 92.7614C285.309 93.2045 284.822 93.5492 284.216 93.7955C283.614 94.0379 282.909 94.1591 282.102 94.1591ZM287.655 94V85.2727H290.632V86.9318H290.723C290.905 86.3864 291.215 85.9545 291.655 85.6364C292.094 85.3182 292.617 85.1591 293.223 85.1591C293.837 85.1591 294.365 85.322 294.808 85.6477C295.251 85.9697 295.518 86.3977 295.609 86.9318H295.7C295.848 86.3977 296.162 85.9697 296.643 85.6477C297.125 85.322 297.689 85.1591 298.337 85.1591C299.174 85.1591 299.852 85.428 300.371 85.9659C300.893 86.5038 301.155 87.2197 301.155 88.1136V94H298.018V88.9091C298.018 88.5265 297.922 88.2273 297.729 88.0114C297.536 87.7917 297.276 87.6818 296.95 87.6818C296.628 87.6818 296.373 87.7917 296.183 88.0114C295.998 88.2273 295.905 88.5265 295.905 88.9091V94H292.905V88.9091C292.905 88.5265 292.808 88.2273 292.615 88.0114C292.422 87.7917 292.162 87.6818 291.837 87.6818C291.621 87.6818 291.435 87.7311 291.28 87.8295C291.125 87.928 291.003 88.0701 290.916 88.2557C290.833 88.4375 290.791 88.6553 290.791 88.9091V94H287.655Z" fill="#181818" fill-opacity="0.75"/>
<g filter="url(#filter6_d_128_685)">
<rect x="136" y="140" width="72" height="104" rx="8" fill="white" fill-opacity="0.75" shape-rendering="crispEdges"/>
</g>
<path d="M154.795 198V189.273H157.932V198H154.795ZM156.364 188.364C155.939 188.364 155.576 188.223 155.273 187.943C154.97 187.663 154.818 187.326 154.818 186.932C154.818 186.538 154.97 186.201 155.273 185.92C155.576 185.64 155.939 185.5 156.364 185.5C156.792 185.5 157.155 185.64 157.455 185.92C157.758 186.201 157.909 186.538 157.909 186.932C157.909 187.326 157.758 187.663 157.455 187.943C157.155 188.223 156.792 188.364 156.364 188.364ZM164.734 189.273V191.545H158.984V189.273H164.734ZM160.098 187.182H163.234V195.193C163.234 195.314 163.255 195.417 163.297 195.5C163.339 195.58 163.403 195.64 163.49 195.682C163.577 195.72 163.689 195.739 163.825 195.739C163.92 195.739 164.03 195.727 164.155 195.705C164.284 195.682 164.378 195.663 164.439 195.648L164.893 197.852C164.753 197.894 164.553 197.945 164.291 198.006C164.034 198.066 163.727 198.106 163.371 198.125C162.651 198.163 162.047 198.089 161.558 197.903C161.07 197.714 160.702 197.417 160.456 197.011C160.21 196.606 160.09 196.098 160.098 195.489V187.182ZM170.102 198.159C169.17 198.159 168.367 197.981 167.693 197.625C167.023 197.265 166.506 196.75 166.142 196.08C165.782 195.405 165.602 194.598 165.602 193.659C165.602 192.758 165.784 191.97 166.148 191.295C166.511 190.621 167.025 190.097 167.688 189.722C168.35 189.347 169.133 189.159 170.034 189.159C170.693 189.159 171.29 189.261 171.824 189.466C172.358 189.67 172.814 189.968 173.193 190.358C173.572 190.744 173.864 191.214 174.068 191.767C174.273 192.32 174.375 192.943 174.375 193.636V194.364H166.58V192.636H171.489C171.485 192.386 171.42 192.167 171.295 191.977C171.174 191.784 171.009 191.634 170.801 191.528C170.597 191.419 170.364 191.364 170.102 191.364C169.848 191.364 169.616 191.419 169.403 191.528C169.191 191.634 169.021 191.782 168.892 191.972C168.767 192.161 168.701 192.383 168.693 192.636V194.5C168.693 194.78 168.752 195.03 168.869 195.25C168.987 195.47 169.155 195.642 169.375 195.767C169.595 195.892 169.86 195.955 170.17 195.955C170.386 195.955 170.583 195.924 170.761 195.864C170.943 195.803 171.098 195.716 171.227 195.602C171.356 195.485 171.451 195.345 171.511 195.182H174.375C174.277 195.788 174.044 196.314 173.676 196.761C173.309 197.205 172.822 197.549 172.216 197.795C171.614 198.038 170.909 198.159 170.102 198.159ZM175.655 198V189.273H178.632V190.932H178.723C178.905 190.386 179.215 189.955 179.655 189.636C180.094 189.318 180.617 189.159 181.223 189.159C181.837 189.159 182.365 189.322 182.808 189.648C183.251 189.97 183.518 190.398 183.609 190.932H183.7C183.848 190.398 184.162 189.97 184.643 189.648C185.125 189.322 185.689 189.159 186.337 189.159C187.174 189.159 187.852 189.428 188.371 189.966C188.893 190.504 189.155 191.22 189.155 192.114V198H186.018V192.909C186.018 192.527 185.922 192.227 185.729 192.011C185.536 191.792 185.276 191.682 184.95 191.682C184.628 191.682 184.373 191.792 184.183 192.011C183.998 192.227 183.905 192.527 183.905 192.909V198H180.905V192.909C180.905 192.527 180.808 192.227 180.615 192.011C180.422 191.792 180.162 191.682 179.837 191.682C179.621 191.682 179.435 191.731 179.28 191.83C179.125 191.928 179.003 192.07 178.916 192.256C178.833 192.437 178.791 192.655 178.791 192.909V198H175.655Z" fill="#181818" fill-opacity="0.75"/>
<g filter="url(#filter7_d_128_685)">
<rect x="24" y="140" width="72" height="104" rx="8" fill="white" fill-opacity="0.75" shape-rendering="crispEdges"/>
</g>
<path d="M42.7955 198V189.273H45.9318V198H42.7955ZM44.3636 188.364C43.9394 188.364 43.5758 188.223 43.2727 187.943C42.9697 187.663 42.8182 187.326 42.8182 186.932C42.8182 186.538 42.9697 186.201 43.2727 185.92C43.5758 185.64 43.9394 185.5 44.3636 185.5C44.7917 185.5 45.1553 185.64 45.4545 185.92C45.7576 186.201 45.9091 186.538 45.9091 186.932C45.9091 187.326 45.7576 187.663 45.4545 187.943C45.1553 188.223 44.7917 188.364 44.3636 188.364ZM52.7344 189.273V191.545H46.9844V189.273H52.7344ZM48.098 187.182H51.2344V195.193C51.2344 195.314 51.2552 195.417 51.2969 195.5C51.3385 195.58 51.4029 195.64 51.4901 195.682C51.5772 195.72 51.6889 195.739 51.8253 195.739C51.92 195.739 52.0298 195.727 52.1548 195.705C52.2836 195.682 52.3783 195.663 52.4389 195.648L52.8935 197.852C52.7533 197.894 52.5526 197.945 52.2912 198.006C52.0336 198.066 51.7268 198.106 51.3707 198.125C50.651 198.163 50.0469 198.089 49.5582 197.903C49.0696 197.714 48.7022 197.417 48.456 197.011C48.2098 196.606 48.0904 196.098 48.098 195.489V187.182ZM58.1023 198.159C57.1705 198.159 56.3674 197.981 55.6932 197.625C55.0227 197.265 54.5057 196.75 54.142 196.08C53.7822 195.405 53.6023 194.598 53.6023 193.659C53.6023 192.758 53.7841 191.97 54.1477 191.295C54.5114 190.621 55.0246 190.097 55.6875 189.722C56.3504 189.347 57.1326 189.159 58.0341 189.159C58.6932 189.159 59.2898 189.261 59.8239 189.466C60.358 189.67 60.8144 189.968 61.1932 190.358C61.572 190.744 61.8636 191.214 62.0682 191.767C62.2727 192.32 62.375 192.943 62.375 193.636V194.364H54.5795V192.636H59.4886C59.4848 192.386 59.4205 192.167 59.2955 191.977C59.1742 191.784 59.0095 191.634 58.8011 191.528C58.5966 191.419 58.3636 191.364 58.1023 191.364C57.8485 191.364 57.6155 191.419 57.4034 191.528C57.1913 191.634 57.0208 191.782 56.892 191.972C56.767 192.161 56.7008 192.383 56.6932 192.636V194.5C56.6932 194.78 56.7519 195.03 56.8693 195.25C56.9867 195.47 57.1553 195.642 57.375 195.767C57.5947 195.892 57.8598 195.955 58.1705 195.955C58.3864 195.955 58.5833 195.924 58.7614 195.864C58.9432 195.803 59.0985 195.716 59.2273 195.602C59.3561 195.485 59.4508 195.345 59.5114 195.182H62.375C62.2765 195.788 62.0436 196.314 61.6761 196.761C61.3087 197.205 60.822 197.549 60.2159 197.795C59.6136 198.038 58.9091 198.159 58.1023 198.159ZM63.6548 198V189.273H66.6321V190.932H66.723C66.9048 190.386 67.2154 189.955 67.6548 189.636C68.0942 189.318 68.617 189.159 69.223 189.159C69.8366 189.159 70.3651 189.322 70.8082 189.648C71.2514 189.97 71.5185 190.398 71.6094 190.932H71.7003C71.848 190.398 72.1624 189.97 72.6435 189.648C73.1245 189.322 73.6889 189.159 74.3366 189.159C75.1738 189.159 75.8518 189.428 76.3707 189.966C76.8935 190.504 77.1548 191.22 77.1548 192.114V198H74.0185V192.909C74.0185 192.527 73.9219 192.227 73.7287 192.011C73.5355 191.792 73.276 191.682 72.9503 191.682C72.6283 191.682 72.3726 191.792 72.1832 192.011C71.9976 192.227 71.9048 192.527 71.9048 192.909V198H68.9048V192.909C68.9048 192.527 68.8082 192.227 68.6151 192.011C68.4219 191.792 68.1624 191.682 67.8366 191.682C67.6207 191.682 67.4351 191.731 67.2798 191.83C67.1245 191.928 67.0033 192.07 66.9162 192.256C66.8329 192.437 66.7912 192.655 66.7912 192.909V198H63.6548Z" fill="#181818" fill-opacity="0.75"/>
<g filter="url(#filter8_d_128_685)">
<rect x="248" y="140" width="72" height="104" rx="8" fill="white" fill-opacity="0.75" shape-rendering="crispEdges"/>
</g>
<path d="M266.795 198V189.273H269.932V198H266.795ZM268.364 188.364C267.939 188.364 267.576 188.223 267.273 187.943C266.97 187.663 266.818 187.326 266.818 186.932C266.818 186.538 266.97 186.201 267.273 185.92C267.576 185.64 267.939 185.5 268.364 185.5C268.792 185.5 269.155 185.64 269.455 185.92C269.758 186.201 269.909 186.538 269.909 186.932C269.909 187.326 269.758 187.663 269.455 187.943C269.155 188.223 268.792 188.364 268.364 188.364ZM276.734 189.273V191.545H270.984V189.273H276.734ZM272.098 187.182H275.234V195.193C275.234 195.314 275.255 195.417 275.297 195.5C275.339 195.58 275.403 195.64 275.49 195.682C275.577 195.72 275.689 195.739 275.825 195.739C275.92 195.739 276.03 195.727 276.155 195.705C276.284 195.682 276.378 195.663 276.439 195.648L276.893 197.852C276.753 197.894 276.553 197.945 276.291 198.006C276.034 198.066 275.727 198.106 275.371 198.125C274.651 198.163 274.047 198.089 273.558 197.903C273.07 197.714 272.702 197.417 272.456 197.011C272.21 196.606 272.09 196.098 272.098 195.489V187.182ZM282.102 198.159C281.17 198.159 280.367 197.981 279.693 197.625C279.023 197.265 278.506 196.75 278.142 196.08C277.782 195.405 277.602 194.598 277.602 193.659C277.602 192.758 277.784 191.97 278.148 191.295C278.511 190.621 279.025 190.097 279.688 189.722C280.35 189.347 281.133 189.159 282.034 189.159C282.693 189.159 283.29 189.261 283.824 189.466C284.358 189.67 284.814 189.968 285.193 190.358C285.572 190.744 285.864 191.214 286.068 191.767C286.273 192.32 286.375 192.943 286.375 193.636V194.364H278.58V192.636H283.489C283.485 192.386 283.42 192.167 283.295 191.977C283.174 191.784 283.009 191.634 282.801 191.528C282.597 191.419 282.364 191.364 282.102 191.364C281.848 191.364 281.616 191.419 281.403 191.528C281.191 191.634 281.021 191.782 280.892 191.972C280.767 192.161 280.701 192.383 280.693 192.636V194.5C280.693 194.78 280.752 195.03 280.869 195.25C280.987 195.47 281.155 195.642 281.375 195.767C281.595 195.892 281.86 195.955 282.17 195.955C282.386 195.955 282.583 195.924 282.761 195.864C282.943 195.803 283.098 195.716 283.227 195.602C283.356 195.485 283.451 195.345 283.511 195.182H286.375C286.277 195.788 286.044 196.314 285.676 196.761C285.309 197.205 284.822 197.549 284.216 197.795C283.614 198.038 282.909 198.159 282.102 198.159ZM287.655 198V189.273H290.632V190.932H290.723C290.905 190.386 291.215 189.955 291.655 189.636C292.094 189.318 292.617 189.159 293.223 189.159C293.837 189.159 294.365 189.322 294.808 189.648C295.251 189.97 295.518 190.398 295.609 190.932H295.7C295.848 190.398 296.162 189.97 296.643 189.648C297.125 189.322 297.689 189.159 298.337 189.159C299.174 189.159 299.852 189.428 300.371 189.966C300.893 190.504 301.155 191.22 301.155 192.114V198H298.018V192.909C298.018 192.527 297.922 192.227 297.729 192.011C297.536 191.792 297.276 191.682 296.95 191.682C296.628 191.682 296.373 191.792 296.183 192.011C295.998 192.227 295.905 192.527 295.905 192.909V198H292.905V192.909C292.905 192.527 292.808 192.227 292.615 192.011C292.422 191.792 292.162 191.682 291.837 191.682C291.621 191.682 291.435 191.731 291.28 191.83C291.125 191.928 291.003 192.07 290.916 192.256C290.833 192.437 290.791 192.655 290.791 192.909V198H287.655Z" fill="#181818" fill-opacity="0.75"/>
<g filter="url(#filter9_d_128_685)">
<rect x="248" y="244" width="72" height="104" rx="8" fill="white" fill-opacity="0.75" shape-rendering="crispEdges"/>
</g>
<path d="M266.795 302V293.273H269.932V302H266.795ZM268.364 292.364C267.939 292.364 267.576 292.223 267.273 291.943C266.97 291.663 266.818 291.326 266.818 290.932C266.818 290.538 266.97 290.201 267.273 289.92C267.576 289.64 267.939 289.5 268.364 289.5C268.792 289.5 269.155 289.64 269.455 289.92C269.758 290.201 269.909 290.538 269.909 290.932C269.909 291.326 269.758 291.663 269.455 291.943C269.155 292.223 268.792 292.364 268.364 292.364ZM276.734 293.273V295.545H270.984V293.273H276.734ZM272.098 291.182H275.234V299.193C275.234 299.314 275.255 299.417 275.297 299.5C275.339 299.58 275.403 299.64 275.49 299.682C275.577 299.72 275.689 299.739 275.825 299.739C275.92 299.739 276.03 299.727 276.155 299.705C276.284 299.682 276.378 299.663 276.439 299.648L276.893 301.852C276.753 301.894 276.553 301.945 276.291 302.006C276.034 302.066 275.727 302.106 275.371 302.125C274.651 302.163 274.047 302.089 273.558 301.903C273.07 301.714 272.702 301.417 272.456 301.011C272.21 300.606 272.09 300.098 272.098 299.489V291.182ZM282.102 302.159C281.17 302.159 280.367 301.981 279.693 301.625C279.023 301.265 278.506 300.75 278.142 300.08C277.782 299.405 277.602 298.598 277.602 297.659C277.602 296.758 277.784 295.97 278.148 295.295C278.511 294.621 279.025 294.097 279.688 293.722C280.35 293.347 281.133 293.159 282.034 293.159C282.693 293.159 283.29 293.261 283.824 293.466C284.358 293.67 284.814 293.968 285.193 294.358C285.572 294.744 285.864 295.214 286.068 295.767C286.273 296.32 286.375 296.943 286.375 297.636V298.364H278.58V296.636H283.489C283.485 296.386 283.42 296.167 283.295 295.977C283.174 295.784 283.009 295.634 282.801 295.528C282.597 295.419 282.364 295.364 282.102 295.364C281.848 295.364 281.616 295.419 281.403 295.528C281.191 295.634 281.021 295.782 280.892 295.972C280.767 296.161 280.701 296.383 280.693 296.636V298.5C280.693 298.78 280.752 299.03 280.869 299.25C280.987 299.47 281.155 299.642 281.375 299.767C281.595 299.892 281.86 299.955 282.17 299.955C282.386 299.955 282.583 299.924 282.761 299.864C282.943 299.803 283.098 299.716 283.227 299.602C283.356 299.485 283.451 299.345 283.511 299.182H286.375C286.277 299.788 286.044 300.314 285.676 300.761C285.309 301.205 284.822 301.549 284.216 301.795C283.614 302.038 282.909 302.159 282.102 302.159ZM287.655 302V293.273H290.632V294.932H290.723C290.905 294.386 291.215 293.955 291.655 293.636C292.094 293.318 292.617 293.159 293.223 293.159C293.837 293.159 294.365 293.322 294.808 293.648C295.251 293.97 295.518 294.398 295.609 294.932H295.7C295.848 294.398 296.162 293.97 296.643 293.648C297.125 293.322 297.689 293.159 298.337 293.159C299.174 293.159 299.852 293.428 300.371 293.966C300.893 294.504 301.155 295.22 301.155 296.114V302H298.018V296.909C298.018 296.527 297.922 296.227 297.729 296.011C297.536 295.792 297.276 295.682 296.95 295.682C296.628 295.682 296.373 295.792 296.183 296.011C295.998 296.227 295.905 296.527 295.905 296.909V302H292.905V296.909C292.905 296.527 292.808 296.227 292.615 296.011C292.422 295.792 292.162 295.682 291.837 295.682C291.621 295.682 291.435 295.731 291.28 295.83C291.125 295.928 291.003 296.07 290.916 296.256C290.833 296.437 290.791 296.655 290.791 296.909V302H287.655Z" fill="#181818" fill-opacity="0.75"/>
<path d="M32.7727 21.1136H29.8864C29.8712 20.9356 29.8087 20.7822 29.6989 20.6534C29.589 20.5246 29.447 20.4261 29.2727 20.358C29.1023 20.286 28.9129 20.25 28.7045 20.25C28.4356 20.25 28.2045 20.2992 28.0114 20.3977C27.8182 20.4962 27.7235 20.6364 27.7273 20.8182C27.7235 20.947 27.7784 21.0663 27.892 21.1761C28.0095 21.286 28.2348 21.3712 28.5682 21.4318L30.3409 21.75C31.2348 21.9129 31.8996 22.1875 32.3352 22.5739C32.7746 22.9564 32.9962 23.4697 33 24.1136C32.9962 24.7348 32.8106 25.2746 32.4432 25.733C32.0795 26.1875 31.5814 26.5398 30.9489 26.7898C30.3201 27.036 29.6023 27.1591 28.7955 27.1591C27.4621 27.1591 26.4186 26.8864 25.6648 26.3409C24.9148 25.7955 24.4962 25.0758 24.4091 24.1818H27.5227C27.5644 24.4583 27.7008 24.6723 27.9318 24.8239C28.1667 24.9716 28.4621 25.0455 28.8182 25.0455C29.1061 25.0455 29.3428 24.9962 29.5284 24.8977C29.7178 24.7992 29.8144 24.6591 29.8182 24.4773C29.8144 24.3106 29.7311 24.178 29.5682 24.0795C29.4091 23.9811 29.1591 23.9015 28.8182 23.8409L27.2727 23.5682C26.3826 23.4129 25.7159 23.1174 25.2727 22.6818C24.8295 22.2462 24.6098 21.6856 24.6136 21C24.6098 20.3939 24.7689 19.8807 25.0909 19.4602C25.4167 19.036 25.8807 18.714 26.483 18.4943C27.089 18.2708 27.8068 18.1591 28.6364 18.1591C29.8977 18.1591 30.892 18.4205 31.6193 18.9432C32.3504 19.4659 32.7348 20.1894 32.7727 21.1136ZM39.4062 18.2727V20.5455H33.6562V18.2727H39.4062ZM34.7699 16.1818H37.9062V24.1932C37.9062 24.3144 37.9271 24.4167 37.9688 24.5C38.0104 24.5795 38.0748 24.6402 38.1619 24.6818C38.2491 24.7197 38.3608 24.7386 38.4972 24.7386C38.5919 24.7386 38.7017 24.7273 38.8267 24.7045C38.9555 24.6818 39.0502 24.6629 39.1108 24.6477L39.5653 26.8523C39.4252 26.8939 39.2244 26.9451 38.9631 27.0057C38.7055 27.0663 38.3987 27.1061 38.0426 27.125C37.3229 27.1629 36.7188 27.089 36.2301 26.9034C35.7415 26.714 35.3741 26.4167 35.1278 26.0114C34.8816 25.6061 34.7623 25.0985 34.7699 24.4886V16.1818ZM43.1179 27.1364C42.5611 27.1364 42.0687 27.0455 41.6406 26.8636C41.2164 26.678 40.883 26.3977 40.6406 26.0227C40.3982 25.6477 40.277 25.1705 40.277 24.5909C40.277 24.1136 40.3584 23.7064 40.5213 23.3693C40.6842 23.0284 40.9115 22.75 41.2031 22.5341C41.4948 22.3182 41.8338 22.1534 42.2202 22.0398C42.6103 21.9261 43.0308 21.8523 43.4815 21.8182C43.9702 21.7803 44.3622 21.7348 44.6577 21.6818C44.9569 21.625 45.1728 21.5473 45.3054 21.4489C45.438 21.3466 45.5043 21.2121 45.5043 21.0455V21.0227C45.5043 20.7955 45.4171 20.6212 45.2429 20.5C45.0687 20.3788 44.8452 20.3182 44.5724 20.3182C44.2732 20.3182 44.0289 20.3845 43.8395 20.517C43.6539 20.6458 43.5421 20.8447 43.5043 21.1136H40.6179C40.6558 20.5833 40.8243 20.0947 41.1236 19.6477C41.4266 19.197 41.8679 18.8371 42.4474 18.5682C43.027 18.2955 43.7505 18.1591 44.6179 18.1591C45.2429 18.1591 45.8035 18.233 46.2997 18.3807C46.7959 18.5246 47.2183 18.7273 47.5668 18.9886C47.9152 19.2462 48.1804 19.5492 48.3622 19.8977C48.5478 20.2424 48.6406 20.6174 48.6406 21.0227V27H45.7088V25.7727H45.6406C45.4664 26.0985 45.2543 26.3617 45.0043 26.5625C44.758 26.7633 44.4759 26.9091 44.1577 27C43.8433 27.0909 43.4967 27.1364 43.1179 27.1364ZM44.1406 25.1591C44.3793 25.1591 44.6027 25.1098 44.8111 25.0114C45.0232 24.9129 45.1955 24.7708 45.3281 24.5852C45.4607 24.3996 45.527 24.1742 45.527 23.9091V23.1818C45.4437 23.2159 45.3546 23.2481 45.2599 23.2784C45.169 23.3087 45.0705 23.3371 44.9645 23.3636C44.8622 23.3902 44.7524 23.4148 44.6349 23.4375C44.5213 23.4602 44.402 23.4811 44.277 23.5C44.0346 23.5379 43.8357 23.6004 43.6804 23.6875C43.5289 23.7708 43.4152 23.875 43.3395 24C43.2675 24.1212 43.2315 24.2576 43.2315 24.4091C43.2315 24.6515 43.3168 24.8371 43.4872 24.9659C43.6577 25.0947 43.8755 25.1591 44.1406 25.1591ZM50.1392 27V18.2727H53.1847V19.9318H53.2756C53.4347 19.3182 53.6866 18.8693 54.0312 18.5852C54.3797 18.3011 54.7869 18.1591 55.2528 18.1591C55.3892 18.1591 55.5237 18.1705 55.6562 18.1932C55.7926 18.2121 55.9233 18.2405 56.0483 18.2784V20.9545C55.893 20.9015 55.7017 20.8617 55.4744 20.8352C55.2472 20.8087 55.0521 20.7955 54.8892 20.7955C54.5824 20.7955 54.3059 20.8655 54.0597 21.0057C53.8172 21.142 53.6259 21.3352 53.4858 21.5852C53.3456 21.8314 53.2756 22.1212 53.2756 22.4545V27H50.1392ZM62.6406 18.2727V20.5455H56.8906V18.2727H62.6406ZM58.0043 16.1818H61.1406V24.1932C61.1406 24.3144 61.1615 24.4167 61.2031 24.5C61.2448 24.5795 61.3092 24.6402 61.3963 24.6818C61.4834 24.7197 61.5952 24.7386 61.7315 24.7386C61.8262 24.7386 61.9361 24.7273 62.0611 24.7045C62.1899 24.6818 62.2846 24.6629 62.3452 24.6477L62.7997 26.8523C62.6596 26.8939 62.4588 26.9451 62.1974 27.0057C61.9399 27.0663 61.633 27.1061 61.277 27.125C60.5573 27.1629 59.9531 27.089 59.4645 26.9034C58.9759 26.714 58.6084 26.4167 58.3622 26.0114C58.116 25.6061 57.9967 25.0985 58.0043 24.4886V16.1818Z" fill="#181818" fill-opacity="0.75"/>
<g filter="url(#filter10_d_128_685)">
<rect x="402" y="4" width="368" height="360" rx="8" fill="#2172FF" fill-opacity="0.8" shape-rendering="crispEdges"/>
</g>
<g filter="url(#filter11_d_128_685)">
<rect x="570" y="244" width="72" height="104" rx="8" fill="white" fill-opacity="0.75" shape-rendering="crispEdges"/>
</g>
<path d="M588.795 302V293.273H591.932V302H588.795ZM590.364 292.364C589.939 292.364 589.576 292.223 589.273 291.943C588.97 291.663 588.818 291.326 588.818 290.932C588.818 290.538 588.97 290.201 589.273 289.92C589.576 289.64 589.939 289.5 590.364 289.5C590.792 289.5 591.155 289.64 591.455 289.92C591.758 290.201 591.909 290.538 591.909 290.932C591.909 291.326 591.758 291.663 591.455 291.943C591.155 292.223 590.792 292.364 590.364 292.364ZM598.734 293.273V295.545H592.984V293.273H598.734ZM594.098 291.182H597.234V299.193C597.234 299.314 597.255 299.417 597.297 299.5C597.339 299.58 597.403 299.64 597.49 299.682C597.577 299.72 597.689 299.739 597.825 299.739C597.92 299.739 598.03 299.727 598.155 299.705C598.284 299.682 598.378 299.663 598.439 299.648L598.893 301.852C598.753 301.894 598.553 301.945 598.291 302.006C598.034 302.066 597.727 302.106 597.371 302.125C596.651 302.163 596.047 302.089 595.558 301.903C595.07 301.714 594.702 301.417 594.456 301.011C594.21 300.606 594.09 300.098 594.098 299.489V291.182ZM604.102 302.159C603.17 302.159 602.367 301.981 601.693 301.625C601.023 301.265 600.506 300.75 600.142 300.08C599.782 299.405 599.602 298.598 599.602 297.659C599.602 296.758 599.784 295.97 600.148 295.295C600.511 294.621 601.025 294.097 601.688 293.722C602.35 293.347 603.133 293.159 604.034 293.159C604.693 293.159 605.29 293.261 605.824 293.466C606.358 293.67 606.814 293.968 607.193 294.358C607.572 294.744 607.864 295.214 608.068 295.767C608.273 296.32 608.375 296.943 608.375 297.636V298.364H600.58V296.636H605.489C605.485 296.386 605.42 296.167 605.295 295.977C605.174 295.784 605.009 295.634 604.801 295.528C604.597 295.419 604.364 295.364 604.102 295.364C603.848 295.364 603.616 295.419 603.403 295.528C603.191 295.634 603.021 295.782 602.892 295.972C602.767 296.161 602.701 296.383 602.693 296.636V298.5C602.693 298.78 602.752 299.03 602.869 299.25C602.987 299.47 603.155 299.642 603.375 299.767C603.595 299.892 603.86 299.955 604.17 299.955C604.386 299.955 604.583 299.924 604.761 299.864C604.943 299.803 605.098 299.716 605.227 299.602C605.356 299.485 605.451 299.345 605.511 299.182H608.375C608.277 299.788 608.044 300.314 607.676 300.761C607.309 301.205 606.822 301.549 606.216 301.795C605.614 302.038 604.909 302.159 604.102 302.159ZM609.655 302V293.273H612.632V294.932H612.723C612.905 294.386 613.215 293.955 613.655 293.636C614.094 293.318 614.617 293.159 615.223 293.159C615.837 293.159 616.365 293.322 616.808 293.648C617.251 293.97 617.518 294.398 617.609 294.932H617.7C617.848 294.398 618.162 293.97 618.643 293.648C619.125 293.322 619.689 293.159 620.337 293.159C621.174 293.159 621.852 293.428 622.371 293.966C622.893 294.504 623.155 295.22 623.155 296.114V302H620.018V296.909C620.018 296.527 619.922 296.227 619.729 296.011C619.536 295.792 619.276 295.682 618.95 295.682C618.628 295.682 618.373 295.792 618.183 296.011C617.998 296.227 617.905 296.527 617.905 296.909V302H614.905V296.909C614.905 296.527 614.808 296.227 614.615 296.011C614.422 295.792 614.162 295.682 613.837 295.682C613.621 295.682 613.435 295.731 613.28 295.83C613.125 295.928 613.003 296.07 612.916 296.256C612.833 296.437 612.791 296.655 612.791 296.909V302H609.655Z" fill="#181818" fill-opacity="0.75"/>
<g filter="url(#filter12_d_128_685)">
<rect x="570" y="36" width="72" height="104" rx="8" fill="white" fill-opacity="0.75" shape-rendering="crispEdges"/>
</g>
<path d="M588.795 94V85.2727H591.932V94H588.795ZM590.364 84.3636C589.939 84.3636 589.576 84.2235 589.273 83.9432C588.97 83.6629 588.818 83.3258 588.818 82.9318C588.818 82.5379 588.97 82.2008 589.273 81.9205C589.576 81.6402 589.939 81.5 590.364 81.5C590.792 81.5 591.155 81.6402 591.455 81.9205C591.758 82.2008 591.909 82.5379 591.909 82.9318C591.909 83.3258 591.758 83.6629 591.455 83.9432C591.155 84.2235 590.792 84.3636 590.364 84.3636ZM598.734 85.2727V87.5455H592.984V85.2727H598.734ZM594.098 83.1818H597.234V91.1932C597.234 91.3144 597.255 91.4167 597.297 91.5C597.339 91.5795 597.403 91.6402 597.49 91.6818C597.577 91.7197 597.689 91.7386 597.825 91.7386C597.92 91.7386 598.03 91.7273 598.155 91.7045C598.284 91.6818 598.378 91.6629 598.439 91.6477L598.893 93.8523C598.753 93.8939 598.553 93.9451 598.291 94.0057C598.034 94.0663 597.727 94.1061 597.371 94.125C596.651 94.1629 596.047 94.089 595.558 93.9034C595.07 93.714 594.702 93.4167 594.456 93.0114C594.21 92.6061 594.09 92.0985 594.098 91.4886V83.1818ZM604.102 94.1591C603.17 94.1591 602.367 93.9811 601.693 93.625C601.023 93.2652 600.506 92.75 600.142 92.0795C599.782 91.4053 599.602 90.5985 599.602 89.6591C599.602 88.7576 599.784 87.9697 600.148 87.2955C600.511 86.6212 601.025 86.0966 601.688 85.7216C602.35 85.3466 603.133 85.1591 604.034 85.1591C604.693 85.1591 605.29 85.2614 605.824 85.4659C606.358 85.6705 606.814 85.9678 607.193 86.358C607.572 86.7443 607.864 87.214 608.068 87.767C608.273 88.3201 608.375 88.9432 608.375 89.6364V90.3636H600.58V88.6364H605.489C605.485 88.3864 605.42 88.1667 605.295 87.9773C605.174 87.7841 605.009 87.6345 604.801 87.5284C604.597 87.4186 604.364 87.3636 604.102 87.3636C603.848 87.3636 603.616 87.4186 603.403 87.5284C603.191 87.6345 603.021 87.7822 602.892 87.9716C602.767 88.161 602.701 88.3826 602.693 88.6364V90.5C602.693 90.7803 602.752 91.0303 602.869 91.25C602.987 91.4697 603.155 91.642 603.375 91.767C603.595 91.892 603.86 91.9545 604.17 91.9545C604.386 91.9545 604.583 91.9242 604.761 91.8636C604.943 91.803 605.098 91.7159 605.227 91.6023C605.356 91.4848 605.451 91.3447 605.511 91.1818H608.375C608.277 91.7879 608.044 92.3144 607.676 92.7614C607.309 93.2045 606.822 93.5492 606.216 93.7955C605.614 94.0379 604.909 94.1591 604.102 94.1591ZM609.655 94V85.2727H612.632V86.9318H612.723C612.905 86.3864 613.215 85.9545 613.655 85.6364C614.094 85.3182 614.617 85.1591 615.223 85.1591C615.837 85.1591 616.365 85.322 616.808 85.6477C617.251 85.9697 617.518 86.3977 617.609 86.9318H617.7C617.848 86.3977 618.162 85.9697 618.643 85.6477C619.125 85.322 619.689 85.1591 620.337 85.1591C621.174 85.1591 621.852 85.428 622.371 85.9659C622.893 86.5038 623.155 87.2197 623.155 88.1136V94H620.018V88.9091C620.018 88.5265 619.922 88.2273 619.729 88.0114C619.536 87.7917 619.276 87.6818 618.95 87.6818C618.628 87.6818 618.373 87.7917 618.183 88.0114C617.998 88.2273 617.905 88.5265 617.905 88.9091V94H614.905V88.9091C614.905 88.5265 614.808 88.2273 614.615 88.0114C614.422 87.7917 614.162 87.6818 613.837 87.6818C613.621 87.6818 613.435 87.7311 613.28 87.8295C613.125 87.928 613.003 88.0701 612.916 88.2557C612.833 88.4375 612.791 88.6553 612.791 88.9091V94H609.655Z" fill="#181818" fill-opacity="0.75"/>
<g filter="url(#filter13_d_128_685)">
<rect x="458" y="244" width="72" height="104" rx="8" fill="white" fill-opacity="0.75" shape-rendering="crispEdges"/>
</g>
<path d="M476.795 302V293.273H479.932V302H476.795ZM478.364 292.364C477.939 292.364 477.576 292.223 477.273 291.943C476.97 291.663 476.818 291.326 476.818 290.932C476.818 290.538 476.97 290.201 477.273 289.92C477.576 289.64 477.939 289.5 478.364 289.5C478.792 289.5 479.155 289.64 479.455 289.92C479.758 290.201 479.909 290.538 479.909 290.932C479.909 291.326 479.758 291.663 479.455 291.943C479.155 292.223 478.792 292.364 478.364 292.364ZM486.734 293.273V295.545H480.984V293.273H486.734ZM482.098 291.182H485.234V299.193C485.234 299.314 485.255 299.417 485.297 299.5C485.339 299.58 485.403 299.64 485.49 299.682C485.577 299.72 485.689 299.739 485.825 299.739C485.92 299.739 486.03 299.727 486.155 299.705C486.284 299.682 486.378 299.663 486.439 299.648L486.893 301.852C486.753 301.894 486.553 301.945 486.291 302.006C486.034 302.066 485.727 302.106 485.371 302.125C484.651 302.163 484.047 302.089 483.558 301.903C483.07 301.714 482.702 301.417 482.456 301.011C482.21 300.606 482.09 300.098 482.098 299.489V291.182ZM492.102 302.159C491.17 302.159 490.367 301.981 489.693 301.625C489.023 301.265 488.506 300.75 488.142 300.08C487.782 299.405 487.602 298.598 487.602 297.659C487.602 296.758 487.784 295.97 488.148 295.295C488.511 294.621 489.025 294.097 489.688 293.722C490.35 293.347 491.133 293.159 492.034 293.159C492.693 293.159 493.29 293.261 493.824 293.466C494.358 293.67 494.814 293.968 495.193 294.358C495.572 294.744 495.864 295.214 496.068 295.767C496.273 296.32 496.375 296.943 496.375 297.636V298.364H488.58V296.636H493.489C493.485 296.386 493.42 296.167 493.295 295.977C493.174 295.784 493.009 295.634 492.801 295.528C492.597 295.419 492.364 295.364 492.102 295.364C491.848 295.364 491.616 295.419 491.403 295.528C491.191 295.634 491.021 295.782 490.892 295.972C490.767 296.161 490.701 296.383 490.693 296.636V298.5C490.693 298.78 490.752 299.03 490.869 299.25C490.987 299.47 491.155 299.642 491.375 299.767C491.595 299.892 491.86 299.955 492.17 299.955C492.386 299.955 492.583 299.924 492.761 299.864C492.943 299.803 493.098 299.716 493.227 299.602C493.356 299.485 493.451 299.345 493.511 299.182H496.375C496.277 299.788 496.044 300.314 495.676 300.761C495.309 301.205 494.822 301.549 494.216 301.795C493.614 302.038 492.909 302.159 492.102 302.159ZM497.655 302V293.273H500.632V294.932H500.723C500.905 294.386 501.215 293.955 501.655 293.636C502.094 293.318 502.617 293.159 503.223 293.159C503.837 293.159 504.365 293.322 504.808 293.648C505.251 293.97 505.518 294.398 505.609 294.932H505.7C505.848 294.398 506.162 293.97 506.643 293.648C507.125 293.322 507.689 293.159 508.337 293.159C509.174 293.159 509.852 293.428 510.371 293.966C510.893 294.504 511.155 295.22 511.155 296.114V302H508.018V296.909C508.018 296.527 507.922 296.227 507.729 296.011C507.536 295.792 507.276 295.682 506.95 295.682C506.628 295.682 506.373 295.792 506.183 296.011C505.998 296.227 505.905 296.527 505.905 296.909V302H502.905V296.909C502.905 296.527 502.808 296.227 502.615 296.011C502.422 295.792 502.162 295.682 501.837 295.682C501.621 295.682 501.435 295.731 501.28 295.83C501.125 295.928 501.003 296.07 500.916 296.256C500.833 296.437 500.791 296.655 500.791 296.909V302H497.655Z" fill="#181818" fill-opacity="0.75"/>
<g filter="url(#filter14_d_128_685)">
<rect x="458" y="36" width="72" height="104" rx="8" fill="white" fill-opacity="0.75" shape-rendering="crispEdges"/>
</g>
<path d="M476.795 94V85.2727H479.932V94H476.795ZM478.364 84.3636C477.939 84.3636 477.576 84.2235 477.273 83.9432C476.97 83.6629 476.818 83.3258 476.818 82.9318C476.818 82.5379 476.97 82.2008 477.273 81.9205C477.576 81.6402 477.939 81.5 478.364 81.5C478.792 81.5 479.155 81.6402 479.455 81.9205C479.758 82.2008 479.909 82.5379 479.909 82.9318C479.909 83.3258 479.758 83.6629 479.455 83.9432C479.155 84.2235 478.792 84.3636 478.364 84.3636ZM486.734 85.2727V87.5455H480.984V85.2727H486.734ZM482.098 83.1818H485.234V91.1932C485.234 91.3144 485.255 91.4167 485.297 91.5C485.339 91.5795 485.403 91.6402 485.49 91.6818C485.577 91.7197 485.689 91.7386 485.825 91.7386C485.92 91.7386 486.03 91.7273 486.155 91.7045C486.284 91.6818 486.378 91.6629 486.439 91.6477L486.893 93.8523C486.753 93.8939 486.553 93.9451 486.291 94.0057C486.034 94.0663 485.727 94.1061 485.371 94.125C484.651 94.1629 484.047 94.089 483.558 93.9034C483.07 93.714 482.702 93.4167 482.456 93.0114C482.21 92.6061 482.09 92.0985 482.098 91.4886V83.1818ZM492.102 94.1591C491.17 94.1591 490.367 93.9811 489.693 93.625C489.023 93.2652 488.506 92.75 488.142 92.0795C487.782 91.4053 487.602 90.5985 487.602 89.6591C487.602 88.7576 487.784 87.9697 488.148 87.2955C488.511 86.6212 489.025 86.0966 489.688 85.7216C490.35 85.3466 491.133 85.1591 492.034 85.1591C492.693 85.1591 493.29 85.2614 493.824 85.4659C494.358 85.6705 494.814 85.9678 495.193 86.358C495.572 86.7443 495.864 87.214 496.068 87.767C496.273 88.3201 496.375 88.9432 496.375 89.6364V90.3636H488.58V88.6364H493.489C493.485 88.3864 493.42 88.1667 493.295 87.9773C493.174 87.7841 493.009 87.6345 492.801 87.5284C492.597 87.4186 492.364 87.3636 492.102 87.3636C491.848 87.3636 491.616 87.4186 491.403 87.5284C491.191 87.6345 491.021 87.7822 490.892 87.9716C490.767 88.161 490.701 88.3826 490.693 88.6364V90.5C490.693 90.7803 490.752 91.0303 490.869 91.25C490.987 91.4697 491.155 91.642 491.375 91.767C491.595 91.892 491.86 91.9545 492.17 91.9545C492.386 91.9545 492.583 91.9242 492.761 91.8636C492.943 91.803 493.098 91.7159 493.227 91.6023C493.356 91.4848 493.451 91.3447 493.511 91.1818H496.375C496.277 91.7879 496.044 92.3144 495.676 92.7614C495.309 93.2045 494.822 93.5492 494.216 93.7955C493.614 94.0379 492.909 94.1591 492.102 94.1591ZM497.655 94V85.2727H500.632V86.9318H500.723C500.905 86.3864 501.215 85.9545 501.655 85.6364C502.094 85.3182 502.617 85.1591 503.223 85.1591C503.837 85.1591 504.365 85.322 504.808 85.6477C505.251 85.9697 505.518 86.3977 505.609 86.9318H505.7C505.848 86.3977 506.162 85.9697 506.643 85.6477C507.125 85.322 507.689 85.1591 508.337 85.1591C509.174 85.1591 509.852 85.428 510.371 85.9659C510.893 86.5038 511.155 87.2197 511.155 88.1136V94H508.018V88.9091C508.018 88.5265 507.922 88.2273 507.729 88.0114C507.536 87.7917 507.276 87.6818 506.95 87.6818C506.628 87.6818 506.373 87.7917 506.183 88.0114C505.998 88.2273 505.905 88.5265 505.905 88.9091V94H502.905V88.9091C502.905 88.5265 502.808 88.2273 502.615 88.0114C502.422 87.7917 502.162 87.6818 501.837 87.6818C501.621 87.6818 501.435 87.7311 501.28 87.8295C501.125 87.928 501.003 88.0701 500.916 88.2557C500.833 88.4375 500.791 88.6553 500.791 88.9091V94H497.655Z" fill="#181818" fill-opacity="0.75"/>
<g filter="url(#filter15_d_128_685)">
<rect x="682" y="36" width="72" height="104" rx="8" fill="white" fill-opacity="0.75" shape-rendering="crispEdges"/>
</g>
<path d="M700.795 94V85.2727H703.932V94H700.795ZM702.364 84.3636C701.939 84.3636 701.576 84.2235 701.273 83.9432C700.97 83.6629 700.818 83.3258 700.818 82.9318C700.818 82.5379 700.97 82.2008 701.273 81.9205C701.576 81.6402 701.939 81.5 702.364 81.5C702.792 81.5 703.155 81.6402 703.455 81.9205C703.758 82.2008 703.909 82.5379 703.909 82.9318C703.909 83.3258 703.758 83.6629 703.455 83.9432C703.155 84.2235 702.792 84.3636 702.364 84.3636ZM710.734 85.2727V87.5455H704.984V85.2727H710.734ZM706.098 83.1818H709.234V91.1932C709.234 91.3144 709.255 91.4167 709.297 91.5C709.339 91.5795 709.403 91.6402 709.49 91.6818C709.577 91.7197 709.689 91.7386 709.825 91.7386C709.92 91.7386 710.03 91.7273 710.155 91.7045C710.284 91.6818 710.378 91.6629 710.439 91.6477L710.893 93.8523C710.753 93.8939 710.553 93.9451 710.291 94.0057C710.034 94.0663 709.727 94.1061 709.371 94.125C708.651 94.1629 708.047 94.089 707.558 93.9034C707.07 93.714 706.702 93.4167 706.456 93.0114C706.21 92.6061 706.09 92.0985 706.098 91.4886V83.1818ZM716.102 94.1591C715.17 94.1591 714.367 93.9811 713.693 93.625C713.023 93.2652 712.506 92.75 712.142 92.0795C711.782 91.4053 711.602 90.5985 711.602 89.6591C711.602 88.7576 711.784 87.9697 712.148 87.2955C712.511 86.6212 713.025 86.0966 713.688 85.7216C714.35 85.3466 715.133 85.1591 716.034 85.1591C716.693 85.1591 717.29 85.2614 717.824 85.4659C718.358 85.6705 718.814 85.9678 719.193 86.358C719.572 86.7443 719.864 87.214 720.068 87.767C720.273 88.3201 720.375 88.9432 720.375 89.6364V90.3636H712.58V88.6364H717.489C717.485 88.3864 717.42 88.1667 717.295 87.9773C717.174 87.7841 717.009 87.6345 716.801 87.5284C716.597 87.4186 716.364 87.3636 716.102 87.3636C715.848 87.3636 715.616 87.4186 715.403 87.5284C715.191 87.6345 715.021 87.7822 714.892 87.9716C714.767 88.161 714.701 88.3826 714.693 88.6364V90.5C714.693 90.7803 714.752 91.0303 714.869 91.25C714.987 91.4697 715.155 91.642 715.375 91.767C715.595 91.892 715.86 91.9545 716.17 91.9545C716.386 91.9545 716.583 91.9242 716.761 91.8636C716.943 91.803 717.098 91.7159 717.227 91.6023C717.356 91.4848 717.451 91.3447 717.511 91.1818H720.375C720.277 91.7879 720.044 92.3144 719.676 92.7614C719.309 93.2045 718.822 93.5492 718.216 93.7955C717.614 94.0379 716.909 94.1591 716.102 94.1591ZM721.655 94V85.2727H724.632V86.9318H724.723C724.905 86.3864 725.215 85.9545 725.655 85.6364C726.094 85.3182 726.617 85.1591 727.223 85.1591C727.837 85.1591 728.365 85.322 728.808 85.6477C729.251 85.9697 729.518 86.3977 729.609 86.9318H729.7C729.848 86.3977 730.162 85.9697 730.643 85.6477C731.125 85.322 731.689 85.1591 732.337 85.1591C733.174 85.1591 733.852 85.428 734.371 85.9659C734.893 86.5038 735.155 87.2197 735.155 88.1136V94H732.018V88.9091C732.018 88.5265 731.922 88.2273 731.729 88.0114C731.536 87.7917 731.276 87.6818 730.95 87.6818C730.628 87.6818 730.373 87.7917 730.183 88.0114C729.998 88.2273 729.905 88.5265 729.905 88.9091V94H726.905V88.9091C726.905 88.5265 726.808 88.2273 726.615 88.0114C726.422 87.7917 726.162 87.6818 725.837 87.6818C725.621 87.6818 725.435 87.7311 725.28 87.8295C725.125 87.928 725.003 88.0701 724.916 88.2557C724.833 88.4375 724.791 88.6553 724.791 88.9091V94H721.655Z" fill="#181818" fill-opacity="0.75"/>
<g filter="url(#filter16_d_128_685)">
<rect x="570" y="140" width="72" height="104" rx="8" fill="white" fill-opacity="0.75" shape-rendering="crispEdges"/>
</g>
<path d="M588.795 198V189.273H591.932V198H588.795ZM590.364 188.364C589.939 188.364 589.576 188.223 589.273 187.943C588.97 187.663 588.818 187.326 588.818 186.932C588.818 186.538 588.97 186.201 589.273 185.92C589.576 185.64 589.939 185.5 590.364 185.5C590.792 185.5 591.155 185.64 591.455 185.92C591.758 186.201 591.909 186.538 591.909 186.932C591.909 187.326 591.758 187.663 591.455 187.943C591.155 188.223 590.792 188.364 590.364 188.364ZM598.734 189.273V191.545H592.984V189.273H598.734ZM594.098 187.182H597.234V195.193C597.234 195.314 597.255 195.417 597.297 195.5C597.339 195.58 597.403 195.64 597.49 195.682C597.577 195.72 597.689 195.739 597.825 195.739C597.92 195.739 598.03 195.727 598.155 195.705C598.284 195.682 598.378 195.663 598.439 195.648L598.893 197.852C598.753 197.894 598.553 197.945 598.291 198.006C598.034 198.066 597.727 198.106 597.371 198.125C596.651 198.163 596.047 198.089 595.558 197.903C595.07 197.714 594.702 197.417 594.456 197.011C594.21 196.606 594.09 196.098 594.098 195.489V187.182ZM604.102 198.159C603.17 198.159 602.367 197.981 601.693 197.625C601.023 197.265 600.506 196.75 600.142 196.08C599.782 195.405 599.602 194.598 599.602 193.659C599.602 192.758 599.784 191.97 600.148 191.295C600.511 190.621 601.025 190.097 601.688 189.722C602.35 189.347 603.133 189.159 604.034 189.159C604.693 189.159 605.29 189.261 605.824 189.466C606.358 189.67 606.814 189.968 607.193 190.358C607.572 190.744 607.864 191.214 608.068 191.767C608.273 192.32 608.375 192.943 608.375 193.636V194.364H600.58V192.636H605.489C605.485 192.386 605.42 192.167 605.295 191.977C605.174 191.784 605.009 191.634 604.801 191.528C604.597 191.419 604.364 191.364 604.102 191.364C603.848 191.364 603.616 191.419 603.403 191.528C603.191 191.634 603.021 191.782 602.892 191.972C602.767 192.161 602.701 192.383 602.693 192.636V194.5C602.693 194.78 602.752 195.03 602.869 195.25C602.987 195.47 603.155 195.642 603.375 195.767C603.595 195.892 603.86 195.955 604.17 195.955C604.386 195.955 604.583 195.924 604.761 195.864C604.943 195.803 605.098 195.716 605.227 195.602C605.356 195.485 605.451 195.345 605.511 195.182H608.375C608.277 195.788 608.044 196.314 607.676 196.761C607.309 197.205 606.822 197.549 606.216 197.795C605.614 198.038 604.909 198.159 604.102 198.159ZM609.655 198V189.273H612.632V190.932H612.723C612.905 190.386 613.215 189.955 613.655 189.636C614.094 189.318 614.617 189.159 615.223 189.159C615.837 189.159 616.365 189.322 616.808 189.648C617.251 189.97 617.518 190.398 617.609 190.932H617.7C617.848 190.398 618.162 189.97 618.643 189.648C619.125 189.322 619.689 189.159 620.337 189.159C621.174 189.159 621.852 189.428 622.371 189.966C622.893 190.504 623.155 191.22 623.155 192.114V198H620.018V192.909C620.018 192.527 619.922 192.227 619.729 192.011C619.536 191.792 619.276 191.682 618.95 191.682C618.628 191.682 618.373 191.792 618.183 192.011C617.998 192.227 617.905 192.527 617.905 192.909V198H614.905V192.909C614.905 192.527 614.808 192.227 614.615 192.011C614.422 191.792 614.162 191.682 613.837 191.682C613.621 191.682 613.435 191.731 613.28 191.83C613.125 191.928 613.003 192.07 612.916 192.256C612.833 192.437 612.791 192.655 612.791 192.909V198H609.655Z" fill="#181818" fill-opacity="0.75"/>
<g filter="url(#filter17_d_128_685)">
<rect x="458" y="140" width="72" height="104" rx="8" fill="white" fill-opacity="0.75" shape-rendering="crispEdges"/>
</g>
<path d="M476.795 198V189.273H479.932V198H476.795ZM478.364 188.364C477.939 188.364 477.576 188.223 477.273 187.943C476.97 187.663 476.818 187.326 476.818 186.932C476.818 186.538 476.97 186.201 477.273 185.92C477.576 185.64 477.939 185.5 478.364 185.5C478.792 185.5 479.155 185.64 479.455 185.92C479.758 186.201 479.909 186.538 479.909 186.932C479.909 187.326 479.758 187.663 479.455 187.943C479.155 188.223 478.792 188.364 478.364 188.364ZM486.734 189.273V191.545H480.984V189.273H486.734ZM482.098 187.182H485.234V195.193C485.234 195.314 485.255 195.417 485.297 195.5C485.339 195.58 485.403 195.64 485.49 195.682C485.577 195.72 485.689 195.739 485.825 195.739C485.92 195.739 486.03 195.727 486.155 195.705C486.284 195.682 486.378 195.663 486.439 195.648L486.893 197.852C486.753 197.894 486.553 197.945 486.291 198.006C486.034 198.066 485.727 198.106 485.371 198.125C484.651 198.163 484.047 198.089 483.558 197.903C483.07 197.714 482.702 197.417 482.456 197.011C482.21 196.606 482.09 196.098 482.098 195.489V187.182ZM492.102 198.159C491.17 198.159 490.367 197.981 489.693 197.625C489.023 197.265 488.506 196.75 488.142 196.08C487.782 195.405 487.602 194.598 487.602 193.659C487.602 192.758 487.784 191.97 488.148 191.295C488.511 190.621 489.025 190.097 489.688 189.722C490.35 189.347 491.133 189.159 492.034 189.159C492.693 189.159 493.29 189.261 493.824 189.466C494.358 189.67 494.814 189.968 495.193 190.358C495.572 190.744 495.864 191.214 496.068 191.767C496.273 192.32 496.375 192.943 496.375 193.636V194.364H488.58V192.636H493.489C493.485 192.386 493.42 192.167 493.295 191.977C493.174 191.784 493.009 191.634 492.801 191.528C492.597 191.419 492.364 191.364 492.102 191.364C491.848 191.364 491.616 191.419 491.403 191.528C491.191 191.634 491.021 191.782 490.892 191.972C490.767 192.161 490.701 192.383 490.693 192.636V194.5C490.693 194.78 490.752 195.03 490.869 195.25C490.987 195.47 491.155 195.642 491.375 195.767C491.595 195.892 491.86 195.955 492.17 195.955C492.386 195.955 492.583 195.924 492.761 195.864C492.943 195.803 493.098 195.716 493.227 195.602C493.356 195.485 493.451 195.345 493.511 195.182H496.375C496.277 195.788 496.044 196.314 495.676 196.761C495.309 197.205 494.822 197.549 494.216 197.795C493.614 198.038 492.909 198.159 492.102 198.159ZM497.655 198V189.273H500.632V190.932H500.723C500.905 190.386 501.215 189.955 501.655 189.636C502.094 189.318 502.617 189.159 503.223 189.159C503.837 189.159 504.365 189.322 504.808 189.648C505.251 189.97 505.518 190.398 505.609 190.932H505.7C505.848 190.398 506.162 189.97 506.643 189.648C507.125 189.322 507.689 189.159 508.337 189.159C509.174 189.159 509.852 189.428 510.371 189.966C510.893 190.504 511.155 191.22 511.155 192.114V198H508.018V192.909C508.018 192.527 507.922 192.227 507.729 192.011C507.536 191.792 507.276 191.682 506.95 191.682C506.628 191.682 506.373 191.792 506.183 192.011C505.998 192.227 505.905 192.527 505.905 192.909V198H502.905V192.909C502.905 192.527 502.808 192.227 502.615 192.011C502.422 191.792 502.162 191.682 501.837 191.682C501.621 191.682 501.435 191.731 501.28 191.83C501.125 191.928 501.003 192.07 500.916 192.256C500.833 192.437 500.791 192.655 500.791 192.909V198H497.655Z" fill="#181818" fill-opacity="0.75"/>
<g filter="url(#filter18_d_128_685)">
<rect x="682" y="140" width="72" height="104" rx="8" fill="white" fill-opacity="0.75" shape-rendering="crispEdges"/>
</g>
<path d="M700.795 198V189.273H703.932V198H700.795ZM702.364 188.364C701.939 188.364 701.576 188.223 701.273 187.943C700.97 187.663 700.818 187.326 700.818 186.932C700.818 186.538 700.97 186.201 701.273 185.92C701.576 185.64 701.939 185.5 702.364 185.5C702.792 185.5 703.155 185.64 703.455 185.92C703.758 186.201 703.909 186.538 703.909 186.932C703.909 187.326 703.758 187.663 703.455 187.943C703.155 188.223 702.792 188.364 702.364 188.364ZM710.734 189.273V191.545H704.984V189.273H710.734ZM706.098 187.182H709.234V195.193C709.234 195.314 709.255 195.417 709.297 195.5C709.339 195.58 709.403 195.64 709.49 195.682C709.577 195.72 709.689 195.739 709.825 195.739C709.92 195.739 710.03 195.727 710.155 195.705C710.284 195.682 710.378 195.663 710.439 195.648L710.893 197.852C710.753 197.894 710.553 197.945 710.291 198.006C710.034 198.066 709.727 198.106 709.371 198.125C708.651 198.163 708.047 198.089 707.558 197.903C707.07 197.714 706.702 197.417 706.456 197.011C706.21 196.606 706.09 196.098 706.098 195.489V187.182ZM716.102 198.159C715.17 198.159 714.367 197.981 713.693 197.625C713.023 197.265 712.506 196.75 712.142 196.08C711.782 195.405 711.602 194.598 711.602 193.659C711.602 192.758 711.784 191.97 712.148 191.295C712.511 190.621 713.025 190.097 713.688 189.722C714.35 189.347 715.133 189.159 716.034 189.159C716.693 189.159 717.29 189.261 717.824 189.466C718.358 189.67 718.814 189.968 719.193 190.358C719.572 190.744 719.864 191.214 720.068 191.767C720.273 192.32 720.375 192.943 720.375 193.636V194.364H712.58V192.636H717.489C717.485 192.386 717.42 192.167 717.295 191.977C717.174 191.784 717.009 191.634 716.801 191.528C716.597 191.419 716.364 191.364 716.102 191.364C715.848 191.364 715.616 191.419 715.403 191.528C715.191 191.634 715.021 191.782 714.892 191.972C714.767 192.161 714.701 192.383 714.693 192.636V194.5C714.693 194.78 714.752 195.03 714.869 195.25C714.987 195.47 715.155 195.642 715.375 195.767C715.595 195.892 715.86 195.955 716.17 195.955C716.386 195.955 716.583 195.924 716.761 195.864C716.943 195.803 717.098 195.716 717.227 195.602C717.356 195.485 717.451 195.345 717.511 195.182H720.375C720.277 195.788 720.044 196.314 719.676 196.761C719.309 197.205 718.822 197.549 718.216 197.795C717.614 198.038 716.909 198.159 716.102 198.159ZM721.655 198V189.273H724.632V190.932H724.723C724.905 190.386 725.215 189.955 725.655 189.636C726.094 189.318 726.617 189.159 727.223 189.159C727.837 189.159 728.365 189.322 728.808 189.648C729.251 189.97 729.518 190.398 729.609 190.932H729.7C729.848 190.398 730.162 189.97 730.643 189.648C731.125 189.322 731.689 189.159 732.337 189.159C733.174 189.159 733.852 189.428 734.371 189.966C734.893 190.504 735.155 191.22 735.155 192.114V198H732.018V192.909C732.018 192.527 731.922 192.227 731.729 192.011C731.536 191.792 731.276 191.682 730.95 191.682C730.628 191.682 730.373 191.792 730.183 192.011C729.998 192.227 729.905 192.527 729.905 192.909V198H726.905V192.909C726.905 192.527 726.808 192.227 726.615 192.011C726.422 191.792 726.162 191.682 725.837 191.682C725.621 191.682 725.435 191.731 725.28 191.83C725.125 191.928 725.003 192.07 724.916 192.256C724.833 192.437 724.791 192.655 724.791 192.909V198H721.655Z" fill="#181818" fill-opacity="0.75"/>
<g filter="url(#filter19_d_128_685)">
<rect x="682" y="244" width="72" height="104" rx="8" fill="white" fill-opacity="0.75" shape-rendering="crispEdges"/>
</g>
<path d="M700.795 302V293.273H703.932V302H700.795ZM702.364 292.364C701.939 292.364 701.576 292.223 701.273 291.943C700.97 291.663 700.818 291.326 700.818 290.932C700.818 290.538 700.97 290.201 701.273 289.92C701.576 289.64 701.939 289.5 702.364 289.5C702.792 289.5 703.155 289.64 703.455 289.92C703.758 290.201 703.909 290.538 703.909 290.932C703.909 291.326 703.758 291.663 703.455 291.943C703.155 292.223 702.792 292.364 702.364 292.364ZM710.734 293.273V295.545H704.984V293.273H710.734ZM706.098 291.182H709.234V299.193C709.234 299.314 709.255 299.417 709.297 299.5C709.339 299.58 709.403 299.64 709.49 299.682C709.577 299.72 709.689 299.739 709.825 299.739C709.92 299.739 710.03 299.727 710.155 299.705C710.284 299.682 710.378 299.663 710.439 299.648L710.893 301.852C710.753 301.894 710.553 301.945 710.291 302.006C710.034 302.066 709.727 302.106 709.371 302.125C708.651 302.163 708.047 302.089 707.558 301.903C707.07 301.714 706.702 301.417 706.456 301.011C706.21 300.606 706.09 300.098 706.098 299.489V291.182ZM716.102 302.159C715.17 302.159 714.367 301.981 713.693 301.625C713.023 301.265 712.506 300.75 712.142 300.08C711.782 299.405 711.602 298.598 711.602 297.659C711.602 296.758 711.784 295.97 712.148 295.295C712.511 294.621 713.025 294.097 713.688 293.722C714.35 293.347 715.133 293.159 716.034 293.159C716.693 293.159 717.29 293.261 717.824 293.466C718.358 293.67 718.814 293.968 719.193 294.358C719.572 294.744 719.864 295.214 720.068 295.767C720.273 296.32 720.375 296.943 720.375 297.636V298.364H712.58V296.636H717.489C717.485 296.386 717.42 296.167 717.295 295.977C717.174 295.784 717.009 295.634 716.801 295.528C716.597 295.419 716.364 295.364 716.102 295.364C715.848 295.364 715.616 295.419 715.403 295.528C715.191 295.634 715.021 295.782 714.892 295.972C714.767 296.161 714.701 296.383 714.693 296.636V298.5C714.693 298.78 714.752 299.03 714.869 299.25C714.987 299.47 715.155 299.642 715.375 299.767C715.595 299.892 715.86 299.955 716.17 299.955C716.386 299.955 716.583 299.924 716.761 299.864C716.943 299.803 717.098 299.716 717.227 299.602C717.356 299.485 717.451 299.345 717.511 299.182H720.375C720.277 299.788 720.044 300.314 719.676 300.761C719.309 301.205 718.822 301.549 718.216 301.795C717.614 302.038 716.909 302.159 716.102 302.159ZM721.655 302V293.273H724.632V294.932H724.723C724.905 294.386 725.215 293.955 725.655 293.636C726.094 293.318 726.617 293.159 727.223 293.159C727.837 293.159 728.365 293.322 728.808 293.648C729.251 293.97 729.518 294.398 729.609 294.932H729.7C729.848 294.398 730.162 293.97 730.643 293.648C731.125 293.322 731.689 293.159 732.337 293.159C733.174 293.159 733.852 293.428 734.371 293.966C734.893 294.504 735.155 295.22 735.155 296.114V302H732.018V296.909C732.018 296.527 731.922 296.227 731.729 296.011C731.536 295.792 731.276 295.682 730.95 295.682C730.628 295.682 730.373 295.792 730.183 296.011C729.998 296.227 729.905 296.527 729.905 296.909V302H726.905V296.909C726.905 296.527 726.808 296.227 726.615 296.011C726.422 295.792 726.162 295.682 725.837 295.682C725.621 295.682 725.435 295.731 725.28 295.83C725.125 295.928 725.003 296.07 724.916 296.256C724.833 296.437 724.791 296.655 724.791 296.909V302H721.655Z" fill="#181818" fill-opacity="0.75"/>
<path d="M727.977 27.1591C727.045 27.1591 726.242 26.9811 725.568 26.625C724.898 26.2652 724.381 25.75 724.017 25.0795C723.657 24.4053 723.477 23.5985 723.477 22.6591C723.477 21.7576 723.659 20.9697 724.023 20.2955C724.386 19.6212 724.9 19.0966 725.562 18.7216C726.225 18.3466 727.008 18.1591 727.909 18.1591C728.568 18.1591 729.165 18.2614 729.699 18.4659C730.233 18.6705 730.689 18.9678 731.068 19.358C731.447 19.7443 731.739 20.214 731.943 20.767C732.148 21.3201 732.25 21.9432 732.25 22.6364V23.3636H724.455V21.6364H729.364C729.36 21.3864 729.295 21.1667 729.17 20.9773C729.049 20.7841 728.884 20.6345 728.676 20.5284C728.472 20.4186 728.239 20.3636 727.977 20.3636C727.723 20.3636 727.491 20.4186 727.278 20.5284C727.066 20.6345 726.896 20.7822 726.767 20.9716C726.642 21.161 726.576 21.3826 726.568 21.6364V23.5C726.568 23.7803 726.627 24.0303 726.744 24.25C726.862 24.4697 727.03 24.642 727.25 24.767C727.47 24.892 727.735 24.9545 728.045 24.9545C728.261 24.9545 728.458 24.9242 728.636 24.8636C728.818 24.803 728.973 24.7159 729.102 24.6023C729.231 24.4848 729.326 24.3447 729.386 24.1818H732.25C732.152 24.7879 731.919 25.3144 731.551 25.7614C731.184 26.2045 730.697 26.5492 730.091 26.7955C729.489 27.0379 728.784 27.1591 727.977 27.1591ZM736.666 22.0909V27H733.53V18.2727H736.507V19.9318H736.598C736.787 19.3788 737.121 18.9451 737.598 18.6307C738.079 18.3163 738.64 18.1591 739.28 18.1591C739.897 18.1591 740.433 18.3011 740.888 18.5852C741.346 18.8655 741.7 19.2519 741.95 19.7443C742.204 20.2367 742.329 20.7992 742.325 21.4318V27H739.189V22.0909C739.193 21.6591 739.083 21.3201 738.859 21.0739C738.64 20.8277 738.333 20.7045 737.939 20.7045C737.681 20.7045 737.456 20.7614 737.263 20.875C737.073 20.9848 736.928 21.1439 736.825 21.3523C736.723 21.5568 736.67 21.803 736.666 22.0909ZM747.033 27.1136C746.411 27.1136 745.839 26.9508 745.317 26.625C744.798 26.2992 744.381 25.8049 744.067 25.142C743.756 24.4792 743.601 23.6439 743.601 22.6364C743.601 21.5833 743.764 20.7273 744.089 20.0682C744.419 19.4091 744.843 18.9261 745.362 18.6193C745.885 18.3125 746.434 18.1591 747.01 18.1591C747.442 18.1591 747.821 18.2348 748.146 18.3864C748.472 18.5341 748.745 18.733 748.964 18.983C749.184 19.2292 749.351 19.5 749.464 19.7955H749.51V15.3636H752.646V27H749.533V25.5682H749.464C749.343 25.8636 749.169 26.1288 748.942 26.3636C748.718 26.5947 748.446 26.7784 748.124 26.9148C747.805 27.0473 747.442 27.1136 747.033 27.1136ZM748.192 24.7045C748.48 24.7045 748.726 24.6212 748.93 24.4545C749.139 24.2841 749.298 24.0455 749.408 23.7386C749.521 23.428 749.578 23.0606 749.578 22.6364C749.578 22.2045 749.521 21.8352 749.408 21.5284C749.298 21.2178 749.139 20.9811 748.93 20.8182C748.726 20.6515 748.48 20.5682 748.192 20.5682C747.904 20.5682 747.658 20.6515 747.453 20.8182C747.252 20.9811 747.097 21.2178 746.987 21.5284C746.881 21.8352 746.828 22.2045 746.828 22.6364C746.828 23.0682 746.881 23.4394 746.987 23.75C747.097 24.0568 747.252 24.2936 747.453 24.4602C747.658 24.6231 747.904 24.7045 748.192 24.7045Z" fill="#181818" fill-opacity="0.75"/>
<defs>
<filter id="filter0_d_128_685" x="0" y="0" width="384" height="376" filterUnits="userSpaceOnUse" color-interpolation-filters="sRGB">
<feFlood flood-opacity="0" result="BackgroundImageFix"/>
<feColorMatrix in="SourceAlpha" type="matrix" values="0 0 0 0 0 0 0 0 0 0 0 0 0 0 0 0 0 0 127 0" result="hardAlpha"/>
<feOffset dy="4"/>
<feGaussianBlur stdDeviation="4"/>
<feComposite in2="hardAlpha" operator="out"/>
<feColorMatrix type="matrix" values="0 0 0 0 0.129412 0 0 0 0 0.447059 0 0 0 0 1 0 0 0 0.25 0"/>
<feBlend mode="normal" in2="BackgroundImageFix" result="effect1_dropShadow_128_685"/>
<feBlend mode="normal" in="SourceGraphic" in2="effect1_dropShadow_128_685" result="shape"/>
</filter>
<filter id="filter1_d_128_685" x="128" y="240" width="88" height="120" filterUnits="userSpaceOnUse" color-interpolation-filters="sRGB">
<feFlood flood-opacity="0" result="BackgroundImageFix"/>
<feColorMatrix in="SourceAlpha" type="matrix" values="0 0 0 0 0 0 0 0 0 0 0 0 0 0 0 0 0 0 127 0" result="hardAlpha"/>
<feOffset dy="4"/>
<feGaussianBlur stdDeviation="4"/>
<feComposite in2="hardAlpha" operator="out"/>
<feColorMatrix type="matrix" values="0 0 0 0 1 0 0 0 0 1 0 0 0 0 1 0 0 0 0.25 0"/>
<feBlend mode="normal" in2="BackgroundImageFix" result="effect1_dropShadow_128_685"/>
<feBlend mode="normal" in="SourceGraphic" in2="effect1_dropShadow_128_685" result="shape"/>
</filter>
<filter id="filter2_d_128_685" x="128" y="32" width="88" height="120" filterUnits="userSpaceOnUse" color-interpolation-filters="sRGB">
<feFlood flood-opacity="0" result="BackgroundImageFix"/>
<feColorMatrix in="SourceAlpha" type="matrix" values="0 0 0 0 0 0 0 0 0 0 0 0 0 0 0 0 0 0 127 0" result="hardAlpha"/>
<feOffset dy="4"/>
<feGaussianBlur stdDeviation="4"/>
<feComposite in2="hardAlpha" operator="out"/>
<feColorMatrix type="matrix" values="0 0 0 0 1 0 0 0 0 1 0 0 0 0 1 0 0 0 0.25 0"/>
<feBlend mode="normal" in2="BackgroundImageFix" result="effect1_dropShadow_128_685"/>
<feBlend mode="normal" in="SourceGraphic" in2="effect1_dropShadow_128_685" result="shape"/>
</filter>
<filter id="filter3_d_128_685" x="16" y="240" width="88" height="120" filterUnits="userSpaceOnUse" color-interpolation-filters="sRGB">
<feFlood flood-opacity="0" result="BackgroundImageFix"/>
<feColorMatrix in="SourceAlpha" type="matrix" values="0 0 0 0 0 0 0 0 0 0 0 0 0 0 0 0 0 0 127 0" result="hardAlpha"/>
<feOffset dy="4"/>
<feGaussianBlur stdDeviation="4"/>
<feComposite in2="hardAlpha" operator="out"/>
<feColorMatrix type="matrix" values="0 0 0 0 1 0 0 0 0 1 0 0 0 0 1 0 0 0 0.25 0"/>
<feBlend mode="normal" in2="BackgroundImageFix" result="effect1_dropShadow_128_685"/>
<feBlend mode="normal" in="SourceGraphic" in2="effect1_dropShadow_128_685" result="shape"/>
</filter>
<filter id="filter4_d_128_685" x="16" y="32" width="88" height="120" filterUnits="userSpaceOnUse" color-interpolation-filters="sRGB">
<feFlood flood-opacity="0" result="BackgroundImageFix"/>
<feColorMatrix in="SourceAlpha" type="matrix" values="0 0 0 0 0 0 0 0 0 0 0 0 0 0 0 0 0 0 127 0" result="hardAlpha"/>
<feOffset dy="4"/>
<feGaussianBlur stdDeviation="4"/>
<feComposite in2="hardAlpha" operator="out"/>
<feColorMatrix type="matrix" values="0 0 0 0 1 0 0 0 0 1 0 0 0 0 1 0 0 0 0.25 0"/>
<feBlend mode="normal" in2="BackgroundImageFix" result="effect1_dropShadow_128_685"/>
<feBlend mode="normal" in="SourceGraphic" in2="effect1_dropShadow_128_685" result="shape"/>
</filter>
<filter id="filter5_d_128_685" x="240" y="32" width="88" height="120" filterUnits="userSpaceOnUse" color-interpolation-filters="sRGB">
<feFlood flood-opacity="0" result="BackgroundImageFix"/>
<feColorMatrix in="SourceAlpha" type="matrix" values="0 0 0 0 0 0 0 0 0 0 0 0 0 0 0 0 0 0 127 0" result="hardAlpha"/>
<feOffset dy="4"/>
<feGaussianBlur stdDeviation="4"/>
<feComposite in2="hardAlpha" operator="out"/>
<feColorMatrix type="matrix" values="0 0 0 0 1 0 0 0 0 1 0 0 0 0 1 0 0 0 0.25 0"/>
<feBlend mode="normal" in2="BackgroundImageFix" result="effect1_dropShadow_128_685"/>
<feBlend mode="normal" in="SourceGraphic" in2="effect1_dropShadow_128_685" result="shape"/>
</filter>
<filter id="filter6_d_128_685" x="128" y="136" width="88" height="120" filterUnits="userSpaceOnUse" color-interpolation-filters="sRGB">
<feFlood flood-opacity="0" result="BackgroundImageFix"/>
<feColorMatrix in="SourceAlpha" type="matrix" values="0 0 0 0 0 0 0 0 0 0 0 0 0 0 0 0 0 0 127 0" result="hardAlpha"/>
<feOffset dy="4"/>
<feGaussianBlur stdDeviation="4"/>
<feComposite in2="hardAlpha" operator="out"/>
<feColorMatrix type="matrix" values="0 0 0 0 1 0 0 0 0 1 0 0 0 0 1 0 0 0 0.25 0"/>
<feBlend mode="normal" in2="BackgroundImageFix" result="effect1_dropShadow_128_685"/>
<feBlend mode="normal" in="SourceGraphic" in2="effect1_dropShadow_128_685" result="shape"/>
</filter>
<filter id="filter7_d_128_685" x="16" y="136" width="88" height="120" filterUnits="userSpaceOnUse" color-interpolation-filters="sRGB">
<feFlood flood-opacity="0" result="BackgroundImageFix"/>
<feColorMatrix in="SourceAlpha" type="matrix" values="0 0 0 0 0 0 0 0 0 0 0 0 0 0 0 0 0 0 127 0" result="hardAlpha"/>
<feOffset dy="4"/>
<feGaussianBlur stdDeviation="4"/>
<feComposite in2="hardAlpha" operator="out"/>
<feColorMatrix type="matrix" values="0 0 0 0 1 0 0 0 0 1 0 0 0 0 1 0 0 0 0.25 0"/>
<feBlend mode="normal" in2="BackgroundImageFix" result="effect1_dropShadow_128_685"/>
<feBlend mode="normal" in="SourceGraphic" in2="effect1_dropShadow_128_685" result="shape"/>
</filter>
<filter id="filter8_d_128_685" x="240" y="136" width="88" height="120" filterUnits="userSpaceOnUse" color-interpolation-filters="sRGB">
<feFlood flood-opacity="0" result="BackgroundImageFix"/>
<feColorMatrix in="SourceAlpha" type="matrix" values="0 0 0 0 0 0 0 0 0 0 0 0 0 0 0 0 0 0 127 0" result="hardAlpha"/>
<feOffset dy="4"/>
<feGaussianBlur stdDeviation="4"/>
<feComposite in2="hardAlpha" operator="out"/>
<feColorMatrix type="matrix" values="0 0 0 0 1 0 0 0 0 1 0 0 0 0 1 0 0 0 0.25 0"/>
<feBlend mode="normal" in2="BackgroundImageFix" result="effect1_dropShadow_128_685"/>
<feBlend mode="normal" in="SourceGraphic" in2="effect1_dropShadow_128_685" result="shape"/>
</filter>
<filter id="filter9_d_128_685" x="240" y="240" width="88" height="120" filterUnits="userSpaceOnUse" color-interpolation-filters="sRGB">
<feFlood flood-opacity="0" result="BackgroundImageFix"/>
<feColorMatrix in="SourceAlpha" type="matrix" values="0 0 0 0 0 0 0 0 0 0 0 0 0 0 0 0 0 0 127 0" result="hardAlpha"/>
<feOffset dy="4"/>
<feGaussianBlur stdDeviation="4"/>
<feComposite in2="hardAlpha" operator="out"/>
<feColorMatrix type="matrix" values="0 0 0 0 1 0 0 0 0 1 0 0 0 0 1 0 0 0 0.25 0"/>
<feBlend mode="normal" in2="BackgroundImageFix" result="effect1_dropShadow_128_685"/>
<feBlend mode="normal" in="SourceGraphic" in2="effect1_dropShadow_128_685" result="shape"/>
</filter>
<filter id="filter10_d_128_685" x="394" y="0" width="384" height="376" filterUnits="userSpaceOnUse" color-interpolation-filters="sRGB">
<feFlood flood-opacity="0" result="BackgroundImageFix"/>
<feColorMatrix in="SourceAlpha" type="matrix" values="0 0 0 0 0 0 0 0 0 0 0 0 0 0 0 0 0 0 127 0" result="hardAlpha"/>
<feOffset dy="4"/>
<feGaussianBlur stdDeviation="4"/>
<feComposite in2="hardAlpha" operator="out"/>
<feColorMatrix type="matrix" values="0 0 0 0 0.129412 0 0 0 0 0.447059 0 0 0 0 1 0 0 0 0.25 0"/>
<feBlend mode="normal" in2="BackgroundImageFix" result="effect1_dropShadow_128_685"/>
<feBlend mode="normal" in="SourceGraphic" in2="effect1_dropShadow_128_685" result="shape"/>
</filter>
<filter id="filter11_d_128_685" x="562" y="240" width="88" height="120" filterUnits="userSpaceOnUse" color-interpolation-filters="sRGB">
<feFlood flood-opacity="0" result="BackgroundImageFix"/>
<feColorMatrix in="SourceAlpha" type="matrix" values="0 0 0 0 0 0 0 0 0 0 0 0 0 0 0 0 0 0 127 0" result="hardAlpha"/>
<feOffset dy="4"/>
<feGaussianBlur stdDeviation="4"/>
<feComposite in2="hardAlpha" operator="out"/>
<feColorMatrix type="matrix" values="0 0 0 0 1 0 0 0 0 1 0 0 0 0 1 0 0 0 0.25 0"/>
<feBlend mode="normal" in2="BackgroundImageFix" result="effect1_dropShadow_128_685"/>
<feBlend mode="normal" in="SourceGraphic" in2="effect1_dropShadow_128_685" result="shape"/>
</filter>
<filter id="filter12_d_128_685" x="562" y="32" width="88" height="120" filterUnits="userSpaceOnUse" color-interpolation-filters="sRGB">
<feFlood flood-opacity="0" result="BackgroundImageFix"/>
<feColorMatrix in="SourceAlpha" type="matrix" values="0 0 0 0 0 0 0 0 0 0 0 0 0 0 0 0 0 0 127 0" result="hardAlpha"/>
<feOffset dy="4"/>
<feGaussianBlur stdDeviation="4"/>
<feComposite in2="hardAlpha" operator="out"/>
<feColorMatrix type="matrix" values="0 0 0 0 1 0 0 0 0 1 0 0 0 0 1 0 0 0 0.25 0"/>
<feBlend mode="normal" in2="BackgroundImageFix" result="effect1_dropShadow_128_685"/>
<feBlend mode="normal" in="SourceGraphic" in2="effect1_dropShadow_128_685" result="shape"/>
</filter>
<filter id="filter13_d_128_685" x="450" y="240" width="88" height="120" filterUnits="userSpaceOnUse" color-interpolation-filters="sRGB">
<feFlood flood-opacity="0" result="BackgroundImageFix"/>
<feColorMatrix in="SourceAlpha" type="matrix" values="0 0 0 0 0 0 0 0 0 0 0 0 0 0 0 0 0 0 127 0" result="hardAlpha"/>
<feOffset dy="4"/>
<feGaussianBlur stdDeviation="4"/>
<feComposite in2="hardAlpha" operator="out"/>
<feColorMatrix type="matrix" values="0 0 0 0 1 0 0 0 0 1 0 0 0 0 1 0 0 0 0.25 0"/>
<feBlend mode="normal" in2="BackgroundImageFix" result="effect1_dropShadow_128_685"/>
<feBlend mode="normal" in="SourceGraphic" in2="effect1_dropShadow_128_685" result="shape"/>
</filter>
<filter id="filter14_d_128_685" x="450" y="32" width="88" height="120" filterUnits="userSpaceOnUse" color-interpolation-filters="sRGB">
<feFlood flood-opacity="0" result="BackgroundImageFix"/>
<feColorMatrix in="SourceAlpha" type="matrix" values="0 0 0 0 0 0 0 0 0 0 0 0 0 0 0 0 0 0 127 0" result="hardAlpha"/>
<feOffset dy="4"/>
<feGaussianBlur stdDeviation="4"/>
<feComposite in2="hardAlpha" operator="out"/>
<feColorMatrix type="matrix" values="0 0 0 0 1 0 0 0 0 1 0 0 0 0 1 0 0 0 0.25 0"/>
<feBlend mode="normal" in2="BackgroundImageFix" result="effect1_dropShadow_128_685"/>
<feBlend mode="normal" in="SourceGraphic" in2="effect1_dropShadow_128_685" result="shape"/>
</filter>
<filter id="filter15_d_128_685" x="674" y="32" width="88" height="120" filterUnits="userSpaceOnUse" color-interpolation-filters="sRGB">
<feFlood flood-opacity="0" result="BackgroundImageFix"/>
<feColorMatrix in="SourceAlpha" type="matrix" values="0 0 0 0 0 0 0 0 0 0 0 0 0 0 0 0 0 0 127 0" result="hardAlpha"/>
<feOffset dy="4"/>
<feGaussianBlur stdDeviation="4"/>
<feComposite in2="hardAlpha" operator="out"/>
<feColorMatrix type="matrix" values="0 0 0 0 1 0 0 0 0 1 0 0 0 0 1 0 0 0 0.25 0"/>
<feBlend mode="normal" in2="BackgroundImageFix" result="effect1_dropShadow_128_685"/>
<feBlend mode="normal" in="SourceGraphic" in2="effect1_dropShadow_128_685" result="shape"/>
</filter>
<filter id="filter16_d_128_685" x="562" y="136" width="88" height="120" filterUnits="userSpaceOnUse" color-interpolation-filters="sRGB">
<feFlood flood-opacity="0" result="BackgroundImageFix"/>
<feColorMatrix in="SourceAlpha" type="matrix" values="0 0 0 0 0 0 0 0 0 0 0 0 0 0 0 0 0 0 127 0" result="hardAlpha"/>
<feOffset dy="4"/>
<feGaussianBlur stdDeviation="4"/>
<feComposite in2="hardAlpha" operator="out"/>
<feColorMatrix type="matrix" values="0 0 0 0 1 0 0 0 0 1 0 0 0 0 1 0 0 0 0.25 0"/>
<feBlend mode="normal" in2="BackgroundImageFix" result="effect1_dropShadow_128_685"/>
<feBlend mode="normal" in="SourceGraphic" in2="effect1_dropShadow_128_685" result="shape"/>
</filter>
<filter id="filter17_d_128_685" x="450" y="136" width="88" height="120" filterUnits="userSpaceOnUse" color-interpolation-filters="sRGB">
<feFlood flood-opacity="0" result="BackgroundImageFix"/>
<feColorMatrix in="SourceAlpha" type="matrix" values="0 0 0 0 0 0 0 0 0 0 0 0 0 0 0 0 0 0 127 0" result="hardAlpha"/>
<feOffset dy="4"/>
<feGaussianBlur stdDeviation="4"/>
<feComposite in2="hardAlpha" operator="out"/>
<feColorMatrix type="matrix" values="0 0 0 0 1 0 0 0 0 1 0 0 0 0 1 0 0 0 0.25 0"/>
<feBlend mode="normal" in2="BackgroundImageFix" result="effect1_dropShadow_128_685"/>
<feBlend mode="normal" in="SourceGraphic" in2="effect1_dropShadow_128_685" result="shape"/>
</filter>
<filter id="filter18_d_128_685" x="674" y="136" width="88" height="120" filterUnits="userSpaceOnUse" color-interpolation-filters="sRGB">
<feFlood flood-opacity="0" result="BackgroundImageFix"/>
<feColorMatrix in="SourceAlpha" type="matrix" values="0 0 0 0 0 0 0 0 0 0 0 0 0 0 0 0 0 0 127 0" result="hardAlpha"/>
<feOffset dy="4"/>
<feGaussianBlur stdDeviation="4"/>
<feComposite in2="hardAlpha" operator="out"/>
<feColorMatrix type="matrix" values="0 0 0 0 1 0 0 0 0 1 0 0 0 0 1 0 0 0 0.25 0"/>
<feBlend mode="normal" in2="BackgroundImageFix" result="effect1_dropShadow_128_685"/>
<feBlend mode="normal" in="SourceGraphic" in2="effect1_dropShadow_128_685" result="shape"/>
</filter>
<filter id="filter19_d_128_685" x="674" y="240" width="88" height="120" filterUnits="userSpaceOnUse" color-interpolation-filters="sRGB">
<feFlood flood-opacity="0" result="BackgroundImageFix"/>
<feColorMatrix in="SourceAlpha" type="matrix" values="0 0 0 0 0 0 0 0 0 0 0 0 0 0 0 0 0 0 127 0" result="hardAlpha"/>
<feOffset dy="4"/>
<feGaussianBlur stdDeviation="4"/>
<feComposite in2="hardAlpha" operator="out"/>
<feColorMatrix type="matrix" values="0 0 0 0 1 0 0 0 0 1 0 0 0 0 1 0 0 0 0.25 0"/>
<feBlend mode="normal" in2="BackgroundImageFix" result="effect1_dropShadow_128_685"/>
<feBlend mode="normal" in="SourceGraphic" in2="effect1_dropShadow_128_685" result="shape"/>
</filter>
</defs>
</svg>
