<svg width="384" height="360" viewBox="0 0 384 360" fill="none" xmlns="http://www.w3.org/2000/svg">
<g filter="url(#filter0_d_128_633)">
<rect x="8" y="4" width="368" height="344" rx="8" fill="#2172FF" fill-opacity="0.8" shape-rendering="crispEdges"/>
</g>
<g filter="url(#filter1_d_128_633)">
<rect x="24" y="228" width="112" height="104" rx="8" fill="white" fill-opacity="0.75" shape-rendering="crispEdges"/>
</g>
<path d="M58.7727 280.114H55.8864C55.8712 279.936 55.8087 279.782 55.6989 279.653C55.589 279.525 55.447 279.426 55.2727 279.358C55.1023 279.286 54.9129 279.25 54.7045 279.25C54.4356 279.25 54.2045 279.299 54.0114 279.398C53.8182 279.496 53.7235 279.636 53.7273 279.818C53.7235 279.947 53.7784 280.066 53.892 280.176C54.0095 280.286 54.2348 280.371 54.5682 280.432L56.3409 280.75C57.2348 280.913 57.8996 281.187 58.3352 281.574C58.7746 281.956 58.9962 282.47 59 283.114C58.9962 283.735 58.8106 284.275 58.4432 284.733C58.0795 285.187 57.5814 285.54 56.9489 285.79C56.3201 286.036 55.6023 286.159 54.7955 286.159C53.4621 286.159 52.4186 285.886 51.6648 285.341C50.9148 284.795 50.4962 284.076 50.4091 283.182H53.5227C53.5644 283.458 53.7008 283.672 53.9318 283.824C54.1667 283.972 54.4621 284.045 54.8182 284.045C55.1061 284.045 55.3428 283.996 55.5284 283.898C55.7178 283.799 55.8144 283.659 55.8182 283.477C55.8144 283.311 55.7311 283.178 55.5682 283.08C55.4091 282.981 55.1591 282.902 54.8182 282.841L53.2727 282.568C52.3826 282.413 51.7159 282.117 51.2727 281.682C50.8295 281.246 50.6098 280.686 50.6136 280C50.6098 279.394 50.7689 278.881 51.0909 278.46C51.4167 278.036 51.8807 277.714 52.483 277.494C53.089 277.271 53.8068 277.159 54.6364 277.159C55.8977 277.159 56.892 277.42 57.6193 277.943C58.3504 278.466 58.7348 279.189 58.7727 280.114ZM65.4062 277.273V279.545H59.6562V277.273H65.4062ZM60.7699 275.182H63.9062V283.193C63.9062 283.314 63.9271 283.417 63.9688 283.5C64.0104 283.58 64.0748 283.64 64.1619 283.682C64.2491 283.72 64.3608 283.739 64.4972 283.739C64.5919 283.739 64.7017 283.727 64.8267 283.705C64.9555 283.682 65.0502 283.663 65.1108 283.648L65.5653 285.852C65.4252 285.894 65.2244 285.945 64.9631 286.006C64.7055 286.066 64.3987 286.106 64.0426 286.125C63.3229 286.163 62.7188 286.089 62.2301 285.903C61.7415 285.714 61.3741 285.417 61.1278 285.011C60.8816 284.606 60.7623 284.098 60.7699 283.489V275.182ZM66.6861 286V277.273H69.7315V278.932H69.8224C69.9815 278.318 70.2334 277.869 70.5781 277.585C70.9266 277.301 71.3338 277.159 71.7997 277.159C71.9361 277.159 72.0705 277.17 72.2031 277.193C72.3395 277.212 72.4702 277.241 72.5952 277.278V279.955C72.4399 279.902 72.2486 279.862 72.0213 279.835C71.794 279.809 71.599 279.795 71.4361 279.795C71.1293 279.795 70.8527 279.866 70.6065 280.006C70.3641 280.142 70.1728 280.335 70.0327 280.585C69.8925 280.831 69.8224 281.121 69.8224 281.455V286H66.6861ZM77.3054 286.159C76.3736 286.159 75.5705 285.981 74.8963 285.625C74.2259 285.265 73.7088 284.75 73.3452 284.08C72.9853 283.405 72.8054 282.598 72.8054 281.659C72.8054 280.758 72.9872 279.97 73.3509 279.295C73.7145 278.621 74.2277 278.097 74.8906 277.722C75.5535 277.347 76.3357 277.159 77.2372 277.159C77.8963 277.159 78.4929 277.261 79.027 277.466C79.5611 277.67 80.0175 277.968 80.3963 278.358C80.7751 278.744 81.0668 279.214 81.2713 279.767C81.4759 280.32 81.5781 280.943 81.5781 281.636V282.364H73.7827V280.636H78.6918C78.688 280.386 78.6236 280.167 78.4986 279.977C78.3774 279.784 78.2126 279.634 78.0043 279.528C77.7997 279.419 77.5668 279.364 77.3054 279.364C77.0516 279.364 76.8187 279.419 76.6065 279.528C76.3944 279.634 76.224 279.782 76.0952 279.972C75.9702 280.161 75.9039 280.383 75.8963 280.636V282.5C75.8963 282.78 75.955 283.03 76.0724 283.25C76.1899 283.47 76.3584 283.642 76.5781 283.767C76.7978 283.892 77.063 283.955 77.3736 283.955C77.5895 283.955 77.7865 283.924 77.9645 283.864C78.1463 283.803 78.3016 283.716 78.4304 283.602C78.5592 283.485 78.6539 283.345 78.7145 283.182H81.5781C81.4796 283.788 81.2467 284.314 80.8793 284.761C80.5118 285.205 80.0251 285.549 79.419 285.795C78.8168 286.038 78.1122 286.159 77.3054 286.159ZM88.0625 277.273V279.545H82.3125V277.273H88.0625ZM83.4261 275.182H86.5625V283.193C86.5625 283.314 86.5833 283.417 86.625 283.5C86.6667 283.58 86.7311 283.64 86.8182 283.682C86.9053 283.72 87.017 283.739 87.1534 283.739C87.2481 283.739 87.358 283.727 87.483 283.705C87.6117 283.682 87.7064 283.663 87.767 283.648L88.2216 285.852C88.0814 285.894 87.8807 285.945 87.6193 286.006C87.3617 286.066 87.0549 286.106 86.6989 286.125C85.9792 286.163 85.375 286.089 84.8864 285.903C84.3977 285.714 84.0303 285.417 83.7841 285.011C83.5379 284.606 83.4186 284.098 83.4261 283.489V275.182ZM93.4531 286.159C92.5062 286.159 91.6955 285.972 91.0213 285.597C90.3471 285.218 89.83 284.691 89.4702 284.017C89.1103 283.339 88.9304 282.553 88.9304 281.659C88.9304 280.765 89.1103 279.981 89.4702 279.307C89.83 278.629 90.3471 278.102 91.0213 277.727C91.6955 277.348 92.5062 277.159 93.4531 277.159C94.3092 277.159 95.0497 277.314 95.6747 277.625C96.3035 277.932 96.7902 278.367 97.1349 278.932C97.4796 279.492 97.6539 280.152 97.6577 280.909H94.7486C94.7069 280.451 94.5743 280.102 94.3509 279.864C94.1312 279.621 93.8471 279.5 93.4986 279.5C93.2259 279.5 92.9872 279.58 92.7827 279.739C92.5781 279.894 92.419 280.131 92.3054 280.449C92.1918 280.763 92.1349 281.159 92.1349 281.636C92.1349 282.114 92.1918 282.511 92.3054 282.83C92.419 283.144 92.5781 283.381 92.7827 283.54C92.9872 283.695 93.2259 283.773 93.4986 283.773C93.7296 283.773 93.9342 283.72 94.1122 283.614C94.2902 283.504 94.4342 283.345 94.544 283.136C94.6577 282.924 94.7259 282.667 94.7486 282.364H97.6577C97.6463 283.133 97.4702 283.803 97.1293 284.375C96.7884 284.943 96.3054 285.383 95.6804 285.693C95.0592 286.004 94.3168 286.159 93.4531 286.159ZM102.088 281.091V286H98.9517V274.364H101.974V278.932H102.065C102.262 278.375 102.59 277.941 103.048 277.631C103.507 277.316 104.058 277.159 104.702 277.159C105.319 277.159 105.855 277.299 106.31 277.58C106.768 277.86 107.122 278.246 107.372 278.739C107.626 279.231 107.751 279.795 107.747 280.432V286H104.611V281.091C104.615 280.659 104.507 280.32 104.287 280.074C104.071 279.828 103.762 279.705 103.361 279.705C103.107 279.705 102.884 279.761 102.69 279.875C102.501 279.985 102.353 280.144 102.247 280.352C102.145 280.557 102.092 280.803 102.088 281.091Z" fill="#181818" fill-opacity="0.75"/>
<g filter="url(#filter2_d_128_633)">
<rect x="24" y="20" width="72" height="104" rx="8" fill="white" fill-opacity="0.75" shape-rendering="crispEdges"/>
</g>
<path d="M50.7727 72.1136H47.8864C47.8712 71.9356 47.8087 71.7822 47.6989 71.6534C47.589 71.5246 47.447 71.4261 47.2727 71.358C47.1023 71.286 46.9129 71.25 46.7045 71.25C46.4356 71.25 46.2045 71.2992 46.0114 71.3977C45.8182 71.4962 45.7235 71.6364 45.7273 71.8182C45.7235 71.947 45.7784 72.0663 45.892 72.1761C46.0095 72.286 46.2348 72.3712 46.5682 72.4318L48.3409 72.75C49.2348 72.9129 49.8996 73.1875 50.3352 73.5739C50.7746 73.9564 50.9962 74.4697 51 75.1136C50.9962 75.7348 50.8106 76.2746 50.4432 76.733C50.0795 77.1875 49.5814 77.5398 48.9489 77.7898C48.3201 78.036 47.6023 78.1591 46.7955 78.1591C45.4621 78.1591 44.4186 77.8864 43.6648 77.3409C42.9148 76.7955 42.4962 76.0758 42.4091 75.1818H45.5227C45.5644 75.4583 45.7008 75.6723 45.9318 75.8239C46.1667 75.9716 46.4621 76.0455 46.8182 76.0455C47.1061 76.0455 47.3428 75.9962 47.5284 75.8977C47.7178 75.7992 47.8144 75.6591 47.8182 75.4773C47.8144 75.3106 47.7311 75.178 47.5682 75.0795C47.4091 74.9811 47.1591 74.9015 46.8182 74.8409L45.2727 74.5682C44.3826 74.4129 43.7159 74.1174 43.2727 73.6818C42.8295 73.2462 42.6098 72.6856 42.6136 72C42.6098 71.3939 42.7689 70.8807 43.0909 70.4602C43.4167 70.036 43.8807 69.714 44.483 69.4943C45.089 69.2708 45.8068 69.1591 46.6364 69.1591C47.8977 69.1591 48.892 69.4205 49.6193 69.9432C50.3504 70.4659 50.7348 71.1894 50.7727 72.1136ZM57.4062 69.2727V71.5455H51.6562V69.2727H57.4062ZM52.7699 67.1818H55.9062V75.1932C55.9062 75.3144 55.9271 75.4167 55.9688 75.5C56.0104 75.5795 56.0748 75.6402 56.1619 75.6818C56.2491 75.7197 56.3608 75.7386 56.4972 75.7386C56.5919 75.7386 56.7017 75.7273 56.8267 75.7045C56.9555 75.6818 57.0502 75.6629 57.1108 75.6477L57.5653 77.8523C57.4252 77.8939 57.2244 77.9451 56.9631 78.0057C56.7055 78.0663 56.3987 78.1061 56.0426 78.125C55.3229 78.1629 54.7188 78.089 54.2301 77.9034C53.7415 77.714 53.3741 77.4167 53.1278 77.0114C52.8816 76.6061 52.7623 76.0985 52.7699 75.4886V67.1818ZM61.1179 78.1364C60.5611 78.1364 60.0687 78.0455 59.6406 77.8636C59.2164 77.678 58.883 77.3977 58.6406 77.0227C58.3982 76.6477 58.277 76.1705 58.277 75.5909C58.277 75.1136 58.3584 74.7064 58.5213 74.3693C58.6842 74.0284 58.9115 73.75 59.2031 73.5341C59.4948 73.3182 59.8338 73.1534 60.2202 73.0398C60.6103 72.9261 61.0308 72.8523 61.4815 72.8182C61.9702 72.7803 62.3622 72.7348 62.6577 72.6818C62.9569 72.625 63.1728 72.5473 63.3054 72.4489C63.438 72.3466 63.5043 72.2121 63.5043 72.0455V72.0227C63.5043 71.7955 63.4171 71.6212 63.2429 71.5C63.0687 71.3788 62.8452 71.3182 62.5724 71.3182C62.2732 71.3182 62.0289 71.3845 61.8395 71.517C61.6539 71.6458 61.5421 71.8447 61.5043 72.1136H58.6179C58.6558 71.5833 58.8243 71.0947 59.1236 70.6477C59.4266 70.197 59.8679 69.8371 60.4474 69.5682C61.027 69.2955 61.7505 69.1591 62.6179 69.1591C63.2429 69.1591 63.8035 69.233 64.2997 69.3807C64.7959 69.5246 65.2183 69.7273 65.5668 69.9886C65.9152 70.2462 66.1804 70.5492 66.3622 70.8977C66.5478 71.2424 66.6406 71.6174 66.6406 72.0227V78H63.7088V76.7727H63.6406C63.4664 77.0985 63.2543 77.3617 63.0043 77.5625C62.758 77.7633 62.4759 77.9091 62.1577 78C61.8433 78.0909 61.4967 78.1364 61.1179 78.1364ZM62.1406 76.1591C62.3793 76.1591 62.6027 76.1098 62.8111 76.0114C63.0232 75.9129 63.1955 75.7708 63.3281 75.5852C63.4607 75.3996 63.527 75.1742 63.527 74.9091V74.1818C63.4437 74.2159 63.3546 74.2481 63.2599 74.2784C63.169 74.3087 63.0705 74.3371 62.9645 74.3636C62.8622 74.3902 62.7524 74.4148 62.6349 74.4375C62.5213 74.4602 62.402 74.4811 62.277 74.5C62.0346 74.5379 61.8357 74.6004 61.6804 74.6875C61.5289 74.7708 61.4152 74.875 61.3395 75C61.2675 75.1212 61.2315 75.2576 61.2315 75.4091C61.2315 75.6515 61.3168 75.8371 61.4872 75.9659C61.6577 76.0947 61.8755 76.1591 62.1406 76.1591ZM68.1392 78V69.2727H71.1847V70.9318H71.2756C71.4347 70.3182 71.6866 69.8693 72.0312 69.5852C72.3797 69.3011 72.7869 69.1591 73.2528 69.1591C73.3892 69.1591 73.5237 69.1705 73.6562 69.1932C73.7926 69.2121 73.9233 69.2405 74.0483 69.2784V71.9545C73.893 71.9015 73.7017 71.8617 73.4744 71.8352C73.2472 71.8087 73.0521 71.7955 72.8892 71.7955C72.5824 71.7955 72.3059 71.8655 72.0597 72.0057C71.8172 72.142 71.6259 72.3352 71.4858 72.5852C71.3456 72.8314 71.2756 73.1212 71.2756 73.4545V78H68.1392ZM80.6406 69.2727V71.5455H74.8906V69.2727H80.6406ZM76.0043 67.1818H79.1406V75.1932C79.1406 75.3144 79.1615 75.4167 79.2031 75.5C79.2448 75.5795 79.3092 75.6402 79.3963 75.6818C79.4834 75.7197 79.5952 75.7386 79.7315 75.7386C79.8262 75.7386 79.9361 75.7273 80.0611 75.7045C80.1899 75.6818 80.2846 75.6629 80.3452 75.6477L80.7997 77.8523C80.6596 77.8939 80.4588 77.9451 80.1974 78.0057C79.9399 78.0663 79.633 78.1061 79.277 78.125C78.5573 78.1629 77.9531 78.089 77.4645 77.9034C76.9759 77.714 76.6084 77.4167 76.3622 77.0114C76.116 76.6061 75.9967 76.0985 76.0043 75.4886V67.1818Z" fill="#181818" fill-opacity="0.75"/>
<g filter="url(#filter3_d_128_633)">
<rect x="287" y="20" width="72" height="104" rx="8" fill="white" fill-opacity="0.75" shape-rendering="crispEdges"/>
</g>
<path d="M312.977 78.1591C312.045 78.1591 311.242 77.9811 310.568 77.625C309.898 77.2652 309.381 76.75 309.017 76.0795C308.657 75.4053 308.477 74.5985 308.477 73.6591C308.477 72.7576 308.659 71.9697 309.023 71.2955C309.386 70.6212 309.9 70.0966 310.562 69.7216C311.225 69.3466 312.008 69.1591 312.909 69.1591C313.568 69.1591 314.165 69.2614 314.699 69.4659C315.233 69.6705 315.689 69.9678 316.068 70.358C316.447 70.7443 316.739 71.214 316.943 71.767C317.148 72.3201 317.25 72.9432 317.25 73.6364V74.3636H309.455V72.6364H314.364C314.36 72.3864 314.295 72.1667 314.17 71.9773C314.049 71.7841 313.884 71.6345 313.676 71.5284C313.472 71.4186 313.239 71.3636 312.977 71.3636C312.723 71.3636 312.491 71.4186 312.278 71.5284C312.066 71.6345 311.896 71.7822 311.767 71.9716C311.642 72.161 311.576 72.3826 311.568 72.6364V74.5C311.568 74.7803 311.627 75.0303 311.744 75.25C311.862 75.4697 312.03 75.642 312.25 75.767C312.47 75.892 312.735 75.9545 313.045 75.9545C313.261 75.9545 313.458 75.9242 313.636 75.8636C313.818 75.803 313.973 75.7159 314.102 75.6023C314.231 75.4848 314.326 75.3447 314.386 75.1818H317.25C317.152 75.7879 316.919 76.3144 316.551 76.7614C316.184 77.2045 315.697 77.5492 315.091 77.7955C314.489 78.0379 313.784 78.1591 312.977 78.1591ZM321.666 73.0909V78H318.53V69.2727H321.507V70.9318H321.598C321.787 70.3788 322.121 69.9451 322.598 69.6307C323.079 69.3163 323.64 69.1591 324.28 69.1591C324.897 69.1591 325.433 69.3011 325.888 69.5852C326.346 69.8655 326.7 70.2519 326.95 70.7443C327.204 71.2367 327.329 71.7992 327.325 72.4318V78H324.189V73.0909C324.193 72.6591 324.083 72.3201 323.859 72.0739C323.64 71.8277 323.333 71.7045 322.939 71.7045C322.681 71.7045 322.456 71.7614 322.263 71.875C322.073 71.9848 321.928 72.1439 321.825 72.3523C321.723 72.5568 321.67 72.803 321.666 73.0909ZM332.033 78.1136C331.411 78.1136 330.839 77.9508 330.317 77.625C329.798 77.2992 329.381 76.8049 329.067 76.142C328.756 75.4792 328.601 74.6439 328.601 73.6364C328.601 72.5833 328.764 71.7273 329.089 71.0682C329.419 70.4091 329.843 69.9261 330.362 69.6193C330.885 69.3125 331.434 69.1591 332.01 69.1591C332.442 69.1591 332.821 69.2348 333.146 69.3864C333.472 69.5341 333.745 69.733 333.964 69.983C334.184 70.2292 334.351 70.5 334.464 70.7955H334.51V66.3636H337.646V78H334.533V76.5682H334.464C334.343 76.8636 334.169 77.1288 333.942 77.3636C333.718 77.5947 333.446 77.7784 333.124 77.9148C332.805 78.0473 332.442 78.1136 332.033 78.1136ZM333.192 75.7045C333.48 75.7045 333.726 75.6212 333.93 75.4545C334.139 75.2841 334.298 75.0455 334.408 74.7386C334.521 74.428 334.578 74.0606 334.578 73.6364C334.578 73.2045 334.521 72.8352 334.408 72.5284C334.298 72.2178 334.139 71.9811 333.93 71.8182C333.726 71.6515 333.48 71.5682 333.192 71.5682C332.904 71.5682 332.658 71.6515 332.453 71.8182C332.252 71.9811 332.097 72.2178 331.987 72.5284C331.881 72.8352 331.828 73.2045 331.828 73.6364C331.828 74.0682 331.881 74.4394 331.987 74.75C332.097 75.0568 332.252 75.2936 332.453 75.4602C332.658 75.6231 332.904 75.7045 333.192 75.7045Z" fill="#181818" fill-opacity="0.75"/>
<g filter="url(#filter4_d_128_633)">
<rect x="156" y="124" width="72" height="104" rx="8" fill="white" fill-opacity="0.75" shape-rendering="crispEdges"/>
</g>
<path d="M170 182.159C169.053 182.159 168.242 181.972 167.568 181.597C166.894 181.218 166.377 180.691 166.017 180.017C165.657 179.339 165.477 178.553 165.477 177.659C165.477 176.765 165.657 175.981 166.017 175.307C166.377 174.629 166.894 174.102 167.568 173.727C168.242 173.348 169.053 173.159 170 173.159C170.856 173.159 171.597 173.314 172.222 173.625C172.85 173.932 173.337 174.367 173.682 174.932C174.027 175.492 174.201 176.152 174.205 176.909H171.295C171.254 176.451 171.121 176.102 170.898 175.864C170.678 175.621 170.394 175.5 170.045 175.5C169.773 175.5 169.534 175.58 169.33 175.739C169.125 175.894 168.966 176.131 168.852 176.449C168.739 176.763 168.682 177.159 168.682 177.636C168.682 178.114 168.739 178.511 168.852 178.83C168.966 179.144 169.125 179.381 169.33 179.54C169.534 179.695 169.773 179.773 170.045 179.773C170.277 179.773 170.481 179.72 170.659 179.614C170.837 179.504 170.981 179.345 171.091 179.136C171.205 178.924 171.273 178.667 171.295 178.364H174.205C174.193 179.133 174.017 179.803 173.676 180.375C173.335 180.943 172.852 181.383 172.227 181.693C171.606 182.004 170.864 182.159 170 182.159ZM179.68 182.159C178.749 182.159 177.946 181.981 177.271 181.625C176.601 181.265 176.084 180.75 175.72 180.08C175.36 179.405 175.18 178.598 175.18 177.659C175.18 176.758 175.362 175.97 175.726 175.295C176.089 174.621 176.603 174.097 177.266 173.722C177.929 173.347 178.711 173.159 179.612 173.159C180.271 173.159 180.868 173.261 181.402 173.466C181.936 173.67 182.393 173.968 182.771 174.358C183.15 174.744 183.442 175.214 183.646 175.767C183.851 176.32 183.953 176.943 183.953 177.636V178.364H176.158V176.636H181.067C181.063 176.386 180.999 176.167 180.874 175.977C180.752 175.784 180.588 175.634 180.379 175.528C180.175 175.419 179.942 175.364 179.68 175.364C179.427 175.364 179.194 175.419 178.982 175.528C178.769 175.634 178.599 175.782 178.47 175.972C178.345 176.161 178.279 176.383 178.271 176.636V178.5C178.271 178.78 178.33 179.03 178.447 179.25C178.565 179.47 178.733 179.642 178.953 179.767C179.173 179.892 179.438 179.955 179.749 179.955C179.964 179.955 180.161 179.924 180.339 179.864C180.521 179.803 180.677 179.716 180.805 179.602C180.934 179.485 181.029 179.345 181.089 179.182H183.953C183.855 179.788 183.622 180.314 183.254 180.761C182.887 181.205 182.4 181.549 181.794 181.795C181.192 182.038 180.487 182.159 179.68 182.159ZM188.369 177.091V182H185.233V173.273H188.21V174.932H188.301C188.491 174.379 188.824 173.945 189.301 173.631C189.782 173.316 190.343 173.159 190.983 173.159C191.6 173.159 192.136 173.301 192.591 173.585C193.049 173.866 193.403 174.252 193.653 174.744C193.907 175.237 194.032 175.799 194.028 176.432V182H190.892V177.091C190.896 176.659 190.786 176.32 190.562 176.074C190.343 175.828 190.036 175.705 189.642 175.705C189.384 175.705 189.159 175.761 188.966 175.875C188.777 175.985 188.631 176.144 188.528 176.352C188.426 176.557 188.373 176.803 188.369 177.091ZM200.781 173.273V175.545H195.031V173.273H200.781ZM196.145 171.182H199.281V179.193C199.281 179.314 199.302 179.417 199.344 179.5C199.385 179.58 199.45 179.64 199.537 179.682C199.624 179.72 199.736 179.739 199.872 179.739C199.967 179.739 200.077 179.727 200.202 179.705C200.33 179.682 200.425 179.663 200.486 179.648L200.94 181.852C200.8 181.894 200.599 181.945 200.338 182.006C200.08 182.066 199.774 182.106 199.418 182.125C198.698 182.163 198.094 182.089 197.605 181.903C197.116 181.714 196.749 181.417 196.503 181.011C196.257 180.606 196.137 180.098 196.145 179.489V171.182ZM206.149 182.159C205.217 182.159 204.414 181.981 203.74 181.625C203.07 181.265 202.553 180.75 202.189 180.08C201.829 179.405 201.649 178.598 201.649 177.659C201.649 176.758 201.831 175.97 202.195 175.295C202.558 174.621 203.071 174.097 203.734 173.722C204.397 173.347 205.179 173.159 206.081 173.159C206.74 173.159 207.337 173.261 207.871 173.466C208.405 173.67 208.861 173.968 209.24 174.358C209.619 174.744 209.911 175.214 210.115 175.767C210.32 176.32 210.422 176.943 210.422 177.636V178.364H202.626V176.636H207.536C207.532 176.386 207.467 176.167 207.342 175.977C207.221 175.784 207.056 175.634 206.848 175.528C206.643 175.419 206.411 175.364 206.149 175.364C205.895 175.364 205.662 175.419 205.45 175.528C205.238 175.634 205.068 175.782 204.939 175.972C204.814 176.161 204.748 176.383 204.74 176.636V178.5C204.74 178.78 204.799 179.03 204.916 179.25C205.034 179.47 205.202 179.642 205.422 179.767C205.642 179.892 205.907 179.955 206.217 179.955C206.433 179.955 206.63 179.924 206.808 179.864C206.99 179.803 207.145 179.716 207.274 179.602C207.403 179.485 207.498 179.345 207.558 179.182H210.422C210.323 179.788 210.09 180.314 209.723 180.761C209.356 181.205 208.869 181.549 208.263 181.795C207.661 182.038 206.956 182.159 206.149 182.159ZM211.702 182V173.273H214.747V174.932H214.838C214.997 174.318 215.249 173.869 215.594 173.585C215.942 173.301 216.349 173.159 216.815 173.159C216.952 173.159 217.086 173.17 217.219 173.193C217.355 173.212 217.486 173.241 217.611 173.278V175.955C217.455 175.902 217.264 175.862 217.037 175.835C216.81 175.809 216.615 175.795 216.452 175.795C216.145 175.795 215.868 175.866 215.622 176.006C215.38 176.142 215.188 176.335 215.048 176.585C214.908 176.831 214.838 177.121 214.838 177.455V182H211.702Z" fill="#181818" fill-opacity="0.75"/>
<g filter="url(#filter5_d_128_633)">
<rect x="248" y="228" width="112" height="104" rx="8" fill="white" fill-opacity="0.75" shape-rendering="crispEdges"/>
</g>
<path d="M283.773 280.114H280.886C280.871 279.936 280.809 279.782 280.699 279.653C280.589 279.525 280.447 279.426 280.273 279.358C280.102 279.286 279.913 279.25 279.705 279.25C279.436 279.25 279.205 279.299 279.011 279.398C278.818 279.496 278.723 279.636 278.727 279.818C278.723 279.947 278.778 280.066 278.892 280.176C279.009 280.286 279.235 280.371 279.568 280.432L281.341 280.75C282.235 280.913 282.9 281.187 283.335 281.574C283.775 281.956 283.996 282.47 284 283.114C283.996 283.735 283.811 284.275 283.443 284.733C283.08 285.187 282.581 285.54 281.949 285.79C281.32 286.036 280.602 286.159 279.795 286.159C278.462 286.159 277.419 285.886 276.665 285.341C275.915 284.795 275.496 284.076 275.409 283.182H278.523C278.564 283.458 278.701 283.672 278.932 283.824C279.167 283.972 279.462 284.045 279.818 284.045C280.106 284.045 280.343 283.996 280.528 283.898C280.718 283.799 280.814 283.659 280.818 283.477C280.814 283.311 280.731 283.178 280.568 283.08C280.409 282.981 280.159 282.902 279.818 282.841L278.273 282.568C277.383 282.413 276.716 282.117 276.273 281.682C275.83 281.246 275.61 280.686 275.614 280C275.61 279.394 275.769 278.881 276.091 278.46C276.417 278.036 276.881 277.714 277.483 277.494C278.089 277.271 278.807 277.159 279.636 277.159C280.898 277.159 281.892 277.42 282.619 277.943C283.35 278.466 283.735 279.189 283.773 280.114ZM290.406 277.273V279.545H284.656V277.273H290.406ZM285.77 275.182H288.906V283.193C288.906 283.314 288.927 283.417 288.969 283.5C289.01 283.58 289.075 283.64 289.162 283.682C289.249 283.72 289.361 283.739 289.497 283.739C289.592 283.739 289.702 283.727 289.827 283.705C289.955 283.682 290.05 283.663 290.111 283.648L290.565 285.852C290.425 285.894 290.224 285.945 289.963 286.006C289.705 286.066 289.399 286.106 289.043 286.125C288.323 286.163 287.719 286.089 287.23 285.903C286.741 285.714 286.374 285.417 286.128 285.011C285.882 284.606 285.762 284.098 285.77 283.489V275.182ZM291.686 286V277.273H294.732V278.932H294.822C294.982 278.318 295.233 277.869 295.578 277.585C295.927 277.301 296.334 277.159 296.8 277.159C296.936 277.159 297.071 277.17 297.203 277.193C297.339 277.212 297.47 277.241 297.595 277.278V279.955C297.44 279.902 297.249 279.862 297.021 279.835C296.794 279.809 296.599 279.795 296.436 279.795C296.129 279.795 295.853 279.866 295.607 280.006C295.364 280.142 295.173 280.335 295.033 280.585C294.893 280.831 294.822 281.121 294.822 281.455V286H291.686ZM302.305 286.159C301.374 286.159 300.571 285.981 299.896 285.625C299.226 285.265 298.709 284.75 298.345 284.08C297.985 283.405 297.805 282.598 297.805 281.659C297.805 280.758 297.987 279.97 298.351 279.295C298.714 278.621 299.228 278.097 299.891 277.722C300.554 277.347 301.336 277.159 302.237 277.159C302.896 277.159 303.493 277.261 304.027 277.466C304.561 277.67 305.018 277.968 305.396 278.358C305.775 278.744 306.067 279.214 306.271 279.767C306.476 280.32 306.578 280.943 306.578 281.636V282.364H298.783V280.636H303.692C303.688 280.386 303.624 280.167 303.499 279.977C303.377 279.784 303.213 279.634 303.004 279.528C302.8 279.419 302.567 279.364 302.305 279.364C302.052 279.364 301.819 279.419 301.607 279.528C301.394 279.634 301.224 279.782 301.095 279.972C300.97 280.161 300.904 280.383 300.896 280.636V282.5C300.896 282.78 300.955 283.03 301.072 283.25C301.19 283.47 301.358 283.642 301.578 283.767C301.798 283.892 302.063 283.955 302.374 283.955C302.589 283.955 302.786 283.924 302.964 283.864C303.146 283.803 303.302 283.716 303.43 283.602C303.559 283.485 303.654 283.345 303.714 283.182H306.578C306.48 283.788 306.247 284.314 305.879 284.761C305.512 285.205 305.025 285.549 304.419 285.795C303.817 286.038 303.112 286.159 302.305 286.159ZM313.062 277.273V279.545H307.312V277.273H313.062ZM308.426 275.182H311.562V283.193C311.562 283.314 311.583 283.417 311.625 283.5C311.667 283.58 311.731 283.64 311.818 283.682C311.905 283.72 312.017 283.739 312.153 283.739C312.248 283.739 312.358 283.727 312.483 283.705C312.612 283.682 312.706 283.663 312.767 283.648L313.222 285.852C313.081 285.894 312.881 285.945 312.619 286.006C312.362 286.066 312.055 286.106 311.699 286.125C310.979 286.163 310.375 286.089 309.886 285.903C309.398 285.714 309.03 285.417 308.784 285.011C308.538 284.606 308.419 284.098 308.426 283.489V275.182ZM318.453 286.159C317.506 286.159 316.696 285.972 316.021 285.597C315.347 285.218 314.83 284.691 314.47 284.017C314.11 283.339 313.93 282.553 313.93 281.659C313.93 280.765 314.11 279.981 314.47 279.307C314.83 278.629 315.347 278.102 316.021 277.727C316.696 277.348 317.506 277.159 318.453 277.159C319.309 277.159 320.05 277.314 320.675 277.625C321.304 277.932 321.79 278.367 322.135 278.932C322.48 279.492 322.654 280.152 322.658 280.909H319.749C319.707 280.451 319.574 280.102 319.351 279.864C319.131 279.621 318.847 279.5 318.499 279.5C318.226 279.5 317.987 279.58 317.783 279.739C317.578 279.894 317.419 280.131 317.305 280.449C317.192 280.763 317.135 281.159 317.135 281.636C317.135 282.114 317.192 282.511 317.305 282.83C317.419 283.144 317.578 283.381 317.783 283.54C317.987 283.695 318.226 283.773 318.499 283.773C318.73 283.773 318.934 283.72 319.112 283.614C319.29 283.504 319.434 283.345 319.544 283.136C319.658 282.924 319.726 282.667 319.749 282.364H322.658C322.646 283.133 322.47 283.803 322.129 284.375C321.788 284.943 321.305 285.383 320.68 285.693C320.059 286.004 319.317 286.159 318.453 286.159ZM327.088 281.091V286H323.952V274.364H326.974V278.932H327.065C327.262 278.375 327.59 277.941 328.048 277.631C328.507 277.316 329.058 277.159 329.702 277.159C330.319 277.159 330.855 277.299 331.31 277.58C331.768 277.86 332.122 278.246 332.372 278.739C332.626 279.231 332.751 279.795 332.747 280.432V286H329.611V281.091C329.615 280.659 329.507 280.32 329.287 280.074C329.071 279.828 328.762 279.705 328.361 279.705C328.107 279.705 327.884 279.761 327.69 279.875C327.501 279.985 327.353 280.144 327.247 280.352C327.145 280.557 327.092 280.803 327.088 281.091Z" fill="#181818" fill-opacity="0.75"/>
<defs>
<filter id="filter0_d_128_633" x="0" y="0" width="384" height="360" filterUnits="userSpaceOnUse" color-interpolation-filters="sRGB">
<feFlood flood-opacity="0" result="BackgroundImageFix"/>
<feColorMatrix in="SourceAlpha" type="matrix" values="0 0 0 0 0 0 0 0 0 0 0 0 0 0 0 0 0 0 127 0" result="hardAlpha"/>
<feOffset dy="4"/>
<feGaussianBlur stdDeviation="4"/>
<feComposite in2="hardAlpha" operator="out"/>
<feColorMatrix type="matrix" values="0 0 0 0 0.129412 0 0 0 0 0.447059 0 0 0 0 1 0 0 0 0.25 0"/>
<feBlend mode="normal" in2="BackgroundImageFix" result="effect1_dropShadow_128_633"/>
<feBlend mode="normal" in="SourceGraphic" in2="effect1_dropShadow_128_633" result="shape"/>
</filter>
<filter id="filter1_d_128_633" x="16" y="224" width="128" height="120" filterUnits="userSpaceOnUse" color-interpolation-filters="sRGB">
<feFlood flood-opacity="0" result="BackgroundImageFix"/>
<feColorMatrix in="SourceAlpha" type="matrix" values="0 0 0 0 0 0 0 0 0 0 0 0 0 0 0 0 0 0 127 0" result="hardAlpha"/>
<feOffset dy="4"/>
<feGaussianBlur stdDeviation="4"/>
<feComposite in2="hardAlpha" operator="out"/>
<feColorMatrix type="matrix" values="0 0 0 0 1 0 0 0 0 1 0 0 0 0 1 0 0 0 0.25 0"/>
<feBlend mode="normal" in2="BackgroundImageFix" result="effect1_dropShadow_128_633"/>
<feBlend mode="normal" in="SourceGraphic" in2="effect1_dropShadow_128_633" result="shape"/>
</filter>
<filter id="filter2_d_128_633" x="16" y="16" width="88" height="120" filterUnits="userSpaceOnUse" color-interpolation-filters="sRGB">
<feFlood flood-opacity="0" result="BackgroundImageFix"/>
<feColorMatrix in="SourceAlpha" type="matrix" values="0 0 0 0 0 0 0 0 0 0 0 0 0 0 0 0 0 0 127 0" result="hardAlpha"/>
<feOffset dy="4"/>
<feGaussianBlur stdDeviation="4"/>
<feComposite in2="hardAlpha" operator="out"/>
<feColorMatrix type="matrix" values="0 0 0 0 1 0 0 0 0 1 0 0 0 0 1 0 0 0 0.25 0"/>
<feBlend mode="normal" in2="BackgroundImageFix" result="effect1_dropShadow_128_633"/>
<feBlend mode="normal" in="SourceGraphic" in2="effect1_dropShadow_128_633" result="shape"/>
</filter>
<filter id="filter3_d_128_633" x="279" y="16" width="88" height="120" filterUnits="userSpaceOnUse" color-interpolation-filters="sRGB">
<feFlood flood-opacity="0" result="BackgroundImageFix"/>
<feColorMatrix in="SourceAlpha" type="matrix" values="0 0 0 0 0 0 0 0 0 0 0 0 0 0 0 0 0 0 127 0" result="hardAlpha"/>
<feOffset dy="4"/>
<feGaussianBlur stdDeviation="4"/>
<feComposite in2="hardAlpha" operator="out"/>
<feColorMatrix type="matrix" values="0 0 0 0 1 0 0 0 0 1 0 0 0 0 1 0 0 0 0.25 0"/>
<feBlend mode="normal" in2="BackgroundImageFix" result="effect1_dropShadow_128_633"/>
<feBlend mode="normal" in="SourceGraphic" in2="effect1_dropShadow_128_633" result="shape"/>
</filter>
<filter id="filter4_d_128_633" x="148" y="120" width="88" height="120" filterUnits="userSpaceOnUse" color-interpolation-filters="sRGB">
<feFlood flood-opacity="0" result="BackgroundImageFix"/>
<feColorMatrix in="SourceAlpha" type="matrix" values="0 0 0 0 0 0 0 0 0 0 0 0 0 0 0 0 0 0 127 0" result="hardAlpha"/>
<feOffset dy="4"/>
<feGaussianBlur stdDeviation="4"/>
<feComposite in2="hardAlpha" operator="out"/>
<feColorMatrix type="matrix" values="0 0 0 0 1 0 0 0 0 1 0 0 0 0 1 0 0 0 0.25 0"/>
<feBlend mode="normal" in2="BackgroundImageFix" result="effect1_dropShadow_128_633"/>
<feBlend mode="normal" in="SourceGraphic" in2="effect1_dropShadow_128_633" result="shape"/>
</filter>
<filter id="filter5_d_128_633" x="240" y="224" width="128" height="120" filterUnits="userSpaceOnUse" color-interpolation-filters="sRGB">
<feFlood flood-opacity="0" result="BackgroundImageFix"/>
<feColorMatrix in="SourceAlpha" type="matrix" values="0 0 0 0 0 0 0 0 0 0 0 0 0 0 0 0 0 0 127 0" result="hardAlpha"/>
<feOffset dy="4"/>
<feGaussianBlur stdDeviation="4"/>
<feComposite in2="hardAlpha" operator="out"/>
<feColorMatrix type="matrix" values="0 0 0 0 1 0 0 0 0 1 0 0 0 0 1 0 0 0 0.25 0"/>
<feBlend mode="normal" in2="BackgroundImageFix" result="effect1_dropShadow_128_633"/>
<feBlend mode="normal" in="SourceGraphic" in2="effect1_dropShadow_128_633" result="shape"/>
</filter>
</defs>
</svg>
