<svg width="784" height="376" viewBox="0 0 784 376" fill="none" xmlns="http://www.w3.org/2000/svg">
<g filter="url(#filter0_d_128_632)">
<rect x="8" y="4" width="368" height="360" rx="8" fill="#2172FF" fill-opacity="0.8" shape-rendering="crispEdges"/>
</g>
<g filter="url(#filter1_d_128_632)">
<rect x="156" y="180" width="72" height="72" rx="8" fill="white" fill-opacity="0.75" shape-rendering="crispEdges"/>
</g>
<path d="M174.795 221V212.273H177.932V221H174.795ZM176.364 211.364C175.939 211.364 175.576 211.223 175.273 210.943C174.97 210.663 174.818 210.326 174.818 209.932C174.818 209.538 174.97 209.201 175.273 208.92C175.576 208.64 175.939 208.5 176.364 208.5C176.792 208.5 177.155 208.64 177.455 208.92C177.758 209.201 177.909 209.538 177.909 209.932C177.909 210.326 177.758 210.663 177.455 210.943C177.155 211.223 176.792 211.364 176.364 211.364ZM184.734 212.273V214.545H178.984V212.273H184.734ZM180.098 210.182H183.234V218.193C183.234 218.314 183.255 218.417 183.297 218.5C183.339 218.58 183.403 218.64 183.49 218.682C183.577 218.72 183.689 218.739 183.825 218.739C183.92 218.739 184.03 218.727 184.155 218.705C184.284 218.682 184.378 218.663 184.439 218.648L184.893 220.852C184.753 220.894 184.553 220.945 184.291 221.006C184.034 221.066 183.727 221.106 183.371 221.125C182.651 221.163 182.047 221.089 181.558 220.903C181.07 220.714 180.702 220.417 180.456 220.011C180.21 219.606 180.09 219.098 180.098 218.489V210.182ZM190.102 221.159C189.17 221.159 188.367 220.981 187.693 220.625C187.023 220.265 186.506 219.75 186.142 219.08C185.782 218.405 185.602 217.598 185.602 216.659C185.602 215.758 185.784 214.97 186.148 214.295C186.511 213.621 187.025 213.097 187.688 212.722C188.35 212.347 189.133 212.159 190.034 212.159C190.693 212.159 191.29 212.261 191.824 212.466C192.358 212.67 192.814 212.968 193.193 213.358C193.572 213.744 193.864 214.214 194.068 214.767C194.273 215.32 194.375 215.943 194.375 216.636V217.364H186.58V215.636H191.489C191.485 215.386 191.42 215.167 191.295 214.977C191.174 214.784 191.009 214.634 190.801 214.528C190.597 214.419 190.364 214.364 190.102 214.364C189.848 214.364 189.616 214.419 189.403 214.528C189.191 214.634 189.021 214.782 188.892 214.972C188.767 215.161 188.701 215.383 188.693 215.636V217.5C188.693 217.78 188.752 218.03 188.869 218.25C188.987 218.47 189.155 218.642 189.375 218.767C189.595 218.892 189.86 218.955 190.17 218.955C190.386 218.955 190.583 218.924 190.761 218.864C190.943 218.803 191.098 218.716 191.227 218.602C191.356 218.485 191.451 218.345 191.511 218.182H194.375C194.277 218.788 194.044 219.314 193.676 219.761C193.309 220.205 192.822 220.549 192.216 220.795C191.614 221.038 190.909 221.159 190.102 221.159ZM195.655 221V212.273H198.632V213.932H198.723C198.905 213.386 199.215 212.955 199.655 212.636C200.094 212.318 200.617 212.159 201.223 212.159C201.837 212.159 202.365 212.322 202.808 212.648C203.251 212.97 203.518 213.398 203.609 213.932H203.7C203.848 213.398 204.162 212.97 204.643 212.648C205.125 212.322 205.689 212.159 206.337 212.159C207.174 212.159 207.852 212.428 208.371 212.966C208.893 213.504 209.155 214.22 209.155 215.114V221H206.018V215.909C206.018 215.527 205.922 215.227 205.729 215.011C205.536 214.792 205.276 214.682 204.95 214.682C204.628 214.682 204.373 214.792 204.183 215.011C203.998 215.227 203.905 215.527 203.905 215.909V221H200.905V215.909C200.905 215.527 200.808 215.227 200.615 215.011C200.422 214.792 200.162 214.682 199.837 214.682C199.621 214.682 199.435 214.731 199.28 214.83C199.125 214.928 199.003 215.07 198.916 215.256C198.833 215.437 198.791 215.655 198.791 215.909V221H195.655Z" fill="#181818" fill-opacity="0.75"/>
<g filter="url(#filter2_d_128_632)">
<rect x="156" y="36" width="72" height="72" rx="8" fill="white" fill-opacity="0.75" shape-rendering="crispEdges"/>
</g>
<path d="M174.795 77V68.2727H177.932V77H174.795ZM176.364 67.3636C175.939 67.3636 175.576 67.2235 175.273 66.9432C174.97 66.6629 174.818 66.3258 174.818 65.9318C174.818 65.5379 174.97 65.2008 175.273 64.9205C175.576 64.6402 175.939 64.5 176.364 64.5C176.792 64.5 177.155 64.6402 177.455 64.9205C177.758 65.2008 177.909 65.5379 177.909 65.9318C177.909 66.3258 177.758 66.6629 177.455 66.9432C177.155 67.2235 176.792 67.3636 176.364 67.3636ZM184.734 68.2727V70.5455H178.984V68.2727H184.734ZM180.098 66.1818H183.234V74.1932C183.234 74.3144 183.255 74.4167 183.297 74.5C183.339 74.5795 183.403 74.6402 183.49 74.6818C183.577 74.7197 183.689 74.7386 183.825 74.7386C183.92 74.7386 184.03 74.7273 184.155 74.7045C184.284 74.6818 184.378 74.6629 184.439 74.6477L184.893 76.8523C184.753 76.8939 184.553 76.9451 184.291 77.0057C184.034 77.0663 183.727 77.1061 183.371 77.125C182.651 77.1629 182.047 77.089 181.558 76.9034C181.07 76.714 180.702 76.4167 180.456 76.0114C180.21 75.6061 180.09 75.0985 180.098 74.4886V66.1818ZM190.102 77.1591C189.17 77.1591 188.367 76.9811 187.693 76.625C187.023 76.2652 186.506 75.75 186.142 75.0795C185.782 74.4053 185.602 73.5985 185.602 72.6591C185.602 71.7576 185.784 70.9697 186.148 70.2955C186.511 69.6212 187.025 69.0966 187.688 68.7216C188.35 68.3466 189.133 68.1591 190.034 68.1591C190.693 68.1591 191.29 68.2614 191.824 68.4659C192.358 68.6705 192.814 68.9678 193.193 69.358C193.572 69.7443 193.864 70.214 194.068 70.767C194.273 71.3201 194.375 71.9432 194.375 72.6364V73.3636H186.58V71.6364H191.489C191.485 71.3864 191.42 71.1667 191.295 70.9773C191.174 70.7841 191.009 70.6345 190.801 70.5284C190.597 70.4186 190.364 70.3636 190.102 70.3636C189.848 70.3636 189.616 70.4186 189.403 70.5284C189.191 70.6345 189.021 70.7822 188.892 70.9716C188.767 71.161 188.701 71.3826 188.693 71.6364V73.5C188.693 73.7803 188.752 74.0303 188.869 74.25C188.987 74.4697 189.155 74.642 189.375 74.767C189.595 74.892 189.86 74.9545 190.17 74.9545C190.386 74.9545 190.583 74.9242 190.761 74.8636C190.943 74.803 191.098 74.7159 191.227 74.6023C191.356 74.4848 191.451 74.3447 191.511 74.1818H194.375C194.277 74.7879 194.044 75.3144 193.676 75.7614C193.309 76.2045 192.822 76.5492 192.216 76.7955C191.614 77.0379 190.909 77.1591 190.102 77.1591ZM195.655 77V68.2727H198.632V69.9318H198.723C198.905 69.3864 199.215 68.9545 199.655 68.6364C200.094 68.3182 200.617 68.1591 201.223 68.1591C201.837 68.1591 202.365 68.322 202.808 68.6477C203.251 68.9697 203.518 69.3977 203.609 69.9318H203.7C203.848 69.3977 204.162 68.9697 204.643 68.6477C205.125 68.322 205.689 68.1591 206.337 68.1591C207.174 68.1591 207.852 68.428 208.371 68.9659C208.893 69.5038 209.155 70.2197 209.155 71.1136V77H206.018V71.9091C206.018 71.5265 205.922 71.2273 205.729 71.0114C205.536 70.7917 205.276 70.6818 204.95 70.6818C204.628 70.6818 204.373 70.7917 204.183 71.0114C203.998 71.2273 203.905 71.5265 203.905 71.9091V77H200.905V71.9091C200.905 71.5265 200.808 71.2273 200.615 71.0114C200.422 70.7917 200.162 70.6818 199.837 70.6818C199.621 70.6818 199.435 70.7311 199.28 70.8295C199.125 70.928 199.003 71.0701 198.916 71.2557C198.833 71.4375 198.791 71.6553 198.791 71.9091V77H195.655Z" fill="#181818" fill-opacity="0.75"/>
<g filter="url(#filter3_d_128_632)">
<rect x="40" y="180" width="72" height="72" rx="8" fill="white" fill-opacity="0.75" shape-rendering="crispEdges"/>
</g>
<path d="M58.7955 221V212.273H61.9318V221H58.7955ZM60.3636 211.364C59.9394 211.364 59.5758 211.223 59.2727 210.943C58.9697 210.663 58.8182 210.326 58.8182 209.932C58.8182 209.538 58.9697 209.201 59.2727 208.92C59.5758 208.64 59.9394 208.5 60.3636 208.5C60.7917 208.5 61.1553 208.64 61.4545 208.92C61.7576 209.201 61.9091 209.538 61.9091 209.932C61.9091 210.326 61.7576 210.663 61.4545 210.943C61.1553 211.223 60.7917 211.364 60.3636 211.364ZM68.7344 212.273V214.545H62.9844V212.273H68.7344ZM64.098 210.182H67.2344V218.193C67.2344 218.314 67.2552 218.417 67.2969 218.5C67.3385 218.58 67.4029 218.64 67.4901 218.682C67.5772 218.72 67.6889 218.739 67.8253 218.739C67.92 218.739 68.0298 218.727 68.1548 218.705C68.2836 218.682 68.3783 218.663 68.4389 218.648L68.8935 220.852C68.7533 220.894 68.5526 220.945 68.2912 221.006C68.0336 221.066 67.7268 221.106 67.3707 221.125C66.651 221.163 66.0469 221.089 65.5582 220.903C65.0696 220.714 64.7022 220.417 64.456 220.011C64.2098 219.606 64.0904 219.098 64.098 218.489V210.182ZM74.1023 221.159C73.1705 221.159 72.3674 220.981 71.6932 220.625C71.0227 220.265 70.5057 219.75 70.142 219.08C69.7822 218.405 69.6023 217.598 69.6023 216.659C69.6023 215.758 69.7841 214.97 70.1477 214.295C70.5114 213.621 71.0246 213.097 71.6875 212.722C72.3504 212.347 73.1326 212.159 74.0341 212.159C74.6932 212.159 75.2898 212.261 75.8239 212.466C76.358 212.67 76.8144 212.968 77.1932 213.358C77.572 213.744 77.8636 214.214 78.0682 214.767C78.2727 215.32 78.375 215.943 78.375 216.636V217.364H70.5795V215.636H75.4886C75.4848 215.386 75.4205 215.167 75.2955 214.977C75.1742 214.784 75.0095 214.634 74.8011 214.528C74.5966 214.419 74.3636 214.364 74.1023 214.364C73.8485 214.364 73.6155 214.419 73.4034 214.528C73.1913 214.634 73.0208 214.782 72.892 214.972C72.767 215.161 72.7008 215.383 72.6932 215.636V217.5C72.6932 217.78 72.7519 218.03 72.8693 218.25C72.9867 218.47 73.1553 218.642 73.375 218.767C73.5947 218.892 73.8598 218.955 74.1705 218.955C74.3864 218.955 74.5833 218.924 74.7614 218.864C74.9432 218.803 75.0985 218.716 75.2273 218.602C75.3561 218.485 75.4508 218.345 75.5114 218.182H78.375C78.2765 218.788 78.0436 219.314 77.6761 219.761C77.3087 220.205 76.822 220.549 76.2159 220.795C75.6136 221.038 74.9091 221.159 74.1023 221.159ZM79.6548 221V212.273H82.6321V213.932H82.723C82.9048 213.386 83.2154 212.955 83.6548 212.636C84.0942 212.318 84.617 212.159 85.223 212.159C85.8366 212.159 86.3651 212.322 86.8082 212.648C87.2514 212.97 87.5185 213.398 87.6094 213.932H87.7003C87.848 213.398 88.1624 212.97 88.6435 212.648C89.1245 212.322 89.6889 212.159 90.3366 212.159C91.1738 212.159 91.8518 212.428 92.3707 212.966C92.8935 213.504 93.1548 214.22 93.1548 215.114V221H90.0185V215.909C90.0185 215.527 89.9219 215.227 89.7287 215.011C89.5355 214.792 89.276 214.682 88.9503 214.682C88.6283 214.682 88.3726 214.792 88.1832 215.011C87.9976 215.227 87.9048 215.527 87.9048 215.909V221H84.9048V215.909C84.9048 215.527 84.8082 215.227 84.6151 215.011C84.4219 214.792 84.1624 214.682 83.8366 214.682C83.6207 214.682 83.4351 214.731 83.2798 214.83C83.1245 214.928 83.0033 215.07 82.9162 215.256C82.8329 215.437 82.7912 215.655 82.7912 215.909V221H79.6548Z" fill="#181818" fill-opacity="0.75"/>
<g filter="url(#filter4_d_128_632)">
<rect x="40" y="36" width="72" height="72" rx="8" fill="white" fill-opacity="0.75" shape-rendering="crispEdges"/>
</g>
<path d="M58.7955 77V68.2727H61.9318V77H58.7955ZM60.3636 67.3636C59.9394 67.3636 59.5758 67.2235 59.2727 66.9432C58.9697 66.6629 58.8182 66.3258 58.8182 65.9318C58.8182 65.5379 58.9697 65.2008 59.2727 64.9205C59.5758 64.6402 59.9394 64.5 60.3636 64.5C60.7917 64.5 61.1553 64.6402 61.4545 64.9205C61.7576 65.2008 61.9091 65.5379 61.9091 65.9318C61.9091 66.3258 61.7576 66.6629 61.4545 66.9432C61.1553 67.2235 60.7917 67.3636 60.3636 67.3636ZM68.7344 68.2727V70.5455H62.9844V68.2727H68.7344ZM64.098 66.1818H67.2344V74.1932C67.2344 74.3144 67.2552 74.4167 67.2969 74.5C67.3385 74.5795 67.4029 74.6402 67.4901 74.6818C67.5772 74.7197 67.6889 74.7386 67.8253 74.7386C67.92 74.7386 68.0298 74.7273 68.1548 74.7045C68.2836 74.6818 68.3783 74.6629 68.4389 74.6477L68.8935 76.8523C68.7533 76.8939 68.5526 76.9451 68.2912 77.0057C68.0336 77.0663 67.7268 77.1061 67.3707 77.125C66.651 77.1629 66.0469 77.089 65.5582 76.9034C65.0696 76.714 64.7022 76.4167 64.456 76.0114C64.2098 75.6061 64.0904 75.0985 64.098 74.4886V66.1818ZM74.1023 77.1591C73.1705 77.1591 72.3674 76.9811 71.6932 76.625C71.0227 76.2652 70.5057 75.75 70.142 75.0795C69.7822 74.4053 69.6023 73.5985 69.6023 72.6591C69.6023 71.7576 69.7841 70.9697 70.1477 70.2955C70.5114 69.6212 71.0246 69.0966 71.6875 68.7216C72.3504 68.3466 73.1326 68.1591 74.0341 68.1591C74.6932 68.1591 75.2898 68.2614 75.8239 68.4659C76.358 68.6705 76.8144 68.9678 77.1932 69.358C77.572 69.7443 77.8636 70.214 78.0682 70.767C78.2727 71.3201 78.375 71.9432 78.375 72.6364V73.3636H70.5795V71.6364H75.4886C75.4848 71.3864 75.4205 71.1667 75.2955 70.9773C75.1742 70.7841 75.0095 70.6345 74.8011 70.5284C74.5966 70.4186 74.3636 70.3636 74.1023 70.3636C73.8485 70.3636 73.6155 70.4186 73.4034 70.5284C73.1913 70.6345 73.0208 70.7822 72.892 70.9716C72.767 71.161 72.7008 71.3826 72.6932 71.6364V73.5C72.6932 73.7803 72.7519 74.0303 72.8693 74.25C72.9867 74.4697 73.1553 74.642 73.375 74.767C73.5947 74.892 73.8598 74.9545 74.1705 74.9545C74.3864 74.9545 74.5833 74.9242 74.7614 74.8636C74.9432 74.803 75.0985 74.7159 75.2273 74.6023C75.3561 74.4848 75.4508 74.3447 75.5114 74.1818H78.375C78.2765 74.7879 78.0436 75.3144 77.6761 75.7614C77.3087 76.2045 76.822 76.5492 76.2159 76.7955C75.6136 77.0379 74.9091 77.1591 74.1023 77.1591ZM79.6548 77V68.2727H82.6321V69.9318H82.723C82.9048 69.3864 83.2154 68.9545 83.6548 68.6364C84.0942 68.3182 84.617 68.1591 85.223 68.1591C85.8366 68.1591 86.3651 68.322 86.8082 68.6477C87.2514 68.9697 87.5185 69.3977 87.6094 69.9318H87.7003C87.848 69.3977 88.1624 68.9697 88.6435 68.6477C89.1245 68.322 89.6889 68.1591 90.3366 68.1591C91.1738 68.1591 91.8518 68.428 92.3707 68.9659C92.8935 69.5038 93.1548 70.2197 93.1548 71.1136V77H90.0185V71.9091C90.0185 71.5265 89.9219 71.2273 89.7287 71.0114C89.5355 70.7917 89.276 70.6818 88.9503 70.6818C88.6283 70.6818 88.3726 70.7917 88.1832 71.0114C87.9976 71.2273 87.9048 71.5265 87.9048 71.9091V77H84.9048V71.9091C84.9048 71.5265 84.8082 71.2273 84.6151 71.0114C84.4219 70.7917 84.1624 70.6818 83.8366 70.6818C83.6207 70.6818 83.4351 70.7311 83.2798 70.8295C83.1245 70.928 83.0033 71.0701 82.9162 71.2557C82.8329 71.4375 82.7912 71.6553 82.7912 71.9091V77H79.6548Z" fill="#181818" fill-opacity="0.75"/>
<g filter="url(#filter5_d_128_632)">
<rect x="272" y="36" width="72" height="72" rx="8" fill="white" fill-opacity="0.75" shape-rendering="crispEdges"/>
</g>
<path d="M290.795 77V68.2727H293.932V77H290.795ZM292.364 67.3636C291.939 67.3636 291.576 67.2235 291.273 66.9432C290.97 66.6629 290.818 66.3258 290.818 65.9318C290.818 65.5379 290.97 65.2008 291.273 64.9205C291.576 64.6402 291.939 64.5 292.364 64.5C292.792 64.5 293.155 64.6402 293.455 64.9205C293.758 65.2008 293.909 65.5379 293.909 65.9318C293.909 66.3258 293.758 66.6629 293.455 66.9432C293.155 67.2235 292.792 67.3636 292.364 67.3636ZM300.734 68.2727V70.5455H294.984V68.2727H300.734ZM296.098 66.1818H299.234V74.1932C299.234 74.3144 299.255 74.4167 299.297 74.5C299.339 74.5795 299.403 74.6402 299.49 74.6818C299.577 74.7197 299.689 74.7386 299.825 74.7386C299.92 74.7386 300.03 74.7273 300.155 74.7045C300.284 74.6818 300.378 74.6629 300.439 74.6477L300.893 76.8523C300.753 76.8939 300.553 76.9451 300.291 77.0057C300.034 77.0663 299.727 77.1061 299.371 77.125C298.651 77.1629 298.047 77.089 297.558 76.9034C297.07 76.714 296.702 76.4167 296.456 76.0114C296.21 75.6061 296.09 75.0985 296.098 74.4886V66.1818ZM306.102 77.1591C305.17 77.1591 304.367 76.9811 303.693 76.625C303.023 76.2652 302.506 75.75 302.142 75.0795C301.782 74.4053 301.602 73.5985 301.602 72.6591C301.602 71.7576 301.784 70.9697 302.148 70.2955C302.511 69.6212 303.025 69.0966 303.688 68.7216C304.35 68.3466 305.133 68.1591 306.034 68.1591C306.693 68.1591 307.29 68.2614 307.824 68.4659C308.358 68.6705 308.814 68.9678 309.193 69.358C309.572 69.7443 309.864 70.214 310.068 70.767C310.273 71.3201 310.375 71.9432 310.375 72.6364V73.3636H302.58V71.6364H307.489C307.485 71.3864 307.42 71.1667 307.295 70.9773C307.174 70.7841 307.009 70.6345 306.801 70.5284C306.597 70.4186 306.364 70.3636 306.102 70.3636C305.848 70.3636 305.616 70.4186 305.403 70.5284C305.191 70.6345 305.021 70.7822 304.892 70.9716C304.767 71.161 304.701 71.3826 304.693 71.6364V73.5C304.693 73.7803 304.752 74.0303 304.869 74.25C304.987 74.4697 305.155 74.642 305.375 74.767C305.595 74.892 305.86 74.9545 306.17 74.9545C306.386 74.9545 306.583 74.9242 306.761 74.8636C306.943 74.803 307.098 74.7159 307.227 74.6023C307.356 74.4848 307.451 74.3447 307.511 74.1818H310.375C310.277 74.7879 310.044 75.3144 309.676 75.7614C309.309 76.2045 308.822 76.5492 308.216 76.7955C307.614 77.0379 306.909 77.1591 306.102 77.1591ZM311.655 77V68.2727H314.632V69.9318H314.723C314.905 69.3864 315.215 68.9545 315.655 68.6364C316.094 68.3182 316.617 68.1591 317.223 68.1591C317.837 68.1591 318.365 68.322 318.808 68.6477C319.251 68.9697 319.518 69.3977 319.609 69.9318H319.7C319.848 69.3977 320.162 68.9697 320.643 68.6477C321.125 68.322 321.689 68.1591 322.337 68.1591C323.174 68.1591 323.852 68.428 324.371 68.9659C324.893 69.5038 325.155 70.2197 325.155 71.1136V77H322.018V71.9091C322.018 71.5265 321.922 71.2273 321.729 71.0114C321.536 70.7917 321.276 70.6818 320.95 70.6818C320.628 70.6818 320.373 70.7917 320.183 71.0114C319.998 71.2273 319.905 71.5265 319.905 71.9091V77H316.905V71.9091C316.905 71.5265 316.808 71.2273 316.615 71.0114C316.422 70.7917 316.162 70.6818 315.837 70.6818C315.621 70.6818 315.435 70.7311 315.28 70.8295C315.125 70.928 315.003 71.0701 314.916 71.2557C314.833 71.4375 314.791 71.6553 314.791 71.9091V77H311.655Z" fill="#181818" fill-opacity="0.75"/>
<g filter="url(#filter6_d_128_632)">
<rect x="156" y="108" width="72" height="72" rx="8" fill="white" fill-opacity="0.75" shape-rendering="crispEdges"/>
</g>
<path d="M174.795 149V140.273H177.932V149H174.795ZM176.364 139.364C175.939 139.364 175.576 139.223 175.273 138.943C174.97 138.663 174.818 138.326 174.818 137.932C174.818 137.538 174.97 137.201 175.273 136.92C175.576 136.64 175.939 136.5 176.364 136.5C176.792 136.5 177.155 136.64 177.455 136.92C177.758 137.201 177.909 137.538 177.909 137.932C177.909 138.326 177.758 138.663 177.455 138.943C177.155 139.223 176.792 139.364 176.364 139.364ZM184.734 140.273V142.545H178.984V140.273H184.734ZM180.098 138.182H183.234V146.193C183.234 146.314 183.255 146.417 183.297 146.5C183.339 146.58 183.403 146.64 183.49 146.682C183.577 146.72 183.689 146.739 183.825 146.739C183.92 146.739 184.03 146.727 184.155 146.705C184.284 146.682 184.378 146.663 184.439 146.648L184.893 148.852C184.753 148.894 184.553 148.945 184.291 149.006C184.034 149.066 183.727 149.106 183.371 149.125C182.651 149.163 182.047 149.089 181.558 148.903C181.07 148.714 180.702 148.417 180.456 148.011C180.21 147.606 180.09 147.098 180.098 146.489V138.182ZM190.102 149.159C189.17 149.159 188.367 148.981 187.693 148.625C187.023 148.265 186.506 147.75 186.142 147.08C185.782 146.405 185.602 145.598 185.602 144.659C185.602 143.758 185.784 142.97 186.148 142.295C186.511 141.621 187.025 141.097 187.688 140.722C188.35 140.347 189.133 140.159 190.034 140.159C190.693 140.159 191.29 140.261 191.824 140.466C192.358 140.67 192.814 140.968 193.193 141.358C193.572 141.744 193.864 142.214 194.068 142.767C194.273 143.32 194.375 143.943 194.375 144.636V145.364H186.58V143.636H191.489C191.485 143.386 191.42 143.167 191.295 142.977C191.174 142.784 191.009 142.634 190.801 142.528C190.597 142.419 190.364 142.364 190.102 142.364C189.848 142.364 189.616 142.419 189.403 142.528C189.191 142.634 189.021 142.782 188.892 142.972C188.767 143.161 188.701 143.383 188.693 143.636V145.5C188.693 145.78 188.752 146.03 188.869 146.25C188.987 146.47 189.155 146.642 189.375 146.767C189.595 146.892 189.86 146.955 190.17 146.955C190.386 146.955 190.583 146.924 190.761 146.864C190.943 146.803 191.098 146.716 191.227 146.602C191.356 146.485 191.451 146.345 191.511 146.182H194.375C194.277 146.788 194.044 147.314 193.676 147.761C193.309 148.205 192.822 148.549 192.216 148.795C191.614 149.038 190.909 149.159 190.102 149.159ZM195.655 149V140.273H198.632V141.932H198.723C198.905 141.386 199.215 140.955 199.655 140.636C200.094 140.318 200.617 140.159 201.223 140.159C201.837 140.159 202.365 140.322 202.808 140.648C203.251 140.97 203.518 141.398 203.609 141.932H203.7C203.848 141.398 204.162 140.97 204.643 140.648C205.125 140.322 205.689 140.159 206.337 140.159C207.174 140.159 207.852 140.428 208.371 140.966C208.893 141.504 209.155 142.22 209.155 143.114V149H206.018V143.909C206.018 143.527 205.922 143.227 205.729 143.011C205.536 142.792 205.276 142.682 204.95 142.682C204.628 142.682 204.373 142.792 204.183 143.011C203.998 143.227 203.905 143.527 203.905 143.909V149H200.905V143.909C200.905 143.527 200.808 143.227 200.615 143.011C200.422 142.792 200.162 142.682 199.837 142.682C199.621 142.682 199.435 142.731 199.28 142.83C199.125 142.928 199.003 143.07 198.916 143.256C198.833 143.437 198.791 143.655 198.791 143.909V149H195.655Z" fill="#181818" fill-opacity="0.75"/>
<g filter="url(#filter7_d_128_632)">
<rect x="40" y="108" width="72" height="72" rx="8" fill="white" fill-opacity="0.75" shape-rendering="crispEdges"/>
</g>
<path d="M58.7955 149V140.273H61.9318V149H58.7955ZM60.3636 139.364C59.9394 139.364 59.5758 139.223 59.2727 138.943C58.9697 138.663 58.8182 138.326 58.8182 137.932C58.8182 137.538 58.9697 137.201 59.2727 136.92C59.5758 136.64 59.9394 136.5 60.3636 136.5C60.7917 136.5 61.1553 136.64 61.4545 136.92C61.7576 137.201 61.9091 137.538 61.9091 137.932C61.9091 138.326 61.7576 138.663 61.4545 138.943C61.1553 139.223 60.7917 139.364 60.3636 139.364ZM68.7344 140.273V142.545H62.9844V140.273H68.7344ZM64.098 138.182H67.2344V146.193C67.2344 146.314 67.2552 146.417 67.2969 146.5C67.3385 146.58 67.4029 146.64 67.4901 146.682C67.5772 146.72 67.6889 146.739 67.8253 146.739C67.92 146.739 68.0298 146.727 68.1548 146.705C68.2836 146.682 68.3783 146.663 68.4389 146.648L68.8935 148.852C68.7533 148.894 68.5526 148.945 68.2912 149.006C68.0336 149.066 67.7268 149.106 67.3707 149.125C66.651 149.163 66.0469 149.089 65.5582 148.903C65.0696 148.714 64.7022 148.417 64.456 148.011C64.2098 147.606 64.0904 147.098 64.098 146.489V138.182ZM74.1023 149.159C73.1705 149.159 72.3674 148.981 71.6932 148.625C71.0227 148.265 70.5057 147.75 70.142 147.08C69.7822 146.405 69.6023 145.598 69.6023 144.659C69.6023 143.758 69.7841 142.97 70.1477 142.295C70.5114 141.621 71.0246 141.097 71.6875 140.722C72.3504 140.347 73.1326 140.159 74.0341 140.159C74.6932 140.159 75.2898 140.261 75.8239 140.466C76.358 140.67 76.8144 140.968 77.1932 141.358C77.572 141.744 77.8636 142.214 78.0682 142.767C78.2727 143.32 78.375 143.943 78.375 144.636V145.364H70.5795V143.636H75.4886C75.4848 143.386 75.4205 143.167 75.2955 142.977C75.1742 142.784 75.0095 142.634 74.8011 142.528C74.5966 142.419 74.3636 142.364 74.1023 142.364C73.8485 142.364 73.6155 142.419 73.4034 142.528C73.1913 142.634 73.0208 142.782 72.892 142.972C72.767 143.161 72.7008 143.383 72.6932 143.636V145.5C72.6932 145.78 72.7519 146.03 72.8693 146.25C72.9867 146.47 73.1553 146.642 73.375 146.767C73.5947 146.892 73.8598 146.955 74.1705 146.955C74.3864 146.955 74.5833 146.924 74.7614 146.864C74.9432 146.803 75.0985 146.716 75.2273 146.602C75.3561 146.485 75.4508 146.345 75.5114 146.182H78.375C78.2765 146.788 78.0436 147.314 77.6761 147.761C77.3087 148.205 76.822 148.549 76.2159 148.795C75.6136 149.038 74.9091 149.159 74.1023 149.159ZM79.6548 149V140.273H82.6321V141.932H82.723C82.9048 141.386 83.2154 140.955 83.6548 140.636C84.0942 140.318 84.617 140.159 85.223 140.159C85.8366 140.159 86.3651 140.322 86.8082 140.648C87.2514 140.97 87.5185 141.398 87.6094 141.932H87.7003C87.848 141.398 88.1624 140.97 88.6435 140.648C89.1245 140.322 89.6889 140.159 90.3366 140.159C91.1738 140.159 91.8518 140.428 92.3707 140.966C92.8935 141.504 93.1548 142.22 93.1548 143.114V149H90.0185V143.909C90.0185 143.527 89.9219 143.227 89.7287 143.011C89.5355 142.792 89.276 142.682 88.9503 142.682C88.6283 142.682 88.3726 142.792 88.1832 143.011C87.9976 143.227 87.9048 143.527 87.9048 143.909V149H84.9048V143.909C84.9048 143.527 84.8082 143.227 84.6151 143.011C84.4219 142.792 84.1624 142.682 83.8366 142.682C83.6207 142.682 83.4351 142.731 83.2798 142.83C83.1245 142.928 83.0033 143.07 82.9162 143.256C82.8329 143.437 82.7912 143.655 82.7912 143.909V149H79.6548Z" fill="#181818" fill-opacity="0.75"/>
<g filter="url(#filter8_d_128_632)">
<rect x="272" y="108" width="72" height="72" rx="8" fill="white" fill-opacity="0.75" shape-rendering="crispEdges"/>
</g>
<path d="M290.795 149V140.273H293.932V149H290.795ZM292.364 139.364C291.939 139.364 291.576 139.223 291.273 138.943C290.97 138.663 290.818 138.326 290.818 137.932C290.818 137.538 290.97 137.201 291.273 136.92C291.576 136.64 291.939 136.5 292.364 136.5C292.792 136.5 293.155 136.64 293.455 136.92C293.758 137.201 293.909 137.538 293.909 137.932C293.909 138.326 293.758 138.663 293.455 138.943C293.155 139.223 292.792 139.364 292.364 139.364ZM300.734 140.273V142.545H294.984V140.273H300.734ZM296.098 138.182H299.234V146.193C299.234 146.314 299.255 146.417 299.297 146.5C299.339 146.58 299.403 146.64 299.49 146.682C299.577 146.72 299.689 146.739 299.825 146.739C299.92 146.739 300.03 146.727 300.155 146.705C300.284 146.682 300.378 146.663 300.439 146.648L300.893 148.852C300.753 148.894 300.553 148.945 300.291 149.006C300.034 149.066 299.727 149.106 299.371 149.125C298.651 149.163 298.047 149.089 297.558 148.903C297.07 148.714 296.702 148.417 296.456 148.011C296.21 147.606 296.09 147.098 296.098 146.489V138.182ZM306.102 149.159C305.17 149.159 304.367 148.981 303.693 148.625C303.023 148.265 302.506 147.75 302.142 147.08C301.782 146.405 301.602 145.598 301.602 144.659C301.602 143.758 301.784 142.97 302.148 142.295C302.511 141.621 303.025 141.097 303.688 140.722C304.35 140.347 305.133 140.159 306.034 140.159C306.693 140.159 307.29 140.261 307.824 140.466C308.358 140.67 308.814 140.968 309.193 141.358C309.572 141.744 309.864 142.214 310.068 142.767C310.273 143.32 310.375 143.943 310.375 144.636V145.364H302.58V143.636H307.489C307.485 143.386 307.42 143.167 307.295 142.977C307.174 142.784 307.009 142.634 306.801 142.528C306.597 142.419 306.364 142.364 306.102 142.364C305.848 142.364 305.616 142.419 305.403 142.528C305.191 142.634 305.021 142.782 304.892 142.972C304.767 143.161 304.701 143.383 304.693 143.636V145.5C304.693 145.78 304.752 146.03 304.869 146.25C304.987 146.47 305.155 146.642 305.375 146.767C305.595 146.892 305.86 146.955 306.17 146.955C306.386 146.955 306.583 146.924 306.761 146.864C306.943 146.803 307.098 146.716 307.227 146.602C307.356 146.485 307.451 146.345 307.511 146.182H310.375C310.277 146.788 310.044 147.314 309.676 147.761C309.309 148.205 308.822 148.549 308.216 148.795C307.614 149.038 306.909 149.159 306.102 149.159ZM311.655 149V140.273H314.632V141.932H314.723C314.905 141.386 315.215 140.955 315.655 140.636C316.094 140.318 316.617 140.159 317.223 140.159C317.837 140.159 318.365 140.322 318.808 140.648C319.251 140.97 319.518 141.398 319.609 141.932H319.7C319.848 141.398 320.162 140.97 320.643 140.648C321.125 140.322 321.689 140.159 322.337 140.159C323.174 140.159 323.852 140.428 324.371 140.966C324.893 141.504 325.155 142.22 325.155 143.114V149H322.018V143.909C322.018 143.527 321.922 143.227 321.729 143.011C321.536 142.792 321.276 142.682 320.95 142.682C320.628 142.682 320.373 142.792 320.183 143.011C319.998 143.227 319.905 143.527 319.905 143.909V149H316.905V143.909C316.905 143.527 316.808 143.227 316.615 143.011C316.422 142.792 316.162 142.682 315.837 142.682C315.621 142.682 315.435 142.731 315.28 142.83C315.125 142.928 315.003 143.07 314.916 143.256C314.833 143.437 314.791 143.655 314.791 143.909V149H311.655Z" fill="#181818" fill-opacity="0.75"/>
<g filter="url(#filter9_d_128_632)">
<rect x="272" y="180" width="72" height="72" rx="8" fill="white" fill-opacity="0.75" shape-rendering="crispEdges"/>
</g>
<path d="M290.795 221V212.273H293.932V221H290.795ZM292.364 211.364C291.939 211.364 291.576 211.223 291.273 210.943C290.97 210.663 290.818 210.326 290.818 209.932C290.818 209.538 290.97 209.201 291.273 208.92C291.576 208.64 291.939 208.5 292.364 208.5C292.792 208.5 293.155 208.64 293.455 208.92C293.758 209.201 293.909 209.538 293.909 209.932C293.909 210.326 293.758 210.663 293.455 210.943C293.155 211.223 292.792 211.364 292.364 211.364ZM300.734 212.273V214.545H294.984V212.273H300.734ZM296.098 210.182H299.234V218.193C299.234 218.314 299.255 218.417 299.297 218.5C299.339 218.58 299.403 218.64 299.49 218.682C299.577 218.72 299.689 218.739 299.825 218.739C299.92 218.739 300.03 218.727 300.155 218.705C300.284 218.682 300.378 218.663 300.439 218.648L300.893 220.852C300.753 220.894 300.553 220.945 300.291 221.006C300.034 221.066 299.727 221.106 299.371 221.125C298.651 221.163 298.047 221.089 297.558 220.903C297.07 220.714 296.702 220.417 296.456 220.011C296.21 219.606 296.09 219.098 296.098 218.489V210.182ZM306.102 221.159C305.17 221.159 304.367 220.981 303.693 220.625C303.023 220.265 302.506 219.75 302.142 219.08C301.782 218.405 301.602 217.598 301.602 216.659C301.602 215.758 301.784 214.97 302.148 214.295C302.511 213.621 303.025 213.097 303.688 212.722C304.35 212.347 305.133 212.159 306.034 212.159C306.693 212.159 307.29 212.261 307.824 212.466C308.358 212.67 308.814 212.968 309.193 213.358C309.572 213.744 309.864 214.214 310.068 214.767C310.273 215.32 310.375 215.943 310.375 216.636V217.364H302.58V215.636H307.489C307.485 215.386 307.42 215.167 307.295 214.977C307.174 214.784 307.009 214.634 306.801 214.528C306.597 214.419 306.364 214.364 306.102 214.364C305.848 214.364 305.616 214.419 305.403 214.528C305.191 214.634 305.021 214.782 304.892 214.972C304.767 215.161 304.701 215.383 304.693 215.636V217.5C304.693 217.78 304.752 218.03 304.869 218.25C304.987 218.47 305.155 218.642 305.375 218.767C305.595 218.892 305.86 218.955 306.17 218.955C306.386 218.955 306.583 218.924 306.761 218.864C306.943 218.803 307.098 218.716 307.227 218.602C307.356 218.485 307.451 218.345 307.511 218.182H310.375C310.277 218.788 310.044 219.314 309.676 219.761C309.309 220.205 308.822 220.549 308.216 220.795C307.614 221.038 306.909 221.159 306.102 221.159ZM311.655 221V212.273H314.632V213.932H314.723C314.905 213.386 315.215 212.955 315.655 212.636C316.094 212.318 316.617 212.159 317.223 212.159C317.837 212.159 318.365 212.322 318.808 212.648C319.251 212.97 319.518 213.398 319.609 213.932H319.7C319.848 213.398 320.162 212.97 320.643 212.648C321.125 212.322 321.689 212.159 322.337 212.159C323.174 212.159 323.852 212.428 324.371 212.966C324.893 213.504 325.155 214.22 325.155 215.114V221H322.018V215.909C322.018 215.527 321.922 215.227 321.729 215.011C321.536 214.792 321.276 214.682 320.95 214.682C320.628 214.682 320.373 214.792 320.183 215.011C319.998 215.227 319.905 215.527 319.905 215.909V221H316.905V215.909C316.905 215.527 316.808 215.227 316.615 215.011C316.422 214.792 316.162 214.682 315.837 214.682C315.621 214.682 315.435 214.731 315.28 214.83C315.125 214.928 315.003 215.07 314.916 215.256C314.833 215.437 314.791 215.655 314.791 215.909V221H311.655Z" fill="#181818" fill-opacity="0.75"/>
<path d="M143.773 21.1136H140.886C140.871 20.9356 140.809 20.7822 140.699 20.6534C140.589 20.5246 140.447 20.4261 140.273 20.358C140.102 20.286 139.913 20.25 139.705 20.25C139.436 20.25 139.205 20.2992 139.011 20.3977C138.818 20.4962 138.723 20.6364 138.727 20.8182C138.723 20.947 138.778 21.0663 138.892 21.1761C139.009 21.286 139.235 21.3712 139.568 21.4318L141.341 21.75C142.235 21.9129 142.9 22.1875 143.335 22.5739C143.775 22.9564 143.996 23.4697 144 24.1136C143.996 24.7348 143.811 25.2746 143.443 25.733C143.08 26.1875 142.581 26.5398 141.949 26.7898C141.32 27.036 140.602 27.1591 139.795 27.1591C138.462 27.1591 137.419 26.8864 136.665 26.3409C135.915 25.7955 135.496 25.0758 135.409 24.1818H138.523C138.564 24.4583 138.701 24.6723 138.932 24.8239C139.167 24.9716 139.462 25.0455 139.818 25.0455C140.106 25.0455 140.343 24.9962 140.528 24.8977C140.718 24.7992 140.814 24.6591 140.818 24.4773C140.814 24.3106 140.731 24.178 140.568 24.0795C140.409 23.9811 140.159 23.9015 139.818 23.8409L138.273 23.5682C137.383 23.4129 136.716 23.1174 136.273 22.6818C135.83 22.2462 135.61 21.6856 135.614 21C135.61 20.3939 135.769 19.8807 136.091 19.4602C136.417 19.036 136.881 18.714 137.483 18.4943C138.089 18.2708 138.807 18.1591 139.636 18.1591C140.898 18.1591 141.892 18.4205 142.619 18.9432C143.35 19.4659 143.735 20.1894 143.773 21.1136ZM145.202 30.2727V18.2727H148.315V19.7955H148.384C148.497 19.5 148.664 19.2292 148.884 18.983C149.103 18.733 149.376 18.5341 149.702 18.3864C150.027 18.2348 150.406 18.1591 150.838 18.1591C151.414 18.1591 151.961 18.3125 152.48 18.6193C153.003 18.9261 153.427 19.4091 153.753 20.0682C154.082 20.7273 154.247 21.5833 154.247 22.6364C154.247 23.6439 154.09 24.4792 153.776 25.142C153.465 25.8049 153.048 26.2992 152.526 26.625C152.007 26.9508 151.437 27.1136 150.815 27.1136C150.406 27.1136 150.041 27.0473 149.719 26.9148C149.401 26.7784 149.128 26.5947 148.901 26.3636C148.677 26.1288 148.505 25.8636 148.384 25.5682H148.338V30.2727H145.202ZM148.27 22.6364C148.27 23.0606 148.325 23.428 148.435 23.7386C148.548 24.0455 148.707 24.2841 148.912 24.4545C149.12 24.6212 149.368 24.7045 149.656 24.7045C149.944 24.7045 150.188 24.6231 150.389 24.4602C150.594 24.2936 150.749 24.0568 150.855 23.75C150.965 23.4394 151.02 23.0682 151.02 22.6364C151.02 22.2045 150.965 21.8352 150.855 21.5284C150.749 21.2178 150.594 20.9811 150.389 20.8182C150.188 20.6515 149.944 20.5682 149.656 20.5682C149.368 20.5682 149.12 20.6515 148.912 20.8182C148.707 20.9811 148.548 21.2178 148.435 21.5284C148.325 21.8352 148.27 22.2045 148.27 22.6364ZM157.993 27.1364C157.436 27.1364 156.944 27.0455 156.516 26.8636C156.091 26.678 155.758 26.3977 155.516 26.0227C155.273 25.6477 155.152 25.1705 155.152 24.5909C155.152 24.1136 155.233 23.7064 155.396 23.3693C155.559 23.0284 155.786 22.75 156.078 22.5341C156.37 22.3182 156.709 22.1534 157.095 22.0398C157.485 21.9261 157.906 21.8523 158.357 21.8182C158.845 21.7803 159.237 21.7348 159.533 21.6818C159.832 21.625 160.048 21.5473 160.18 21.4489C160.313 21.3466 160.379 21.2121 160.379 21.0455V21.0227C160.379 20.7955 160.292 20.6212 160.118 20.5C159.944 20.3788 159.72 20.3182 159.447 20.3182C159.148 20.3182 158.904 20.3845 158.714 20.517C158.529 20.6458 158.417 20.8447 158.379 21.1136H155.493C155.531 20.5833 155.699 20.0947 155.999 19.6477C156.302 19.197 156.743 18.8371 157.322 18.5682C157.902 18.2955 158.625 18.1591 159.493 18.1591C160.118 18.1591 160.679 18.233 161.175 18.3807C161.671 18.5246 162.093 18.7273 162.442 18.9886C162.79 19.2462 163.055 19.5492 163.237 19.8977C163.423 20.2424 163.516 20.6174 163.516 21.0227V27H160.584V25.7727H160.516C160.341 26.0985 160.129 26.3617 159.879 26.5625C159.633 26.7633 159.351 26.9091 159.033 27C158.718 27.0909 158.372 27.1364 157.993 27.1364ZM159.016 25.1591C159.254 25.1591 159.478 25.1098 159.686 25.0114C159.898 24.9129 160.071 24.7708 160.203 24.5852C160.336 24.3996 160.402 24.1742 160.402 23.9091V23.1818C160.319 23.2159 160.23 23.2481 160.135 23.2784C160.044 23.3087 159.946 23.3371 159.839 23.3636C159.737 23.3902 159.627 23.4148 159.51 23.4375C159.396 23.4602 159.277 23.4811 159.152 23.5C158.91 23.5379 158.711 23.6004 158.555 23.6875C158.404 23.7708 158.29 23.875 158.214 24C158.143 24.1212 158.107 24.2576 158.107 24.4091C158.107 24.6515 158.192 24.8371 158.362 24.9659C158.533 25.0947 158.75 25.1591 159.016 25.1591ZM169.219 27.1591C168.272 27.1591 167.461 26.9716 166.787 26.5966C166.113 26.2178 165.596 25.6913 165.236 25.017C164.876 24.339 164.696 23.553 164.696 22.6591C164.696 21.7652 164.876 20.9811 165.236 20.3068C165.596 19.6288 166.113 19.1023 166.787 18.7273C167.461 18.3485 168.272 18.1591 169.219 18.1591C170.075 18.1591 170.815 18.3144 171.44 18.625C172.069 18.9318 172.556 19.3674 172.901 19.9318C173.245 20.4924 173.42 21.1515 173.423 21.9091H170.514C170.473 21.4508 170.34 21.1023 170.116 20.8636C169.897 20.6212 169.613 20.5 169.264 20.5C168.991 20.5 168.753 20.5795 168.548 20.7386C168.344 20.8939 168.185 21.1307 168.071 21.4489C167.957 21.7633 167.901 22.1591 167.901 22.6364C167.901 23.1136 167.957 23.5114 168.071 23.8295C168.185 24.1439 168.344 24.3807 168.548 24.5398C168.753 24.6951 168.991 24.7727 169.264 24.7727C169.495 24.7727 169.7 24.7197 169.878 24.6136C170.056 24.5038 170.2 24.3447 170.31 24.1364C170.423 23.9242 170.491 23.6667 170.514 23.3636H173.423C173.412 24.1326 173.236 24.803 172.895 25.375C172.554 25.9432 172.071 26.3826 171.446 26.6932C170.825 27.0038 170.082 27.1591 169.219 27.1591ZM178.899 27.1591C177.967 27.1591 177.164 26.9811 176.49 26.625C175.82 26.2652 175.303 25.75 174.939 25.0795C174.579 24.4053 174.399 23.5985 174.399 22.6591C174.399 21.7576 174.581 20.9697 174.945 20.2955C175.308 19.6212 175.821 19.0966 176.484 18.7216C177.147 18.3466 177.929 18.1591 178.831 18.1591C179.49 18.1591 180.087 18.2614 180.621 18.4659C181.155 18.6705 181.611 18.9678 181.99 19.358C182.369 19.7443 182.661 20.214 182.865 20.767C183.07 21.3201 183.172 21.9432 183.172 22.6364V23.3636H175.376V21.6364H180.286C180.282 21.3864 180.217 21.1667 180.092 20.9773C179.971 20.7841 179.806 20.6345 179.598 20.5284C179.393 20.4186 179.161 20.3636 178.899 20.3636C178.645 20.3636 178.412 20.4186 178.2 20.5284C177.988 20.6345 177.818 20.7822 177.689 20.9716C177.564 21.161 177.498 21.3826 177.49 21.6364V23.5C177.49 23.7803 177.549 24.0303 177.666 24.25C177.784 24.4697 177.952 24.642 178.172 24.767C178.392 24.892 178.657 24.9545 178.967 24.9545C179.183 24.9545 179.38 24.9242 179.558 24.8636C179.74 24.803 179.895 24.7159 180.024 24.6023C180.153 24.4848 180.248 24.3447 180.308 24.1818H183.172C183.073 24.7879 182.84 25.3144 182.473 25.7614C182.106 26.2045 181.619 26.5492 181.013 26.7955C180.411 27.0379 179.706 27.1591 178.899 27.1591ZM190.179 21.1818V23.5455H184.724V21.1818H190.179ZM194.477 27.1364C193.92 27.1364 193.428 27.0455 193 26.8636C192.576 26.678 192.242 26.3977 192 26.0227C191.758 25.6477 191.636 25.1705 191.636 24.5909C191.636 24.1136 191.718 23.7064 191.881 23.3693C192.044 23.0284 192.271 22.75 192.562 22.5341C192.854 22.3182 193.193 22.1534 193.58 22.0398C193.97 21.9261 194.39 21.8523 194.841 21.8182C195.33 21.7803 195.722 21.7348 196.017 21.6818C196.316 21.625 196.532 21.5473 196.665 21.4489C196.797 21.3466 196.864 21.2121 196.864 21.0455V21.0227C196.864 20.7955 196.777 20.6212 196.602 20.5C196.428 20.3788 196.205 20.3182 195.932 20.3182C195.633 20.3182 195.388 20.3845 195.199 20.517C195.013 20.6458 194.902 20.8447 194.864 21.1136H191.977C192.015 20.5833 192.184 20.0947 192.483 19.6477C192.786 19.197 193.227 18.8371 193.807 18.5682C194.386 18.2955 195.11 18.1591 195.977 18.1591C196.602 18.1591 197.163 18.233 197.659 18.3807C198.155 18.5246 198.578 18.7273 198.926 18.9886C199.275 19.2462 199.54 19.5492 199.722 19.8977C199.907 20.2424 200 20.6174 200 21.0227V27H197.068V25.7727H197C196.826 26.0985 196.614 26.3617 196.364 26.5625C196.117 26.7633 195.835 26.9091 195.517 27C195.203 27.0909 194.856 27.1364 194.477 27.1364ZM195.5 25.1591C195.739 25.1591 195.962 25.1098 196.17 25.0114C196.383 24.9129 196.555 24.7708 196.688 24.5852C196.82 24.3996 196.886 24.1742 196.886 23.9091V23.1818C196.803 23.2159 196.714 23.2481 196.619 23.2784C196.528 23.3087 196.43 23.3371 196.324 23.3636C196.222 23.3902 196.112 23.4148 195.994 23.4375C195.881 23.4602 195.761 23.4811 195.636 23.5C195.394 23.5379 195.195 23.6004 195.04 23.6875C194.888 23.7708 194.775 23.875 194.699 24C194.627 24.1212 194.591 24.2576 194.591 24.4091C194.591 24.6515 194.676 24.8371 194.847 24.9659C195.017 25.0947 195.235 25.1591 195.5 25.1591ZM201.499 27V18.2727H204.544V19.9318H204.635C204.794 19.3182 205.046 18.8693 205.391 18.5852C205.739 18.3011 206.146 18.1591 206.612 18.1591C206.749 18.1591 206.883 18.1705 207.016 18.1932C207.152 18.2121 207.283 18.2405 207.408 18.2784V20.9545C207.252 20.9015 207.061 20.8617 206.834 20.8352C206.607 20.8087 206.411 20.7955 206.249 20.7955C205.942 20.7955 205.665 20.8655 205.419 21.0057C205.177 21.142 204.985 21.3352 204.845 21.5852C204.705 21.8314 204.635 22.1212 204.635 22.4545V27H201.499ZM212.141 27.1591C211.194 27.1591 210.383 26.9716 209.709 26.5966C209.035 26.2178 208.518 25.6913 208.158 25.017C207.798 24.339 207.618 23.553 207.618 22.6591C207.618 21.7652 207.798 20.9811 208.158 20.3068C208.518 19.6288 209.035 19.1023 209.709 18.7273C210.383 18.3485 211.194 18.1591 212.141 18.1591C213.088 18.1591 213.898 18.3485 214.572 18.7273C215.247 19.1023 215.764 19.6288 216.124 20.3068C216.483 20.9811 216.663 21.7652 216.663 22.6591C216.663 23.553 216.483 24.339 216.124 25.017C215.764 25.6913 215.247 26.2178 214.572 26.5966C213.898 26.9716 213.088 27.1591 212.141 27.1591ZM212.163 24.8409C212.429 24.8409 212.658 24.7519 212.851 24.5739C213.044 24.3958 213.194 24.142 213.3 23.8125C213.406 23.483 213.459 23.0909 213.459 22.6364C213.459 22.178 213.406 21.786 213.3 21.4602C213.194 21.1307 213.044 20.8769 212.851 20.6989C212.658 20.5208 212.429 20.4318 212.163 20.4318C211.883 20.4318 211.643 20.5208 211.442 20.6989C211.241 20.8769 211.088 21.1307 210.982 21.4602C210.875 21.786 210.822 22.178 210.822 22.6364C210.822 23.0909 210.875 23.483 210.982 23.8125C211.088 24.142 211.241 24.3958 211.442 24.5739C211.643 24.7519 211.883 24.8409 212.163 24.8409ZM223.595 23.1818V18.2727H226.732V27H223.754V25.3409H223.663C223.474 25.8977 223.143 26.3333 222.669 26.6477C222.196 26.9583 221.633 27.1136 220.982 27.1136C220.372 27.1136 219.838 26.9735 219.379 26.6932C218.925 26.4129 218.571 26.0265 218.317 25.5341C218.067 25.0417 217.94 24.4773 217.936 23.8409V18.2727H221.072V23.1818C221.076 23.6136 221.186 23.9527 221.402 24.1989C221.622 24.4451 221.929 24.5682 222.322 24.5682C222.584 24.5682 222.809 24.5133 222.999 24.4034C223.192 24.2898 223.339 24.1307 223.442 23.9261C223.548 23.7178 223.599 23.4697 223.595 23.1818ZM231.463 22.0909V27H228.327V18.2727H231.304V19.9318H231.395C231.584 19.3788 231.918 18.9451 232.395 18.6307C232.876 18.3163 233.437 18.1591 234.077 18.1591C234.694 18.1591 235.23 18.3011 235.685 18.5852C236.143 18.8655 236.497 19.2519 236.747 19.7443C237.001 20.2367 237.126 20.7992 237.122 21.4318V27H233.986V22.0909C233.99 21.6591 233.88 21.3201 233.656 21.0739C233.437 20.8277 233.13 20.7045 232.736 20.7045C232.478 20.7045 232.253 20.7614 232.06 20.875C231.87 20.9848 231.724 21.1439 231.622 21.3523C231.52 21.5568 231.467 21.803 231.463 22.0909ZM241.83 27.1136C241.208 27.1136 240.636 26.9508 240.114 26.625C239.595 26.2992 239.178 25.8049 238.864 25.142C238.553 24.4792 238.398 23.6439 238.398 22.6364C238.398 21.5833 238.561 20.7273 238.886 20.0682C239.216 19.4091 239.64 18.9261 240.159 18.6193C240.682 18.3125 241.231 18.1591 241.807 18.1591C242.239 18.1591 242.617 18.2348 242.943 18.3864C243.269 18.5341 243.542 18.733 243.761 18.983C243.981 19.2292 244.148 19.5 244.261 19.7955H244.307V15.3636H247.443V27H244.33V25.5682H244.261C244.14 25.8636 243.966 26.1288 243.739 26.3636C243.515 26.5947 243.242 26.7784 242.92 26.9148C242.602 27.0473 242.239 27.1136 241.83 27.1136ZM242.989 24.7045C243.277 24.7045 243.523 24.6212 243.727 24.4545C243.936 24.2841 244.095 24.0455 244.205 23.7386C244.318 23.428 244.375 23.0606 244.375 22.6364C244.375 22.2045 244.318 21.8352 244.205 21.5284C244.095 21.2178 243.936 20.9811 243.727 20.8182C243.523 20.6515 243.277 20.5682 242.989 20.5682C242.701 20.5682 242.455 20.6515 242.25 20.8182C242.049 20.9811 241.894 21.2178 241.784 21.5284C241.678 21.8352 241.625 22.2045 241.625 22.6364C241.625 23.0682 241.678 23.4394 241.784 23.75C241.894 24.0568 242.049 24.2936 242.25 24.4602C242.455 24.6231 242.701 24.7045 242.989 24.7045Z" fill="#181818" fill-opacity="0.75"/>
<g filter="url(#filter10_d_128_632)">
<rect x="408" y="4" width="368" height="360" rx="8" fill="#2172FF" fill-opacity="0.8" shape-rendering="crispEdges"/>
</g>
<g filter="url(#filter11_d_128_632)">
<rect x="556" y="180" width="72" height="72" rx="8" fill="white" fill-opacity="0.75" shape-rendering="crispEdges"/>
</g>
<path d="M574.795 221V212.273H577.932V221H574.795ZM576.364 211.364C575.939 211.364 575.576 211.223 575.273 210.943C574.97 210.663 574.818 210.326 574.818 209.932C574.818 209.538 574.97 209.201 575.273 208.92C575.576 208.64 575.939 208.5 576.364 208.5C576.792 208.5 577.155 208.64 577.455 208.92C577.758 209.201 577.909 209.538 577.909 209.932C577.909 210.326 577.758 210.663 577.455 210.943C577.155 211.223 576.792 211.364 576.364 211.364ZM584.734 212.273V214.545H578.984V212.273H584.734ZM580.098 210.182H583.234V218.193C583.234 218.314 583.255 218.417 583.297 218.5C583.339 218.58 583.403 218.64 583.49 218.682C583.577 218.72 583.689 218.739 583.825 218.739C583.92 218.739 584.03 218.727 584.155 218.705C584.284 218.682 584.378 218.663 584.439 218.648L584.893 220.852C584.753 220.894 584.553 220.945 584.291 221.006C584.034 221.066 583.727 221.106 583.371 221.125C582.651 221.163 582.047 221.089 581.558 220.903C581.07 220.714 580.702 220.417 580.456 220.011C580.21 219.606 580.09 219.098 580.098 218.489V210.182ZM590.102 221.159C589.17 221.159 588.367 220.981 587.693 220.625C587.023 220.265 586.506 219.75 586.142 219.08C585.782 218.405 585.602 217.598 585.602 216.659C585.602 215.758 585.784 214.97 586.148 214.295C586.511 213.621 587.025 213.097 587.688 212.722C588.35 212.347 589.133 212.159 590.034 212.159C590.693 212.159 591.29 212.261 591.824 212.466C592.358 212.67 592.814 212.968 593.193 213.358C593.572 213.744 593.864 214.214 594.068 214.767C594.273 215.32 594.375 215.943 594.375 216.636V217.364H586.58V215.636H591.489C591.485 215.386 591.42 215.167 591.295 214.977C591.174 214.784 591.009 214.634 590.801 214.528C590.597 214.419 590.364 214.364 590.102 214.364C589.848 214.364 589.616 214.419 589.403 214.528C589.191 214.634 589.021 214.782 588.892 214.972C588.767 215.161 588.701 215.383 588.693 215.636V217.5C588.693 217.78 588.752 218.03 588.869 218.25C588.987 218.47 589.155 218.642 589.375 218.767C589.595 218.892 589.86 218.955 590.17 218.955C590.386 218.955 590.583 218.924 590.761 218.864C590.943 218.803 591.098 218.716 591.227 218.602C591.356 218.485 591.451 218.345 591.511 218.182H594.375C594.277 218.788 594.044 219.314 593.676 219.761C593.309 220.205 592.822 220.549 592.216 220.795C591.614 221.038 590.909 221.159 590.102 221.159ZM595.655 221V212.273H598.632V213.932H598.723C598.905 213.386 599.215 212.955 599.655 212.636C600.094 212.318 600.617 212.159 601.223 212.159C601.837 212.159 602.365 212.322 602.808 212.648C603.251 212.97 603.518 213.398 603.609 213.932H603.7C603.848 213.398 604.162 212.97 604.643 212.648C605.125 212.322 605.689 212.159 606.337 212.159C607.174 212.159 607.852 212.428 608.371 212.966C608.893 213.504 609.155 214.22 609.155 215.114V221H606.018V215.909C606.018 215.527 605.922 215.227 605.729 215.011C605.536 214.792 605.276 214.682 604.95 214.682C604.628 214.682 604.373 214.792 604.183 215.011C603.998 215.227 603.905 215.527 603.905 215.909V221H600.905V215.909C600.905 215.527 600.808 215.227 600.615 215.011C600.422 214.792 600.162 214.682 599.837 214.682C599.621 214.682 599.435 214.731 599.28 214.83C599.125 214.928 599.003 215.07 598.916 215.256C598.833 215.437 598.791 215.655 598.791 215.909V221H595.655Z" fill="#181818" fill-opacity="0.75"/>
<g filter="url(#filter12_d_128_632)">
<rect x="556" y="36" width="72" height="72" rx="8" fill="white" fill-opacity="0.75" shape-rendering="crispEdges"/>
</g>
<path d="M574.795 77V68.2727H577.932V77H574.795ZM576.364 67.3636C575.939 67.3636 575.576 67.2235 575.273 66.9432C574.97 66.6629 574.818 66.3258 574.818 65.9318C574.818 65.5379 574.97 65.2008 575.273 64.9205C575.576 64.6402 575.939 64.5 576.364 64.5C576.792 64.5 577.155 64.6402 577.455 64.9205C577.758 65.2008 577.909 65.5379 577.909 65.9318C577.909 66.3258 577.758 66.6629 577.455 66.9432C577.155 67.2235 576.792 67.3636 576.364 67.3636ZM584.734 68.2727V70.5455H578.984V68.2727H584.734ZM580.098 66.1818H583.234V74.1932C583.234 74.3144 583.255 74.4167 583.297 74.5C583.339 74.5795 583.403 74.6402 583.49 74.6818C583.577 74.7197 583.689 74.7386 583.825 74.7386C583.92 74.7386 584.03 74.7273 584.155 74.7045C584.284 74.6818 584.378 74.6629 584.439 74.6477L584.893 76.8523C584.753 76.8939 584.553 76.9451 584.291 77.0057C584.034 77.0663 583.727 77.1061 583.371 77.125C582.651 77.1629 582.047 77.089 581.558 76.9034C581.07 76.714 580.702 76.4167 580.456 76.0114C580.21 75.6061 580.09 75.0985 580.098 74.4886V66.1818ZM590.102 77.1591C589.17 77.1591 588.367 76.9811 587.693 76.625C587.023 76.2652 586.506 75.75 586.142 75.0795C585.782 74.4053 585.602 73.5985 585.602 72.6591C585.602 71.7576 585.784 70.9697 586.148 70.2955C586.511 69.6212 587.025 69.0966 587.688 68.7216C588.35 68.3466 589.133 68.1591 590.034 68.1591C590.693 68.1591 591.29 68.2614 591.824 68.4659C592.358 68.6705 592.814 68.9678 593.193 69.358C593.572 69.7443 593.864 70.214 594.068 70.767C594.273 71.3201 594.375 71.9432 594.375 72.6364V73.3636H586.58V71.6364H591.489C591.485 71.3864 591.42 71.1667 591.295 70.9773C591.174 70.7841 591.009 70.6345 590.801 70.5284C590.597 70.4186 590.364 70.3636 590.102 70.3636C589.848 70.3636 589.616 70.4186 589.403 70.5284C589.191 70.6345 589.021 70.7822 588.892 70.9716C588.767 71.161 588.701 71.3826 588.693 71.6364V73.5C588.693 73.7803 588.752 74.0303 588.869 74.25C588.987 74.4697 589.155 74.642 589.375 74.767C589.595 74.892 589.86 74.9545 590.17 74.9545C590.386 74.9545 590.583 74.9242 590.761 74.8636C590.943 74.803 591.098 74.7159 591.227 74.6023C591.356 74.4848 591.451 74.3447 591.511 74.1818H594.375C594.277 74.7879 594.044 75.3144 593.676 75.7614C593.309 76.2045 592.822 76.5492 592.216 76.7955C591.614 77.0379 590.909 77.1591 590.102 77.1591ZM595.655 77V68.2727H598.632V69.9318H598.723C598.905 69.3864 599.215 68.9545 599.655 68.6364C600.094 68.3182 600.617 68.1591 601.223 68.1591C601.837 68.1591 602.365 68.322 602.808 68.6477C603.251 68.9697 603.518 69.3977 603.609 69.9318H603.7C603.848 69.3977 604.162 68.9697 604.643 68.6477C605.125 68.322 605.689 68.1591 606.337 68.1591C607.174 68.1591 607.852 68.428 608.371 68.9659C608.893 69.5038 609.155 70.2197 609.155 71.1136V77H606.018V71.9091C606.018 71.5265 605.922 71.2273 605.729 71.0114C605.536 70.7917 605.276 70.6818 604.95 70.6818C604.628 70.6818 604.373 70.7917 604.183 71.0114C603.998 71.2273 603.905 71.5265 603.905 71.9091V77H600.905V71.9091C600.905 71.5265 600.808 71.2273 600.615 71.0114C600.422 70.7917 600.162 70.6818 599.837 70.6818C599.621 70.6818 599.435 70.7311 599.28 70.8295C599.125 70.928 599.003 71.0701 598.916 71.2557C598.833 71.4375 598.791 71.6553 598.791 71.9091V77H595.655Z" fill="#181818" fill-opacity="0.75"/>
<g filter="url(#filter13_d_128_632)">
<rect x="444" y="180" width="72" height="72" rx="8" fill="white" fill-opacity="0.75" shape-rendering="crispEdges"/>
</g>
<path d="M462.795 221V212.273H465.932V221H462.795ZM464.364 211.364C463.939 211.364 463.576 211.223 463.273 210.943C462.97 210.663 462.818 210.326 462.818 209.932C462.818 209.538 462.97 209.201 463.273 208.92C463.576 208.64 463.939 208.5 464.364 208.5C464.792 208.5 465.155 208.64 465.455 208.92C465.758 209.201 465.909 209.538 465.909 209.932C465.909 210.326 465.758 210.663 465.455 210.943C465.155 211.223 464.792 211.364 464.364 211.364ZM472.734 212.273V214.545H466.984V212.273H472.734ZM468.098 210.182H471.234V218.193C471.234 218.314 471.255 218.417 471.297 218.5C471.339 218.58 471.403 218.64 471.49 218.682C471.577 218.72 471.689 218.739 471.825 218.739C471.92 218.739 472.03 218.727 472.155 218.705C472.284 218.682 472.378 218.663 472.439 218.648L472.893 220.852C472.753 220.894 472.553 220.945 472.291 221.006C472.034 221.066 471.727 221.106 471.371 221.125C470.651 221.163 470.047 221.089 469.558 220.903C469.07 220.714 468.702 220.417 468.456 220.011C468.21 219.606 468.09 219.098 468.098 218.489V210.182ZM478.102 221.159C477.17 221.159 476.367 220.981 475.693 220.625C475.023 220.265 474.506 219.75 474.142 219.08C473.782 218.405 473.602 217.598 473.602 216.659C473.602 215.758 473.784 214.97 474.148 214.295C474.511 213.621 475.025 213.097 475.688 212.722C476.35 212.347 477.133 212.159 478.034 212.159C478.693 212.159 479.29 212.261 479.824 212.466C480.358 212.67 480.814 212.968 481.193 213.358C481.572 213.744 481.864 214.214 482.068 214.767C482.273 215.32 482.375 215.943 482.375 216.636V217.364H474.58V215.636H479.489C479.485 215.386 479.42 215.167 479.295 214.977C479.174 214.784 479.009 214.634 478.801 214.528C478.597 214.419 478.364 214.364 478.102 214.364C477.848 214.364 477.616 214.419 477.403 214.528C477.191 214.634 477.021 214.782 476.892 214.972C476.767 215.161 476.701 215.383 476.693 215.636V217.5C476.693 217.78 476.752 218.03 476.869 218.25C476.987 218.47 477.155 218.642 477.375 218.767C477.595 218.892 477.86 218.955 478.17 218.955C478.386 218.955 478.583 218.924 478.761 218.864C478.943 218.803 479.098 218.716 479.227 218.602C479.356 218.485 479.451 218.345 479.511 218.182H482.375C482.277 218.788 482.044 219.314 481.676 219.761C481.309 220.205 480.822 220.549 480.216 220.795C479.614 221.038 478.909 221.159 478.102 221.159ZM483.655 221V212.273H486.632V213.932H486.723C486.905 213.386 487.215 212.955 487.655 212.636C488.094 212.318 488.617 212.159 489.223 212.159C489.837 212.159 490.365 212.322 490.808 212.648C491.251 212.97 491.518 213.398 491.609 213.932H491.7C491.848 213.398 492.162 212.97 492.643 212.648C493.125 212.322 493.689 212.159 494.337 212.159C495.174 212.159 495.852 212.428 496.371 212.966C496.893 213.504 497.155 214.22 497.155 215.114V221H494.018V215.909C494.018 215.527 493.922 215.227 493.729 215.011C493.536 214.792 493.276 214.682 492.95 214.682C492.628 214.682 492.373 214.792 492.183 215.011C491.998 215.227 491.905 215.527 491.905 215.909V221H488.905V215.909C488.905 215.527 488.808 215.227 488.615 215.011C488.422 214.792 488.162 214.682 487.837 214.682C487.621 214.682 487.435 214.731 487.28 214.83C487.125 214.928 487.003 215.07 486.916 215.256C486.833 215.437 486.791 215.655 486.791 215.909V221H483.655Z" fill="#181818" fill-opacity="0.75"/>
<g filter="url(#filter14_d_128_632)">
<rect x="444" y="36" width="72" height="72" rx="8" fill="white" fill-opacity="0.75" shape-rendering="crispEdges"/>
</g>
<path d="M462.795 77V68.2727H465.932V77H462.795ZM464.364 67.3636C463.939 67.3636 463.576 67.2235 463.273 66.9432C462.97 66.6629 462.818 66.3258 462.818 65.9318C462.818 65.5379 462.97 65.2008 463.273 64.9205C463.576 64.6402 463.939 64.5 464.364 64.5C464.792 64.5 465.155 64.6402 465.455 64.9205C465.758 65.2008 465.909 65.5379 465.909 65.9318C465.909 66.3258 465.758 66.6629 465.455 66.9432C465.155 67.2235 464.792 67.3636 464.364 67.3636ZM472.734 68.2727V70.5455H466.984V68.2727H472.734ZM468.098 66.1818H471.234V74.1932C471.234 74.3144 471.255 74.4167 471.297 74.5C471.339 74.5795 471.403 74.6402 471.49 74.6818C471.577 74.7197 471.689 74.7386 471.825 74.7386C471.92 74.7386 472.03 74.7273 472.155 74.7045C472.284 74.6818 472.378 74.6629 472.439 74.6477L472.893 76.8523C472.753 76.8939 472.553 76.9451 472.291 77.0057C472.034 77.0663 471.727 77.1061 471.371 77.125C470.651 77.1629 470.047 77.089 469.558 76.9034C469.07 76.714 468.702 76.4167 468.456 76.0114C468.21 75.6061 468.09 75.0985 468.098 74.4886V66.1818ZM478.102 77.1591C477.17 77.1591 476.367 76.9811 475.693 76.625C475.023 76.2652 474.506 75.75 474.142 75.0795C473.782 74.4053 473.602 73.5985 473.602 72.6591C473.602 71.7576 473.784 70.9697 474.148 70.2955C474.511 69.6212 475.025 69.0966 475.688 68.7216C476.35 68.3466 477.133 68.1591 478.034 68.1591C478.693 68.1591 479.29 68.2614 479.824 68.4659C480.358 68.6705 480.814 68.9678 481.193 69.358C481.572 69.7443 481.864 70.214 482.068 70.767C482.273 71.3201 482.375 71.9432 482.375 72.6364V73.3636H474.58V71.6364H479.489C479.485 71.3864 479.42 71.1667 479.295 70.9773C479.174 70.7841 479.009 70.6345 478.801 70.5284C478.597 70.4186 478.364 70.3636 478.102 70.3636C477.848 70.3636 477.616 70.4186 477.403 70.5284C477.191 70.6345 477.021 70.7822 476.892 70.9716C476.767 71.161 476.701 71.3826 476.693 71.6364V73.5C476.693 73.7803 476.752 74.0303 476.869 74.25C476.987 74.4697 477.155 74.642 477.375 74.767C477.595 74.892 477.86 74.9545 478.17 74.9545C478.386 74.9545 478.583 74.9242 478.761 74.8636C478.943 74.803 479.098 74.7159 479.227 74.6023C479.356 74.4848 479.451 74.3447 479.511 74.1818H482.375C482.277 74.7879 482.044 75.3144 481.676 75.7614C481.309 76.2045 480.822 76.5492 480.216 76.7955C479.614 77.0379 478.909 77.1591 478.102 77.1591ZM483.655 77V68.2727H486.632V69.9318H486.723C486.905 69.3864 487.215 68.9545 487.655 68.6364C488.094 68.3182 488.617 68.1591 489.223 68.1591C489.837 68.1591 490.365 68.322 490.808 68.6477C491.251 68.9697 491.518 69.3977 491.609 69.9318H491.7C491.848 69.3977 492.162 68.9697 492.643 68.6477C493.125 68.322 493.689 68.1591 494.337 68.1591C495.174 68.1591 495.852 68.428 496.371 68.9659C496.893 69.5038 497.155 70.2197 497.155 71.1136V77H494.018V71.9091C494.018 71.5265 493.922 71.2273 493.729 71.0114C493.536 70.7917 493.276 70.6818 492.95 70.6818C492.628 70.6818 492.373 70.7917 492.183 71.0114C491.998 71.2273 491.905 71.5265 491.905 71.9091V77H488.905V71.9091C488.905 71.5265 488.808 71.2273 488.615 71.0114C488.422 70.7917 488.162 70.6818 487.837 70.6818C487.621 70.6818 487.435 70.7311 487.28 70.8295C487.125 70.928 487.003 71.0701 486.916 71.2557C486.833 71.4375 486.791 71.6553 486.791 71.9091V77H483.655Z" fill="#181818" fill-opacity="0.75"/>
<g filter="url(#filter15_d_128_632)">
<rect x="668" y="36" width="72" height="72" rx="8" fill="white" fill-opacity="0.75" shape-rendering="crispEdges"/>
</g>
<path d="M686.795 77V68.2727H689.932V77H686.795ZM688.364 67.3636C687.939 67.3636 687.576 67.2235 687.273 66.9432C686.97 66.6629 686.818 66.3258 686.818 65.9318C686.818 65.5379 686.97 65.2008 687.273 64.9205C687.576 64.6402 687.939 64.5 688.364 64.5C688.792 64.5 689.155 64.6402 689.455 64.9205C689.758 65.2008 689.909 65.5379 689.909 65.9318C689.909 66.3258 689.758 66.6629 689.455 66.9432C689.155 67.2235 688.792 67.3636 688.364 67.3636ZM696.734 68.2727V70.5455H690.984V68.2727H696.734ZM692.098 66.1818H695.234V74.1932C695.234 74.3144 695.255 74.4167 695.297 74.5C695.339 74.5795 695.403 74.6402 695.49 74.6818C695.577 74.7197 695.689 74.7386 695.825 74.7386C695.92 74.7386 696.03 74.7273 696.155 74.7045C696.284 74.6818 696.378 74.6629 696.439 74.6477L696.893 76.8523C696.753 76.8939 696.553 76.9451 696.291 77.0057C696.034 77.0663 695.727 77.1061 695.371 77.125C694.651 77.1629 694.047 77.089 693.558 76.9034C693.07 76.714 692.702 76.4167 692.456 76.0114C692.21 75.6061 692.09 75.0985 692.098 74.4886V66.1818ZM702.102 77.1591C701.17 77.1591 700.367 76.9811 699.693 76.625C699.023 76.2652 698.506 75.75 698.142 75.0795C697.782 74.4053 697.602 73.5985 697.602 72.6591C697.602 71.7576 697.784 70.9697 698.148 70.2955C698.511 69.6212 699.025 69.0966 699.688 68.7216C700.35 68.3466 701.133 68.1591 702.034 68.1591C702.693 68.1591 703.29 68.2614 703.824 68.4659C704.358 68.6705 704.814 68.9678 705.193 69.358C705.572 69.7443 705.864 70.214 706.068 70.767C706.273 71.3201 706.375 71.9432 706.375 72.6364V73.3636H698.58V71.6364H703.489C703.485 71.3864 703.42 71.1667 703.295 70.9773C703.174 70.7841 703.009 70.6345 702.801 70.5284C702.597 70.4186 702.364 70.3636 702.102 70.3636C701.848 70.3636 701.616 70.4186 701.403 70.5284C701.191 70.6345 701.021 70.7822 700.892 70.9716C700.767 71.161 700.701 71.3826 700.693 71.6364V73.5C700.693 73.7803 700.752 74.0303 700.869 74.25C700.987 74.4697 701.155 74.642 701.375 74.767C701.595 74.892 701.86 74.9545 702.17 74.9545C702.386 74.9545 702.583 74.9242 702.761 74.8636C702.943 74.803 703.098 74.7159 703.227 74.6023C703.356 74.4848 703.451 74.3447 703.511 74.1818H706.375C706.277 74.7879 706.044 75.3144 705.676 75.7614C705.309 76.2045 704.822 76.5492 704.216 76.7955C703.614 77.0379 702.909 77.1591 702.102 77.1591ZM707.655 77V68.2727H710.632V69.9318H710.723C710.905 69.3864 711.215 68.9545 711.655 68.6364C712.094 68.3182 712.617 68.1591 713.223 68.1591C713.837 68.1591 714.365 68.322 714.808 68.6477C715.251 68.9697 715.518 69.3977 715.609 69.9318H715.7C715.848 69.3977 716.162 68.9697 716.643 68.6477C717.125 68.322 717.689 68.1591 718.337 68.1591C719.174 68.1591 719.852 68.428 720.371 68.9659C720.893 69.5038 721.155 70.2197 721.155 71.1136V77H718.018V71.9091C718.018 71.5265 717.922 71.2273 717.729 71.0114C717.536 70.7917 717.276 70.6818 716.95 70.6818C716.628 70.6818 716.373 70.7917 716.183 71.0114C715.998 71.2273 715.905 71.5265 715.905 71.9091V77H712.905V71.9091C712.905 71.5265 712.808 71.2273 712.615 71.0114C712.422 70.7917 712.162 70.6818 711.837 70.6818C711.621 70.6818 711.435 70.7311 711.28 70.8295C711.125 70.928 711.003 71.0701 710.916 71.2557C710.833 71.4375 710.791 71.6553 710.791 71.9091V77H707.655Z" fill="#181818" fill-opacity="0.75"/>
<g filter="url(#filter16_d_128_632)">
<rect x="556" y="108" width="72" height="72" rx="8" fill="white" fill-opacity="0.75" shape-rendering="crispEdges"/>
</g>
<path d="M574.795 149V140.273H577.932V149H574.795ZM576.364 139.364C575.939 139.364 575.576 139.223 575.273 138.943C574.97 138.663 574.818 138.326 574.818 137.932C574.818 137.538 574.97 137.201 575.273 136.92C575.576 136.64 575.939 136.5 576.364 136.5C576.792 136.5 577.155 136.64 577.455 136.92C577.758 137.201 577.909 137.538 577.909 137.932C577.909 138.326 577.758 138.663 577.455 138.943C577.155 139.223 576.792 139.364 576.364 139.364ZM584.734 140.273V142.545H578.984V140.273H584.734ZM580.098 138.182H583.234V146.193C583.234 146.314 583.255 146.417 583.297 146.5C583.339 146.58 583.403 146.64 583.49 146.682C583.577 146.72 583.689 146.739 583.825 146.739C583.92 146.739 584.03 146.727 584.155 146.705C584.284 146.682 584.378 146.663 584.439 146.648L584.893 148.852C584.753 148.894 584.553 148.945 584.291 149.006C584.034 149.066 583.727 149.106 583.371 149.125C582.651 149.163 582.047 149.089 581.558 148.903C581.07 148.714 580.702 148.417 580.456 148.011C580.21 147.606 580.09 147.098 580.098 146.489V138.182ZM590.102 149.159C589.17 149.159 588.367 148.981 587.693 148.625C587.023 148.265 586.506 147.75 586.142 147.08C585.782 146.405 585.602 145.598 585.602 144.659C585.602 143.758 585.784 142.97 586.148 142.295C586.511 141.621 587.025 141.097 587.688 140.722C588.35 140.347 589.133 140.159 590.034 140.159C590.693 140.159 591.29 140.261 591.824 140.466C592.358 140.67 592.814 140.968 593.193 141.358C593.572 141.744 593.864 142.214 594.068 142.767C594.273 143.32 594.375 143.943 594.375 144.636V145.364H586.58V143.636H591.489C591.485 143.386 591.42 143.167 591.295 142.977C591.174 142.784 591.009 142.634 590.801 142.528C590.597 142.419 590.364 142.364 590.102 142.364C589.848 142.364 589.616 142.419 589.403 142.528C589.191 142.634 589.021 142.782 588.892 142.972C588.767 143.161 588.701 143.383 588.693 143.636V145.5C588.693 145.78 588.752 146.03 588.869 146.25C588.987 146.47 589.155 146.642 589.375 146.767C589.595 146.892 589.86 146.955 590.17 146.955C590.386 146.955 590.583 146.924 590.761 146.864C590.943 146.803 591.098 146.716 591.227 146.602C591.356 146.485 591.451 146.345 591.511 146.182H594.375C594.277 146.788 594.044 147.314 593.676 147.761C593.309 148.205 592.822 148.549 592.216 148.795C591.614 149.038 590.909 149.159 590.102 149.159ZM595.655 149V140.273H598.632V141.932H598.723C598.905 141.386 599.215 140.955 599.655 140.636C600.094 140.318 600.617 140.159 601.223 140.159C601.837 140.159 602.365 140.322 602.808 140.648C603.251 140.97 603.518 141.398 603.609 141.932H603.7C603.848 141.398 604.162 140.97 604.643 140.648C605.125 140.322 605.689 140.159 606.337 140.159C607.174 140.159 607.852 140.428 608.371 140.966C608.893 141.504 609.155 142.22 609.155 143.114V149H606.018V143.909C606.018 143.527 605.922 143.227 605.729 143.011C605.536 142.792 605.276 142.682 604.95 142.682C604.628 142.682 604.373 142.792 604.183 143.011C603.998 143.227 603.905 143.527 603.905 143.909V149H600.905V143.909C600.905 143.527 600.808 143.227 600.615 143.011C600.422 142.792 600.162 142.682 599.837 142.682C599.621 142.682 599.435 142.731 599.28 142.83C599.125 142.928 599.003 143.07 598.916 143.256C598.833 143.437 598.791 143.655 598.791 143.909V149H595.655Z" fill="#181818" fill-opacity="0.75"/>
<g filter="url(#filter17_d_128_632)">
<rect x="444" y="108" width="72" height="72" rx="8" fill="white" fill-opacity="0.75" shape-rendering="crispEdges"/>
</g>
<path d="M462.795 149V140.273H465.932V149H462.795ZM464.364 139.364C463.939 139.364 463.576 139.223 463.273 138.943C462.97 138.663 462.818 138.326 462.818 137.932C462.818 137.538 462.97 137.201 463.273 136.92C463.576 136.64 463.939 136.5 464.364 136.5C464.792 136.5 465.155 136.64 465.455 136.92C465.758 137.201 465.909 137.538 465.909 137.932C465.909 138.326 465.758 138.663 465.455 138.943C465.155 139.223 464.792 139.364 464.364 139.364ZM472.734 140.273V142.545H466.984V140.273H472.734ZM468.098 138.182H471.234V146.193C471.234 146.314 471.255 146.417 471.297 146.5C471.339 146.58 471.403 146.64 471.49 146.682C471.577 146.72 471.689 146.739 471.825 146.739C471.92 146.739 472.03 146.727 472.155 146.705C472.284 146.682 472.378 146.663 472.439 146.648L472.893 148.852C472.753 148.894 472.553 148.945 472.291 149.006C472.034 149.066 471.727 149.106 471.371 149.125C470.651 149.163 470.047 149.089 469.558 148.903C469.07 148.714 468.702 148.417 468.456 148.011C468.21 147.606 468.09 147.098 468.098 146.489V138.182ZM478.102 149.159C477.17 149.159 476.367 148.981 475.693 148.625C475.023 148.265 474.506 147.75 474.142 147.08C473.782 146.405 473.602 145.598 473.602 144.659C473.602 143.758 473.784 142.97 474.148 142.295C474.511 141.621 475.025 141.097 475.688 140.722C476.35 140.347 477.133 140.159 478.034 140.159C478.693 140.159 479.29 140.261 479.824 140.466C480.358 140.67 480.814 140.968 481.193 141.358C481.572 141.744 481.864 142.214 482.068 142.767C482.273 143.32 482.375 143.943 482.375 144.636V145.364H474.58V143.636H479.489C479.485 143.386 479.42 143.167 479.295 142.977C479.174 142.784 479.009 142.634 478.801 142.528C478.597 142.419 478.364 142.364 478.102 142.364C477.848 142.364 477.616 142.419 477.403 142.528C477.191 142.634 477.021 142.782 476.892 142.972C476.767 143.161 476.701 143.383 476.693 143.636V145.5C476.693 145.78 476.752 146.03 476.869 146.25C476.987 146.47 477.155 146.642 477.375 146.767C477.595 146.892 477.86 146.955 478.17 146.955C478.386 146.955 478.583 146.924 478.761 146.864C478.943 146.803 479.098 146.716 479.227 146.602C479.356 146.485 479.451 146.345 479.511 146.182H482.375C482.277 146.788 482.044 147.314 481.676 147.761C481.309 148.205 480.822 148.549 480.216 148.795C479.614 149.038 478.909 149.159 478.102 149.159ZM483.655 149V140.273H486.632V141.932H486.723C486.905 141.386 487.215 140.955 487.655 140.636C488.094 140.318 488.617 140.159 489.223 140.159C489.837 140.159 490.365 140.322 490.808 140.648C491.251 140.97 491.518 141.398 491.609 141.932H491.7C491.848 141.398 492.162 140.97 492.643 140.648C493.125 140.322 493.689 140.159 494.337 140.159C495.174 140.159 495.852 140.428 496.371 140.966C496.893 141.504 497.155 142.22 497.155 143.114V149H494.018V143.909C494.018 143.527 493.922 143.227 493.729 143.011C493.536 142.792 493.276 142.682 492.95 142.682C492.628 142.682 492.373 142.792 492.183 143.011C491.998 143.227 491.905 143.527 491.905 143.909V149H488.905V143.909C488.905 143.527 488.808 143.227 488.615 143.011C488.422 142.792 488.162 142.682 487.837 142.682C487.621 142.682 487.435 142.731 487.28 142.83C487.125 142.928 487.003 143.07 486.916 143.256C486.833 143.437 486.791 143.655 486.791 143.909V149H483.655Z" fill="#181818" fill-opacity="0.75"/>
<g filter="url(#filter18_d_128_632)">
<rect x="668" y="108" width="72" height="72" rx="8" fill="white" fill-opacity="0.75" shape-rendering="crispEdges"/>
</g>
<path d="M686.795 149V140.273H689.932V149H686.795ZM688.364 139.364C687.939 139.364 687.576 139.223 687.273 138.943C686.97 138.663 686.818 138.326 686.818 137.932C686.818 137.538 686.97 137.201 687.273 136.92C687.576 136.64 687.939 136.5 688.364 136.5C688.792 136.5 689.155 136.64 689.455 136.92C689.758 137.201 689.909 137.538 689.909 137.932C689.909 138.326 689.758 138.663 689.455 138.943C689.155 139.223 688.792 139.364 688.364 139.364ZM696.734 140.273V142.545H690.984V140.273H696.734ZM692.098 138.182H695.234V146.193C695.234 146.314 695.255 146.417 695.297 146.5C695.339 146.58 695.403 146.64 695.49 146.682C695.577 146.72 695.689 146.739 695.825 146.739C695.92 146.739 696.03 146.727 696.155 146.705C696.284 146.682 696.378 146.663 696.439 146.648L696.893 148.852C696.753 148.894 696.553 148.945 696.291 149.006C696.034 149.066 695.727 149.106 695.371 149.125C694.651 149.163 694.047 149.089 693.558 148.903C693.07 148.714 692.702 148.417 692.456 148.011C692.21 147.606 692.09 147.098 692.098 146.489V138.182ZM702.102 149.159C701.17 149.159 700.367 148.981 699.693 148.625C699.023 148.265 698.506 147.75 698.142 147.08C697.782 146.405 697.602 145.598 697.602 144.659C697.602 143.758 697.784 142.97 698.148 142.295C698.511 141.621 699.025 141.097 699.688 140.722C700.35 140.347 701.133 140.159 702.034 140.159C702.693 140.159 703.29 140.261 703.824 140.466C704.358 140.67 704.814 140.968 705.193 141.358C705.572 141.744 705.864 142.214 706.068 142.767C706.273 143.32 706.375 143.943 706.375 144.636V145.364H698.58V143.636H703.489C703.485 143.386 703.42 143.167 703.295 142.977C703.174 142.784 703.009 142.634 702.801 142.528C702.597 142.419 702.364 142.364 702.102 142.364C701.848 142.364 701.616 142.419 701.403 142.528C701.191 142.634 701.021 142.782 700.892 142.972C700.767 143.161 700.701 143.383 700.693 143.636V145.5C700.693 145.78 700.752 146.03 700.869 146.25C700.987 146.47 701.155 146.642 701.375 146.767C701.595 146.892 701.86 146.955 702.17 146.955C702.386 146.955 702.583 146.924 702.761 146.864C702.943 146.803 703.098 146.716 703.227 146.602C703.356 146.485 703.451 146.345 703.511 146.182H706.375C706.277 146.788 706.044 147.314 705.676 147.761C705.309 148.205 704.822 148.549 704.216 148.795C703.614 149.038 702.909 149.159 702.102 149.159ZM707.655 149V140.273H710.632V141.932H710.723C710.905 141.386 711.215 140.955 711.655 140.636C712.094 140.318 712.617 140.159 713.223 140.159C713.837 140.159 714.365 140.322 714.808 140.648C715.251 140.97 715.518 141.398 715.609 141.932H715.7C715.848 141.398 716.162 140.97 716.643 140.648C717.125 140.322 717.689 140.159 718.337 140.159C719.174 140.159 719.852 140.428 720.371 140.966C720.893 141.504 721.155 142.22 721.155 143.114V149H718.018V143.909C718.018 143.527 717.922 143.227 717.729 143.011C717.536 142.792 717.276 142.682 716.95 142.682C716.628 142.682 716.373 142.792 716.183 143.011C715.998 143.227 715.905 143.527 715.905 143.909V149H712.905V143.909C712.905 143.527 712.808 143.227 712.615 143.011C712.422 142.792 712.162 142.682 711.837 142.682C711.621 142.682 711.435 142.731 711.28 142.83C711.125 142.928 711.003 143.07 710.916 143.256C710.833 143.437 710.791 143.655 710.791 143.909V149H707.655Z" fill="#181818" fill-opacity="0.75"/>
<g filter="url(#filter19_d_128_632)">
<rect x="668" y="180" width="72" height="72" rx="8" fill="white" fill-opacity="0.75" shape-rendering="crispEdges"/>
</g>
<path d="M686.795 221V212.273H689.932V221H686.795ZM688.364 211.364C687.939 211.364 687.576 211.223 687.273 210.943C686.97 210.663 686.818 210.326 686.818 209.932C686.818 209.538 686.97 209.201 687.273 208.92C687.576 208.64 687.939 208.5 688.364 208.5C688.792 208.5 689.155 208.64 689.455 208.92C689.758 209.201 689.909 209.538 689.909 209.932C689.909 210.326 689.758 210.663 689.455 210.943C689.155 211.223 688.792 211.364 688.364 211.364ZM696.734 212.273V214.545H690.984V212.273H696.734ZM692.098 210.182H695.234V218.193C695.234 218.314 695.255 218.417 695.297 218.5C695.339 218.58 695.403 218.64 695.49 218.682C695.577 218.72 695.689 218.739 695.825 218.739C695.92 218.739 696.03 218.727 696.155 218.705C696.284 218.682 696.378 218.663 696.439 218.648L696.893 220.852C696.753 220.894 696.553 220.945 696.291 221.006C696.034 221.066 695.727 221.106 695.371 221.125C694.651 221.163 694.047 221.089 693.558 220.903C693.07 220.714 692.702 220.417 692.456 220.011C692.21 219.606 692.09 219.098 692.098 218.489V210.182ZM702.102 221.159C701.17 221.159 700.367 220.981 699.693 220.625C699.023 220.265 698.506 219.75 698.142 219.08C697.782 218.405 697.602 217.598 697.602 216.659C697.602 215.758 697.784 214.97 698.148 214.295C698.511 213.621 699.025 213.097 699.688 212.722C700.35 212.347 701.133 212.159 702.034 212.159C702.693 212.159 703.29 212.261 703.824 212.466C704.358 212.67 704.814 212.968 705.193 213.358C705.572 213.744 705.864 214.214 706.068 214.767C706.273 215.32 706.375 215.943 706.375 216.636V217.364H698.58V215.636H703.489C703.485 215.386 703.42 215.167 703.295 214.977C703.174 214.784 703.009 214.634 702.801 214.528C702.597 214.419 702.364 214.364 702.102 214.364C701.848 214.364 701.616 214.419 701.403 214.528C701.191 214.634 701.021 214.782 700.892 214.972C700.767 215.161 700.701 215.383 700.693 215.636V217.5C700.693 217.78 700.752 218.03 700.869 218.25C700.987 218.47 701.155 218.642 701.375 218.767C701.595 218.892 701.86 218.955 702.17 218.955C702.386 218.955 702.583 218.924 702.761 218.864C702.943 218.803 703.098 218.716 703.227 218.602C703.356 218.485 703.451 218.345 703.511 218.182H706.375C706.277 218.788 706.044 219.314 705.676 219.761C705.309 220.205 704.822 220.549 704.216 220.795C703.614 221.038 702.909 221.159 702.102 221.159ZM707.655 221V212.273H710.632V213.932H710.723C710.905 213.386 711.215 212.955 711.655 212.636C712.094 212.318 712.617 212.159 713.223 212.159C713.837 212.159 714.365 212.322 714.808 212.648C715.251 212.97 715.518 213.398 715.609 213.932H715.7C715.848 213.398 716.162 212.97 716.643 212.648C717.125 212.322 717.689 212.159 718.337 212.159C719.174 212.159 719.852 212.428 720.371 212.966C720.893 213.504 721.155 214.22 721.155 215.114V221H718.018V215.909C718.018 215.527 717.922 215.227 717.729 215.011C717.536 214.792 717.276 214.682 716.95 214.682C716.628 214.682 716.373 214.792 716.183 215.011C715.998 215.227 715.905 215.527 715.905 215.909V221H712.905V215.909C712.905 215.527 712.808 215.227 712.615 215.011C712.422 214.792 712.162 214.682 711.837 214.682C711.621 214.682 711.435 214.731 711.28 214.83C711.125 214.928 711.003 215.07 710.916 215.256C710.833 215.437 710.791 215.655 710.791 215.909V221H707.655Z" fill="#181818" fill-opacity="0.75"/>
<path d="M545.773 21.1136H542.886C542.871 20.9356 542.809 20.7822 542.699 20.6534C542.589 20.5246 542.447 20.4261 542.273 20.358C542.102 20.286 541.913 20.25 541.705 20.25C541.436 20.25 541.205 20.2992 541.011 20.3977C540.818 20.4962 540.723 20.6364 540.727 20.8182C540.723 20.947 540.778 21.0663 540.892 21.1761C541.009 21.286 541.235 21.3712 541.568 21.4318L543.341 21.75C544.235 21.9129 544.9 22.1875 545.335 22.5739C545.775 22.9564 545.996 23.4697 546 24.1136C545.996 24.7348 545.811 25.2746 545.443 25.733C545.08 26.1875 544.581 26.5398 543.949 26.7898C543.32 27.036 542.602 27.1591 541.795 27.1591C540.462 27.1591 539.419 26.8864 538.665 26.3409C537.915 25.7955 537.496 25.0758 537.409 24.1818H540.523C540.564 24.4583 540.701 24.6723 540.932 24.8239C541.167 24.9716 541.462 25.0455 541.818 25.0455C542.106 25.0455 542.343 24.9962 542.528 24.8977C542.718 24.7992 542.814 24.6591 542.818 24.4773C542.814 24.3106 542.731 24.178 542.568 24.0795C542.409 23.9811 542.159 23.9015 541.818 23.8409L540.273 23.5682C539.383 23.4129 538.716 23.1174 538.273 22.6818C537.83 22.2462 537.61 21.6856 537.614 21C537.61 20.3939 537.769 19.8807 538.091 19.4602C538.417 19.036 538.881 18.714 539.483 18.4943C540.089 18.2708 540.807 18.1591 541.636 18.1591C542.898 18.1591 543.892 18.4205 544.619 18.9432C545.35 19.4659 545.735 20.1894 545.773 21.1136ZM547.202 30.2727V18.2727H550.315V19.7955H550.384C550.497 19.5 550.664 19.2292 550.884 18.983C551.103 18.733 551.376 18.5341 551.702 18.3864C552.027 18.2348 552.406 18.1591 552.838 18.1591C553.414 18.1591 553.961 18.3125 554.48 18.6193C555.003 18.9261 555.427 19.4091 555.753 20.0682C556.082 20.7273 556.247 21.5833 556.247 22.6364C556.247 23.6439 556.09 24.4792 555.776 25.142C555.465 25.8049 555.048 26.2992 554.526 26.625C554.007 26.9508 553.437 27.1136 552.815 27.1136C552.406 27.1136 552.041 27.0473 551.719 26.9148C551.401 26.7784 551.128 26.5947 550.901 26.3636C550.677 26.1288 550.505 25.8636 550.384 25.5682H550.338V30.2727H547.202ZM550.27 22.6364C550.27 23.0606 550.325 23.428 550.435 23.7386C550.548 24.0455 550.707 24.2841 550.912 24.4545C551.12 24.6212 551.368 24.7045 551.656 24.7045C551.944 24.7045 552.188 24.6231 552.389 24.4602C552.594 24.2936 552.749 24.0568 552.855 23.75C552.965 23.4394 553.02 23.0682 553.02 22.6364C553.02 22.2045 552.965 21.8352 552.855 21.5284C552.749 21.2178 552.594 20.9811 552.389 20.8182C552.188 20.6515 551.944 20.5682 551.656 20.5682C551.368 20.5682 551.12 20.6515 550.912 20.8182C550.707 20.9811 550.548 21.2178 550.435 21.5284C550.325 21.8352 550.27 22.2045 550.27 22.6364ZM559.993 27.1364C559.436 27.1364 558.944 27.0455 558.516 26.8636C558.091 26.678 557.758 26.3977 557.516 26.0227C557.273 25.6477 557.152 25.1705 557.152 24.5909C557.152 24.1136 557.233 23.7064 557.396 23.3693C557.559 23.0284 557.786 22.75 558.078 22.5341C558.37 22.3182 558.709 22.1534 559.095 22.0398C559.485 21.9261 559.906 21.8523 560.357 21.8182C560.845 21.7803 561.237 21.7348 561.533 21.6818C561.832 21.625 562.048 21.5473 562.18 21.4489C562.313 21.3466 562.379 21.2121 562.379 21.0455V21.0227C562.379 20.7955 562.292 20.6212 562.118 20.5C561.944 20.3788 561.72 20.3182 561.447 20.3182C561.148 20.3182 560.904 20.3845 560.714 20.517C560.529 20.6458 560.417 20.8447 560.379 21.1136H557.493C557.531 20.5833 557.699 20.0947 557.999 19.6477C558.302 19.197 558.743 18.8371 559.322 18.5682C559.902 18.2955 560.625 18.1591 561.493 18.1591C562.118 18.1591 562.679 18.233 563.175 18.3807C563.671 18.5246 564.093 18.7273 564.442 18.9886C564.79 19.2462 565.055 19.5492 565.237 19.8977C565.423 20.2424 565.516 20.6174 565.516 21.0227V27H562.584V25.7727H562.516C562.341 26.0985 562.129 26.3617 561.879 26.5625C561.633 26.7633 561.351 26.9091 561.033 27C560.718 27.0909 560.372 27.1364 559.993 27.1364ZM561.016 25.1591C561.254 25.1591 561.478 25.1098 561.686 25.0114C561.898 24.9129 562.071 24.7708 562.203 24.5852C562.336 24.3996 562.402 24.1742 562.402 23.9091V23.1818C562.319 23.2159 562.23 23.2481 562.135 23.2784C562.044 23.3087 561.946 23.3371 561.839 23.3636C561.737 23.3902 561.627 23.4148 561.51 23.4375C561.396 23.4602 561.277 23.4811 561.152 23.5C560.91 23.5379 560.711 23.6004 560.555 23.6875C560.404 23.7708 560.29 23.875 560.214 24C560.143 24.1212 560.107 24.2576 560.107 24.4091C560.107 24.6515 560.192 24.8371 560.362 24.9659C560.533 25.0947 560.75 25.1591 561.016 25.1591ZM571.219 27.1591C570.272 27.1591 569.461 26.9716 568.787 26.5966C568.113 26.2178 567.596 25.6913 567.236 25.017C566.876 24.339 566.696 23.553 566.696 22.6591C566.696 21.7652 566.876 20.9811 567.236 20.3068C567.596 19.6288 568.113 19.1023 568.787 18.7273C569.461 18.3485 570.272 18.1591 571.219 18.1591C572.075 18.1591 572.815 18.3144 573.44 18.625C574.069 18.9318 574.556 19.3674 574.901 19.9318C575.245 20.4924 575.42 21.1515 575.423 21.9091H572.514C572.473 21.4508 572.34 21.1023 572.116 20.8636C571.897 20.6212 571.613 20.5 571.264 20.5C570.991 20.5 570.753 20.5795 570.548 20.7386C570.344 20.8939 570.185 21.1307 570.071 21.4489C569.957 21.7633 569.901 22.1591 569.901 22.6364C569.901 23.1136 569.957 23.5114 570.071 23.8295C570.185 24.1439 570.344 24.3807 570.548 24.5398C570.753 24.6951 570.991 24.7727 571.264 24.7727C571.495 24.7727 571.7 24.7197 571.878 24.6136C572.056 24.5038 572.2 24.3447 572.31 24.1364C572.423 23.9242 572.491 23.6667 572.514 23.3636H575.423C575.412 24.1326 575.236 24.803 574.895 25.375C574.554 25.9432 574.071 26.3826 573.446 26.6932C572.825 27.0038 572.082 27.1591 571.219 27.1591ZM580.899 27.1591C579.967 27.1591 579.164 26.9811 578.49 26.625C577.82 26.2652 577.303 25.75 576.939 25.0795C576.579 24.4053 576.399 23.5985 576.399 22.6591C576.399 21.7576 576.581 20.9697 576.945 20.2955C577.308 19.6212 577.821 19.0966 578.484 18.7216C579.147 18.3466 579.929 18.1591 580.831 18.1591C581.49 18.1591 582.087 18.2614 582.621 18.4659C583.155 18.6705 583.611 18.9678 583.99 19.358C584.369 19.7443 584.661 20.214 584.865 20.767C585.07 21.3201 585.172 21.9432 585.172 22.6364V23.3636H577.376V21.6364H582.286C582.282 21.3864 582.217 21.1667 582.092 20.9773C581.971 20.7841 581.806 20.6345 581.598 20.5284C581.393 20.4186 581.161 20.3636 580.899 20.3636C580.645 20.3636 580.412 20.4186 580.2 20.5284C579.988 20.6345 579.818 20.7822 579.689 20.9716C579.564 21.161 579.498 21.3826 579.49 21.6364V23.5C579.49 23.7803 579.549 24.0303 579.666 24.25C579.784 24.4697 579.952 24.642 580.172 24.767C580.392 24.892 580.657 24.9545 580.967 24.9545C581.183 24.9545 581.38 24.9242 581.558 24.8636C581.74 24.803 581.895 24.7159 582.024 24.6023C582.153 24.4848 582.248 24.3447 582.308 24.1818H585.172C585.073 24.7879 584.84 25.3144 584.473 25.7614C584.106 26.2045 583.619 26.5492 583.013 26.7955C582.411 27.0379 581.706 27.1591 580.899 27.1591ZM592.179 21.1818V23.5455H586.724V21.1818H592.179ZM598.227 27.1591C597.295 27.1591 596.492 26.9811 595.818 26.625C595.148 26.2652 594.631 25.75 594.267 25.0795C593.907 24.4053 593.727 23.5985 593.727 22.6591C593.727 21.7576 593.909 20.9697 594.273 20.2955C594.636 19.6212 595.15 19.0966 595.812 18.7216C596.475 18.3466 597.258 18.1591 598.159 18.1591C598.818 18.1591 599.415 18.2614 599.949 18.4659C600.483 18.6705 600.939 18.9678 601.318 19.358C601.697 19.7443 601.989 20.214 602.193 20.767C602.398 21.3201 602.5 21.9432 602.5 22.6364V23.3636H594.705V21.6364H599.614C599.61 21.3864 599.545 21.1667 599.42 20.9773C599.299 20.7841 599.134 20.6345 598.926 20.5284C598.722 20.4186 598.489 20.3636 598.227 20.3636C597.973 20.3636 597.741 20.4186 597.528 20.5284C597.316 20.6345 597.146 20.7822 597.017 20.9716C596.892 21.161 596.826 21.3826 596.818 21.6364V23.5C596.818 23.7803 596.877 24.0303 596.994 24.25C597.112 24.4697 597.28 24.642 597.5 24.767C597.72 24.892 597.985 24.9545 598.295 24.9545C598.511 24.9545 598.708 24.9242 598.886 24.8636C599.068 24.803 599.223 24.7159 599.352 24.6023C599.481 24.4848 599.576 24.3447 599.636 24.1818H602.5C602.402 24.7879 602.169 25.3144 601.801 25.7614C601.434 26.2045 600.947 26.5492 600.341 26.7955C599.739 27.0379 599.034 27.1591 598.227 27.1591ZM612.357 18.2727L609.425 27H605.788L602.857 18.2727H606.152L607.561 24.0455H607.652L609.061 18.2727H612.357ZM617.165 27.1591C616.233 27.1591 615.43 26.9811 614.756 26.625C614.085 26.2652 613.568 25.75 613.205 25.0795C612.845 24.4053 612.665 23.5985 612.665 22.6591C612.665 21.7576 612.847 20.9697 613.21 20.2955C613.574 19.6212 614.087 19.0966 614.75 18.7216C615.413 18.3466 616.195 18.1591 617.097 18.1591C617.756 18.1591 618.352 18.2614 618.886 18.4659C619.42 18.6705 619.877 18.9678 620.256 19.358C620.634 19.7443 620.926 20.214 621.131 20.767C621.335 21.3201 621.438 21.9432 621.438 22.6364V23.3636H613.642V21.6364H618.551C618.547 21.3864 618.483 21.1667 618.358 20.9773C618.237 20.7841 618.072 20.6345 617.864 20.5284C617.659 20.4186 617.426 20.3636 617.165 20.3636C616.911 20.3636 616.678 20.4186 616.466 20.5284C616.254 20.6345 616.083 20.7822 615.955 20.9716C615.83 21.161 615.763 21.3826 615.756 21.6364V23.5C615.756 23.7803 615.814 24.0303 615.932 24.25C616.049 24.4697 616.218 24.642 616.438 24.767C616.657 24.892 616.922 24.9545 617.233 24.9545C617.449 24.9545 617.646 24.9242 617.824 24.8636C618.006 24.803 618.161 24.7159 618.29 24.6023C618.419 24.4848 618.513 24.3447 618.574 24.1818H621.438C621.339 24.7879 621.106 25.3144 620.739 25.7614C620.371 26.2045 619.884 26.5492 619.278 26.7955C618.676 27.0379 617.972 27.1591 617.165 27.1591ZM625.854 22.0909V27H622.717V18.2727H625.695V19.9318H625.786C625.975 19.3788 626.308 18.9451 626.786 18.6307C627.267 18.3163 627.827 18.1591 628.467 18.1591C629.085 18.1591 629.621 18.3011 630.075 18.5852C630.534 18.8655 630.888 19.2519 631.138 19.7443C631.392 20.2367 631.517 20.7992 631.513 21.4318V27H628.376V22.0909C628.38 21.6591 628.27 21.3201 628.047 21.0739C627.827 20.8277 627.52 20.7045 627.126 20.7045C626.869 20.7045 626.643 20.7614 626.45 20.875C626.261 20.9848 626.115 21.1439 626.013 21.3523C625.911 21.5568 625.857 21.803 625.854 22.0909ZM636.197 15.3636V27H633.061V15.3636H636.197ZM639.705 30.2727C639.345 30.2727 639.002 30.2443 638.676 30.1875C638.35 30.1345 638.064 30.0606 637.818 29.9659L638.5 27.7386C638.758 27.8295 638.992 27.8883 639.205 27.9148C639.42 27.9413 639.604 27.9261 639.756 27.8693C639.911 27.8125 640.023 27.7045 640.091 27.5455L640.159 27.3864L637.091 18.2727H640.364L641.773 24.3182H641.864L643.295 18.2727H646.591L643.409 27.7273C643.25 28.2083 643.019 28.6402 642.716 29.0227C642.417 29.4091 642.023 29.714 641.534 29.9375C641.045 30.161 640.436 30.2727 639.705 30.2727Z" fill="#181818" fill-opacity="0.75"/>
<defs>
<filter id="filter0_d_128_632" x="0" y="0" width="384" height="376" filterUnits="userSpaceOnUse" color-interpolation-filters="sRGB">
<feFlood flood-opacity="0" result="BackgroundImageFix"/>
<feColorMatrix in="SourceAlpha" type="matrix" values="0 0 0 0 0 0 0 0 0 0 0 0 0 0 0 0 0 0 127 0" result="hardAlpha"/>
<feOffset dy="4"/>
<feGaussianBlur stdDeviation="4"/>
<feComposite in2="hardAlpha" operator="out"/>
<feColorMatrix type="matrix" values="0 0 0 0 0.129412 0 0 0 0 0.447059 0 0 0 0 1 0 0 0 0.25 0"/>
<feBlend mode="normal" in2="BackgroundImageFix" result="effect1_dropShadow_128_632"/>
<feBlend mode="normal" in="SourceGraphic" in2="effect1_dropShadow_128_632" result="shape"/>
</filter>
<filter id="filter1_d_128_632" x="148" y="176" width="88" height="88" filterUnits="userSpaceOnUse" color-interpolation-filters="sRGB">
<feFlood flood-opacity="0" result="BackgroundImageFix"/>
<feColorMatrix in="SourceAlpha" type="matrix" values="0 0 0 0 0 0 0 0 0 0 0 0 0 0 0 0 0 0 127 0" result="hardAlpha"/>
<feOffset dy="4"/>
<feGaussianBlur stdDeviation="4"/>
<feComposite in2="hardAlpha" operator="out"/>
<feColorMatrix type="matrix" values="0 0 0 0 1 0 0 0 0 1 0 0 0 0 1 0 0 0 0.25 0"/>
<feBlend mode="normal" in2="BackgroundImageFix" result="effect1_dropShadow_128_632"/>
<feBlend mode="normal" in="SourceGraphic" in2="effect1_dropShadow_128_632" result="shape"/>
</filter>
<filter id="filter2_d_128_632" x="148" y="32" width="88" height="88" filterUnits="userSpaceOnUse" color-interpolation-filters="sRGB">
<feFlood flood-opacity="0" result="BackgroundImageFix"/>
<feColorMatrix in="SourceAlpha" type="matrix" values="0 0 0 0 0 0 0 0 0 0 0 0 0 0 0 0 0 0 127 0" result="hardAlpha"/>
<feOffset dy="4"/>
<feGaussianBlur stdDeviation="4"/>
<feComposite in2="hardAlpha" operator="out"/>
<feColorMatrix type="matrix" values="0 0 0 0 1 0 0 0 0 1 0 0 0 0 1 0 0 0 0.25 0"/>
<feBlend mode="normal" in2="BackgroundImageFix" result="effect1_dropShadow_128_632"/>
<feBlend mode="normal" in="SourceGraphic" in2="effect1_dropShadow_128_632" result="shape"/>
</filter>
<filter id="filter3_d_128_632" x="32" y="176" width="88" height="88" filterUnits="userSpaceOnUse" color-interpolation-filters="sRGB">
<feFlood flood-opacity="0" result="BackgroundImageFix"/>
<feColorMatrix in="SourceAlpha" type="matrix" values="0 0 0 0 0 0 0 0 0 0 0 0 0 0 0 0 0 0 127 0" result="hardAlpha"/>
<feOffset dy="4"/>
<feGaussianBlur stdDeviation="4"/>
<feComposite in2="hardAlpha" operator="out"/>
<feColorMatrix type="matrix" values="0 0 0 0 1 0 0 0 0 1 0 0 0 0 1 0 0 0 0.25 0"/>
<feBlend mode="normal" in2="BackgroundImageFix" result="effect1_dropShadow_128_632"/>
<feBlend mode="normal" in="SourceGraphic" in2="effect1_dropShadow_128_632" result="shape"/>
</filter>
<filter id="filter4_d_128_632" x="32" y="32" width="88" height="88" filterUnits="userSpaceOnUse" color-interpolation-filters="sRGB">
<feFlood flood-opacity="0" result="BackgroundImageFix"/>
<feColorMatrix in="SourceAlpha" type="matrix" values="0 0 0 0 0 0 0 0 0 0 0 0 0 0 0 0 0 0 127 0" result="hardAlpha"/>
<feOffset dy="4"/>
<feGaussianBlur stdDeviation="4"/>
<feComposite in2="hardAlpha" operator="out"/>
<feColorMatrix type="matrix" values="0 0 0 0 1 0 0 0 0 1 0 0 0 0 1 0 0 0 0.25 0"/>
<feBlend mode="normal" in2="BackgroundImageFix" result="effect1_dropShadow_128_632"/>
<feBlend mode="normal" in="SourceGraphic" in2="effect1_dropShadow_128_632" result="shape"/>
</filter>
<filter id="filter5_d_128_632" x="264" y="32" width="88" height="88" filterUnits="userSpaceOnUse" color-interpolation-filters="sRGB">
<feFlood flood-opacity="0" result="BackgroundImageFix"/>
<feColorMatrix in="SourceAlpha" type="matrix" values="0 0 0 0 0 0 0 0 0 0 0 0 0 0 0 0 0 0 127 0" result="hardAlpha"/>
<feOffset dy="4"/>
<feGaussianBlur stdDeviation="4"/>
<feComposite in2="hardAlpha" operator="out"/>
<feColorMatrix type="matrix" values="0 0 0 0 1 0 0 0 0 1 0 0 0 0 1 0 0 0 0.25 0"/>
<feBlend mode="normal" in2="BackgroundImageFix" result="effect1_dropShadow_128_632"/>
<feBlend mode="normal" in="SourceGraphic" in2="effect1_dropShadow_128_632" result="shape"/>
</filter>
<filter id="filter6_d_128_632" x="148" y="104" width="88" height="88" filterUnits="userSpaceOnUse" color-interpolation-filters="sRGB">
<feFlood flood-opacity="0" result="BackgroundImageFix"/>
<feColorMatrix in="SourceAlpha" type="matrix" values="0 0 0 0 0 0 0 0 0 0 0 0 0 0 0 0 0 0 127 0" result="hardAlpha"/>
<feOffset dy="4"/>
<feGaussianBlur stdDeviation="4"/>
<feComposite in2="hardAlpha" operator="out"/>
<feColorMatrix type="matrix" values="0 0 0 0 1 0 0 0 0 1 0 0 0 0 1 0 0 0 0.25 0"/>
<feBlend mode="normal" in2="BackgroundImageFix" result="effect1_dropShadow_128_632"/>
<feBlend mode="normal" in="SourceGraphic" in2="effect1_dropShadow_128_632" result="shape"/>
</filter>
<filter id="filter7_d_128_632" x="32" y="104" width="88" height="88" filterUnits="userSpaceOnUse" color-interpolation-filters="sRGB">
<feFlood flood-opacity="0" result="BackgroundImageFix"/>
<feColorMatrix in="SourceAlpha" type="matrix" values="0 0 0 0 0 0 0 0 0 0 0 0 0 0 0 0 0 0 127 0" result="hardAlpha"/>
<feOffset dy="4"/>
<feGaussianBlur stdDeviation="4"/>
<feComposite in2="hardAlpha" operator="out"/>
<feColorMatrix type="matrix" values="0 0 0 0 1 0 0 0 0 1 0 0 0 0 1 0 0 0 0.25 0"/>
<feBlend mode="normal" in2="BackgroundImageFix" result="effect1_dropShadow_128_632"/>
<feBlend mode="normal" in="SourceGraphic" in2="effect1_dropShadow_128_632" result="shape"/>
</filter>
<filter id="filter8_d_128_632" x="264" y="104" width="88" height="88" filterUnits="userSpaceOnUse" color-interpolation-filters="sRGB">
<feFlood flood-opacity="0" result="BackgroundImageFix"/>
<feColorMatrix in="SourceAlpha" type="matrix" values="0 0 0 0 0 0 0 0 0 0 0 0 0 0 0 0 0 0 127 0" result="hardAlpha"/>
<feOffset dy="4"/>
<feGaussianBlur stdDeviation="4"/>
<feComposite in2="hardAlpha" operator="out"/>
<feColorMatrix type="matrix" values="0 0 0 0 1 0 0 0 0 1 0 0 0 0 1 0 0 0 0.25 0"/>
<feBlend mode="normal" in2="BackgroundImageFix" result="effect1_dropShadow_128_632"/>
<feBlend mode="normal" in="SourceGraphic" in2="effect1_dropShadow_128_632" result="shape"/>
</filter>
<filter id="filter9_d_128_632" x="264" y="176" width="88" height="88" filterUnits="userSpaceOnUse" color-interpolation-filters="sRGB">
<feFlood flood-opacity="0" result="BackgroundImageFix"/>
<feColorMatrix in="SourceAlpha" type="matrix" values="0 0 0 0 0 0 0 0 0 0 0 0 0 0 0 0 0 0 127 0" result="hardAlpha"/>
<feOffset dy="4"/>
<feGaussianBlur stdDeviation="4"/>
<feComposite in2="hardAlpha" operator="out"/>
<feColorMatrix type="matrix" values="0 0 0 0 1 0 0 0 0 1 0 0 0 0 1 0 0 0 0.25 0"/>
<feBlend mode="normal" in2="BackgroundImageFix" result="effect1_dropShadow_128_632"/>
<feBlend mode="normal" in="SourceGraphic" in2="effect1_dropShadow_128_632" result="shape"/>
</filter>
<filter id="filter10_d_128_632" x="400" y="0" width="384" height="376" filterUnits="userSpaceOnUse" color-interpolation-filters="sRGB">
<feFlood flood-opacity="0" result="BackgroundImageFix"/>
<feColorMatrix in="SourceAlpha" type="matrix" values="0 0 0 0 0 0 0 0 0 0 0 0 0 0 0 0 0 0 127 0" result="hardAlpha"/>
<feOffset dy="4"/>
<feGaussianBlur stdDeviation="4"/>
<feComposite in2="hardAlpha" operator="out"/>
<feColorMatrix type="matrix" values="0 0 0 0 0.129412 0 0 0 0 0.447059 0 0 0 0 1 0 0 0 0.25 0"/>
<feBlend mode="normal" in2="BackgroundImageFix" result="effect1_dropShadow_128_632"/>
<feBlend mode="normal" in="SourceGraphic" in2="effect1_dropShadow_128_632" result="shape"/>
</filter>
<filter id="filter11_d_128_632" x="548" y="176" width="88" height="88" filterUnits="userSpaceOnUse" color-interpolation-filters="sRGB">
<feFlood flood-opacity="0" result="BackgroundImageFix"/>
<feColorMatrix in="SourceAlpha" type="matrix" values="0 0 0 0 0 0 0 0 0 0 0 0 0 0 0 0 0 0 127 0" result="hardAlpha"/>
<feOffset dy="4"/>
<feGaussianBlur stdDeviation="4"/>
<feComposite in2="hardAlpha" operator="out"/>
<feColorMatrix type="matrix" values="0 0 0 0 1 0 0 0 0 1 0 0 0 0 1 0 0 0 0.25 0"/>
<feBlend mode="normal" in2="BackgroundImageFix" result="effect1_dropShadow_128_632"/>
<feBlend mode="normal" in="SourceGraphic" in2="effect1_dropShadow_128_632" result="shape"/>
</filter>
<filter id="filter12_d_128_632" x="548" y="32" width="88" height="88" filterUnits="userSpaceOnUse" color-interpolation-filters="sRGB">
<feFlood flood-opacity="0" result="BackgroundImageFix"/>
<feColorMatrix in="SourceAlpha" type="matrix" values="0 0 0 0 0 0 0 0 0 0 0 0 0 0 0 0 0 0 127 0" result="hardAlpha"/>
<feOffset dy="4"/>
<feGaussianBlur stdDeviation="4"/>
<feComposite in2="hardAlpha" operator="out"/>
<feColorMatrix type="matrix" values="0 0 0 0 1 0 0 0 0 1 0 0 0 0 1 0 0 0 0.25 0"/>
<feBlend mode="normal" in2="BackgroundImageFix" result="effect1_dropShadow_128_632"/>
<feBlend mode="normal" in="SourceGraphic" in2="effect1_dropShadow_128_632" result="shape"/>
</filter>
<filter id="filter13_d_128_632" x="436" y="176" width="88" height="88" filterUnits="userSpaceOnUse" color-interpolation-filters="sRGB">
<feFlood flood-opacity="0" result="BackgroundImageFix"/>
<feColorMatrix in="SourceAlpha" type="matrix" values="0 0 0 0 0 0 0 0 0 0 0 0 0 0 0 0 0 0 127 0" result="hardAlpha"/>
<feOffset dy="4"/>
<feGaussianBlur stdDeviation="4"/>
<feComposite in2="hardAlpha" operator="out"/>
<feColorMatrix type="matrix" values="0 0 0 0 1 0 0 0 0 1 0 0 0 0 1 0 0 0 0.25 0"/>
<feBlend mode="normal" in2="BackgroundImageFix" result="effect1_dropShadow_128_632"/>
<feBlend mode="normal" in="SourceGraphic" in2="effect1_dropShadow_128_632" result="shape"/>
</filter>
<filter id="filter14_d_128_632" x="436" y="32" width="88" height="88" filterUnits="userSpaceOnUse" color-interpolation-filters="sRGB">
<feFlood flood-opacity="0" result="BackgroundImageFix"/>
<feColorMatrix in="SourceAlpha" type="matrix" values="0 0 0 0 0 0 0 0 0 0 0 0 0 0 0 0 0 0 127 0" result="hardAlpha"/>
<feOffset dy="4"/>
<feGaussianBlur stdDeviation="4"/>
<feComposite in2="hardAlpha" operator="out"/>
<feColorMatrix type="matrix" values="0 0 0 0 1 0 0 0 0 1 0 0 0 0 1 0 0 0 0.25 0"/>
<feBlend mode="normal" in2="BackgroundImageFix" result="effect1_dropShadow_128_632"/>
<feBlend mode="normal" in="SourceGraphic" in2="effect1_dropShadow_128_632" result="shape"/>
</filter>
<filter id="filter15_d_128_632" x="660" y="32" width="88" height="88" filterUnits="userSpaceOnUse" color-interpolation-filters="sRGB">
<feFlood flood-opacity="0" result="BackgroundImageFix"/>
<feColorMatrix in="SourceAlpha" type="matrix" values="0 0 0 0 0 0 0 0 0 0 0 0 0 0 0 0 0 0 127 0" result="hardAlpha"/>
<feOffset dy="4"/>
<feGaussianBlur stdDeviation="4"/>
<feComposite in2="hardAlpha" operator="out"/>
<feColorMatrix type="matrix" values="0 0 0 0 1 0 0 0 0 1 0 0 0 0 1 0 0 0 0.25 0"/>
<feBlend mode="normal" in2="BackgroundImageFix" result="effect1_dropShadow_128_632"/>
<feBlend mode="normal" in="SourceGraphic" in2="effect1_dropShadow_128_632" result="shape"/>
</filter>
<filter id="filter16_d_128_632" x="548" y="104" width="88" height="88" filterUnits="userSpaceOnUse" color-interpolation-filters="sRGB">
<feFlood flood-opacity="0" result="BackgroundImageFix"/>
<feColorMatrix in="SourceAlpha" type="matrix" values="0 0 0 0 0 0 0 0 0 0 0 0 0 0 0 0 0 0 127 0" result="hardAlpha"/>
<feOffset dy="4"/>
<feGaussianBlur stdDeviation="4"/>
<feComposite in2="hardAlpha" operator="out"/>
<feColorMatrix type="matrix" values="0 0 0 0 1 0 0 0 0 1 0 0 0 0 1 0 0 0 0.25 0"/>
<feBlend mode="normal" in2="BackgroundImageFix" result="effect1_dropShadow_128_632"/>
<feBlend mode="normal" in="SourceGraphic" in2="effect1_dropShadow_128_632" result="shape"/>
</filter>
<filter id="filter17_d_128_632" x="436" y="104" width="88" height="88" filterUnits="userSpaceOnUse" color-interpolation-filters="sRGB">
<feFlood flood-opacity="0" result="BackgroundImageFix"/>
<feColorMatrix in="SourceAlpha" type="matrix" values="0 0 0 0 0 0 0 0 0 0 0 0 0 0 0 0 0 0 127 0" result="hardAlpha"/>
<feOffset dy="4"/>
<feGaussianBlur stdDeviation="4"/>
<feComposite in2="hardAlpha" operator="out"/>
<feColorMatrix type="matrix" values="0 0 0 0 1 0 0 0 0 1 0 0 0 0 1 0 0 0 0.25 0"/>
<feBlend mode="normal" in2="BackgroundImageFix" result="effect1_dropShadow_128_632"/>
<feBlend mode="normal" in="SourceGraphic" in2="effect1_dropShadow_128_632" result="shape"/>
</filter>
<filter id="filter18_d_128_632" x="660" y="104" width="88" height="88" filterUnits="userSpaceOnUse" color-interpolation-filters="sRGB">
<feFlood flood-opacity="0" result="BackgroundImageFix"/>
<feColorMatrix in="SourceAlpha" type="matrix" values="0 0 0 0 0 0 0 0 0 0 0 0 0 0 0 0 0 0 127 0" result="hardAlpha"/>
<feOffset dy="4"/>
<feGaussianBlur stdDeviation="4"/>
<feComposite in2="hardAlpha" operator="out"/>
<feColorMatrix type="matrix" values="0 0 0 0 1 0 0 0 0 1 0 0 0 0 1 0 0 0 0.25 0"/>
<feBlend mode="normal" in2="BackgroundImageFix" result="effect1_dropShadow_128_632"/>
<feBlend mode="normal" in="SourceGraphic" in2="effect1_dropShadow_128_632" result="shape"/>
</filter>
<filter id="filter19_d_128_632" x="660" y="176" width="88" height="88" filterUnits="userSpaceOnUse" color-interpolation-filters="sRGB">
<feFlood flood-opacity="0" result="BackgroundImageFix"/>
<feColorMatrix in="SourceAlpha" type="matrix" values="0 0 0 0 0 0 0 0 0 0 0 0 0 0 0 0 0 0 127 0" result="hardAlpha"/>
<feOffset dy="4"/>
<feGaussianBlur stdDeviation="4"/>
<feComposite in2="hardAlpha" operator="out"/>
<feColorMatrix type="matrix" values="0 0 0 0 1 0 0 0 0 1 0 0 0 0 1 0 0 0 0.25 0"/>
<feBlend mode="normal" in2="BackgroundImageFix" result="effect1_dropShadow_128_632"/>
<feBlend mode="normal" in="SourceGraphic" in2="effect1_dropShadow_128_632" result="shape"/>
</filter>
</defs>
</svg>
