<svg width="765" height="376" viewBox="0 0 765 376" fill="none" xmlns="http://www.w3.org/2000/svg">
<g filter="url(#filter0_d_129_793)">
<rect x="8" y="4" width="360" height="360" rx="8" fill="#2172FF" fill-opacity="0.8" shape-rendering="crispEdges"/>
</g>
<g filter="url(#filter1_d_129_793)">
<rect x="96" y="230" width="72" height="72" rx="8" fill="white" fill-opacity="0.75" shape-rendering="crispEdges"/>
</g>
<path d="M114.795 272V263.273H117.932V272H114.795ZM116.364 262.364C115.939 262.364 115.576 262.223 115.273 261.943C114.97 261.663 114.818 261.326 114.818 260.932C114.818 260.538 114.97 260.201 115.273 259.92C115.576 259.64 115.939 259.5 116.364 259.5C116.792 259.5 117.155 259.64 117.455 259.92C117.758 260.201 117.909 260.538 117.909 260.932C117.909 261.326 117.758 261.663 117.455 261.943C117.155 262.223 116.792 262.364 116.364 262.364ZM124.734 263.273V265.545H118.984V263.273H124.734ZM120.098 261.182H123.234V269.193C123.234 269.314 123.255 269.417 123.297 269.5C123.339 269.58 123.403 269.64 123.49 269.682C123.577 269.72 123.689 269.739 123.825 269.739C123.92 269.739 124.03 269.727 124.155 269.705C124.284 269.682 124.378 269.663 124.439 269.648L124.893 271.852C124.753 271.894 124.553 271.945 124.291 272.006C124.034 272.066 123.727 272.106 123.371 272.125C122.651 272.163 122.047 272.089 121.558 271.903C121.07 271.714 120.702 271.417 120.456 271.011C120.21 270.606 120.09 270.098 120.098 269.489V261.182ZM130.102 272.159C129.17 272.159 128.367 271.981 127.693 271.625C127.023 271.265 126.506 270.75 126.142 270.08C125.782 269.405 125.602 268.598 125.602 267.659C125.602 266.758 125.784 265.97 126.148 265.295C126.511 264.621 127.025 264.097 127.688 263.722C128.35 263.347 129.133 263.159 130.034 263.159C130.693 263.159 131.29 263.261 131.824 263.466C132.358 263.67 132.814 263.968 133.193 264.358C133.572 264.744 133.864 265.214 134.068 265.767C134.273 266.32 134.375 266.943 134.375 267.636V268.364H126.58V266.636H131.489C131.485 266.386 131.42 266.167 131.295 265.977C131.174 265.784 131.009 265.634 130.801 265.528C130.597 265.419 130.364 265.364 130.102 265.364C129.848 265.364 129.616 265.419 129.403 265.528C129.191 265.634 129.021 265.782 128.892 265.972C128.767 266.161 128.701 266.383 128.693 266.636V268.5C128.693 268.78 128.752 269.03 128.869 269.25C128.987 269.47 129.155 269.642 129.375 269.767C129.595 269.892 129.86 269.955 130.17 269.955C130.386 269.955 130.583 269.924 130.761 269.864C130.943 269.803 131.098 269.716 131.227 269.602C131.356 269.485 131.451 269.345 131.511 269.182H134.375C134.277 269.788 134.044 270.314 133.676 270.761C133.309 271.205 132.822 271.549 132.216 271.795C131.614 272.038 130.909 272.159 130.102 272.159ZM135.655 272V263.273H138.632V264.932H138.723C138.905 264.386 139.215 263.955 139.655 263.636C140.094 263.318 140.617 263.159 141.223 263.159C141.837 263.159 142.365 263.322 142.808 263.648C143.251 263.97 143.518 264.398 143.609 264.932H143.7C143.848 264.398 144.162 263.97 144.643 263.648C145.125 263.322 145.689 263.159 146.337 263.159C147.174 263.159 147.852 263.428 148.371 263.966C148.893 264.504 149.155 265.22 149.155 266.114V272H146.018V266.909C146.018 266.527 145.922 266.227 145.729 266.011C145.536 265.792 145.276 265.682 144.95 265.682C144.628 265.682 144.373 265.792 144.183 266.011C143.998 266.227 143.905 266.527 143.905 266.909V272H140.905V266.909C140.905 266.527 140.808 266.227 140.615 266.011C140.422 265.792 140.162 265.682 139.837 265.682C139.621 265.682 139.435 265.731 139.28 265.83C139.125 265.928 139.003 266.07 138.916 266.256C138.833 266.437 138.791 266.655 138.791 266.909V272H135.655Z" fill="#181818" fill-opacity="0.75"/>
<g filter="url(#filter2_d_129_793)">
<rect x="96" y="86" width="72" height="72" rx="8" fill="white" fill-opacity="0.75" shape-rendering="crispEdges"/>
</g>
<path d="M114.795 128V119.273H117.932V128H114.795ZM116.364 118.364C115.939 118.364 115.576 118.223 115.273 117.943C114.97 117.663 114.818 117.326 114.818 116.932C114.818 116.538 114.97 116.201 115.273 115.92C115.576 115.64 115.939 115.5 116.364 115.5C116.792 115.5 117.155 115.64 117.455 115.92C117.758 116.201 117.909 116.538 117.909 116.932C117.909 117.326 117.758 117.663 117.455 117.943C117.155 118.223 116.792 118.364 116.364 118.364ZM124.734 119.273V121.545H118.984V119.273H124.734ZM120.098 117.182H123.234V125.193C123.234 125.314 123.255 125.417 123.297 125.5C123.339 125.58 123.403 125.64 123.49 125.682C123.577 125.72 123.689 125.739 123.825 125.739C123.92 125.739 124.03 125.727 124.155 125.705C124.284 125.682 124.378 125.663 124.439 125.648L124.893 127.852C124.753 127.894 124.553 127.945 124.291 128.006C124.034 128.066 123.727 128.106 123.371 128.125C122.651 128.163 122.047 128.089 121.558 127.903C121.07 127.714 120.702 127.417 120.456 127.011C120.21 126.606 120.09 126.098 120.098 125.489V117.182ZM130.102 128.159C129.17 128.159 128.367 127.981 127.693 127.625C127.023 127.265 126.506 126.75 126.142 126.08C125.782 125.405 125.602 124.598 125.602 123.659C125.602 122.758 125.784 121.97 126.148 121.295C126.511 120.621 127.025 120.097 127.688 119.722C128.35 119.347 129.133 119.159 130.034 119.159C130.693 119.159 131.29 119.261 131.824 119.466C132.358 119.67 132.814 119.968 133.193 120.358C133.572 120.744 133.864 121.214 134.068 121.767C134.273 122.32 134.375 122.943 134.375 123.636V124.364H126.58V122.636H131.489C131.485 122.386 131.42 122.167 131.295 121.977C131.174 121.784 131.009 121.634 130.801 121.528C130.597 121.419 130.364 121.364 130.102 121.364C129.848 121.364 129.616 121.419 129.403 121.528C129.191 121.634 129.021 121.782 128.892 121.972C128.767 122.161 128.701 122.383 128.693 122.636V124.5C128.693 124.78 128.752 125.03 128.869 125.25C128.987 125.47 129.155 125.642 129.375 125.767C129.595 125.892 129.86 125.955 130.17 125.955C130.386 125.955 130.583 125.924 130.761 125.864C130.943 125.803 131.098 125.716 131.227 125.602C131.356 125.485 131.451 125.345 131.511 125.182H134.375C134.277 125.788 134.044 126.314 133.676 126.761C133.309 127.205 132.822 127.549 132.216 127.795C131.614 128.038 130.909 128.159 130.102 128.159ZM135.655 128V119.273H138.632V120.932H138.723C138.905 120.386 139.215 119.955 139.655 119.636C140.094 119.318 140.617 119.159 141.223 119.159C141.837 119.159 142.365 119.322 142.808 119.648C143.251 119.97 143.518 120.398 143.609 120.932H143.7C143.848 120.398 144.162 119.97 144.643 119.648C145.125 119.322 145.689 119.159 146.337 119.159C147.174 119.159 147.852 119.428 148.371 119.966C148.893 120.504 149.155 121.22 149.155 122.114V128H146.018V122.909C146.018 122.527 145.922 122.227 145.729 122.011C145.536 121.792 145.276 121.682 144.95 121.682C144.628 121.682 144.373 121.792 144.183 122.011C143.998 122.227 143.905 122.527 143.905 122.909V128H140.905V122.909C140.905 122.527 140.808 122.227 140.615 122.011C140.422 121.792 140.162 121.682 139.837 121.682C139.621 121.682 139.435 121.731 139.28 121.83C139.125 121.928 139.003 122.07 138.916 122.256C138.833 122.437 138.791 122.655 138.791 122.909V128H135.655Z" fill="#181818" fill-opacity="0.75"/>
<g filter="url(#filter3_d_129_793)">
<rect x="24" y="230" width="72" height="72" rx="8" fill="white" fill-opacity="0.75" shape-rendering="crispEdges"/>
</g>
<path d="M42.7955 272V263.273H45.9318V272H42.7955ZM44.3636 262.364C43.9394 262.364 43.5758 262.223 43.2727 261.943C42.9697 261.663 42.8182 261.326 42.8182 260.932C42.8182 260.538 42.9697 260.201 43.2727 259.92C43.5758 259.64 43.9394 259.5 44.3636 259.5C44.7917 259.5 45.1553 259.64 45.4545 259.92C45.7576 260.201 45.9091 260.538 45.9091 260.932C45.9091 261.326 45.7576 261.663 45.4545 261.943C45.1553 262.223 44.7917 262.364 44.3636 262.364ZM52.7344 263.273V265.545H46.9844V263.273H52.7344ZM48.098 261.182H51.2344V269.193C51.2344 269.314 51.2552 269.417 51.2969 269.5C51.3385 269.58 51.4029 269.64 51.4901 269.682C51.5772 269.72 51.6889 269.739 51.8253 269.739C51.92 269.739 52.0298 269.727 52.1548 269.705C52.2836 269.682 52.3783 269.663 52.4389 269.648L52.8935 271.852C52.7533 271.894 52.5526 271.945 52.2912 272.006C52.0336 272.066 51.7268 272.106 51.3707 272.125C50.651 272.163 50.0469 272.089 49.5582 271.903C49.0696 271.714 48.7022 271.417 48.456 271.011C48.2098 270.606 48.0904 270.098 48.098 269.489V261.182ZM58.1023 272.159C57.1705 272.159 56.3674 271.981 55.6932 271.625C55.0227 271.265 54.5057 270.75 54.142 270.08C53.7822 269.405 53.6023 268.598 53.6023 267.659C53.6023 266.758 53.7841 265.97 54.1477 265.295C54.5114 264.621 55.0246 264.097 55.6875 263.722C56.3504 263.347 57.1326 263.159 58.0341 263.159C58.6932 263.159 59.2898 263.261 59.8239 263.466C60.358 263.67 60.8144 263.968 61.1932 264.358C61.572 264.744 61.8636 265.214 62.0682 265.767C62.2727 266.32 62.375 266.943 62.375 267.636V268.364H54.5795V266.636H59.4886C59.4848 266.386 59.4205 266.167 59.2955 265.977C59.1742 265.784 59.0095 265.634 58.8011 265.528C58.5966 265.419 58.3636 265.364 58.1023 265.364C57.8485 265.364 57.6155 265.419 57.4034 265.528C57.1913 265.634 57.0208 265.782 56.892 265.972C56.767 266.161 56.7008 266.383 56.6932 266.636V268.5C56.6932 268.78 56.7519 269.03 56.8693 269.25C56.9867 269.47 57.1553 269.642 57.375 269.767C57.5947 269.892 57.8598 269.955 58.1705 269.955C58.3864 269.955 58.5833 269.924 58.7614 269.864C58.9432 269.803 59.0985 269.716 59.2273 269.602C59.3561 269.485 59.4508 269.345 59.5114 269.182H62.375C62.2765 269.788 62.0436 270.314 61.6761 270.761C61.3087 271.205 60.822 271.549 60.2159 271.795C59.6136 272.038 58.9091 272.159 58.1023 272.159ZM63.6548 272V263.273H66.6321V264.932H66.723C66.9048 264.386 67.2154 263.955 67.6548 263.636C68.0942 263.318 68.617 263.159 69.223 263.159C69.8366 263.159 70.3651 263.322 70.8082 263.648C71.2514 263.97 71.5185 264.398 71.6094 264.932H71.7003C71.848 264.398 72.1624 263.97 72.6435 263.648C73.1245 263.322 73.6889 263.159 74.3366 263.159C75.1738 263.159 75.8518 263.428 76.3707 263.966C76.8935 264.504 77.1548 265.22 77.1548 266.114V272H74.0185V266.909C74.0185 266.527 73.9219 266.227 73.7287 266.011C73.5355 265.792 73.276 265.682 72.9503 265.682C72.6283 265.682 72.3726 265.792 72.1832 266.011C71.9976 266.227 71.9048 266.527 71.9048 266.909V272H68.9048V266.909C68.9048 266.527 68.8082 266.227 68.6151 266.011C68.4219 265.792 68.1624 265.682 67.8366 265.682C67.6207 265.682 67.4351 265.731 67.2798 265.83C67.1245 265.928 67.0033 266.07 66.9162 266.256C66.8329 266.437 66.7912 266.655 66.7912 266.909V272H63.6548Z" fill="#181818" fill-opacity="0.75"/>
<g filter="url(#filter4_d_129_793)">
<rect x="24" y="86" width="72" height="72" rx="8" fill="white" fill-opacity="0.75" shape-rendering="crispEdges"/>
</g>
<path d="M42.7955 128V119.273H45.9318V128H42.7955ZM44.3636 118.364C43.9394 118.364 43.5758 118.223 43.2727 117.943C42.9697 117.663 42.8182 117.326 42.8182 116.932C42.8182 116.538 42.9697 116.201 43.2727 115.92C43.5758 115.64 43.9394 115.5 44.3636 115.5C44.7917 115.5 45.1553 115.64 45.4545 115.92C45.7576 116.201 45.9091 116.538 45.9091 116.932C45.9091 117.326 45.7576 117.663 45.4545 117.943C45.1553 118.223 44.7917 118.364 44.3636 118.364ZM52.7344 119.273V121.545H46.9844V119.273H52.7344ZM48.098 117.182H51.2344V125.193C51.2344 125.314 51.2552 125.417 51.2969 125.5C51.3385 125.58 51.4029 125.64 51.4901 125.682C51.5772 125.72 51.6889 125.739 51.8253 125.739C51.92 125.739 52.0298 125.727 52.1548 125.705C52.2836 125.682 52.3783 125.663 52.4389 125.648L52.8935 127.852C52.7533 127.894 52.5526 127.945 52.2912 128.006C52.0336 128.066 51.7268 128.106 51.3707 128.125C50.651 128.163 50.0469 128.089 49.5582 127.903C49.0696 127.714 48.7022 127.417 48.456 127.011C48.2098 126.606 48.0904 126.098 48.098 125.489V117.182ZM58.1023 128.159C57.1705 128.159 56.3674 127.981 55.6932 127.625C55.0227 127.265 54.5057 126.75 54.142 126.08C53.7822 125.405 53.6023 124.598 53.6023 123.659C53.6023 122.758 53.7841 121.97 54.1477 121.295C54.5114 120.621 55.0246 120.097 55.6875 119.722C56.3504 119.347 57.1326 119.159 58.0341 119.159C58.6932 119.159 59.2898 119.261 59.8239 119.466C60.358 119.67 60.8144 119.968 61.1932 120.358C61.572 120.744 61.8636 121.214 62.0682 121.767C62.2727 122.32 62.375 122.943 62.375 123.636V124.364H54.5795V122.636H59.4886C59.4848 122.386 59.4205 122.167 59.2955 121.977C59.1742 121.784 59.0095 121.634 58.8011 121.528C58.5966 121.419 58.3636 121.364 58.1023 121.364C57.8485 121.364 57.6155 121.419 57.4034 121.528C57.1913 121.634 57.0208 121.782 56.892 121.972C56.767 122.161 56.7008 122.383 56.6932 122.636V124.5C56.6932 124.78 56.7519 125.03 56.8693 125.25C56.9867 125.47 57.1553 125.642 57.375 125.767C57.5947 125.892 57.8598 125.955 58.1705 125.955C58.3864 125.955 58.5833 125.924 58.7614 125.864C58.9432 125.803 59.0985 125.716 59.2273 125.602C59.3561 125.485 59.4508 125.345 59.5114 125.182H62.375C62.2765 125.788 62.0436 126.314 61.6761 126.761C61.3087 127.205 60.822 127.549 60.2159 127.795C59.6136 128.038 58.9091 128.159 58.1023 128.159ZM63.6548 128V119.273H66.6321V120.932H66.723C66.9048 120.386 67.2154 119.955 67.6548 119.636C68.0942 119.318 68.617 119.159 69.223 119.159C69.8366 119.159 70.3651 119.322 70.8082 119.648C71.2514 119.97 71.5185 120.398 71.6094 120.932H71.7003C71.848 120.398 72.1624 119.97 72.6435 119.648C73.1245 119.322 73.6889 119.159 74.3366 119.159C75.1738 119.159 75.8518 119.428 76.3707 119.966C76.8935 120.504 77.1548 121.22 77.1548 122.114V128H74.0185V122.909C74.0185 122.527 73.9219 122.227 73.7287 122.011C73.5355 121.792 73.276 121.682 72.9503 121.682C72.6283 121.682 72.3726 121.792 72.1832 122.011C71.9976 122.227 71.9048 122.527 71.9048 122.909V128H68.9048V122.909C68.9048 122.527 68.8082 122.227 68.6151 122.011C68.4219 121.792 68.1624 121.682 67.8366 121.682C67.6207 121.682 67.4351 121.731 67.2798 121.83C67.1245 121.928 67.0033 122.07 66.9162 122.256C66.8329 122.437 66.7912 122.655 66.7912 122.909V128H63.6548Z" fill="#181818" fill-opacity="0.75"/>
<g filter="url(#filter5_d_129_793)">
<rect x="168" y="86" width="72" height="72" rx="8" fill="white" fill-opacity="0.75" shape-rendering="crispEdges"/>
</g>
<path d="M186.795 128V119.273H189.932V128H186.795ZM188.364 118.364C187.939 118.364 187.576 118.223 187.273 117.943C186.97 117.663 186.818 117.326 186.818 116.932C186.818 116.538 186.97 116.201 187.273 115.92C187.576 115.64 187.939 115.5 188.364 115.5C188.792 115.5 189.155 115.64 189.455 115.92C189.758 116.201 189.909 116.538 189.909 116.932C189.909 117.326 189.758 117.663 189.455 117.943C189.155 118.223 188.792 118.364 188.364 118.364ZM196.734 119.273V121.545H190.984V119.273H196.734ZM192.098 117.182H195.234V125.193C195.234 125.314 195.255 125.417 195.297 125.5C195.339 125.58 195.403 125.64 195.49 125.682C195.577 125.72 195.689 125.739 195.825 125.739C195.92 125.739 196.03 125.727 196.155 125.705C196.284 125.682 196.378 125.663 196.439 125.648L196.893 127.852C196.753 127.894 196.553 127.945 196.291 128.006C196.034 128.066 195.727 128.106 195.371 128.125C194.651 128.163 194.047 128.089 193.558 127.903C193.07 127.714 192.702 127.417 192.456 127.011C192.21 126.606 192.09 126.098 192.098 125.489V117.182ZM202.102 128.159C201.17 128.159 200.367 127.981 199.693 127.625C199.023 127.265 198.506 126.75 198.142 126.08C197.782 125.405 197.602 124.598 197.602 123.659C197.602 122.758 197.784 121.97 198.148 121.295C198.511 120.621 199.025 120.097 199.688 119.722C200.35 119.347 201.133 119.159 202.034 119.159C202.693 119.159 203.29 119.261 203.824 119.466C204.358 119.67 204.814 119.968 205.193 120.358C205.572 120.744 205.864 121.214 206.068 121.767C206.273 122.32 206.375 122.943 206.375 123.636V124.364H198.58V122.636H203.489C203.485 122.386 203.42 122.167 203.295 121.977C203.174 121.784 203.009 121.634 202.801 121.528C202.597 121.419 202.364 121.364 202.102 121.364C201.848 121.364 201.616 121.419 201.403 121.528C201.191 121.634 201.021 121.782 200.892 121.972C200.767 122.161 200.701 122.383 200.693 122.636V124.5C200.693 124.78 200.752 125.03 200.869 125.25C200.987 125.47 201.155 125.642 201.375 125.767C201.595 125.892 201.86 125.955 202.17 125.955C202.386 125.955 202.583 125.924 202.761 125.864C202.943 125.803 203.098 125.716 203.227 125.602C203.356 125.485 203.451 125.345 203.511 125.182H206.375C206.277 125.788 206.044 126.314 205.676 126.761C205.309 127.205 204.822 127.549 204.216 127.795C203.614 128.038 202.909 128.159 202.102 128.159ZM207.655 128V119.273H210.632V120.932H210.723C210.905 120.386 211.215 119.955 211.655 119.636C212.094 119.318 212.617 119.159 213.223 119.159C213.837 119.159 214.365 119.322 214.808 119.648C215.251 119.97 215.518 120.398 215.609 120.932H215.7C215.848 120.398 216.162 119.97 216.643 119.648C217.125 119.322 217.689 119.159 218.337 119.159C219.174 119.159 219.852 119.428 220.371 119.966C220.893 120.504 221.155 121.22 221.155 122.114V128H218.018V122.909C218.018 122.527 217.922 122.227 217.729 122.011C217.536 121.792 217.276 121.682 216.95 121.682C216.628 121.682 216.373 121.792 216.183 122.011C215.998 122.227 215.905 122.527 215.905 122.909V128H212.905V122.909C212.905 122.527 212.808 122.227 212.615 122.011C212.422 121.792 212.162 121.682 211.837 121.682C211.621 121.682 211.435 121.731 211.28 121.83C211.125 121.928 211.003 122.07 210.916 122.256C210.833 122.437 210.791 122.655 210.791 122.909V128H207.655Z" fill="#181818" fill-opacity="0.75"/>
<g filter="url(#filter6_d_129_793)">
<rect x="96" y="158" width="72" height="72" rx="8" fill="white" fill-opacity="0.75" shape-rendering="crispEdges"/>
</g>
<path d="M114.795 200V191.273H117.932V200H114.795ZM116.364 190.364C115.939 190.364 115.576 190.223 115.273 189.943C114.97 189.663 114.818 189.326 114.818 188.932C114.818 188.538 114.97 188.201 115.273 187.92C115.576 187.64 115.939 187.5 116.364 187.5C116.792 187.5 117.155 187.64 117.455 187.92C117.758 188.201 117.909 188.538 117.909 188.932C117.909 189.326 117.758 189.663 117.455 189.943C117.155 190.223 116.792 190.364 116.364 190.364ZM124.734 191.273V193.545H118.984V191.273H124.734ZM120.098 189.182H123.234V197.193C123.234 197.314 123.255 197.417 123.297 197.5C123.339 197.58 123.403 197.64 123.49 197.682C123.577 197.72 123.689 197.739 123.825 197.739C123.92 197.739 124.03 197.727 124.155 197.705C124.284 197.682 124.378 197.663 124.439 197.648L124.893 199.852C124.753 199.894 124.553 199.945 124.291 200.006C124.034 200.066 123.727 200.106 123.371 200.125C122.651 200.163 122.047 200.089 121.558 199.903C121.07 199.714 120.702 199.417 120.456 199.011C120.21 198.606 120.09 198.098 120.098 197.489V189.182ZM130.102 200.159C129.17 200.159 128.367 199.981 127.693 199.625C127.023 199.265 126.506 198.75 126.142 198.08C125.782 197.405 125.602 196.598 125.602 195.659C125.602 194.758 125.784 193.97 126.148 193.295C126.511 192.621 127.025 192.097 127.688 191.722C128.35 191.347 129.133 191.159 130.034 191.159C130.693 191.159 131.29 191.261 131.824 191.466C132.358 191.67 132.814 191.968 133.193 192.358C133.572 192.744 133.864 193.214 134.068 193.767C134.273 194.32 134.375 194.943 134.375 195.636V196.364H126.58V194.636H131.489C131.485 194.386 131.42 194.167 131.295 193.977C131.174 193.784 131.009 193.634 130.801 193.528C130.597 193.419 130.364 193.364 130.102 193.364C129.848 193.364 129.616 193.419 129.403 193.528C129.191 193.634 129.021 193.782 128.892 193.972C128.767 194.161 128.701 194.383 128.693 194.636V196.5C128.693 196.78 128.752 197.03 128.869 197.25C128.987 197.47 129.155 197.642 129.375 197.767C129.595 197.892 129.86 197.955 130.17 197.955C130.386 197.955 130.583 197.924 130.761 197.864C130.943 197.803 131.098 197.716 131.227 197.602C131.356 197.485 131.451 197.345 131.511 197.182H134.375C134.277 197.788 134.044 198.314 133.676 198.761C133.309 199.205 132.822 199.549 132.216 199.795C131.614 200.038 130.909 200.159 130.102 200.159ZM135.655 200V191.273H138.632V192.932H138.723C138.905 192.386 139.215 191.955 139.655 191.636C140.094 191.318 140.617 191.159 141.223 191.159C141.837 191.159 142.365 191.322 142.808 191.648C143.251 191.97 143.518 192.398 143.609 192.932H143.7C143.848 192.398 144.162 191.97 144.643 191.648C145.125 191.322 145.689 191.159 146.337 191.159C147.174 191.159 147.852 191.428 148.371 191.966C148.893 192.504 149.155 193.22 149.155 194.114V200H146.018V194.909C146.018 194.527 145.922 194.227 145.729 194.011C145.536 193.792 145.276 193.682 144.95 193.682C144.628 193.682 144.373 193.792 144.183 194.011C143.998 194.227 143.905 194.527 143.905 194.909V200H140.905V194.909C140.905 194.527 140.808 194.227 140.615 194.011C140.422 193.792 140.162 193.682 139.837 193.682C139.621 193.682 139.435 193.731 139.28 193.83C139.125 193.928 139.003 194.07 138.916 194.256C138.833 194.437 138.791 194.655 138.791 194.909V200H135.655Z" fill="#181818" fill-opacity="0.75"/>
<g filter="url(#filter7_d_129_793)">
<rect x="24" y="158" width="72" height="72" rx="8" fill="white" fill-opacity="0.75" shape-rendering="crispEdges"/>
</g>
<path d="M42.7955 200V191.273H45.9318V200H42.7955ZM44.3636 190.364C43.9394 190.364 43.5758 190.223 43.2727 189.943C42.9697 189.663 42.8182 189.326 42.8182 188.932C42.8182 188.538 42.9697 188.201 43.2727 187.92C43.5758 187.64 43.9394 187.5 44.3636 187.5C44.7917 187.5 45.1553 187.64 45.4545 187.92C45.7576 188.201 45.9091 188.538 45.9091 188.932C45.9091 189.326 45.7576 189.663 45.4545 189.943C45.1553 190.223 44.7917 190.364 44.3636 190.364ZM52.7344 191.273V193.545H46.9844V191.273H52.7344ZM48.098 189.182H51.2344V197.193C51.2344 197.314 51.2552 197.417 51.2969 197.5C51.3385 197.58 51.4029 197.64 51.4901 197.682C51.5772 197.72 51.6889 197.739 51.8253 197.739C51.92 197.739 52.0298 197.727 52.1548 197.705C52.2836 197.682 52.3783 197.663 52.4389 197.648L52.8935 199.852C52.7533 199.894 52.5526 199.945 52.2912 200.006C52.0336 200.066 51.7268 200.106 51.3707 200.125C50.651 200.163 50.0469 200.089 49.5582 199.903C49.0696 199.714 48.7022 199.417 48.456 199.011C48.2098 198.606 48.0904 198.098 48.098 197.489V189.182ZM58.1023 200.159C57.1705 200.159 56.3674 199.981 55.6932 199.625C55.0227 199.265 54.5057 198.75 54.142 198.08C53.7822 197.405 53.6023 196.598 53.6023 195.659C53.6023 194.758 53.7841 193.97 54.1477 193.295C54.5114 192.621 55.0246 192.097 55.6875 191.722C56.3504 191.347 57.1326 191.159 58.0341 191.159C58.6932 191.159 59.2898 191.261 59.8239 191.466C60.358 191.67 60.8144 191.968 61.1932 192.358C61.572 192.744 61.8636 193.214 62.0682 193.767C62.2727 194.32 62.375 194.943 62.375 195.636V196.364H54.5795V194.636H59.4886C59.4848 194.386 59.4205 194.167 59.2955 193.977C59.1742 193.784 59.0095 193.634 58.8011 193.528C58.5966 193.419 58.3636 193.364 58.1023 193.364C57.8485 193.364 57.6155 193.419 57.4034 193.528C57.1913 193.634 57.0208 193.782 56.892 193.972C56.767 194.161 56.7008 194.383 56.6932 194.636V196.5C56.6932 196.78 56.7519 197.03 56.8693 197.25C56.9867 197.47 57.1553 197.642 57.375 197.767C57.5947 197.892 57.8598 197.955 58.1705 197.955C58.3864 197.955 58.5833 197.924 58.7614 197.864C58.9432 197.803 59.0985 197.716 59.2273 197.602C59.3561 197.485 59.4508 197.345 59.5114 197.182H62.375C62.2765 197.788 62.0436 198.314 61.6761 198.761C61.3087 199.205 60.822 199.549 60.2159 199.795C59.6136 200.038 58.9091 200.159 58.1023 200.159ZM63.6548 200V191.273H66.6321V192.932H66.723C66.9048 192.386 67.2154 191.955 67.6548 191.636C68.0942 191.318 68.617 191.159 69.223 191.159C69.8366 191.159 70.3651 191.322 70.8082 191.648C71.2514 191.97 71.5185 192.398 71.6094 192.932H71.7003C71.848 192.398 72.1624 191.97 72.6435 191.648C73.1245 191.322 73.6889 191.159 74.3366 191.159C75.1738 191.159 75.8518 191.428 76.3707 191.966C76.8935 192.504 77.1548 193.22 77.1548 194.114V200H74.0185V194.909C74.0185 194.527 73.9219 194.227 73.7287 194.011C73.5355 193.792 73.276 193.682 72.9503 193.682C72.6283 193.682 72.3726 193.792 72.1832 194.011C71.9976 194.227 71.9048 194.527 71.9048 194.909V200H68.9048V194.909C68.9048 194.527 68.8082 194.227 68.6151 194.011C68.4219 193.792 68.1624 193.682 67.8366 193.682C67.6207 193.682 67.4351 193.731 67.2798 193.83C67.1245 193.928 67.0033 194.07 66.9162 194.256C66.8329 194.437 66.7912 194.655 66.7912 194.909V200H63.6548Z" fill="#181818" fill-opacity="0.75"/>
<g filter="url(#filter8_d_129_793)">
<rect x="168" y="158" width="72" height="72" rx="8" fill="white" fill-opacity="0.75" shape-rendering="crispEdges"/>
</g>
<path d="M186.795 200V191.273H189.932V200H186.795ZM188.364 190.364C187.939 190.364 187.576 190.223 187.273 189.943C186.97 189.663 186.818 189.326 186.818 188.932C186.818 188.538 186.97 188.201 187.273 187.92C187.576 187.64 187.939 187.5 188.364 187.5C188.792 187.5 189.155 187.64 189.455 187.92C189.758 188.201 189.909 188.538 189.909 188.932C189.909 189.326 189.758 189.663 189.455 189.943C189.155 190.223 188.792 190.364 188.364 190.364ZM196.734 191.273V193.545H190.984V191.273H196.734ZM192.098 189.182H195.234V197.193C195.234 197.314 195.255 197.417 195.297 197.5C195.339 197.58 195.403 197.64 195.49 197.682C195.577 197.72 195.689 197.739 195.825 197.739C195.92 197.739 196.03 197.727 196.155 197.705C196.284 197.682 196.378 197.663 196.439 197.648L196.893 199.852C196.753 199.894 196.553 199.945 196.291 200.006C196.034 200.066 195.727 200.106 195.371 200.125C194.651 200.163 194.047 200.089 193.558 199.903C193.07 199.714 192.702 199.417 192.456 199.011C192.21 198.606 192.09 198.098 192.098 197.489V189.182ZM202.102 200.159C201.17 200.159 200.367 199.981 199.693 199.625C199.023 199.265 198.506 198.75 198.142 198.08C197.782 197.405 197.602 196.598 197.602 195.659C197.602 194.758 197.784 193.97 198.148 193.295C198.511 192.621 199.025 192.097 199.688 191.722C200.35 191.347 201.133 191.159 202.034 191.159C202.693 191.159 203.29 191.261 203.824 191.466C204.358 191.67 204.814 191.968 205.193 192.358C205.572 192.744 205.864 193.214 206.068 193.767C206.273 194.32 206.375 194.943 206.375 195.636V196.364H198.58V194.636H203.489C203.485 194.386 203.42 194.167 203.295 193.977C203.174 193.784 203.009 193.634 202.801 193.528C202.597 193.419 202.364 193.364 202.102 193.364C201.848 193.364 201.616 193.419 201.403 193.528C201.191 193.634 201.021 193.782 200.892 193.972C200.767 194.161 200.701 194.383 200.693 194.636V196.5C200.693 196.78 200.752 197.03 200.869 197.25C200.987 197.47 201.155 197.642 201.375 197.767C201.595 197.892 201.86 197.955 202.17 197.955C202.386 197.955 202.583 197.924 202.761 197.864C202.943 197.803 203.098 197.716 203.227 197.602C203.356 197.485 203.451 197.345 203.511 197.182H206.375C206.277 197.788 206.044 198.314 205.676 198.761C205.309 199.205 204.822 199.549 204.216 199.795C203.614 200.038 202.909 200.159 202.102 200.159ZM207.655 200V191.273H210.632V192.932H210.723C210.905 192.386 211.215 191.955 211.655 191.636C212.094 191.318 212.617 191.159 213.223 191.159C213.837 191.159 214.365 191.322 214.808 191.648C215.251 191.97 215.518 192.398 215.609 192.932H215.7C215.848 192.398 216.162 191.97 216.643 191.648C217.125 191.322 217.689 191.159 218.337 191.159C219.174 191.159 219.852 191.428 220.371 191.966C220.893 192.504 221.155 193.22 221.155 194.114V200H218.018V194.909C218.018 194.527 217.922 194.227 217.729 194.011C217.536 193.792 217.276 193.682 216.95 193.682C216.628 193.682 216.373 193.792 216.183 194.011C215.998 194.227 215.905 194.527 215.905 194.909V200H212.905V194.909C212.905 194.527 212.808 194.227 212.615 194.011C212.422 193.792 212.162 193.682 211.837 193.682C211.621 193.682 211.435 193.731 211.28 193.83C211.125 193.928 211.003 194.07 210.916 194.256C210.833 194.437 210.791 194.655 210.791 194.909V200H207.655Z" fill="#181818" fill-opacity="0.75"/>
<g filter="url(#filter9_d_129_793)">
<rect x="168" y="230" width="72" height="72" rx="8" fill="white" fill-opacity="0.75" shape-rendering="crispEdges"/>
</g>
<path d="M186.795 272V263.273H189.932V272H186.795ZM188.364 262.364C187.939 262.364 187.576 262.223 187.273 261.943C186.97 261.663 186.818 261.326 186.818 260.932C186.818 260.538 186.97 260.201 187.273 259.92C187.576 259.64 187.939 259.5 188.364 259.5C188.792 259.5 189.155 259.64 189.455 259.92C189.758 260.201 189.909 260.538 189.909 260.932C189.909 261.326 189.758 261.663 189.455 261.943C189.155 262.223 188.792 262.364 188.364 262.364ZM196.734 263.273V265.545H190.984V263.273H196.734ZM192.098 261.182H195.234V269.193C195.234 269.314 195.255 269.417 195.297 269.5C195.339 269.58 195.403 269.64 195.49 269.682C195.577 269.72 195.689 269.739 195.825 269.739C195.92 269.739 196.03 269.727 196.155 269.705C196.284 269.682 196.378 269.663 196.439 269.648L196.893 271.852C196.753 271.894 196.553 271.945 196.291 272.006C196.034 272.066 195.727 272.106 195.371 272.125C194.651 272.163 194.047 272.089 193.558 271.903C193.07 271.714 192.702 271.417 192.456 271.011C192.21 270.606 192.09 270.098 192.098 269.489V261.182ZM202.102 272.159C201.17 272.159 200.367 271.981 199.693 271.625C199.023 271.265 198.506 270.75 198.142 270.08C197.782 269.405 197.602 268.598 197.602 267.659C197.602 266.758 197.784 265.97 198.148 265.295C198.511 264.621 199.025 264.097 199.688 263.722C200.35 263.347 201.133 263.159 202.034 263.159C202.693 263.159 203.29 263.261 203.824 263.466C204.358 263.67 204.814 263.968 205.193 264.358C205.572 264.744 205.864 265.214 206.068 265.767C206.273 266.32 206.375 266.943 206.375 267.636V268.364H198.58V266.636H203.489C203.485 266.386 203.42 266.167 203.295 265.977C203.174 265.784 203.009 265.634 202.801 265.528C202.597 265.419 202.364 265.364 202.102 265.364C201.848 265.364 201.616 265.419 201.403 265.528C201.191 265.634 201.021 265.782 200.892 265.972C200.767 266.161 200.701 266.383 200.693 266.636V268.5C200.693 268.78 200.752 269.03 200.869 269.25C200.987 269.47 201.155 269.642 201.375 269.767C201.595 269.892 201.86 269.955 202.17 269.955C202.386 269.955 202.583 269.924 202.761 269.864C202.943 269.803 203.098 269.716 203.227 269.602C203.356 269.485 203.451 269.345 203.511 269.182H206.375C206.277 269.788 206.044 270.314 205.676 270.761C205.309 271.205 204.822 271.549 204.216 271.795C203.614 272.038 202.909 272.159 202.102 272.159ZM207.655 272V263.273H210.632V264.932H210.723C210.905 264.386 211.215 263.955 211.655 263.636C212.094 263.318 212.617 263.159 213.223 263.159C213.837 263.159 214.365 263.322 214.808 263.648C215.251 263.97 215.518 264.398 215.609 264.932H215.7C215.848 264.398 216.162 263.97 216.643 263.648C217.125 263.322 217.689 263.159 218.337 263.159C219.174 263.159 219.852 263.428 220.371 263.966C220.893 264.504 221.155 265.22 221.155 266.114V272H218.018V266.909C218.018 266.527 217.922 266.227 217.729 266.011C217.536 265.792 217.276 265.682 216.95 265.682C216.628 265.682 216.373 265.792 216.183 266.011C215.998 266.227 215.905 266.527 215.905 266.909V272H212.905V266.909C212.905 266.527 212.808 266.227 212.615 266.011C212.422 265.792 212.162 265.682 211.837 265.682C211.621 265.682 211.435 265.731 211.28 265.83C211.125 265.928 211.003 266.07 210.916 266.256C210.833 266.437 210.791 266.655 210.791 266.909V272H207.655Z" fill="#181818" fill-opacity="0.75"/>
<path d="M167 27.1591C166.053 27.1591 165.242 26.9716 164.568 26.5966C163.894 26.2178 163.377 25.6913 163.017 25.017C162.657 24.339 162.477 23.553 162.477 22.6591C162.477 21.7652 162.657 20.9811 163.017 20.3068C163.377 19.6288 163.894 19.1023 164.568 18.7273C165.242 18.3485 166.053 18.1591 167 18.1591C167.856 18.1591 168.597 18.3144 169.222 18.625C169.85 18.9318 170.337 19.3674 170.682 19.9318C171.027 20.4924 171.201 21.1515 171.205 21.9091H168.295C168.254 21.4508 168.121 21.1023 167.898 20.8636C167.678 20.6212 167.394 20.5 167.045 20.5C166.773 20.5 166.534 20.5795 166.33 20.7386C166.125 20.8939 165.966 21.1307 165.852 21.4489C165.739 21.7633 165.682 22.1591 165.682 22.6364C165.682 23.1136 165.739 23.5114 165.852 23.8295C165.966 24.1439 166.125 24.3807 166.33 24.5398C166.534 24.6951 166.773 24.7727 167.045 24.7727C167.277 24.7727 167.481 24.7197 167.659 24.6136C167.837 24.5038 167.981 24.3447 168.091 24.1364C168.205 23.9242 168.273 23.6667 168.295 23.3636H171.205C171.193 24.1326 171.017 24.803 170.676 25.375C170.335 25.9432 169.852 26.3826 169.227 26.6932C168.606 27.0038 167.864 27.1591 167 27.1591ZM176.68 27.1591C175.749 27.1591 174.946 26.9811 174.271 26.625C173.601 26.2652 173.084 25.75 172.72 25.0795C172.36 24.4053 172.18 23.5985 172.18 22.6591C172.18 21.7576 172.362 20.9697 172.726 20.2955C173.089 19.6212 173.603 19.0966 174.266 18.7216C174.929 18.3466 175.711 18.1591 176.612 18.1591C177.271 18.1591 177.868 18.2614 178.402 18.4659C178.936 18.6705 179.393 18.9678 179.771 19.358C180.15 19.7443 180.442 20.214 180.646 20.767C180.851 21.3201 180.953 21.9432 180.953 22.6364V23.3636H173.158V21.6364H178.067C178.063 21.3864 177.999 21.1667 177.874 20.9773C177.752 20.7841 177.588 20.6345 177.379 20.5284C177.175 20.4186 176.942 20.3636 176.68 20.3636C176.427 20.3636 176.194 20.4186 175.982 20.5284C175.769 20.6345 175.599 20.7822 175.47 20.9716C175.345 21.161 175.279 21.3826 175.271 21.6364V23.5C175.271 23.7803 175.33 24.0303 175.447 24.25C175.565 24.4697 175.733 24.642 175.953 24.767C176.173 24.892 176.438 24.9545 176.749 24.9545C176.964 24.9545 177.161 24.9242 177.339 24.8636C177.521 24.803 177.677 24.7159 177.805 24.6023C177.934 24.4848 178.029 24.3447 178.089 24.1818H180.953C180.855 24.7879 180.622 25.3144 180.254 25.7614C179.887 26.2045 179.4 26.5492 178.794 26.7955C178.192 27.0379 177.487 27.1591 176.68 27.1591ZM185.369 22.0909V27H182.233V18.2727H185.21V19.9318H185.301C185.491 19.3788 185.824 18.9451 186.301 18.6307C186.782 18.3163 187.343 18.1591 187.983 18.1591C188.6 18.1591 189.136 18.3011 189.591 18.5852C190.049 18.8655 190.403 19.2519 190.653 19.7443C190.907 20.2367 191.032 20.7992 191.028 21.4318V27H187.892V22.0909C187.896 21.6591 187.786 21.3201 187.562 21.0739C187.343 20.8277 187.036 20.7045 186.642 20.7045C186.384 20.7045 186.159 20.7614 185.966 20.875C185.777 20.9848 185.631 21.1439 185.528 21.3523C185.426 21.5568 185.373 21.803 185.369 22.0909ZM197.781 18.2727V20.5455H192.031V18.2727H197.781ZM193.145 16.1818H196.281V24.1932C196.281 24.3144 196.302 24.4167 196.344 24.5C196.385 24.5795 196.45 24.6402 196.537 24.6818C196.624 24.7197 196.736 24.7386 196.872 24.7386C196.967 24.7386 197.077 24.7273 197.202 24.7045C197.33 24.6818 197.425 24.6629 197.486 24.6477L197.94 26.8523C197.8 26.8939 197.599 26.9451 197.338 27.0057C197.08 27.0663 196.774 27.1061 196.418 27.125C195.698 27.1629 195.094 27.089 194.605 26.9034C194.116 26.714 193.749 26.4167 193.503 26.0114C193.257 25.6061 193.137 25.0985 193.145 24.4886V16.1818ZM203.149 27.1591C202.217 27.1591 201.414 26.9811 200.74 26.625C200.07 26.2652 199.553 25.75 199.189 25.0795C198.829 24.4053 198.649 23.5985 198.649 22.6591C198.649 21.7576 198.831 20.9697 199.195 20.2955C199.558 19.6212 200.071 19.0966 200.734 18.7216C201.397 18.3466 202.179 18.1591 203.081 18.1591C203.74 18.1591 204.337 18.2614 204.871 18.4659C205.405 18.6705 205.861 18.9678 206.24 19.358C206.619 19.7443 206.911 20.214 207.115 20.767C207.32 21.3201 207.422 21.9432 207.422 22.6364V23.3636H199.626V21.6364H204.536C204.532 21.3864 204.467 21.1667 204.342 20.9773C204.221 20.7841 204.056 20.6345 203.848 20.5284C203.643 20.4186 203.411 20.3636 203.149 20.3636C202.895 20.3636 202.662 20.4186 202.45 20.5284C202.238 20.6345 202.068 20.7822 201.939 20.9716C201.814 21.161 201.748 21.3826 201.74 21.6364V23.5C201.74 23.7803 201.799 24.0303 201.916 24.25C202.034 24.4697 202.202 24.642 202.422 24.767C202.642 24.892 202.907 24.9545 203.217 24.9545C203.433 24.9545 203.63 24.9242 203.808 24.8636C203.99 24.803 204.145 24.7159 204.274 24.6023C204.403 24.4848 204.498 24.3447 204.558 24.1818H207.422C207.323 24.7879 207.09 25.3144 206.723 25.7614C206.356 26.2045 205.869 26.5492 205.263 26.7955C204.661 27.0379 203.956 27.1591 203.149 27.1591ZM208.702 27V18.2727H211.747V19.9318H211.838C211.997 19.3182 212.249 18.8693 212.594 18.5852C212.942 18.3011 213.349 18.1591 213.815 18.1591C213.952 18.1591 214.086 18.1705 214.219 18.1932C214.355 18.2121 214.486 18.2405 214.611 18.2784V20.9545C214.455 20.9015 214.264 20.8617 214.037 20.8352C213.81 20.8087 213.615 20.7955 213.452 20.7955C213.145 20.7955 212.868 20.8655 212.622 21.0057C212.38 21.142 212.188 21.3352 212.048 21.5852C211.908 21.8314 211.838 22.1212 211.838 22.4545V27H208.702Z" fill="#181818" fill-opacity="0.75"/>
<g filter="url(#filter10_d_129_793)">
<rect x="397" y="4" width="360" height="360" rx="8" fill="#2172FF" fill-opacity="0.8" shape-rendering="crispEdges"/>
</g>
<g filter="url(#filter11_d_129_793)">
<rect x="485" y="276" width="72" height="72" rx="8" fill="white" fill-opacity="0.75" shape-rendering="crispEdges"/>
</g>
<path d="M503.795 318V309.273H506.932V318H503.795ZM505.364 308.364C504.939 308.364 504.576 308.223 504.273 307.943C503.97 307.663 503.818 307.326 503.818 306.932C503.818 306.538 503.97 306.201 504.273 305.92C504.576 305.64 504.939 305.5 505.364 305.5C505.792 305.5 506.155 305.64 506.455 305.92C506.758 306.201 506.909 306.538 506.909 306.932C506.909 307.326 506.758 307.663 506.455 307.943C506.155 308.223 505.792 308.364 505.364 308.364ZM513.734 309.273V311.545H507.984V309.273H513.734ZM509.098 307.182H512.234V315.193C512.234 315.314 512.255 315.417 512.297 315.5C512.339 315.58 512.403 315.64 512.49 315.682C512.577 315.72 512.689 315.739 512.825 315.739C512.92 315.739 513.03 315.727 513.155 315.705C513.284 315.682 513.378 315.663 513.439 315.648L513.893 317.852C513.753 317.894 513.553 317.945 513.291 318.006C513.034 318.066 512.727 318.106 512.371 318.125C511.651 318.163 511.047 318.089 510.558 317.903C510.07 317.714 509.702 317.417 509.456 317.011C509.21 316.606 509.09 316.098 509.098 315.489V307.182ZM519.102 318.159C518.17 318.159 517.367 317.981 516.693 317.625C516.023 317.265 515.506 316.75 515.142 316.08C514.782 315.405 514.602 314.598 514.602 313.659C514.602 312.758 514.784 311.97 515.148 311.295C515.511 310.621 516.025 310.097 516.688 309.722C517.35 309.347 518.133 309.159 519.034 309.159C519.693 309.159 520.29 309.261 520.824 309.466C521.358 309.67 521.814 309.968 522.193 310.358C522.572 310.744 522.864 311.214 523.068 311.767C523.273 312.32 523.375 312.943 523.375 313.636V314.364H515.58V312.636H520.489C520.485 312.386 520.42 312.167 520.295 311.977C520.174 311.784 520.009 311.634 519.801 311.528C519.597 311.419 519.364 311.364 519.102 311.364C518.848 311.364 518.616 311.419 518.403 311.528C518.191 311.634 518.021 311.782 517.892 311.972C517.767 312.161 517.701 312.383 517.693 312.636V314.5C517.693 314.78 517.752 315.03 517.869 315.25C517.987 315.47 518.155 315.642 518.375 315.767C518.595 315.892 518.86 315.955 519.17 315.955C519.386 315.955 519.583 315.924 519.761 315.864C519.943 315.803 520.098 315.716 520.227 315.602C520.356 315.485 520.451 315.345 520.511 315.182H523.375C523.277 315.788 523.044 316.314 522.676 316.761C522.309 317.205 521.822 317.549 521.216 317.795C520.614 318.038 519.909 318.159 519.102 318.159ZM524.655 318V309.273H527.632V310.932H527.723C527.905 310.386 528.215 309.955 528.655 309.636C529.094 309.318 529.617 309.159 530.223 309.159C530.837 309.159 531.365 309.322 531.808 309.648C532.251 309.97 532.518 310.398 532.609 310.932H532.7C532.848 310.398 533.162 309.97 533.643 309.648C534.125 309.322 534.689 309.159 535.337 309.159C536.174 309.159 536.852 309.428 537.371 309.966C537.893 310.504 538.155 311.22 538.155 312.114V318H535.018V312.909C535.018 312.527 534.922 312.227 534.729 312.011C534.536 311.792 534.276 311.682 533.95 311.682C533.628 311.682 533.373 311.792 533.183 312.011C532.998 312.227 532.905 312.527 532.905 312.909V318H529.905V312.909C529.905 312.527 529.808 312.227 529.615 312.011C529.422 311.792 529.162 311.682 528.837 311.682C528.621 311.682 528.435 311.731 528.28 311.83C528.125 311.928 528.003 312.07 527.916 312.256C527.833 312.437 527.791 312.655 527.791 312.909V318H524.655Z" fill="#181818" fill-opacity="0.75"/>
<g filter="url(#filter12_d_129_793)">
<rect x="485" y="39" width="72" height="72" rx="8" fill="white" fill-opacity="0.75" shape-rendering="crispEdges"/>
</g>
<path d="M503.795 81V72.2727H506.932V81H503.795ZM505.364 71.3636C504.939 71.3636 504.576 71.2235 504.273 70.9432C503.97 70.6629 503.818 70.3258 503.818 69.9318C503.818 69.5379 503.97 69.2008 504.273 68.9205C504.576 68.6402 504.939 68.5 505.364 68.5C505.792 68.5 506.155 68.6402 506.455 68.9205C506.758 69.2008 506.909 69.5379 506.909 69.9318C506.909 70.3258 506.758 70.6629 506.455 70.9432C506.155 71.2235 505.792 71.3636 505.364 71.3636ZM513.734 72.2727V74.5455H507.984V72.2727H513.734ZM509.098 70.1818H512.234V78.1932C512.234 78.3144 512.255 78.4167 512.297 78.5C512.339 78.5795 512.403 78.6402 512.49 78.6818C512.577 78.7197 512.689 78.7386 512.825 78.7386C512.92 78.7386 513.03 78.7273 513.155 78.7045C513.284 78.6818 513.378 78.6629 513.439 78.6477L513.893 80.8523C513.753 80.8939 513.553 80.9451 513.291 81.0057C513.034 81.0663 512.727 81.1061 512.371 81.125C511.651 81.1629 511.047 81.089 510.558 80.9034C510.07 80.714 509.702 80.4167 509.456 80.0114C509.21 79.6061 509.09 79.0985 509.098 78.4886V70.1818ZM519.102 81.1591C518.17 81.1591 517.367 80.9811 516.693 80.625C516.023 80.2652 515.506 79.75 515.142 79.0795C514.782 78.4053 514.602 77.5985 514.602 76.6591C514.602 75.7576 514.784 74.9697 515.148 74.2955C515.511 73.6212 516.025 73.0966 516.688 72.7216C517.35 72.3466 518.133 72.1591 519.034 72.1591C519.693 72.1591 520.29 72.2614 520.824 72.4659C521.358 72.6705 521.814 72.9678 522.193 73.358C522.572 73.7443 522.864 74.214 523.068 74.767C523.273 75.3201 523.375 75.9432 523.375 76.6364V77.3636H515.58V75.6364H520.489C520.485 75.3864 520.42 75.1667 520.295 74.9773C520.174 74.7841 520.009 74.6345 519.801 74.5284C519.597 74.4186 519.364 74.3636 519.102 74.3636C518.848 74.3636 518.616 74.4186 518.403 74.5284C518.191 74.6345 518.021 74.7822 517.892 74.9716C517.767 75.161 517.701 75.3826 517.693 75.6364V77.5C517.693 77.7803 517.752 78.0303 517.869 78.25C517.987 78.4697 518.155 78.642 518.375 78.767C518.595 78.892 518.86 78.9545 519.17 78.9545C519.386 78.9545 519.583 78.9242 519.761 78.8636C519.943 78.803 520.098 78.7159 520.227 78.6023C520.356 78.4848 520.451 78.3447 520.511 78.1818H523.375C523.277 78.7879 523.044 79.3144 522.676 79.7614C522.309 80.2045 521.822 80.5492 521.216 80.7955C520.614 81.0379 519.909 81.1591 519.102 81.1591ZM524.655 81V72.2727H527.632V73.9318H527.723C527.905 73.3864 528.215 72.9545 528.655 72.6364C529.094 72.3182 529.617 72.1591 530.223 72.1591C530.837 72.1591 531.365 72.322 531.808 72.6477C532.251 72.9697 532.518 73.3977 532.609 73.9318H532.7C532.848 73.3977 533.162 72.9697 533.643 72.6477C534.125 72.322 534.689 72.1591 535.337 72.1591C536.174 72.1591 536.852 72.428 537.371 72.9659C537.893 73.5038 538.155 74.2197 538.155 75.1136V81H535.018V75.9091C535.018 75.5265 534.922 75.2273 534.729 75.0114C534.536 74.7917 534.276 74.6818 533.95 74.6818C533.628 74.6818 533.373 74.7917 533.183 75.0114C532.998 75.2273 532.905 75.5265 532.905 75.9091V81H529.905V75.9091C529.905 75.5265 529.808 75.2273 529.615 75.0114C529.422 74.7917 529.162 74.6818 528.837 74.6818C528.621 74.6818 528.435 74.7311 528.28 74.8295C528.125 74.928 528.003 75.0701 527.916 75.2557C527.833 75.4375 527.791 75.6553 527.791 75.9091V81H524.655Z" fill="#181818" fill-opacity="0.75"/>
<g filter="url(#filter13_d_129_793)">
<rect x="413" y="276" width="72" height="72" rx="8" fill="white" fill-opacity="0.75" shape-rendering="crispEdges"/>
</g>
<path d="M431.795 318V309.273H434.932V318H431.795ZM433.364 308.364C432.939 308.364 432.576 308.223 432.273 307.943C431.97 307.663 431.818 307.326 431.818 306.932C431.818 306.538 431.97 306.201 432.273 305.92C432.576 305.64 432.939 305.5 433.364 305.5C433.792 305.5 434.155 305.64 434.455 305.92C434.758 306.201 434.909 306.538 434.909 306.932C434.909 307.326 434.758 307.663 434.455 307.943C434.155 308.223 433.792 308.364 433.364 308.364ZM441.734 309.273V311.545H435.984V309.273H441.734ZM437.098 307.182H440.234V315.193C440.234 315.314 440.255 315.417 440.297 315.5C440.339 315.58 440.403 315.64 440.49 315.682C440.577 315.72 440.689 315.739 440.825 315.739C440.92 315.739 441.03 315.727 441.155 315.705C441.284 315.682 441.378 315.663 441.439 315.648L441.893 317.852C441.753 317.894 441.553 317.945 441.291 318.006C441.034 318.066 440.727 318.106 440.371 318.125C439.651 318.163 439.047 318.089 438.558 317.903C438.07 317.714 437.702 317.417 437.456 317.011C437.21 316.606 437.09 316.098 437.098 315.489V307.182ZM447.102 318.159C446.17 318.159 445.367 317.981 444.693 317.625C444.023 317.265 443.506 316.75 443.142 316.08C442.782 315.405 442.602 314.598 442.602 313.659C442.602 312.758 442.784 311.97 443.148 311.295C443.511 310.621 444.025 310.097 444.688 309.722C445.35 309.347 446.133 309.159 447.034 309.159C447.693 309.159 448.29 309.261 448.824 309.466C449.358 309.67 449.814 309.968 450.193 310.358C450.572 310.744 450.864 311.214 451.068 311.767C451.273 312.32 451.375 312.943 451.375 313.636V314.364H443.58V312.636H448.489C448.485 312.386 448.42 312.167 448.295 311.977C448.174 311.784 448.009 311.634 447.801 311.528C447.597 311.419 447.364 311.364 447.102 311.364C446.848 311.364 446.616 311.419 446.403 311.528C446.191 311.634 446.021 311.782 445.892 311.972C445.767 312.161 445.701 312.383 445.693 312.636V314.5C445.693 314.78 445.752 315.03 445.869 315.25C445.987 315.47 446.155 315.642 446.375 315.767C446.595 315.892 446.86 315.955 447.17 315.955C447.386 315.955 447.583 315.924 447.761 315.864C447.943 315.803 448.098 315.716 448.227 315.602C448.356 315.485 448.451 315.345 448.511 315.182H451.375C451.277 315.788 451.044 316.314 450.676 316.761C450.309 317.205 449.822 317.549 449.216 317.795C448.614 318.038 447.909 318.159 447.102 318.159ZM452.655 318V309.273H455.632V310.932H455.723C455.905 310.386 456.215 309.955 456.655 309.636C457.094 309.318 457.617 309.159 458.223 309.159C458.837 309.159 459.365 309.322 459.808 309.648C460.251 309.97 460.518 310.398 460.609 310.932H460.7C460.848 310.398 461.162 309.97 461.643 309.648C462.125 309.322 462.689 309.159 463.337 309.159C464.174 309.159 464.852 309.428 465.371 309.966C465.893 310.504 466.155 311.22 466.155 312.114V318H463.018V312.909C463.018 312.527 462.922 312.227 462.729 312.011C462.536 311.792 462.276 311.682 461.95 311.682C461.628 311.682 461.373 311.792 461.183 312.011C460.998 312.227 460.905 312.527 460.905 312.909V318H457.905V312.909C457.905 312.527 457.808 312.227 457.615 312.011C457.422 311.792 457.162 311.682 456.837 311.682C456.621 311.682 456.435 311.731 456.28 311.83C456.125 311.928 456.003 312.07 455.916 312.256C455.833 312.437 455.791 312.655 455.791 312.909V318H452.655Z" fill="#181818" fill-opacity="0.75"/>
<g filter="url(#filter14_d_129_793)">
<rect x="413" y="39" width="72" height="72" rx="8" fill="white" fill-opacity="0.75" shape-rendering="crispEdges"/>
</g>
<path d="M431.795 81V72.2727H434.932V81H431.795ZM433.364 71.3636C432.939 71.3636 432.576 71.2235 432.273 70.9432C431.97 70.6629 431.818 70.3258 431.818 69.9318C431.818 69.5379 431.97 69.2008 432.273 68.9205C432.576 68.6402 432.939 68.5 433.364 68.5C433.792 68.5 434.155 68.6402 434.455 68.9205C434.758 69.2008 434.909 69.5379 434.909 69.9318C434.909 70.3258 434.758 70.6629 434.455 70.9432C434.155 71.2235 433.792 71.3636 433.364 71.3636ZM441.734 72.2727V74.5455H435.984V72.2727H441.734ZM437.098 70.1818H440.234V78.1932C440.234 78.3144 440.255 78.4167 440.297 78.5C440.339 78.5795 440.403 78.6402 440.49 78.6818C440.577 78.7197 440.689 78.7386 440.825 78.7386C440.92 78.7386 441.03 78.7273 441.155 78.7045C441.284 78.6818 441.378 78.6629 441.439 78.6477L441.893 80.8523C441.753 80.8939 441.553 80.9451 441.291 81.0057C441.034 81.0663 440.727 81.1061 440.371 81.125C439.651 81.1629 439.047 81.089 438.558 80.9034C438.07 80.714 437.702 80.4167 437.456 80.0114C437.21 79.6061 437.09 79.0985 437.098 78.4886V70.1818ZM447.102 81.1591C446.17 81.1591 445.367 80.9811 444.693 80.625C444.023 80.2652 443.506 79.75 443.142 79.0795C442.782 78.4053 442.602 77.5985 442.602 76.6591C442.602 75.7576 442.784 74.9697 443.148 74.2955C443.511 73.6212 444.025 73.0966 444.688 72.7216C445.35 72.3466 446.133 72.1591 447.034 72.1591C447.693 72.1591 448.29 72.2614 448.824 72.4659C449.358 72.6705 449.814 72.9678 450.193 73.358C450.572 73.7443 450.864 74.214 451.068 74.767C451.273 75.3201 451.375 75.9432 451.375 76.6364V77.3636H443.58V75.6364H448.489C448.485 75.3864 448.42 75.1667 448.295 74.9773C448.174 74.7841 448.009 74.6345 447.801 74.5284C447.597 74.4186 447.364 74.3636 447.102 74.3636C446.848 74.3636 446.616 74.4186 446.403 74.5284C446.191 74.6345 446.021 74.7822 445.892 74.9716C445.767 75.161 445.701 75.3826 445.693 75.6364V77.5C445.693 77.7803 445.752 78.0303 445.869 78.25C445.987 78.4697 446.155 78.642 446.375 78.767C446.595 78.892 446.86 78.9545 447.17 78.9545C447.386 78.9545 447.583 78.9242 447.761 78.8636C447.943 78.803 448.098 78.7159 448.227 78.6023C448.356 78.4848 448.451 78.3447 448.511 78.1818H451.375C451.277 78.7879 451.044 79.3144 450.676 79.7614C450.309 80.2045 449.822 80.5492 449.216 80.7955C448.614 81.0379 447.909 81.1591 447.102 81.1591ZM452.655 81V72.2727H455.632V73.9318H455.723C455.905 73.3864 456.215 72.9545 456.655 72.6364C457.094 72.3182 457.617 72.1591 458.223 72.1591C458.837 72.1591 459.365 72.322 459.808 72.6477C460.251 72.9697 460.518 73.3977 460.609 73.9318H460.7C460.848 73.3977 461.162 72.9697 461.643 72.6477C462.125 72.322 462.689 72.1591 463.337 72.1591C464.174 72.1591 464.852 72.428 465.371 72.9659C465.893 73.5038 466.155 74.2197 466.155 75.1136V81H463.018V75.9091C463.018 75.5265 462.922 75.2273 462.729 75.0114C462.536 74.7917 462.276 74.6818 461.95 74.6818C461.628 74.6818 461.373 74.7917 461.183 75.0114C460.998 75.2273 460.905 75.5265 460.905 75.9091V81H457.905V75.9091C457.905 75.5265 457.808 75.2273 457.615 75.0114C457.422 74.7917 457.162 74.6818 456.837 74.6818C456.621 74.6818 456.435 74.7311 456.28 74.8295C456.125 74.928 456.003 75.0701 455.916 75.2557C455.833 75.4375 455.791 75.6553 455.791 75.9091V81H452.655Z" fill="#181818" fill-opacity="0.75"/>
<g filter="url(#filter15_d_129_793)">
<rect x="557" y="39" width="72" height="72" rx="8" fill="white" fill-opacity="0.75" shape-rendering="crispEdges"/>
</g>
<path d="M575.795 81V72.2727H578.932V81H575.795ZM577.364 71.3636C576.939 71.3636 576.576 71.2235 576.273 70.9432C575.97 70.6629 575.818 70.3258 575.818 69.9318C575.818 69.5379 575.97 69.2008 576.273 68.9205C576.576 68.6402 576.939 68.5 577.364 68.5C577.792 68.5 578.155 68.6402 578.455 68.9205C578.758 69.2008 578.909 69.5379 578.909 69.9318C578.909 70.3258 578.758 70.6629 578.455 70.9432C578.155 71.2235 577.792 71.3636 577.364 71.3636ZM585.734 72.2727V74.5455H579.984V72.2727H585.734ZM581.098 70.1818H584.234V78.1932C584.234 78.3144 584.255 78.4167 584.297 78.5C584.339 78.5795 584.403 78.6402 584.49 78.6818C584.577 78.7197 584.689 78.7386 584.825 78.7386C584.92 78.7386 585.03 78.7273 585.155 78.7045C585.284 78.6818 585.378 78.6629 585.439 78.6477L585.893 80.8523C585.753 80.8939 585.553 80.9451 585.291 81.0057C585.034 81.0663 584.727 81.1061 584.371 81.125C583.651 81.1629 583.047 81.089 582.558 80.9034C582.07 80.714 581.702 80.4167 581.456 80.0114C581.21 79.6061 581.09 79.0985 581.098 78.4886V70.1818ZM591.102 81.1591C590.17 81.1591 589.367 80.9811 588.693 80.625C588.023 80.2652 587.506 79.75 587.142 79.0795C586.782 78.4053 586.602 77.5985 586.602 76.6591C586.602 75.7576 586.784 74.9697 587.148 74.2955C587.511 73.6212 588.025 73.0966 588.688 72.7216C589.35 72.3466 590.133 72.1591 591.034 72.1591C591.693 72.1591 592.29 72.2614 592.824 72.4659C593.358 72.6705 593.814 72.9678 594.193 73.358C594.572 73.7443 594.864 74.214 595.068 74.767C595.273 75.3201 595.375 75.9432 595.375 76.6364V77.3636H587.58V75.6364H592.489C592.485 75.3864 592.42 75.1667 592.295 74.9773C592.174 74.7841 592.009 74.6345 591.801 74.5284C591.597 74.4186 591.364 74.3636 591.102 74.3636C590.848 74.3636 590.616 74.4186 590.403 74.5284C590.191 74.6345 590.021 74.7822 589.892 74.9716C589.767 75.161 589.701 75.3826 589.693 75.6364V77.5C589.693 77.7803 589.752 78.0303 589.869 78.25C589.987 78.4697 590.155 78.642 590.375 78.767C590.595 78.892 590.86 78.9545 591.17 78.9545C591.386 78.9545 591.583 78.9242 591.761 78.8636C591.943 78.803 592.098 78.7159 592.227 78.6023C592.356 78.4848 592.451 78.3447 592.511 78.1818H595.375C595.277 78.7879 595.044 79.3144 594.676 79.7614C594.309 80.2045 593.822 80.5492 593.216 80.7955C592.614 81.0379 591.909 81.1591 591.102 81.1591ZM596.655 81V72.2727H599.632V73.9318H599.723C599.905 73.3864 600.215 72.9545 600.655 72.6364C601.094 72.3182 601.617 72.1591 602.223 72.1591C602.837 72.1591 603.365 72.322 603.808 72.6477C604.251 72.9697 604.518 73.3977 604.609 73.9318H604.7C604.848 73.3977 605.162 72.9697 605.643 72.6477C606.125 72.322 606.689 72.1591 607.337 72.1591C608.174 72.1591 608.852 72.428 609.371 72.9659C609.893 73.5038 610.155 74.2197 610.155 75.1136V81H607.018V75.9091C607.018 75.5265 606.922 75.2273 606.729 75.0114C606.536 74.7917 606.276 74.6818 605.95 74.6818C605.628 74.6818 605.373 74.7917 605.183 75.0114C604.998 75.2273 604.905 75.5265 604.905 75.9091V81H601.905V75.9091C601.905 75.5265 601.808 75.2273 601.615 75.0114C601.422 74.7917 601.162 74.6818 600.837 74.6818C600.621 74.6818 600.435 74.7311 600.28 74.8295C600.125 74.928 600.003 75.0701 599.916 75.2557C599.833 75.4375 599.791 75.6553 599.791 75.9091V81H596.655Z" fill="#181818" fill-opacity="0.75"/>
<g filter="url(#filter16_d_129_793)">
<rect x="485" y="158" width="72" height="72" rx="8" fill="white" fill-opacity="0.75" shape-rendering="crispEdges"/>
</g>
<path d="M503.795 200V191.273H506.932V200H503.795ZM505.364 190.364C504.939 190.364 504.576 190.223 504.273 189.943C503.97 189.663 503.818 189.326 503.818 188.932C503.818 188.538 503.97 188.201 504.273 187.92C504.576 187.64 504.939 187.5 505.364 187.5C505.792 187.5 506.155 187.64 506.455 187.92C506.758 188.201 506.909 188.538 506.909 188.932C506.909 189.326 506.758 189.663 506.455 189.943C506.155 190.223 505.792 190.364 505.364 190.364ZM513.734 191.273V193.545H507.984V191.273H513.734ZM509.098 189.182H512.234V197.193C512.234 197.314 512.255 197.417 512.297 197.5C512.339 197.58 512.403 197.64 512.49 197.682C512.577 197.72 512.689 197.739 512.825 197.739C512.92 197.739 513.03 197.727 513.155 197.705C513.284 197.682 513.378 197.663 513.439 197.648L513.893 199.852C513.753 199.894 513.553 199.945 513.291 200.006C513.034 200.066 512.727 200.106 512.371 200.125C511.651 200.163 511.047 200.089 510.558 199.903C510.07 199.714 509.702 199.417 509.456 199.011C509.21 198.606 509.09 198.098 509.098 197.489V189.182ZM519.102 200.159C518.17 200.159 517.367 199.981 516.693 199.625C516.023 199.265 515.506 198.75 515.142 198.08C514.782 197.405 514.602 196.598 514.602 195.659C514.602 194.758 514.784 193.97 515.148 193.295C515.511 192.621 516.025 192.097 516.688 191.722C517.35 191.347 518.133 191.159 519.034 191.159C519.693 191.159 520.29 191.261 520.824 191.466C521.358 191.67 521.814 191.968 522.193 192.358C522.572 192.744 522.864 193.214 523.068 193.767C523.273 194.32 523.375 194.943 523.375 195.636V196.364H515.58V194.636H520.489C520.485 194.386 520.42 194.167 520.295 193.977C520.174 193.784 520.009 193.634 519.801 193.528C519.597 193.419 519.364 193.364 519.102 193.364C518.848 193.364 518.616 193.419 518.403 193.528C518.191 193.634 518.021 193.782 517.892 193.972C517.767 194.161 517.701 194.383 517.693 194.636V196.5C517.693 196.78 517.752 197.03 517.869 197.25C517.987 197.47 518.155 197.642 518.375 197.767C518.595 197.892 518.86 197.955 519.17 197.955C519.386 197.955 519.583 197.924 519.761 197.864C519.943 197.803 520.098 197.716 520.227 197.602C520.356 197.485 520.451 197.345 520.511 197.182H523.375C523.277 197.788 523.044 198.314 522.676 198.761C522.309 199.205 521.822 199.549 521.216 199.795C520.614 200.038 519.909 200.159 519.102 200.159ZM524.655 200V191.273H527.632V192.932H527.723C527.905 192.386 528.215 191.955 528.655 191.636C529.094 191.318 529.617 191.159 530.223 191.159C530.837 191.159 531.365 191.322 531.808 191.648C532.251 191.97 532.518 192.398 532.609 192.932H532.7C532.848 192.398 533.162 191.97 533.643 191.648C534.125 191.322 534.689 191.159 535.337 191.159C536.174 191.159 536.852 191.428 537.371 191.966C537.893 192.504 538.155 193.22 538.155 194.114V200H535.018V194.909C535.018 194.527 534.922 194.227 534.729 194.011C534.536 193.792 534.276 193.682 533.95 193.682C533.628 193.682 533.373 193.792 533.183 194.011C532.998 194.227 532.905 194.527 532.905 194.909V200H529.905V194.909C529.905 194.527 529.808 194.227 529.615 194.011C529.422 193.792 529.162 193.682 528.837 193.682C528.621 193.682 528.435 193.731 528.28 193.83C528.125 193.928 528.003 194.07 527.916 194.256C527.833 194.437 527.791 194.655 527.791 194.909V200H524.655Z" fill="#181818" fill-opacity="0.75"/>
<g filter="url(#filter17_d_129_793)">
<rect x="413" y="158" width="72" height="72" rx="8" fill="white" fill-opacity="0.75" shape-rendering="crispEdges"/>
</g>
<path d="M431.795 200V191.273H434.932V200H431.795ZM433.364 190.364C432.939 190.364 432.576 190.223 432.273 189.943C431.97 189.663 431.818 189.326 431.818 188.932C431.818 188.538 431.97 188.201 432.273 187.92C432.576 187.64 432.939 187.5 433.364 187.5C433.792 187.5 434.155 187.64 434.455 187.92C434.758 188.201 434.909 188.538 434.909 188.932C434.909 189.326 434.758 189.663 434.455 189.943C434.155 190.223 433.792 190.364 433.364 190.364ZM441.734 191.273V193.545H435.984V191.273H441.734ZM437.098 189.182H440.234V197.193C440.234 197.314 440.255 197.417 440.297 197.5C440.339 197.58 440.403 197.64 440.49 197.682C440.577 197.72 440.689 197.739 440.825 197.739C440.92 197.739 441.03 197.727 441.155 197.705C441.284 197.682 441.378 197.663 441.439 197.648L441.893 199.852C441.753 199.894 441.553 199.945 441.291 200.006C441.034 200.066 440.727 200.106 440.371 200.125C439.651 200.163 439.047 200.089 438.558 199.903C438.07 199.714 437.702 199.417 437.456 199.011C437.21 198.606 437.09 198.098 437.098 197.489V189.182ZM447.102 200.159C446.17 200.159 445.367 199.981 444.693 199.625C444.023 199.265 443.506 198.75 443.142 198.08C442.782 197.405 442.602 196.598 442.602 195.659C442.602 194.758 442.784 193.97 443.148 193.295C443.511 192.621 444.025 192.097 444.688 191.722C445.35 191.347 446.133 191.159 447.034 191.159C447.693 191.159 448.29 191.261 448.824 191.466C449.358 191.67 449.814 191.968 450.193 192.358C450.572 192.744 450.864 193.214 451.068 193.767C451.273 194.32 451.375 194.943 451.375 195.636V196.364H443.58V194.636H448.489C448.485 194.386 448.42 194.167 448.295 193.977C448.174 193.784 448.009 193.634 447.801 193.528C447.597 193.419 447.364 193.364 447.102 193.364C446.848 193.364 446.616 193.419 446.403 193.528C446.191 193.634 446.021 193.782 445.892 193.972C445.767 194.161 445.701 194.383 445.693 194.636V196.5C445.693 196.78 445.752 197.03 445.869 197.25C445.987 197.47 446.155 197.642 446.375 197.767C446.595 197.892 446.86 197.955 447.17 197.955C447.386 197.955 447.583 197.924 447.761 197.864C447.943 197.803 448.098 197.716 448.227 197.602C448.356 197.485 448.451 197.345 448.511 197.182H451.375C451.277 197.788 451.044 198.314 450.676 198.761C450.309 199.205 449.822 199.549 449.216 199.795C448.614 200.038 447.909 200.159 447.102 200.159ZM452.655 200V191.273H455.632V192.932H455.723C455.905 192.386 456.215 191.955 456.655 191.636C457.094 191.318 457.617 191.159 458.223 191.159C458.837 191.159 459.365 191.322 459.808 191.648C460.251 191.97 460.518 192.398 460.609 192.932H460.7C460.848 192.398 461.162 191.97 461.643 191.648C462.125 191.322 462.689 191.159 463.337 191.159C464.174 191.159 464.852 191.428 465.371 191.966C465.893 192.504 466.155 193.22 466.155 194.114V200H463.018V194.909C463.018 194.527 462.922 194.227 462.729 194.011C462.536 193.792 462.276 193.682 461.95 193.682C461.628 193.682 461.373 193.792 461.183 194.011C460.998 194.227 460.905 194.527 460.905 194.909V200H457.905V194.909C457.905 194.527 457.808 194.227 457.615 194.011C457.422 193.792 457.162 193.682 456.837 193.682C456.621 193.682 456.435 193.731 456.28 193.83C456.125 193.928 456.003 194.07 455.916 194.256C455.833 194.437 455.791 194.655 455.791 194.909V200H452.655Z" fill="#181818" fill-opacity="0.75"/>
<g filter="url(#filter18_d_129_793)">
<rect x="557" y="158" width="72" height="72" rx="8" fill="white" fill-opacity="0.75" shape-rendering="crispEdges"/>
</g>
<path d="M575.795 200V191.273H578.932V200H575.795ZM577.364 190.364C576.939 190.364 576.576 190.223 576.273 189.943C575.97 189.663 575.818 189.326 575.818 188.932C575.818 188.538 575.97 188.201 576.273 187.92C576.576 187.64 576.939 187.5 577.364 187.5C577.792 187.5 578.155 187.64 578.455 187.92C578.758 188.201 578.909 188.538 578.909 188.932C578.909 189.326 578.758 189.663 578.455 189.943C578.155 190.223 577.792 190.364 577.364 190.364ZM585.734 191.273V193.545H579.984V191.273H585.734ZM581.098 189.182H584.234V197.193C584.234 197.314 584.255 197.417 584.297 197.5C584.339 197.58 584.403 197.64 584.49 197.682C584.577 197.72 584.689 197.739 584.825 197.739C584.92 197.739 585.03 197.727 585.155 197.705C585.284 197.682 585.378 197.663 585.439 197.648L585.893 199.852C585.753 199.894 585.553 199.945 585.291 200.006C585.034 200.066 584.727 200.106 584.371 200.125C583.651 200.163 583.047 200.089 582.558 199.903C582.07 199.714 581.702 199.417 581.456 199.011C581.21 198.606 581.09 198.098 581.098 197.489V189.182ZM591.102 200.159C590.17 200.159 589.367 199.981 588.693 199.625C588.023 199.265 587.506 198.75 587.142 198.08C586.782 197.405 586.602 196.598 586.602 195.659C586.602 194.758 586.784 193.97 587.148 193.295C587.511 192.621 588.025 192.097 588.688 191.722C589.35 191.347 590.133 191.159 591.034 191.159C591.693 191.159 592.29 191.261 592.824 191.466C593.358 191.67 593.814 191.968 594.193 192.358C594.572 192.744 594.864 193.214 595.068 193.767C595.273 194.32 595.375 194.943 595.375 195.636V196.364H587.58V194.636H592.489C592.485 194.386 592.42 194.167 592.295 193.977C592.174 193.784 592.009 193.634 591.801 193.528C591.597 193.419 591.364 193.364 591.102 193.364C590.848 193.364 590.616 193.419 590.403 193.528C590.191 193.634 590.021 193.782 589.892 193.972C589.767 194.161 589.701 194.383 589.693 194.636V196.5C589.693 196.78 589.752 197.03 589.869 197.25C589.987 197.47 590.155 197.642 590.375 197.767C590.595 197.892 590.86 197.955 591.17 197.955C591.386 197.955 591.583 197.924 591.761 197.864C591.943 197.803 592.098 197.716 592.227 197.602C592.356 197.485 592.451 197.345 592.511 197.182H595.375C595.277 197.788 595.044 198.314 594.676 198.761C594.309 199.205 593.822 199.549 593.216 199.795C592.614 200.038 591.909 200.159 591.102 200.159ZM596.655 200V191.273H599.632V192.932H599.723C599.905 192.386 600.215 191.955 600.655 191.636C601.094 191.318 601.617 191.159 602.223 191.159C602.837 191.159 603.365 191.322 603.808 191.648C604.251 191.97 604.518 192.398 604.609 192.932H604.7C604.848 192.398 605.162 191.97 605.643 191.648C606.125 191.322 606.689 191.159 607.337 191.159C608.174 191.159 608.852 191.428 609.371 191.966C609.893 192.504 610.155 193.22 610.155 194.114V200H607.018V194.909C607.018 194.527 606.922 194.227 606.729 194.011C606.536 193.792 606.276 193.682 605.95 193.682C605.628 193.682 605.373 193.792 605.183 194.011C604.998 194.227 604.905 194.527 604.905 194.909V200H601.905V194.909C601.905 194.527 601.808 194.227 601.615 194.011C601.422 193.792 601.162 193.682 600.837 193.682C600.621 193.682 600.435 193.731 600.28 193.83C600.125 193.928 600.003 194.07 599.916 194.256C599.833 194.437 599.791 194.655 599.791 194.909V200H596.655Z" fill="#181818" fill-opacity="0.75"/>
<g filter="url(#filter19_d_129_793)">
<rect x="557" y="276" width="72" height="72" rx="8" fill="white" fill-opacity="0.75" shape-rendering="crispEdges"/>
</g>
<path d="M575.795 318V309.273H578.932V318H575.795ZM577.364 308.364C576.939 308.364 576.576 308.223 576.273 307.943C575.97 307.663 575.818 307.326 575.818 306.932C575.818 306.538 575.97 306.201 576.273 305.92C576.576 305.64 576.939 305.5 577.364 305.5C577.792 305.5 578.155 305.64 578.455 305.92C578.758 306.201 578.909 306.538 578.909 306.932C578.909 307.326 578.758 307.663 578.455 307.943C578.155 308.223 577.792 308.364 577.364 308.364ZM585.734 309.273V311.545H579.984V309.273H585.734ZM581.098 307.182H584.234V315.193C584.234 315.314 584.255 315.417 584.297 315.5C584.339 315.58 584.403 315.64 584.49 315.682C584.577 315.72 584.689 315.739 584.825 315.739C584.92 315.739 585.03 315.727 585.155 315.705C585.284 315.682 585.378 315.663 585.439 315.648L585.893 317.852C585.753 317.894 585.553 317.945 585.291 318.006C585.034 318.066 584.727 318.106 584.371 318.125C583.651 318.163 583.047 318.089 582.558 317.903C582.07 317.714 581.702 317.417 581.456 317.011C581.21 316.606 581.09 316.098 581.098 315.489V307.182ZM591.102 318.159C590.17 318.159 589.367 317.981 588.693 317.625C588.023 317.265 587.506 316.75 587.142 316.08C586.782 315.405 586.602 314.598 586.602 313.659C586.602 312.758 586.784 311.97 587.148 311.295C587.511 310.621 588.025 310.097 588.688 309.722C589.35 309.347 590.133 309.159 591.034 309.159C591.693 309.159 592.29 309.261 592.824 309.466C593.358 309.67 593.814 309.968 594.193 310.358C594.572 310.744 594.864 311.214 595.068 311.767C595.273 312.32 595.375 312.943 595.375 313.636V314.364H587.58V312.636H592.489C592.485 312.386 592.42 312.167 592.295 311.977C592.174 311.784 592.009 311.634 591.801 311.528C591.597 311.419 591.364 311.364 591.102 311.364C590.848 311.364 590.616 311.419 590.403 311.528C590.191 311.634 590.021 311.782 589.892 311.972C589.767 312.161 589.701 312.383 589.693 312.636V314.5C589.693 314.78 589.752 315.03 589.869 315.25C589.987 315.47 590.155 315.642 590.375 315.767C590.595 315.892 590.86 315.955 591.17 315.955C591.386 315.955 591.583 315.924 591.761 315.864C591.943 315.803 592.098 315.716 592.227 315.602C592.356 315.485 592.451 315.345 592.511 315.182H595.375C595.277 315.788 595.044 316.314 594.676 316.761C594.309 317.205 593.822 317.549 593.216 317.795C592.614 318.038 591.909 318.159 591.102 318.159ZM596.655 318V309.273H599.632V310.932H599.723C599.905 310.386 600.215 309.955 600.655 309.636C601.094 309.318 601.617 309.159 602.223 309.159C602.837 309.159 603.365 309.322 603.808 309.648C604.251 309.97 604.518 310.398 604.609 310.932H604.7C604.848 310.398 605.162 309.97 605.643 309.648C606.125 309.322 606.689 309.159 607.337 309.159C608.174 309.159 608.852 309.428 609.371 309.966C609.893 310.504 610.155 311.22 610.155 312.114V318H607.018V312.909C607.018 312.527 606.922 312.227 606.729 312.011C606.536 311.792 606.276 311.682 605.95 311.682C605.628 311.682 605.373 311.792 605.183 312.011C604.998 312.227 604.905 312.527 604.905 312.909V318H601.905V312.909C601.905 312.527 601.808 312.227 601.615 312.011C601.422 311.792 601.162 311.682 600.837 311.682C600.621 311.682 600.435 311.731 600.28 311.83C600.125 311.928 600.003 312.07 599.916 312.256C599.833 312.437 599.791 312.655 599.791 312.909V318H596.655Z" fill="#181818" fill-opacity="0.75"/>
<path d="M522.773 21.1136H519.886C519.871 20.9356 519.809 20.7822 519.699 20.6534C519.589 20.5246 519.447 20.4261 519.273 20.358C519.102 20.286 518.913 20.25 518.705 20.25C518.436 20.25 518.205 20.2992 518.011 20.3977C517.818 20.4962 517.723 20.6364 517.727 20.8182C517.723 20.947 517.778 21.0663 517.892 21.1761C518.009 21.286 518.235 21.3712 518.568 21.4318L520.341 21.75C521.235 21.9129 521.9 22.1875 522.335 22.5739C522.775 22.9564 522.996 23.4697 523 24.1136C522.996 24.7348 522.811 25.2746 522.443 25.733C522.08 26.1875 521.581 26.5398 520.949 26.7898C520.32 27.036 519.602 27.1591 518.795 27.1591C517.462 27.1591 516.419 26.8864 515.665 26.3409C514.915 25.7955 514.496 25.0758 514.409 24.1818H517.523C517.564 24.4583 517.701 24.6723 517.932 24.8239C518.167 24.9716 518.462 25.0455 518.818 25.0455C519.106 25.0455 519.343 24.9962 519.528 24.8977C519.718 24.7992 519.814 24.6591 519.818 24.4773C519.814 24.3106 519.731 24.178 519.568 24.0795C519.409 23.9811 519.159 23.9015 518.818 23.8409L517.273 23.5682C516.383 23.4129 515.716 23.1174 515.273 22.6818C514.83 22.2462 514.61 21.6856 514.614 21C514.61 20.3939 514.769 19.8807 515.091 19.4602C515.417 19.036 515.881 18.714 516.483 18.4943C517.089 18.2708 517.807 18.1591 518.636 18.1591C519.898 18.1591 520.892 18.4205 521.619 18.9432C522.35 19.4659 522.735 20.1894 522.773 21.1136ZM524.202 30.2727V18.2727H527.315V19.7955H527.384C527.497 19.5 527.664 19.2292 527.884 18.983C528.103 18.733 528.376 18.5341 528.702 18.3864C529.027 18.2348 529.406 18.1591 529.838 18.1591C530.414 18.1591 530.961 18.3125 531.48 18.6193C532.003 18.9261 532.427 19.4091 532.753 20.0682C533.082 20.7273 533.247 21.5833 533.247 22.6364C533.247 23.6439 533.09 24.4792 532.776 25.142C532.465 25.8049 532.048 26.2992 531.526 26.625C531.007 26.9508 530.437 27.1136 529.815 27.1136C529.406 27.1136 529.041 27.0473 528.719 26.9148C528.401 26.7784 528.128 26.5947 527.901 26.3636C527.677 26.1288 527.505 25.8636 527.384 25.5682H527.338V30.2727H524.202ZM527.27 22.6364C527.27 23.0606 527.325 23.428 527.435 23.7386C527.548 24.0455 527.707 24.2841 527.912 24.4545C528.12 24.6212 528.368 24.7045 528.656 24.7045C528.944 24.7045 529.188 24.6231 529.389 24.4602C529.594 24.2936 529.749 24.0568 529.855 23.75C529.965 23.4394 530.02 23.0682 530.02 22.6364C530.02 22.2045 529.965 21.8352 529.855 21.5284C529.749 21.2178 529.594 20.9811 529.389 20.8182C529.188 20.6515 528.944 20.5682 528.656 20.5682C528.368 20.5682 528.12 20.6515 527.912 20.8182C527.707 20.9811 527.548 21.2178 527.435 21.5284C527.325 21.8352 527.27 22.2045 527.27 22.6364ZM536.993 27.1364C536.436 27.1364 535.944 27.0455 535.516 26.8636C535.091 26.678 534.758 26.3977 534.516 26.0227C534.273 25.6477 534.152 25.1705 534.152 24.5909C534.152 24.1136 534.233 23.7064 534.396 23.3693C534.559 23.0284 534.786 22.75 535.078 22.5341C535.37 22.3182 535.709 22.1534 536.095 22.0398C536.485 21.9261 536.906 21.8523 537.357 21.8182C537.845 21.7803 538.237 21.7348 538.533 21.6818C538.832 21.625 539.048 21.5473 539.18 21.4489C539.313 21.3466 539.379 21.2121 539.379 21.0455V21.0227C539.379 20.7955 539.292 20.6212 539.118 20.5C538.944 20.3788 538.72 20.3182 538.447 20.3182C538.148 20.3182 537.904 20.3845 537.714 20.517C537.529 20.6458 537.417 20.8447 537.379 21.1136H534.493C534.531 20.5833 534.699 20.0947 534.999 19.6477C535.302 19.197 535.743 18.8371 536.322 18.5682C536.902 18.2955 537.625 18.1591 538.493 18.1591C539.118 18.1591 539.679 18.233 540.175 18.3807C540.671 18.5246 541.093 18.7273 541.442 18.9886C541.79 19.2462 542.055 19.5492 542.237 19.8977C542.423 20.2424 542.516 20.6174 542.516 21.0227V27H539.584V25.7727H539.516C539.341 26.0985 539.129 26.3617 538.879 26.5625C538.633 26.7633 538.351 26.9091 538.033 27C537.718 27.0909 537.372 27.1364 536.993 27.1364ZM538.016 25.1591C538.254 25.1591 538.478 25.1098 538.686 25.0114C538.898 24.9129 539.071 24.7708 539.203 24.5852C539.336 24.3996 539.402 24.1742 539.402 23.9091V23.1818C539.319 23.2159 539.23 23.2481 539.135 23.2784C539.044 23.3087 538.946 23.3371 538.839 23.3636C538.737 23.3902 538.627 23.4148 538.51 23.4375C538.396 23.4602 538.277 23.4811 538.152 23.5C537.91 23.5379 537.711 23.6004 537.555 23.6875C537.404 23.7708 537.29 23.875 537.214 24C537.143 24.1212 537.107 24.2576 537.107 24.4091C537.107 24.6515 537.192 24.8371 537.362 24.9659C537.533 25.0947 537.75 25.1591 538.016 25.1591ZM548.219 27.1591C547.272 27.1591 546.461 26.9716 545.787 26.5966C545.113 26.2178 544.596 25.6913 544.236 25.017C543.876 24.339 543.696 23.553 543.696 22.6591C543.696 21.7652 543.876 20.9811 544.236 20.3068C544.596 19.6288 545.113 19.1023 545.787 18.7273C546.461 18.3485 547.272 18.1591 548.219 18.1591C549.075 18.1591 549.815 18.3144 550.44 18.625C551.069 18.9318 551.556 19.3674 551.901 19.9318C552.245 20.4924 552.42 21.1515 552.423 21.9091H549.514C549.473 21.4508 549.34 21.1023 549.116 20.8636C548.897 20.6212 548.613 20.5 548.264 20.5C547.991 20.5 547.753 20.5795 547.548 20.7386C547.344 20.8939 547.185 21.1307 547.071 21.4489C546.957 21.7633 546.901 22.1591 546.901 22.6364C546.901 23.1136 546.957 23.5114 547.071 23.8295C547.185 24.1439 547.344 24.3807 547.548 24.5398C547.753 24.6951 547.991 24.7727 548.264 24.7727C548.495 24.7727 548.7 24.7197 548.878 24.6136C549.056 24.5038 549.2 24.3447 549.31 24.1364C549.423 23.9242 549.491 23.6667 549.514 23.3636H552.423C552.412 24.1326 552.236 24.803 551.895 25.375C551.554 25.9432 551.071 26.3826 550.446 26.6932C549.825 27.0038 549.082 27.1591 548.219 27.1591ZM557.899 27.1591C556.967 27.1591 556.164 26.9811 555.49 26.625C554.82 26.2652 554.303 25.75 553.939 25.0795C553.579 24.4053 553.399 23.5985 553.399 22.6591C553.399 21.7576 553.581 20.9697 553.945 20.2955C554.308 19.6212 554.821 19.0966 555.484 18.7216C556.147 18.3466 556.929 18.1591 557.831 18.1591C558.49 18.1591 559.087 18.2614 559.621 18.4659C560.155 18.6705 560.611 18.9678 560.99 19.358C561.369 19.7443 561.661 20.214 561.865 20.767C562.07 21.3201 562.172 21.9432 562.172 22.6364V23.3636H554.376V21.6364H559.286C559.282 21.3864 559.217 21.1667 559.092 20.9773C558.971 20.7841 558.806 20.6345 558.598 20.5284C558.393 20.4186 558.161 20.3636 557.899 20.3636C557.645 20.3636 557.412 20.4186 557.2 20.5284C556.988 20.6345 556.818 20.7822 556.689 20.9716C556.564 21.161 556.498 21.3826 556.49 21.6364V23.5C556.49 23.7803 556.549 24.0303 556.666 24.25C556.784 24.4697 556.952 24.642 557.172 24.767C557.392 24.892 557.657 24.9545 557.967 24.9545C558.183 24.9545 558.38 24.9242 558.558 24.8636C558.74 24.803 558.895 24.7159 559.024 24.6023C559.153 24.4848 559.248 24.3447 559.308 24.1818H562.172C562.073 24.7879 561.84 25.3144 561.473 25.7614C561.106 26.2045 560.619 26.5492 560.013 26.7955C559.411 27.0379 558.706 27.1591 557.899 27.1591ZM569.179 21.1818V23.5455H563.724V21.1818H569.179ZM571 27V15.3636H574.136V19.7955H574.182C574.295 19.5 574.462 19.2292 574.682 18.983C574.902 18.733 575.174 18.5341 575.5 18.3864C575.826 18.2348 576.205 18.1591 576.636 18.1591C577.212 18.1591 577.759 18.3125 578.278 18.6193C578.801 18.9261 579.225 19.4091 579.551 20.0682C579.881 20.7273 580.045 21.5833 580.045 22.6364C580.045 23.6439 579.888 24.4792 579.574 25.142C579.263 25.8049 578.847 26.2992 578.324 26.625C577.805 26.9508 577.235 27.1136 576.614 27.1136C576.205 27.1136 575.839 27.0473 575.517 26.9148C575.199 26.7784 574.926 26.5947 574.699 26.3636C574.475 26.1288 574.303 25.8636 574.182 25.5682H574.114V27H571ZM574.068 22.6364C574.068 23.0606 574.123 23.428 574.233 23.7386C574.347 24.0455 574.506 24.2841 574.71 24.4545C574.919 24.6212 575.167 24.7045 575.455 24.7045C575.742 24.7045 575.987 24.6231 576.188 24.4602C576.392 24.2936 576.547 24.0568 576.653 23.75C576.763 23.4394 576.818 23.0682 576.818 22.6364C576.818 22.2045 576.763 21.8352 576.653 21.5284C576.547 21.2178 576.392 20.9811 576.188 20.8182C575.987 20.6515 575.742 20.5682 575.455 20.5682C575.167 20.5682 574.919 20.6515 574.71 20.8182C574.506 20.9811 574.347 21.2178 574.233 21.5284C574.123 21.8352 574.068 22.2045 574.068 22.6364ZM585.54 27.1591C584.608 27.1591 583.805 26.9811 583.131 26.625C582.46 26.2652 581.943 25.75 581.58 25.0795C581.22 24.4053 581.04 23.5985 581.04 22.6591C581.04 21.7576 581.222 20.9697 581.585 20.2955C581.949 19.6212 582.462 19.0966 583.125 18.7216C583.788 18.3466 584.57 18.1591 585.472 18.1591C586.131 18.1591 586.727 18.2614 587.261 18.4659C587.795 18.6705 588.252 18.9678 588.631 19.358C589.009 19.7443 589.301 20.214 589.506 20.767C589.71 21.3201 589.812 21.9432 589.812 22.6364V23.3636H582.017V21.6364H586.926C586.922 21.3864 586.858 21.1667 586.733 20.9773C586.612 20.7841 586.447 20.6345 586.239 20.5284C586.034 20.4186 585.801 20.3636 585.54 20.3636C585.286 20.3636 585.053 20.4186 584.841 20.5284C584.629 20.6345 584.458 20.7822 584.33 20.9716C584.205 21.161 584.138 21.3826 584.131 21.6364V23.5C584.131 23.7803 584.189 24.0303 584.307 24.25C584.424 24.4697 584.593 24.642 584.812 24.767C585.032 24.892 585.297 24.9545 585.608 24.9545C585.824 24.9545 586.021 24.9242 586.199 24.8636C586.381 24.803 586.536 24.7159 586.665 24.6023C586.794 24.4848 586.888 24.3447 586.949 24.1818H589.812C589.714 24.7879 589.481 25.3144 589.114 25.7614C588.746 26.2045 588.259 26.5492 587.653 26.7955C587.051 27.0379 586.347 27.1591 585.54 27.1591ZM596.297 18.2727V20.5455H590.547V18.2727H596.297ZM591.661 16.1818H594.797V24.1932C594.797 24.3144 594.818 24.4167 594.859 24.5C594.901 24.5795 594.965 24.6402 595.053 24.6818C595.14 24.7197 595.251 24.7386 595.388 24.7386C595.482 24.7386 595.592 24.7273 595.717 24.7045C595.846 24.6818 595.941 24.6629 596.001 24.6477L596.456 26.8523C596.316 26.8939 596.115 26.9451 595.854 27.0057C595.596 27.0663 595.289 27.1061 594.933 27.125C594.214 27.1629 593.609 27.089 593.121 26.9034C592.632 26.714 592.265 26.4167 592.018 26.0114C591.772 25.6061 591.653 25.0985 591.661 24.4886V16.1818ZM599.122 27L596.94 18.2727H600.077L601.077 23.5909H601.145L602.259 18.2727H605.304L606.463 23.5455H606.531L607.486 18.2727H610.622L608.44 27H605.054L603.827 22.3182H603.736L602.509 27H599.122ZM615.602 27.1591C614.67 27.1591 613.867 26.9811 613.193 26.625C612.523 26.2652 612.006 25.75 611.642 25.0795C611.282 24.4053 611.102 23.5985 611.102 22.6591C611.102 21.7576 611.284 20.9697 611.648 20.2955C612.011 19.6212 612.525 19.0966 613.188 18.7216C613.85 18.3466 614.633 18.1591 615.534 18.1591C616.193 18.1591 616.79 18.2614 617.324 18.4659C617.858 18.6705 618.314 18.9678 618.693 19.358C619.072 19.7443 619.364 20.214 619.568 20.767C619.773 21.3201 619.875 21.9432 619.875 22.6364V23.3636H612.08V21.6364H616.989C616.985 21.3864 616.92 21.1667 616.795 20.9773C616.674 20.7841 616.509 20.6345 616.301 20.5284C616.097 20.4186 615.864 20.3636 615.602 20.3636C615.348 20.3636 615.116 20.4186 614.903 20.5284C614.691 20.6345 614.521 20.7822 614.392 20.9716C614.267 21.161 614.201 21.3826 614.193 21.6364V23.5C614.193 23.7803 614.252 24.0303 614.369 24.25C614.487 24.4697 614.655 24.642 614.875 24.767C615.095 24.892 615.36 24.9545 615.67 24.9545C615.886 24.9545 616.083 24.9242 616.261 24.8636C616.443 24.803 616.598 24.7159 616.727 24.6023C616.856 24.4848 616.951 24.3447 617.011 24.1818H619.875C619.777 24.7879 619.544 25.3144 619.176 25.7614C618.809 26.2045 618.322 26.5492 617.716 26.7955C617.114 27.0379 616.409 27.1591 615.602 27.1591ZM625.337 27.1591C624.405 27.1591 623.602 26.9811 622.928 26.625C622.257 26.2652 621.74 25.75 621.376 25.0795C621.017 24.4053 620.837 23.5985 620.837 22.6591C620.837 21.7576 621.018 20.9697 621.382 20.2955C621.746 19.6212 622.259 19.0966 622.922 18.7216C623.585 18.3466 624.367 18.1591 625.268 18.1591C625.928 18.1591 626.524 18.2614 627.058 18.4659C627.592 18.6705 628.049 18.9678 628.428 19.358C628.806 19.7443 629.098 20.214 629.303 20.767C629.507 21.3201 629.609 21.9432 629.609 22.6364V23.3636H621.814V21.6364H626.723C626.719 21.3864 626.655 21.1667 626.53 20.9773C626.409 20.7841 626.244 20.6345 626.036 20.5284C625.831 20.4186 625.598 20.3636 625.337 20.3636C625.083 20.3636 624.85 20.4186 624.638 20.5284C624.426 20.6345 624.255 20.7822 624.126 20.9716C624.001 21.161 623.935 21.3826 623.928 21.6364V23.5C623.928 23.7803 623.986 24.0303 624.104 24.25C624.221 24.4697 624.39 24.642 624.609 24.767C624.829 24.892 625.094 24.9545 625.405 24.9545C625.621 24.9545 625.818 24.9242 625.996 24.8636C626.178 24.803 626.333 24.7159 626.462 24.6023C626.59 24.4848 626.685 24.3447 626.746 24.1818H629.609C629.511 24.7879 629.278 25.3144 628.911 25.7614C628.543 26.2045 628.056 26.5492 627.45 26.7955C626.848 27.0379 626.143 27.1591 625.337 27.1591ZM634.026 22.0909V27H630.889V18.2727H633.866V19.9318H633.957C634.147 19.3788 634.48 18.9451 634.957 18.6307C635.438 18.3163 635.999 18.1591 636.639 18.1591C637.257 18.1591 637.793 18.3011 638.247 18.5852C638.705 18.8655 639.06 19.2519 639.31 19.7443C639.563 20.2367 639.688 20.7992 639.685 21.4318V27H636.548V22.0909C636.552 21.6591 636.442 21.3201 636.219 21.0739C635.999 20.8277 635.692 20.7045 635.298 20.7045C635.041 20.7045 634.815 20.7614 634.622 20.875C634.433 20.9848 634.287 21.1439 634.185 21.3523C634.082 21.5568 634.029 21.803 634.026 22.0909Z" fill="#181818" fill-opacity="0.75"/>
<defs>
<filter id="filter0_d_129_793" x="0" y="0" width="376" height="376" filterUnits="userSpaceOnUse" color-interpolation-filters="sRGB">
<feFlood flood-opacity="0" result="BackgroundImageFix"/>
<feColorMatrix in="SourceAlpha" type="matrix" values="0 0 0 0 0 0 0 0 0 0 0 0 0 0 0 0 0 0 127 0" result="hardAlpha"/>
<feOffset dy="4"/>
<feGaussianBlur stdDeviation="4"/>
<feComposite in2="hardAlpha" operator="out"/>
<feColorMatrix type="matrix" values="0 0 0 0 0.129412 0 0 0 0 0.447059 0 0 0 0 1 0 0 0 0.25 0"/>
<feBlend mode="normal" in2="BackgroundImageFix" result="effect1_dropShadow_129_793"/>
<feBlend mode="normal" in="SourceGraphic" in2="effect1_dropShadow_129_793" result="shape"/>
</filter>
<filter id="filter1_d_129_793" x="88" y="226" width="88" height="88" filterUnits="userSpaceOnUse" color-interpolation-filters="sRGB">
<feFlood flood-opacity="0" result="BackgroundImageFix"/>
<feColorMatrix in="SourceAlpha" type="matrix" values="0 0 0 0 0 0 0 0 0 0 0 0 0 0 0 0 0 0 127 0" result="hardAlpha"/>
<feOffset dy="4"/>
<feGaussianBlur stdDeviation="4"/>
<feComposite in2="hardAlpha" operator="out"/>
<feColorMatrix type="matrix" values="0 0 0 0 1 0 0 0 0 1 0 0 0 0 1 0 0 0 0.25 0"/>
<feBlend mode="normal" in2="BackgroundImageFix" result="effect1_dropShadow_129_793"/>
<feBlend mode="normal" in="SourceGraphic" in2="effect1_dropShadow_129_793" result="shape"/>
</filter>
<filter id="filter2_d_129_793" x="88" y="82" width="88" height="88" filterUnits="userSpaceOnUse" color-interpolation-filters="sRGB">
<feFlood flood-opacity="0" result="BackgroundImageFix"/>
<feColorMatrix in="SourceAlpha" type="matrix" values="0 0 0 0 0 0 0 0 0 0 0 0 0 0 0 0 0 0 127 0" result="hardAlpha"/>
<feOffset dy="4"/>
<feGaussianBlur stdDeviation="4"/>
<feComposite in2="hardAlpha" operator="out"/>
<feColorMatrix type="matrix" values="0 0 0 0 1 0 0 0 0 1 0 0 0 0 1 0 0 0 0.25 0"/>
<feBlend mode="normal" in2="BackgroundImageFix" result="effect1_dropShadow_129_793"/>
<feBlend mode="normal" in="SourceGraphic" in2="effect1_dropShadow_129_793" result="shape"/>
</filter>
<filter id="filter3_d_129_793" x="16" y="226" width="88" height="88" filterUnits="userSpaceOnUse" color-interpolation-filters="sRGB">
<feFlood flood-opacity="0" result="BackgroundImageFix"/>
<feColorMatrix in="SourceAlpha" type="matrix" values="0 0 0 0 0 0 0 0 0 0 0 0 0 0 0 0 0 0 127 0" result="hardAlpha"/>
<feOffset dy="4"/>
<feGaussianBlur stdDeviation="4"/>
<feComposite in2="hardAlpha" operator="out"/>
<feColorMatrix type="matrix" values="0 0 0 0 1 0 0 0 0 1 0 0 0 0 1 0 0 0 0.25 0"/>
<feBlend mode="normal" in2="BackgroundImageFix" result="effect1_dropShadow_129_793"/>
<feBlend mode="normal" in="SourceGraphic" in2="effect1_dropShadow_129_793" result="shape"/>
</filter>
<filter id="filter4_d_129_793" x="16" y="82" width="88" height="88" filterUnits="userSpaceOnUse" color-interpolation-filters="sRGB">
<feFlood flood-opacity="0" result="BackgroundImageFix"/>
<feColorMatrix in="SourceAlpha" type="matrix" values="0 0 0 0 0 0 0 0 0 0 0 0 0 0 0 0 0 0 127 0" result="hardAlpha"/>
<feOffset dy="4"/>
<feGaussianBlur stdDeviation="4"/>
<feComposite in2="hardAlpha" operator="out"/>
<feColorMatrix type="matrix" values="0 0 0 0 1 0 0 0 0 1 0 0 0 0 1 0 0 0 0.25 0"/>
<feBlend mode="normal" in2="BackgroundImageFix" result="effect1_dropShadow_129_793"/>
<feBlend mode="normal" in="SourceGraphic" in2="effect1_dropShadow_129_793" result="shape"/>
</filter>
<filter id="filter5_d_129_793" x="160" y="82" width="88" height="88" filterUnits="userSpaceOnUse" color-interpolation-filters="sRGB">
<feFlood flood-opacity="0" result="BackgroundImageFix"/>
<feColorMatrix in="SourceAlpha" type="matrix" values="0 0 0 0 0 0 0 0 0 0 0 0 0 0 0 0 0 0 127 0" result="hardAlpha"/>
<feOffset dy="4"/>
<feGaussianBlur stdDeviation="4"/>
<feComposite in2="hardAlpha" operator="out"/>
<feColorMatrix type="matrix" values="0 0 0 0 1 0 0 0 0 1 0 0 0 0 1 0 0 0 0.25 0"/>
<feBlend mode="normal" in2="BackgroundImageFix" result="effect1_dropShadow_129_793"/>
<feBlend mode="normal" in="SourceGraphic" in2="effect1_dropShadow_129_793" result="shape"/>
</filter>
<filter id="filter6_d_129_793" x="88" y="154" width="88" height="88" filterUnits="userSpaceOnUse" color-interpolation-filters="sRGB">
<feFlood flood-opacity="0" result="BackgroundImageFix"/>
<feColorMatrix in="SourceAlpha" type="matrix" values="0 0 0 0 0 0 0 0 0 0 0 0 0 0 0 0 0 0 127 0" result="hardAlpha"/>
<feOffset dy="4"/>
<feGaussianBlur stdDeviation="4"/>
<feComposite in2="hardAlpha" operator="out"/>
<feColorMatrix type="matrix" values="0 0 0 0 1 0 0 0 0 1 0 0 0 0 1 0 0 0 0.25 0"/>
<feBlend mode="normal" in2="BackgroundImageFix" result="effect1_dropShadow_129_793"/>
<feBlend mode="normal" in="SourceGraphic" in2="effect1_dropShadow_129_793" result="shape"/>
</filter>
<filter id="filter7_d_129_793" x="16" y="154" width="88" height="88" filterUnits="userSpaceOnUse" color-interpolation-filters="sRGB">
<feFlood flood-opacity="0" result="BackgroundImageFix"/>
<feColorMatrix in="SourceAlpha" type="matrix" values="0 0 0 0 0 0 0 0 0 0 0 0 0 0 0 0 0 0 127 0" result="hardAlpha"/>
<feOffset dy="4"/>
<feGaussianBlur stdDeviation="4"/>
<feComposite in2="hardAlpha" operator="out"/>
<feColorMatrix type="matrix" values="0 0 0 0 1 0 0 0 0 1 0 0 0 0 1 0 0 0 0.25 0"/>
<feBlend mode="normal" in2="BackgroundImageFix" result="effect1_dropShadow_129_793"/>
<feBlend mode="normal" in="SourceGraphic" in2="effect1_dropShadow_129_793" result="shape"/>
</filter>
<filter id="filter8_d_129_793" x="160" y="154" width="88" height="88" filterUnits="userSpaceOnUse" color-interpolation-filters="sRGB">
<feFlood flood-opacity="0" result="BackgroundImageFix"/>
<feColorMatrix in="SourceAlpha" type="matrix" values="0 0 0 0 0 0 0 0 0 0 0 0 0 0 0 0 0 0 127 0" result="hardAlpha"/>
<feOffset dy="4"/>
<feGaussianBlur stdDeviation="4"/>
<feComposite in2="hardAlpha" operator="out"/>
<feColorMatrix type="matrix" values="0 0 0 0 1 0 0 0 0 1 0 0 0 0 1 0 0 0 0.25 0"/>
<feBlend mode="normal" in2="BackgroundImageFix" result="effect1_dropShadow_129_793"/>
<feBlend mode="normal" in="SourceGraphic" in2="effect1_dropShadow_129_793" result="shape"/>
</filter>
<filter id="filter9_d_129_793" x="160" y="226" width="88" height="88" filterUnits="userSpaceOnUse" color-interpolation-filters="sRGB">
<feFlood flood-opacity="0" result="BackgroundImageFix"/>
<feColorMatrix in="SourceAlpha" type="matrix" values="0 0 0 0 0 0 0 0 0 0 0 0 0 0 0 0 0 0 127 0" result="hardAlpha"/>
<feOffset dy="4"/>
<feGaussianBlur stdDeviation="4"/>
<feComposite in2="hardAlpha" operator="out"/>
<feColorMatrix type="matrix" values="0 0 0 0 1 0 0 0 0 1 0 0 0 0 1 0 0 0 0.25 0"/>
<feBlend mode="normal" in2="BackgroundImageFix" result="effect1_dropShadow_129_793"/>
<feBlend mode="normal" in="SourceGraphic" in2="effect1_dropShadow_129_793" result="shape"/>
</filter>
<filter id="filter10_d_129_793" x="389" y="0" width="376" height="376" filterUnits="userSpaceOnUse" color-interpolation-filters="sRGB">
<feFlood flood-opacity="0" result="BackgroundImageFix"/>
<feColorMatrix in="SourceAlpha" type="matrix" values="0 0 0 0 0 0 0 0 0 0 0 0 0 0 0 0 0 0 127 0" result="hardAlpha"/>
<feOffset dy="4"/>
<feGaussianBlur stdDeviation="4"/>
<feComposite in2="hardAlpha" operator="out"/>
<feColorMatrix type="matrix" values="0 0 0 0 0.129412 0 0 0 0 0.447059 0 0 0 0 1 0 0 0 0.25 0"/>
<feBlend mode="normal" in2="BackgroundImageFix" result="effect1_dropShadow_129_793"/>
<feBlend mode="normal" in="SourceGraphic" in2="effect1_dropShadow_129_793" result="shape"/>
</filter>
<filter id="filter11_d_129_793" x="477" y="272" width="88" height="88" filterUnits="userSpaceOnUse" color-interpolation-filters="sRGB">
<feFlood flood-opacity="0" result="BackgroundImageFix"/>
<feColorMatrix in="SourceAlpha" type="matrix" values="0 0 0 0 0 0 0 0 0 0 0 0 0 0 0 0 0 0 127 0" result="hardAlpha"/>
<feOffset dy="4"/>
<feGaussianBlur stdDeviation="4"/>
<feComposite in2="hardAlpha" operator="out"/>
<feColorMatrix type="matrix" values="0 0 0 0 1 0 0 0 0 1 0 0 0 0 1 0 0 0 0.25 0"/>
<feBlend mode="normal" in2="BackgroundImageFix" result="effect1_dropShadow_129_793"/>
<feBlend mode="normal" in="SourceGraphic" in2="effect1_dropShadow_129_793" result="shape"/>
</filter>
<filter id="filter12_d_129_793" x="477" y="35" width="88" height="88" filterUnits="userSpaceOnUse" color-interpolation-filters="sRGB">
<feFlood flood-opacity="0" result="BackgroundImageFix"/>
<feColorMatrix in="SourceAlpha" type="matrix" values="0 0 0 0 0 0 0 0 0 0 0 0 0 0 0 0 0 0 127 0" result="hardAlpha"/>
<feOffset dy="4"/>
<feGaussianBlur stdDeviation="4"/>
<feComposite in2="hardAlpha" operator="out"/>
<feColorMatrix type="matrix" values="0 0 0 0 1 0 0 0 0 1 0 0 0 0 1 0 0 0 0.25 0"/>
<feBlend mode="normal" in2="BackgroundImageFix" result="effect1_dropShadow_129_793"/>
<feBlend mode="normal" in="SourceGraphic" in2="effect1_dropShadow_129_793" result="shape"/>
</filter>
<filter id="filter13_d_129_793" x="405" y="272" width="88" height="88" filterUnits="userSpaceOnUse" color-interpolation-filters="sRGB">
<feFlood flood-opacity="0" result="BackgroundImageFix"/>
<feColorMatrix in="SourceAlpha" type="matrix" values="0 0 0 0 0 0 0 0 0 0 0 0 0 0 0 0 0 0 127 0" result="hardAlpha"/>
<feOffset dy="4"/>
<feGaussianBlur stdDeviation="4"/>
<feComposite in2="hardAlpha" operator="out"/>
<feColorMatrix type="matrix" values="0 0 0 0 1 0 0 0 0 1 0 0 0 0 1 0 0 0 0.25 0"/>
<feBlend mode="normal" in2="BackgroundImageFix" result="effect1_dropShadow_129_793"/>
<feBlend mode="normal" in="SourceGraphic" in2="effect1_dropShadow_129_793" result="shape"/>
</filter>
<filter id="filter14_d_129_793" x="405" y="35" width="88" height="88" filterUnits="userSpaceOnUse" color-interpolation-filters="sRGB">
<feFlood flood-opacity="0" result="BackgroundImageFix"/>
<feColorMatrix in="SourceAlpha" type="matrix" values="0 0 0 0 0 0 0 0 0 0 0 0 0 0 0 0 0 0 127 0" result="hardAlpha"/>
<feOffset dy="4"/>
<feGaussianBlur stdDeviation="4"/>
<feComposite in2="hardAlpha" operator="out"/>
<feColorMatrix type="matrix" values="0 0 0 0 1 0 0 0 0 1 0 0 0 0 1 0 0 0 0.25 0"/>
<feBlend mode="normal" in2="BackgroundImageFix" result="effect1_dropShadow_129_793"/>
<feBlend mode="normal" in="SourceGraphic" in2="effect1_dropShadow_129_793" result="shape"/>
</filter>
<filter id="filter15_d_129_793" x="549" y="35" width="88" height="88" filterUnits="userSpaceOnUse" color-interpolation-filters="sRGB">
<feFlood flood-opacity="0" result="BackgroundImageFix"/>
<feColorMatrix in="SourceAlpha" type="matrix" values="0 0 0 0 0 0 0 0 0 0 0 0 0 0 0 0 0 0 127 0" result="hardAlpha"/>
<feOffset dy="4"/>
<feGaussianBlur stdDeviation="4"/>
<feComposite in2="hardAlpha" operator="out"/>
<feColorMatrix type="matrix" values="0 0 0 0 1 0 0 0 0 1 0 0 0 0 1 0 0 0 0.25 0"/>
<feBlend mode="normal" in2="BackgroundImageFix" result="effect1_dropShadow_129_793"/>
<feBlend mode="normal" in="SourceGraphic" in2="effect1_dropShadow_129_793" result="shape"/>
</filter>
<filter id="filter16_d_129_793" x="477" y="154" width="88" height="88" filterUnits="userSpaceOnUse" color-interpolation-filters="sRGB">
<feFlood flood-opacity="0" result="BackgroundImageFix"/>
<feColorMatrix in="SourceAlpha" type="matrix" values="0 0 0 0 0 0 0 0 0 0 0 0 0 0 0 0 0 0 127 0" result="hardAlpha"/>
<feOffset dy="4"/>
<feGaussianBlur stdDeviation="4"/>
<feComposite in2="hardAlpha" operator="out"/>
<feColorMatrix type="matrix" values="0 0 0 0 1 0 0 0 0 1 0 0 0 0 1 0 0 0 0.25 0"/>
<feBlend mode="normal" in2="BackgroundImageFix" result="effect1_dropShadow_129_793"/>
<feBlend mode="normal" in="SourceGraphic" in2="effect1_dropShadow_129_793" result="shape"/>
</filter>
<filter id="filter17_d_129_793" x="405" y="154" width="88" height="88" filterUnits="userSpaceOnUse" color-interpolation-filters="sRGB">
<feFlood flood-opacity="0" result="BackgroundImageFix"/>
<feColorMatrix in="SourceAlpha" type="matrix" values="0 0 0 0 0 0 0 0 0 0 0 0 0 0 0 0 0 0 127 0" result="hardAlpha"/>
<feOffset dy="4"/>
<feGaussianBlur stdDeviation="4"/>
<feComposite in2="hardAlpha" operator="out"/>
<feColorMatrix type="matrix" values="0 0 0 0 1 0 0 0 0 1 0 0 0 0 1 0 0 0 0.25 0"/>
<feBlend mode="normal" in2="BackgroundImageFix" result="effect1_dropShadow_129_793"/>
<feBlend mode="normal" in="SourceGraphic" in2="effect1_dropShadow_129_793" result="shape"/>
</filter>
<filter id="filter18_d_129_793" x="549" y="154" width="88" height="88" filterUnits="userSpaceOnUse" color-interpolation-filters="sRGB">
<feFlood flood-opacity="0" result="BackgroundImageFix"/>
<feColorMatrix in="SourceAlpha" type="matrix" values="0 0 0 0 0 0 0 0 0 0 0 0 0 0 0 0 0 0 127 0" result="hardAlpha"/>
<feOffset dy="4"/>
<feGaussianBlur stdDeviation="4"/>
<feComposite in2="hardAlpha" operator="out"/>
<feColorMatrix type="matrix" values="0 0 0 0 1 0 0 0 0 1 0 0 0 0 1 0 0 0 0.25 0"/>
<feBlend mode="normal" in2="BackgroundImageFix" result="effect1_dropShadow_129_793"/>
<feBlend mode="normal" in="SourceGraphic" in2="effect1_dropShadow_129_793" result="shape"/>
</filter>
<filter id="filter19_d_129_793" x="549" y="272" width="88" height="88" filterUnits="userSpaceOnUse" color-interpolation-filters="sRGB">
<feFlood flood-opacity="0" result="BackgroundImageFix"/>
<feColorMatrix in="SourceAlpha" type="matrix" values="0 0 0 0 0 0 0 0 0 0 0 0 0 0 0 0 0 0 127 0" result="hardAlpha"/>
<feOffset dy="4"/>
<feGaussianBlur stdDeviation="4"/>
<feComposite in2="hardAlpha" operator="out"/>
<feColorMatrix type="matrix" values="0 0 0 0 1 0 0 0 0 1 0 0 0 0 1 0 0 0 0.25 0"/>
<feBlend mode="normal" in2="BackgroundImageFix" result="effect1_dropShadow_129_793"/>
<feBlend mode="normal" in="SourceGraphic" in2="effect1_dropShadow_129_793" result="shape"/>
</filter>
</defs>
</svg>
