<svg width="765" height="376" viewBox="0 0 765 376" fill="none" xmlns="http://www.w3.org/2000/svg">
<g filter="url(#filter0_d_129_793)">
<rect x="8" y="4" width="360" height="360" rx="8" fill="#2172FF" fill-opacity="0.8" shape-rendering="crispEdges"/>
</g>
<g filter="url(#filter1_d_129_793)">
<rect x="96" y="183" width="72" height="72" rx="8" fill="white" fill-opacity="0.75" shape-rendering="crispEdges"/>
</g>
<path d="M114.795 225V216.273H117.932V225H114.795ZM116.364 215.364C115.939 215.364 115.576 215.223 115.273 214.943C114.97 214.663 114.818 214.326 114.818 213.932C114.818 213.538 114.97 213.201 115.273 212.92C115.576 212.64 115.939 212.5 116.364 212.5C116.792 212.5 117.155 212.64 117.455 212.92C117.758 213.201 117.909 213.538 117.909 213.932C117.909 214.326 117.758 214.663 117.455 214.943C117.155 215.223 116.792 215.364 116.364 215.364ZM124.734 216.273V218.545H118.984V216.273H124.734ZM120.098 214.182H123.234V222.193C123.234 222.314 123.255 222.417 123.297 222.5C123.339 222.58 123.403 222.64 123.49 222.682C123.577 222.72 123.689 222.739 123.825 222.739C123.92 222.739 124.03 222.727 124.155 222.705C124.284 222.682 124.378 222.663 124.439 222.648L124.893 224.852C124.753 224.894 124.553 224.945 124.291 225.006C124.034 225.066 123.727 225.106 123.371 225.125C122.651 225.163 122.047 225.089 121.558 224.903C121.07 224.714 120.702 224.417 120.456 224.011C120.21 223.606 120.09 223.098 120.098 222.489V214.182ZM130.102 225.159C129.17 225.159 128.367 224.981 127.693 224.625C127.023 224.265 126.506 223.75 126.142 223.08C125.782 222.405 125.602 221.598 125.602 220.659C125.602 219.758 125.784 218.97 126.148 218.295C126.511 217.621 127.025 217.097 127.688 216.722C128.35 216.347 129.133 216.159 130.034 216.159C130.693 216.159 131.29 216.261 131.824 216.466C132.358 216.67 132.814 216.968 133.193 217.358C133.572 217.744 133.864 218.214 134.068 218.767C134.273 219.32 134.375 219.943 134.375 220.636V221.364H126.58V219.636H131.489C131.485 219.386 131.42 219.167 131.295 218.977C131.174 218.784 131.009 218.634 130.801 218.528C130.597 218.419 130.364 218.364 130.102 218.364C129.848 218.364 129.616 218.419 129.403 218.528C129.191 218.634 129.021 218.782 128.892 218.972C128.767 219.161 128.701 219.383 128.693 219.636V221.5C128.693 221.78 128.752 222.03 128.869 222.25C128.987 222.47 129.155 222.642 129.375 222.767C129.595 222.892 129.86 222.955 130.17 222.955C130.386 222.955 130.583 222.924 130.761 222.864C130.943 222.803 131.098 222.716 131.227 222.602C131.356 222.485 131.451 222.345 131.511 222.182H134.375C134.277 222.788 134.044 223.314 133.676 223.761C133.309 224.205 132.822 224.549 132.216 224.795C131.614 225.038 130.909 225.159 130.102 225.159ZM135.655 225V216.273H138.632V217.932H138.723C138.905 217.386 139.215 216.955 139.655 216.636C140.094 216.318 140.617 216.159 141.223 216.159C141.837 216.159 142.365 216.322 142.808 216.648C143.251 216.97 143.518 217.398 143.609 217.932H143.7C143.848 217.398 144.162 216.97 144.643 216.648C145.125 216.322 145.689 216.159 146.337 216.159C147.174 216.159 147.852 216.428 148.371 216.966C148.893 217.504 149.155 218.22 149.155 219.114V225H146.018V219.909C146.018 219.527 145.922 219.227 145.729 219.011C145.536 218.792 145.276 218.682 144.95 218.682C144.628 218.682 144.373 218.792 144.183 219.011C143.998 219.227 143.905 219.527 143.905 219.909V225H140.905V219.909C140.905 219.527 140.808 219.227 140.615 219.011C140.422 218.792 140.162 218.682 139.837 218.682C139.621 218.682 139.435 218.731 139.28 218.83C139.125 218.928 139.003 219.07 138.916 219.256C138.833 219.437 138.791 219.655 138.791 219.909V225H135.655Z" fill="#181818" fill-opacity="0.75"/>
<g filter="url(#filter2_d_129_793)">
<rect x="96" y="39" width="72" height="72" rx="8" fill="white" fill-opacity="0.75" shape-rendering="crispEdges"/>
</g>
<path d="M114.795 81V72.2727H117.932V81H114.795ZM116.364 71.3636C115.939 71.3636 115.576 71.2235 115.273 70.9432C114.97 70.6629 114.818 70.3258 114.818 69.9318C114.818 69.5379 114.97 69.2008 115.273 68.9205C115.576 68.6402 115.939 68.5 116.364 68.5C116.792 68.5 117.155 68.6402 117.455 68.9205C117.758 69.2008 117.909 69.5379 117.909 69.9318C117.909 70.3258 117.758 70.6629 117.455 70.9432C117.155 71.2235 116.792 71.3636 116.364 71.3636ZM124.734 72.2727V74.5455H118.984V72.2727H124.734ZM120.098 70.1818H123.234V78.1932C123.234 78.3144 123.255 78.4167 123.297 78.5C123.339 78.5795 123.403 78.6402 123.49 78.6818C123.577 78.7197 123.689 78.7386 123.825 78.7386C123.92 78.7386 124.03 78.7273 124.155 78.7045C124.284 78.6818 124.378 78.6629 124.439 78.6477L124.893 80.8523C124.753 80.8939 124.553 80.9451 124.291 81.0057C124.034 81.0663 123.727 81.1061 123.371 81.125C122.651 81.1629 122.047 81.089 121.558 80.9034C121.07 80.714 120.702 80.4167 120.456 80.0114C120.21 79.6061 120.09 79.0985 120.098 78.4886V70.1818ZM130.102 81.1591C129.17 81.1591 128.367 80.9811 127.693 80.625C127.023 80.2652 126.506 79.75 126.142 79.0795C125.782 78.4053 125.602 77.5985 125.602 76.6591C125.602 75.7576 125.784 74.9697 126.148 74.2955C126.511 73.6212 127.025 73.0966 127.688 72.7216C128.35 72.3466 129.133 72.1591 130.034 72.1591C130.693 72.1591 131.29 72.2614 131.824 72.4659C132.358 72.6705 132.814 72.9678 133.193 73.358C133.572 73.7443 133.864 74.214 134.068 74.767C134.273 75.3201 134.375 75.9432 134.375 76.6364V77.3636H126.58V75.6364H131.489C131.485 75.3864 131.42 75.1667 131.295 74.9773C131.174 74.7841 131.009 74.6345 130.801 74.5284C130.597 74.4186 130.364 74.3636 130.102 74.3636C129.848 74.3636 129.616 74.4186 129.403 74.5284C129.191 74.6345 129.021 74.7822 128.892 74.9716C128.767 75.161 128.701 75.3826 128.693 75.6364V77.5C128.693 77.7803 128.752 78.0303 128.869 78.25C128.987 78.4697 129.155 78.642 129.375 78.767C129.595 78.892 129.86 78.9545 130.17 78.9545C130.386 78.9545 130.583 78.9242 130.761 78.8636C130.943 78.803 131.098 78.7159 131.227 78.6023C131.356 78.4848 131.451 78.3447 131.511 78.1818H134.375C134.277 78.7879 134.044 79.3144 133.676 79.7614C133.309 80.2045 132.822 80.5492 132.216 80.7955C131.614 81.0379 130.909 81.1591 130.102 81.1591ZM135.655 81V72.2727H138.632V73.9318H138.723C138.905 73.3864 139.215 72.9545 139.655 72.6364C140.094 72.3182 140.617 72.1591 141.223 72.1591C141.837 72.1591 142.365 72.322 142.808 72.6477C143.251 72.9697 143.518 73.3977 143.609 73.9318H143.7C143.848 73.3977 144.162 72.9697 144.643 72.6477C145.125 72.322 145.689 72.1591 146.337 72.1591C147.174 72.1591 147.852 72.428 148.371 72.9659C148.893 73.5038 149.155 74.2197 149.155 75.1136V81H146.018V75.9091C146.018 75.5265 145.922 75.2273 145.729 75.0114C145.536 74.7917 145.276 74.6818 144.95 74.6818C144.628 74.6818 144.373 74.7917 144.183 75.0114C143.998 75.2273 143.905 75.5265 143.905 75.9091V81H140.905V75.9091C140.905 75.5265 140.808 75.2273 140.615 75.0114C140.422 74.7917 140.162 74.6818 139.837 74.6818C139.621 74.6818 139.435 74.7311 139.28 74.8295C139.125 74.928 139.003 75.0701 138.916 75.2557C138.833 75.4375 138.791 75.6553 138.791 75.9091V81H135.655Z" fill="#181818" fill-opacity="0.75"/>
<g filter="url(#filter3_d_129_793)">
<rect x="24" y="183" width="72" height="72" rx="8" fill="white" fill-opacity="0.75" shape-rendering="crispEdges"/>
</g>
<path d="M42.7955 225V216.273H45.9318V225H42.7955ZM44.3636 215.364C43.9394 215.364 43.5758 215.223 43.2727 214.943C42.9697 214.663 42.8182 214.326 42.8182 213.932C42.8182 213.538 42.9697 213.201 43.2727 212.92C43.5758 212.64 43.9394 212.5 44.3636 212.5C44.7917 212.5 45.1553 212.64 45.4545 212.92C45.7576 213.201 45.9091 213.538 45.9091 213.932C45.9091 214.326 45.7576 214.663 45.4545 214.943C45.1553 215.223 44.7917 215.364 44.3636 215.364ZM52.7344 216.273V218.545H46.9844V216.273H52.7344ZM48.098 214.182H51.2344V222.193C51.2344 222.314 51.2552 222.417 51.2969 222.5C51.3385 222.58 51.4029 222.64 51.4901 222.682C51.5772 222.72 51.6889 222.739 51.8253 222.739C51.92 222.739 52.0298 222.727 52.1548 222.705C52.2836 222.682 52.3783 222.663 52.4389 222.648L52.8935 224.852C52.7533 224.894 52.5526 224.945 52.2912 225.006C52.0336 225.066 51.7268 225.106 51.3707 225.125C50.651 225.163 50.0469 225.089 49.5582 224.903C49.0696 224.714 48.7022 224.417 48.456 224.011C48.2098 223.606 48.0904 223.098 48.098 222.489V214.182ZM58.1023 225.159C57.1705 225.159 56.3674 224.981 55.6932 224.625C55.0227 224.265 54.5057 223.75 54.142 223.08C53.7822 222.405 53.6023 221.598 53.6023 220.659C53.6023 219.758 53.7841 218.97 54.1477 218.295C54.5114 217.621 55.0246 217.097 55.6875 216.722C56.3504 216.347 57.1326 216.159 58.0341 216.159C58.6932 216.159 59.2898 216.261 59.8239 216.466C60.358 216.67 60.8144 216.968 61.1932 217.358C61.572 217.744 61.8636 218.214 62.0682 218.767C62.2727 219.32 62.375 219.943 62.375 220.636V221.364H54.5795V219.636H59.4886C59.4848 219.386 59.4205 219.167 59.2955 218.977C59.1742 218.784 59.0095 218.634 58.8011 218.528C58.5966 218.419 58.3636 218.364 58.1023 218.364C57.8485 218.364 57.6155 218.419 57.4034 218.528C57.1913 218.634 57.0208 218.782 56.892 218.972C56.767 219.161 56.7008 219.383 56.6932 219.636V221.5C56.6932 221.78 56.7519 222.03 56.8693 222.25C56.9867 222.47 57.1553 222.642 57.375 222.767C57.5947 222.892 57.8598 222.955 58.1705 222.955C58.3864 222.955 58.5833 222.924 58.7614 222.864C58.9432 222.803 59.0985 222.716 59.2273 222.602C59.3561 222.485 59.4508 222.345 59.5114 222.182H62.375C62.2765 222.788 62.0436 223.314 61.6761 223.761C61.3087 224.205 60.822 224.549 60.2159 224.795C59.6136 225.038 58.9091 225.159 58.1023 225.159ZM63.6548 225V216.273H66.6321V217.932H66.723C66.9048 217.386 67.2154 216.955 67.6548 216.636C68.0942 216.318 68.617 216.159 69.223 216.159C69.8366 216.159 70.3651 216.322 70.8082 216.648C71.2514 216.97 71.5185 217.398 71.6094 217.932H71.7003C71.848 217.398 72.1624 216.97 72.6435 216.648C73.1245 216.322 73.6889 216.159 74.3366 216.159C75.1738 216.159 75.8518 216.428 76.3707 216.966C76.8935 217.504 77.1548 218.22 77.1548 219.114V225H74.0185V219.909C74.0185 219.527 73.9219 219.227 73.7287 219.011C73.5355 218.792 73.276 218.682 72.9503 218.682C72.6283 218.682 72.3726 218.792 72.1832 219.011C71.9976 219.227 71.9048 219.527 71.9048 219.909V225H68.9048V219.909C68.9048 219.527 68.8082 219.227 68.6151 219.011C68.4219 218.792 68.1624 218.682 67.8366 218.682C67.6207 218.682 67.4351 218.731 67.2798 218.83C67.1245 218.928 67.0033 219.07 66.9162 219.256C66.8329 219.437 66.7912 219.655 66.7912 219.909V225H63.6548Z" fill="#181818" fill-opacity="0.75"/>
<g filter="url(#filter4_d_129_793)">
<rect x="24" y="39" width="72" height="72" rx="8" fill="white" fill-opacity="0.75" shape-rendering="crispEdges"/>
</g>
<path d="M42.7955 81V72.2727H45.9318V81H42.7955ZM44.3636 71.3636C43.9394 71.3636 43.5758 71.2235 43.2727 70.9432C42.9697 70.6629 42.8182 70.3258 42.8182 69.9318C42.8182 69.5379 42.9697 69.2008 43.2727 68.9205C43.5758 68.6402 43.9394 68.5 44.3636 68.5C44.7917 68.5 45.1553 68.6402 45.4545 68.9205C45.7576 69.2008 45.9091 69.5379 45.9091 69.9318C45.9091 70.3258 45.7576 70.6629 45.4545 70.9432C45.1553 71.2235 44.7917 71.3636 44.3636 71.3636ZM52.7344 72.2727V74.5455H46.9844V72.2727H52.7344ZM48.098 70.1818H51.2344V78.1932C51.2344 78.3144 51.2552 78.4167 51.2969 78.5C51.3385 78.5795 51.4029 78.6402 51.4901 78.6818C51.5772 78.7197 51.6889 78.7386 51.8253 78.7386C51.92 78.7386 52.0298 78.7273 52.1548 78.7045C52.2836 78.6818 52.3783 78.6629 52.4389 78.6477L52.8935 80.8523C52.7533 80.8939 52.5526 80.9451 52.2912 81.0057C52.0336 81.0663 51.7268 81.1061 51.3707 81.125C50.651 81.1629 50.0469 81.089 49.5582 80.9034C49.0696 80.714 48.7022 80.4167 48.456 80.0114C48.2098 79.6061 48.0904 79.0985 48.098 78.4886V70.1818ZM58.1023 81.1591C57.1705 81.1591 56.3674 80.9811 55.6932 80.625C55.0227 80.2652 54.5057 79.75 54.142 79.0795C53.7822 78.4053 53.6023 77.5985 53.6023 76.6591C53.6023 75.7576 53.7841 74.9697 54.1477 74.2955C54.5114 73.6212 55.0246 73.0966 55.6875 72.7216C56.3504 72.3466 57.1326 72.1591 58.0341 72.1591C58.6932 72.1591 59.2898 72.2614 59.8239 72.4659C60.358 72.6705 60.8144 72.9678 61.1932 73.358C61.572 73.7443 61.8636 74.214 62.0682 74.767C62.2727 75.3201 62.375 75.9432 62.375 76.6364V77.3636H54.5795V75.6364H59.4886C59.4848 75.3864 59.4205 75.1667 59.2955 74.9773C59.1742 74.7841 59.0095 74.6345 58.8011 74.5284C58.5966 74.4186 58.3636 74.3636 58.1023 74.3636C57.8485 74.3636 57.6155 74.4186 57.4034 74.5284C57.1913 74.6345 57.0208 74.7822 56.892 74.9716C56.767 75.161 56.7008 75.3826 56.6932 75.6364V77.5C56.6932 77.7803 56.7519 78.0303 56.8693 78.25C56.9867 78.4697 57.1553 78.642 57.375 78.767C57.5947 78.892 57.8598 78.9545 58.1705 78.9545C58.3864 78.9545 58.5833 78.9242 58.7614 78.8636C58.9432 78.803 59.0985 78.7159 59.2273 78.6023C59.3561 78.4848 59.4508 78.3447 59.5114 78.1818H62.375C62.2765 78.7879 62.0436 79.3144 61.6761 79.7614C61.3087 80.2045 60.822 80.5492 60.2159 80.7955C59.6136 81.0379 58.9091 81.1591 58.1023 81.1591ZM63.6548 81V72.2727H66.6321V73.9318H66.723C66.9048 73.3864 67.2154 72.9545 67.6548 72.6364C68.0942 72.3182 68.617 72.1591 69.223 72.1591C69.8366 72.1591 70.3651 72.322 70.8082 72.6477C71.2514 72.9697 71.5185 73.3977 71.6094 73.9318H71.7003C71.848 73.3977 72.1624 72.9697 72.6435 72.6477C73.1245 72.322 73.6889 72.1591 74.3366 72.1591C75.1738 72.1591 75.8518 72.428 76.3707 72.9659C76.8935 73.5038 77.1548 74.2197 77.1548 75.1136V81H74.0185V75.9091C74.0185 75.5265 73.9219 75.2273 73.7287 75.0114C73.5355 74.7917 73.276 74.6818 72.9503 74.6818C72.6283 74.6818 72.3726 74.7917 72.1832 75.0114C71.9976 75.2273 71.9048 75.5265 71.9048 75.9091V81H68.9048V75.9091C68.9048 75.5265 68.8082 75.2273 68.6151 75.0114C68.4219 74.7917 68.1624 74.6818 67.8366 74.6818C67.6207 74.6818 67.4351 74.7311 67.2798 74.8295C67.1245 74.928 67.0033 75.0701 66.9162 75.2557C66.8329 75.4375 66.7912 75.6553 66.7912 75.9091V81H63.6548Z" fill="#181818" fill-opacity="0.75"/>
<g filter="url(#filter5_d_129_793)">
<rect x="168" y="39" width="72" height="72" rx="8" fill="white" fill-opacity="0.75" shape-rendering="crispEdges"/>
</g>
<path d="M186.795 81V72.2727H189.932V81H186.795ZM188.364 71.3636C187.939 71.3636 187.576 71.2235 187.273 70.9432C186.97 70.6629 186.818 70.3258 186.818 69.9318C186.818 69.5379 186.97 69.2008 187.273 68.9205C187.576 68.6402 187.939 68.5 188.364 68.5C188.792 68.5 189.155 68.6402 189.455 68.9205C189.758 69.2008 189.909 69.5379 189.909 69.9318C189.909 70.3258 189.758 70.6629 189.455 70.9432C189.155 71.2235 188.792 71.3636 188.364 71.3636ZM196.734 72.2727V74.5455H190.984V72.2727H196.734ZM192.098 70.1818H195.234V78.1932C195.234 78.3144 195.255 78.4167 195.297 78.5C195.339 78.5795 195.403 78.6402 195.49 78.6818C195.577 78.7197 195.689 78.7386 195.825 78.7386C195.92 78.7386 196.03 78.7273 196.155 78.7045C196.284 78.6818 196.378 78.6629 196.439 78.6477L196.893 80.8523C196.753 80.8939 196.553 80.9451 196.291 81.0057C196.034 81.0663 195.727 81.1061 195.371 81.125C194.651 81.1629 194.047 81.089 193.558 80.9034C193.07 80.714 192.702 80.4167 192.456 80.0114C192.21 79.6061 192.09 79.0985 192.098 78.4886V70.1818ZM202.102 81.1591C201.17 81.1591 200.367 80.9811 199.693 80.625C199.023 80.2652 198.506 79.75 198.142 79.0795C197.782 78.4053 197.602 77.5985 197.602 76.6591C197.602 75.7576 197.784 74.9697 198.148 74.2955C198.511 73.6212 199.025 73.0966 199.688 72.7216C200.35 72.3466 201.133 72.1591 202.034 72.1591C202.693 72.1591 203.29 72.2614 203.824 72.4659C204.358 72.6705 204.814 72.9678 205.193 73.358C205.572 73.7443 205.864 74.214 206.068 74.767C206.273 75.3201 206.375 75.9432 206.375 76.6364V77.3636H198.58V75.6364H203.489C203.485 75.3864 203.42 75.1667 203.295 74.9773C203.174 74.7841 203.009 74.6345 202.801 74.5284C202.597 74.4186 202.364 74.3636 202.102 74.3636C201.848 74.3636 201.616 74.4186 201.403 74.5284C201.191 74.6345 201.021 74.7822 200.892 74.9716C200.767 75.161 200.701 75.3826 200.693 75.6364V77.5C200.693 77.7803 200.752 78.0303 200.869 78.25C200.987 78.4697 201.155 78.642 201.375 78.767C201.595 78.892 201.86 78.9545 202.17 78.9545C202.386 78.9545 202.583 78.9242 202.761 78.8636C202.943 78.803 203.098 78.7159 203.227 78.6023C203.356 78.4848 203.451 78.3447 203.511 78.1818H206.375C206.277 78.7879 206.044 79.3144 205.676 79.7614C205.309 80.2045 204.822 80.5492 204.216 80.7955C203.614 81.0379 202.909 81.1591 202.102 81.1591ZM207.655 81V72.2727H210.632V73.9318H210.723C210.905 73.3864 211.215 72.9545 211.655 72.6364C212.094 72.3182 212.617 72.1591 213.223 72.1591C213.837 72.1591 214.365 72.322 214.808 72.6477C215.251 72.9697 215.518 73.3977 215.609 73.9318H215.7C215.848 73.3977 216.162 72.9697 216.643 72.6477C217.125 72.322 217.689 72.1591 218.337 72.1591C219.174 72.1591 219.852 72.428 220.371 72.9659C220.893 73.5038 221.155 74.2197 221.155 75.1136V81H218.018V75.9091C218.018 75.5265 217.922 75.2273 217.729 75.0114C217.536 74.7917 217.276 74.6818 216.95 74.6818C216.628 74.6818 216.373 74.7917 216.183 75.0114C215.998 75.2273 215.905 75.5265 215.905 75.9091V81H212.905V75.9091C212.905 75.5265 212.808 75.2273 212.615 75.0114C212.422 74.7917 212.162 74.6818 211.837 74.6818C211.621 74.6818 211.435 74.7311 211.28 74.8295C211.125 74.928 211.003 75.0701 210.916 75.2557C210.833 75.4375 210.791 75.6553 210.791 75.9091V81H207.655Z" fill="#181818" fill-opacity="0.75"/>
<g filter="url(#filter6_d_129_793)">
<rect x="96" y="111" width="72" height="72" rx="8" fill="white" fill-opacity="0.75" shape-rendering="crispEdges"/>
</g>
<path d="M114.795 153V144.273H117.932V153H114.795ZM116.364 143.364C115.939 143.364 115.576 143.223 115.273 142.943C114.97 142.663 114.818 142.326 114.818 141.932C114.818 141.538 114.97 141.201 115.273 140.92C115.576 140.64 115.939 140.5 116.364 140.5C116.792 140.5 117.155 140.64 117.455 140.92C117.758 141.201 117.909 141.538 117.909 141.932C117.909 142.326 117.758 142.663 117.455 142.943C117.155 143.223 116.792 143.364 116.364 143.364ZM124.734 144.273V146.545H118.984V144.273H124.734ZM120.098 142.182H123.234V150.193C123.234 150.314 123.255 150.417 123.297 150.5C123.339 150.58 123.403 150.64 123.49 150.682C123.577 150.72 123.689 150.739 123.825 150.739C123.92 150.739 124.03 150.727 124.155 150.705C124.284 150.682 124.378 150.663 124.439 150.648L124.893 152.852C124.753 152.894 124.553 152.945 124.291 153.006C124.034 153.066 123.727 153.106 123.371 153.125C122.651 153.163 122.047 153.089 121.558 152.903C121.07 152.714 120.702 152.417 120.456 152.011C120.21 151.606 120.09 151.098 120.098 150.489V142.182ZM130.102 153.159C129.17 153.159 128.367 152.981 127.693 152.625C127.023 152.265 126.506 151.75 126.142 151.08C125.782 150.405 125.602 149.598 125.602 148.659C125.602 147.758 125.784 146.97 126.148 146.295C126.511 145.621 127.025 145.097 127.688 144.722C128.35 144.347 129.133 144.159 130.034 144.159C130.693 144.159 131.29 144.261 131.824 144.466C132.358 144.67 132.814 144.968 133.193 145.358C133.572 145.744 133.864 146.214 134.068 146.767C134.273 147.32 134.375 147.943 134.375 148.636V149.364H126.58V147.636H131.489C131.485 147.386 131.42 147.167 131.295 146.977C131.174 146.784 131.009 146.634 130.801 146.528C130.597 146.419 130.364 146.364 130.102 146.364C129.848 146.364 129.616 146.419 129.403 146.528C129.191 146.634 129.021 146.782 128.892 146.972C128.767 147.161 128.701 147.383 128.693 147.636V149.5C128.693 149.78 128.752 150.03 128.869 150.25C128.987 150.47 129.155 150.642 129.375 150.767C129.595 150.892 129.86 150.955 130.17 150.955C130.386 150.955 130.583 150.924 130.761 150.864C130.943 150.803 131.098 150.716 131.227 150.602C131.356 150.485 131.451 150.345 131.511 150.182H134.375C134.277 150.788 134.044 151.314 133.676 151.761C133.309 152.205 132.822 152.549 132.216 152.795C131.614 153.038 130.909 153.159 130.102 153.159ZM135.655 153V144.273H138.632V145.932H138.723C138.905 145.386 139.215 144.955 139.655 144.636C140.094 144.318 140.617 144.159 141.223 144.159C141.837 144.159 142.365 144.322 142.808 144.648C143.251 144.97 143.518 145.398 143.609 145.932H143.7C143.848 145.398 144.162 144.97 144.643 144.648C145.125 144.322 145.689 144.159 146.337 144.159C147.174 144.159 147.852 144.428 148.371 144.966C148.893 145.504 149.155 146.22 149.155 147.114V153H146.018V147.909C146.018 147.527 145.922 147.227 145.729 147.011C145.536 146.792 145.276 146.682 144.95 146.682C144.628 146.682 144.373 146.792 144.183 147.011C143.998 147.227 143.905 147.527 143.905 147.909V153H140.905V147.909C140.905 147.527 140.808 147.227 140.615 147.011C140.422 146.792 140.162 146.682 139.837 146.682C139.621 146.682 139.435 146.731 139.28 146.83C139.125 146.928 139.003 147.07 138.916 147.256C138.833 147.437 138.791 147.655 138.791 147.909V153H135.655Z" fill="#181818" fill-opacity="0.75"/>
<g filter="url(#filter7_d_129_793)">
<rect x="24" y="111" width="72" height="72" rx="8" fill="white" fill-opacity="0.75" shape-rendering="crispEdges"/>
</g>
<path d="M42.7955 153V144.273H45.9318V153H42.7955ZM44.3636 143.364C43.9394 143.364 43.5758 143.223 43.2727 142.943C42.9697 142.663 42.8182 142.326 42.8182 141.932C42.8182 141.538 42.9697 141.201 43.2727 140.92C43.5758 140.64 43.9394 140.5 44.3636 140.5C44.7917 140.5 45.1553 140.64 45.4545 140.92C45.7576 141.201 45.9091 141.538 45.9091 141.932C45.9091 142.326 45.7576 142.663 45.4545 142.943C45.1553 143.223 44.7917 143.364 44.3636 143.364ZM52.7344 144.273V146.545H46.9844V144.273H52.7344ZM48.098 142.182H51.2344V150.193C51.2344 150.314 51.2552 150.417 51.2969 150.5C51.3385 150.58 51.4029 150.64 51.4901 150.682C51.5772 150.72 51.6889 150.739 51.8253 150.739C51.92 150.739 52.0298 150.727 52.1548 150.705C52.2836 150.682 52.3783 150.663 52.4389 150.648L52.8935 152.852C52.7533 152.894 52.5526 152.945 52.2912 153.006C52.0336 153.066 51.7268 153.106 51.3707 153.125C50.651 153.163 50.0469 153.089 49.5582 152.903C49.0696 152.714 48.7022 152.417 48.456 152.011C48.2098 151.606 48.0904 151.098 48.098 150.489V142.182ZM58.1023 153.159C57.1705 153.159 56.3674 152.981 55.6932 152.625C55.0227 152.265 54.5057 151.75 54.142 151.08C53.7822 150.405 53.6023 149.598 53.6023 148.659C53.6023 147.758 53.7841 146.97 54.1477 146.295C54.5114 145.621 55.0246 145.097 55.6875 144.722C56.3504 144.347 57.1326 144.159 58.0341 144.159C58.6932 144.159 59.2898 144.261 59.8239 144.466C60.358 144.67 60.8144 144.968 61.1932 145.358C61.572 145.744 61.8636 146.214 62.0682 146.767C62.2727 147.32 62.375 147.943 62.375 148.636V149.364H54.5795V147.636H59.4886C59.4848 147.386 59.4205 147.167 59.2955 146.977C59.1742 146.784 59.0095 146.634 58.8011 146.528C58.5966 146.419 58.3636 146.364 58.1023 146.364C57.8485 146.364 57.6155 146.419 57.4034 146.528C57.1913 146.634 57.0208 146.782 56.892 146.972C56.767 147.161 56.7008 147.383 56.6932 147.636V149.5C56.6932 149.78 56.7519 150.03 56.8693 150.25C56.9867 150.47 57.1553 150.642 57.375 150.767C57.5947 150.892 57.8598 150.955 58.1705 150.955C58.3864 150.955 58.5833 150.924 58.7614 150.864C58.9432 150.803 59.0985 150.716 59.2273 150.602C59.3561 150.485 59.4508 150.345 59.5114 150.182H62.375C62.2765 150.788 62.0436 151.314 61.6761 151.761C61.3087 152.205 60.822 152.549 60.2159 152.795C59.6136 153.038 58.9091 153.159 58.1023 153.159ZM63.6548 153V144.273H66.6321V145.932H66.723C66.9048 145.386 67.2154 144.955 67.6548 144.636C68.0942 144.318 68.617 144.159 69.223 144.159C69.8366 144.159 70.3651 144.322 70.8082 144.648C71.2514 144.97 71.5185 145.398 71.6094 145.932H71.7003C71.848 145.398 72.1624 144.97 72.6435 144.648C73.1245 144.322 73.6889 144.159 74.3366 144.159C75.1738 144.159 75.8518 144.428 76.3707 144.966C76.8935 145.504 77.1548 146.22 77.1548 147.114V153H74.0185V147.909C74.0185 147.527 73.9219 147.227 73.7287 147.011C73.5355 146.792 73.276 146.682 72.9503 146.682C72.6283 146.682 72.3726 146.792 72.1832 147.011C71.9976 147.227 71.9048 147.527 71.9048 147.909V153H68.9048V147.909C68.9048 147.527 68.8082 147.227 68.6151 147.011C68.4219 146.792 68.1624 146.682 67.8366 146.682C67.6207 146.682 67.4351 146.731 67.2798 146.83C67.1245 146.928 67.0033 147.07 66.9162 147.256C66.8329 147.437 66.7912 147.655 66.7912 147.909V153H63.6548Z" fill="#181818" fill-opacity="0.75"/>
<g filter="url(#filter8_d_129_793)">
<rect x="168" y="111" width="72" height="72" rx="8" fill="white" fill-opacity="0.75" shape-rendering="crispEdges"/>
</g>
<path d="M186.795 153V144.273H189.932V153H186.795ZM188.364 143.364C187.939 143.364 187.576 143.223 187.273 142.943C186.97 142.663 186.818 142.326 186.818 141.932C186.818 141.538 186.97 141.201 187.273 140.92C187.576 140.64 187.939 140.5 188.364 140.5C188.792 140.5 189.155 140.64 189.455 140.92C189.758 141.201 189.909 141.538 189.909 141.932C189.909 142.326 189.758 142.663 189.455 142.943C189.155 143.223 188.792 143.364 188.364 143.364ZM196.734 144.273V146.545H190.984V144.273H196.734ZM192.098 142.182H195.234V150.193C195.234 150.314 195.255 150.417 195.297 150.5C195.339 150.58 195.403 150.64 195.49 150.682C195.577 150.72 195.689 150.739 195.825 150.739C195.92 150.739 196.03 150.727 196.155 150.705C196.284 150.682 196.378 150.663 196.439 150.648L196.893 152.852C196.753 152.894 196.553 152.945 196.291 153.006C196.034 153.066 195.727 153.106 195.371 153.125C194.651 153.163 194.047 153.089 193.558 152.903C193.07 152.714 192.702 152.417 192.456 152.011C192.21 151.606 192.09 151.098 192.098 150.489V142.182ZM202.102 153.159C201.17 153.159 200.367 152.981 199.693 152.625C199.023 152.265 198.506 151.75 198.142 151.08C197.782 150.405 197.602 149.598 197.602 148.659C197.602 147.758 197.784 146.97 198.148 146.295C198.511 145.621 199.025 145.097 199.688 144.722C200.35 144.347 201.133 144.159 202.034 144.159C202.693 144.159 203.29 144.261 203.824 144.466C204.358 144.67 204.814 144.968 205.193 145.358C205.572 145.744 205.864 146.214 206.068 146.767C206.273 147.32 206.375 147.943 206.375 148.636V149.364H198.58V147.636H203.489C203.485 147.386 203.42 147.167 203.295 146.977C203.174 146.784 203.009 146.634 202.801 146.528C202.597 146.419 202.364 146.364 202.102 146.364C201.848 146.364 201.616 146.419 201.403 146.528C201.191 146.634 201.021 146.782 200.892 146.972C200.767 147.161 200.701 147.383 200.693 147.636V149.5C200.693 149.78 200.752 150.03 200.869 150.25C200.987 150.47 201.155 150.642 201.375 150.767C201.595 150.892 201.86 150.955 202.17 150.955C202.386 150.955 202.583 150.924 202.761 150.864C202.943 150.803 203.098 150.716 203.227 150.602C203.356 150.485 203.451 150.345 203.511 150.182H206.375C206.277 150.788 206.044 151.314 205.676 151.761C205.309 152.205 204.822 152.549 204.216 152.795C203.614 153.038 202.909 153.159 202.102 153.159ZM207.655 153V144.273H210.632V145.932H210.723C210.905 145.386 211.215 144.955 211.655 144.636C212.094 144.318 212.617 144.159 213.223 144.159C213.837 144.159 214.365 144.322 214.808 144.648C215.251 144.97 215.518 145.398 215.609 145.932H215.7C215.848 145.398 216.162 144.97 216.643 144.648C217.125 144.322 217.689 144.159 218.337 144.159C219.174 144.159 219.852 144.428 220.371 144.966C220.893 145.504 221.155 146.22 221.155 147.114V153H218.018V147.909C218.018 147.527 217.922 147.227 217.729 147.011C217.536 146.792 217.276 146.682 216.95 146.682C216.628 146.682 216.373 146.792 216.183 147.011C215.998 147.227 215.905 147.527 215.905 147.909V153H212.905V147.909C212.905 147.527 212.808 147.227 212.615 147.011C212.422 146.792 212.162 146.682 211.837 146.682C211.621 146.682 211.435 146.731 211.28 146.83C211.125 146.928 211.003 147.07 210.916 147.256C210.833 147.437 210.791 147.655 210.791 147.909V153H207.655Z" fill="#181818" fill-opacity="0.75"/>
<g filter="url(#filter9_d_129_793)">
<rect x="168" y="183" width="72" height="72" rx="8" fill="white" fill-opacity="0.75" shape-rendering="crispEdges"/>
</g>
<path d="M186.795 225V216.273H189.932V225H186.795ZM188.364 215.364C187.939 215.364 187.576 215.223 187.273 214.943C186.97 214.663 186.818 214.326 186.818 213.932C186.818 213.538 186.97 213.201 187.273 212.92C187.576 212.64 187.939 212.5 188.364 212.5C188.792 212.5 189.155 212.64 189.455 212.92C189.758 213.201 189.909 213.538 189.909 213.932C189.909 214.326 189.758 214.663 189.455 214.943C189.155 215.223 188.792 215.364 188.364 215.364ZM196.734 216.273V218.545H190.984V216.273H196.734ZM192.098 214.182H195.234V222.193C195.234 222.314 195.255 222.417 195.297 222.5C195.339 222.58 195.403 222.64 195.49 222.682C195.577 222.72 195.689 222.739 195.825 222.739C195.92 222.739 196.03 222.727 196.155 222.705C196.284 222.682 196.378 222.663 196.439 222.648L196.893 224.852C196.753 224.894 196.553 224.945 196.291 225.006C196.034 225.066 195.727 225.106 195.371 225.125C194.651 225.163 194.047 225.089 193.558 224.903C193.07 224.714 192.702 224.417 192.456 224.011C192.21 223.606 192.09 223.098 192.098 222.489V214.182ZM202.102 225.159C201.17 225.159 200.367 224.981 199.693 224.625C199.023 224.265 198.506 223.75 198.142 223.08C197.782 222.405 197.602 221.598 197.602 220.659C197.602 219.758 197.784 218.97 198.148 218.295C198.511 217.621 199.025 217.097 199.688 216.722C200.35 216.347 201.133 216.159 202.034 216.159C202.693 216.159 203.29 216.261 203.824 216.466C204.358 216.67 204.814 216.968 205.193 217.358C205.572 217.744 205.864 218.214 206.068 218.767C206.273 219.32 206.375 219.943 206.375 220.636V221.364H198.58V219.636H203.489C203.485 219.386 203.42 219.167 203.295 218.977C203.174 218.784 203.009 218.634 202.801 218.528C202.597 218.419 202.364 218.364 202.102 218.364C201.848 218.364 201.616 218.419 201.403 218.528C201.191 218.634 201.021 218.782 200.892 218.972C200.767 219.161 200.701 219.383 200.693 219.636V221.5C200.693 221.78 200.752 222.03 200.869 222.25C200.987 222.47 201.155 222.642 201.375 222.767C201.595 222.892 201.86 222.955 202.17 222.955C202.386 222.955 202.583 222.924 202.761 222.864C202.943 222.803 203.098 222.716 203.227 222.602C203.356 222.485 203.451 222.345 203.511 222.182H206.375C206.277 222.788 206.044 223.314 205.676 223.761C205.309 224.205 204.822 224.549 204.216 224.795C203.614 225.038 202.909 225.159 202.102 225.159ZM207.655 225V216.273H210.632V217.932H210.723C210.905 217.386 211.215 216.955 211.655 216.636C212.094 216.318 212.617 216.159 213.223 216.159C213.837 216.159 214.365 216.322 214.808 216.648C215.251 216.97 215.518 217.398 215.609 217.932H215.7C215.848 217.398 216.162 216.97 216.643 216.648C217.125 216.322 217.689 216.159 218.337 216.159C219.174 216.159 219.852 216.428 220.371 216.966C220.893 217.504 221.155 218.22 221.155 219.114V225H218.018V219.909C218.018 219.527 217.922 219.227 217.729 219.011C217.536 218.792 217.276 218.682 216.95 218.682C216.628 218.682 216.373 218.792 216.183 219.011C215.998 219.227 215.905 219.527 215.905 219.909V225H212.905V219.909C212.905 219.527 212.808 219.227 212.615 219.011C212.422 218.792 212.162 218.682 211.837 218.682C211.621 218.682 211.435 218.731 211.28 218.83C211.125 218.928 211.003 219.07 210.916 219.256C210.833 219.437 210.791 219.655 210.791 219.909V225H207.655Z" fill="#181818" fill-opacity="0.75"/>
<path d="M32.7727 21.1136H29.8864C29.8712 20.9356 29.8087 20.7822 29.6989 20.6534C29.589 20.5246 29.447 20.4261 29.2727 20.358C29.1023 20.286 28.9129 20.25 28.7045 20.25C28.4356 20.25 28.2045 20.2992 28.0114 20.3977C27.8182 20.4962 27.7235 20.6364 27.7273 20.8182C27.7235 20.947 27.7784 21.0663 27.892 21.1761C28.0095 21.286 28.2348 21.3712 28.5682 21.4318L30.3409 21.75C31.2348 21.9129 31.8996 22.1875 32.3352 22.5739C32.7746 22.9564 32.9962 23.4697 33 24.1136C32.9962 24.7348 32.8106 25.2746 32.4432 25.733C32.0795 26.1875 31.5814 26.5398 30.9489 26.7898C30.3201 27.036 29.6023 27.1591 28.7955 27.1591C27.4621 27.1591 26.4186 26.8864 25.6648 26.3409C24.9148 25.7955 24.4962 25.0758 24.4091 24.1818H27.5227C27.5644 24.4583 27.7008 24.6723 27.9318 24.8239C28.1667 24.9716 28.4621 25.0455 28.8182 25.0455C29.1061 25.0455 29.3428 24.9962 29.5284 24.8977C29.7178 24.7992 29.8144 24.6591 29.8182 24.4773C29.8144 24.3106 29.7311 24.178 29.5682 24.0795C29.4091 23.9811 29.1591 23.9015 28.8182 23.8409L27.2727 23.5682C26.3826 23.4129 25.7159 23.1174 25.2727 22.6818C24.8295 22.2462 24.6098 21.6856 24.6136 21C24.6098 20.3939 24.7689 19.8807 25.0909 19.4602C25.4167 19.036 25.8807 18.714 26.483 18.4943C27.089 18.2708 27.8068 18.1591 28.6364 18.1591C29.8977 18.1591 30.892 18.4205 31.6193 18.9432C32.3504 19.4659 32.7348 20.1894 32.7727 21.1136ZM39.4062 18.2727V20.5455H33.6562V18.2727H39.4062ZM34.7699 16.1818H37.9062V24.1932C37.9062 24.3144 37.9271 24.4167 37.9688 24.5C38.0104 24.5795 38.0748 24.6402 38.1619 24.6818C38.2491 24.7197 38.3608 24.7386 38.4972 24.7386C38.5919 24.7386 38.7017 24.7273 38.8267 24.7045C38.9555 24.6818 39.0502 24.6629 39.1108 24.6477L39.5653 26.8523C39.4252 26.8939 39.2244 26.9451 38.9631 27.0057C38.7055 27.0663 38.3987 27.1061 38.0426 27.125C37.3229 27.1629 36.7188 27.089 36.2301 26.9034C35.7415 26.714 35.3741 26.4167 35.1278 26.0114C34.8816 25.6061 34.7623 25.0985 34.7699 24.4886V16.1818ZM43.1179 27.1364C42.5611 27.1364 42.0687 27.0455 41.6406 26.8636C41.2164 26.678 40.883 26.3977 40.6406 26.0227C40.3982 25.6477 40.277 25.1705 40.277 24.5909C40.277 24.1136 40.3584 23.7064 40.5213 23.3693C40.6842 23.0284 40.9115 22.75 41.2031 22.5341C41.4948 22.3182 41.8338 22.1534 42.2202 22.0398C42.6103 21.9261 43.0308 21.8523 43.4815 21.8182C43.9702 21.7803 44.3622 21.7348 44.6577 21.6818C44.9569 21.625 45.1728 21.5473 45.3054 21.4489C45.438 21.3466 45.5043 21.2121 45.5043 21.0455V21.0227C45.5043 20.7955 45.4171 20.6212 45.2429 20.5C45.0687 20.3788 44.8452 20.3182 44.5724 20.3182C44.2732 20.3182 44.0289 20.3845 43.8395 20.517C43.6539 20.6458 43.5421 20.8447 43.5043 21.1136H40.6179C40.6558 20.5833 40.8243 20.0947 41.1236 19.6477C41.4266 19.197 41.8679 18.8371 42.4474 18.5682C43.027 18.2955 43.7505 18.1591 44.6179 18.1591C45.2429 18.1591 45.8035 18.233 46.2997 18.3807C46.7959 18.5246 47.2183 18.7273 47.5668 18.9886C47.9152 19.2462 48.1804 19.5492 48.3622 19.8977C48.5478 20.2424 48.6406 20.6174 48.6406 21.0227V27H45.7088V25.7727H45.6406C45.4664 26.0985 45.2543 26.3617 45.0043 26.5625C44.758 26.7633 44.4759 26.9091 44.1577 27C43.8433 27.0909 43.4967 27.1364 43.1179 27.1364ZM44.1406 25.1591C44.3793 25.1591 44.6027 25.1098 44.8111 25.0114C45.0232 24.9129 45.1955 24.7708 45.3281 24.5852C45.4607 24.3996 45.527 24.1742 45.527 23.9091V23.1818C45.4437 23.2159 45.3546 23.2481 45.2599 23.2784C45.169 23.3087 45.0705 23.3371 44.9645 23.3636C44.8622 23.3902 44.7524 23.4148 44.6349 23.4375C44.5213 23.4602 44.402 23.4811 44.277 23.5C44.0346 23.5379 43.8357 23.6004 43.6804 23.6875C43.5289 23.7708 43.4152 23.875 43.3395 24C43.2675 24.1212 43.2315 24.2576 43.2315 24.4091C43.2315 24.6515 43.3168 24.8371 43.4872 24.9659C43.6577 25.0947 43.8755 25.1591 44.1406 25.1591ZM50.1392 27V18.2727H53.1847V19.9318H53.2756C53.4347 19.3182 53.6866 18.8693 54.0312 18.5852C54.3797 18.3011 54.7869 18.1591 55.2528 18.1591C55.3892 18.1591 55.5237 18.1705 55.6562 18.1932C55.7926 18.2121 55.9233 18.2405 56.0483 18.2784V20.9545C55.893 20.9015 55.7017 20.8617 55.4744 20.8352C55.2472 20.8087 55.0521 20.7955 54.8892 20.7955C54.5824 20.7955 54.3059 20.8655 54.0597 21.0057C53.8172 21.142 53.6259 21.3352 53.4858 21.5852C53.3456 21.8314 53.2756 22.1212 53.2756 22.4545V27H50.1392ZM62.6406 18.2727V20.5455H56.8906V18.2727H62.6406ZM58.0043 16.1818H61.1406V24.1932C61.1406 24.3144 61.1615 24.4167 61.2031 24.5C61.2448 24.5795 61.3092 24.6402 61.3963 24.6818C61.4834 24.7197 61.5952 24.7386 61.7315 24.7386C61.8262 24.7386 61.9361 24.7273 62.0611 24.7045C62.1899 24.6818 62.2846 24.6629 62.3452 24.6477L62.7997 26.8523C62.6596 26.8939 62.4588 26.9451 62.1974 27.0057C61.9399 27.0663 61.633 27.1061 61.277 27.125C60.5573 27.1629 59.9531 27.089 59.4645 26.9034C58.9759 26.714 58.6084 26.4167 58.3622 26.0114C58.116 25.6061 57.9967 25.0985 58.0043 24.4886V16.1818Z" fill="#181818" fill-opacity="0.75"/>
<g filter="url(#filter10_d_129_793)">
<rect x="397" y="4" width="360" height="360" rx="8" fill="#2172FF" fill-opacity="0.8" shape-rendering="crispEdges"/>
</g>
<g filter="url(#filter11_d_129_793)">
<rect x="597" y="183" width="72" height="72" rx="8" fill="white" fill-opacity="0.75" shape-rendering="crispEdges"/>
</g>
<path d="M615.795 225V216.273H618.932V225H615.795ZM617.364 215.364C616.939 215.364 616.576 215.223 616.273 214.943C615.97 214.663 615.818 214.326 615.818 213.932C615.818 213.538 615.97 213.201 616.273 212.92C616.576 212.64 616.939 212.5 617.364 212.5C617.792 212.5 618.155 212.64 618.455 212.92C618.758 213.201 618.909 213.538 618.909 213.932C618.909 214.326 618.758 214.663 618.455 214.943C618.155 215.223 617.792 215.364 617.364 215.364ZM625.734 216.273V218.545H619.984V216.273H625.734ZM621.098 214.182H624.234V222.193C624.234 222.314 624.255 222.417 624.297 222.5C624.339 222.58 624.403 222.64 624.49 222.682C624.577 222.72 624.689 222.739 624.825 222.739C624.92 222.739 625.03 222.727 625.155 222.705C625.284 222.682 625.378 222.663 625.439 222.648L625.893 224.852C625.753 224.894 625.553 224.945 625.291 225.006C625.034 225.066 624.727 225.106 624.371 225.125C623.651 225.163 623.047 225.089 622.558 224.903C622.07 224.714 621.702 224.417 621.456 224.011C621.21 223.606 621.09 223.098 621.098 222.489V214.182ZM631.102 225.159C630.17 225.159 629.367 224.981 628.693 224.625C628.023 224.265 627.506 223.75 627.142 223.08C626.782 222.405 626.602 221.598 626.602 220.659C626.602 219.758 626.784 218.97 627.148 218.295C627.511 217.621 628.025 217.097 628.688 216.722C629.35 216.347 630.133 216.159 631.034 216.159C631.693 216.159 632.29 216.261 632.824 216.466C633.358 216.67 633.814 216.968 634.193 217.358C634.572 217.744 634.864 218.214 635.068 218.767C635.273 219.32 635.375 219.943 635.375 220.636V221.364H627.58V219.636H632.489C632.485 219.386 632.42 219.167 632.295 218.977C632.174 218.784 632.009 218.634 631.801 218.528C631.597 218.419 631.364 218.364 631.102 218.364C630.848 218.364 630.616 218.419 630.403 218.528C630.191 218.634 630.021 218.782 629.892 218.972C629.767 219.161 629.701 219.383 629.693 219.636V221.5C629.693 221.78 629.752 222.03 629.869 222.25C629.987 222.47 630.155 222.642 630.375 222.767C630.595 222.892 630.86 222.955 631.17 222.955C631.386 222.955 631.583 222.924 631.761 222.864C631.943 222.803 632.098 222.716 632.227 222.602C632.356 222.485 632.451 222.345 632.511 222.182H635.375C635.277 222.788 635.044 223.314 634.676 223.761C634.309 224.205 633.822 224.549 633.216 224.795C632.614 225.038 631.909 225.159 631.102 225.159ZM636.655 225V216.273H639.632V217.932H639.723C639.905 217.386 640.215 216.955 640.655 216.636C641.094 216.318 641.617 216.159 642.223 216.159C642.837 216.159 643.365 216.322 643.808 216.648C644.251 216.97 644.518 217.398 644.609 217.932H644.7C644.848 217.398 645.162 216.97 645.643 216.648C646.125 216.322 646.689 216.159 647.337 216.159C648.174 216.159 648.852 216.428 649.371 216.966C649.893 217.504 650.155 218.22 650.155 219.114V225H647.018V219.909C647.018 219.527 646.922 219.227 646.729 219.011C646.536 218.792 646.276 218.682 645.95 218.682C645.628 218.682 645.373 218.792 645.183 219.011C644.998 219.227 644.905 219.527 644.905 219.909V225H641.905V219.909C641.905 219.527 641.808 219.227 641.615 219.011C641.422 218.792 641.162 218.682 640.837 218.682C640.621 218.682 640.435 218.731 640.28 218.83C640.125 218.928 640.003 219.07 639.916 219.256C639.833 219.437 639.791 219.655 639.791 219.909V225H636.655Z" fill="#181818" fill-opacity="0.75"/>
<g filter="url(#filter12_d_129_793)">
<rect x="597" y="39" width="72" height="72" rx="8" fill="white" fill-opacity="0.75" shape-rendering="crispEdges"/>
</g>
<path d="M615.795 81V72.2727H618.932V81H615.795ZM617.364 71.3636C616.939 71.3636 616.576 71.2235 616.273 70.9432C615.97 70.6629 615.818 70.3258 615.818 69.9318C615.818 69.5379 615.97 69.2008 616.273 68.9205C616.576 68.6402 616.939 68.5 617.364 68.5C617.792 68.5 618.155 68.6402 618.455 68.9205C618.758 69.2008 618.909 69.5379 618.909 69.9318C618.909 70.3258 618.758 70.6629 618.455 70.9432C618.155 71.2235 617.792 71.3636 617.364 71.3636ZM625.734 72.2727V74.5455H619.984V72.2727H625.734ZM621.098 70.1818H624.234V78.1932C624.234 78.3144 624.255 78.4167 624.297 78.5C624.339 78.5795 624.403 78.6402 624.49 78.6818C624.577 78.7197 624.689 78.7386 624.825 78.7386C624.92 78.7386 625.03 78.7273 625.155 78.7045C625.284 78.6818 625.378 78.6629 625.439 78.6477L625.893 80.8523C625.753 80.8939 625.553 80.9451 625.291 81.0057C625.034 81.0663 624.727 81.1061 624.371 81.125C623.651 81.1629 623.047 81.089 622.558 80.9034C622.07 80.714 621.702 80.4167 621.456 80.0114C621.21 79.6061 621.09 79.0985 621.098 78.4886V70.1818ZM631.102 81.1591C630.17 81.1591 629.367 80.9811 628.693 80.625C628.023 80.2652 627.506 79.75 627.142 79.0795C626.782 78.4053 626.602 77.5985 626.602 76.6591C626.602 75.7576 626.784 74.9697 627.148 74.2955C627.511 73.6212 628.025 73.0966 628.688 72.7216C629.35 72.3466 630.133 72.1591 631.034 72.1591C631.693 72.1591 632.29 72.2614 632.824 72.4659C633.358 72.6705 633.814 72.9678 634.193 73.358C634.572 73.7443 634.864 74.214 635.068 74.767C635.273 75.3201 635.375 75.9432 635.375 76.6364V77.3636H627.58V75.6364H632.489C632.485 75.3864 632.42 75.1667 632.295 74.9773C632.174 74.7841 632.009 74.6345 631.801 74.5284C631.597 74.4186 631.364 74.3636 631.102 74.3636C630.848 74.3636 630.616 74.4186 630.403 74.5284C630.191 74.6345 630.021 74.7822 629.892 74.9716C629.767 75.161 629.701 75.3826 629.693 75.6364V77.5C629.693 77.7803 629.752 78.0303 629.869 78.25C629.987 78.4697 630.155 78.642 630.375 78.767C630.595 78.892 630.86 78.9545 631.17 78.9545C631.386 78.9545 631.583 78.9242 631.761 78.8636C631.943 78.803 632.098 78.7159 632.227 78.6023C632.356 78.4848 632.451 78.3447 632.511 78.1818H635.375C635.277 78.7879 635.044 79.3144 634.676 79.7614C634.309 80.2045 633.822 80.5492 633.216 80.7955C632.614 81.0379 631.909 81.1591 631.102 81.1591ZM636.655 81V72.2727H639.632V73.9318H639.723C639.905 73.3864 640.215 72.9545 640.655 72.6364C641.094 72.3182 641.617 72.1591 642.223 72.1591C642.837 72.1591 643.365 72.322 643.808 72.6477C644.251 72.9697 644.518 73.3977 644.609 73.9318H644.7C644.848 73.3977 645.162 72.9697 645.643 72.6477C646.125 72.322 646.689 72.1591 647.337 72.1591C648.174 72.1591 648.852 72.428 649.371 72.9659C649.893 73.5038 650.155 74.2197 650.155 75.1136V81H647.018V75.9091C647.018 75.5265 646.922 75.2273 646.729 75.0114C646.536 74.7917 646.276 74.6818 645.95 74.6818C645.628 74.6818 645.373 74.7917 645.183 75.0114C644.998 75.2273 644.905 75.5265 644.905 75.9091V81H641.905V75.9091C641.905 75.5265 641.808 75.2273 641.615 75.0114C641.422 74.7917 641.162 74.6818 640.837 74.6818C640.621 74.6818 640.435 74.7311 640.28 74.8295C640.125 74.928 640.003 75.0701 639.916 75.2557C639.833 75.4375 639.791 75.6553 639.791 75.9091V81H636.655Z" fill="#181818" fill-opacity="0.75"/>
<g filter="url(#filter13_d_129_793)">
<rect x="525" y="183" width="72" height="72" rx="8" fill="white" fill-opacity="0.75" shape-rendering="crispEdges"/>
</g>
<path d="M543.795 225V216.273H546.932V225H543.795ZM545.364 215.364C544.939 215.364 544.576 215.223 544.273 214.943C543.97 214.663 543.818 214.326 543.818 213.932C543.818 213.538 543.97 213.201 544.273 212.92C544.576 212.64 544.939 212.5 545.364 212.5C545.792 212.5 546.155 212.64 546.455 212.92C546.758 213.201 546.909 213.538 546.909 213.932C546.909 214.326 546.758 214.663 546.455 214.943C546.155 215.223 545.792 215.364 545.364 215.364ZM553.734 216.273V218.545H547.984V216.273H553.734ZM549.098 214.182H552.234V222.193C552.234 222.314 552.255 222.417 552.297 222.5C552.339 222.58 552.403 222.64 552.49 222.682C552.577 222.72 552.689 222.739 552.825 222.739C552.92 222.739 553.03 222.727 553.155 222.705C553.284 222.682 553.378 222.663 553.439 222.648L553.893 224.852C553.753 224.894 553.553 224.945 553.291 225.006C553.034 225.066 552.727 225.106 552.371 225.125C551.651 225.163 551.047 225.089 550.558 224.903C550.07 224.714 549.702 224.417 549.456 224.011C549.21 223.606 549.09 223.098 549.098 222.489V214.182ZM559.102 225.159C558.17 225.159 557.367 224.981 556.693 224.625C556.023 224.265 555.506 223.75 555.142 223.08C554.782 222.405 554.602 221.598 554.602 220.659C554.602 219.758 554.784 218.97 555.148 218.295C555.511 217.621 556.025 217.097 556.688 216.722C557.35 216.347 558.133 216.159 559.034 216.159C559.693 216.159 560.29 216.261 560.824 216.466C561.358 216.67 561.814 216.968 562.193 217.358C562.572 217.744 562.864 218.214 563.068 218.767C563.273 219.32 563.375 219.943 563.375 220.636V221.364H555.58V219.636H560.489C560.485 219.386 560.42 219.167 560.295 218.977C560.174 218.784 560.009 218.634 559.801 218.528C559.597 218.419 559.364 218.364 559.102 218.364C558.848 218.364 558.616 218.419 558.403 218.528C558.191 218.634 558.021 218.782 557.892 218.972C557.767 219.161 557.701 219.383 557.693 219.636V221.5C557.693 221.78 557.752 222.03 557.869 222.25C557.987 222.47 558.155 222.642 558.375 222.767C558.595 222.892 558.86 222.955 559.17 222.955C559.386 222.955 559.583 222.924 559.761 222.864C559.943 222.803 560.098 222.716 560.227 222.602C560.356 222.485 560.451 222.345 560.511 222.182H563.375C563.277 222.788 563.044 223.314 562.676 223.761C562.309 224.205 561.822 224.549 561.216 224.795C560.614 225.038 559.909 225.159 559.102 225.159ZM564.655 225V216.273H567.632V217.932H567.723C567.905 217.386 568.215 216.955 568.655 216.636C569.094 216.318 569.617 216.159 570.223 216.159C570.837 216.159 571.365 216.322 571.808 216.648C572.251 216.97 572.518 217.398 572.609 217.932H572.7C572.848 217.398 573.162 216.97 573.643 216.648C574.125 216.322 574.689 216.159 575.337 216.159C576.174 216.159 576.852 216.428 577.371 216.966C577.893 217.504 578.155 218.22 578.155 219.114V225H575.018V219.909C575.018 219.527 574.922 219.227 574.729 219.011C574.536 218.792 574.276 218.682 573.95 218.682C573.628 218.682 573.373 218.792 573.183 219.011C572.998 219.227 572.905 219.527 572.905 219.909V225H569.905V219.909C569.905 219.527 569.808 219.227 569.615 219.011C569.422 218.792 569.162 218.682 568.837 218.682C568.621 218.682 568.435 218.731 568.28 218.83C568.125 218.928 568.003 219.07 567.916 219.256C567.833 219.437 567.791 219.655 567.791 219.909V225H564.655Z" fill="#181818" fill-opacity="0.75"/>
<g filter="url(#filter14_d_129_793)">
<rect x="525" y="39" width="72" height="72" rx="8" fill="white" fill-opacity="0.75" shape-rendering="crispEdges"/>
</g>
<path d="M543.795 81V72.2727H546.932V81H543.795ZM545.364 71.3636C544.939 71.3636 544.576 71.2235 544.273 70.9432C543.97 70.6629 543.818 70.3258 543.818 69.9318C543.818 69.5379 543.97 69.2008 544.273 68.9205C544.576 68.6402 544.939 68.5 545.364 68.5C545.792 68.5 546.155 68.6402 546.455 68.9205C546.758 69.2008 546.909 69.5379 546.909 69.9318C546.909 70.3258 546.758 70.6629 546.455 70.9432C546.155 71.2235 545.792 71.3636 545.364 71.3636ZM553.734 72.2727V74.5455H547.984V72.2727H553.734ZM549.098 70.1818H552.234V78.1932C552.234 78.3144 552.255 78.4167 552.297 78.5C552.339 78.5795 552.403 78.6402 552.49 78.6818C552.577 78.7197 552.689 78.7386 552.825 78.7386C552.92 78.7386 553.03 78.7273 553.155 78.7045C553.284 78.6818 553.378 78.6629 553.439 78.6477L553.893 80.8523C553.753 80.8939 553.553 80.9451 553.291 81.0057C553.034 81.0663 552.727 81.1061 552.371 81.125C551.651 81.1629 551.047 81.089 550.558 80.9034C550.07 80.714 549.702 80.4167 549.456 80.0114C549.21 79.6061 549.09 79.0985 549.098 78.4886V70.1818ZM559.102 81.1591C558.17 81.1591 557.367 80.9811 556.693 80.625C556.023 80.2652 555.506 79.75 555.142 79.0795C554.782 78.4053 554.602 77.5985 554.602 76.6591C554.602 75.7576 554.784 74.9697 555.148 74.2955C555.511 73.6212 556.025 73.0966 556.688 72.7216C557.35 72.3466 558.133 72.1591 559.034 72.1591C559.693 72.1591 560.29 72.2614 560.824 72.4659C561.358 72.6705 561.814 72.9678 562.193 73.358C562.572 73.7443 562.864 74.214 563.068 74.767C563.273 75.3201 563.375 75.9432 563.375 76.6364V77.3636H555.58V75.6364H560.489C560.485 75.3864 560.42 75.1667 560.295 74.9773C560.174 74.7841 560.009 74.6345 559.801 74.5284C559.597 74.4186 559.364 74.3636 559.102 74.3636C558.848 74.3636 558.616 74.4186 558.403 74.5284C558.191 74.6345 558.021 74.7822 557.892 74.9716C557.767 75.161 557.701 75.3826 557.693 75.6364V77.5C557.693 77.7803 557.752 78.0303 557.869 78.25C557.987 78.4697 558.155 78.642 558.375 78.767C558.595 78.892 558.86 78.9545 559.17 78.9545C559.386 78.9545 559.583 78.9242 559.761 78.8636C559.943 78.803 560.098 78.7159 560.227 78.6023C560.356 78.4848 560.451 78.3447 560.511 78.1818H563.375C563.277 78.7879 563.044 79.3144 562.676 79.7614C562.309 80.2045 561.822 80.5492 561.216 80.7955C560.614 81.0379 559.909 81.1591 559.102 81.1591ZM564.655 81V72.2727H567.632V73.9318H567.723C567.905 73.3864 568.215 72.9545 568.655 72.6364C569.094 72.3182 569.617 72.1591 570.223 72.1591C570.837 72.1591 571.365 72.322 571.808 72.6477C572.251 72.9697 572.518 73.3977 572.609 73.9318H572.7C572.848 73.3977 573.162 72.9697 573.643 72.6477C574.125 72.322 574.689 72.1591 575.337 72.1591C576.174 72.1591 576.852 72.428 577.371 72.9659C577.893 73.5038 578.155 74.2197 578.155 75.1136V81H575.018V75.9091C575.018 75.5265 574.922 75.2273 574.729 75.0114C574.536 74.7917 574.276 74.6818 573.95 74.6818C573.628 74.6818 573.373 74.7917 573.183 75.0114C572.998 75.2273 572.905 75.5265 572.905 75.9091V81H569.905V75.9091C569.905 75.5265 569.808 75.2273 569.615 75.0114C569.422 74.7917 569.162 74.6818 568.837 74.6818C568.621 74.6818 568.435 74.7311 568.28 74.8295C568.125 74.928 568.003 75.0701 567.916 75.2557C567.833 75.4375 567.791 75.6553 567.791 75.9091V81H564.655Z" fill="#181818" fill-opacity="0.75"/>
<g filter="url(#filter15_d_129_793)">
<rect x="669" y="39" width="72" height="72" rx="8" fill="white" fill-opacity="0.75" shape-rendering="crispEdges"/>
</g>
<path d="M687.795 81V72.2727H690.932V81H687.795ZM689.364 71.3636C688.939 71.3636 688.576 71.2235 688.273 70.9432C687.97 70.6629 687.818 70.3258 687.818 69.9318C687.818 69.5379 687.97 69.2008 688.273 68.9205C688.576 68.6402 688.939 68.5 689.364 68.5C689.792 68.5 690.155 68.6402 690.455 68.9205C690.758 69.2008 690.909 69.5379 690.909 69.9318C690.909 70.3258 690.758 70.6629 690.455 70.9432C690.155 71.2235 689.792 71.3636 689.364 71.3636ZM697.734 72.2727V74.5455H691.984V72.2727H697.734ZM693.098 70.1818H696.234V78.1932C696.234 78.3144 696.255 78.4167 696.297 78.5C696.339 78.5795 696.403 78.6402 696.49 78.6818C696.577 78.7197 696.689 78.7386 696.825 78.7386C696.92 78.7386 697.03 78.7273 697.155 78.7045C697.284 78.6818 697.378 78.6629 697.439 78.6477L697.893 80.8523C697.753 80.8939 697.553 80.9451 697.291 81.0057C697.034 81.0663 696.727 81.1061 696.371 81.125C695.651 81.1629 695.047 81.089 694.558 80.9034C694.07 80.714 693.702 80.4167 693.456 80.0114C693.21 79.6061 693.09 79.0985 693.098 78.4886V70.1818ZM703.102 81.1591C702.17 81.1591 701.367 80.9811 700.693 80.625C700.023 80.2652 699.506 79.75 699.142 79.0795C698.782 78.4053 698.602 77.5985 698.602 76.6591C698.602 75.7576 698.784 74.9697 699.148 74.2955C699.511 73.6212 700.025 73.0966 700.688 72.7216C701.35 72.3466 702.133 72.1591 703.034 72.1591C703.693 72.1591 704.29 72.2614 704.824 72.4659C705.358 72.6705 705.814 72.9678 706.193 73.358C706.572 73.7443 706.864 74.214 707.068 74.767C707.273 75.3201 707.375 75.9432 707.375 76.6364V77.3636H699.58V75.6364H704.489C704.485 75.3864 704.42 75.1667 704.295 74.9773C704.174 74.7841 704.009 74.6345 703.801 74.5284C703.597 74.4186 703.364 74.3636 703.102 74.3636C702.848 74.3636 702.616 74.4186 702.403 74.5284C702.191 74.6345 702.021 74.7822 701.892 74.9716C701.767 75.161 701.701 75.3826 701.693 75.6364V77.5C701.693 77.7803 701.752 78.0303 701.869 78.25C701.987 78.4697 702.155 78.642 702.375 78.767C702.595 78.892 702.86 78.9545 703.17 78.9545C703.386 78.9545 703.583 78.9242 703.761 78.8636C703.943 78.803 704.098 78.7159 704.227 78.6023C704.356 78.4848 704.451 78.3447 704.511 78.1818H707.375C707.277 78.7879 707.044 79.3144 706.676 79.7614C706.309 80.2045 705.822 80.5492 705.216 80.7955C704.614 81.0379 703.909 81.1591 703.102 81.1591ZM708.655 81V72.2727H711.632V73.9318H711.723C711.905 73.3864 712.215 72.9545 712.655 72.6364C713.094 72.3182 713.617 72.1591 714.223 72.1591C714.837 72.1591 715.365 72.322 715.808 72.6477C716.251 72.9697 716.518 73.3977 716.609 73.9318H716.7C716.848 73.3977 717.162 72.9697 717.643 72.6477C718.125 72.322 718.689 72.1591 719.337 72.1591C720.174 72.1591 720.852 72.428 721.371 72.9659C721.893 73.5038 722.155 74.2197 722.155 75.1136V81H719.018V75.9091C719.018 75.5265 718.922 75.2273 718.729 75.0114C718.536 74.7917 718.276 74.6818 717.95 74.6818C717.628 74.6818 717.373 74.7917 717.183 75.0114C716.998 75.2273 716.905 75.5265 716.905 75.9091V81H713.905V75.9091C713.905 75.5265 713.808 75.2273 713.615 75.0114C713.422 74.7917 713.162 74.6818 712.837 74.6818C712.621 74.6818 712.435 74.7311 712.28 74.8295C712.125 74.928 712.003 75.0701 711.916 75.2557C711.833 75.4375 711.791 75.6553 711.791 75.9091V81H708.655Z" fill="#181818" fill-opacity="0.75"/>
<g filter="url(#filter16_d_129_793)">
<rect x="597" y="111" width="72" height="72" rx="8" fill="white" fill-opacity="0.75" shape-rendering="crispEdges"/>
</g>
<path d="M615.795 153V144.273H618.932V153H615.795ZM617.364 143.364C616.939 143.364 616.576 143.223 616.273 142.943C615.97 142.663 615.818 142.326 615.818 141.932C615.818 141.538 615.97 141.201 616.273 140.92C616.576 140.64 616.939 140.5 617.364 140.5C617.792 140.5 618.155 140.64 618.455 140.92C618.758 141.201 618.909 141.538 618.909 141.932C618.909 142.326 618.758 142.663 618.455 142.943C618.155 143.223 617.792 143.364 617.364 143.364ZM625.734 144.273V146.545H619.984V144.273H625.734ZM621.098 142.182H624.234V150.193C624.234 150.314 624.255 150.417 624.297 150.5C624.339 150.58 624.403 150.64 624.49 150.682C624.577 150.72 624.689 150.739 624.825 150.739C624.92 150.739 625.03 150.727 625.155 150.705C625.284 150.682 625.378 150.663 625.439 150.648L625.893 152.852C625.753 152.894 625.553 152.945 625.291 153.006C625.034 153.066 624.727 153.106 624.371 153.125C623.651 153.163 623.047 153.089 622.558 152.903C622.07 152.714 621.702 152.417 621.456 152.011C621.21 151.606 621.09 151.098 621.098 150.489V142.182ZM631.102 153.159C630.17 153.159 629.367 152.981 628.693 152.625C628.023 152.265 627.506 151.75 627.142 151.08C626.782 150.405 626.602 149.598 626.602 148.659C626.602 147.758 626.784 146.97 627.148 146.295C627.511 145.621 628.025 145.097 628.688 144.722C629.35 144.347 630.133 144.159 631.034 144.159C631.693 144.159 632.29 144.261 632.824 144.466C633.358 144.67 633.814 144.968 634.193 145.358C634.572 145.744 634.864 146.214 635.068 146.767C635.273 147.32 635.375 147.943 635.375 148.636V149.364H627.58V147.636H632.489C632.485 147.386 632.42 147.167 632.295 146.977C632.174 146.784 632.009 146.634 631.801 146.528C631.597 146.419 631.364 146.364 631.102 146.364C630.848 146.364 630.616 146.419 630.403 146.528C630.191 146.634 630.021 146.782 629.892 146.972C629.767 147.161 629.701 147.383 629.693 147.636V149.5C629.693 149.78 629.752 150.03 629.869 150.25C629.987 150.47 630.155 150.642 630.375 150.767C630.595 150.892 630.86 150.955 631.17 150.955C631.386 150.955 631.583 150.924 631.761 150.864C631.943 150.803 632.098 150.716 632.227 150.602C632.356 150.485 632.451 150.345 632.511 150.182H635.375C635.277 150.788 635.044 151.314 634.676 151.761C634.309 152.205 633.822 152.549 633.216 152.795C632.614 153.038 631.909 153.159 631.102 153.159ZM636.655 153V144.273H639.632V145.932H639.723C639.905 145.386 640.215 144.955 640.655 144.636C641.094 144.318 641.617 144.159 642.223 144.159C642.837 144.159 643.365 144.322 643.808 144.648C644.251 144.97 644.518 145.398 644.609 145.932H644.7C644.848 145.398 645.162 144.97 645.643 144.648C646.125 144.322 646.689 144.159 647.337 144.159C648.174 144.159 648.852 144.428 649.371 144.966C649.893 145.504 650.155 146.22 650.155 147.114V153H647.018V147.909C647.018 147.527 646.922 147.227 646.729 147.011C646.536 146.792 646.276 146.682 645.95 146.682C645.628 146.682 645.373 146.792 645.183 147.011C644.998 147.227 644.905 147.527 644.905 147.909V153H641.905V147.909C641.905 147.527 641.808 147.227 641.615 147.011C641.422 146.792 641.162 146.682 640.837 146.682C640.621 146.682 640.435 146.731 640.28 146.83C640.125 146.928 640.003 147.07 639.916 147.256C639.833 147.437 639.791 147.655 639.791 147.909V153H636.655Z" fill="#181818" fill-opacity="0.75"/>
<g filter="url(#filter17_d_129_793)">
<rect x="525" y="111" width="72" height="72" rx="8" fill="white" fill-opacity="0.75" shape-rendering="crispEdges"/>
</g>
<path d="M543.795 153V144.273H546.932V153H543.795ZM545.364 143.364C544.939 143.364 544.576 143.223 544.273 142.943C543.97 142.663 543.818 142.326 543.818 141.932C543.818 141.538 543.97 141.201 544.273 140.92C544.576 140.64 544.939 140.5 545.364 140.5C545.792 140.5 546.155 140.64 546.455 140.92C546.758 141.201 546.909 141.538 546.909 141.932C546.909 142.326 546.758 142.663 546.455 142.943C546.155 143.223 545.792 143.364 545.364 143.364ZM553.734 144.273V146.545H547.984V144.273H553.734ZM549.098 142.182H552.234V150.193C552.234 150.314 552.255 150.417 552.297 150.5C552.339 150.58 552.403 150.64 552.49 150.682C552.577 150.72 552.689 150.739 552.825 150.739C552.92 150.739 553.03 150.727 553.155 150.705C553.284 150.682 553.378 150.663 553.439 150.648L553.893 152.852C553.753 152.894 553.553 152.945 553.291 153.006C553.034 153.066 552.727 153.106 552.371 153.125C551.651 153.163 551.047 153.089 550.558 152.903C550.07 152.714 549.702 152.417 549.456 152.011C549.21 151.606 549.09 151.098 549.098 150.489V142.182ZM559.102 153.159C558.17 153.159 557.367 152.981 556.693 152.625C556.023 152.265 555.506 151.75 555.142 151.08C554.782 150.405 554.602 149.598 554.602 148.659C554.602 147.758 554.784 146.97 555.148 146.295C555.511 145.621 556.025 145.097 556.688 144.722C557.35 144.347 558.133 144.159 559.034 144.159C559.693 144.159 560.29 144.261 560.824 144.466C561.358 144.67 561.814 144.968 562.193 145.358C562.572 145.744 562.864 146.214 563.068 146.767C563.273 147.32 563.375 147.943 563.375 148.636V149.364H555.58V147.636H560.489C560.485 147.386 560.42 147.167 560.295 146.977C560.174 146.784 560.009 146.634 559.801 146.528C559.597 146.419 559.364 146.364 559.102 146.364C558.848 146.364 558.616 146.419 558.403 146.528C558.191 146.634 558.021 146.782 557.892 146.972C557.767 147.161 557.701 147.383 557.693 147.636V149.5C557.693 149.78 557.752 150.03 557.869 150.25C557.987 150.47 558.155 150.642 558.375 150.767C558.595 150.892 558.86 150.955 559.17 150.955C559.386 150.955 559.583 150.924 559.761 150.864C559.943 150.803 560.098 150.716 560.227 150.602C560.356 150.485 560.451 150.345 560.511 150.182H563.375C563.277 150.788 563.044 151.314 562.676 151.761C562.309 152.205 561.822 152.549 561.216 152.795C560.614 153.038 559.909 153.159 559.102 153.159ZM564.655 153V144.273H567.632V145.932H567.723C567.905 145.386 568.215 144.955 568.655 144.636C569.094 144.318 569.617 144.159 570.223 144.159C570.837 144.159 571.365 144.322 571.808 144.648C572.251 144.97 572.518 145.398 572.609 145.932H572.7C572.848 145.398 573.162 144.97 573.643 144.648C574.125 144.322 574.689 144.159 575.337 144.159C576.174 144.159 576.852 144.428 577.371 144.966C577.893 145.504 578.155 146.22 578.155 147.114V153H575.018V147.909C575.018 147.527 574.922 147.227 574.729 147.011C574.536 146.792 574.276 146.682 573.95 146.682C573.628 146.682 573.373 146.792 573.183 147.011C572.998 147.227 572.905 147.527 572.905 147.909V153H569.905V147.909C569.905 147.527 569.808 147.227 569.615 147.011C569.422 146.792 569.162 146.682 568.837 146.682C568.621 146.682 568.435 146.731 568.28 146.83C568.125 146.928 568.003 147.07 567.916 147.256C567.833 147.437 567.791 147.655 567.791 147.909V153H564.655Z" fill="#181818" fill-opacity="0.75"/>
<g filter="url(#filter18_d_129_793)">
<rect x="669" y="111" width="72" height="72" rx="8" fill="white" fill-opacity="0.75" shape-rendering="crispEdges"/>
</g>
<path d="M687.795 153V144.273H690.932V153H687.795ZM689.364 143.364C688.939 143.364 688.576 143.223 688.273 142.943C687.97 142.663 687.818 142.326 687.818 141.932C687.818 141.538 687.97 141.201 688.273 140.92C688.576 140.64 688.939 140.5 689.364 140.5C689.792 140.5 690.155 140.64 690.455 140.92C690.758 141.201 690.909 141.538 690.909 141.932C690.909 142.326 690.758 142.663 690.455 142.943C690.155 143.223 689.792 143.364 689.364 143.364ZM697.734 144.273V146.545H691.984V144.273H697.734ZM693.098 142.182H696.234V150.193C696.234 150.314 696.255 150.417 696.297 150.5C696.339 150.58 696.403 150.64 696.49 150.682C696.577 150.72 696.689 150.739 696.825 150.739C696.92 150.739 697.03 150.727 697.155 150.705C697.284 150.682 697.378 150.663 697.439 150.648L697.893 152.852C697.753 152.894 697.553 152.945 697.291 153.006C697.034 153.066 696.727 153.106 696.371 153.125C695.651 153.163 695.047 153.089 694.558 152.903C694.07 152.714 693.702 152.417 693.456 152.011C693.21 151.606 693.09 151.098 693.098 150.489V142.182ZM703.102 153.159C702.17 153.159 701.367 152.981 700.693 152.625C700.023 152.265 699.506 151.75 699.142 151.08C698.782 150.405 698.602 149.598 698.602 148.659C698.602 147.758 698.784 146.97 699.148 146.295C699.511 145.621 700.025 145.097 700.688 144.722C701.35 144.347 702.133 144.159 703.034 144.159C703.693 144.159 704.29 144.261 704.824 144.466C705.358 144.67 705.814 144.968 706.193 145.358C706.572 145.744 706.864 146.214 707.068 146.767C707.273 147.32 707.375 147.943 707.375 148.636V149.364H699.58V147.636H704.489C704.485 147.386 704.42 147.167 704.295 146.977C704.174 146.784 704.009 146.634 703.801 146.528C703.597 146.419 703.364 146.364 703.102 146.364C702.848 146.364 702.616 146.419 702.403 146.528C702.191 146.634 702.021 146.782 701.892 146.972C701.767 147.161 701.701 147.383 701.693 147.636V149.5C701.693 149.78 701.752 150.03 701.869 150.25C701.987 150.47 702.155 150.642 702.375 150.767C702.595 150.892 702.86 150.955 703.17 150.955C703.386 150.955 703.583 150.924 703.761 150.864C703.943 150.803 704.098 150.716 704.227 150.602C704.356 150.485 704.451 150.345 704.511 150.182H707.375C707.277 150.788 707.044 151.314 706.676 151.761C706.309 152.205 705.822 152.549 705.216 152.795C704.614 153.038 703.909 153.159 703.102 153.159ZM708.655 153V144.273H711.632V145.932H711.723C711.905 145.386 712.215 144.955 712.655 144.636C713.094 144.318 713.617 144.159 714.223 144.159C714.837 144.159 715.365 144.322 715.808 144.648C716.251 144.97 716.518 145.398 716.609 145.932H716.7C716.848 145.398 717.162 144.97 717.643 144.648C718.125 144.322 718.689 144.159 719.337 144.159C720.174 144.159 720.852 144.428 721.371 144.966C721.893 145.504 722.155 146.22 722.155 147.114V153H719.018V147.909C719.018 147.527 718.922 147.227 718.729 147.011C718.536 146.792 718.276 146.682 717.95 146.682C717.628 146.682 717.373 146.792 717.183 147.011C716.998 147.227 716.905 147.527 716.905 147.909V153H713.905V147.909C713.905 147.527 713.808 147.227 713.615 147.011C713.422 146.792 713.162 146.682 712.837 146.682C712.621 146.682 712.435 146.731 712.28 146.83C712.125 146.928 712.003 147.07 711.916 147.256C711.833 147.437 711.791 147.655 711.791 147.909V153H708.655Z" fill="#181818" fill-opacity="0.75"/>
<g filter="url(#filter19_d_129_793)">
<rect x="669" y="183" width="72" height="72" rx="8" fill="white" fill-opacity="0.75" shape-rendering="crispEdges"/>
</g>
<path d="M687.795 225V216.273H690.932V225H687.795ZM689.364 215.364C688.939 215.364 688.576 215.223 688.273 214.943C687.97 214.663 687.818 214.326 687.818 213.932C687.818 213.538 687.97 213.201 688.273 212.92C688.576 212.64 688.939 212.5 689.364 212.5C689.792 212.5 690.155 212.64 690.455 212.92C690.758 213.201 690.909 213.538 690.909 213.932C690.909 214.326 690.758 214.663 690.455 214.943C690.155 215.223 689.792 215.364 689.364 215.364ZM697.734 216.273V218.545H691.984V216.273H697.734ZM693.098 214.182H696.234V222.193C696.234 222.314 696.255 222.417 696.297 222.5C696.339 222.58 696.403 222.64 696.49 222.682C696.577 222.72 696.689 222.739 696.825 222.739C696.92 222.739 697.03 222.727 697.155 222.705C697.284 222.682 697.378 222.663 697.439 222.648L697.893 224.852C697.753 224.894 697.553 224.945 697.291 225.006C697.034 225.066 696.727 225.106 696.371 225.125C695.651 225.163 695.047 225.089 694.558 224.903C694.07 224.714 693.702 224.417 693.456 224.011C693.21 223.606 693.09 223.098 693.098 222.489V214.182ZM703.102 225.159C702.17 225.159 701.367 224.981 700.693 224.625C700.023 224.265 699.506 223.75 699.142 223.08C698.782 222.405 698.602 221.598 698.602 220.659C698.602 219.758 698.784 218.97 699.148 218.295C699.511 217.621 700.025 217.097 700.688 216.722C701.35 216.347 702.133 216.159 703.034 216.159C703.693 216.159 704.29 216.261 704.824 216.466C705.358 216.67 705.814 216.968 706.193 217.358C706.572 217.744 706.864 218.214 707.068 218.767C707.273 219.32 707.375 219.943 707.375 220.636V221.364H699.58V219.636H704.489C704.485 219.386 704.42 219.167 704.295 218.977C704.174 218.784 704.009 218.634 703.801 218.528C703.597 218.419 703.364 218.364 703.102 218.364C702.848 218.364 702.616 218.419 702.403 218.528C702.191 218.634 702.021 218.782 701.892 218.972C701.767 219.161 701.701 219.383 701.693 219.636V221.5C701.693 221.78 701.752 222.03 701.869 222.25C701.987 222.47 702.155 222.642 702.375 222.767C702.595 222.892 702.86 222.955 703.17 222.955C703.386 222.955 703.583 222.924 703.761 222.864C703.943 222.803 704.098 222.716 704.227 222.602C704.356 222.485 704.451 222.345 704.511 222.182H707.375C707.277 222.788 707.044 223.314 706.676 223.761C706.309 224.205 705.822 224.549 705.216 224.795C704.614 225.038 703.909 225.159 703.102 225.159ZM708.655 225V216.273H711.632V217.932H711.723C711.905 217.386 712.215 216.955 712.655 216.636C713.094 216.318 713.617 216.159 714.223 216.159C714.837 216.159 715.365 216.322 715.808 216.648C716.251 216.97 716.518 217.398 716.609 217.932H716.7C716.848 217.398 717.162 216.97 717.643 216.648C718.125 216.322 718.689 216.159 719.337 216.159C720.174 216.159 720.852 216.428 721.371 216.966C721.893 217.504 722.155 218.22 722.155 219.114V225H719.018V219.909C719.018 219.527 718.922 219.227 718.729 219.011C718.536 218.792 718.276 218.682 717.95 218.682C717.628 218.682 717.373 218.792 717.183 219.011C716.998 219.227 716.905 219.527 716.905 219.909V225H713.905V219.909C713.905 219.527 713.808 219.227 713.615 219.011C713.422 218.792 713.162 218.682 712.837 218.682C712.621 218.682 712.435 218.731 712.28 218.83C712.125 218.928 712.003 219.07 711.916 219.256C711.833 219.437 711.791 219.655 711.791 219.909V225H708.655Z" fill="#181818" fill-opacity="0.75"/>
<path d="M714.977 27.1591C714.045 27.1591 713.242 26.9811 712.568 26.625C711.898 26.2652 711.381 25.75 711.017 25.0795C710.657 24.4053 710.477 23.5985 710.477 22.6591C710.477 21.7576 710.659 20.9697 711.023 20.2955C711.386 19.6212 711.9 19.0966 712.562 18.7216C713.225 18.3466 714.008 18.1591 714.909 18.1591C715.568 18.1591 716.165 18.2614 716.699 18.4659C717.233 18.6705 717.689 18.9678 718.068 19.358C718.447 19.7443 718.739 20.214 718.943 20.767C719.148 21.3201 719.25 21.9432 719.25 22.6364V23.3636H711.455V21.6364H716.364C716.36 21.3864 716.295 21.1667 716.17 20.9773C716.049 20.7841 715.884 20.6345 715.676 20.5284C715.472 20.4186 715.239 20.3636 714.977 20.3636C714.723 20.3636 714.491 20.4186 714.278 20.5284C714.066 20.6345 713.896 20.7822 713.767 20.9716C713.642 21.161 713.576 21.3826 713.568 21.6364V23.5C713.568 23.7803 713.627 24.0303 713.744 24.25C713.862 24.4697 714.03 24.642 714.25 24.767C714.47 24.892 714.735 24.9545 715.045 24.9545C715.261 24.9545 715.458 24.9242 715.636 24.8636C715.818 24.803 715.973 24.7159 716.102 24.6023C716.231 24.4848 716.326 24.3447 716.386 24.1818H719.25C719.152 24.7879 718.919 25.3144 718.551 25.7614C718.184 26.2045 717.697 26.5492 717.091 26.7955C716.489 27.0379 715.784 27.1591 714.977 27.1591ZM723.666 22.0909V27H720.53V18.2727H723.507V19.9318H723.598C723.787 19.3788 724.121 18.9451 724.598 18.6307C725.079 18.3163 725.64 18.1591 726.28 18.1591C726.897 18.1591 727.433 18.3011 727.888 18.5852C728.346 18.8655 728.7 19.2519 728.95 19.7443C729.204 20.2367 729.329 20.7992 729.325 21.4318V27H726.189V22.0909C726.193 21.6591 726.083 21.3201 725.859 21.0739C725.64 20.8277 725.333 20.7045 724.939 20.7045C724.681 20.7045 724.456 20.7614 724.263 20.875C724.073 20.9848 723.928 21.1439 723.825 21.3523C723.723 21.5568 723.67 21.803 723.666 22.0909ZM734.033 27.1136C733.411 27.1136 732.839 26.9508 732.317 26.625C731.798 26.2992 731.381 25.8049 731.067 25.142C730.756 24.4792 730.601 23.6439 730.601 22.6364C730.601 21.5833 730.764 20.7273 731.089 20.0682C731.419 19.4091 731.843 18.9261 732.362 18.6193C732.885 18.3125 733.434 18.1591 734.01 18.1591C734.442 18.1591 734.821 18.2348 735.146 18.3864C735.472 18.5341 735.745 18.733 735.964 18.983C736.184 19.2292 736.351 19.5 736.464 19.7955H736.51V15.3636H739.646V27H736.533V25.5682H736.464C736.343 25.8636 736.169 26.1288 735.942 26.3636C735.718 26.5947 735.446 26.7784 735.124 26.9148C734.805 27.0473 734.442 27.1136 734.033 27.1136ZM735.192 24.7045C735.48 24.7045 735.726 24.6212 735.93 24.4545C736.139 24.2841 736.298 24.0455 736.408 23.7386C736.521 23.428 736.578 23.0606 736.578 22.6364C736.578 22.2045 736.521 21.8352 736.408 21.5284C736.298 21.2178 736.139 20.9811 735.93 20.8182C735.726 20.6515 735.48 20.5682 735.192 20.5682C734.904 20.5682 734.658 20.6515 734.453 20.8182C734.252 20.9811 734.097 21.2178 733.987 21.5284C733.881 21.8352 733.828 22.2045 733.828 22.6364C733.828 23.0682 733.881 23.4394 733.987 23.75C734.097 24.0568 734.252 24.2936 734.453 24.4602C734.658 24.6231 734.904 24.7045 735.192 24.7045Z" fill="#181818" fill-opacity="0.75"/>
<defs>
<filter id="filter0_d_129_793" x="0" y="0" width="376" height="376" filterUnits="userSpaceOnUse" color-interpolation-filters="sRGB">
<feFlood flood-opacity="0" result="BackgroundImageFix"/>
<feColorMatrix in="SourceAlpha" type="matrix" values="0 0 0 0 0 0 0 0 0 0 0 0 0 0 0 0 0 0 127 0" result="hardAlpha"/>
<feOffset dy="4"/>
<feGaussianBlur stdDeviation="4"/>
<feComposite in2="hardAlpha" operator="out"/>
<feColorMatrix type="matrix" values="0 0 0 0 0.129412 0 0 0 0 0.447059 0 0 0 0 1 0 0 0 0.25 0"/>
<feBlend mode="normal" in2="BackgroundImageFix" result="effect1_dropShadow_129_793"/>
<feBlend mode="normal" in="SourceGraphic" in2="effect1_dropShadow_129_793" result="shape"/>
</filter>
<filter id="filter1_d_129_793" x="88" y="179" width="88" height="88" filterUnits="userSpaceOnUse" color-interpolation-filters="sRGB">
<feFlood flood-opacity="0" result="BackgroundImageFix"/>
<feColorMatrix in="SourceAlpha" type="matrix" values="0 0 0 0 0 0 0 0 0 0 0 0 0 0 0 0 0 0 127 0" result="hardAlpha"/>
<feOffset dy="4"/>
<feGaussianBlur stdDeviation="4"/>
<feComposite in2="hardAlpha" operator="out"/>
<feColorMatrix type="matrix" values="0 0 0 0 1 0 0 0 0 1 0 0 0 0 1 0 0 0 0.25 0"/>
<feBlend mode="normal" in2="BackgroundImageFix" result="effect1_dropShadow_129_793"/>
<feBlend mode="normal" in="SourceGraphic" in2="effect1_dropShadow_129_793" result="shape"/>
</filter>
<filter id="filter2_d_129_793" x="88" y="35" width="88" height="88" filterUnits="userSpaceOnUse" color-interpolation-filters="sRGB">
<feFlood flood-opacity="0" result="BackgroundImageFix"/>
<feColorMatrix in="SourceAlpha" type="matrix" values="0 0 0 0 0 0 0 0 0 0 0 0 0 0 0 0 0 0 127 0" result="hardAlpha"/>
<feOffset dy="4"/>
<feGaussianBlur stdDeviation="4"/>
<feComposite in2="hardAlpha" operator="out"/>
<feColorMatrix type="matrix" values="0 0 0 0 1 0 0 0 0 1 0 0 0 0 1 0 0 0 0.25 0"/>
<feBlend mode="normal" in2="BackgroundImageFix" result="effect1_dropShadow_129_793"/>
<feBlend mode="normal" in="SourceGraphic" in2="effect1_dropShadow_129_793" result="shape"/>
</filter>
<filter id="filter3_d_129_793" x="16" y="179" width="88" height="88" filterUnits="userSpaceOnUse" color-interpolation-filters="sRGB">
<feFlood flood-opacity="0" result="BackgroundImageFix"/>
<feColorMatrix in="SourceAlpha" type="matrix" values="0 0 0 0 0 0 0 0 0 0 0 0 0 0 0 0 0 0 127 0" result="hardAlpha"/>
<feOffset dy="4"/>
<feGaussianBlur stdDeviation="4"/>
<feComposite in2="hardAlpha" operator="out"/>
<feColorMatrix type="matrix" values="0 0 0 0 1 0 0 0 0 1 0 0 0 0 1 0 0 0 0.25 0"/>
<feBlend mode="normal" in2="BackgroundImageFix" result="effect1_dropShadow_129_793"/>
<feBlend mode="normal" in="SourceGraphic" in2="effect1_dropShadow_129_793" result="shape"/>
</filter>
<filter id="filter4_d_129_793" x="16" y="35" width="88" height="88" filterUnits="userSpaceOnUse" color-interpolation-filters="sRGB">
<feFlood flood-opacity="0" result="BackgroundImageFix"/>
<feColorMatrix in="SourceAlpha" type="matrix" values="0 0 0 0 0 0 0 0 0 0 0 0 0 0 0 0 0 0 127 0" result="hardAlpha"/>
<feOffset dy="4"/>
<feGaussianBlur stdDeviation="4"/>
<feComposite in2="hardAlpha" operator="out"/>
<feColorMatrix type="matrix" values="0 0 0 0 1 0 0 0 0 1 0 0 0 0 1 0 0 0 0.25 0"/>
<feBlend mode="normal" in2="BackgroundImageFix" result="effect1_dropShadow_129_793"/>
<feBlend mode="normal" in="SourceGraphic" in2="effect1_dropShadow_129_793" result="shape"/>
</filter>
<filter id="filter5_d_129_793" x="160" y="35" width="88" height="88" filterUnits="userSpaceOnUse" color-interpolation-filters="sRGB">
<feFlood flood-opacity="0" result="BackgroundImageFix"/>
<feColorMatrix in="SourceAlpha" type="matrix" values="0 0 0 0 0 0 0 0 0 0 0 0 0 0 0 0 0 0 127 0" result="hardAlpha"/>
<feOffset dy="4"/>
<feGaussianBlur stdDeviation="4"/>
<feComposite in2="hardAlpha" operator="out"/>
<feColorMatrix type="matrix" values="0 0 0 0 1 0 0 0 0 1 0 0 0 0 1 0 0 0 0.25 0"/>
<feBlend mode="normal" in2="BackgroundImageFix" result="effect1_dropShadow_129_793"/>
<feBlend mode="normal" in="SourceGraphic" in2="effect1_dropShadow_129_793" result="shape"/>
</filter>
<filter id="filter6_d_129_793" x="88" y="107" width="88" height="88" filterUnits="userSpaceOnUse" color-interpolation-filters="sRGB">
<feFlood flood-opacity="0" result="BackgroundImageFix"/>
<feColorMatrix in="SourceAlpha" type="matrix" values="0 0 0 0 0 0 0 0 0 0 0 0 0 0 0 0 0 0 127 0" result="hardAlpha"/>
<feOffset dy="4"/>
<feGaussianBlur stdDeviation="4"/>
<feComposite in2="hardAlpha" operator="out"/>
<feColorMatrix type="matrix" values="0 0 0 0 1 0 0 0 0 1 0 0 0 0 1 0 0 0 0.25 0"/>
<feBlend mode="normal" in2="BackgroundImageFix" result="effect1_dropShadow_129_793"/>
<feBlend mode="normal" in="SourceGraphic" in2="effect1_dropShadow_129_793" result="shape"/>
</filter>
<filter id="filter7_d_129_793" x="16" y="107" width="88" height="88" filterUnits="userSpaceOnUse" color-interpolation-filters="sRGB">
<feFlood flood-opacity="0" result="BackgroundImageFix"/>
<feColorMatrix in="SourceAlpha" type="matrix" values="0 0 0 0 0 0 0 0 0 0 0 0 0 0 0 0 0 0 127 0" result="hardAlpha"/>
<feOffset dy="4"/>
<feGaussianBlur stdDeviation="4"/>
<feComposite in2="hardAlpha" operator="out"/>
<feColorMatrix type="matrix" values="0 0 0 0 1 0 0 0 0 1 0 0 0 0 1 0 0 0 0.25 0"/>
<feBlend mode="normal" in2="BackgroundImageFix" result="effect1_dropShadow_129_793"/>
<feBlend mode="normal" in="SourceGraphic" in2="effect1_dropShadow_129_793" result="shape"/>
</filter>
<filter id="filter8_d_129_793" x="160" y="107" width="88" height="88" filterUnits="userSpaceOnUse" color-interpolation-filters="sRGB">
<feFlood flood-opacity="0" result="BackgroundImageFix"/>
<feColorMatrix in="SourceAlpha" type="matrix" values="0 0 0 0 0 0 0 0 0 0 0 0 0 0 0 0 0 0 127 0" result="hardAlpha"/>
<feOffset dy="4"/>
<feGaussianBlur stdDeviation="4"/>
<feComposite in2="hardAlpha" operator="out"/>
<feColorMatrix type="matrix" values="0 0 0 0 1 0 0 0 0 1 0 0 0 0 1 0 0 0 0.25 0"/>
<feBlend mode="normal" in2="BackgroundImageFix" result="effect1_dropShadow_129_793"/>
<feBlend mode="normal" in="SourceGraphic" in2="effect1_dropShadow_129_793" result="shape"/>
</filter>
<filter id="filter9_d_129_793" x="160" y="179" width="88" height="88" filterUnits="userSpaceOnUse" color-interpolation-filters="sRGB">
<feFlood flood-opacity="0" result="BackgroundImageFix"/>
<feColorMatrix in="SourceAlpha" type="matrix" values="0 0 0 0 0 0 0 0 0 0 0 0 0 0 0 0 0 0 127 0" result="hardAlpha"/>
<feOffset dy="4"/>
<feGaussianBlur stdDeviation="4"/>
<feComposite in2="hardAlpha" operator="out"/>
<feColorMatrix type="matrix" values="0 0 0 0 1 0 0 0 0 1 0 0 0 0 1 0 0 0 0.25 0"/>
<feBlend mode="normal" in2="BackgroundImageFix" result="effect1_dropShadow_129_793"/>
<feBlend mode="normal" in="SourceGraphic" in2="effect1_dropShadow_129_793" result="shape"/>
</filter>
<filter id="filter10_d_129_793" x="389" y="0" width="376" height="376" filterUnits="userSpaceOnUse" color-interpolation-filters="sRGB">
<feFlood flood-opacity="0" result="BackgroundImageFix"/>
<feColorMatrix in="SourceAlpha" type="matrix" values="0 0 0 0 0 0 0 0 0 0 0 0 0 0 0 0 0 0 127 0" result="hardAlpha"/>
<feOffset dy="4"/>
<feGaussianBlur stdDeviation="4"/>
<feComposite in2="hardAlpha" operator="out"/>
<feColorMatrix type="matrix" values="0 0 0 0 0.129412 0 0 0 0 0.447059 0 0 0 0 1 0 0 0 0.25 0"/>
<feBlend mode="normal" in2="BackgroundImageFix" result="effect1_dropShadow_129_793"/>
<feBlend mode="normal" in="SourceGraphic" in2="effect1_dropShadow_129_793" result="shape"/>
</filter>
<filter id="filter11_d_129_793" x="589" y="179" width="88" height="88" filterUnits="userSpaceOnUse" color-interpolation-filters="sRGB">
<feFlood flood-opacity="0" result="BackgroundImageFix"/>
<feColorMatrix in="SourceAlpha" type="matrix" values="0 0 0 0 0 0 0 0 0 0 0 0 0 0 0 0 0 0 127 0" result="hardAlpha"/>
<feOffset dy="4"/>
<feGaussianBlur stdDeviation="4"/>
<feComposite in2="hardAlpha" operator="out"/>
<feColorMatrix type="matrix" values="0 0 0 0 1 0 0 0 0 1 0 0 0 0 1 0 0 0 0.25 0"/>
<feBlend mode="normal" in2="BackgroundImageFix" result="effect1_dropShadow_129_793"/>
<feBlend mode="normal" in="SourceGraphic" in2="effect1_dropShadow_129_793" result="shape"/>
</filter>
<filter id="filter12_d_129_793" x="589" y="35" width="88" height="88" filterUnits="userSpaceOnUse" color-interpolation-filters="sRGB">
<feFlood flood-opacity="0" result="BackgroundImageFix"/>
<feColorMatrix in="SourceAlpha" type="matrix" values="0 0 0 0 0 0 0 0 0 0 0 0 0 0 0 0 0 0 127 0" result="hardAlpha"/>
<feOffset dy="4"/>
<feGaussianBlur stdDeviation="4"/>
<feComposite in2="hardAlpha" operator="out"/>
<feColorMatrix type="matrix" values="0 0 0 0 1 0 0 0 0 1 0 0 0 0 1 0 0 0 0.25 0"/>
<feBlend mode="normal" in2="BackgroundImageFix" result="effect1_dropShadow_129_793"/>
<feBlend mode="normal" in="SourceGraphic" in2="effect1_dropShadow_129_793" result="shape"/>
</filter>
<filter id="filter13_d_129_793" x="517" y="179" width="88" height="88" filterUnits="userSpaceOnUse" color-interpolation-filters="sRGB">
<feFlood flood-opacity="0" result="BackgroundImageFix"/>
<feColorMatrix in="SourceAlpha" type="matrix" values="0 0 0 0 0 0 0 0 0 0 0 0 0 0 0 0 0 0 127 0" result="hardAlpha"/>
<feOffset dy="4"/>
<feGaussianBlur stdDeviation="4"/>
<feComposite in2="hardAlpha" operator="out"/>
<feColorMatrix type="matrix" values="0 0 0 0 1 0 0 0 0 1 0 0 0 0 1 0 0 0 0.25 0"/>
<feBlend mode="normal" in2="BackgroundImageFix" result="effect1_dropShadow_129_793"/>
<feBlend mode="normal" in="SourceGraphic" in2="effect1_dropShadow_129_793" result="shape"/>
</filter>
<filter id="filter14_d_129_793" x="517" y="35" width="88" height="88" filterUnits="userSpaceOnUse" color-interpolation-filters="sRGB">
<feFlood flood-opacity="0" result="BackgroundImageFix"/>
<feColorMatrix in="SourceAlpha" type="matrix" values="0 0 0 0 0 0 0 0 0 0 0 0 0 0 0 0 0 0 127 0" result="hardAlpha"/>
<feOffset dy="4"/>
<feGaussianBlur stdDeviation="4"/>
<feComposite in2="hardAlpha" operator="out"/>
<feColorMatrix type="matrix" values="0 0 0 0 1 0 0 0 0 1 0 0 0 0 1 0 0 0 0.25 0"/>
<feBlend mode="normal" in2="BackgroundImageFix" result="effect1_dropShadow_129_793"/>
<feBlend mode="normal" in="SourceGraphic" in2="effect1_dropShadow_129_793" result="shape"/>
</filter>
<filter id="filter15_d_129_793" x="661" y="35" width="88" height="88" filterUnits="userSpaceOnUse" color-interpolation-filters="sRGB">
<feFlood flood-opacity="0" result="BackgroundImageFix"/>
<feColorMatrix in="SourceAlpha" type="matrix" values="0 0 0 0 0 0 0 0 0 0 0 0 0 0 0 0 0 0 127 0" result="hardAlpha"/>
<feOffset dy="4"/>
<feGaussianBlur stdDeviation="4"/>
<feComposite in2="hardAlpha" operator="out"/>
<feColorMatrix type="matrix" values="0 0 0 0 1 0 0 0 0 1 0 0 0 0 1 0 0 0 0.25 0"/>
<feBlend mode="normal" in2="BackgroundImageFix" result="effect1_dropShadow_129_793"/>
<feBlend mode="normal" in="SourceGraphic" in2="effect1_dropShadow_129_793" result="shape"/>
</filter>
<filter id="filter16_d_129_793" x="589" y="107" width="88" height="88" filterUnits="userSpaceOnUse" color-interpolation-filters="sRGB">
<feFlood flood-opacity="0" result="BackgroundImageFix"/>
<feColorMatrix in="SourceAlpha" type="matrix" values="0 0 0 0 0 0 0 0 0 0 0 0 0 0 0 0 0 0 127 0" result="hardAlpha"/>
<feOffset dy="4"/>
<feGaussianBlur stdDeviation="4"/>
<feComposite in2="hardAlpha" operator="out"/>
<feColorMatrix type="matrix" values="0 0 0 0 1 0 0 0 0 1 0 0 0 0 1 0 0 0 0.25 0"/>
<feBlend mode="normal" in2="BackgroundImageFix" result="effect1_dropShadow_129_793"/>
<feBlend mode="normal" in="SourceGraphic" in2="effect1_dropShadow_129_793" result="shape"/>
</filter>
<filter id="filter17_d_129_793" x="517" y="107" width="88" height="88" filterUnits="userSpaceOnUse" color-interpolation-filters="sRGB">
<feFlood flood-opacity="0" result="BackgroundImageFix"/>
<feColorMatrix in="SourceAlpha" type="matrix" values="0 0 0 0 0 0 0 0 0 0 0 0 0 0 0 0 0 0 127 0" result="hardAlpha"/>
<feOffset dy="4"/>
<feGaussianBlur stdDeviation="4"/>
<feComposite in2="hardAlpha" operator="out"/>
<feColorMatrix type="matrix" values="0 0 0 0 1 0 0 0 0 1 0 0 0 0 1 0 0 0 0.25 0"/>
<feBlend mode="normal" in2="BackgroundImageFix" result="effect1_dropShadow_129_793"/>
<feBlend mode="normal" in="SourceGraphic" in2="effect1_dropShadow_129_793" result="shape"/>
</filter>
<filter id="filter18_d_129_793" x="661" y="107" width="88" height="88" filterUnits="userSpaceOnUse" color-interpolation-filters="sRGB">
<feFlood flood-opacity="0" result="BackgroundImageFix"/>
<feColorMatrix in="SourceAlpha" type="matrix" values="0 0 0 0 0 0 0 0 0 0 0 0 0 0 0 0 0 0 127 0" result="hardAlpha"/>
<feOffset dy="4"/>
<feGaussianBlur stdDeviation="4"/>
<feComposite in2="hardAlpha" operator="out"/>
<feColorMatrix type="matrix" values="0 0 0 0 1 0 0 0 0 1 0 0 0 0 1 0 0 0 0.25 0"/>
<feBlend mode="normal" in2="BackgroundImageFix" result="effect1_dropShadow_129_793"/>
<feBlend mode="normal" in="SourceGraphic" in2="effect1_dropShadow_129_793" result="shape"/>
</filter>
<filter id="filter19_d_129_793" x="661" y="179" width="88" height="88" filterUnits="userSpaceOnUse" color-interpolation-filters="sRGB">
<feFlood flood-opacity="0" result="BackgroundImageFix"/>
<feColorMatrix in="SourceAlpha" type="matrix" values="0 0 0 0 0 0 0 0 0 0 0 0 0 0 0 0 0 0 127 0" result="hardAlpha"/>
<feOffset dy="4"/>
<feGaussianBlur stdDeviation="4"/>
<feComposite in2="hardAlpha" operator="out"/>
<feColorMatrix type="matrix" values="0 0 0 0 1 0 0 0 0 1 0 0 0 0 1 0 0 0 0.25 0"/>
<feBlend mode="normal" in2="BackgroundImageFix" result="effect1_dropShadow_129_793"/>
<feBlend mode="normal" in="SourceGraphic" in2="effect1_dropShadow_129_793" result="shape"/>
</filter>
</defs>
</svg>
