<svg width="765" height="376" viewBox="0 0 765 376" fill="none" xmlns="http://www.w3.org/2000/svg">
<g filter="url(#filter0_d_129_793)">
<rect x="8" y="4" width="360" height="360" rx="8" fill="#2172FF" fill-opacity="0.8" shape-rendering="crispEdges"/>
</g>
<g filter="url(#filter1_d_129_793)">
<rect x="96" y="266" width="72" height="72" rx="8" fill="white" fill-opacity="0.75" shape-rendering="crispEdges"/>
</g>
<path d="M114.795 308V299.273H117.932V308H114.795ZM116.364 298.364C115.939 298.364 115.576 298.223 115.273 297.943C114.97 297.663 114.818 297.326 114.818 296.932C114.818 296.538 114.97 296.201 115.273 295.92C115.576 295.64 115.939 295.5 116.364 295.5C116.792 295.5 117.155 295.64 117.455 295.92C117.758 296.201 117.909 296.538 117.909 296.932C117.909 297.326 117.758 297.663 117.455 297.943C117.155 298.223 116.792 298.364 116.364 298.364ZM124.734 299.273V301.545H118.984V299.273H124.734ZM120.098 297.182H123.234V305.193C123.234 305.314 123.255 305.417 123.297 305.5C123.339 305.58 123.403 305.64 123.49 305.682C123.577 305.72 123.689 305.739 123.825 305.739C123.92 305.739 124.03 305.727 124.155 305.705C124.284 305.682 124.378 305.663 124.439 305.648L124.893 307.852C124.753 307.894 124.553 307.945 124.291 308.006C124.034 308.066 123.727 308.106 123.371 308.125C122.651 308.163 122.047 308.089 121.558 307.903C121.07 307.714 120.702 307.417 120.456 307.011C120.21 306.606 120.09 306.098 120.098 305.489V297.182ZM130.102 308.159C129.17 308.159 128.367 307.981 127.693 307.625C127.023 307.265 126.506 306.75 126.142 306.08C125.782 305.405 125.602 304.598 125.602 303.659C125.602 302.758 125.784 301.97 126.148 301.295C126.511 300.621 127.025 300.097 127.688 299.722C128.35 299.347 129.133 299.159 130.034 299.159C130.693 299.159 131.29 299.261 131.824 299.466C132.358 299.67 132.814 299.968 133.193 300.358C133.572 300.744 133.864 301.214 134.068 301.767C134.273 302.32 134.375 302.943 134.375 303.636V304.364H126.58V302.636H131.489C131.485 302.386 131.42 302.167 131.295 301.977C131.174 301.784 131.009 301.634 130.801 301.528C130.597 301.419 130.364 301.364 130.102 301.364C129.848 301.364 129.616 301.419 129.403 301.528C129.191 301.634 129.021 301.782 128.892 301.972C128.767 302.161 128.701 302.383 128.693 302.636V304.5C128.693 304.78 128.752 305.03 128.869 305.25C128.987 305.47 129.155 305.642 129.375 305.767C129.595 305.892 129.86 305.955 130.17 305.955C130.386 305.955 130.583 305.924 130.761 305.864C130.943 305.803 131.098 305.716 131.227 305.602C131.356 305.485 131.451 305.345 131.511 305.182H134.375C134.277 305.788 134.044 306.314 133.676 306.761C133.309 307.205 132.822 307.549 132.216 307.795C131.614 308.038 130.909 308.159 130.102 308.159ZM135.655 308V299.273H138.632V300.932H138.723C138.905 300.386 139.215 299.955 139.655 299.636C140.094 299.318 140.617 299.159 141.223 299.159C141.837 299.159 142.365 299.322 142.808 299.648C143.251 299.97 143.518 300.398 143.609 300.932H143.7C143.848 300.398 144.162 299.97 144.643 299.648C145.125 299.322 145.689 299.159 146.337 299.159C147.174 299.159 147.852 299.428 148.371 299.966C148.893 300.504 149.155 301.22 149.155 302.114V308H146.018V302.909C146.018 302.527 145.922 302.227 145.729 302.011C145.536 301.792 145.276 301.682 144.95 301.682C144.628 301.682 144.373 301.792 144.183 302.011C143.998 302.227 143.905 302.527 143.905 302.909V308H140.905V302.909C140.905 302.527 140.808 302.227 140.615 302.011C140.422 301.792 140.162 301.682 139.837 301.682C139.621 301.682 139.435 301.731 139.28 301.83C139.125 301.928 139.003 302.07 138.916 302.256C138.833 302.437 138.791 302.655 138.791 302.909V308H135.655Z" fill="#181818" fill-opacity="0.75"/>
<g filter="url(#filter2_d_129_793)">
<rect x="96" y="49" width="72" height="72" rx="8" fill="white" fill-opacity="0.75" shape-rendering="crispEdges"/>
</g>
<path d="M114.795 91V82.2727H117.932V91H114.795ZM116.364 81.3636C115.939 81.3636 115.576 81.2235 115.273 80.9432C114.97 80.6629 114.818 80.3258 114.818 79.9318C114.818 79.5379 114.97 79.2008 115.273 78.9205C115.576 78.6402 115.939 78.5 116.364 78.5C116.792 78.5 117.155 78.6402 117.455 78.9205C117.758 79.2008 117.909 79.5379 117.909 79.9318C117.909 80.3258 117.758 80.6629 117.455 80.9432C117.155 81.2235 116.792 81.3636 116.364 81.3636ZM124.734 82.2727V84.5455H118.984V82.2727H124.734ZM120.098 80.1818H123.234V88.1932C123.234 88.3144 123.255 88.4167 123.297 88.5C123.339 88.5795 123.403 88.6402 123.49 88.6818C123.577 88.7197 123.689 88.7386 123.825 88.7386C123.92 88.7386 124.03 88.7273 124.155 88.7045C124.284 88.6818 124.378 88.6629 124.439 88.6477L124.893 90.8523C124.753 90.8939 124.553 90.9451 124.291 91.0057C124.034 91.0663 123.727 91.1061 123.371 91.125C122.651 91.1629 122.047 91.089 121.558 90.9034C121.07 90.714 120.702 90.4167 120.456 90.0114C120.21 89.6061 120.09 89.0985 120.098 88.4886V80.1818ZM130.102 91.1591C129.17 91.1591 128.367 90.9811 127.693 90.625C127.023 90.2652 126.506 89.75 126.142 89.0795C125.782 88.4053 125.602 87.5985 125.602 86.6591C125.602 85.7576 125.784 84.9697 126.148 84.2955C126.511 83.6212 127.025 83.0966 127.688 82.7216C128.35 82.3466 129.133 82.1591 130.034 82.1591C130.693 82.1591 131.29 82.2614 131.824 82.4659C132.358 82.6705 132.814 82.9678 133.193 83.358C133.572 83.7443 133.864 84.214 134.068 84.767C134.273 85.3201 134.375 85.9432 134.375 86.6364V87.3636H126.58V85.6364H131.489C131.485 85.3864 131.42 85.1667 131.295 84.9773C131.174 84.7841 131.009 84.6345 130.801 84.5284C130.597 84.4186 130.364 84.3636 130.102 84.3636C129.848 84.3636 129.616 84.4186 129.403 84.5284C129.191 84.6345 129.021 84.7822 128.892 84.9716C128.767 85.161 128.701 85.3826 128.693 85.6364V87.5C128.693 87.7803 128.752 88.0303 128.869 88.25C128.987 88.4697 129.155 88.642 129.375 88.767C129.595 88.892 129.86 88.9545 130.17 88.9545C130.386 88.9545 130.583 88.9242 130.761 88.8636C130.943 88.803 131.098 88.7159 131.227 88.6023C131.356 88.4848 131.451 88.3447 131.511 88.1818H134.375C134.277 88.7879 134.044 89.3144 133.676 89.7614C133.309 90.2045 132.822 90.5492 132.216 90.7955C131.614 91.0379 130.909 91.1591 130.102 91.1591ZM135.655 91V82.2727H138.632V83.9318H138.723C138.905 83.3864 139.215 82.9545 139.655 82.6364C140.094 82.3182 140.617 82.1591 141.223 82.1591C141.837 82.1591 142.365 82.322 142.808 82.6477C143.251 82.9697 143.518 83.3977 143.609 83.9318H143.7C143.848 83.3977 144.162 82.9697 144.643 82.6477C145.125 82.322 145.689 82.1591 146.337 82.1591C147.174 82.1591 147.852 82.428 148.371 82.9659C148.893 83.5038 149.155 84.2197 149.155 85.1136V91H146.018V85.9091C146.018 85.5265 145.922 85.2273 145.729 85.0114C145.536 84.7917 145.276 84.6818 144.95 84.6818C144.628 84.6818 144.373 84.7917 144.183 85.0114C143.998 85.2273 143.905 85.5265 143.905 85.9091V91H140.905V85.9091C140.905 85.5265 140.808 85.2273 140.615 85.0114C140.422 84.7917 140.162 84.6818 139.837 84.6818C139.621 84.6818 139.435 84.7311 139.28 84.8295C139.125 84.928 139.003 85.0701 138.916 85.2557C138.833 85.4375 138.791 85.6553 138.791 85.9091V91H135.655Z" fill="#181818" fill-opacity="0.75"/>
<g filter="url(#filter3_d_129_793)">
<rect x="24" y="266" width="72" height="72" rx="8" fill="white" fill-opacity="0.75" shape-rendering="crispEdges"/>
</g>
<path d="M42.7955 308V299.273H45.9318V308H42.7955ZM44.3636 298.364C43.9394 298.364 43.5758 298.223 43.2727 297.943C42.9697 297.663 42.8182 297.326 42.8182 296.932C42.8182 296.538 42.9697 296.201 43.2727 295.92C43.5758 295.64 43.9394 295.5 44.3636 295.5C44.7917 295.5 45.1553 295.64 45.4545 295.92C45.7576 296.201 45.9091 296.538 45.9091 296.932C45.9091 297.326 45.7576 297.663 45.4545 297.943C45.1553 298.223 44.7917 298.364 44.3636 298.364ZM52.7344 299.273V301.545H46.9844V299.273H52.7344ZM48.098 297.182H51.2344V305.193C51.2344 305.314 51.2552 305.417 51.2969 305.5C51.3385 305.58 51.4029 305.64 51.4901 305.682C51.5772 305.72 51.6889 305.739 51.8253 305.739C51.92 305.739 52.0298 305.727 52.1548 305.705C52.2836 305.682 52.3783 305.663 52.4389 305.648L52.8935 307.852C52.7533 307.894 52.5526 307.945 52.2912 308.006C52.0336 308.066 51.7268 308.106 51.3707 308.125C50.651 308.163 50.0469 308.089 49.5582 307.903C49.0696 307.714 48.7022 307.417 48.456 307.011C48.2098 306.606 48.0904 306.098 48.098 305.489V297.182ZM58.1023 308.159C57.1705 308.159 56.3674 307.981 55.6932 307.625C55.0227 307.265 54.5057 306.75 54.142 306.08C53.7822 305.405 53.6023 304.598 53.6023 303.659C53.6023 302.758 53.7841 301.97 54.1477 301.295C54.5114 300.621 55.0246 300.097 55.6875 299.722C56.3504 299.347 57.1326 299.159 58.0341 299.159C58.6932 299.159 59.2898 299.261 59.8239 299.466C60.358 299.67 60.8144 299.968 61.1932 300.358C61.572 300.744 61.8636 301.214 62.0682 301.767C62.2727 302.32 62.375 302.943 62.375 303.636V304.364H54.5795V302.636H59.4886C59.4848 302.386 59.4205 302.167 59.2955 301.977C59.1742 301.784 59.0095 301.634 58.8011 301.528C58.5966 301.419 58.3636 301.364 58.1023 301.364C57.8485 301.364 57.6155 301.419 57.4034 301.528C57.1913 301.634 57.0208 301.782 56.892 301.972C56.767 302.161 56.7008 302.383 56.6932 302.636V304.5C56.6932 304.78 56.7519 305.03 56.8693 305.25C56.9867 305.47 57.1553 305.642 57.375 305.767C57.5947 305.892 57.8598 305.955 58.1705 305.955C58.3864 305.955 58.5833 305.924 58.7614 305.864C58.9432 305.803 59.0985 305.716 59.2273 305.602C59.3561 305.485 59.4508 305.345 59.5114 305.182H62.375C62.2765 305.788 62.0436 306.314 61.6761 306.761C61.3087 307.205 60.822 307.549 60.2159 307.795C59.6136 308.038 58.9091 308.159 58.1023 308.159ZM63.6548 308V299.273H66.6321V300.932H66.723C66.9048 300.386 67.2154 299.955 67.6548 299.636C68.0942 299.318 68.617 299.159 69.223 299.159C69.8366 299.159 70.3651 299.322 70.8082 299.648C71.2514 299.97 71.5185 300.398 71.6094 300.932H71.7003C71.848 300.398 72.1624 299.97 72.6435 299.648C73.1245 299.322 73.6889 299.159 74.3366 299.159C75.1738 299.159 75.8518 299.428 76.3707 299.966C76.8935 300.504 77.1548 301.22 77.1548 302.114V308H74.0185V302.909C74.0185 302.527 73.9219 302.227 73.7287 302.011C73.5355 301.792 73.276 301.682 72.9503 301.682C72.6283 301.682 72.3726 301.792 72.1832 302.011C71.9976 302.227 71.9048 302.527 71.9048 302.909V308H68.9048V302.909C68.9048 302.527 68.8082 302.227 68.6151 302.011C68.4219 301.792 68.1624 301.682 67.8366 301.682C67.6207 301.682 67.4351 301.731 67.2798 301.83C67.1245 301.928 67.0033 302.07 66.9162 302.256C66.8329 302.437 66.7912 302.655 66.7912 302.909V308H63.6548Z" fill="#181818" fill-opacity="0.75"/>
<g filter="url(#filter4_d_129_793)">
<rect x="24" y="49" width="72" height="72" rx="8" fill="white" fill-opacity="0.75" shape-rendering="crispEdges"/>
</g>
<path d="M42.7955 91V82.2727H45.9318V91H42.7955ZM44.3636 81.3636C43.9394 81.3636 43.5758 81.2235 43.2727 80.9432C42.9697 80.6629 42.8182 80.3258 42.8182 79.9318C42.8182 79.5379 42.9697 79.2008 43.2727 78.9205C43.5758 78.6402 43.9394 78.5 44.3636 78.5C44.7917 78.5 45.1553 78.6402 45.4545 78.9205C45.7576 79.2008 45.9091 79.5379 45.9091 79.9318C45.9091 80.3258 45.7576 80.6629 45.4545 80.9432C45.1553 81.2235 44.7917 81.3636 44.3636 81.3636ZM52.7344 82.2727V84.5455H46.9844V82.2727H52.7344ZM48.098 80.1818H51.2344V88.1932C51.2344 88.3144 51.2552 88.4167 51.2969 88.5C51.3385 88.5795 51.4029 88.6402 51.4901 88.6818C51.5772 88.7197 51.6889 88.7386 51.8253 88.7386C51.92 88.7386 52.0298 88.7273 52.1548 88.7045C52.2836 88.6818 52.3783 88.6629 52.4389 88.6477L52.8935 90.8523C52.7533 90.8939 52.5526 90.9451 52.2912 91.0057C52.0336 91.0663 51.7268 91.1061 51.3707 91.125C50.651 91.1629 50.0469 91.089 49.5582 90.9034C49.0696 90.714 48.7022 90.4167 48.456 90.0114C48.2098 89.6061 48.0904 89.0985 48.098 88.4886V80.1818ZM58.1023 91.1591C57.1705 91.1591 56.3674 90.9811 55.6932 90.625C55.0227 90.2652 54.5057 89.75 54.142 89.0795C53.7822 88.4053 53.6023 87.5985 53.6023 86.6591C53.6023 85.7576 53.7841 84.9697 54.1477 84.2955C54.5114 83.6212 55.0246 83.0966 55.6875 82.7216C56.3504 82.3466 57.1326 82.1591 58.0341 82.1591C58.6932 82.1591 59.2898 82.2614 59.8239 82.4659C60.358 82.6705 60.8144 82.9678 61.1932 83.358C61.572 83.7443 61.8636 84.214 62.0682 84.767C62.2727 85.3201 62.375 85.9432 62.375 86.6364V87.3636H54.5795V85.6364H59.4886C59.4848 85.3864 59.4205 85.1667 59.2955 84.9773C59.1742 84.7841 59.0095 84.6345 58.8011 84.5284C58.5966 84.4186 58.3636 84.3636 58.1023 84.3636C57.8485 84.3636 57.6155 84.4186 57.4034 84.5284C57.1913 84.6345 57.0208 84.7822 56.892 84.9716C56.767 85.161 56.7008 85.3826 56.6932 85.6364V87.5C56.6932 87.7803 56.7519 88.0303 56.8693 88.25C56.9867 88.4697 57.1553 88.642 57.375 88.767C57.5947 88.892 57.8598 88.9545 58.1705 88.9545C58.3864 88.9545 58.5833 88.9242 58.7614 88.8636C58.9432 88.803 59.0985 88.7159 59.2273 88.6023C59.3561 88.4848 59.4508 88.3447 59.5114 88.1818H62.375C62.2765 88.7879 62.0436 89.3144 61.6761 89.7614C61.3087 90.2045 60.822 90.5492 60.2159 90.7955C59.6136 91.0379 58.9091 91.1591 58.1023 91.1591ZM63.6548 91V82.2727H66.6321V83.9318H66.723C66.9048 83.3864 67.2154 82.9545 67.6548 82.6364C68.0942 82.3182 68.617 82.1591 69.223 82.1591C69.8366 82.1591 70.3651 82.322 70.8082 82.6477C71.2514 82.9697 71.5185 83.3977 71.6094 83.9318H71.7003C71.848 83.3977 72.1624 82.9697 72.6435 82.6477C73.1245 82.322 73.6889 82.1591 74.3366 82.1591C75.1738 82.1591 75.8518 82.428 76.3707 82.9659C76.8935 83.5038 77.1548 84.2197 77.1548 85.1136V91H74.0185V85.9091C74.0185 85.5265 73.9219 85.2273 73.7287 85.0114C73.5355 84.7917 73.276 84.6818 72.9503 84.6818C72.6283 84.6818 72.3726 84.7917 72.1832 85.0114C71.9976 85.2273 71.9048 85.5265 71.9048 85.9091V91H68.9048V85.9091C68.9048 85.5265 68.8082 85.2273 68.6151 85.0114C68.4219 84.7917 68.1624 84.6818 67.8366 84.6818C67.6207 84.6818 67.4351 84.7311 67.2798 84.8295C67.1245 84.928 67.0033 85.0701 66.9162 85.2557C66.8329 85.4375 66.7912 85.6553 66.7912 85.9091V91H63.6548Z" fill="#181818" fill-opacity="0.75"/>
<g filter="url(#filter5_d_129_793)">
<rect x="168" y="49" width="72" height="72" rx="8" fill="white" fill-opacity="0.75" shape-rendering="crispEdges"/>
</g>
<path d="M186.795 91V82.2727H189.932V91H186.795ZM188.364 81.3636C187.939 81.3636 187.576 81.2235 187.273 80.9432C186.97 80.6629 186.818 80.3258 186.818 79.9318C186.818 79.5379 186.97 79.2008 187.273 78.9205C187.576 78.6402 187.939 78.5 188.364 78.5C188.792 78.5 189.155 78.6402 189.455 78.9205C189.758 79.2008 189.909 79.5379 189.909 79.9318C189.909 80.3258 189.758 80.6629 189.455 80.9432C189.155 81.2235 188.792 81.3636 188.364 81.3636ZM196.734 82.2727V84.5455H190.984V82.2727H196.734ZM192.098 80.1818H195.234V88.1932C195.234 88.3144 195.255 88.4167 195.297 88.5C195.339 88.5795 195.403 88.6402 195.49 88.6818C195.577 88.7197 195.689 88.7386 195.825 88.7386C195.92 88.7386 196.03 88.7273 196.155 88.7045C196.284 88.6818 196.378 88.6629 196.439 88.6477L196.893 90.8523C196.753 90.8939 196.553 90.9451 196.291 91.0057C196.034 91.0663 195.727 91.1061 195.371 91.125C194.651 91.1629 194.047 91.089 193.558 90.9034C193.07 90.714 192.702 90.4167 192.456 90.0114C192.21 89.6061 192.09 89.0985 192.098 88.4886V80.1818ZM202.102 91.1591C201.17 91.1591 200.367 90.9811 199.693 90.625C199.023 90.2652 198.506 89.75 198.142 89.0795C197.782 88.4053 197.602 87.5985 197.602 86.6591C197.602 85.7576 197.784 84.9697 198.148 84.2955C198.511 83.6212 199.025 83.0966 199.688 82.7216C200.35 82.3466 201.133 82.1591 202.034 82.1591C202.693 82.1591 203.29 82.2614 203.824 82.4659C204.358 82.6705 204.814 82.9678 205.193 83.358C205.572 83.7443 205.864 84.214 206.068 84.767C206.273 85.3201 206.375 85.9432 206.375 86.6364V87.3636H198.58V85.6364H203.489C203.485 85.3864 203.42 85.1667 203.295 84.9773C203.174 84.7841 203.009 84.6345 202.801 84.5284C202.597 84.4186 202.364 84.3636 202.102 84.3636C201.848 84.3636 201.616 84.4186 201.403 84.5284C201.191 84.6345 201.021 84.7822 200.892 84.9716C200.767 85.161 200.701 85.3826 200.693 85.6364V87.5C200.693 87.7803 200.752 88.0303 200.869 88.25C200.987 88.4697 201.155 88.642 201.375 88.767C201.595 88.892 201.86 88.9545 202.17 88.9545C202.386 88.9545 202.583 88.9242 202.761 88.8636C202.943 88.803 203.098 88.7159 203.227 88.6023C203.356 88.4848 203.451 88.3447 203.511 88.1818H206.375C206.277 88.7879 206.044 89.3144 205.676 89.7614C205.309 90.2045 204.822 90.5492 204.216 90.7955C203.614 91.0379 202.909 91.1591 202.102 91.1591ZM207.655 91V82.2727H210.632V83.9318H210.723C210.905 83.3864 211.215 82.9545 211.655 82.6364C212.094 82.3182 212.617 82.1591 213.223 82.1591C213.837 82.1591 214.365 82.322 214.808 82.6477C215.251 82.9697 215.518 83.3977 215.609 83.9318H215.7C215.848 83.3977 216.162 82.9697 216.643 82.6477C217.125 82.322 217.689 82.1591 218.337 82.1591C219.174 82.1591 219.852 82.428 220.371 82.9659C220.893 83.5038 221.155 84.2197 221.155 85.1136V91H218.018V85.9091C218.018 85.5265 217.922 85.2273 217.729 85.0114C217.536 84.7917 217.276 84.6818 216.95 84.6818C216.628 84.6818 216.373 84.7917 216.183 85.0114C215.998 85.2273 215.905 85.5265 215.905 85.9091V91H212.905V85.9091C212.905 85.5265 212.808 85.2273 212.615 85.0114C212.422 84.7917 212.162 84.6818 211.837 84.6818C211.621 84.6818 211.435 84.7311 211.28 84.8295C211.125 84.928 211.003 85.0701 210.916 85.2557C210.833 85.4375 210.791 85.6553 210.791 85.9091V91H207.655Z" fill="#181818" fill-opacity="0.75"/>
<g filter="url(#filter6_d_129_793)">
<rect x="96" y="158" width="72" height="72" rx="8" fill="white" fill-opacity="0.75" shape-rendering="crispEdges"/>
</g>
<path d="M114.795 200V191.273H117.932V200H114.795ZM116.364 190.364C115.939 190.364 115.576 190.223 115.273 189.943C114.97 189.663 114.818 189.326 114.818 188.932C114.818 188.538 114.97 188.201 115.273 187.92C115.576 187.64 115.939 187.5 116.364 187.5C116.792 187.5 117.155 187.64 117.455 187.92C117.758 188.201 117.909 188.538 117.909 188.932C117.909 189.326 117.758 189.663 117.455 189.943C117.155 190.223 116.792 190.364 116.364 190.364ZM124.734 191.273V193.545H118.984V191.273H124.734ZM120.098 189.182H123.234V197.193C123.234 197.314 123.255 197.417 123.297 197.5C123.339 197.58 123.403 197.64 123.49 197.682C123.577 197.72 123.689 197.739 123.825 197.739C123.92 197.739 124.03 197.727 124.155 197.705C124.284 197.682 124.378 197.663 124.439 197.648L124.893 199.852C124.753 199.894 124.553 199.945 124.291 200.006C124.034 200.066 123.727 200.106 123.371 200.125C122.651 200.163 122.047 200.089 121.558 199.903C121.07 199.714 120.702 199.417 120.456 199.011C120.21 198.606 120.09 198.098 120.098 197.489V189.182ZM130.102 200.159C129.17 200.159 128.367 199.981 127.693 199.625C127.023 199.265 126.506 198.75 126.142 198.08C125.782 197.405 125.602 196.598 125.602 195.659C125.602 194.758 125.784 193.97 126.148 193.295C126.511 192.621 127.025 192.097 127.688 191.722C128.35 191.347 129.133 191.159 130.034 191.159C130.693 191.159 131.29 191.261 131.824 191.466C132.358 191.67 132.814 191.968 133.193 192.358C133.572 192.744 133.864 193.214 134.068 193.767C134.273 194.32 134.375 194.943 134.375 195.636V196.364H126.58V194.636H131.489C131.485 194.386 131.42 194.167 131.295 193.977C131.174 193.784 131.009 193.634 130.801 193.528C130.597 193.419 130.364 193.364 130.102 193.364C129.848 193.364 129.616 193.419 129.403 193.528C129.191 193.634 129.021 193.782 128.892 193.972C128.767 194.161 128.701 194.383 128.693 194.636V196.5C128.693 196.78 128.752 197.03 128.869 197.25C128.987 197.47 129.155 197.642 129.375 197.767C129.595 197.892 129.86 197.955 130.17 197.955C130.386 197.955 130.583 197.924 130.761 197.864C130.943 197.803 131.098 197.716 131.227 197.602C131.356 197.485 131.451 197.345 131.511 197.182H134.375C134.277 197.788 134.044 198.314 133.676 198.761C133.309 199.205 132.822 199.549 132.216 199.795C131.614 200.038 130.909 200.159 130.102 200.159ZM135.655 200V191.273H138.632V192.932H138.723C138.905 192.386 139.215 191.955 139.655 191.636C140.094 191.318 140.617 191.159 141.223 191.159C141.837 191.159 142.365 191.322 142.808 191.648C143.251 191.97 143.518 192.398 143.609 192.932H143.7C143.848 192.398 144.162 191.97 144.643 191.648C145.125 191.322 145.689 191.159 146.337 191.159C147.174 191.159 147.852 191.428 148.371 191.966C148.893 192.504 149.155 193.22 149.155 194.114V200H146.018V194.909C146.018 194.527 145.922 194.227 145.729 194.011C145.536 193.792 145.276 193.682 144.95 193.682C144.628 193.682 144.373 193.792 144.183 194.011C143.998 194.227 143.905 194.527 143.905 194.909V200H140.905V194.909C140.905 194.527 140.808 194.227 140.615 194.011C140.422 193.792 140.162 193.682 139.837 193.682C139.621 193.682 139.435 193.731 139.28 193.83C139.125 193.928 139.003 194.07 138.916 194.256C138.833 194.437 138.791 194.655 138.791 194.909V200H135.655Z" fill="#181818" fill-opacity="0.75"/>
<g filter="url(#filter7_d_129_793)">
<rect x="24" y="158" width="72" height="72" rx="8" fill="white" fill-opacity="0.75" shape-rendering="crispEdges"/>
</g>
<path d="M42.7955 200V191.273H45.9318V200H42.7955ZM44.3636 190.364C43.9394 190.364 43.5758 190.223 43.2727 189.943C42.9697 189.663 42.8182 189.326 42.8182 188.932C42.8182 188.538 42.9697 188.201 43.2727 187.92C43.5758 187.64 43.9394 187.5 44.3636 187.5C44.7917 187.5 45.1553 187.64 45.4545 187.92C45.7576 188.201 45.9091 188.538 45.9091 188.932C45.9091 189.326 45.7576 189.663 45.4545 189.943C45.1553 190.223 44.7917 190.364 44.3636 190.364ZM52.7344 191.273V193.545H46.9844V191.273H52.7344ZM48.098 189.182H51.2344V197.193C51.2344 197.314 51.2552 197.417 51.2969 197.5C51.3385 197.58 51.4029 197.64 51.4901 197.682C51.5772 197.72 51.6889 197.739 51.8253 197.739C51.92 197.739 52.0298 197.727 52.1548 197.705C52.2836 197.682 52.3783 197.663 52.4389 197.648L52.8935 199.852C52.7533 199.894 52.5526 199.945 52.2912 200.006C52.0336 200.066 51.7268 200.106 51.3707 200.125C50.651 200.163 50.0469 200.089 49.5582 199.903C49.0696 199.714 48.7022 199.417 48.456 199.011C48.2098 198.606 48.0904 198.098 48.098 197.489V189.182ZM58.1023 200.159C57.1705 200.159 56.3674 199.981 55.6932 199.625C55.0227 199.265 54.5057 198.75 54.142 198.08C53.7822 197.405 53.6023 196.598 53.6023 195.659C53.6023 194.758 53.7841 193.97 54.1477 193.295C54.5114 192.621 55.0246 192.097 55.6875 191.722C56.3504 191.347 57.1326 191.159 58.0341 191.159C58.6932 191.159 59.2898 191.261 59.8239 191.466C60.358 191.67 60.8144 191.968 61.1932 192.358C61.572 192.744 61.8636 193.214 62.0682 193.767C62.2727 194.32 62.375 194.943 62.375 195.636V196.364H54.5795V194.636H59.4886C59.4848 194.386 59.4205 194.167 59.2955 193.977C59.1742 193.784 59.0095 193.634 58.8011 193.528C58.5966 193.419 58.3636 193.364 58.1023 193.364C57.8485 193.364 57.6155 193.419 57.4034 193.528C57.1913 193.634 57.0208 193.782 56.892 193.972C56.767 194.161 56.7008 194.383 56.6932 194.636V196.5C56.6932 196.78 56.7519 197.03 56.8693 197.25C56.9867 197.47 57.1553 197.642 57.375 197.767C57.5947 197.892 57.8598 197.955 58.1705 197.955C58.3864 197.955 58.5833 197.924 58.7614 197.864C58.9432 197.803 59.0985 197.716 59.2273 197.602C59.3561 197.485 59.4508 197.345 59.5114 197.182H62.375C62.2765 197.788 62.0436 198.314 61.6761 198.761C61.3087 199.205 60.822 199.549 60.2159 199.795C59.6136 200.038 58.9091 200.159 58.1023 200.159ZM63.6548 200V191.273H66.6321V192.932H66.723C66.9048 192.386 67.2154 191.955 67.6548 191.636C68.0942 191.318 68.617 191.159 69.223 191.159C69.8366 191.159 70.3651 191.322 70.8082 191.648C71.2514 191.97 71.5185 192.398 71.6094 192.932H71.7003C71.848 192.398 72.1624 191.97 72.6435 191.648C73.1245 191.322 73.6889 191.159 74.3366 191.159C75.1738 191.159 75.8518 191.428 76.3707 191.966C76.8935 192.504 77.1548 193.22 77.1548 194.114V200H74.0185V194.909C74.0185 194.527 73.9219 194.227 73.7287 194.011C73.5355 193.792 73.276 193.682 72.9503 193.682C72.6283 193.682 72.3726 193.792 72.1832 194.011C71.9976 194.227 71.9048 194.527 71.9048 194.909V200H68.9048V194.909C68.9048 194.527 68.8082 194.227 68.6151 194.011C68.4219 193.792 68.1624 193.682 67.8366 193.682C67.6207 193.682 67.4351 193.731 67.2798 193.83C67.1245 193.928 67.0033 194.07 66.9162 194.256C66.8329 194.437 66.7912 194.655 66.7912 194.909V200H63.6548Z" fill="#181818" fill-opacity="0.75"/>
<g filter="url(#filter8_d_129_793)">
<rect x="168" y="158" width="72" height="72" rx="8" fill="white" fill-opacity="0.75" shape-rendering="crispEdges"/>
</g>
<path d="M186.795 200V191.273H189.932V200H186.795ZM188.364 190.364C187.939 190.364 187.576 190.223 187.273 189.943C186.97 189.663 186.818 189.326 186.818 188.932C186.818 188.538 186.97 188.201 187.273 187.92C187.576 187.64 187.939 187.5 188.364 187.5C188.792 187.5 189.155 187.64 189.455 187.92C189.758 188.201 189.909 188.538 189.909 188.932C189.909 189.326 189.758 189.663 189.455 189.943C189.155 190.223 188.792 190.364 188.364 190.364ZM196.734 191.273V193.545H190.984V191.273H196.734ZM192.098 189.182H195.234V197.193C195.234 197.314 195.255 197.417 195.297 197.5C195.339 197.58 195.403 197.64 195.49 197.682C195.577 197.72 195.689 197.739 195.825 197.739C195.92 197.739 196.03 197.727 196.155 197.705C196.284 197.682 196.378 197.663 196.439 197.648L196.893 199.852C196.753 199.894 196.553 199.945 196.291 200.006C196.034 200.066 195.727 200.106 195.371 200.125C194.651 200.163 194.047 200.089 193.558 199.903C193.07 199.714 192.702 199.417 192.456 199.011C192.21 198.606 192.09 198.098 192.098 197.489V189.182ZM202.102 200.159C201.17 200.159 200.367 199.981 199.693 199.625C199.023 199.265 198.506 198.75 198.142 198.08C197.782 197.405 197.602 196.598 197.602 195.659C197.602 194.758 197.784 193.97 198.148 193.295C198.511 192.621 199.025 192.097 199.688 191.722C200.35 191.347 201.133 191.159 202.034 191.159C202.693 191.159 203.29 191.261 203.824 191.466C204.358 191.67 204.814 191.968 205.193 192.358C205.572 192.744 205.864 193.214 206.068 193.767C206.273 194.32 206.375 194.943 206.375 195.636V196.364H198.58V194.636H203.489C203.485 194.386 203.42 194.167 203.295 193.977C203.174 193.784 203.009 193.634 202.801 193.528C202.597 193.419 202.364 193.364 202.102 193.364C201.848 193.364 201.616 193.419 201.403 193.528C201.191 193.634 201.021 193.782 200.892 193.972C200.767 194.161 200.701 194.383 200.693 194.636V196.5C200.693 196.78 200.752 197.03 200.869 197.25C200.987 197.47 201.155 197.642 201.375 197.767C201.595 197.892 201.86 197.955 202.17 197.955C202.386 197.955 202.583 197.924 202.761 197.864C202.943 197.803 203.098 197.716 203.227 197.602C203.356 197.485 203.451 197.345 203.511 197.182H206.375C206.277 197.788 206.044 198.314 205.676 198.761C205.309 199.205 204.822 199.549 204.216 199.795C203.614 200.038 202.909 200.159 202.102 200.159ZM207.655 200V191.273H210.632V192.932H210.723C210.905 192.386 211.215 191.955 211.655 191.636C212.094 191.318 212.617 191.159 213.223 191.159C213.837 191.159 214.365 191.322 214.808 191.648C215.251 191.97 215.518 192.398 215.609 192.932H215.7C215.848 192.398 216.162 191.97 216.643 191.648C217.125 191.322 217.689 191.159 218.337 191.159C219.174 191.159 219.852 191.428 220.371 191.966C220.893 192.504 221.155 193.22 221.155 194.114V200H218.018V194.909C218.018 194.527 217.922 194.227 217.729 194.011C217.536 193.792 217.276 193.682 216.95 193.682C216.628 193.682 216.373 193.792 216.183 194.011C215.998 194.227 215.905 194.527 215.905 194.909V200H212.905V194.909C212.905 194.527 212.808 194.227 212.615 194.011C212.422 193.792 212.162 193.682 211.837 193.682C211.621 193.682 211.435 193.731 211.28 193.83C211.125 193.928 211.003 194.07 210.916 194.256C210.833 194.437 210.791 194.655 210.791 194.909V200H207.655Z" fill="#181818" fill-opacity="0.75"/>
<g filter="url(#filter9_d_129_793)">
<rect x="168" y="266" width="72" height="72" rx="8" fill="white" fill-opacity="0.75" shape-rendering="crispEdges"/>
</g>
<path d="M186.795 308V299.273H189.932V308H186.795ZM188.364 298.364C187.939 298.364 187.576 298.223 187.273 297.943C186.97 297.663 186.818 297.326 186.818 296.932C186.818 296.538 186.97 296.201 187.273 295.92C187.576 295.64 187.939 295.5 188.364 295.5C188.792 295.5 189.155 295.64 189.455 295.92C189.758 296.201 189.909 296.538 189.909 296.932C189.909 297.326 189.758 297.663 189.455 297.943C189.155 298.223 188.792 298.364 188.364 298.364ZM196.734 299.273V301.545H190.984V299.273H196.734ZM192.098 297.182H195.234V305.193C195.234 305.314 195.255 305.417 195.297 305.5C195.339 305.58 195.403 305.64 195.49 305.682C195.577 305.72 195.689 305.739 195.825 305.739C195.92 305.739 196.03 305.727 196.155 305.705C196.284 305.682 196.378 305.663 196.439 305.648L196.893 307.852C196.753 307.894 196.553 307.945 196.291 308.006C196.034 308.066 195.727 308.106 195.371 308.125C194.651 308.163 194.047 308.089 193.558 307.903C193.07 307.714 192.702 307.417 192.456 307.011C192.21 306.606 192.09 306.098 192.098 305.489V297.182ZM202.102 308.159C201.17 308.159 200.367 307.981 199.693 307.625C199.023 307.265 198.506 306.75 198.142 306.08C197.782 305.405 197.602 304.598 197.602 303.659C197.602 302.758 197.784 301.97 198.148 301.295C198.511 300.621 199.025 300.097 199.688 299.722C200.35 299.347 201.133 299.159 202.034 299.159C202.693 299.159 203.29 299.261 203.824 299.466C204.358 299.67 204.814 299.968 205.193 300.358C205.572 300.744 205.864 301.214 206.068 301.767C206.273 302.32 206.375 302.943 206.375 303.636V304.364H198.58V302.636H203.489C203.485 302.386 203.42 302.167 203.295 301.977C203.174 301.784 203.009 301.634 202.801 301.528C202.597 301.419 202.364 301.364 202.102 301.364C201.848 301.364 201.616 301.419 201.403 301.528C201.191 301.634 201.021 301.782 200.892 301.972C200.767 302.161 200.701 302.383 200.693 302.636V304.5C200.693 304.78 200.752 305.03 200.869 305.25C200.987 305.47 201.155 305.642 201.375 305.767C201.595 305.892 201.86 305.955 202.17 305.955C202.386 305.955 202.583 305.924 202.761 305.864C202.943 305.803 203.098 305.716 203.227 305.602C203.356 305.485 203.451 305.345 203.511 305.182H206.375C206.277 305.788 206.044 306.314 205.676 306.761C205.309 307.205 204.822 307.549 204.216 307.795C203.614 308.038 202.909 308.159 202.102 308.159ZM207.655 308V299.273H210.632V300.932H210.723C210.905 300.386 211.215 299.955 211.655 299.636C212.094 299.318 212.617 299.159 213.223 299.159C213.837 299.159 214.365 299.322 214.808 299.648C215.251 299.97 215.518 300.398 215.609 300.932H215.7C215.848 300.398 216.162 299.97 216.643 299.648C217.125 299.322 217.689 299.159 218.337 299.159C219.174 299.159 219.852 299.428 220.371 299.966C220.893 300.504 221.155 301.22 221.155 302.114V308H218.018V302.909C218.018 302.527 217.922 302.227 217.729 302.011C217.536 301.792 217.276 301.682 216.95 301.682C216.628 301.682 216.373 301.792 216.183 302.011C215.998 302.227 215.905 302.527 215.905 302.909V308H212.905V302.909C212.905 302.527 212.808 302.227 212.615 302.011C212.422 301.792 212.162 301.682 211.837 301.682C211.621 301.682 211.435 301.731 211.28 301.83C211.125 301.928 211.003 302.07 210.916 302.256C210.833 302.437 210.791 302.655 210.791 302.909V308H207.655Z" fill="#181818" fill-opacity="0.75"/>
<path d="M139.773 21.1136H136.886C136.871 20.9356 136.809 20.7822 136.699 20.6534C136.589 20.5246 136.447 20.4261 136.273 20.358C136.102 20.286 135.913 20.25 135.705 20.25C135.436 20.25 135.205 20.2992 135.011 20.3977C134.818 20.4962 134.723 20.6364 134.727 20.8182C134.723 20.947 134.778 21.0663 134.892 21.1761C135.009 21.286 135.235 21.3712 135.568 21.4318L137.341 21.75C138.235 21.9129 138.9 22.1875 139.335 22.5739C139.775 22.9564 139.996 23.4697 140 24.1136C139.996 24.7348 139.811 25.2746 139.443 25.733C139.08 26.1875 138.581 26.5398 137.949 26.7898C137.32 27.036 136.602 27.1591 135.795 27.1591C134.462 27.1591 133.419 26.8864 132.665 26.3409C131.915 25.7955 131.496 25.0758 131.409 24.1818H134.523C134.564 24.4583 134.701 24.6723 134.932 24.8239C135.167 24.9716 135.462 25.0455 135.818 25.0455C136.106 25.0455 136.343 24.9962 136.528 24.8977C136.718 24.7992 136.814 24.6591 136.818 24.4773C136.814 24.3106 136.731 24.178 136.568 24.0795C136.409 23.9811 136.159 23.9015 135.818 23.8409L134.273 23.5682C133.383 23.4129 132.716 23.1174 132.273 22.6818C131.83 22.2462 131.61 21.6856 131.614 21C131.61 20.3939 131.769 19.8807 132.091 19.4602C132.417 19.036 132.881 18.714 133.483 18.4943C134.089 18.2708 134.807 18.1591 135.636 18.1591C136.898 18.1591 137.892 18.4205 138.619 18.9432C139.35 19.4659 139.735 20.1894 139.773 21.1136ZM141.202 30.2727V18.2727H144.315V19.7955H144.384C144.497 19.5 144.664 19.2292 144.884 18.983C145.103 18.733 145.376 18.5341 145.702 18.3864C146.027 18.2348 146.406 18.1591 146.838 18.1591C147.414 18.1591 147.961 18.3125 148.48 18.6193C149.003 18.9261 149.427 19.4091 149.753 20.0682C150.082 20.7273 150.247 21.5833 150.247 22.6364C150.247 23.6439 150.09 24.4792 149.776 25.142C149.465 25.8049 149.048 26.2992 148.526 26.625C148.007 26.9508 147.437 27.1136 146.815 27.1136C146.406 27.1136 146.041 27.0473 145.719 26.9148C145.401 26.7784 145.128 26.5947 144.901 26.3636C144.677 26.1288 144.505 25.8636 144.384 25.5682H144.338V30.2727H141.202ZM144.27 22.6364C144.27 23.0606 144.325 23.428 144.435 23.7386C144.548 24.0455 144.707 24.2841 144.912 24.4545C145.12 24.6212 145.368 24.7045 145.656 24.7045C145.944 24.7045 146.188 24.6231 146.389 24.4602C146.594 24.2936 146.749 24.0568 146.855 23.75C146.965 23.4394 147.02 23.0682 147.02 22.6364C147.02 22.2045 146.965 21.8352 146.855 21.5284C146.749 21.2178 146.594 20.9811 146.389 20.8182C146.188 20.6515 145.944 20.5682 145.656 20.5682C145.368 20.5682 145.12 20.6515 144.912 20.8182C144.707 20.9811 144.548 21.2178 144.435 21.5284C144.325 21.8352 144.27 22.2045 144.27 22.6364ZM153.993 27.1364C153.436 27.1364 152.944 27.0455 152.516 26.8636C152.091 26.678 151.758 26.3977 151.516 26.0227C151.273 25.6477 151.152 25.1705 151.152 24.5909C151.152 24.1136 151.233 23.7064 151.396 23.3693C151.559 23.0284 151.786 22.75 152.078 22.5341C152.37 22.3182 152.709 22.1534 153.095 22.0398C153.485 21.9261 153.906 21.8523 154.357 21.8182C154.845 21.7803 155.237 21.7348 155.533 21.6818C155.832 21.625 156.048 21.5473 156.18 21.4489C156.313 21.3466 156.379 21.2121 156.379 21.0455V21.0227C156.379 20.7955 156.292 20.6212 156.118 20.5C155.944 20.3788 155.72 20.3182 155.447 20.3182C155.148 20.3182 154.904 20.3845 154.714 20.517C154.529 20.6458 154.417 20.8447 154.379 21.1136H151.493C151.531 20.5833 151.699 20.0947 151.999 19.6477C152.302 19.197 152.743 18.8371 153.322 18.5682C153.902 18.2955 154.625 18.1591 155.493 18.1591C156.118 18.1591 156.679 18.233 157.175 18.3807C157.671 18.5246 158.093 18.7273 158.442 18.9886C158.79 19.2462 159.055 19.5492 159.237 19.8977C159.423 20.2424 159.516 20.6174 159.516 21.0227V27H156.584V25.7727H156.516C156.341 26.0985 156.129 26.3617 155.879 26.5625C155.633 26.7633 155.351 26.9091 155.033 27C154.718 27.0909 154.372 27.1364 153.993 27.1364ZM155.016 25.1591C155.254 25.1591 155.478 25.1098 155.686 25.0114C155.898 24.9129 156.071 24.7708 156.203 24.5852C156.336 24.3996 156.402 24.1742 156.402 23.9091V23.1818C156.319 23.2159 156.23 23.2481 156.135 23.2784C156.044 23.3087 155.946 23.3371 155.839 23.3636C155.737 23.3902 155.627 23.4148 155.51 23.4375C155.396 23.4602 155.277 23.4811 155.152 23.5C154.91 23.5379 154.711 23.6004 154.555 23.6875C154.404 23.7708 154.29 23.875 154.214 24C154.143 24.1212 154.107 24.2576 154.107 24.4091C154.107 24.6515 154.192 24.8371 154.362 24.9659C154.533 25.0947 154.75 25.1591 155.016 25.1591ZM165.219 27.1591C164.272 27.1591 163.461 26.9716 162.787 26.5966C162.113 26.2178 161.596 25.6913 161.236 25.017C160.876 24.339 160.696 23.553 160.696 22.6591C160.696 21.7652 160.876 20.9811 161.236 20.3068C161.596 19.6288 162.113 19.1023 162.787 18.7273C163.461 18.3485 164.272 18.1591 165.219 18.1591C166.075 18.1591 166.815 18.3144 167.44 18.625C168.069 18.9318 168.556 19.3674 168.901 19.9318C169.245 20.4924 169.42 21.1515 169.423 21.9091H166.514C166.473 21.4508 166.34 21.1023 166.116 20.8636C165.897 20.6212 165.613 20.5 165.264 20.5C164.991 20.5 164.753 20.5795 164.548 20.7386C164.344 20.8939 164.185 21.1307 164.071 21.4489C163.957 21.7633 163.901 22.1591 163.901 22.6364C163.901 23.1136 163.957 23.5114 164.071 23.8295C164.185 24.1439 164.344 24.3807 164.548 24.5398C164.753 24.6951 164.991 24.7727 165.264 24.7727C165.495 24.7727 165.7 24.7197 165.878 24.6136C166.056 24.5038 166.2 24.3447 166.31 24.1364C166.423 23.9242 166.491 23.6667 166.514 23.3636H169.423C169.412 24.1326 169.236 24.803 168.895 25.375C168.554 25.9432 168.071 26.3826 167.446 26.6932C166.825 27.0038 166.082 27.1591 165.219 27.1591ZM174.899 27.1591C173.967 27.1591 173.164 26.9811 172.49 26.625C171.82 26.2652 171.303 25.75 170.939 25.0795C170.579 24.4053 170.399 23.5985 170.399 22.6591C170.399 21.7576 170.581 20.9697 170.945 20.2955C171.308 19.6212 171.821 19.0966 172.484 18.7216C173.147 18.3466 173.929 18.1591 174.831 18.1591C175.49 18.1591 176.087 18.2614 176.621 18.4659C177.155 18.6705 177.611 18.9678 177.99 19.358C178.369 19.7443 178.661 20.214 178.865 20.767C179.07 21.3201 179.172 21.9432 179.172 22.6364V23.3636H171.376V21.6364H176.286C176.282 21.3864 176.217 21.1667 176.092 20.9773C175.971 20.7841 175.806 20.6345 175.598 20.5284C175.393 20.4186 175.161 20.3636 174.899 20.3636C174.645 20.3636 174.412 20.4186 174.2 20.5284C173.988 20.6345 173.818 20.7822 173.689 20.9716C173.564 21.161 173.498 21.3826 173.49 21.6364V23.5C173.49 23.7803 173.549 24.0303 173.666 24.25C173.784 24.4697 173.952 24.642 174.172 24.767C174.392 24.892 174.657 24.9545 174.967 24.9545C175.183 24.9545 175.38 24.9242 175.558 24.8636C175.74 24.803 175.895 24.7159 176.024 24.6023C176.153 24.4848 176.248 24.3447 176.308 24.1818H179.172C179.073 24.7879 178.84 25.3144 178.473 25.7614C178.106 26.2045 177.619 26.5492 177.013 26.7955C176.411 27.0379 175.706 27.1591 174.899 27.1591ZM186.179 21.1818V23.5455H180.724V21.1818H186.179ZM190.477 27.1364C189.92 27.1364 189.428 27.0455 189 26.8636C188.576 26.678 188.242 26.3977 188 26.0227C187.758 25.6477 187.636 25.1705 187.636 24.5909C187.636 24.1136 187.718 23.7064 187.881 23.3693C188.044 23.0284 188.271 22.75 188.562 22.5341C188.854 22.3182 189.193 22.1534 189.58 22.0398C189.97 21.9261 190.39 21.8523 190.841 21.8182C191.33 21.7803 191.722 21.7348 192.017 21.6818C192.316 21.625 192.532 21.5473 192.665 21.4489C192.797 21.3466 192.864 21.2121 192.864 21.0455V21.0227C192.864 20.7955 192.777 20.6212 192.602 20.5C192.428 20.3788 192.205 20.3182 191.932 20.3182C191.633 20.3182 191.388 20.3845 191.199 20.517C191.013 20.6458 190.902 20.8447 190.864 21.1136H187.977C188.015 20.5833 188.184 20.0947 188.483 19.6477C188.786 19.197 189.227 18.8371 189.807 18.5682C190.386 18.2955 191.11 18.1591 191.977 18.1591C192.602 18.1591 193.163 18.233 193.659 18.3807C194.155 18.5246 194.578 18.7273 194.926 18.9886C195.275 19.2462 195.54 19.5492 195.722 19.8977C195.907 20.2424 196 20.6174 196 21.0227V27H193.068V25.7727H193C192.826 26.0985 192.614 26.3617 192.364 26.5625C192.117 26.7633 191.835 26.9091 191.517 27C191.203 27.0909 190.856 27.1364 190.477 27.1364ZM191.5 25.1591C191.739 25.1591 191.962 25.1098 192.17 25.0114C192.383 24.9129 192.555 24.7708 192.688 24.5852C192.82 24.3996 192.886 24.1742 192.886 23.9091V23.1818C192.803 23.2159 192.714 23.2481 192.619 23.2784C192.528 23.3087 192.43 23.3371 192.324 23.3636C192.222 23.3902 192.112 23.4148 191.994 23.4375C191.881 23.4602 191.761 23.4811 191.636 23.5C191.394 23.5379 191.195 23.6004 191.04 23.6875C190.888 23.7708 190.775 23.875 190.699 24C190.627 24.1212 190.591 24.2576 190.591 24.4091C190.591 24.6515 190.676 24.8371 190.847 24.9659C191.017 25.0947 191.235 25.1591 191.5 25.1591ZM197.499 27V18.2727H200.544V19.9318H200.635C200.794 19.3182 201.046 18.8693 201.391 18.5852C201.739 18.3011 202.146 18.1591 202.612 18.1591C202.749 18.1591 202.883 18.1705 203.016 18.1932C203.152 18.2121 203.283 18.2405 203.408 18.2784V20.9545C203.252 20.9015 203.061 20.8617 202.834 20.8352C202.607 20.8087 202.411 20.7955 202.249 20.7955C201.942 20.7955 201.665 20.8655 201.419 21.0057C201.177 21.142 200.985 21.3352 200.845 21.5852C200.705 21.8314 200.635 22.1212 200.635 22.4545V27H197.499ZM208.141 27.1591C207.194 27.1591 206.383 26.9716 205.709 26.5966C205.035 26.2178 204.518 25.6913 204.158 25.017C203.798 24.339 203.618 23.553 203.618 22.6591C203.618 21.7652 203.798 20.9811 204.158 20.3068C204.518 19.6288 205.035 19.1023 205.709 18.7273C206.383 18.3485 207.194 18.1591 208.141 18.1591C209.088 18.1591 209.898 18.3485 210.572 18.7273C211.247 19.1023 211.764 19.6288 212.124 20.3068C212.483 20.9811 212.663 21.7652 212.663 22.6591C212.663 23.553 212.483 24.339 212.124 25.017C211.764 25.6913 211.247 26.2178 210.572 26.5966C209.898 26.9716 209.088 27.1591 208.141 27.1591ZM208.163 24.8409C208.429 24.8409 208.658 24.7519 208.851 24.5739C209.044 24.3958 209.194 24.142 209.3 23.8125C209.406 23.483 209.459 23.0909 209.459 22.6364C209.459 22.178 209.406 21.786 209.3 21.4602C209.194 21.1307 209.044 20.8769 208.851 20.6989C208.658 20.5208 208.429 20.4318 208.163 20.4318C207.883 20.4318 207.643 20.5208 207.442 20.6989C207.241 20.8769 207.088 21.1307 206.982 21.4602C206.875 21.786 206.822 22.178 206.822 22.6364C206.822 23.0909 206.875 23.483 206.982 23.8125C207.088 24.142 207.241 24.3958 207.442 24.5739C207.643 24.7519 207.883 24.8409 208.163 24.8409ZM219.595 23.1818V18.2727H222.732V27H219.754V25.3409H219.663C219.474 25.8977 219.143 26.3333 218.669 26.6477C218.196 26.9583 217.633 27.1136 216.982 27.1136C216.372 27.1136 215.838 26.9735 215.379 26.6932C214.925 26.4129 214.571 26.0265 214.317 25.5341C214.067 25.0417 213.94 24.4773 213.936 23.8409V18.2727H217.072V23.1818C217.076 23.6136 217.186 23.9527 217.402 24.1989C217.622 24.4451 217.929 24.5682 218.322 24.5682C218.584 24.5682 218.809 24.5133 218.999 24.4034C219.192 24.2898 219.339 24.1307 219.442 23.9261C219.548 23.7178 219.599 23.4697 219.595 23.1818ZM227.463 22.0909V27H224.327V18.2727H227.304V19.9318H227.395C227.584 19.3788 227.918 18.9451 228.395 18.6307C228.876 18.3163 229.437 18.1591 230.077 18.1591C230.694 18.1591 231.23 18.3011 231.685 18.5852C232.143 18.8655 232.497 19.2519 232.747 19.7443C233.001 20.2367 233.126 20.7992 233.122 21.4318V27H229.986V22.0909C229.99 21.6591 229.88 21.3201 229.656 21.0739C229.437 20.8277 229.13 20.7045 228.736 20.7045C228.478 20.7045 228.253 20.7614 228.06 20.875C227.87 20.9848 227.724 21.1439 227.622 21.3523C227.52 21.5568 227.467 21.803 227.463 22.0909ZM237.83 27.1136C237.208 27.1136 236.636 26.9508 236.114 26.625C235.595 26.2992 235.178 25.8049 234.864 25.142C234.553 24.4792 234.398 23.6439 234.398 22.6364C234.398 21.5833 234.561 20.7273 234.886 20.0682C235.216 19.4091 235.64 18.9261 236.159 18.6193C236.682 18.3125 237.231 18.1591 237.807 18.1591C238.239 18.1591 238.617 18.2348 238.943 18.3864C239.269 18.5341 239.542 18.733 239.761 18.983C239.981 19.2292 240.148 19.5 240.261 19.7955H240.307V15.3636H243.443V27H240.33V25.5682H240.261C240.14 25.8636 239.966 26.1288 239.739 26.3636C239.515 26.5947 239.242 26.7784 238.92 26.9148C238.602 27.0473 238.239 27.1136 237.83 27.1136ZM238.989 24.7045C239.277 24.7045 239.523 24.6212 239.727 24.4545C239.936 24.2841 240.095 24.0455 240.205 23.7386C240.318 23.428 240.375 23.0606 240.375 22.6364C240.375 22.2045 240.318 21.8352 240.205 21.5284C240.095 21.2178 239.936 20.9811 239.727 20.8182C239.523 20.6515 239.277 20.5682 238.989 20.5682C238.701 20.5682 238.455 20.6515 238.25 20.8182C238.049 20.9811 237.894 21.2178 237.784 21.5284C237.678 21.8352 237.625 22.2045 237.625 22.6364C237.625 23.0682 237.678 23.4394 237.784 23.75C237.894 24.0568 238.049 24.2936 238.25 24.4602C238.455 24.6231 238.701 24.7045 238.989 24.7045Z" fill="#181818" fill-opacity="0.75"/>
<g filter="url(#filter10_d_129_793)">
<rect x="397" y="4" width="360" height="360" rx="8" fill="#2172FF" fill-opacity="0.8" shape-rendering="crispEdges"/>
</g>
<g filter="url(#filter11_d_129_793)">
<rect x="485" y="256" width="72" height="72" rx="8" fill="white" fill-opacity="0.75" shape-rendering="crispEdges"/>
</g>
<path d="M503.795 298V289.273H506.932V298H503.795ZM505.364 288.364C504.939 288.364 504.576 288.223 504.273 287.943C503.97 287.663 503.818 287.326 503.818 286.932C503.818 286.538 503.97 286.201 504.273 285.92C504.576 285.64 504.939 285.5 505.364 285.5C505.792 285.5 506.155 285.64 506.455 285.92C506.758 286.201 506.909 286.538 506.909 286.932C506.909 287.326 506.758 287.663 506.455 287.943C506.155 288.223 505.792 288.364 505.364 288.364ZM513.734 289.273V291.545H507.984V289.273H513.734ZM509.098 287.182H512.234V295.193C512.234 295.314 512.255 295.417 512.297 295.5C512.339 295.58 512.403 295.64 512.49 295.682C512.577 295.72 512.689 295.739 512.825 295.739C512.92 295.739 513.03 295.727 513.155 295.705C513.284 295.682 513.378 295.663 513.439 295.648L513.893 297.852C513.753 297.894 513.553 297.945 513.291 298.006C513.034 298.066 512.727 298.106 512.371 298.125C511.651 298.163 511.047 298.089 510.558 297.903C510.07 297.714 509.702 297.417 509.456 297.011C509.21 296.606 509.09 296.098 509.098 295.489V287.182ZM519.102 298.159C518.17 298.159 517.367 297.981 516.693 297.625C516.023 297.265 515.506 296.75 515.142 296.08C514.782 295.405 514.602 294.598 514.602 293.659C514.602 292.758 514.784 291.97 515.148 291.295C515.511 290.621 516.025 290.097 516.688 289.722C517.35 289.347 518.133 289.159 519.034 289.159C519.693 289.159 520.29 289.261 520.824 289.466C521.358 289.67 521.814 289.968 522.193 290.358C522.572 290.744 522.864 291.214 523.068 291.767C523.273 292.32 523.375 292.943 523.375 293.636V294.364H515.58V292.636H520.489C520.485 292.386 520.42 292.167 520.295 291.977C520.174 291.784 520.009 291.634 519.801 291.528C519.597 291.419 519.364 291.364 519.102 291.364C518.848 291.364 518.616 291.419 518.403 291.528C518.191 291.634 518.021 291.782 517.892 291.972C517.767 292.161 517.701 292.383 517.693 292.636V294.5C517.693 294.78 517.752 295.03 517.869 295.25C517.987 295.47 518.155 295.642 518.375 295.767C518.595 295.892 518.86 295.955 519.17 295.955C519.386 295.955 519.583 295.924 519.761 295.864C519.943 295.803 520.098 295.716 520.227 295.602C520.356 295.485 520.451 295.345 520.511 295.182H523.375C523.277 295.788 523.044 296.314 522.676 296.761C522.309 297.205 521.822 297.549 521.216 297.795C520.614 298.038 519.909 298.159 519.102 298.159ZM524.655 298V289.273H527.632V290.932H527.723C527.905 290.386 528.215 289.955 528.655 289.636C529.094 289.318 529.617 289.159 530.223 289.159C530.837 289.159 531.365 289.322 531.808 289.648C532.251 289.97 532.518 290.398 532.609 290.932H532.7C532.848 290.398 533.162 289.97 533.643 289.648C534.125 289.322 534.689 289.159 535.337 289.159C536.174 289.159 536.852 289.428 537.371 289.966C537.893 290.504 538.155 291.22 538.155 292.114V298H535.018V292.909C535.018 292.527 534.922 292.227 534.729 292.011C534.536 291.792 534.276 291.682 533.95 291.682C533.628 291.682 533.373 291.792 533.183 292.011C532.998 292.227 532.905 292.527 532.905 292.909V298H529.905V292.909C529.905 292.527 529.808 292.227 529.615 292.011C529.422 291.792 529.162 291.682 528.837 291.682C528.621 291.682 528.435 291.731 528.28 291.83C528.125 291.928 528.003 292.07 527.916 292.256C527.833 292.437 527.791 292.655 527.791 292.909V298H524.655Z" fill="#181818" fill-opacity="0.75"/>
<g filter="url(#filter12_d_129_793)">
<rect x="485" y="59" width="72" height="72" rx="8" fill="white" fill-opacity="0.75" shape-rendering="crispEdges"/>
</g>
<path d="M503.795 101V92.2727H506.932V101H503.795ZM505.364 91.3636C504.939 91.3636 504.576 91.2235 504.273 90.9432C503.97 90.6629 503.818 90.3258 503.818 89.9318C503.818 89.5379 503.97 89.2008 504.273 88.9205C504.576 88.6402 504.939 88.5 505.364 88.5C505.792 88.5 506.155 88.6402 506.455 88.9205C506.758 89.2008 506.909 89.5379 506.909 89.9318C506.909 90.3258 506.758 90.6629 506.455 90.9432C506.155 91.2235 505.792 91.3636 505.364 91.3636ZM513.734 92.2727V94.5455H507.984V92.2727H513.734ZM509.098 90.1818H512.234V98.1932C512.234 98.3144 512.255 98.4167 512.297 98.5C512.339 98.5795 512.403 98.6402 512.49 98.6818C512.577 98.7197 512.689 98.7386 512.825 98.7386C512.92 98.7386 513.03 98.7273 513.155 98.7045C513.284 98.6818 513.378 98.6629 513.439 98.6477L513.893 100.852C513.753 100.894 513.553 100.945 513.291 101.006C513.034 101.066 512.727 101.106 512.371 101.125C511.651 101.163 511.047 101.089 510.558 100.903C510.07 100.714 509.702 100.417 509.456 100.011C509.21 99.6061 509.09 99.0985 509.098 98.4886V90.1818ZM519.102 101.159C518.17 101.159 517.367 100.981 516.693 100.625C516.023 100.265 515.506 99.75 515.142 99.0795C514.782 98.4053 514.602 97.5985 514.602 96.6591C514.602 95.7576 514.784 94.9697 515.148 94.2955C515.511 93.6212 516.025 93.0966 516.688 92.7216C517.35 92.3466 518.133 92.1591 519.034 92.1591C519.693 92.1591 520.29 92.2614 520.824 92.4659C521.358 92.6705 521.814 92.9678 522.193 93.358C522.572 93.7443 522.864 94.214 523.068 94.767C523.273 95.3201 523.375 95.9432 523.375 96.6364V97.3636H515.58V95.6364H520.489C520.485 95.3864 520.42 95.1667 520.295 94.9773C520.174 94.7841 520.009 94.6345 519.801 94.5284C519.597 94.4186 519.364 94.3636 519.102 94.3636C518.848 94.3636 518.616 94.4186 518.403 94.5284C518.191 94.6345 518.021 94.7822 517.892 94.9716C517.767 95.161 517.701 95.3826 517.693 95.6364V97.5C517.693 97.7803 517.752 98.0303 517.869 98.25C517.987 98.4697 518.155 98.642 518.375 98.767C518.595 98.892 518.86 98.9545 519.17 98.9545C519.386 98.9545 519.583 98.9242 519.761 98.8636C519.943 98.803 520.098 98.7159 520.227 98.6023C520.356 98.4848 520.451 98.3447 520.511 98.1818H523.375C523.277 98.7879 523.044 99.3144 522.676 99.7614C522.309 100.205 521.822 100.549 521.216 100.795C520.614 101.038 519.909 101.159 519.102 101.159ZM524.655 101V92.2727H527.632V93.9318H527.723C527.905 93.3864 528.215 92.9545 528.655 92.6364C529.094 92.3182 529.617 92.1591 530.223 92.1591C530.837 92.1591 531.365 92.322 531.808 92.6477C532.251 92.9697 532.518 93.3977 532.609 93.9318H532.7C532.848 93.3977 533.162 92.9697 533.643 92.6477C534.125 92.322 534.689 92.1591 535.337 92.1591C536.174 92.1591 536.852 92.428 537.371 92.9659C537.893 93.5038 538.155 94.2197 538.155 95.1136V101H535.018V95.9091C535.018 95.5265 534.922 95.2273 534.729 95.0114C534.536 94.7917 534.276 94.6818 533.95 94.6818C533.628 94.6818 533.373 94.7917 533.183 95.0114C532.998 95.2273 532.905 95.5265 532.905 95.9091V101H529.905V95.9091C529.905 95.5265 529.808 95.2273 529.615 95.0114C529.422 94.7917 529.162 94.6818 528.837 94.6818C528.621 94.6818 528.435 94.7311 528.28 94.8295C528.125 94.928 528.003 95.0701 527.916 95.2557C527.833 95.4375 527.791 95.6553 527.791 95.9091V101H524.655Z" fill="#181818" fill-opacity="0.75"/>
<g filter="url(#filter13_d_129_793)">
<rect x="413" y="256" width="72" height="72" rx="8" fill="white" fill-opacity="0.75" shape-rendering="crispEdges"/>
</g>
<path d="M431.795 298V289.273H434.932V298H431.795ZM433.364 288.364C432.939 288.364 432.576 288.223 432.273 287.943C431.97 287.663 431.818 287.326 431.818 286.932C431.818 286.538 431.97 286.201 432.273 285.92C432.576 285.64 432.939 285.5 433.364 285.5C433.792 285.5 434.155 285.64 434.455 285.92C434.758 286.201 434.909 286.538 434.909 286.932C434.909 287.326 434.758 287.663 434.455 287.943C434.155 288.223 433.792 288.364 433.364 288.364ZM441.734 289.273V291.545H435.984V289.273H441.734ZM437.098 287.182H440.234V295.193C440.234 295.314 440.255 295.417 440.297 295.5C440.339 295.58 440.403 295.64 440.49 295.682C440.577 295.72 440.689 295.739 440.825 295.739C440.92 295.739 441.03 295.727 441.155 295.705C441.284 295.682 441.378 295.663 441.439 295.648L441.893 297.852C441.753 297.894 441.553 297.945 441.291 298.006C441.034 298.066 440.727 298.106 440.371 298.125C439.651 298.163 439.047 298.089 438.558 297.903C438.07 297.714 437.702 297.417 437.456 297.011C437.21 296.606 437.09 296.098 437.098 295.489V287.182ZM447.102 298.159C446.17 298.159 445.367 297.981 444.693 297.625C444.023 297.265 443.506 296.75 443.142 296.08C442.782 295.405 442.602 294.598 442.602 293.659C442.602 292.758 442.784 291.97 443.148 291.295C443.511 290.621 444.025 290.097 444.688 289.722C445.35 289.347 446.133 289.159 447.034 289.159C447.693 289.159 448.29 289.261 448.824 289.466C449.358 289.67 449.814 289.968 450.193 290.358C450.572 290.744 450.864 291.214 451.068 291.767C451.273 292.32 451.375 292.943 451.375 293.636V294.364H443.58V292.636H448.489C448.485 292.386 448.42 292.167 448.295 291.977C448.174 291.784 448.009 291.634 447.801 291.528C447.597 291.419 447.364 291.364 447.102 291.364C446.848 291.364 446.616 291.419 446.403 291.528C446.191 291.634 446.021 291.782 445.892 291.972C445.767 292.161 445.701 292.383 445.693 292.636V294.5C445.693 294.78 445.752 295.03 445.869 295.25C445.987 295.47 446.155 295.642 446.375 295.767C446.595 295.892 446.86 295.955 447.17 295.955C447.386 295.955 447.583 295.924 447.761 295.864C447.943 295.803 448.098 295.716 448.227 295.602C448.356 295.485 448.451 295.345 448.511 295.182H451.375C451.277 295.788 451.044 296.314 450.676 296.761C450.309 297.205 449.822 297.549 449.216 297.795C448.614 298.038 447.909 298.159 447.102 298.159ZM452.655 298V289.273H455.632V290.932H455.723C455.905 290.386 456.215 289.955 456.655 289.636C457.094 289.318 457.617 289.159 458.223 289.159C458.837 289.159 459.365 289.322 459.808 289.648C460.251 289.97 460.518 290.398 460.609 290.932H460.7C460.848 290.398 461.162 289.97 461.643 289.648C462.125 289.322 462.689 289.159 463.337 289.159C464.174 289.159 464.852 289.428 465.371 289.966C465.893 290.504 466.155 291.22 466.155 292.114V298H463.018V292.909C463.018 292.527 462.922 292.227 462.729 292.011C462.536 291.792 462.276 291.682 461.95 291.682C461.628 291.682 461.373 291.792 461.183 292.011C460.998 292.227 460.905 292.527 460.905 292.909V298H457.905V292.909C457.905 292.527 457.808 292.227 457.615 292.011C457.422 291.792 457.162 291.682 456.837 291.682C456.621 291.682 456.435 291.731 456.28 291.83C456.125 291.928 456.003 292.07 455.916 292.256C455.833 292.437 455.791 292.655 455.791 292.909V298H452.655Z" fill="#181818" fill-opacity="0.75"/>
<g filter="url(#filter14_d_129_793)">
<rect x="413" y="59" width="72" height="72" rx="8" fill="white" fill-opacity="0.75" shape-rendering="crispEdges"/>
</g>
<path d="M431.795 101V92.2727H434.932V101H431.795ZM433.364 91.3636C432.939 91.3636 432.576 91.2235 432.273 90.9432C431.97 90.6629 431.818 90.3258 431.818 89.9318C431.818 89.5379 431.97 89.2008 432.273 88.9205C432.576 88.6402 432.939 88.5 433.364 88.5C433.792 88.5 434.155 88.6402 434.455 88.9205C434.758 89.2008 434.909 89.5379 434.909 89.9318C434.909 90.3258 434.758 90.6629 434.455 90.9432C434.155 91.2235 433.792 91.3636 433.364 91.3636ZM441.734 92.2727V94.5455H435.984V92.2727H441.734ZM437.098 90.1818H440.234V98.1932C440.234 98.3144 440.255 98.4167 440.297 98.5C440.339 98.5795 440.403 98.6402 440.49 98.6818C440.577 98.7197 440.689 98.7386 440.825 98.7386C440.92 98.7386 441.03 98.7273 441.155 98.7045C441.284 98.6818 441.378 98.6629 441.439 98.6477L441.893 100.852C441.753 100.894 441.553 100.945 441.291 101.006C441.034 101.066 440.727 101.106 440.371 101.125C439.651 101.163 439.047 101.089 438.558 100.903C438.07 100.714 437.702 100.417 437.456 100.011C437.21 99.6061 437.09 99.0985 437.098 98.4886V90.1818ZM447.102 101.159C446.17 101.159 445.367 100.981 444.693 100.625C444.023 100.265 443.506 99.75 443.142 99.0795C442.782 98.4053 442.602 97.5985 442.602 96.6591C442.602 95.7576 442.784 94.9697 443.148 94.2955C443.511 93.6212 444.025 93.0966 444.688 92.7216C445.35 92.3466 446.133 92.1591 447.034 92.1591C447.693 92.1591 448.29 92.2614 448.824 92.4659C449.358 92.6705 449.814 92.9678 450.193 93.358C450.572 93.7443 450.864 94.214 451.068 94.767C451.273 95.3201 451.375 95.9432 451.375 96.6364V97.3636H443.58V95.6364H448.489C448.485 95.3864 448.42 95.1667 448.295 94.9773C448.174 94.7841 448.009 94.6345 447.801 94.5284C447.597 94.4186 447.364 94.3636 447.102 94.3636C446.848 94.3636 446.616 94.4186 446.403 94.5284C446.191 94.6345 446.021 94.7822 445.892 94.9716C445.767 95.161 445.701 95.3826 445.693 95.6364V97.5C445.693 97.7803 445.752 98.0303 445.869 98.25C445.987 98.4697 446.155 98.642 446.375 98.767C446.595 98.892 446.86 98.9545 447.17 98.9545C447.386 98.9545 447.583 98.9242 447.761 98.8636C447.943 98.803 448.098 98.7159 448.227 98.6023C448.356 98.4848 448.451 98.3447 448.511 98.1818H451.375C451.277 98.7879 451.044 99.3144 450.676 99.7614C450.309 100.205 449.822 100.549 449.216 100.795C448.614 101.038 447.909 101.159 447.102 101.159ZM452.655 101V92.2727H455.632V93.9318H455.723C455.905 93.3864 456.215 92.9545 456.655 92.6364C457.094 92.3182 457.617 92.1591 458.223 92.1591C458.837 92.1591 459.365 92.322 459.808 92.6477C460.251 92.9697 460.518 93.3977 460.609 93.9318H460.7C460.848 93.3977 461.162 92.9697 461.643 92.6477C462.125 92.322 462.689 92.1591 463.337 92.1591C464.174 92.1591 464.852 92.428 465.371 92.9659C465.893 93.5038 466.155 94.2197 466.155 95.1136V101H463.018V95.9091C463.018 95.5265 462.922 95.2273 462.729 95.0114C462.536 94.7917 462.276 94.6818 461.95 94.6818C461.628 94.6818 461.373 94.7917 461.183 95.0114C460.998 95.2273 460.905 95.5265 460.905 95.9091V101H457.905V95.9091C457.905 95.5265 457.808 95.2273 457.615 95.0114C457.422 94.7917 457.162 94.6818 456.837 94.6818C456.621 94.6818 456.435 94.7311 456.28 94.8295C456.125 94.928 456.003 95.0701 455.916 95.2557C455.833 95.4375 455.791 95.6553 455.791 95.9091V101H452.655Z" fill="#181818" fill-opacity="0.75"/>
<g filter="url(#filter15_d_129_793)">
<rect x="557" y="59" width="72" height="72" rx="8" fill="white" fill-opacity="0.75" shape-rendering="crispEdges"/>
</g>
<path d="M575.795 101V92.2727H578.932V101H575.795ZM577.364 91.3636C576.939 91.3636 576.576 91.2235 576.273 90.9432C575.97 90.6629 575.818 90.3258 575.818 89.9318C575.818 89.5379 575.97 89.2008 576.273 88.9205C576.576 88.6402 576.939 88.5 577.364 88.5C577.792 88.5 578.155 88.6402 578.455 88.9205C578.758 89.2008 578.909 89.5379 578.909 89.9318C578.909 90.3258 578.758 90.6629 578.455 90.9432C578.155 91.2235 577.792 91.3636 577.364 91.3636ZM585.734 92.2727V94.5455H579.984V92.2727H585.734ZM581.098 90.1818H584.234V98.1932C584.234 98.3144 584.255 98.4167 584.297 98.5C584.339 98.5795 584.403 98.6402 584.49 98.6818C584.577 98.7197 584.689 98.7386 584.825 98.7386C584.92 98.7386 585.03 98.7273 585.155 98.7045C585.284 98.6818 585.378 98.6629 585.439 98.6477L585.893 100.852C585.753 100.894 585.553 100.945 585.291 101.006C585.034 101.066 584.727 101.106 584.371 101.125C583.651 101.163 583.047 101.089 582.558 100.903C582.07 100.714 581.702 100.417 581.456 100.011C581.21 99.6061 581.09 99.0985 581.098 98.4886V90.1818ZM591.102 101.159C590.17 101.159 589.367 100.981 588.693 100.625C588.023 100.265 587.506 99.75 587.142 99.0795C586.782 98.4053 586.602 97.5985 586.602 96.6591C586.602 95.7576 586.784 94.9697 587.148 94.2955C587.511 93.6212 588.025 93.0966 588.688 92.7216C589.35 92.3466 590.133 92.1591 591.034 92.1591C591.693 92.1591 592.29 92.2614 592.824 92.4659C593.358 92.6705 593.814 92.9678 594.193 93.358C594.572 93.7443 594.864 94.214 595.068 94.767C595.273 95.3201 595.375 95.9432 595.375 96.6364V97.3636H587.58V95.6364H592.489C592.485 95.3864 592.42 95.1667 592.295 94.9773C592.174 94.7841 592.009 94.6345 591.801 94.5284C591.597 94.4186 591.364 94.3636 591.102 94.3636C590.848 94.3636 590.616 94.4186 590.403 94.5284C590.191 94.6345 590.021 94.7822 589.892 94.9716C589.767 95.161 589.701 95.3826 589.693 95.6364V97.5C589.693 97.7803 589.752 98.0303 589.869 98.25C589.987 98.4697 590.155 98.642 590.375 98.767C590.595 98.892 590.86 98.9545 591.17 98.9545C591.386 98.9545 591.583 98.9242 591.761 98.8636C591.943 98.803 592.098 98.7159 592.227 98.6023C592.356 98.4848 592.451 98.3447 592.511 98.1818H595.375C595.277 98.7879 595.044 99.3144 594.676 99.7614C594.309 100.205 593.822 100.549 593.216 100.795C592.614 101.038 591.909 101.159 591.102 101.159ZM596.655 101V92.2727H599.632V93.9318H599.723C599.905 93.3864 600.215 92.9545 600.655 92.6364C601.094 92.3182 601.617 92.1591 602.223 92.1591C602.837 92.1591 603.365 92.322 603.808 92.6477C604.251 92.9697 604.518 93.3977 604.609 93.9318H604.7C604.848 93.3977 605.162 92.9697 605.643 92.6477C606.125 92.322 606.689 92.1591 607.337 92.1591C608.174 92.1591 608.852 92.428 609.371 92.9659C609.893 93.5038 610.155 94.2197 610.155 95.1136V101H607.018V95.9091C607.018 95.5265 606.922 95.2273 606.729 95.0114C606.536 94.7917 606.276 94.6818 605.95 94.6818C605.628 94.6818 605.373 94.7917 605.183 95.0114C604.998 95.2273 604.905 95.5265 604.905 95.9091V101H601.905V95.9091C601.905 95.5265 601.808 95.2273 601.615 95.0114C601.422 94.7917 601.162 94.6818 600.837 94.6818C600.621 94.6818 600.435 94.7311 600.28 94.8295C600.125 94.928 600.003 95.0701 599.916 95.2557C599.833 95.4375 599.791 95.6553 599.791 95.9091V101H596.655Z" fill="#181818" fill-opacity="0.75"/>
<g filter="url(#filter16_d_129_793)">
<rect x="485" y="158" width="72" height="72" rx="8" fill="white" fill-opacity="0.75" shape-rendering="crispEdges"/>
</g>
<path d="M503.795 200V191.273H506.932V200H503.795ZM505.364 190.364C504.939 190.364 504.576 190.223 504.273 189.943C503.97 189.663 503.818 189.326 503.818 188.932C503.818 188.538 503.97 188.201 504.273 187.92C504.576 187.64 504.939 187.5 505.364 187.5C505.792 187.5 506.155 187.64 506.455 187.92C506.758 188.201 506.909 188.538 506.909 188.932C506.909 189.326 506.758 189.663 506.455 189.943C506.155 190.223 505.792 190.364 505.364 190.364ZM513.734 191.273V193.545H507.984V191.273H513.734ZM509.098 189.182H512.234V197.193C512.234 197.314 512.255 197.417 512.297 197.5C512.339 197.58 512.403 197.64 512.49 197.682C512.577 197.72 512.689 197.739 512.825 197.739C512.92 197.739 513.03 197.727 513.155 197.705C513.284 197.682 513.378 197.663 513.439 197.648L513.893 199.852C513.753 199.894 513.553 199.945 513.291 200.006C513.034 200.066 512.727 200.106 512.371 200.125C511.651 200.163 511.047 200.089 510.558 199.903C510.07 199.714 509.702 199.417 509.456 199.011C509.21 198.606 509.09 198.098 509.098 197.489V189.182ZM519.102 200.159C518.17 200.159 517.367 199.981 516.693 199.625C516.023 199.265 515.506 198.75 515.142 198.08C514.782 197.405 514.602 196.598 514.602 195.659C514.602 194.758 514.784 193.97 515.148 193.295C515.511 192.621 516.025 192.097 516.688 191.722C517.35 191.347 518.133 191.159 519.034 191.159C519.693 191.159 520.29 191.261 520.824 191.466C521.358 191.67 521.814 191.968 522.193 192.358C522.572 192.744 522.864 193.214 523.068 193.767C523.273 194.32 523.375 194.943 523.375 195.636V196.364H515.58V194.636H520.489C520.485 194.386 520.42 194.167 520.295 193.977C520.174 193.784 520.009 193.634 519.801 193.528C519.597 193.419 519.364 193.364 519.102 193.364C518.848 193.364 518.616 193.419 518.403 193.528C518.191 193.634 518.021 193.782 517.892 193.972C517.767 194.161 517.701 194.383 517.693 194.636V196.5C517.693 196.78 517.752 197.03 517.869 197.25C517.987 197.47 518.155 197.642 518.375 197.767C518.595 197.892 518.86 197.955 519.17 197.955C519.386 197.955 519.583 197.924 519.761 197.864C519.943 197.803 520.098 197.716 520.227 197.602C520.356 197.485 520.451 197.345 520.511 197.182H523.375C523.277 197.788 523.044 198.314 522.676 198.761C522.309 199.205 521.822 199.549 521.216 199.795C520.614 200.038 519.909 200.159 519.102 200.159ZM524.655 200V191.273H527.632V192.932H527.723C527.905 192.386 528.215 191.955 528.655 191.636C529.094 191.318 529.617 191.159 530.223 191.159C530.837 191.159 531.365 191.322 531.808 191.648C532.251 191.97 532.518 192.398 532.609 192.932H532.7C532.848 192.398 533.162 191.97 533.643 191.648C534.125 191.322 534.689 191.159 535.337 191.159C536.174 191.159 536.852 191.428 537.371 191.966C537.893 192.504 538.155 193.22 538.155 194.114V200H535.018V194.909C535.018 194.527 534.922 194.227 534.729 194.011C534.536 193.792 534.276 193.682 533.95 193.682C533.628 193.682 533.373 193.792 533.183 194.011C532.998 194.227 532.905 194.527 532.905 194.909V200H529.905V194.909C529.905 194.527 529.808 194.227 529.615 194.011C529.422 193.792 529.162 193.682 528.837 193.682C528.621 193.682 528.435 193.731 528.28 193.83C528.125 193.928 528.003 194.07 527.916 194.256C527.833 194.437 527.791 194.655 527.791 194.909V200H524.655Z" fill="#181818" fill-opacity="0.75"/>
<g filter="url(#filter17_d_129_793)">
<rect x="413" y="158" width="72" height="72" rx="8" fill="white" fill-opacity="0.75" shape-rendering="crispEdges"/>
</g>
<path d="M431.795 200V191.273H434.932V200H431.795ZM433.364 190.364C432.939 190.364 432.576 190.223 432.273 189.943C431.97 189.663 431.818 189.326 431.818 188.932C431.818 188.538 431.97 188.201 432.273 187.92C432.576 187.64 432.939 187.5 433.364 187.5C433.792 187.5 434.155 187.64 434.455 187.92C434.758 188.201 434.909 188.538 434.909 188.932C434.909 189.326 434.758 189.663 434.455 189.943C434.155 190.223 433.792 190.364 433.364 190.364ZM441.734 191.273V193.545H435.984V191.273H441.734ZM437.098 189.182H440.234V197.193C440.234 197.314 440.255 197.417 440.297 197.5C440.339 197.58 440.403 197.64 440.49 197.682C440.577 197.72 440.689 197.739 440.825 197.739C440.92 197.739 441.03 197.727 441.155 197.705C441.284 197.682 441.378 197.663 441.439 197.648L441.893 199.852C441.753 199.894 441.553 199.945 441.291 200.006C441.034 200.066 440.727 200.106 440.371 200.125C439.651 200.163 439.047 200.089 438.558 199.903C438.07 199.714 437.702 199.417 437.456 199.011C437.21 198.606 437.09 198.098 437.098 197.489V189.182ZM447.102 200.159C446.17 200.159 445.367 199.981 444.693 199.625C444.023 199.265 443.506 198.75 443.142 198.08C442.782 197.405 442.602 196.598 442.602 195.659C442.602 194.758 442.784 193.97 443.148 193.295C443.511 192.621 444.025 192.097 444.688 191.722C445.35 191.347 446.133 191.159 447.034 191.159C447.693 191.159 448.29 191.261 448.824 191.466C449.358 191.67 449.814 191.968 450.193 192.358C450.572 192.744 450.864 193.214 451.068 193.767C451.273 194.32 451.375 194.943 451.375 195.636V196.364H443.58V194.636H448.489C448.485 194.386 448.42 194.167 448.295 193.977C448.174 193.784 448.009 193.634 447.801 193.528C447.597 193.419 447.364 193.364 447.102 193.364C446.848 193.364 446.616 193.419 446.403 193.528C446.191 193.634 446.021 193.782 445.892 193.972C445.767 194.161 445.701 194.383 445.693 194.636V196.5C445.693 196.78 445.752 197.03 445.869 197.25C445.987 197.47 446.155 197.642 446.375 197.767C446.595 197.892 446.86 197.955 447.17 197.955C447.386 197.955 447.583 197.924 447.761 197.864C447.943 197.803 448.098 197.716 448.227 197.602C448.356 197.485 448.451 197.345 448.511 197.182H451.375C451.277 197.788 451.044 198.314 450.676 198.761C450.309 199.205 449.822 199.549 449.216 199.795C448.614 200.038 447.909 200.159 447.102 200.159ZM452.655 200V191.273H455.632V192.932H455.723C455.905 192.386 456.215 191.955 456.655 191.636C457.094 191.318 457.617 191.159 458.223 191.159C458.837 191.159 459.365 191.322 459.808 191.648C460.251 191.97 460.518 192.398 460.609 192.932H460.7C460.848 192.398 461.162 191.97 461.643 191.648C462.125 191.322 462.689 191.159 463.337 191.159C464.174 191.159 464.852 191.428 465.371 191.966C465.893 192.504 466.155 193.22 466.155 194.114V200H463.018V194.909C463.018 194.527 462.922 194.227 462.729 194.011C462.536 193.792 462.276 193.682 461.95 193.682C461.628 193.682 461.373 193.792 461.183 194.011C460.998 194.227 460.905 194.527 460.905 194.909V200H457.905V194.909C457.905 194.527 457.808 194.227 457.615 194.011C457.422 193.792 457.162 193.682 456.837 193.682C456.621 193.682 456.435 193.731 456.28 193.83C456.125 193.928 456.003 194.07 455.916 194.256C455.833 194.437 455.791 194.655 455.791 194.909V200H452.655Z" fill="#181818" fill-opacity="0.75"/>
<g filter="url(#filter18_d_129_793)">
<rect x="557" y="158" width="72" height="72" rx="8" fill="white" fill-opacity="0.75" shape-rendering="crispEdges"/>
</g>
<path d="M575.795 200V191.273H578.932V200H575.795ZM577.364 190.364C576.939 190.364 576.576 190.223 576.273 189.943C575.97 189.663 575.818 189.326 575.818 188.932C575.818 188.538 575.97 188.201 576.273 187.92C576.576 187.64 576.939 187.5 577.364 187.5C577.792 187.5 578.155 187.64 578.455 187.92C578.758 188.201 578.909 188.538 578.909 188.932C578.909 189.326 578.758 189.663 578.455 189.943C578.155 190.223 577.792 190.364 577.364 190.364ZM585.734 191.273V193.545H579.984V191.273H585.734ZM581.098 189.182H584.234V197.193C584.234 197.314 584.255 197.417 584.297 197.5C584.339 197.58 584.403 197.64 584.49 197.682C584.577 197.72 584.689 197.739 584.825 197.739C584.92 197.739 585.03 197.727 585.155 197.705C585.284 197.682 585.378 197.663 585.439 197.648L585.893 199.852C585.753 199.894 585.553 199.945 585.291 200.006C585.034 200.066 584.727 200.106 584.371 200.125C583.651 200.163 583.047 200.089 582.558 199.903C582.07 199.714 581.702 199.417 581.456 199.011C581.21 198.606 581.09 198.098 581.098 197.489V189.182ZM591.102 200.159C590.17 200.159 589.367 199.981 588.693 199.625C588.023 199.265 587.506 198.75 587.142 198.08C586.782 197.405 586.602 196.598 586.602 195.659C586.602 194.758 586.784 193.97 587.148 193.295C587.511 192.621 588.025 192.097 588.688 191.722C589.35 191.347 590.133 191.159 591.034 191.159C591.693 191.159 592.29 191.261 592.824 191.466C593.358 191.67 593.814 191.968 594.193 192.358C594.572 192.744 594.864 193.214 595.068 193.767C595.273 194.32 595.375 194.943 595.375 195.636V196.364H587.58V194.636H592.489C592.485 194.386 592.42 194.167 592.295 193.977C592.174 193.784 592.009 193.634 591.801 193.528C591.597 193.419 591.364 193.364 591.102 193.364C590.848 193.364 590.616 193.419 590.403 193.528C590.191 193.634 590.021 193.782 589.892 193.972C589.767 194.161 589.701 194.383 589.693 194.636V196.5C589.693 196.78 589.752 197.03 589.869 197.25C589.987 197.47 590.155 197.642 590.375 197.767C590.595 197.892 590.86 197.955 591.17 197.955C591.386 197.955 591.583 197.924 591.761 197.864C591.943 197.803 592.098 197.716 592.227 197.602C592.356 197.485 592.451 197.345 592.511 197.182H595.375C595.277 197.788 595.044 198.314 594.676 198.761C594.309 199.205 593.822 199.549 593.216 199.795C592.614 200.038 591.909 200.159 591.102 200.159ZM596.655 200V191.273H599.632V192.932H599.723C599.905 192.386 600.215 191.955 600.655 191.636C601.094 191.318 601.617 191.159 602.223 191.159C602.837 191.159 603.365 191.322 603.808 191.648C604.251 191.97 604.518 192.398 604.609 192.932H604.7C604.848 192.398 605.162 191.97 605.643 191.648C606.125 191.322 606.689 191.159 607.337 191.159C608.174 191.159 608.852 191.428 609.371 191.966C609.893 192.504 610.155 193.22 610.155 194.114V200H607.018V194.909C607.018 194.527 606.922 194.227 606.729 194.011C606.536 193.792 606.276 193.682 605.95 193.682C605.628 193.682 605.373 193.792 605.183 194.011C604.998 194.227 604.905 194.527 604.905 194.909V200H601.905V194.909C601.905 194.527 601.808 194.227 601.615 194.011C601.422 193.792 601.162 193.682 600.837 193.682C600.621 193.682 600.435 193.731 600.28 193.83C600.125 193.928 600.003 194.07 599.916 194.256C599.833 194.437 599.791 194.655 599.791 194.909V200H596.655Z" fill="#181818" fill-opacity="0.75"/>
<g filter="url(#filter19_d_129_793)">
<rect x="557" y="256" width="72" height="72" rx="8" fill="white" fill-opacity="0.75" shape-rendering="crispEdges"/>
</g>
<path d="M575.795 298V289.273H578.932V298H575.795ZM577.364 288.364C576.939 288.364 576.576 288.223 576.273 287.943C575.97 287.663 575.818 287.326 575.818 286.932C575.818 286.538 575.97 286.201 576.273 285.92C576.576 285.64 576.939 285.5 577.364 285.5C577.792 285.5 578.155 285.64 578.455 285.92C578.758 286.201 578.909 286.538 578.909 286.932C578.909 287.326 578.758 287.663 578.455 287.943C578.155 288.223 577.792 288.364 577.364 288.364ZM585.734 289.273V291.545H579.984V289.273H585.734ZM581.098 287.182H584.234V295.193C584.234 295.314 584.255 295.417 584.297 295.5C584.339 295.58 584.403 295.64 584.49 295.682C584.577 295.72 584.689 295.739 584.825 295.739C584.92 295.739 585.03 295.727 585.155 295.705C585.284 295.682 585.378 295.663 585.439 295.648L585.893 297.852C585.753 297.894 585.553 297.945 585.291 298.006C585.034 298.066 584.727 298.106 584.371 298.125C583.651 298.163 583.047 298.089 582.558 297.903C582.07 297.714 581.702 297.417 581.456 297.011C581.21 296.606 581.09 296.098 581.098 295.489V287.182ZM591.102 298.159C590.17 298.159 589.367 297.981 588.693 297.625C588.023 297.265 587.506 296.75 587.142 296.08C586.782 295.405 586.602 294.598 586.602 293.659C586.602 292.758 586.784 291.97 587.148 291.295C587.511 290.621 588.025 290.097 588.688 289.722C589.35 289.347 590.133 289.159 591.034 289.159C591.693 289.159 592.29 289.261 592.824 289.466C593.358 289.67 593.814 289.968 594.193 290.358C594.572 290.744 594.864 291.214 595.068 291.767C595.273 292.32 595.375 292.943 595.375 293.636V294.364H587.58V292.636H592.489C592.485 292.386 592.42 292.167 592.295 291.977C592.174 291.784 592.009 291.634 591.801 291.528C591.597 291.419 591.364 291.364 591.102 291.364C590.848 291.364 590.616 291.419 590.403 291.528C590.191 291.634 590.021 291.782 589.892 291.972C589.767 292.161 589.701 292.383 589.693 292.636V294.5C589.693 294.78 589.752 295.03 589.869 295.25C589.987 295.47 590.155 295.642 590.375 295.767C590.595 295.892 590.86 295.955 591.17 295.955C591.386 295.955 591.583 295.924 591.761 295.864C591.943 295.803 592.098 295.716 592.227 295.602C592.356 295.485 592.451 295.345 592.511 295.182H595.375C595.277 295.788 595.044 296.314 594.676 296.761C594.309 297.205 593.822 297.549 593.216 297.795C592.614 298.038 591.909 298.159 591.102 298.159ZM596.655 298V289.273H599.632V290.932H599.723C599.905 290.386 600.215 289.955 600.655 289.636C601.094 289.318 601.617 289.159 602.223 289.159C602.837 289.159 603.365 289.322 603.808 289.648C604.251 289.97 604.518 290.398 604.609 290.932H604.7C604.848 290.398 605.162 289.97 605.643 289.648C606.125 289.322 606.689 289.159 607.337 289.159C608.174 289.159 608.852 289.428 609.371 289.966C609.893 290.504 610.155 291.22 610.155 292.114V298H607.018V292.909C607.018 292.527 606.922 292.227 606.729 292.011C606.536 291.792 606.276 291.682 605.95 291.682C605.628 291.682 605.373 291.792 605.183 292.011C604.998 292.227 604.905 292.527 604.905 292.909V298H601.905V292.909C601.905 292.527 601.808 292.227 601.615 292.011C601.422 291.792 601.162 291.682 600.837 291.682C600.621 291.682 600.435 291.731 600.28 291.83C600.125 291.928 600.003 292.07 599.916 292.256C599.833 292.437 599.791 292.655 599.791 292.909V298H596.655Z" fill="#181818" fill-opacity="0.75"/>
<path d="M530.773 21.1136H527.886C527.871 20.9356 527.809 20.7822 527.699 20.6534C527.589 20.5246 527.447 20.4261 527.273 20.358C527.102 20.286 526.913 20.25 526.705 20.25C526.436 20.25 526.205 20.2992 526.011 20.3977C525.818 20.4962 525.723 20.6364 525.727 20.8182C525.723 20.947 525.778 21.0663 525.892 21.1761C526.009 21.286 526.235 21.3712 526.568 21.4318L528.341 21.75C529.235 21.9129 529.9 22.1875 530.335 22.5739C530.775 22.9564 530.996 23.4697 531 24.1136C530.996 24.7348 530.811 25.2746 530.443 25.733C530.08 26.1875 529.581 26.5398 528.949 26.7898C528.32 27.036 527.602 27.1591 526.795 27.1591C525.462 27.1591 524.419 26.8864 523.665 26.3409C522.915 25.7955 522.496 25.0758 522.409 24.1818H525.523C525.564 24.4583 525.701 24.6723 525.932 24.8239C526.167 24.9716 526.462 25.0455 526.818 25.0455C527.106 25.0455 527.343 24.9962 527.528 24.8977C527.718 24.7992 527.814 24.6591 527.818 24.4773C527.814 24.3106 527.731 24.178 527.568 24.0795C527.409 23.9811 527.159 23.9015 526.818 23.8409L525.273 23.5682C524.383 23.4129 523.716 23.1174 523.273 22.6818C522.83 22.2462 522.61 21.6856 522.614 21C522.61 20.3939 522.769 19.8807 523.091 19.4602C523.417 19.036 523.881 18.714 524.483 18.4943C525.089 18.2708 525.807 18.1591 526.636 18.1591C527.898 18.1591 528.892 18.4205 529.619 18.9432C530.35 19.4659 530.735 20.1894 530.773 21.1136ZM532.202 30.2727V18.2727H535.315V19.7955H535.384C535.497 19.5 535.664 19.2292 535.884 18.983C536.103 18.733 536.376 18.5341 536.702 18.3864C537.027 18.2348 537.406 18.1591 537.838 18.1591C538.414 18.1591 538.961 18.3125 539.48 18.6193C540.003 18.9261 540.427 19.4091 540.753 20.0682C541.082 20.7273 541.247 21.5833 541.247 22.6364C541.247 23.6439 541.09 24.4792 540.776 25.142C540.465 25.8049 540.048 26.2992 539.526 26.625C539.007 26.9508 538.437 27.1136 537.815 27.1136C537.406 27.1136 537.041 27.0473 536.719 26.9148C536.401 26.7784 536.128 26.5947 535.901 26.3636C535.677 26.1288 535.505 25.8636 535.384 25.5682H535.338V30.2727H532.202ZM535.27 22.6364C535.27 23.0606 535.325 23.428 535.435 23.7386C535.548 24.0455 535.707 24.2841 535.912 24.4545C536.12 24.6212 536.368 24.7045 536.656 24.7045C536.944 24.7045 537.188 24.6231 537.389 24.4602C537.594 24.2936 537.749 24.0568 537.855 23.75C537.965 23.4394 538.02 23.0682 538.02 22.6364C538.02 22.2045 537.965 21.8352 537.855 21.5284C537.749 21.2178 537.594 20.9811 537.389 20.8182C537.188 20.6515 536.944 20.5682 536.656 20.5682C536.368 20.5682 536.12 20.6515 535.912 20.8182C535.707 20.9811 535.548 21.2178 535.435 21.5284C535.325 21.8352 535.27 22.2045 535.27 22.6364ZM544.993 27.1364C544.436 27.1364 543.944 27.0455 543.516 26.8636C543.091 26.678 542.758 26.3977 542.516 26.0227C542.273 25.6477 542.152 25.1705 542.152 24.5909C542.152 24.1136 542.233 23.7064 542.396 23.3693C542.559 23.0284 542.786 22.75 543.078 22.5341C543.37 22.3182 543.709 22.1534 544.095 22.0398C544.485 21.9261 544.906 21.8523 545.357 21.8182C545.845 21.7803 546.237 21.7348 546.533 21.6818C546.832 21.625 547.048 21.5473 547.18 21.4489C547.313 21.3466 547.379 21.2121 547.379 21.0455V21.0227C547.379 20.7955 547.292 20.6212 547.118 20.5C546.944 20.3788 546.72 20.3182 546.447 20.3182C546.148 20.3182 545.904 20.3845 545.714 20.517C545.529 20.6458 545.417 20.8447 545.379 21.1136H542.493C542.531 20.5833 542.699 20.0947 542.999 19.6477C543.302 19.197 543.743 18.8371 544.322 18.5682C544.902 18.2955 545.625 18.1591 546.493 18.1591C547.118 18.1591 547.679 18.233 548.175 18.3807C548.671 18.5246 549.093 18.7273 549.442 18.9886C549.79 19.2462 550.055 19.5492 550.237 19.8977C550.423 20.2424 550.516 20.6174 550.516 21.0227V27H547.584V25.7727H547.516C547.341 26.0985 547.129 26.3617 546.879 26.5625C546.633 26.7633 546.351 26.9091 546.033 27C545.718 27.0909 545.372 27.1364 544.993 27.1364ZM546.016 25.1591C546.254 25.1591 546.478 25.1098 546.686 25.0114C546.898 24.9129 547.071 24.7708 547.203 24.5852C547.336 24.3996 547.402 24.1742 547.402 23.9091V23.1818C547.319 23.2159 547.23 23.2481 547.135 23.2784C547.044 23.3087 546.946 23.3371 546.839 23.3636C546.737 23.3902 546.627 23.4148 546.51 23.4375C546.396 23.4602 546.277 23.4811 546.152 23.5C545.91 23.5379 545.711 23.6004 545.555 23.6875C545.404 23.7708 545.29 23.875 545.214 24C545.143 24.1212 545.107 24.2576 545.107 24.4091C545.107 24.6515 545.192 24.8371 545.362 24.9659C545.533 25.0947 545.75 25.1591 546.016 25.1591ZM556.219 27.1591C555.272 27.1591 554.461 26.9716 553.787 26.5966C553.113 26.2178 552.596 25.6913 552.236 25.017C551.876 24.339 551.696 23.553 551.696 22.6591C551.696 21.7652 551.876 20.9811 552.236 20.3068C552.596 19.6288 553.113 19.1023 553.787 18.7273C554.461 18.3485 555.272 18.1591 556.219 18.1591C557.075 18.1591 557.815 18.3144 558.44 18.625C559.069 18.9318 559.556 19.3674 559.901 19.9318C560.245 20.4924 560.42 21.1515 560.423 21.9091H557.514C557.473 21.4508 557.34 21.1023 557.116 20.8636C556.897 20.6212 556.613 20.5 556.264 20.5C555.991 20.5 555.753 20.5795 555.548 20.7386C555.344 20.8939 555.185 21.1307 555.071 21.4489C554.957 21.7633 554.901 22.1591 554.901 22.6364C554.901 23.1136 554.957 23.5114 555.071 23.8295C555.185 24.1439 555.344 24.3807 555.548 24.5398C555.753 24.6951 555.991 24.7727 556.264 24.7727C556.495 24.7727 556.7 24.7197 556.878 24.6136C557.056 24.5038 557.2 24.3447 557.31 24.1364C557.423 23.9242 557.491 23.6667 557.514 23.3636H560.423C560.412 24.1326 560.236 24.803 559.895 25.375C559.554 25.9432 559.071 26.3826 558.446 26.6932C557.825 27.0038 557.082 27.1591 556.219 27.1591ZM565.899 27.1591C564.967 27.1591 564.164 26.9811 563.49 26.625C562.82 26.2652 562.303 25.75 561.939 25.0795C561.579 24.4053 561.399 23.5985 561.399 22.6591C561.399 21.7576 561.581 20.9697 561.945 20.2955C562.308 19.6212 562.821 19.0966 563.484 18.7216C564.147 18.3466 564.929 18.1591 565.831 18.1591C566.49 18.1591 567.087 18.2614 567.621 18.4659C568.155 18.6705 568.611 18.9678 568.99 19.358C569.369 19.7443 569.661 20.214 569.865 20.767C570.07 21.3201 570.172 21.9432 570.172 22.6364V23.3636H562.376V21.6364H567.286C567.282 21.3864 567.217 21.1667 567.092 20.9773C566.971 20.7841 566.806 20.6345 566.598 20.5284C566.393 20.4186 566.161 20.3636 565.899 20.3636C565.645 20.3636 565.412 20.4186 565.2 20.5284C564.988 20.6345 564.818 20.7822 564.689 20.9716C564.564 21.161 564.498 21.3826 564.49 21.6364V23.5C564.49 23.7803 564.549 24.0303 564.666 24.25C564.784 24.4697 564.952 24.642 565.172 24.767C565.392 24.892 565.657 24.9545 565.967 24.9545C566.183 24.9545 566.38 24.9242 566.558 24.8636C566.74 24.803 566.895 24.7159 567.024 24.6023C567.153 24.4848 567.248 24.3447 567.308 24.1818H570.172C570.073 24.7879 569.84 25.3144 569.473 25.7614C569.106 26.2045 568.619 26.5492 568.013 26.7955C567.411 27.0379 566.706 27.1591 565.899 27.1591ZM577.179 21.1818V23.5455H571.724V21.1818H577.179ZM583.227 27.1591C582.295 27.1591 581.492 26.9811 580.818 26.625C580.148 26.2652 579.631 25.75 579.267 25.0795C578.907 24.4053 578.727 23.5985 578.727 22.6591C578.727 21.7576 578.909 20.9697 579.273 20.2955C579.636 19.6212 580.15 19.0966 580.812 18.7216C581.475 18.3466 582.258 18.1591 583.159 18.1591C583.818 18.1591 584.415 18.2614 584.949 18.4659C585.483 18.6705 585.939 18.9678 586.318 19.358C586.697 19.7443 586.989 20.214 587.193 20.767C587.398 21.3201 587.5 21.9432 587.5 22.6364V23.3636H579.705V21.6364H584.614C584.61 21.3864 584.545 21.1667 584.42 20.9773C584.299 20.7841 584.134 20.6345 583.926 20.5284C583.722 20.4186 583.489 20.3636 583.227 20.3636C582.973 20.3636 582.741 20.4186 582.528 20.5284C582.316 20.6345 582.146 20.7822 582.017 20.9716C581.892 21.161 581.826 21.3826 581.818 21.6364V23.5C581.818 23.7803 581.877 24.0303 581.994 24.25C582.112 24.4697 582.28 24.642 582.5 24.767C582.72 24.892 582.985 24.9545 583.295 24.9545C583.511 24.9545 583.708 24.9242 583.886 24.8636C584.068 24.803 584.223 24.7159 584.352 24.6023C584.481 24.4848 584.576 24.3447 584.636 24.1818H587.5C587.402 24.7879 587.169 25.3144 586.801 25.7614C586.434 26.2045 585.947 26.5492 585.341 26.7955C584.739 27.0379 584.034 27.1591 583.227 27.1591ZM597.357 18.2727L594.425 27H590.788L587.857 18.2727H591.152L592.561 24.0455H592.652L594.061 18.2727H597.357ZM602.165 27.1591C601.233 27.1591 600.43 26.9811 599.756 26.625C599.085 26.2652 598.568 25.75 598.205 25.0795C597.845 24.4053 597.665 23.5985 597.665 22.6591C597.665 21.7576 597.847 20.9697 598.21 20.2955C598.574 19.6212 599.087 19.0966 599.75 18.7216C600.413 18.3466 601.195 18.1591 602.097 18.1591C602.756 18.1591 603.352 18.2614 603.886 18.4659C604.42 18.6705 604.877 18.9678 605.256 19.358C605.634 19.7443 605.926 20.214 606.131 20.767C606.335 21.3201 606.438 21.9432 606.438 22.6364V23.3636H598.642V21.6364H603.551C603.547 21.3864 603.483 21.1667 603.358 20.9773C603.237 20.7841 603.072 20.6345 602.864 20.5284C602.659 20.4186 602.426 20.3636 602.165 20.3636C601.911 20.3636 601.678 20.4186 601.466 20.5284C601.254 20.6345 601.083 20.7822 600.955 20.9716C600.83 21.161 600.763 21.3826 600.756 21.6364V23.5C600.756 23.7803 600.814 24.0303 600.932 24.25C601.049 24.4697 601.218 24.642 601.438 24.767C601.657 24.892 601.922 24.9545 602.233 24.9545C602.449 24.9545 602.646 24.9242 602.824 24.8636C603.006 24.803 603.161 24.7159 603.29 24.6023C603.419 24.4848 603.513 24.3447 603.574 24.1818H606.438C606.339 24.7879 606.106 25.3144 605.739 25.7614C605.371 26.2045 604.884 26.5492 604.278 26.7955C603.676 27.0379 602.972 27.1591 602.165 27.1591ZM610.854 22.0909V27H607.717V18.2727H610.695V19.9318H610.786C610.975 19.3788 611.308 18.9451 611.786 18.6307C612.267 18.3163 612.827 18.1591 613.467 18.1591C614.085 18.1591 614.621 18.3011 615.075 18.5852C615.534 18.8655 615.888 19.2519 616.138 19.7443C616.392 20.2367 616.517 20.7992 616.513 21.4318V27H613.376V22.0909C613.38 21.6591 613.27 21.3201 613.047 21.0739C612.827 20.8277 612.52 20.7045 612.126 20.7045C611.869 20.7045 611.643 20.7614 611.45 20.875C611.261 20.9848 611.115 21.1439 611.013 21.3523C610.911 21.5568 610.857 21.803 610.854 22.0909ZM621.197 15.3636V27H618.061V15.3636H621.197ZM624.705 30.2727C624.345 30.2727 624.002 30.2443 623.676 30.1875C623.35 30.1345 623.064 30.0606 622.818 29.9659L623.5 27.7386C623.758 27.8295 623.992 27.8883 624.205 27.9148C624.42 27.9413 624.604 27.9261 624.756 27.8693C624.911 27.8125 625.023 27.7045 625.091 27.5455L625.159 27.3864L622.091 18.2727H625.364L626.773 24.3182H626.864L628.295 18.2727H631.591L628.409 27.7273C628.25 28.2083 628.019 28.6402 627.716 29.0227C627.417 29.4091 627.023 29.714 626.534 29.9375C626.045 30.161 625.436 30.2727 624.705 30.2727Z" fill="#181818" fill-opacity="0.75"/>
<defs>
<filter id="filter0_d_129_793" x="0" y="0" width="376" height="376" filterUnits="userSpaceOnUse" color-interpolation-filters="sRGB">
<feFlood flood-opacity="0" result="BackgroundImageFix"/>
<feColorMatrix in="SourceAlpha" type="matrix" values="0 0 0 0 0 0 0 0 0 0 0 0 0 0 0 0 0 0 127 0" result="hardAlpha"/>
<feOffset dy="4"/>
<feGaussianBlur stdDeviation="4"/>
<feComposite in2="hardAlpha" operator="out"/>
<feColorMatrix type="matrix" values="0 0 0 0 0.129412 0 0 0 0 0.447059 0 0 0 0 1 0 0 0 0.25 0"/>
<feBlend mode="normal" in2="BackgroundImageFix" result="effect1_dropShadow_129_793"/>
<feBlend mode="normal" in="SourceGraphic" in2="effect1_dropShadow_129_793" result="shape"/>
</filter>
<filter id="filter1_d_129_793" x="88" y="262" width="88" height="88" filterUnits="userSpaceOnUse" color-interpolation-filters="sRGB">
<feFlood flood-opacity="0" result="BackgroundImageFix"/>
<feColorMatrix in="SourceAlpha" type="matrix" values="0 0 0 0 0 0 0 0 0 0 0 0 0 0 0 0 0 0 127 0" result="hardAlpha"/>
<feOffset dy="4"/>
<feGaussianBlur stdDeviation="4"/>
<feComposite in2="hardAlpha" operator="out"/>
<feColorMatrix type="matrix" values="0 0 0 0 1 0 0 0 0 1 0 0 0 0 1 0 0 0 0.25 0"/>
<feBlend mode="normal" in2="BackgroundImageFix" result="effect1_dropShadow_129_793"/>
<feBlend mode="normal" in="SourceGraphic" in2="effect1_dropShadow_129_793" result="shape"/>
</filter>
<filter id="filter2_d_129_793" x="88" y="45" width="88" height="88" filterUnits="userSpaceOnUse" color-interpolation-filters="sRGB">
<feFlood flood-opacity="0" result="BackgroundImageFix"/>
<feColorMatrix in="SourceAlpha" type="matrix" values="0 0 0 0 0 0 0 0 0 0 0 0 0 0 0 0 0 0 127 0" result="hardAlpha"/>
<feOffset dy="4"/>
<feGaussianBlur stdDeviation="4"/>
<feComposite in2="hardAlpha" operator="out"/>
<feColorMatrix type="matrix" values="0 0 0 0 1 0 0 0 0 1 0 0 0 0 1 0 0 0 0.25 0"/>
<feBlend mode="normal" in2="BackgroundImageFix" result="effect1_dropShadow_129_793"/>
<feBlend mode="normal" in="SourceGraphic" in2="effect1_dropShadow_129_793" result="shape"/>
</filter>
<filter id="filter3_d_129_793" x="16" y="262" width="88" height="88" filterUnits="userSpaceOnUse" color-interpolation-filters="sRGB">
<feFlood flood-opacity="0" result="BackgroundImageFix"/>
<feColorMatrix in="SourceAlpha" type="matrix" values="0 0 0 0 0 0 0 0 0 0 0 0 0 0 0 0 0 0 127 0" result="hardAlpha"/>
<feOffset dy="4"/>
<feGaussianBlur stdDeviation="4"/>
<feComposite in2="hardAlpha" operator="out"/>
<feColorMatrix type="matrix" values="0 0 0 0 1 0 0 0 0 1 0 0 0 0 1 0 0 0 0.25 0"/>
<feBlend mode="normal" in2="BackgroundImageFix" result="effect1_dropShadow_129_793"/>
<feBlend mode="normal" in="SourceGraphic" in2="effect1_dropShadow_129_793" result="shape"/>
</filter>
<filter id="filter4_d_129_793" x="16" y="45" width="88" height="88" filterUnits="userSpaceOnUse" color-interpolation-filters="sRGB">
<feFlood flood-opacity="0" result="BackgroundImageFix"/>
<feColorMatrix in="SourceAlpha" type="matrix" values="0 0 0 0 0 0 0 0 0 0 0 0 0 0 0 0 0 0 127 0" result="hardAlpha"/>
<feOffset dy="4"/>
<feGaussianBlur stdDeviation="4"/>
<feComposite in2="hardAlpha" operator="out"/>
<feColorMatrix type="matrix" values="0 0 0 0 1 0 0 0 0 1 0 0 0 0 1 0 0 0 0.25 0"/>
<feBlend mode="normal" in2="BackgroundImageFix" result="effect1_dropShadow_129_793"/>
<feBlend mode="normal" in="SourceGraphic" in2="effect1_dropShadow_129_793" result="shape"/>
</filter>
<filter id="filter5_d_129_793" x="160" y="45" width="88" height="88" filterUnits="userSpaceOnUse" color-interpolation-filters="sRGB">
<feFlood flood-opacity="0" result="BackgroundImageFix"/>
<feColorMatrix in="SourceAlpha" type="matrix" values="0 0 0 0 0 0 0 0 0 0 0 0 0 0 0 0 0 0 127 0" result="hardAlpha"/>
<feOffset dy="4"/>
<feGaussianBlur stdDeviation="4"/>
<feComposite in2="hardAlpha" operator="out"/>
<feColorMatrix type="matrix" values="0 0 0 0 1 0 0 0 0 1 0 0 0 0 1 0 0 0 0.25 0"/>
<feBlend mode="normal" in2="BackgroundImageFix" result="effect1_dropShadow_129_793"/>
<feBlend mode="normal" in="SourceGraphic" in2="effect1_dropShadow_129_793" result="shape"/>
</filter>
<filter id="filter6_d_129_793" x="88" y="154" width="88" height="88" filterUnits="userSpaceOnUse" color-interpolation-filters="sRGB">
<feFlood flood-opacity="0" result="BackgroundImageFix"/>
<feColorMatrix in="SourceAlpha" type="matrix" values="0 0 0 0 0 0 0 0 0 0 0 0 0 0 0 0 0 0 127 0" result="hardAlpha"/>
<feOffset dy="4"/>
<feGaussianBlur stdDeviation="4"/>
<feComposite in2="hardAlpha" operator="out"/>
<feColorMatrix type="matrix" values="0 0 0 0 1 0 0 0 0 1 0 0 0 0 1 0 0 0 0.25 0"/>
<feBlend mode="normal" in2="BackgroundImageFix" result="effect1_dropShadow_129_793"/>
<feBlend mode="normal" in="SourceGraphic" in2="effect1_dropShadow_129_793" result="shape"/>
</filter>
<filter id="filter7_d_129_793" x="16" y="154" width="88" height="88" filterUnits="userSpaceOnUse" color-interpolation-filters="sRGB">
<feFlood flood-opacity="0" result="BackgroundImageFix"/>
<feColorMatrix in="SourceAlpha" type="matrix" values="0 0 0 0 0 0 0 0 0 0 0 0 0 0 0 0 0 0 127 0" result="hardAlpha"/>
<feOffset dy="4"/>
<feGaussianBlur stdDeviation="4"/>
<feComposite in2="hardAlpha" operator="out"/>
<feColorMatrix type="matrix" values="0 0 0 0 1 0 0 0 0 1 0 0 0 0 1 0 0 0 0.25 0"/>
<feBlend mode="normal" in2="BackgroundImageFix" result="effect1_dropShadow_129_793"/>
<feBlend mode="normal" in="SourceGraphic" in2="effect1_dropShadow_129_793" result="shape"/>
</filter>
<filter id="filter8_d_129_793" x="160" y="154" width="88" height="88" filterUnits="userSpaceOnUse" color-interpolation-filters="sRGB">
<feFlood flood-opacity="0" result="BackgroundImageFix"/>
<feColorMatrix in="SourceAlpha" type="matrix" values="0 0 0 0 0 0 0 0 0 0 0 0 0 0 0 0 0 0 127 0" result="hardAlpha"/>
<feOffset dy="4"/>
<feGaussianBlur stdDeviation="4"/>
<feComposite in2="hardAlpha" operator="out"/>
<feColorMatrix type="matrix" values="0 0 0 0 1 0 0 0 0 1 0 0 0 0 1 0 0 0 0.25 0"/>
<feBlend mode="normal" in2="BackgroundImageFix" result="effect1_dropShadow_129_793"/>
<feBlend mode="normal" in="SourceGraphic" in2="effect1_dropShadow_129_793" result="shape"/>
</filter>
<filter id="filter9_d_129_793" x="160" y="262" width="88" height="88" filterUnits="userSpaceOnUse" color-interpolation-filters="sRGB">
<feFlood flood-opacity="0" result="BackgroundImageFix"/>
<feColorMatrix in="SourceAlpha" type="matrix" values="0 0 0 0 0 0 0 0 0 0 0 0 0 0 0 0 0 0 127 0" result="hardAlpha"/>
<feOffset dy="4"/>
<feGaussianBlur stdDeviation="4"/>
<feComposite in2="hardAlpha" operator="out"/>
<feColorMatrix type="matrix" values="0 0 0 0 1 0 0 0 0 1 0 0 0 0 1 0 0 0 0.25 0"/>
<feBlend mode="normal" in2="BackgroundImageFix" result="effect1_dropShadow_129_793"/>
<feBlend mode="normal" in="SourceGraphic" in2="effect1_dropShadow_129_793" result="shape"/>
</filter>
<filter id="filter10_d_129_793" x="389" y="0" width="376" height="376" filterUnits="userSpaceOnUse" color-interpolation-filters="sRGB">
<feFlood flood-opacity="0" result="BackgroundImageFix"/>
<feColorMatrix in="SourceAlpha" type="matrix" values="0 0 0 0 0 0 0 0 0 0 0 0 0 0 0 0 0 0 127 0" result="hardAlpha"/>
<feOffset dy="4"/>
<feGaussianBlur stdDeviation="4"/>
<feComposite in2="hardAlpha" operator="out"/>
<feColorMatrix type="matrix" values="0 0 0 0 0.129412 0 0 0 0 0.447059 0 0 0 0 1 0 0 0 0.25 0"/>
<feBlend mode="normal" in2="BackgroundImageFix" result="effect1_dropShadow_129_793"/>
<feBlend mode="normal" in="SourceGraphic" in2="effect1_dropShadow_129_793" result="shape"/>
</filter>
<filter id="filter11_d_129_793" x="477" y="252" width="88" height="88" filterUnits="userSpaceOnUse" color-interpolation-filters="sRGB">
<feFlood flood-opacity="0" result="BackgroundImageFix"/>
<feColorMatrix in="SourceAlpha" type="matrix" values="0 0 0 0 0 0 0 0 0 0 0 0 0 0 0 0 0 0 127 0" result="hardAlpha"/>
<feOffset dy="4"/>
<feGaussianBlur stdDeviation="4"/>
<feComposite in2="hardAlpha" operator="out"/>
<feColorMatrix type="matrix" values="0 0 0 0 1 0 0 0 0 1 0 0 0 0 1 0 0 0 0.25 0"/>
<feBlend mode="normal" in2="BackgroundImageFix" result="effect1_dropShadow_129_793"/>
<feBlend mode="normal" in="SourceGraphic" in2="effect1_dropShadow_129_793" result="shape"/>
</filter>
<filter id="filter12_d_129_793" x="477" y="55" width="88" height="88" filterUnits="userSpaceOnUse" color-interpolation-filters="sRGB">
<feFlood flood-opacity="0" result="BackgroundImageFix"/>
<feColorMatrix in="SourceAlpha" type="matrix" values="0 0 0 0 0 0 0 0 0 0 0 0 0 0 0 0 0 0 127 0" result="hardAlpha"/>
<feOffset dy="4"/>
<feGaussianBlur stdDeviation="4"/>
<feComposite in2="hardAlpha" operator="out"/>
<feColorMatrix type="matrix" values="0 0 0 0 1 0 0 0 0 1 0 0 0 0 1 0 0 0 0.25 0"/>
<feBlend mode="normal" in2="BackgroundImageFix" result="effect1_dropShadow_129_793"/>
<feBlend mode="normal" in="SourceGraphic" in2="effect1_dropShadow_129_793" result="shape"/>
</filter>
<filter id="filter13_d_129_793" x="405" y="252" width="88" height="88" filterUnits="userSpaceOnUse" color-interpolation-filters="sRGB">
<feFlood flood-opacity="0" result="BackgroundImageFix"/>
<feColorMatrix in="SourceAlpha" type="matrix" values="0 0 0 0 0 0 0 0 0 0 0 0 0 0 0 0 0 0 127 0" result="hardAlpha"/>
<feOffset dy="4"/>
<feGaussianBlur stdDeviation="4"/>
<feComposite in2="hardAlpha" operator="out"/>
<feColorMatrix type="matrix" values="0 0 0 0 1 0 0 0 0 1 0 0 0 0 1 0 0 0 0.25 0"/>
<feBlend mode="normal" in2="BackgroundImageFix" result="effect1_dropShadow_129_793"/>
<feBlend mode="normal" in="SourceGraphic" in2="effect1_dropShadow_129_793" result="shape"/>
</filter>
<filter id="filter14_d_129_793" x="405" y="55" width="88" height="88" filterUnits="userSpaceOnUse" color-interpolation-filters="sRGB">
<feFlood flood-opacity="0" result="BackgroundImageFix"/>
<feColorMatrix in="SourceAlpha" type="matrix" values="0 0 0 0 0 0 0 0 0 0 0 0 0 0 0 0 0 0 127 0" result="hardAlpha"/>
<feOffset dy="4"/>
<feGaussianBlur stdDeviation="4"/>
<feComposite in2="hardAlpha" operator="out"/>
<feColorMatrix type="matrix" values="0 0 0 0 1 0 0 0 0 1 0 0 0 0 1 0 0 0 0.25 0"/>
<feBlend mode="normal" in2="BackgroundImageFix" result="effect1_dropShadow_129_793"/>
<feBlend mode="normal" in="SourceGraphic" in2="effect1_dropShadow_129_793" result="shape"/>
</filter>
<filter id="filter15_d_129_793" x="549" y="55" width="88" height="88" filterUnits="userSpaceOnUse" color-interpolation-filters="sRGB">
<feFlood flood-opacity="0" result="BackgroundImageFix"/>
<feColorMatrix in="SourceAlpha" type="matrix" values="0 0 0 0 0 0 0 0 0 0 0 0 0 0 0 0 0 0 127 0" result="hardAlpha"/>
<feOffset dy="4"/>
<feGaussianBlur stdDeviation="4"/>
<feComposite in2="hardAlpha" operator="out"/>
<feColorMatrix type="matrix" values="0 0 0 0 1 0 0 0 0 1 0 0 0 0 1 0 0 0 0.25 0"/>
<feBlend mode="normal" in2="BackgroundImageFix" result="effect1_dropShadow_129_793"/>
<feBlend mode="normal" in="SourceGraphic" in2="effect1_dropShadow_129_793" result="shape"/>
</filter>
<filter id="filter16_d_129_793" x="477" y="154" width="88" height="88" filterUnits="userSpaceOnUse" color-interpolation-filters="sRGB">
<feFlood flood-opacity="0" result="BackgroundImageFix"/>
<feColorMatrix in="SourceAlpha" type="matrix" values="0 0 0 0 0 0 0 0 0 0 0 0 0 0 0 0 0 0 127 0" result="hardAlpha"/>
<feOffset dy="4"/>
<feGaussianBlur stdDeviation="4"/>
<feComposite in2="hardAlpha" operator="out"/>
<feColorMatrix type="matrix" values="0 0 0 0 1 0 0 0 0 1 0 0 0 0 1 0 0 0 0.25 0"/>
<feBlend mode="normal" in2="BackgroundImageFix" result="effect1_dropShadow_129_793"/>
<feBlend mode="normal" in="SourceGraphic" in2="effect1_dropShadow_129_793" result="shape"/>
</filter>
<filter id="filter17_d_129_793" x="405" y="154" width="88" height="88" filterUnits="userSpaceOnUse" color-interpolation-filters="sRGB">
<feFlood flood-opacity="0" result="BackgroundImageFix"/>
<feColorMatrix in="SourceAlpha" type="matrix" values="0 0 0 0 0 0 0 0 0 0 0 0 0 0 0 0 0 0 127 0" result="hardAlpha"/>
<feOffset dy="4"/>
<feGaussianBlur stdDeviation="4"/>
<feComposite in2="hardAlpha" operator="out"/>
<feColorMatrix type="matrix" values="0 0 0 0 1 0 0 0 0 1 0 0 0 0 1 0 0 0 0.25 0"/>
<feBlend mode="normal" in2="BackgroundImageFix" result="effect1_dropShadow_129_793"/>
<feBlend mode="normal" in="SourceGraphic" in2="effect1_dropShadow_129_793" result="shape"/>
</filter>
<filter id="filter18_d_129_793" x="549" y="154" width="88" height="88" filterUnits="userSpaceOnUse" color-interpolation-filters="sRGB">
<feFlood flood-opacity="0" result="BackgroundImageFix"/>
<feColorMatrix in="SourceAlpha" type="matrix" values="0 0 0 0 0 0 0 0 0 0 0 0 0 0 0 0 0 0 127 0" result="hardAlpha"/>
<feOffset dy="4"/>
<feGaussianBlur stdDeviation="4"/>
<feComposite in2="hardAlpha" operator="out"/>
<feColorMatrix type="matrix" values="0 0 0 0 1 0 0 0 0 1 0 0 0 0 1 0 0 0 0.25 0"/>
<feBlend mode="normal" in2="BackgroundImageFix" result="effect1_dropShadow_129_793"/>
<feBlend mode="normal" in="SourceGraphic" in2="effect1_dropShadow_129_793" result="shape"/>
</filter>
<filter id="filter19_d_129_793" x="549" y="252" width="88" height="88" filterUnits="userSpaceOnUse" color-interpolation-filters="sRGB">
<feFlood flood-opacity="0" result="BackgroundImageFix"/>
<feColorMatrix in="SourceAlpha" type="matrix" values="0 0 0 0 0 0 0 0 0 0 0 0 0 0 0 0 0 0 127 0" result="hardAlpha"/>
<feOffset dy="4"/>
<feGaussianBlur stdDeviation="4"/>
<feComposite in2="hardAlpha" operator="out"/>
<feColorMatrix type="matrix" values="0 0 0 0 1 0 0 0 0 1 0 0 0 0 1 0 0 0 0.25 0"/>
<feBlend mode="normal" in2="BackgroundImageFix" result="effect1_dropShadow_129_793"/>
<feBlend mode="normal" in="SourceGraphic" in2="effect1_dropShadow_129_793" result="shape"/>
</filter>
</defs>
</svg>
