<svg width="467" height="168" viewBox="0 0 467 168" fill="none" xmlns="http://www.w3.org/2000/svg">
<rect x="113.966" y="17.2583" width="96" height="96" rx="16" transform="rotate(40 113.966 17.2583)" fill="#00FFFF" fill-opacity="0.8"/>
<rect x="52.2584" y="78.966" width="96" height="96" rx="16" transform="rotate(-40 52.2584 78.966)" fill="#FF00F5" fill-opacity="0.8"/>
<rect x="119.882" y="17" width="96" height="96" rx="16" transform="rotate(45 119.882 17)" fill="#3958FF"/>
<path d="M119.408 105.56C116.757 105.56 114.443 105.075 112.464 104.104C110.523 103.133 109.011 101.771 107.928 100.016C106.845 98.2613 106.304 96.1893 106.304 93.8H113.36C113.36 95.6293 113.883 97.0667 114.928 98.112C116.011 99.12 117.523 99.624 119.464 99.624C121.405 99.624 122.899 99.1013 123.944 98.056C124.989 97.0107 125.512 95.592 125.512 93.8V90.608C125.512 88.7787 124.989 87.36 123.944 86.352C122.899 85.3067 121.405 84.784 119.464 84.784H114.872V78.456L123.888 70.112H108.152V64.12H131V70.448L119.464 81.032V78.792C123.496 78.792 126.688 79.856 129.04 81.984C131.392 84.112 132.568 86.9867 132.568 90.608V93.8C132.568 96.1893 132.027 98.2613 130.944 100.016C129.861 101.771 128.331 103.133 126.352 104.104C124.373 105.075 122.059 105.56 119.408 105.56Z" fill="white"/>
<path d="M58.24 145.08C53.8027 145.08 49.9627 144.269 46.72 142.648C43.4773 141.112 41.0027 138.851 39.296 135.864C37.6747 132.877 36.992 129.293 37.248 125.112L38.912 101.56C39.2533 97.0373 38.5707 93.7947 36.864 91.832C35.2427 89.784 31.6587 88.76 26.112 88.76H12.032V81.208H26.112C31.488 81.208 35.0293 80.2267 36.736 78.264C38.528 76.3013 39.2533 73.016 38.912 68.408L37.248 44.728C36.992 40.4613 37.6747 36.8773 39.296 33.976C41.0027 30.9893 43.4773 28.728 46.72 27.192C49.9627 25.5707 53.8027 24.76 58.24 24.76H64.768V32.312H58.24C54.3147 32.312 51.1573 33.4213 48.768 35.64C46.464 37.7733 45.44 40.8027 45.696 44.728L47.36 68.408C47.7867 73.4427 46.6347 77.5387 43.904 80.696C41.1733 83.768 37.4187 85.304 32.64 85.304V84.408C37.3333 84.408 41.0453 85.9867 43.776 89.144C46.592 92.3013 47.7867 96.44 47.36 101.56L45.696 125.112C45.44 129.037 46.464 132.067 48.768 134.2C51.1573 136.419 54.3147 137.528 58.24 137.528H64.768V145.08H58.24Z" fill="#151515"/>
<path d="M241.605 61.2727V102H234.168L216.449 76.3665H216.151V102H207.54V61.2727H215.097L232.676 86.8864H233.034V61.2727H241.605ZM262.481 102.597C259.339 102.597 256.634 101.96 254.367 100.688C252.113 99.4015 250.377 97.5852 249.157 95.2386C247.937 92.8788 247.327 90.0881 247.327 86.8665C247.327 83.7244 247.937 80.9669 249.157 78.5938C250.377 76.2206 252.094 74.3712 254.308 73.0455C256.535 71.7197 259.147 71.0568 262.143 71.0568C264.158 71.0568 266.034 71.3816 267.771 72.0312C269.521 72.6676 271.045 73.6288 272.344 74.9148C273.657 76.2008 274.678 77.8182 275.407 79.767C276.136 81.7027 276.501 83.9697 276.501 86.5682V88.8949H250.708V83.6449H268.526C268.526 82.4252 268.261 81.3447 267.731 80.4034C267.201 79.4621 266.465 78.7263 265.523 78.196C264.595 77.6525 263.515 77.3807 262.282 77.3807C260.996 77.3807 259.856 77.679 258.862 78.2756C257.88 78.8589 257.112 79.6477 256.555 80.642C255.998 81.6231 255.713 82.7169 255.7 83.9233V88.9148C255.7 90.4261 255.978 91.732 256.535 92.8324C257.105 93.9328 257.907 94.7812 258.941 95.3778C259.975 95.9744 261.201 96.2727 262.62 96.2727C263.561 96.2727 264.423 96.1402 265.205 95.875C265.987 95.6098 266.657 95.2121 267.214 94.6818C267.771 94.1515 268.195 93.5019 268.487 92.733L276.322 93.25C275.924 95.1326 275.109 96.7765 273.876 98.1818C272.656 99.5739 271.078 100.661 269.143 101.443C267.22 102.212 265 102.597 262.481 102.597ZM287.836 102L279.523 71.4545H288.094L292.827 91.9773H293.106L298.038 71.4545H306.45L311.461 91.858H311.719L316.373 71.4545H324.924L316.631 102H307.663L302.413 82.7898H302.035L296.785 102H287.836ZM351.696 72.9858C351.537 71.3816 350.854 70.1354 349.648 69.2472C348.441 68.3589 346.804 67.9148 344.736 67.9148C343.33 67.9148 342.144 68.1136 341.176 68.5114C340.208 68.8958 339.466 69.4328 338.949 70.1222C338.445 70.8116 338.193 71.5938 338.193 72.4688C338.167 73.1979 338.319 73.8343 338.651 74.3778C338.995 74.9214 339.466 75.392 340.062 75.7898C340.659 76.1742 341.348 76.5123 342.131 76.804C342.913 77.0824 343.748 77.321 344.636 77.5199L348.295 78.3949C350.072 78.7926 351.703 79.3229 353.188 79.9858C354.672 80.6487 355.958 81.464 357.045 82.4318C358.133 83.3996 358.974 84.5398 359.571 85.8523C360.181 87.1648 360.492 88.6695 360.506 90.3665C360.492 92.8589 359.856 95.0199 358.597 96.8494C357.35 98.6657 355.547 100.078 353.188 101.085C350.841 102.08 348.01 102.577 344.696 102.577C341.408 102.577 338.545 102.073 336.105 101.065C333.679 100.058 331.783 98.5663 330.418 96.5909C329.065 94.6023 328.356 92.143 328.29 89.2131H336.622C336.715 90.5786 337.106 91.7187 337.795 92.6335C338.498 93.535 339.433 94.2178 340.599 94.6818C341.779 95.1326 343.112 95.358 344.597 95.358C346.055 95.358 347.321 95.1458 348.395 94.7216C349.482 94.2973 350.324 93.7074 350.92 92.9517C351.517 92.196 351.815 91.3277 351.815 90.3466C351.815 89.4318 351.544 88.6629 351 88.0398C350.47 87.4167 349.688 86.8864 348.653 86.4489C347.633 86.0114 346.38 85.6136 344.895 85.2557L340.46 84.142C337.027 83.3068 334.315 82.0009 332.327 80.2244C330.338 78.4479 329.35 76.0549 329.364 73.0455C329.35 70.5795 330.007 68.4252 331.332 66.5824C332.671 64.7396 334.508 63.3011 336.841 62.267C339.174 61.233 341.826 60.7159 344.795 60.7159C347.818 60.7159 350.456 61.233 352.71 62.267C354.977 63.3011 356.741 64.7396 358 66.5824C359.259 68.4252 359.909 70.5597 359.949 72.9858H351.696ZM382.386 71.4545V77.8182H363.991V71.4545H382.386ZM368.167 64.1364H376.638V92.6136C376.638 93.3958 376.758 94.0057 376.996 94.4432C377.235 94.8674 377.567 95.1657 377.991 95.3381C378.428 95.5104 378.932 95.5966 379.502 95.5966C379.9 95.5966 380.298 95.5634 380.695 95.4972C381.093 95.4176 381.398 95.358 381.61 95.3182L382.942 101.622C382.518 101.755 381.922 101.907 381.153 102.08C380.384 102.265 379.449 102.378 378.349 102.418C376.307 102.497 374.517 102.225 372.979 101.602C371.455 100.979 370.268 100.011 369.42 98.6989C368.571 97.3864 368.154 95.7292 368.167 93.7273V64.1364ZM393.134 113.455C392.06 113.455 391.053 113.368 390.112 113.196C389.183 113.037 388.415 112.831 387.805 112.58L389.714 106.256C390.708 106.561 391.603 106.726 392.398 106.753C393.207 106.779 393.903 106.594 394.487 106.196C395.083 105.798 395.567 105.122 395.938 104.168L396.435 102.875L385.478 71.4545H394.387L400.711 93.8864H401.029L407.413 71.4545H416.381L404.509 105.301C403.939 106.945 403.164 108.377 402.183 109.597C401.215 110.83 399.988 111.777 398.504 112.44C397.019 113.116 395.229 113.455 393.134 113.455ZM429.188 61.2727V102H420.717V61.2727H429.188ZM449.895 102.597C446.753 102.597 444.048 101.96 441.781 100.688C439.527 99.4015 437.791 97.5852 436.571 95.2386C435.351 92.8788 434.741 90.0881 434.741 86.8665C434.741 83.7244 435.351 80.9669 436.571 78.5938C437.791 76.2206 439.508 74.3712 441.722 73.0455C443.949 71.7197 446.561 71.0568 449.557 71.0568C451.572 71.0568 453.448 71.3816 455.185 72.0312C456.935 72.6676 458.459 73.6288 459.759 74.9148C461.071 76.2008 462.092 77.8182 462.821 79.767C463.55 81.7027 463.915 83.9697 463.915 86.5682V88.8949H438.122V83.6449H455.94C455.94 82.4252 455.675 81.3447 455.145 80.4034C454.615 79.4621 453.879 78.7263 452.938 78.196C452.009 77.6525 450.929 77.3807 449.696 77.3807C448.41 77.3807 447.27 77.679 446.276 78.2756C445.295 78.8589 444.526 79.6477 443.969 80.642C443.412 81.6231 443.127 82.7169 443.114 83.9233V88.9148C443.114 90.4261 443.392 91.732 443.949 92.8324C444.519 93.9328 445.321 94.7812 446.355 95.3778C447.389 95.9744 448.616 96.2727 450.034 96.2727C450.975 96.2727 451.837 96.1402 452.619 95.875C453.402 95.6098 454.071 95.2121 454.628 94.6818C455.185 94.1515 455.609 93.5019 455.901 92.733L463.736 93.25C463.338 95.1326 462.523 96.7765 461.29 98.1818C460.07 99.5739 458.492 100.661 456.557 101.443C454.634 102.212 452.414 102.597 449.895 102.597Z" fill="#151515"/>
</svg>
