<svg width="887" height="256" viewBox="0 0 887 256" fill="none" xmlns="http://www.w3.org/2000/svg">
<g filter="url(#filter0_d_120_42)">
<rect x="8" y="4" width="871" height="240" rx="8" fill="#2172FF" fill-opacity="0.8" shape-rendering="crispEdges"/>
</g>
<g filter="url(#filter1_d_120_42)">
<rect x="24" y="20" width="155" height="96" rx="8" fill="white" fill-opacity="0.75" shape-rendering="crispEdges"/>
</g>
<path d="M79.7955 73V64.2728H82.9318V73H79.7955ZM81.3636 63.3637C80.9394 63.3637 80.5758 63.2235 80.2727 62.9432C79.9697 62.6629 79.8182 62.3258 79.8182 61.9318C79.8182 61.5379 79.9697 61.2008 80.2727 60.9205C80.5758 60.6402 80.9394 60.5 81.3636 60.5C81.7917 60.5 82.1553 60.6402 82.4545 60.9205C82.7576 61.2008 82.9091 61.5379 82.9091 61.9318C82.9091 62.3258 82.7576 62.6629 82.4545 62.9432C82.1553 63.2235 81.7917 63.3637 81.3636 63.3637ZM89.7344 64.2728V66.5455H83.9844V64.2728H89.7344ZM85.098 62.1818H88.2344V70.1932C88.2344 70.3144 88.2552 70.4167 88.2969 70.5C88.3385 70.5796 88.4029 70.6402 88.4901 70.6818C88.5772 70.7197 88.6889 70.7387 88.8253 70.7387C88.92 70.7387 89.0298 70.7273 89.1548 70.7046C89.2836 70.6818 89.3783 70.6629 89.4389 70.6478L89.8935 72.8523C89.7533 72.894 89.5526 72.9451 89.2912 73.0057C89.0336 73.0663 88.7268 73.1061 88.3707 73.125C87.651 73.1629 87.0469 73.089 86.5582 72.9034C86.0696 72.714 85.7022 72.4167 85.456 72.0114C85.2098 71.6061 85.0904 71.0985 85.098 70.4887V62.1818ZM95.1023 73.1591C94.1705 73.1591 93.3674 72.9811 92.6932 72.625C92.0227 72.2652 91.5057 71.75 91.142 71.0796C90.7822 70.4053 90.6023 69.5985 90.6023 68.6591C90.6023 67.7576 90.7841 66.9697 91.1477 66.2955C91.5114 65.6212 92.0246 65.0966 92.6875 64.7216C93.3504 64.3466 94.1326 64.1591 95.0341 64.1591C95.6932 64.1591 96.2898 64.2614 96.8239 64.4659C97.358 64.6705 97.8144 64.9678 98.1932 65.358C98.572 65.7443 98.8636 66.214 99.0682 66.7671C99.2727 67.3201 99.375 67.9432 99.375 68.6364V69.3637H91.5795V67.6364H96.4886C96.4848 67.3864 96.4205 67.1667 96.2955 66.9773C96.1742 66.7841 96.0095 66.6345 95.8011 66.5284C95.5966 66.4186 95.3636 66.3637 95.1023 66.3637C94.8485 66.3637 94.6155 66.4186 94.4034 66.5284C94.1913 66.6345 94.0208 66.7822 93.892 66.9716C93.767 67.161 93.7008 67.3826 93.6932 67.6364V69.5C93.6932 69.7803 93.7519 70.0303 93.8693 70.25C93.9867 70.4697 94.1553 70.6421 94.375 70.7671C94.5947 70.8921 94.8598 70.9546 95.1705 70.9546C95.3864 70.9546 95.5833 70.9243 95.7614 70.8637C95.9432 70.8031 96.0985 70.7159 96.2273 70.6023C96.3561 70.4849 96.4508 70.3447 96.5114 70.1818H99.375C99.2765 70.7879 99.0436 71.3144 98.6761 71.7614C98.3087 72.2046 97.822 72.5493 97.2159 72.7955C96.6136 73.0379 95.9091 73.1591 95.1023 73.1591ZM100.655 73V64.2728H103.632V65.9318H103.723C103.905 65.3864 104.215 64.9546 104.655 64.6364C105.094 64.3182 105.617 64.1591 106.223 64.1591C106.837 64.1591 107.365 64.322 107.808 64.6478C108.251 64.9697 108.518 65.3978 108.609 65.9318H108.7C108.848 65.3978 109.162 64.9697 109.643 64.6478C110.125 64.322 110.689 64.1591 111.337 64.1591C112.174 64.1591 112.852 64.4281 113.371 64.9659C113.893 65.5038 114.155 66.2197 114.155 67.1137V73H111.018V67.9091C111.018 67.5265 110.922 67.2273 110.729 67.0114C110.536 66.7917 110.276 66.6818 109.95 66.6818C109.628 66.6818 109.373 66.7917 109.183 67.0114C108.998 67.2273 108.905 67.5265 108.905 67.9091V73H105.905V67.9091C105.905 67.5265 105.808 67.2273 105.615 67.0114C105.422 66.7917 105.162 66.6818 104.837 66.6818C104.621 66.6818 104.435 66.7311 104.28 66.8296C104.125 66.9281 104.003 67.0701 103.916 67.2557C103.833 67.4375 103.791 67.6553 103.791 67.9091V73H100.655ZM120.543 73.1591C119.865 73.1591 119.221 73.0531 118.611 72.8409C118.005 72.625 117.467 72.286 116.997 71.8239C116.527 71.3618 116.158 70.7595 115.889 70.0171C115.624 69.2747 115.493 68.375 115.497 67.3182C115.501 66.375 115.622 65.5265 115.861 64.7728C116.103 64.019 116.446 63.3769 116.889 62.8466C117.336 62.3163 117.87 61.911 118.491 61.6307C119.113 61.3466 119.804 61.2046 120.565 61.2046C121.421 61.2046 122.175 61.3693 122.827 61.6989C123.478 62.0284 123.997 62.4697 124.384 63.0228C124.774 63.572 125.001 64.1781 125.065 64.8409H121.952C121.88 64.5114 121.713 64.2709 121.452 64.1193C121.194 63.964 120.899 63.8864 120.565 63.8864C119.902 63.8864 119.416 64.1743 119.105 64.75C118.798 65.3258 118.641 66.0834 118.634 67.0228H118.702C118.849 66.6667 119.073 66.3618 119.372 66.108C119.671 65.8542 120.02 65.6591 120.418 65.5228C120.815 65.3864 121.236 65.3182 121.679 65.3182C122.384 65.3182 122.999 65.4773 123.526 65.7955C124.056 66.1137 124.469 66.5493 124.764 67.1023C125.06 67.6553 125.205 68.2879 125.202 69C125.205 69.8334 125.009 70.5625 124.611 71.1875C124.217 71.8125 123.67 72.2974 122.969 72.6421C122.268 72.9868 121.459 73.1591 120.543 73.1591ZM120.52 70.7728C120.834 70.7728 121.113 70.7008 121.355 70.5568C121.601 70.4129 121.793 70.2159 121.929 69.9659C122.069 69.7159 122.137 69.4318 122.134 69.1137C122.137 68.7917 122.069 68.5076 121.929 68.2614C121.793 68.0114 121.601 67.8144 121.355 67.6705C121.113 67.5265 120.834 67.4546 120.52 67.4546C120.289 67.4546 120.075 67.4962 119.878 67.5796C119.685 67.6591 119.516 67.7747 119.372 67.9262C119.228 68.0739 119.115 68.25 119.031 68.4546C118.952 68.6553 118.91 68.875 118.906 69.1137C118.91 69.4318 118.982 69.7159 119.122 69.9659C119.262 70.2159 119.454 70.4129 119.696 70.5568C119.938 70.7008 120.213 70.7728 120.52 70.7728Z" fill="#181818" fill-opacity="0.75"/>
<g filter="url(#filter2_d_120_42)">
<rect x="24" y="132" width="155" height="96" rx="8" fill="white" fill-opacity="0.75" shape-rendering="crispEdges"/>
</g>
<path d="M79.7955 185V176.273H82.9318V185H79.7955ZM81.3636 175.364C80.9394 175.364 80.5758 175.223 80.2727 174.943C79.9697 174.663 79.8182 174.326 79.8182 173.932C79.8182 173.538 79.9697 173.201 80.2727 172.92C80.5758 172.64 80.9394 172.5 81.3636 172.5C81.7917 172.5 82.1553 172.64 82.4545 172.92C82.7576 173.201 82.9091 173.538 82.9091 173.932C82.9091 174.326 82.7576 174.663 82.4545 174.943C82.1553 175.223 81.7917 175.364 81.3636 175.364ZM89.7344 176.273V178.545H83.9844V176.273H89.7344ZM85.098 174.182H88.2344V182.193C88.2344 182.314 88.2552 182.417 88.2969 182.5C88.3385 182.58 88.4029 182.64 88.4901 182.682C88.5772 182.72 88.6889 182.739 88.8253 182.739C88.92 182.739 89.0298 182.727 89.1548 182.705C89.2836 182.682 89.3783 182.663 89.4389 182.648L89.8935 184.852C89.7533 184.894 89.5526 184.945 89.2912 185.006C89.0336 185.066 88.7268 185.106 88.3707 185.125C87.651 185.163 87.0469 185.089 86.5582 184.903C86.0696 184.714 85.7022 184.417 85.456 184.011C85.2098 183.606 85.0904 183.098 85.098 182.489V174.182ZM95.1023 185.159C94.1705 185.159 93.3674 184.981 92.6932 184.625C92.0227 184.265 91.5057 183.75 91.142 183.08C90.7822 182.405 90.6023 181.598 90.6023 180.659C90.6023 179.758 90.7841 178.97 91.1477 178.295C91.5114 177.621 92.0246 177.097 92.6875 176.722C93.3504 176.347 94.1326 176.159 95.0341 176.159C95.6932 176.159 96.2898 176.261 96.8239 176.466C97.358 176.67 97.8144 176.968 98.1932 177.358C98.572 177.744 98.8636 178.214 99.0682 178.767C99.2727 179.32 99.375 179.943 99.375 180.636V181.364H91.5795V179.636H96.4886C96.4848 179.386 96.4205 179.167 96.2955 178.977C96.1742 178.784 96.0095 178.634 95.8011 178.528C95.5966 178.419 95.3636 178.364 95.1023 178.364C94.8485 178.364 94.6155 178.419 94.4034 178.528C94.1913 178.634 94.0208 178.782 93.892 178.972C93.767 179.161 93.7008 179.383 93.6932 179.636V181.5C93.6932 181.78 93.7519 182.03 93.8693 182.25C93.9867 182.47 94.1553 182.642 94.375 182.767C94.5947 182.892 94.8598 182.955 95.1705 182.955C95.3864 182.955 95.5833 182.924 95.7614 182.864C95.9432 182.803 96.0985 182.716 96.2273 182.602C96.3561 182.485 96.4508 182.345 96.5114 182.182H99.375C99.2765 182.788 99.0436 183.314 98.6761 183.761C98.3087 184.205 97.822 184.549 97.2159 184.795C96.6136 185.038 95.9091 185.159 95.1023 185.159ZM100.655 185V176.273H103.632V177.932H103.723C103.905 177.386 104.215 176.955 104.655 176.636C105.094 176.318 105.617 176.159 106.223 176.159C106.837 176.159 107.365 176.322 107.808 176.648C108.251 176.97 108.518 177.398 108.609 177.932H108.7C108.848 177.398 109.162 176.97 109.643 176.648C110.125 176.322 110.689 176.159 111.337 176.159C112.174 176.159 112.852 176.428 113.371 176.966C113.893 177.504 114.155 178.22 114.155 179.114V185H111.018V179.909C111.018 179.527 110.922 179.227 110.729 179.011C110.536 178.792 110.276 178.682 109.95 178.682C109.628 178.682 109.373 178.792 109.183 179.011C108.998 179.227 108.905 179.527 108.905 179.909V185H105.905V179.909C105.905 179.527 105.808 179.227 105.615 179.011C105.422 178.792 105.162 178.682 104.837 178.682C104.621 178.682 104.435 178.731 104.28 178.83C104.125 178.928 104.003 179.07 103.916 179.256C103.833 179.437 103.791 179.655 103.791 179.909V185H100.655ZM120.743 173.364V185H117.584V176.273H117.516L114.97 177.795V175.114L117.834 173.364H120.743Z" fill="#181818" fill-opacity="0.75"/>
<g filter="url(#filter3_d_120_42)">
<rect x="195" y="20" width="155" height="96" rx="8" fill="white" fill-opacity="0.75" shape-rendering="crispEdges"/>
</g>
<path d="M250.795 73V64.2728H253.932V73H250.795ZM252.364 63.3637C251.939 63.3637 251.576 63.2235 251.273 62.9432C250.97 62.6629 250.818 62.3258 250.818 61.9318C250.818 61.5379 250.97 61.2008 251.273 60.9205C251.576 60.6402 251.939 60.5 252.364 60.5C252.792 60.5 253.155 60.6402 253.455 60.9205C253.758 61.2008 253.909 61.5379 253.909 61.9318C253.909 62.3258 253.758 62.6629 253.455 62.9432C253.155 63.2235 252.792 63.3637 252.364 63.3637ZM260.734 64.2728V66.5455H254.984V64.2728H260.734ZM256.098 62.1818H259.234V70.1932C259.234 70.3144 259.255 70.4167 259.297 70.5C259.339 70.5796 259.403 70.6402 259.49 70.6818C259.577 70.7197 259.689 70.7387 259.825 70.7387C259.92 70.7387 260.03 70.7273 260.155 70.7046C260.284 70.6818 260.378 70.6629 260.439 70.6478L260.893 72.8523C260.753 72.894 260.553 72.9451 260.291 73.0057C260.034 73.0663 259.727 73.1061 259.371 73.125C258.651 73.1629 258.047 73.089 257.558 72.9034C257.07 72.714 256.702 72.4167 256.456 72.0114C256.21 71.6061 256.09 71.0985 256.098 70.4887V62.1818ZM266.102 73.1591C265.17 73.1591 264.367 72.9811 263.693 72.625C263.023 72.2652 262.506 71.75 262.142 71.0796C261.782 70.4053 261.602 69.5985 261.602 68.6591C261.602 67.7576 261.784 66.9697 262.148 66.2955C262.511 65.6212 263.025 65.0966 263.688 64.7216C264.35 64.3466 265.133 64.1591 266.034 64.1591C266.693 64.1591 267.29 64.2614 267.824 64.4659C268.358 64.6705 268.814 64.9678 269.193 65.358C269.572 65.7443 269.864 66.214 270.068 66.7671C270.273 67.3201 270.375 67.9432 270.375 68.6364V69.3637H262.58V67.6364H267.489C267.485 67.3864 267.42 67.1667 267.295 66.9773C267.174 66.7841 267.009 66.6345 266.801 66.5284C266.597 66.4186 266.364 66.3637 266.102 66.3637C265.848 66.3637 265.616 66.4186 265.403 66.5284C265.191 66.6345 265.021 66.7822 264.892 66.9716C264.767 67.161 264.701 67.3826 264.693 67.6364V69.5C264.693 69.7803 264.752 70.0303 264.869 70.25C264.987 70.4697 265.155 70.6421 265.375 70.7671C265.595 70.8921 265.86 70.9546 266.17 70.9546C266.386 70.9546 266.583 70.9243 266.761 70.8637C266.943 70.8031 267.098 70.7159 267.227 70.6023C267.356 70.4849 267.451 70.3447 267.511 70.1818H270.375C270.277 70.7879 270.044 71.3144 269.676 71.7614C269.309 72.2046 268.822 72.5493 268.216 72.7955C267.614 73.0379 266.909 73.1591 266.102 73.1591ZM271.655 73V64.2728H274.632V65.9318H274.723C274.905 65.3864 275.215 64.9546 275.655 64.6364C276.094 64.3182 276.617 64.1591 277.223 64.1591C277.837 64.1591 278.365 64.322 278.808 64.6478C279.251 64.9697 279.518 65.3978 279.609 65.9318H279.7C279.848 65.3978 280.162 64.9697 280.643 64.6478C281.125 64.322 281.689 64.1591 282.337 64.1591C283.174 64.1591 283.852 64.4281 284.371 64.9659C284.893 65.5038 285.155 66.2197 285.155 67.1137V73H282.018V67.9091C282.018 67.5265 281.922 67.2273 281.729 67.0114C281.536 66.7917 281.276 66.6818 280.95 66.6818C280.628 66.6818 280.373 66.7917 280.183 67.0114C279.998 67.2273 279.905 67.5265 279.905 67.9091V73H276.905V67.9091C276.905 67.5265 276.808 67.2273 276.615 67.0114C276.422 66.7917 276.162 66.6818 275.837 66.6818C275.621 66.6818 275.435 66.7311 275.28 66.8296C275.125 66.9281 275.003 67.0701 274.916 67.2557C274.833 67.4375 274.791 67.6553 274.791 67.9091V73H271.655ZM287.202 73L291.77 63.9546V63.8864H286.406V61.3637H295.043V63.8864L290.452 73H287.202Z" fill="#181818" fill-opacity="0.75"/>
<g filter="url(#filter4_d_120_42)">
<rect x="195" y="132" width="155" height="96" rx="8" fill="white" fill-opacity="0.75" shape-rendering="crispEdges"/>
</g>
<path d="M250.795 185V176.273H253.932V185H250.795ZM252.364 175.364C251.939 175.364 251.576 175.223 251.273 174.943C250.97 174.663 250.818 174.326 250.818 173.932C250.818 173.538 250.97 173.201 251.273 172.92C251.576 172.64 251.939 172.5 252.364 172.5C252.792 172.5 253.155 172.64 253.455 172.92C253.758 173.201 253.909 173.538 253.909 173.932C253.909 174.326 253.758 174.663 253.455 174.943C253.155 175.223 252.792 175.364 252.364 175.364ZM260.734 176.273V178.545H254.984V176.273H260.734ZM256.098 174.182H259.234V182.193C259.234 182.314 259.255 182.417 259.297 182.5C259.339 182.58 259.403 182.64 259.49 182.682C259.577 182.72 259.689 182.739 259.825 182.739C259.92 182.739 260.03 182.727 260.155 182.705C260.284 182.682 260.378 182.663 260.439 182.648L260.893 184.852C260.753 184.894 260.553 184.945 260.291 185.006C260.034 185.066 259.727 185.106 259.371 185.125C258.651 185.163 258.047 185.089 257.558 184.903C257.07 184.714 256.702 184.417 256.456 184.011C256.21 183.606 256.09 183.098 256.098 182.489V174.182ZM266.102 185.159C265.17 185.159 264.367 184.981 263.693 184.625C263.023 184.265 262.506 183.75 262.142 183.08C261.782 182.405 261.602 181.598 261.602 180.659C261.602 179.758 261.784 178.97 262.148 178.295C262.511 177.621 263.025 177.097 263.688 176.722C264.35 176.347 265.133 176.159 266.034 176.159C266.693 176.159 267.29 176.261 267.824 176.466C268.358 176.67 268.814 176.968 269.193 177.358C269.572 177.744 269.864 178.214 270.068 178.767C270.273 179.32 270.375 179.943 270.375 180.636V181.364H262.58V179.636H267.489C267.485 179.386 267.42 179.167 267.295 178.977C267.174 178.784 267.009 178.634 266.801 178.528C266.597 178.419 266.364 178.364 266.102 178.364C265.848 178.364 265.616 178.419 265.403 178.528C265.191 178.634 265.021 178.782 264.892 178.972C264.767 179.161 264.701 179.383 264.693 179.636V181.5C264.693 181.78 264.752 182.03 264.869 182.25C264.987 182.47 265.155 182.642 265.375 182.767C265.595 182.892 265.86 182.955 266.17 182.955C266.386 182.955 266.583 182.924 266.761 182.864C266.943 182.803 267.098 182.716 267.227 182.602C267.356 182.485 267.451 182.345 267.511 182.182H270.375C270.277 182.788 270.044 183.314 269.676 183.761C269.309 184.205 268.822 184.549 268.216 184.795C267.614 185.038 266.909 185.159 266.102 185.159ZM271.655 185V176.273H274.632V177.932H274.723C274.905 177.386 275.215 176.955 275.655 176.636C276.094 176.318 276.617 176.159 277.223 176.159C277.837 176.159 278.365 176.322 278.808 176.648C279.251 176.97 279.518 177.398 279.609 177.932H279.7C279.848 177.398 280.162 176.97 280.643 176.648C281.125 176.322 281.689 176.159 282.337 176.159C283.174 176.159 283.852 176.428 284.371 176.966C284.893 177.504 285.155 178.22 285.155 179.114V185H282.018V179.909C282.018 179.527 281.922 179.227 281.729 179.011C281.536 178.792 281.276 178.682 280.95 178.682C280.628 178.682 280.373 178.792 280.183 179.011C279.998 179.227 279.905 179.527 279.905 179.909V185H276.905V179.909C276.905 179.527 276.808 179.227 276.615 179.011C276.422 178.792 276.162 178.682 275.837 178.682C275.621 178.682 275.435 178.731 275.28 178.83C275.125 178.928 275.003 179.07 274.916 179.256C274.833 179.437 274.791 179.655 274.791 179.909V185H271.655ZM286.679 185V182.727L291.02 179.136C291.308 178.898 291.554 178.674 291.759 178.466C291.967 178.254 292.126 178.036 292.236 177.812C292.349 177.589 292.406 177.341 292.406 177.068C292.406 176.769 292.342 176.513 292.213 176.301C292.088 176.089 291.914 175.926 291.69 175.812C291.467 175.695 291.209 175.636 290.918 175.636C290.626 175.636 290.368 175.695 290.145 175.812C289.925 175.93 289.755 176.102 289.634 176.33C289.512 176.557 289.452 176.833 289.452 177.159H286.452C286.452 176.341 286.635 175.636 287.003 175.045C287.37 174.455 287.889 174 288.56 173.682C289.23 173.364 290.016 173.205 290.918 173.205C291.849 173.205 292.656 173.354 293.338 173.653C294.024 173.949 294.552 174.366 294.923 174.903C295.298 175.441 295.486 176.072 295.486 176.795C295.486 177.242 295.393 177.687 295.207 178.131C295.022 178.57 294.688 179.057 294.207 179.591C293.726 180.125 293.043 180.761 292.156 181.5L291.065 182.409V182.477H295.611V185H286.679Z" fill="#181818" fill-opacity="0.75"/>
<g filter="url(#filter5_d_120_42)">
<rect x="366" y="20.0001" width="155" height="96" rx="8" fill="white" fill-opacity="0.75" shape-rendering="crispEdges"/>
</g>
<path d="M420.795 73.0001V64.2728H423.932V73.0001H420.795ZM422.364 63.3637C421.939 63.3637 421.576 63.2235 421.273 62.9432C420.97 62.6629 420.818 62.3258 420.818 61.9319C420.818 61.5379 420.97 61.2008 421.273 60.9205C421.576 60.6402 421.939 60.5001 422.364 60.5001C422.792 60.5001 423.155 60.6402 423.455 60.9205C423.758 61.2008 423.909 61.5379 423.909 61.9319C423.909 62.3258 423.758 62.6629 423.455 62.9432C423.155 63.2235 422.792 63.3637 422.364 63.3637ZM430.734 64.2728V66.5455H424.984V64.2728H430.734ZM426.098 62.1819H429.234V70.1932C429.234 70.3145 429.255 70.4167 429.297 70.5001C429.339 70.5796 429.403 70.6402 429.49 70.6819C429.577 70.7198 429.689 70.7387 429.825 70.7387C429.92 70.7387 430.03 70.7273 430.155 70.7046C430.284 70.6819 430.378 70.6629 430.439 70.6478L430.893 72.8523C430.753 72.894 430.553 72.9451 430.291 73.0057C430.034 73.0663 429.727 73.1061 429.371 73.1251C428.651 73.1629 428.047 73.0891 427.558 72.9035C427.07 72.7141 426.702 72.4167 426.456 72.0114C426.21 71.6061 426.09 71.0985 426.098 70.4887V62.1819ZM436.102 73.1592C435.17 73.1592 434.367 72.9811 433.693 72.6251C433.023 72.2652 432.506 71.7501 432.142 71.0796C431.782 70.4054 431.602 69.5985 431.602 68.6592C431.602 67.7576 431.784 66.9698 432.148 66.2955C432.511 65.6213 433.025 65.0967 433.688 64.7217C434.35 64.3467 435.133 64.1592 436.034 64.1592C436.693 64.1592 437.29 64.2614 437.824 64.466C438.358 64.6705 438.814 64.9679 439.193 65.358C439.572 65.7444 439.864 66.2141 440.068 66.7671C440.273 67.3201 440.375 67.9432 440.375 68.6364V69.3637H432.58V67.6364H437.489C437.485 67.3864 437.42 67.1667 437.295 66.9773C437.174 66.7842 437.009 66.6345 436.801 66.5285C436.597 66.4186 436.364 66.3637 436.102 66.3637C435.848 66.3637 435.616 66.4186 435.403 66.5285C435.191 66.6345 435.021 66.7823 434.892 66.9717C434.767 67.161 434.701 67.3826 434.693 67.6364V69.5001C434.693 69.7804 434.752 70.0304 434.869 70.2501C434.987 70.4698 435.155 70.6421 435.375 70.7671C435.595 70.8921 435.86 70.9546 436.17 70.9546C436.386 70.9546 436.583 70.9243 436.761 70.8637C436.943 70.8031 437.098 70.716 437.227 70.6023C437.356 70.4849 437.451 70.3448 437.511 70.1819H440.375C440.277 70.7879 440.044 71.3145 439.676 71.7614C439.309 72.2046 438.822 72.5493 438.216 72.7955C437.614 73.0379 436.909 73.1592 436.102 73.1592ZM441.655 73.0001V64.2728H444.632V65.9319H444.723C444.905 65.3864 445.215 64.9546 445.655 64.6364C446.094 64.3182 446.617 64.1592 447.223 64.1592C447.837 64.1592 448.365 64.322 448.808 64.6478C449.251 64.9698 449.518 65.3978 449.609 65.9319H449.7C449.848 65.3978 450.162 64.9698 450.643 64.6478C451.125 64.322 451.689 64.1592 452.337 64.1592C453.174 64.1592 453.852 64.4281 454.371 64.966C454.893 65.5038 455.155 66.2198 455.155 67.1137V73.0001H452.018V67.9092C452.018 67.5266 451.922 67.2273 451.729 67.0114C451.536 66.7917 451.276 66.6819 450.95 66.6819C450.628 66.6819 450.373 66.7917 450.183 67.0114C449.998 67.2273 449.905 67.5266 449.905 67.9092V73.0001H446.905V67.9092C446.905 67.5266 446.808 67.2273 446.615 67.0114C446.422 66.7917 446.162 66.6819 445.837 66.6819C445.621 66.6819 445.435 66.7311 445.28 66.8296C445.125 66.9281 445.003 67.0701 444.916 67.2557C444.833 67.4376 444.791 67.6554 444.791 67.9092V73.0001H441.655ZM461.429 73.1592C460.49 73.1592 459.651 73.0133 458.912 72.7217C458.177 72.43 457.598 72.0342 457.173 71.5342C456.753 71.0342 456.543 70.4698 456.543 69.841C456.543 69.3599 456.662 68.9205 456.901 68.5228C457.143 68.1251 457.469 67.7955 457.878 67.5342C458.287 67.269 458.743 67.0985 459.247 67.0228V66.9319C458.584 66.8182 458.039 66.5247 457.611 66.0512C457.187 65.5739 456.974 65.0114 456.974 64.3637C456.974 63.7538 457.168 63.2122 457.554 62.7387C457.94 62.2614 458.469 61.8864 459.139 61.6137C459.81 61.341 460.573 61.2046 461.429 61.2046C462.285 61.2046 463.048 61.3429 463.719 61.6194C464.389 61.8921 464.918 62.2671 465.304 62.7444C465.69 63.2179 465.884 63.7576 465.884 64.3637C465.884 65.0152 465.668 65.5777 465.236 66.0512C464.804 66.5247 464.262 66.8182 463.611 66.9319V67.0228C464.111 67.0985 464.565 67.269 464.974 67.5342C465.384 67.7955 465.709 68.1251 465.952 68.5228C466.194 68.9205 466.315 69.3599 466.315 69.841C466.315 70.4698 466.103 71.0342 465.679 71.5342C465.259 72.0342 464.679 72.43 463.94 72.7217C463.205 73.0133 462.368 73.1592 461.429 73.1592ZM461.429 70.9773C461.728 70.9773 461.993 70.9167 462.224 70.7955C462.455 70.6743 462.637 70.5076 462.77 70.2955C462.906 70.0796 462.974 69.8372 462.974 69.5682C462.974 69.2993 462.906 69.0607 462.77 68.8523C462.637 68.644 462.455 68.4811 462.224 68.3637C461.993 68.2425 461.728 68.1819 461.429 68.1819C461.134 68.1819 460.868 68.2425 460.634 68.3637C460.402 68.4811 460.219 68.644 460.082 68.8523C459.95 69.0607 459.884 69.2993 459.884 69.5682C459.884 69.8372 459.95 70.0777 460.082 70.2898C460.219 70.502 460.402 70.6705 460.634 70.7955C460.868 70.9167 461.134 70.9773 461.429 70.9773ZM461.429 66.0001C461.694 66.0001 461.929 65.9451 462.134 65.8353C462.338 65.7254 462.499 65.5739 462.616 65.3807C462.734 65.1876 462.793 64.9698 462.793 64.7273C462.793 64.4849 462.734 64.2709 462.616 64.0853C462.499 63.8959 462.338 63.7482 462.134 63.6421C461.929 63.5323 461.694 63.4773 461.429 63.4773C461.168 63.4773 460.933 63.5323 460.724 63.6421C460.52 63.7482 460.359 63.8959 460.241 64.0853C460.124 64.2709 460.065 64.4849 460.065 64.7273C460.065 64.9698 460.124 65.1876 460.241 65.3807C460.359 65.5701 460.52 65.7217 460.724 65.8353C460.933 65.9451 461.168 66.0001 461.429 66.0001Z" fill="#181818" fill-opacity="0.75"/>
<g filter="url(#filter6_d_120_42)">
<rect x="366" y="132" width="155" height="96" rx="8" fill="white" fill-opacity="0.75" shape-rendering="crispEdges"/>
</g>
<path d="M420.795 185V176.273H423.932V185H420.795ZM422.364 175.364C421.939 175.364 421.576 175.224 421.273 174.943C420.97 174.663 420.818 174.326 420.818 173.932C420.818 173.538 420.97 173.201 421.273 172.92C421.576 172.64 421.939 172.5 422.364 172.5C422.792 172.5 423.155 172.64 423.455 172.92C423.758 173.201 423.909 173.538 423.909 173.932C423.909 174.326 423.758 174.663 423.455 174.943C423.155 175.224 422.792 175.364 422.364 175.364ZM430.734 176.273V178.545H424.984V176.273H430.734ZM426.098 174.182H429.234V182.193C429.234 182.314 429.255 182.417 429.297 182.5C429.339 182.58 429.403 182.64 429.49 182.682C429.577 182.72 429.689 182.739 429.825 182.739C429.92 182.739 430.03 182.727 430.155 182.705C430.284 182.682 430.378 182.663 430.439 182.648L430.893 184.852C430.753 184.894 430.553 184.945 430.291 185.006C430.034 185.066 429.727 185.106 429.371 185.125C428.651 185.163 428.047 185.089 427.558 184.903C427.07 184.714 426.702 184.417 426.456 184.011C426.21 183.606 426.09 183.099 426.098 182.489V174.182ZM436.102 185.159C435.17 185.159 434.367 184.981 433.693 184.625C433.023 184.265 432.506 183.75 432.142 183.08C431.782 182.405 431.602 181.599 431.602 180.659C431.602 179.758 431.784 178.97 432.148 178.295C432.511 177.621 433.025 177.097 433.688 176.722C434.35 176.347 435.133 176.159 436.034 176.159C436.693 176.159 437.29 176.261 437.824 176.466C438.358 176.67 438.814 176.968 439.193 177.358C439.572 177.744 439.864 178.214 440.068 178.767C440.273 179.32 440.375 179.943 440.375 180.636V181.364H432.58V179.636H437.489C437.485 179.386 437.42 179.167 437.295 178.977C437.174 178.784 437.009 178.635 436.801 178.528C436.597 178.419 436.364 178.364 436.102 178.364C435.848 178.364 435.616 178.419 435.403 178.528C435.191 178.635 435.021 178.782 434.892 178.972C434.767 179.161 434.701 179.383 434.693 179.636V181.5C434.693 181.78 434.752 182.03 434.869 182.25C434.987 182.47 435.155 182.642 435.375 182.767C435.595 182.892 435.86 182.955 436.17 182.955C436.386 182.955 436.583 182.924 436.761 182.864C436.943 182.803 437.098 182.716 437.227 182.602C437.356 182.485 437.451 182.345 437.511 182.182H440.375C440.277 182.788 440.044 183.314 439.676 183.761C439.309 184.205 438.822 184.549 438.216 184.795C437.614 185.038 436.909 185.159 436.102 185.159ZM441.655 185V176.273H444.632V177.932H444.723C444.905 177.386 445.215 176.955 445.655 176.636C446.094 176.318 446.617 176.159 447.223 176.159C447.837 176.159 448.365 176.322 448.808 176.648C449.251 176.97 449.518 177.398 449.609 177.932H449.7C449.848 177.398 450.162 176.97 450.643 176.648C451.125 176.322 451.689 176.159 452.337 176.159C453.174 176.159 453.852 176.428 454.371 176.966C454.893 177.504 455.155 178.22 455.155 179.114V185H452.018V179.909C452.018 179.527 451.922 179.227 451.729 179.011C451.536 178.792 451.276 178.682 450.95 178.682C450.628 178.682 450.373 178.792 450.183 179.011C449.998 179.227 449.905 179.527 449.905 179.909V185H446.905V179.909C446.905 179.527 446.808 179.227 446.615 179.011C446.422 178.792 446.162 178.682 445.837 178.682C445.621 178.682 445.435 178.731 445.28 178.83C445.125 178.928 445.003 179.07 444.916 179.256C444.833 179.438 444.791 179.655 444.791 179.909V185H441.655ZM461.224 185.159C460.308 185.159 459.493 185.002 458.781 184.688C458.073 184.369 457.516 183.932 457.111 183.375C456.705 182.818 456.501 182.178 456.497 181.455H459.679C459.683 181.678 459.751 181.879 459.884 182.057C460.02 182.231 460.205 182.367 460.44 182.466C460.675 182.564 460.944 182.614 461.247 182.614C461.539 182.614 461.796 182.563 462.02 182.46C462.243 182.354 462.418 182.208 462.543 182.023C462.668 181.837 462.728 181.625 462.724 181.386C462.728 181.152 462.656 180.943 462.509 180.761C462.365 180.58 462.162 180.438 461.901 180.335C461.639 180.233 461.338 180.182 460.997 180.182H459.815V178H460.997C461.312 178 461.588 177.949 461.827 177.847C462.069 177.744 462.257 177.602 462.389 177.42C462.526 177.239 462.592 177.03 462.588 176.795C462.592 176.568 462.537 176.367 462.423 176.193C462.31 176.019 462.151 175.883 461.946 175.784C461.745 175.686 461.512 175.636 461.247 175.636C460.959 175.636 460.702 175.688 460.474 175.79C460.251 175.892 460.075 176.034 459.946 176.216C459.817 176.398 459.751 176.606 459.747 176.841H456.724C456.728 176.129 456.923 175.5 457.31 174.955C457.7 174.409 458.234 173.981 458.912 173.67C459.59 173.36 460.368 173.205 461.247 173.205C462.107 173.205 462.866 173.35 463.526 173.642C464.188 173.934 464.705 174.335 465.077 174.847C465.452 175.354 465.637 175.936 465.634 176.591C465.641 177.242 465.418 177.777 464.963 178.193C464.512 178.61 463.94 178.856 463.247 178.932V179.023C464.187 179.125 464.893 179.413 465.366 179.886C465.84 180.356 466.073 180.947 466.065 181.659C466.069 182.341 465.865 182.945 465.452 183.472C465.043 183.998 464.473 184.411 463.741 184.71C463.014 185.01 462.175 185.159 461.224 185.159Z" fill="#181818" fill-opacity="0.75"/>
<g filter="url(#filter7_d_120_42)">
<rect x="537" y="20.0001" width="155" height="96" rx="8" fill="white" fill-opacity="0.75" shape-rendering="crispEdges"/>
</g>
<path d="M591.795 73.0001V64.2728H594.932V73.0001H591.795ZM593.364 63.3637C592.939 63.3637 592.576 63.2235 592.273 62.9432C591.97 62.6629 591.818 62.3258 591.818 61.9319C591.818 61.5379 591.97 61.2008 592.273 60.9205C592.576 60.6402 592.939 60.5001 593.364 60.5001C593.792 60.5001 594.155 60.6402 594.455 60.9205C594.758 61.2008 594.909 61.5379 594.909 61.9319C594.909 62.3258 594.758 62.6629 594.455 62.9432C594.155 63.2235 593.792 63.3637 593.364 63.3637ZM601.734 64.2728V66.5455H595.984V64.2728H601.734ZM597.098 62.1819H600.234V70.1932C600.234 70.3145 600.255 70.4167 600.297 70.5001C600.339 70.5796 600.403 70.6402 600.49 70.6819C600.577 70.7198 600.689 70.7387 600.825 70.7387C600.92 70.7387 601.03 70.7273 601.155 70.7046C601.284 70.6819 601.378 70.6629 601.439 70.6478L601.893 72.8523C601.753 72.894 601.553 72.9451 601.291 73.0057C601.034 73.0663 600.727 73.1061 600.371 73.1251C599.651 73.1629 599.047 73.0891 598.558 72.9035C598.07 72.7141 597.702 72.4167 597.456 72.0114C597.21 71.6061 597.09 71.0985 597.098 70.4887V62.1819ZM607.102 73.1592C606.17 73.1592 605.367 72.9811 604.693 72.6251C604.023 72.2652 603.506 71.7501 603.142 71.0796C602.782 70.4054 602.602 69.5985 602.602 68.6592C602.602 67.7576 602.784 66.9698 603.148 66.2955C603.511 65.6213 604.025 65.0967 604.688 64.7217C605.35 64.3467 606.133 64.1592 607.034 64.1592C607.693 64.1592 608.29 64.2614 608.824 64.466C609.358 64.6705 609.814 64.9679 610.193 65.358C610.572 65.7444 610.864 66.2141 611.068 66.7671C611.273 67.3201 611.375 67.9432 611.375 68.6364V69.3637H603.58V67.6364H608.489C608.485 67.3864 608.42 67.1667 608.295 66.9773C608.174 66.7842 608.009 66.6345 607.801 66.5285C607.597 66.4186 607.364 66.3637 607.102 66.3637C606.848 66.3637 606.616 66.4186 606.403 66.5285C606.191 66.6345 606.021 66.7823 605.892 66.9717C605.767 67.161 605.701 67.3826 605.693 67.6364V69.5001C605.693 69.7804 605.752 70.0304 605.869 70.2501C605.987 70.4698 606.155 70.6421 606.375 70.7671C606.595 70.8921 606.86 70.9546 607.17 70.9546C607.386 70.9546 607.583 70.9243 607.761 70.8637C607.943 70.8031 608.098 70.716 608.227 70.6023C608.356 70.4849 608.451 70.3448 608.511 70.1819H611.375C611.277 70.7879 611.044 71.3145 610.676 71.7614C610.309 72.2046 609.822 72.5493 609.216 72.7955C608.614 73.0379 607.909 73.1592 607.102 73.1592ZM612.655 73.0001V64.2728H615.632V65.9319H615.723C615.905 65.3864 616.215 64.9546 616.655 64.6364C617.094 64.3182 617.617 64.1592 618.223 64.1592C618.837 64.1592 619.365 64.322 619.808 64.6478C620.251 64.9698 620.518 65.3978 620.609 65.9319H620.7C620.848 65.3978 621.162 64.9698 621.643 64.6478C622.125 64.322 622.689 64.1592 623.337 64.1592C624.174 64.1592 624.852 64.4281 625.371 64.966C625.893 65.5038 626.155 66.2198 626.155 67.1137V73.0001H623.018V67.9092C623.018 67.5266 622.922 67.2273 622.729 67.0114C622.536 66.7917 622.276 66.6819 621.95 66.6819C621.628 66.6819 621.373 66.7917 621.183 67.0114C620.998 67.2273 620.905 67.5266 620.905 67.9092V73.0001H617.905V67.9092C617.905 67.5266 617.808 67.2273 617.615 67.0114C617.422 66.7917 617.162 66.6819 616.837 66.6819C616.621 66.6819 616.435 66.7311 616.28 66.8296C616.125 66.9281 616.003 67.0701 615.916 67.2557C615.833 67.4376 615.791 67.6554 615.791 67.9092V73.0001H612.655ZM632.224 61.2046C632.902 61.2046 633.545 61.3126 634.151 61.5285C634.757 61.7406 635.293 62.0758 635.759 62.5342C636.228 62.9925 636.596 63.591 636.861 64.3296C637.13 65.0645 637.266 65.9546 637.27 67.0001C637.274 67.9546 637.154 68.8126 636.912 69.5739C636.673 70.3315 636.33 70.9773 635.884 71.5114C635.44 72.0455 634.906 72.4546 634.281 72.7387C633.66 73.019 632.967 73.1592 632.202 73.1592C631.342 73.1592 630.586 72.9944 629.935 72.6648C629.283 72.3353 628.764 71.8921 628.378 71.3353C627.991 70.7785 627.766 70.1592 627.702 69.4773H630.815C630.891 69.8296 631.058 70.0853 631.315 70.2444C631.573 70.3997 631.868 70.4773 632.202 70.4773C632.868 70.4773 633.355 70.1895 633.662 69.6137C633.973 69.0342 634.13 68.2614 634.134 67.2955H634.065C633.918 67.6516 633.694 67.9565 633.395 68.2103C633.096 68.4641 632.747 68.6592 632.349 68.7955C631.952 68.9319 631.531 69.0001 631.088 69.0001C630.387 69.0001 629.774 68.8429 629.247 68.5285C628.721 68.2103 628.31 67.7766 628.014 67.2273C627.719 66.6743 627.569 66.0455 627.565 65.341C627.562 64.5152 627.757 63.7917 628.151 63.1705C628.545 62.5493 629.092 62.0663 629.793 61.7217C630.493 61.377 631.304 61.2046 632.224 61.2046ZM632.247 63.591C631.933 63.591 631.652 63.6629 631.406 63.8069C631.164 63.9508 630.973 64.1459 630.832 64.3921C630.696 64.6383 630.63 64.9167 630.634 65.2273C630.637 65.5379 630.707 65.8163 630.844 66.0626C630.984 66.3088 631.173 66.5038 631.412 66.6478C631.654 66.7917 631.933 66.8637 632.247 66.8637C632.478 66.8637 632.692 66.8239 632.889 66.7444C633.086 66.661 633.257 66.5455 633.401 66.3978C633.548 66.2463 633.662 66.072 633.741 65.8751C633.825 65.6743 633.865 65.4584 633.861 65.2273C633.857 64.9167 633.785 64.6383 633.645 64.3921C633.505 64.1459 633.313 63.9508 633.071 63.8069C632.829 63.6629 632.554 63.591 632.247 63.591Z" fill="#181818" fill-opacity="0.75"/>
<g filter="url(#filter8_d_120_42)">
<rect x="537" y="132" width="155" height="96" rx="8" fill="white" fill-opacity="0.75" shape-rendering="crispEdges"/>
</g>
<path d="M591.795 185V176.273H594.932V185H591.795ZM593.364 175.364C592.939 175.364 592.576 175.224 592.273 174.943C591.97 174.663 591.818 174.326 591.818 173.932C591.818 173.538 591.97 173.201 592.273 172.92C592.576 172.64 592.939 172.5 593.364 172.5C593.792 172.5 594.155 172.64 594.455 172.92C594.758 173.201 594.909 173.538 594.909 173.932C594.909 174.326 594.758 174.663 594.455 174.943C594.155 175.224 593.792 175.364 593.364 175.364ZM601.734 176.273V178.545H595.984V176.273H601.734ZM597.098 174.182H600.234V182.193C600.234 182.314 600.255 182.417 600.297 182.5C600.339 182.58 600.403 182.64 600.49 182.682C600.577 182.72 600.689 182.739 600.825 182.739C600.92 182.739 601.03 182.727 601.155 182.705C601.284 182.682 601.378 182.663 601.439 182.648L601.893 184.852C601.753 184.894 601.553 184.945 601.291 185.006C601.034 185.066 600.727 185.106 600.371 185.125C599.651 185.163 599.047 185.089 598.558 184.903C598.07 184.714 597.702 184.417 597.456 184.011C597.21 183.606 597.09 183.099 597.098 182.489V174.182ZM607.102 185.159C606.17 185.159 605.367 184.981 604.693 184.625C604.023 184.265 603.506 183.75 603.142 183.08C602.782 182.405 602.602 181.599 602.602 180.659C602.602 179.758 602.784 178.97 603.148 178.295C603.511 177.621 604.025 177.097 604.688 176.722C605.35 176.347 606.133 176.159 607.034 176.159C607.693 176.159 608.29 176.261 608.824 176.466C609.358 176.67 609.814 176.968 610.193 177.358C610.572 177.744 610.864 178.214 611.068 178.767C611.273 179.32 611.375 179.943 611.375 180.636V181.364H603.58V179.636H608.489C608.485 179.386 608.42 179.167 608.295 178.977C608.174 178.784 608.009 178.635 607.801 178.528C607.597 178.419 607.364 178.364 607.102 178.364C606.848 178.364 606.616 178.419 606.403 178.528C606.191 178.635 606.021 178.782 605.892 178.972C605.767 179.161 605.701 179.383 605.693 179.636V181.5C605.693 181.78 605.752 182.03 605.869 182.25C605.987 182.47 606.155 182.642 606.375 182.767C606.595 182.892 606.86 182.955 607.17 182.955C607.386 182.955 607.583 182.924 607.761 182.864C607.943 182.803 608.098 182.716 608.227 182.602C608.356 182.485 608.451 182.345 608.511 182.182H611.375C611.277 182.788 611.044 183.314 610.676 183.761C610.309 184.205 609.822 184.549 609.216 184.795C608.614 185.038 607.909 185.159 607.102 185.159ZM612.655 185V176.273H615.632V177.932H615.723C615.905 177.386 616.215 176.955 616.655 176.636C617.094 176.318 617.617 176.159 618.223 176.159C618.837 176.159 619.365 176.322 619.808 176.648C620.251 176.97 620.518 177.398 620.609 177.932H620.7C620.848 177.398 621.162 176.97 621.643 176.648C622.125 176.322 622.689 176.159 623.337 176.159C624.174 176.159 624.852 176.428 625.371 176.966C625.893 177.504 626.155 178.22 626.155 179.114V185H623.018V179.909C623.018 179.527 622.922 179.227 622.729 179.011C622.536 178.792 622.276 178.682 621.95 178.682C621.628 178.682 621.373 178.792 621.183 179.011C620.998 179.227 620.905 179.527 620.905 179.909V185H617.905V179.909C617.905 179.527 617.808 179.227 617.615 179.011C617.422 178.792 617.162 178.682 616.837 178.682C616.621 178.682 616.435 178.731 616.28 178.83C616.125 178.928 616.003 179.07 615.916 179.256C615.833 179.438 615.791 179.655 615.791 179.909V185H612.655ZM627.565 183.182V180.727L632.247 173.364H634.474V176.636H633.202L630.679 180.636V180.727H637.588V183.182H627.565ZM633.224 185V182.432L633.293 181.364V173.364H636.247V185H633.224Z" fill="#181818" fill-opacity="0.75"/>
<g filter="url(#filter9_d_120_42)">
<rect x="708" y="20.0001" width="155" height="96" rx="8" fill="white" fill-opacity="0.75" shape-rendering="crispEdges"/>
</g>
<path d="M762.795 73.0001V64.2728H765.932V73.0001H762.795ZM764.364 63.3637C763.939 63.3637 763.576 63.2235 763.273 62.9432C762.97 62.6629 762.818 62.3258 762.818 61.9319C762.818 61.5379 762.97 61.2008 763.273 60.9205C763.576 60.6402 763.939 60.5001 764.364 60.5001C764.792 60.5001 765.155 60.6402 765.455 60.9205C765.758 61.2008 765.909 61.5379 765.909 61.9319C765.909 62.3258 765.758 62.6629 765.455 62.9432C765.155 63.2235 764.792 63.3637 764.364 63.3637ZM772.734 64.2728V66.5455H766.984V64.2728H772.734ZM768.098 62.1819H771.234V70.1932C771.234 70.3145 771.255 70.4167 771.297 70.5001C771.339 70.5796 771.403 70.6402 771.49 70.6819C771.577 70.7198 771.689 70.7387 771.825 70.7387C771.92 70.7387 772.03 70.7273 772.155 70.7046C772.284 70.6819 772.378 70.6629 772.439 70.6478L772.893 72.8523C772.753 72.894 772.553 72.9451 772.291 73.0057C772.034 73.0663 771.727 73.1061 771.371 73.1251C770.651 73.1629 770.047 73.0891 769.558 72.9035C769.07 72.7141 768.702 72.4167 768.456 72.0114C768.21 71.6061 768.09 71.0985 768.098 70.4887V62.1819ZM778.102 73.1592C777.17 73.1592 776.367 72.9811 775.693 72.6251C775.023 72.2652 774.506 71.7501 774.142 71.0796C773.782 70.4054 773.602 69.5985 773.602 68.6592C773.602 67.7576 773.784 66.9698 774.148 66.2955C774.511 65.6213 775.025 65.0967 775.688 64.7217C776.35 64.3467 777.133 64.1592 778.034 64.1592C778.693 64.1592 779.29 64.2614 779.824 64.466C780.358 64.6705 780.814 64.9679 781.193 65.358C781.572 65.7444 781.864 66.2141 782.068 66.7671C782.273 67.3201 782.375 67.9432 782.375 68.6364V69.3637H774.58V67.6364H779.489C779.485 67.3864 779.42 67.1667 779.295 66.9773C779.174 66.7842 779.009 66.6345 778.801 66.5285C778.597 66.4186 778.364 66.3637 778.102 66.3637C777.848 66.3637 777.616 66.4186 777.403 66.5285C777.191 66.6345 777.021 66.7823 776.892 66.9717C776.767 67.161 776.701 67.3826 776.693 67.6364V69.5001C776.693 69.7804 776.752 70.0304 776.869 70.2501C776.987 70.4698 777.155 70.6421 777.375 70.7671C777.595 70.8921 777.86 70.9546 778.17 70.9546C778.386 70.9546 778.583 70.9243 778.761 70.8637C778.943 70.8031 779.098 70.716 779.227 70.6023C779.356 70.4849 779.451 70.3448 779.511 70.1819H782.375C782.277 70.7879 782.044 71.3145 781.676 71.7614C781.309 72.2046 780.822 72.5493 780.216 72.7955C779.614 73.0379 778.909 73.1592 778.102 73.1592ZM783.655 73.0001V64.2728H786.632V65.9319H786.723C786.905 65.3864 787.215 64.9546 787.655 64.6364C788.094 64.3182 788.617 64.1592 789.223 64.1592C789.837 64.1592 790.365 64.322 790.808 64.6478C791.251 64.9698 791.518 65.3978 791.609 65.9319H791.7C791.848 65.3978 792.162 64.9698 792.643 64.6478C793.125 64.322 793.689 64.1592 794.337 64.1592C795.174 64.1592 795.852 64.4281 796.371 64.966C796.893 65.5038 797.155 66.2198 797.155 67.1137V73.0001H794.018V67.9092C794.018 67.5266 793.922 67.2273 793.729 67.0114C793.536 66.7917 793.276 66.6819 792.95 66.6819C792.628 66.6819 792.373 66.7917 792.183 67.0114C791.998 67.2273 791.905 67.5266 791.905 67.9092V73.0001H788.905V67.9092C788.905 67.5266 788.808 67.2273 788.615 67.0114C788.422 66.7917 788.162 66.6819 787.837 66.6819C787.621 66.6819 787.435 66.7311 787.28 66.8296C787.125 66.9281 787.003 67.0701 786.916 67.2557C786.833 67.4376 786.791 67.6554 786.791 67.9092V73.0001H783.655ZM803.743 61.3637V73.0001H800.584V64.2728H800.516L797.97 65.7955V63.1137L800.834 61.3637H803.743ZM811.2 73.3182C810.143 73.3145 809.231 73.0701 808.462 72.5853C807.693 72.1004 807.1 71.4016 806.683 70.4887C806.267 69.5758 806.06 68.4811 806.064 67.2046C806.068 65.9243 806.276 64.8372 806.689 63.9432C807.106 63.0493 807.696 62.3694 808.462 61.9035C809.231 61.4376 810.143 61.2046 811.2 61.2046C812.257 61.2046 813.17 61.4395 813.939 61.9092C814.708 62.3751 815.301 63.055 815.717 63.9489C816.134 64.8429 816.34 65.9281 816.337 67.2046C816.337 68.4887 816.128 69.5872 815.712 70.5001C815.295 71.4129 814.702 72.1118 813.933 72.5967C813.168 73.0777 812.257 73.3182 811.2 73.3182ZM811.2 70.7501C811.746 70.7501 812.193 70.466 812.541 69.8978C812.893 69.3258 813.068 68.4281 813.064 67.2046C813.064 66.4054 812.984 65.752 812.825 65.2444C812.666 64.7368 812.446 64.3618 812.166 64.1194C811.886 63.8732 811.564 63.7501 811.2 63.7501C810.655 63.7501 810.21 64.0266 809.865 64.5796C809.52 65.1326 809.344 66.0076 809.337 67.2046C809.333 68.019 809.411 68.6895 809.57 69.216C809.729 69.7387 809.948 70.1251 810.229 70.3751C810.513 70.6251 810.837 70.7501 811.2 70.7501Z" fill="#181818" fill-opacity="0.75"/>
<g filter="url(#filter10_d_120_42)">
<rect x="708" y="132" width="155" height="96" rx="8" fill="white" fill-opacity="0.75" shape-rendering="crispEdges"/>
</g>
<path d="M762.795 185V176.273H765.932V185H762.795ZM764.364 175.364C763.939 175.364 763.576 175.224 763.273 174.943C762.97 174.663 762.818 174.326 762.818 173.932C762.818 173.538 762.97 173.201 763.273 172.92C763.576 172.64 763.939 172.5 764.364 172.5C764.792 172.5 765.155 172.64 765.455 172.92C765.758 173.201 765.909 173.538 765.909 173.932C765.909 174.326 765.758 174.663 765.455 174.943C765.155 175.224 764.792 175.364 764.364 175.364ZM772.734 176.273V178.545H766.984V176.273H772.734ZM768.098 174.182H771.234V182.193C771.234 182.314 771.255 182.417 771.297 182.5C771.339 182.58 771.403 182.64 771.49 182.682C771.577 182.72 771.689 182.739 771.825 182.739C771.92 182.739 772.03 182.727 772.155 182.705C772.284 182.682 772.378 182.663 772.439 182.648L772.893 184.852C772.753 184.894 772.553 184.945 772.291 185.006C772.034 185.066 771.727 185.106 771.371 185.125C770.651 185.163 770.047 185.089 769.558 184.903C769.07 184.714 768.702 184.417 768.456 184.011C768.21 183.606 768.09 183.099 768.098 182.489V174.182ZM778.102 185.159C777.17 185.159 776.367 184.981 775.693 184.625C775.023 184.265 774.506 183.75 774.142 183.08C773.782 182.405 773.602 181.599 773.602 180.659C773.602 179.758 773.784 178.97 774.148 178.295C774.511 177.621 775.025 177.097 775.688 176.722C776.35 176.347 777.133 176.159 778.034 176.159C778.693 176.159 779.29 176.261 779.824 176.466C780.358 176.67 780.814 176.968 781.193 177.358C781.572 177.744 781.864 178.214 782.068 178.767C782.273 179.32 782.375 179.943 782.375 180.636V181.364H774.58V179.636H779.489C779.485 179.386 779.42 179.167 779.295 178.977C779.174 178.784 779.009 178.635 778.801 178.528C778.597 178.419 778.364 178.364 778.102 178.364C777.848 178.364 777.616 178.419 777.403 178.528C777.191 178.635 777.021 178.782 776.892 178.972C776.767 179.161 776.701 179.383 776.693 179.636V181.5C776.693 181.78 776.752 182.03 776.869 182.25C776.987 182.47 777.155 182.642 777.375 182.767C777.595 182.892 777.86 182.955 778.17 182.955C778.386 182.955 778.583 182.924 778.761 182.864C778.943 182.803 779.098 182.716 779.227 182.602C779.356 182.485 779.451 182.345 779.511 182.182H782.375C782.277 182.788 782.044 183.314 781.676 183.761C781.309 184.205 780.822 184.549 780.216 184.795C779.614 185.038 778.909 185.159 778.102 185.159ZM783.655 185V176.273H786.632V177.932H786.723C786.905 177.386 787.215 176.955 787.655 176.636C788.094 176.318 788.617 176.159 789.223 176.159C789.837 176.159 790.365 176.322 790.808 176.648C791.251 176.97 791.518 177.398 791.609 177.932H791.7C791.848 177.398 792.162 176.97 792.643 176.648C793.125 176.322 793.689 176.159 794.337 176.159C795.174 176.159 795.852 176.428 796.371 176.966C796.893 177.504 797.155 178.22 797.155 179.114V185H794.018V179.909C794.018 179.527 793.922 179.227 793.729 179.011C793.536 178.792 793.276 178.682 792.95 178.682C792.628 178.682 792.373 178.792 792.183 179.011C791.998 179.227 791.905 179.527 791.905 179.909V185H788.905V179.909C788.905 179.527 788.808 179.227 788.615 179.011C788.422 178.792 788.162 178.682 787.837 178.682C787.621 178.682 787.435 178.731 787.28 178.83C787.125 178.928 787.003 179.07 786.916 179.256C786.833 179.438 786.791 179.655 786.791 179.909V185H783.655ZM803.338 185.159C802.444 185.159 801.651 185.002 800.957 184.688C800.268 184.369 799.724 183.932 799.327 183.375C798.933 182.818 798.732 182.178 798.724 181.455H801.793C801.804 181.856 801.959 182.176 802.259 182.415C802.562 182.653 802.921 182.773 803.338 182.773C803.66 182.773 803.944 182.705 804.19 182.568C804.437 182.428 804.63 182.231 804.77 181.977C804.91 181.724 804.978 181.428 804.974 181.091C804.978 180.75 804.91 180.455 804.77 180.205C804.63 179.951 804.437 179.756 804.19 179.619C803.944 179.479 803.66 179.409 803.338 179.409C803.005 179.409 802.696 179.491 802.412 179.653C802.132 179.813 801.925 180.034 801.793 180.318L799.02 179.773L799.474 173.364H807.293V175.886H802.065L801.838 178.455H801.906C802.088 178.102 802.402 177.811 802.849 177.58C803.296 177.345 803.815 177.227 804.406 177.227C805.099 177.227 805.717 177.388 806.259 177.71C806.804 178.032 807.234 178.477 807.548 179.045C807.866 179.61 808.024 180.261 808.02 181C808.024 181.811 807.83 182.53 807.44 183.159C807.054 183.784 806.51 184.275 805.81 184.631C805.109 184.983 804.285 185.159 803.338 185.159Z" fill="#181818" fill-opacity="0.75"/>
<defs>
<filter id="filter0_d_120_42" x="0" y="0" width="887" height="256" filterUnits="userSpaceOnUse" color-interpolation-filters="sRGB">
<feFlood flood-opacity="0" result="BackgroundImageFix"/>
<feColorMatrix in="SourceAlpha" type="matrix" values="0 0 0 0 0 0 0 0 0 0 0 0 0 0 0 0 0 0 127 0" result="hardAlpha"/>
<feOffset dy="4"/>
<feGaussianBlur stdDeviation="4"/>
<feComposite in2="hardAlpha" operator="out"/>
<feColorMatrix type="matrix" values="0 0 0 0 0.129412 0 0 0 0 0.447059 0 0 0 0 1 0 0 0 0.25 0"/>
<feBlend mode="normal" in2="BackgroundImageFix" result="effect1_dropShadow_120_42"/>
<feBlend mode="normal" in="SourceGraphic" in2="effect1_dropShadow_120_42" result="shape"/>
</filter>
<filter id="filter1_d_120_42" x="16" y="16" width="171" height="112" filterUnits="userSpaceOnUse" color-interpolation-filters="sRGB">
<feFlood flood-opacity="0" result="BackgroundImageFix"/>
<feColorMatrix in="SourceAlpha" type="matrix" values="0 0 0 0 0 0 0 0 0 0 0 0 0 0 0 0 0 0 127 0" result="hardAlpha"/>
<feOffset dy="4"/>
<feGaussianBlur stdDeviation="4"/>
<feComposite in2="hardAlpha" operator="out"/>
<feColorMatrix type="matrix" values="0 0 0 0 1 0 0 0 0 1 0 0 0 0 1 0 0 0 0.25 0"/>
<feBlend mode="normal" in2="BackgroundImageFix" result="effect1_dropShadow_120_42"/>
<feBlend mode="normal" in="SourceGraphic" in2="effect1_dropShadow_120_42" result="shape"/>
</filter>
<filter id="filter2_d_120_42" x="16" y="128" width="171" height="112" filterUnits="userSpaceOnUse" color-interpolation-filters="sRGB">
<feFlood flood-opacity="0" result="BackgroundImageFix"/>
<feColorMatrix in="SourceAlpha" type="matrix" values="0 0 0 0 0 0 0 0 0 0 0 0 0 0 0 0 0 0 127 0" result="hardAlpha"/>
<feOffset dy="4"/>
<feGaussianBlur stdDeviation="4"/>
<feComposite in2="hardAlpha" operator="out"/>
<feColorMatrix type="matrix" values="0 0 0 0 1 0 0 0 0 1 0 0 0 0 1 0 0 0 0.25 0"/>
<feBlend mode="normal" in2="BackgroundImageFix" result="effect1_dropShadow_120_42"/>
<feBlend mode="normal" in="SourceGraphic" in2="effect1_dropShadow_120_42" result="shape"/>
</filter>
<filter id="filter3_d_120_42" x="187" y="16" width="171" height="112" filterUnits="userSpaceOnUse" color-interpolation-filters="sRGB">
<feFlood flood-opacity="0" result="BackgroundImageFix"/>
<feColorMatrix in="SourceAlpha" type="matrix" values="0 0 0 0 0 0 0 0 0 0 0 0 0 0 0 0 0 0 127 0" result="hardAlpha"/>
<feOffset dy="4"/>
<feGaussianBlur stdDeviation="4"/>
<feComposite in2="hardAlpha" operator="out"/>
<feColorMatrix type="matrix" values="0 0 0 0 1 0 0 0 0 1 0 0 0 0 1 0 0 0 0.25 0"/>
<feBlend mode="normal" in2="BackgroundImageFix" result="effect1_dropShadow_120_42"/>
<feBlend mode="normal" in="SourceGraphic" in2="effect1_dropShadow_120_42" result="shape"/>
</filter>
<filter id="filter4_d_120_42" x="187" y="128" width="171" height="112" filterUnits="userSpaceOnUse" color-interpolation-filters="sRGB">
<feFlood flood-opacity="0" result="BackgroundImageFix"/>
<feColorMatrix in="SourceAlpha" type="matrix" values="0 0 0 0 0 0 0 0 0 0 0 0 0 0 0 0 0 0 127 0" result="hardAlpha"/>
<feOffset dy="4"/>
<feGaussianBlur stdDeviation="4"/>
<feComposite in2="hardAlpha" operator="out"/>
<feColorMatrix type="matrix" values="0 0 0 0 1 0 0 0 0 1 0 0 0 0 1 0 0 0 0.25 0"/>
<feBlend mode="normal" in2="BackgroundImageFix" result="effect1_dropShadow_120_42"/>
<feBlend mode="normal" in="SourceGraphic" in2="effect1_dropShadow_120_42" result="shape"/>
</filter>
<filter id="filter5_d_120_42" x="358" y="16.0001" width="171" height="112" filterUnits="userSpaceOnUse" color-interpolation-filters="sRGB">
<feFlood flood-opacity="0" result="BackgroundImageFix"/>
<feColorMatrix in="SourceAlpha" type="matrix" values="0 0 0 0 0 0 0 0 0 0 0 0 0 0 0 0 0 0 127 0" result="hardAlpha"/>
<feOffset dy="4"/>
<feGaussianBlur stdDeviation="4"/>
<feComposite in2="hardAlpha" operator="out"/>
<feColorMatrix type="matrix" values="0 0 0 0 1 0 0 0 0 1 0 0 0 0 1 0 0 0 0.25 0"/>
<feBlend mode="normal" in2="BackgroundImageFix" result="effect1_dropShadow_120_42"/>
<feBlend mode="normal" in="SourceGraphic" in2="effect1_dropShadow_120_42" result="shape"/>
</filter>
<filter id="filter6_d_120_42" x="358" y="128" width="171" height="112" filterUnits="userSpaceOnUse" color-interpolation-filters="sRGB">
<feFlood flood-opacity="0" result="BackgroundImageFix"/>
<feColorMatrix in="SourceAlpha" type="matrix" values="0 0 0 0 0 0 0 0 0 0 0 0 0 0 0 0 0 0 127 0" result="hardAlpha"/>
<feOffset dy="4"/>
<feGaussianBlur stdDeviation="4"/>
<feComposite in2="hardAlpha" operator="out"/>
<feColorMatrix type="matrix" values="0 0 0 0 1 0 0 0 0 1 0 0 0 0 1 0 0 0 0.25 0"/>
<feBlend mode="normal" in2="BackgroundImageFix" result="effect1_dropShadow_120_42"/>
<feBlend mode="normal" in="SourceGraphic" in2="effect1_dropShadow_120_42" result="shape"/>
</filter>
<filter id="filter7_d_120_42" x="529" y="16.0001" width="171" height="112" filterUnits="userSpaceOnUse" color-interpolation-filters="sRGB">
<feFlood flood-opacity="0" result="BackgroundImageFix"/>
<feColorMatrix in="SourceAlpha" type="matrix" values="0 0 0 0 0 0 0 0 0 0 0 0 0 0 0 0 0 0 127 0" result="hardAlpha"/>
<feOffset dy="4"/>
<feGaussianBlur stdDeviation="4"/>
<feComposite in2="hardAlpha" operator="out"/>
<feColorMatrix type="matrix" values="0 0 0 0 1 0 0 0 0 1 0 0 0 0 1 0 0 0 0.25 0"/>
<feBlend mode="normal" in2="BackgroundImageFix" result="effect1_dropShadow_120_42"/>
<feBlend mode="normal" in="SourceGraphic" in2="effect1_dropShadow_120_42" result="shape"/>
</filter>
<filter id="filter8_d_120_42" x="529" y="128" width="171" height="112" filterUnits="userSpaceOnUse" color-interpolation-filters="sRGB">
<feFlood flood-opacity="0" result="BackgroundImageFix"/>
<feColorMatrix in="SourceAlpha" type="matrix" values="0 0 0 0 0 0 0 0 0 0 0 0 0 0 0 0 0 0 127 0" result="hardAlpha"/>
<feOffset dy="4"/>
<feGaussianBlur stdDeviation="4"/>
<feComposite in2="hardAlpha" operator="out"/>
<feColorMatrix type="matrix" values="0 0 0 0 1 0 0 0 0 1 0 0 0 0 1 0 0 0 0.25 0"/>
<feBlend mode="normal" in2="BackgroundImageFix" result="effect1_dropShadow_120_42"/>
<feBlend mode="normal" in="SourceGraphic" in2="effect1_dropShadow_120_42" result="shape"/>
</filter>
<filter id="filter9_d_120_42" x="700" y="16.0001" width="171" height="112" filterUnits="userSpaceOnUse" color-interpolation-filters="sRGB">
<feFlood flood-opacity="0" result="BackgroundImageFix"/>
<feColorMatrix in="SourceAlpha" type="matrix" values="0 0 0 0 0 0 0 0 0 0 0 0 0 0 0 0 0 0 127 0" result="hardAlpha"/>
<feOffset dy="4"/>
<feGaussianBlur stdDeviation="4"/>
<feComposite in2="hardAlpha" operator="out"/>
<feColorMatrix type="matrix" values="0 0 0 0 1 0 0 0 0 1 0 0 0 0 1 0 0 0 0.25 0"/>
<feBlend mode="normal" in2="BackgroundImageFix" result="effect1_dropShadow_120_42"/>
<feBlend mode="normal" in="SourceGraphic" in2="effect1_dropShadow_120_42" result="shape"/>
</filter>
<filter id="filter10_d_120_42" x="700" y="128" width="171" height="112" filterUnits="userSpaceOnUse" color-interpolation-filters="sRGB">
<feFlood flood-opacity="0" result="BackgroundImageFix"/>
<feColorMatrix in="SourceAlpha" type="matrix" values="0 0 0 0 0 0 0 0 0 0 0 0 0 0 0 0 0 0 127 0" result="hardAlpha"/>
<feOffset dy="4"/>
<feGaussianBlur stdDeviation="4"/>
<feComposite in2="hardAlpha" operator="out"/>
<feColorMatrix type="matrix" values="0 0 0 0 1 0 0 0 0 1 0 0 0 0 1 0 0 0 0.25 0"/>
<feBlend mode="normal" in2="BackgroundImageFix" result="effect1_dropShadow_120_42"/>
<feBlend mode="normal" in="SourceGraphic" in2="effect1_dropShadow_120_42" result="shape"/>
</filter>
</defs>
</svg>
