<svg width="716" height="163" viewBox="0 0 716 163" fill="none" xmlns="http://www.w3.org/2000/svg">
<g filter="url(#filter0_d_120_29)">
<rect x="8" y="4" width="700" height="147" rx="8" fill="#2172FF" fill-opacity="0.8" shape-rendering="crispEdges"/>
</g>
<path d="M29 27.1591C28.053 27.1591 27.2424 26.9716 26.5682 26.5966C25.8939 26.2178 25.3769 25.6913 25.017 25.017C24.6572 24.339 24.4773 23.553 24.4773 22.6591C24.4773 21.7652 24.6572 20.9811 25.017 20.3068C25.3769 19.6288 25.8939 19.1023 26.5682 18.7273C27.2424 18.3485 28.053 18.1591 29 18.1591C29.8561 18.1591 30.5966 18.3144 31.2216 18.625C31.8504 18.9318 32.3371 19.3674 32.6818 19.9318C33.0265 20.4924 33.2008 21.1515 33.2045 21.9091H30.2955C30.2538 21.4508 30.1212 21.1023 29.8977 20.8636C29.678 20.6212 29.3939 20.5 29.0455 20.5C28.7727 20.5 28.5341 20.5795 28.3295 20.7386C28.125 20.8939 27.9659 21.1307 27.8523 21.4489C27.7386 21.7633 27.6818 22.1591 27.6818 22.6364C27.6818 23.1136 27.7386 23.5114 27.8523 23.8295C27.9659 24.1439 28.125 24.3807 28.3295 24.5398C28.5341 24.6951 28.7727 24.7727 29.0455 24.7727C29.2765 24.7727 29.4811 24.7197 29.6591 24.6136C29.8371 24.5038 29.9811 24.3447 30.0909 24.1364C30.2045 23.9242 30.2727 23.6667 30.2955 23.3636H33.2045C33.1932 24.1326 33.017 24.803 32.6761 25.375C32.3352 25.9432 31.8523 26.3826 31.2273 26.6932C30.6061 27.0038 29.8636 27.1591 29 27.1591ZM38.7031 27.1591C37.7562 27.1591 36.9455 26.9716 36.2713 26.5966C35.5971 26.2178 35.08 25.6913 34.7202 25.017C34.3603 24.339 34.1804 23.553 34.1804 22.6591C34.1804 21.7652 34.3603 20.9811 34.7202 20.3068C35.08 19.6288 35.5971 19.1023 36.2713 18.7273C36.9455 18.3485 37.7562 18.1591 38.7031 18.1591C39.6501 18.1591 40.4607 18.3485 41.1349 18.7273C41.8092 19.1023 42.3262 19.6288 42.6861 20.3068C43.0459 20.9811 43.2259 21.7652 43.2259 22.6591C43.2259 23.553 43.0459 24.339 42.6861 25.017C42.3262 25.6913 41.8092 26.2178 41.1349 26.5966C40.4607 26.9716 39.6501 27.1591 38.7031 27.1591ZM38.7259 24.8409C38.991 24.8409 39.2202 24.7519 39.4134 24.5739C39.6065 24.3958 39.7562 24.142 39.8622 23.8125C39.9683 23.483 40.0213 23.0909 40.0213 22.6364C40.0213 22.178 39.9683 21.786 39.8622 21.4602C39.7562 21.1307 39.6065 20.8769 39.4134 20.6989C39.2202 20.5208 38.991 20.4318 38.7259 20.4318C38.4455 20.4318 38.205 20.5208 38.0043 20.6989C37.8035 20.8769 37.6501 21.1307 37.544 21.4602C37.438 21.786 37.3849 22.178 37.3849 22.6364C37.3849 23.0909 37.438 23.483 37.544 23.8125C37.6501 24.142 37.8035 24.3958 38.0043 24.5739C38.205 24.7519 38.4455 24.8409 38.7259 24.8409ZM47.6349 22.0909V27H44.4986V18.2727H47.4759V19.9318H47.5668C47.7562 19.3788 48.0895 18.9451 48.5668 18.6307C49.0478 18.3163 49.6084 18.1591 50.2486 18.1591C50.866 18.1591 51.402 18.3011 51.8565 18.5852C52.3149 18.8655 52.669 19.2519 52.919 19.7443C53.1728 20.2367 53.2978 20.7992 53.294 21.4318V27H50.1577V22.0909C50.1615 21.6591 50.0516 21.3201 49.8281 21.0739C49.6084 20.8277 49.3016 20.7045 48.9077 20.7045C48.6501 20.7045 48.4247 20.7614 48.2315 20.875C48.0421 20.9848 47.8963 21.1439 47.794 21.3523C47.6918 21.5568 47.6387 21.803 47.6349 22.0909ZM60.0469 18.2727V20.5455H54.2969V18.2727H60.0469ZM55.4105 16.1818H58.5469V24.1932C58.5469 24.3144 58.5677 24.4167 58.6094 24.5C58.651 24.5795 58.7154 24.6402 58.8026 24.6818C58.8897 24.7197 59.0014 24.7386 59.1378 24.7386C59.2325 24.7386 59.3423 24.7273 59.4673 24.7045C59.5961 24.6818 59.6908 24.6629 59.7514 24.6477L60.206 26.8523C60.0658 26.8939 59.8651 26.9451 59.6037 27.0057C59.3461 27.0663 59.0393 27.1061 58.6832 27.125C57.9635 27.1629 57.3594 27.089 56.8707 26.9034C56.3821 26.714 56.0147 26.4167 55.7685 26.0114C55.5223 25.6061 55.4029 25.0985 55.4105 24.4886V16.1818ZM63.7585 27.1364C63.2017 27.1364 62.7093 27.0455 62.2812 26.8636C61.857 26.678 61.5237 26.3977 61.2812 26.0227C61.0388 25.6477 60.9176 25.1705 60.9176 24.5909C60.9176 24.1136 60.9991 23.7064 61.1619 23.3693C61.3248 23.0284 61.5521 22.75 61.8438 22.5341C62.1354 22.3182 62.4744 22.1534 62.8608 22.0398C63.2509 21.9261 63.6714 21.8523 64.1222 21.8182C64.6108 21.7803 65.0028 21.7348 65.2983 21.6818C65.5975 21.625 65.8134 21.5473 65.946 21.4489C66.0786 21.3466 66.1449 21.2121 66.1449 21.0455V21.0227C66.1449 20.7955 66.0578 20.6212 65.8835 20.5C65.7093 20.3788 65.4858 20.3182 65.2131 20.3182C64.9138 20.3182 64.6695 20.3845 64.4801 20.517C64.2945 20.6458 64.1828 20.8447 64.1449 21.1136H61.2585C61.2964 20.5833 61.465 20.0947 61.7642 19.6477C62.0672 19.197 62.5085 18.8371 63.0881 18.5682C63.6676 18.2955 64.3911 18.1591 65.2585 18.1591C65.8835 18.1591 66.4441 18.233 66.9403 18.3807C67.4366 18.5246 67.8589 18.7273 68.2074 18.9886C68.5559 19.2462 68.821 19.5492 69.0028 19.8977C69.1884 20.2424 69.2812 20.6174 69.2812 21.0227V27H66.3494V25.7727H66.2812C66.107 26.0985 65.8949 26.3617 65.6449 26.5625C65.3987 26.7633 65.1165 26.9091 64.7983 27C64.4839 27.0909 64.1373 27.1364 63.7585 27.1364ZM64.7812 25.1591C65.0199 25.1591 65.2434 25.1098 65.4517 25.0114C65.6638 24.9129 65.8362 24.7708 65.9688 24.5852C66.1013 24.3996 66.1676 24.1742 66.1676 23.9091V23.1818C66.0843 23.2159 65.9953 23.2481 65.9006 23.2784C65.8097 23.3087 65.7112 23.3371 65.6051 23.3636C65.5028 23.3902 65.393 23.4148 65.2756 23.4375C65.1619 23.4602 65.0426 23.4811 64.9176 23.5C64.6752 23.5379 64.4763 23.6004 64.321 23.6875C64.1695 23.7708 64.0559 23.875 63.9801 24C63.9081 24.1212 63.8722 24.2576 63.8722 24.4091C63.8722 24.6515 63.9574 24.8371 64.1278 24.9659C64.2983 25.0947 64.5161 25.1591 64.7812 25.1591ZM70.7798 27V18.2727H73.9162V27H70.7798ZM72.348 17.3636C71.9238 17.3636 71.5601 17.2235 71.2571 16.9432C70.9541 16.6629 70.8026 16.3258 70.8026 15.9318C70.8026 15.5379 70.9541 15.2008 71.2571 14.9205C71.5601 14.6402 71.9238 14.5 72.348 14.5C72.776 14.5 73.1397 14.6402 73.4389 14.9205C73.742 15.2008 73.8935 15.5379 73.8935 15.9318C73.8935 16.3258 73.742 16.6629 73.4389 16.9432C73.1397 17.2235 72.776 17.3636 72.348 17.3636ZM78.6506 22.0909V27H75.5142V18.2727H78.4915V19.9318H78.5824C78.7718 19.3788 79.1051 18.9451 79.5824 18.6307C80.0634 18.3163 80.6241 18.1591 81.2642 18.1591C81.8816 18.1591 82.4176 18.3011 82.8722 18.5852C83.3305 18.8655 83.6847 19.2519 83.9347 19.7443C84.1884 20.2367 84.3134 20.7992 84.3097 21.4318V27H81.1733V22.0909C81.1771 21.6591 81.0672 21.3201 80.8438 21.0739C80.6241 20.8277 80.3172 20.7045 79.9233 20.7045C79.6657 20.7045 79.4403 20.7614 79.2472 20.875C79.0578 20.9848 78.9119 21.1439 78.8097 21.3523C78.7074 21.5568 78.6544 21.803 78.6506 22.0909ZM90.0398 27.1591C89.108 27.1591 88.3049 26.9811 87.6307 26.625C86.9602 26.2652 86.4432 25.75 86.0795 25.0795C85.7197 24.4053 85.5398 23.5985 85.5398 22.6591C85.5398 21.7576 85.7216 20.9697 86.0852 20.2955C86.4489 19.6212 86.9621 19.0966 87.625 18.7216C88.2879 18.3466 89.0701 18.1591 89.9716 18.1591C90.6307 18.1591 91.2273 18.2614 91.7614 18.4659C92.2955 18.6705 92.7519 18.9678 93.1307 19.358C93.5095 19.7443 93.8011 20.214 94.0057 20.767C94.2102 21.3201 94.3125 21.9432 94.3125 22.6364V23.3636H86.517V21.6364H91.4261C91.4223 21.3864 91.358 21.1667 91.233 20.9773C91.1117 20.7841 90.947 20.6345 90.7386 20.5284C90.5341 20.4186 90.3011 20.3636 90.0398 20.3636C89.786 20.3636 89.553 20.4186 89.3409 20.5284C89.1288 20.6345 88.9583 20.7822 88.8295 20.9716C88.7045 21.161 88.6383 21.3826 88.6307 21.6364V23.5C88.6307 23.7803 88.6894 24.0303 88.8068 24.25C88.9242 24.4697 89.0928 24.642 89.3125 24.767C89.5322 24.892 89.7973 24.9545 90.108 24.9545C90.3239 24.9545 90.5208 24.9242 90.6989 24.8636C90.8807 24.803 91.036 24.7159 91.1648 24.6023C91.2936 24.4848 91.3883 24.3447 91.4489 24.1818H94.3125C94.214 24.7879 93.9811 25.3144 93.6136 25.7614C93.2462 26.2045 92.7595 26.5492 92.1534 26.7955C91.5511 27.0379 90.8466 27.1591 90.0398 27.1591ZM95.5923 27V18.2727H98.6378V19.9318H98.7287C98.8878 19.3182 99.1397 18.8693 99.4844 18.5852C99.8329 18.3011 100.24 18.1591 100.706 18.1591C100.842 18.1591 100.977 18.1705 101.109 18.1932C101.246 18.2121 101.376 18.2405 101.501 18.2784V20.9545C101.346 20.9015 101.155 20.8617 100.928 20.8352C100.7 20.8087 100.505 20.7955 100.342 20.7955C100.036 20.7955 99.759 20.8655 99.5128 21.0057C99.2704 21.142 99.0791 21.3352 98.9389 21.5852C98.7988 21.8314 98.7287 22.1212 98.7287 22.4545V27H95.5923Z" fill="#181818" fill-opacity="0.75"/>
<g filter="url(#filter1_d_120_29)">
<rect x="24" y="39" width="155" height="96" rx="8" fill="white" fill-opacity="0.75" shape-rendering="crispEdges"/>
</g>
<path d="M79.7955 92V83.2727H82.9318V92H79.7955ZM81.3636 82.3636C80.9394 82.3636 80.5758 82.2235 80.2727 81.9432C79.9697 81.6629 79.8182 81.3258 79.8182 80.9318C79.8182 80.5379 79.9697 80.2008 80.2727 79.9205C80.5758 79.6402 80.9394 79.5 81.3636 79.5C81.7917 79.5 82.1553 79.6402 82.4545 79.9205C82.7576 80.2008 82.9091 80.5379 82.9091 80.9318C82.9091 81.3258 82.7576 81.6629 82.4545 81.9432C82.1553 82.2235 81.7917 82.3636 81.3636 82.3636ZM89.7344 83.2727V85.5455H83.9844V83.2727H89.7344ZM85.098 81.1818H88.2344V89.1932C88.2344 89.3144 88.2552 89.4167 88.2969 89.5C88.3385 89.5795 88.4029 89.6402 88.4901 89.6818C88.5772 89.7197 88.6889 89.7386 88.8253 89.7386C88.92 89.7386 89.0298 89.7273 89.1548 89.7045C89.2836 89.6818 89.3783 89.6629 89.4389 89.6477L89.8935 91.8523C89.7533 91.8939 89.5526 91.9451 89.2912 92.0057C89.0336 92.0663 88.7268 92.1061 88.3707 92.125C87.651 92.1629 87.0469 92.089 86.5582 91.9034C86.0696 91.714 85.7022 91.4167 85.456 91.0114C85.2098 90.6061 85.0904 90.0985 85.098 89.4886V81.1818ZM95.1023 92.1591C94.1705 92.1591 93.3674 91.9811 92.6932 91.625C92.0227 91.2652 91.5057 90.75 91.142 90.0795C90.7822 89.4053 90.6023 88.5985 90.6023 87.6591C90.6023 86.7576 90.7841 85.9697 91.1477 85.2955C91.5114 84.6212 92.0246 84.0966 92.6875 83.7216C93.3504 83.3466 94.1326 83.1591 95.0341 83.1591C95.6932 83.1591 96.2898 83.2614 96.8239 83.4659C97.358 83.6705 97.8144 83.9678 98.1932 84.358C98.572 84.7443 98.8636 85.214 99.0682 85.767C99.2727 86.3201 99.375 86.9432 99.375 87.6364V88.3636H91.5795V86.6364H96.4886C96.4848 86.3864 96.4205 86.1667 96.2955 85.9773C96.1742 85.7841 96.0095 85.6345 95.8011 85.5284C95.5966 85.4186 95.3636 85.3636 95.1023 85.3636C94.8485 85.3636 94.6155 85.4186 94.4034 85.5284C94.1913 85.6345 94.0208 85.7822 93.892 85.9716C93.767 86.161 93.7008 86.3826 93.6932 86.6364V88.5C93.6932 88.7803 93.7519 89.0303 93.8693 89.25C93.9867 89.4697 94.1553 89.642 94.375 89.767C94.5947 89.892 94.8598 89.9545 95.1705 89.9545C95.3864 89.9545 95.5833 89.9242 95.7614 89.8636C95.9432 89.803 96.0985 89.7159 96.2273 89.6023C96.3561 89.4848 96.4508 89.3447 96.5114 89.1818H99.375C99.2765 89.7879 99.0436 90.3144 98.6761 90.7614C98.3087 91.2045 97.822 91.5492 97.2159 91.7955C96.6136 92.0379 95.9091 92.1591 95.1023 92.1591ZM100.655 92V83.2727H103.632V84.9318H103.723C103.905 84.3864 104.215 83.9545 104.655 83.6364C105.094 83.3182 105.617 83.1591 106.223 83.1591C106.837 83.1591 107.365 83.322 107.808 83.6477C108.251 83.9697 108.518 84.3977 108.609 84.9318H108.7C108.848 84.3977 109.162 83.9697 109.643 83.6477C110.125 83.322 110.689 83.1591 111.337 83.1591C112.174 83.1591 112.852 83.428 113.371 83.9659C113.893 84.5038 114.155 85.2197 114.155 86.1136V92H111.018V86.9091C111.018 86.5265 110.922 86.2273 110.729 86.0114C110.536 85.7917 110.276 85.6818 109.95 85.6818C109.628 85.6818 109.373 85.7917 109.183 86.0114C108.998 86.2273 108.905 86.5265 108.905 86.9091V92H105.905V86.9091C105.905 86.5265 105.808 86.2273 105.615 86.0114C105.422 85.7917 105.162 85.6818 104.837 85.6818C104.621 85.6818 104.435 85.7311 104.28 85.8295C104.125 85.928 104.003 86.0701 103.916 86.2557C103.833 86.4375 103.791 86.6553 103.791 86.9091V92H100.655ZM120.743 80.3636V92H117.584V83.2727H117.516L114.97 84.7955V82.1136L117.834 80.3636H120.743Z" fill="#181818" fill-opacity="0.75"/>
<g filter="url(#filter2_d_120_29)">
<rect x="195" y="39" width="155" height="96" rx="8" fill="white" fill-opacity="0.75" shape-rendering="crispEdges"/>
</g>
<path d="M250.795 92V83.2727H253.932V92H250.795ZM252.364 82.3636C251.939 82.3636 251.576 82.2235 251.273 81.9432C250.97 81.6629 250.818 81.3258 250.818 80.9318C250.818 80.5379 250.97 80.2008 251.273 79.9205C251.576 79.6402 251.939 79.5 252.364 79.5C252.792 79.5 253.155 79.6402 253.455 79.9205C253.758 80.2008 253.909 80.5379 253.909 80.9318C253.909 81.3258 253.758 81.6629 253.455 81.9432C253.155 82.2235 252.792 82.3636 252.364 82.3636ZM260.734 83.2727V85.5455H254.984V83.2727H260.734ZM256.098 81.1818H259.234V89.1932C259.234 89.3144 259.255 89.4167 259.297 89.5C259.339 89.5795 259.403 89.6402 259.49 89.6818C259.577 89.7197 259.689 89.7386 259.825 89.7386C259.92 89.7386 260.03 89.7273 260.155 89.7045C260.284 89.6818 260.378 89.6629 260.439 89.6477L260.893 91.8523C260.753 91.8939 260.553 91.9451 260.291 92.0057C260.034 92.0663 259.727 92.1061 259.371 92.125C258.651 92.1629 258.047 92.089 257.558 91.9034C257.07 91.714 256.702 91.4167 256.456 91.0114C256.21 90.6061 256.09 90.0985 256.098 89.4886V81.1818ZM266.102 92.1591C265.17 92.1591 264.367 91.9811 263.693 91.625C263.023 91.2652 262.506 90.75 262.142 90.0795C261.782 89.4053 261.602 88.5985 261.602 87.6591C261.602 86.7576 261.784 85.9697 262.148 85.2955C262.511 84.6212 263.025 84.0966 263.688 83.7216C264.35 83.3466 265.133 83.1591 266.034 83.1591C266.693 83.1591 267.29 83.2614 267.824 83.4659C268.358 83.6705 268.814 83.9678 269.193 84.358C269.572 84.7443 269.864 85.214 270.068 85.767C270.273 86.3201 270.375 86.9432 270.375 87.6364V88.3636H262.58V86.6364H267.489C267.485 86.3864 267.42 86.1667 267.295 85.9773C267.174 85.7841 267.009 85.6345 266.801 85.5284C266.597 85.4186 266.364 85.3636 266.102 85.3636C265.848 85.3636 265.616 85.4186 265.403 85.5284C265.191 85.6345 265.021 85.7822 264.892 85.9716C264.767 86.161 264.701 86.3826 264.693 86.6364V88.5C264.693 88.7803 264.752 89.0303 264.869 89.25C264.987 89.4697 265.155 89.642 265.375 89.767C265.595 89.892 265.86 89.9545 266.17 89.9545C266.386 89.9545 266.583 89.9242 266.761 89.8636C266.943 89.803 267.098 89.7159 267.227 89.6023C267.356 89.4848 267.451 89.3447 267.511 89.1818H270.375C270.277 89.7879 270.044 90.3144 269.676 90.7614C269.309 91.2045 268.822 91.5492 268.216 91.7955C267.614 92.0379 266.909 92.1591 266.102 92.1591ZM271.655 92V83.2727H274.632V84.9318H274.723C274.905 84.3864 275.215 83.9545 275.655 83.6364C276.094 83.3182 276.617 83.1591 277.223 83.1591C277.837 83.1591 278.365 83.322 278.808 83.6477C279.251 83.9697 279.518 84.3977 279.609 84.9318H279.7C279.848 84.3977 280.162 83.9697 280.643 83.6477C281.125 83.322 281.689 83.1591 282.337 83.1591C283.174 83.1591 283.852 83.428 284.371 83.9659C284.893 84.5038 285.155 85.2197 285.155 86.1136V92H282.018V86.9091C282.018 86.5265 281.922 86.2273 281.729 86.0114C281.536 85.7917 281.276 85.6818 280.95 85.6818C280.628 85.6818 280.373 85.7917 280.183 86.0114C279.998 86.2273 279.905 86.5265 279.905 86.9091V92H276.905V86.9091C276.905 86.5265 276.808 86.2273 276.615 86.0114C276.422 85.7917 276.162 85.6818 275.837 85.6818C275.621 85.6818 275.435 85.7311 275.28 85.8295C275.125 85.928 275.003 86.0701 274.916 86.2557C274.833 86.4375 274.791 86.6553 274.791 86.9091V92H271.655ZM286.679 92V89.7273L291.02 86.1364C291.308 85.8977 291.554 85.6742 291.759 85.4659C291.967 85.2538 292.126 85.036 292.236 84.8125C292.349 84.589 292.406 84.3409 292.406 84.0682C292.406 83.7689 292.342 83.5133 292.213 83.3011C292.088 83.089 291.914 82.9261 291.69 82.8125C291.467 82.6951 291.209 82.6364 290.918 82.6364C290.626 82.6364 290.368 82.6951 290.145 82.8125C289.925 82.9299 289.755 83.1023 289.634 83.3295C289.512 83.5568 289.452 83.8333 289.452 84.1591H286.452C286.452 83.3409 286.635 82.6364 287.003 82.0455C287.37 81.4545 287.889 81 288.56 80.6818C289.23 80.3636 290.016 80.2045 290.918 80.2045C291.849 80.2045 292.656 80.3542 293.338 80.6534C294.024 80.9489 294.552 81.3655 294.923 81.9034C295.298 82.4413 295.486 83.072 295.486 83.7955C295.486 84.2424 295.393 84.6875 295.207 85.1307C295.022 85.5701 294.688 86.0568 294.207 86.5909C293.726 87.125 293.043 87.7614 292.156 88.5L291.065 89.4091V89.4773H295.611V92H286.679Z" fill="#181818" fill-opacity="0.75"/>
<g filter="url(#filter3_d_120_29)">
<rect x="366" y="39" width="155" height="96" rx="8" fill="white" fill-opacity="0.75" shape-rendering="crispEdges"/>
</g>
<path d="M420.795 92V83.2727H423.932V92H420.795ZM422.364 82.3636C421.939 82.3636 421.576 82.2235 421.273 81.9432C420.97 81.6629 420.818 81.3258 420.818 80.9318C420.818 80.5379 420.97 80.2008 421.273 79.9205C421.576 79.6402 421.939 79.5 422.364 79.5C422.792 79.5 423.155 79.6402 423.455 79.9205C423.758 80.2008 423.909 80.5379 423.909 80.9318C423.909 81.3258 423.758 81.6629 423.455 81.9432C423.155 82.2235 422.792 82.3636 422.364 82.3636ZM430.734 83.2727V85.5455H424.984V83.2727H430.734ZM426.098 81.1818H429.234V89.1932C429.234 89.3144 429.255 89.4167 429.297 89.5C429.339 89.5795 429.403 89.6402 429.49 89.6818C429.577 89.7197 429.689 89.7386 429.825 89.7386C429.92 89.7386 430.03 89.7273 430.155 89.7045C430.284 89.6818 430.378 89.6629 430.439 89.6477L430.893 91.8523C430.753 91.8939 430.553 91.9451 430.291 92.0057C430.034 92.0663 429.727 92.1061 429.371 92.125C428.651 92.1629 428.047 92.089 427.558 91.9034C427.07 91.714 426.702 91.4167 426.456 91.0114C426.21 90.6061 426.09 90.0985 426.098 89.4886V81.1818ZM436.102 92.1591C435.17 92.1591 434.367 91.9811 433.693 91.625C433.023 91.2652 432.506 90.75 432.142 90.0795C431.782 89.4053 431.602 88.5985 431.602 87.6591C431.602 86.7576 431.784 85.9697 432.148 85.2955C432.511 84.6212 433.025 84.0966 433.688 83.7216C434.35 83.3466 435.133 83.1591 436.034 83.1591C436.693 83.1591 437.29 83.2614 437.824 83.4659C438.358 83.6705 438.814 83.9678 439.193 84.358C439.572 84.7443 439.864 85.214 440.068 85.767C440.273 86.3201 440.375 86.9432 440.375 87.6364V88.3636H432.58V86.6364H437.489C437.485 86.3864 437.42 86.1667 437.295 85.9773C437.174 85.7841 437.009 85.6345 436.801 85.5284C436.597 85.4186 436.364 85.3636 436.102 85.3636C435.848 85.3636 435.616 85.4186 435.403 85.5284C435.191 85.6345 435.021 85.7822 434.892 85.9716C434.767 86.161 434.701 86.3826 434.693 86.6364V88.5C434.693 88.7803 434.752 89.0303 434.869 89.25C434.987 89.4697 435.155 89.642 435.375 89.767C435.595 89.892 435.86 89.9545 436.17 89.9545C436.386 89.9545 436.583 89.9242 436.761 89.8636C436.943 89.803 437.098 89.7159 437.227 89.6023C437.356 89.4848 437.451 89.3447 437.511 89.1818H440.375C440.277 89.7879 440.044 90.3144 439.676 90.7614C439.309 91.2045 438.822 91.5492 438.216 91.7955C437.614 92.0379 436.909 92.1591 436.102 92.1591ZM441.655 92V83.2727H444.632V84.9318H444.723C444.905 84.3864 445.215 83.9545 445.655 83.6364C446.094 83.3182 446.617 83.1591 447.223 83.1591C447.837 83.1591 448.365 83.322 448.808 83.6477C449.251 83.9697 449.518 84.3977 449.609 84.9318H449.7C449.848 84.3977 450.162 83.9697 450.643 83.6477C451.125 83.322 451.689 83.1591 452.337 83.1591C453.174 83.1591 453.852 83.428 454.371 83.9659C454.893 84.5038 455.155 85.2197 455.155 86.1136V92H452.018V86.9091C452.018 86.5265 451.922 86.2273 451.729 86.0114C451.536 85.7917 451.276 85.6818 450.95 85.6818C450.628 85.6818 450.373 85.7917 450.183 86.0114C449.998 86.2273 449.905 86.5265 449.905 86.9091V92H446.905V86.9091C446.905 86.5265 446.808 86.2273 446.615 86.0114C446.422 85.7917 446.162 85.6818 445.837 85.6818C445.621 85.6818 445.435 85.7311 445.28 85.8295C445.125 85.928 445.003 86.0701 444.916 86.2557C444.833 86.4375 444.791 86.6553 444.791 86.9091V92H441.655ZM461.224 92.1591C460.308 92.1591 459.493 92.0019 458.781 91.6875C458.073 91.3693 457.516 90.9318 457.111 90.375C456.705 89.8182 456.501 89.178 456.497 88.4545H459.679C459.683 88.678 459.751 88.8788 459.884 89.0568C460.02 89.2311 460.205 89.3674 460.44 89.4659C460.675 89.5644 460.944 89.6136 461.247 89.6136C461.539 89.6136 461.796 89.5625 462.02 89.4602C462.243 89.3542 462.418 89.2083 462.543 89.0227C462.668 88.8371 462.728 88.625 462.724 88.3864C462.728 88.1515 462.656 87.9432 462.509 87.7614C462.365 87.5795 462.162 87.4375 461.901 87.3352C461.639 87.233 461.338 87.1818 460.997 87.1818H459.815V85H460.997C461.312 85 461.588 84.9489 461.827 84.8466C462.069 84.7443 462.257 84.6023 462.389 84.4205C462.526 84.2386 462.592 84.0303 462.588 83.7955C462.592 83.5682 462.537 83.3674 462.423 83.1932C462.31 83.0189 462.151 82.8826 461.946 82.7841C461.745 82.6856 461.512 82.6364 461.247 82.6364C460.959 82.6364 460.702 82.6875 460.474 82.7898C460.251 82.892 460.075 83.0341 459.946 83.2159C459.817 83.3977 459.751 83.6061 459.747 83.8409H456.724C456.728 83.1288 456.923 82.5 457.31 81.9545C457.7 81.4091 458.234 80.9811 458.912 80.6705C459.59 80.3598 460.368 80.2045 461.247 80.2045C462.107 80.2045 462.866 80.3504 463.526 80.642C464.188 80.9337 464.705 81.3352 465.077 81.8466C465.452 82.3542 465.637 82.9356 465.634 83.5909C465.641 84.2424 465.418 84.7765 464.963 85.1932C464.512 85.6098 463.94 85.8561 463.247 85.9318V86.0227C464.187 86.125 464.893 86.4129 465.366 86.8864C465.84 87.3561 466.073 87.947 466.065 88.6591C466.069 89.3409 465.865 89.9451 465.452 90.4716C465.043 90.9981 464.473 91.411 463.741 91.7102C463.014 92.0095 462.175 92.1591 461.224 92.1591Z" fill="#181818" fill-opacity="0.75"/>
<g filter="url(#filter4_d_120_29)">
<rect x="537" y="39" width="155" height="96" rx="8" fill="white" fill-opacity="0.75" shape-rendering="crispEdges"/>
</g>
<path d="M591.795 92V83.2727H594.932V92H591.795ZM593.364 82.3636C592.939 82.3636 592.576 82.2235 592.273 81.9432C591.97 81.6629 591.818 81.3258 591.818 80.9318C591.818 80.5379 591.97 80.2008 592.273 79.9205C592.576 79.6402 592.939 79.5 593.364 79.5C593.792 79.5 594.155 79.6402 594.455 79.9205C594.758 80.2008 594.909 80.5379 594.909 80.9318C594.909 81.3258 594.758 81.6629 594.455 81.9432C594.155 82.2235 593.792 82.3636 593.364 82.3636ZM601.734 83.2727V85.5455H595.984V83.2727H601.734ZM597.098 81.1818H600.234V89.1932C600.234 89.3144 600.255 89.4167 600.297 89.5C600.339 89.5795 600.403 89.6402 600.49 89.6818C600.577 89.7197 600.689 89.7386 600.825 89.7386C600.92 89.7386 601.03 89.7273 601.155 89.7045C601.284 89.6818 601.378 89.6629 601.439 89.6477L601.893 91.8523C601.753 91.8939 601.553 91.9451 601.291 92.0057C601.034 92.0663 600.727 92.1061 600.371 92.125C599.651 92.1629 599.047 92.089 598.558 91.9034C598.07 91.714 597.702 91.4167 597.456 91.0114C597.21 90.6061 597.09 90.0985 597.098 89.4886V81.1818ZM607.102 92.1591C606.17 92.1591 605.367 91.9811 604.693 91.625C604.023 91.2652 603.506 90.75 603.142 90.0795C602.782 89.4053 602.602 88.5985 602.602 87.6591C602.602 86.7576 602.784 85.9697 603.148 85.2955C603.511 84.6212 604.025 84.0966 604.688 83.7216C605.35 83.3466 606.133 83.1591 607.034 83.1591C607.693 83.1591 608.29 83.2614 608.824 83.4659C609.358 83.6705 609.814 83.9678 610.193 84.358C610.572 84.7443 610.864 85.214 611.068 85.767C611.273 86.3201 611.375 86.9432 611.375 87.6364V88.3636H603.58V86.6364H608.489C608.485 86.3864 608.42 86.1667 608.295 85.9773C608.174 85.7841 608.009 85.6345 607.801 85.5284C607.597 85.4186 607.364 85.3636 607.102 85.3636C606.848 85.3636 606.616 85.4186 606.403 85.5284C606.191 85.6345 606.021 85.7822 605.892 85.9716C605.767 86.161 605.701 86.3826 605.693 86.6364V88.5C605.693 88.7803 605.752 89.0303 605.869 89.25C605.987 89.4697 606.155 89.642 606.375 89.767C606.595 89.892 606.86 89.9545 607.17 89.9545C607.386 89.9545 607.583 89.9242 607.761 89.8636C607.943 89.803 608.098 89.7159 608.227 89.6023C608.356 89.4848 608.451 89.3447 608.511 89.1818H611.375C611.277 89.7879 611.044 90.3144 610.676 90.7614C610.309 91.2045 609.822 91.5492 609.216 91.7955C608.614 92.0379 607.909 92.1591 607.102 92.1591ZM612.655 92V83.2727H615.632V84.9318H615.723C615.905 84.3864 616.215 83.9545 616.655 83.6364C617.094 83.3182 617.617 83.1591 618.223 83.1591C618.837 83.1591 619.365 83.322 619.808 83.6477C620.251 83.9697 620.518 84.3977 620.609 84.9318H620.7C620.848 84.3977 621.162 83.9697 621.643 83.6477C622.125 83.322 622.689 83.1591 623.337 83.1591C624.174 83.1591 624.852 83.428 625.371 83.9659C625.893 84.5038 626.155 85.2197 626.155 86.1136V92H623.018V86.9091C623.018 86.5265 622.922 86.2273 622.729 86.0114C622.536 85.7917 622.276 85.6818 621.95 85.6818C621.628 85.6818 621.373 85.7917 621.183 86.0114C620.998 86.2273 620.905 86.5265 620.905 86.9091V92H617.905V86.9091C617.905 86.5265 617.808 86.2273 617.615 86.0114C617.422 85.7917 617.162 85.6818 616.837 85.6818C616.621 85.6818 616.435 85.7311 616.28 85.8295C616.125 85.928 616.003 86.0701 615.916 86.2557C615.833 86.4375 615.791 86.6553 615.791 86.9091V92H612.655ZM627.565 90.1818V87.7273L632.247 80.3636H634.474V83.6364H633.202L630.679 87.6364V87.7273H637.588V90.1818H627.565ZM633.224 92V89.4318L633.293 88.3636V80.3636H636.247V92H633.224Z" fill="#181818" fill-opacity="0.75"/>
<defs>
<filter id="filter0_d_120_29" x="0" y="0" width="716" height="163" filterUnits="userSpaceOnUse" color-interpolation-filters="sRGB">
<feFlood flood-opacity="0" result="BackgroundImageFix"/>
<feColorMatrix in="SourceAlpha" type="matrix" values="0 0 0 0 0 0 0 0 0 0 0 0 0 0 0 0 0 0 127 0" result="hardAlpha"/>
<feOffset dy="4"/>
<feGaussianBlur stdDeviation="4"/>
<feComposite in2="hardAlpha" operator="out"/>
<feColorMatrix type="matrix" values="0 0 0 0 0.129412 0 0 0 0 0.447059 0 0 0 0 1 0 0 0 0.25 0"/>
<feBlend mode="normal" in2="BackgroundImageFix" result="effect1_dropShadow_120_29"/>
<feBlend mode="normal" in="SourceGraphic" in2="effect1_dropShadow_120_29" result="shape"/>
</filter>
<filter id="filter1_d_120_29" x="16" y="35" width="171" height="112" filterUnits="userSpaceOnUse" color-interpolation-filters="sRGB">
<feFlood flood-opacity="0" result="BackgroundImageFix"/>
<feColorMatrix in="SourceAlpha" type="matrix" values="0 0 0 0 0 0 0 0 0 0 0 0 0 0 0 0 0 0 127 0" result="hardAlpha"/>
<feOffset dy="4"/>
<feGaussianBlur stdDeviation="4"/>
<feComposite in2="hardAlpha" operator="out"/>
<feColorMatrix type="matrix" values="0 0 0 0 1 0 0 0 0 1 0 0 0 0 1 0 0 0 0.25 0"/>
<feBlend mode="normal" in2="BackgroundImageFix" result="effect1_dropShadow_120_29"/>
<feBlend mode="normal" in="SourceGraphic" in2="effect1_dropShadow_120_29" result="shape"/>
</filter>
<filter id="filter2_d_120_29" x="187" y="35" width="171" height="112" filterUnits="userSpaceOnUse" color-interpolation-filters="sRGB">
<feFlood flood-opacity="0" result="BackgroundImageFix"/>
<feColorMatrix in="SourceAlpha" type="matrix" values="0 0 0 0 0 0 0 0 0 0 0 0 0 0 0 0 0 0 127 0" result="hardAlpha"/>
<feOffset dy="4"/>
<feGaussianBlur stdDeviation="4"/>
<feComposite in2="hardAlpha" operator="out"/>
<feColorMatrix type="matrix" values="0 0 0 0 1 0 0 0 0 1 0 0 0 0 1 0 0 0 0.25 0"/>
<feBlend mode="normal" in2="BackgroundImageFix" result="effect1_dropShadow_120_29"/>
<feBlend mode="normal" in="SourceGraphic" in2="effect1_dropShadow_120_29" result="shape"/>
</filter>
<filter id="filter3_d_120_29" x="358" y="35" width="171" height="112" filterUnits="userSpaceOnUse" color-interpolation-filters="sRGB">
<feFlood flood-opacity="0" result="BackgroundImageFix"/>
<feColorMatrix in="SourceAlpha" type="matrix" values="0 0 0 0 0 0 0 0 0 0 0 0 0 0 0 0 0 0 127 0" result="hardAlpha"/>
<feOffset dy="4"/>
<feGaussianBlur stdDeviation="4"/>
<feComposite in2="hardAlpha" operator="out"/>
<feColorMatrix type="matrix" values="0 0 0 0 1 0 0 0 0 1 0 0 0 0 1 0 0 0 0.25 0"/>
<feBlend mode="normal" in2="BackgroundImageFix" result="effect1_dropShadow_120_29"/>
<feBlend mode="normal" in="SourceGraphic" in2="effect1_dropShadow_120_29" result="shape"/>
</filter>
<filter id="filter4_d_120_29" x="529" y="35" width="171" height="112" filterUnits="userSpaceOnUse" color-interpolation-filters="sRGB">
<feFlood flood-opacity="0" result="BackgroundImageFix"/>
<feColorMatrix in="SourceAlpha" type="matrix" values="0 0 0 0 0 0 0 0 0 0 0 0 0 0 0 0 0 0 127 0" result="hardAlpha"/>
<feOffset dy="4"/>
<feGaussianBlur stdDeviation="4"/>
<feComposite in2="hardAlpha" operator="out"/>
<feColorMatrix type="matrix" values="0 0 0 0 1 0 0 0 0 1 0 0 0 0 1 0 0 0 0.25 0"/>
<feBlend mode="normal" in2="BackgroundImageFix" result="effect1_dropShadow_120_29"/>
<feBlend mode="normal" in="SourceGraphic" in2="effect1_dropShadow_120_29" result="shape"/>
</filter>
</defs>
</svg>
