<svg width="716" height="144" viewBox="0 0 716 144" fill="none" xmlns="http://www.w3.org/2000/svg">
<g filter="url(#filter0_d_120_42)">
<rect x="8" y="4" width="700" height="128" rx="8" fill="#2172FF" fill-opacity="0.8" shape-rendering="crispEdges"/>
</g>
<g filter="url(#filter1_d_120_42)">
<rect x="24" y="20" width="128" height="96" rx="8" fill="white" fill-opacity="0.75" shape-rendering="crispEdges"/>
</g>
<path d="M66.7955 73V64.2727H69.9318V73H66.7955ZM68.3636 63.3636C67.9394 63.3636 67.5758 63.2235 67.2727 62.9432C66.9697 62.6629 66.8182 62.3258 66.8182 61.9318C66.8182 61.5379 66.9697 61.2008 67.2727 60.9205C67.5758 60.6402 67.9394 60.5 68.3636 60.5C68.7917 60.5 69.1553 60.6402 69.4545 60.9205C69.7576 61.2008 69.9091 61.5379 69.9091 61.9318C69.9091 62.3258 69.7576 62.6629 69.4545 62.9432C69.1553 63.2235 68.7917 63.3636 68.3636 63.3636ZM76.7344 64.2727V66.5455H70.9844V64.2727H76.7344ZM72.098 62.1818H75.2344V70.1932C75.2344 70.3144 75.2552 70.4167 75.2969 70.5C75.3385 70.5795 75.4029 70.6402 75.4901 70.6818C75.5772 70.7197 75.6889 70.7386 75.8253 70.7386C75.92 70.7386 76.0298 70.7273 76.1548 70.7045C76.2836 70.6818 76.3783 70.6629 76.4389 70.6477L76.8935 72.8523C76.7533 72.8939 76.5526 72.9451 76.2912 73.0057C76.0336 73.0663 75.7268 73.1061 75.3707 73.125C74.651 73.1629 74.0469 73.089 73.5582 72.9034C73.0696 72.714 72.7022 72.4167 72.456 72.0114C72.2098 71.6061 72.0904 71.0985 72.098 70.4886V62.1818ZM82.1023 73.1591C81.1705 73.1591 80.3674 72.9811 79.6932 72.625C79.0227 72.2652 78.5057 71.75 78.142 71.0795C77.7822 70.4053 77.6023 69.5985 77.6023 68.6591C77.6023 67.7576 77.7841 66.9697 78.1477 66.2955C78.5114 65.6212 79.0246 65.0966 79.6875 64.7216C80.3504 64.3466 81.1326 64.1591 82.0341 64.1591C82.6932 64.1591 83.2898 64.2614 83.8239 64.4659C84.358 64.6705 84.8144 64.9678 85.1932 65.358C85.572 65.7443 85.8636 66.214 86.0682 66.767C86.2727 67.3201 86.375 67.9432 86.375 68.6364V69.3636H78.5795V67.6364H83.4886C83.4848 67.3864 83.4205 67.1667 83.2955 66.9773C83.1742 66.7841 83.0095 66.6345 82.8011 66.5284C82.5966 66.4186 82.3636 66.3636 82.1023 66.3636C81.8485 66.3636 81.6155 66.4186 81.4034 66.5284C81.1913 66.6345 81.0208 66.7822 80.892 66.9716C80.767 67.161 80.7008 67.3826 80.6932 67.6364V69.5C80.6932 69.7803 80.7519 70.0303 80.8693 70.25C80.9867 70.4697 81.1553 70.642 81.375 70.767C81.5947 70.892 81.8598 70.9545 82.1705 70.9545C82.3864 70.9545 82.5833 70.9242 82.7614 70.8636C82.9432 70.803 83.0985 70.7159 83.2273 70.6023C83.3561 70.4848 83.4508 70.3447 83.5114 70.1818H86.375C86.2765 70.7879 86.0436 71.3144 85.6761 71.7614C85.3087 72.2045 84.822 72.5492 84.2159 72.7955C83.6136 73.0379 82.9091 73.1591 82.1023 73.1591ZM87.6548 73V64.2727H90.6321V65.9318H90.723C90.9048 65.3864 91.2154 64.9545 91.6548 64.6364C92.0942 64.3182 92.617 64.1591 93.223 64.1591C93.8366 64.1591 94.3651 64.322 94.8082 64.6477C95.2514 64.9697 95.5185 65.3977 95.6094 65.9318H95.7003C95.848 65.3977 96.1624 64.9697 96.6435 64.6477C97.1245 64.322 97.6889 64.1591 98.3366 64.1591C99.1738 64.1591 99.8518 64.428 100.371 64.9659C100.893 65.5038 101.155 66.2197 101.155 67.1136V73H98.0185V67.9091C98.0185 67.5265 97.9219 67.2273 97.7287 67.0114C97.5355 66.7917 97.276 66.6818 96.9503 66.6818C96.6283 66.6818 96.3726 66.7917 96.1832 67.0114C95.9976 67.2273 95.9048 67.5265 95.9048 67.9091V73H92.9048V67.9091C92.9048 67.5265 92.8082 67.2273 92.6151 67.0114C92.4219 66.7917 92.1624 66.6818 91.8366 66.6818C91.6207 66.6818 91.4351 66.7311 91.2798 66.8295C91.1245 66.928 91.0033 67.0701 90.9162 67.2557C90.8329 67.4375 90.7912 67.6553 90.7912 67.9091V73H87.6548ZM107.743 61.3636V73H104.584V64.2727H104.516L101.97 65.7955V63.1136L104.834 61.3636H107.743Z" fill="#181818" fill-opacity="0.75"/>
<g filter="url(#filter2_d_120_42)">
<rect x="168" y="20" width="182" height="96" rx="8" fill="white" fill-opacity="0.75" shape-rendering="crispEdges"/>
</g>
<path d="M236.795 73V64.2727H239.932V73H236.795ZM238.364 63.3636C237.939 63.3636 237.576 63.2235 237.273 62.9432C236.97 62.6629 236.818 62.3258 236.818 61.9318C236.818 61.5379 236.97 61.2008 237.273 60.9205C237.576 60.6402 237.939 60.5 238.364 60.5C238.792 60.5 239.155 60.6402 239.455 60.9205C239.758 61.2008 239.909 61.5379 239.909 61.9318C239.909 62.3258 239.758 62.6629 239.455 62.9432C239.155 63.2235 238.792 63.3636 238.364 63.3636ZM246.734 64.2727V66.5455H240.984V64.2727H246.734ZM242.098 62.1818H245.234V70.1932C245.234 70.3144 245.255 70.4167 245.297 70.5C245.339 70.5795 245.403 70.6402 245.49 70.6818C245.577 70.7197 245.689 70.7386 245.825 70.7386C245.92 70.7386 246.03 70.7273 246.155 70.7045C246.284 70.6818 246.378 70.6629 246.439 70.6477L246.893 72.8523C246.753 72.8939 246.553 72.9451 246.291 73.0057C246.034 73.0663 245.727 73.1061 245.371 73.125C244.651 73.1629 244.047 73.089 243.558 72.9034C243.07 72.714 242.702 72.4167 242.456 72.0114C242.21 71.6061 242.09 71.0985 242.098 70.4886V62.1818ZM252.102 73.1591C251.17 73.1591 250.367 72.9811 249.693 72.625C249.023 72.2652 248.506 71.75 248.142 71.0795C247.782 70.4053 247.602 69.5985 247.602 68.6591C247.602 67.7576 247.784 66.9697 248.148 66.2955C248.511 65.6212 249.025 65.0966 249.688 64.7216C250.35 64.3466 251.133 64.1591 252.034 64.1591C252.693 64.1591 253.29 64.2614 253.824 64.4659C254.358 64.6705 254.814 64.9678 255.193 65.358C255.572 65.7443 255.864 66.214 256.068 66.767C256.273 67.3201 256.375 67.9432 256.375 68.6364V69.3636H248.58V67.6364H253.489C253.485 67.3864 253.42 67.1667 253.295 66.9773C253.174 66.7841 253.009 66.6345 252.801 66.5284C252.597 66.4186 252.364 66.3636 252.102 66.3636C251.848 66.3636 251.616 66.4186 251.403 66.5284C251.191 66.6345 251.021 66.7822 250.892 66.9716C250.767 67.161 250.701 67.3826 250.693 67.6364V69.5C250.693 69.7803 250.752 70.0303 250.869 70.25C250.987 70.4697 251.155 70.642 251.375 70.767C251.595 70.892 251.86 70.9545 252.17 70.9545C252.386 70.9545 252.583 70.9242 252.761 70.8636C252.943 70.803 253.098 70.7159 253.227 70.6023C253.356 70.4848 253.451 70.3447 253.511 70.1818H256.375C256.277 70.7879 256.044 71.3144 255.676 71.7614C255.309 72.2045 254.822 72.5492 254.216 72.7955C253.614 73.0379 252.909 73.1591 252.102 73.1591ZM257.655 73V64.2727H260.632V65.9318H260.723C260.905 65.3864 261.215 64.9545 261.655 64.6364C262.094 64.3182 262.617 64.1591 263.223 64.1591C263.837 64.1591 264.365 64.322 264.808 64.6477C265.251 64.9697 265.518 65.3977 265.609 65.9318H265.7C265.848 65.3977 266.162 64.9697 266.643 64.6477C267.125 64.322 267.689 64.1591 268.337 64.1591C269.174 64.1591 269.852 64.428 270.371 64.9659C270.893 65.5038 271.155 66.2197 271.155 67.1136V73H268.018V67.9091C268.018 67.5265 267.922 67.2273 267.729 67.0114C267.536 66.7917 267.276 66.6818 266.95 66.6818C266.628 66.6818 266.373 66.7917 266.183 67.0114C265.998 67.2273 265.905 67.5265 265.905 67.9091V73H262.905V67.9091C262.905 67.5265 262.808 67.2273 262.615 67.0114C262.422 66.7917 262.162 66.6818 261.837 66.6818C261.621 66.6818 261.435 66.7311 261.28 66.8295C261.125 66.928 261.003 67.0701 260.916 67.2557C260.833 67.4375 260.791 67.6553 260.791 67.9091V73H257.655ZM272.679 73V70.7273L277.02 67.1364C277.308 66.8977 277.554 66.6742 277.759 66.4659C277.967 66.2538 278.126 66.036 278.236 65.8125C278.349 65.589 278.406 65.3409 278.406 65.0682C278.406 64.7689 278.342 64.5133 278.213 64.3011C278.088 64.089 277.914 63.9261 277.69 63.8125C277.467 63.6951 277.209 63.6364 276.918 63.6364C276.626 63.6364 276.368 63.6951 276.145 63.8125C275.925 63.9299 275.755 64.1023 275.634 64.3295C275.512 64.5568 275.452 64.8333 275.452 65.1591H272.452C272.452 64.3409 272.635 63.6364 273.003 63.0455C273.37 62.4545 273.889 62 274.56 61.6818C275.23 61.3636 276.016 61.2045 276.918 61.2045C277.849 61.2045 278.656 61.3542 279.338 61.6534C280.024 61.9489 280.552 62.3655 280.923 62.9034C281.298 63.4413 281.486 64.072 281.486 64.7955C281.486 65.2424 281.393 65.6875 281.207 66.1307C281.022 66.5701 280.688 67.0568 280.207 67.5909C279.726 68.125 279.043 68.7614 278.156 69.5L277.065 70.4091V70.4773H281.611V73H272.679Z" fill="#181818" fill-opacity="0.75"/>
<g filter="url(#filter3_d_120_42)">
<rect x="366" y="20.0001" width="326" height="96" rx="8" fill="white" fill-opacity="0.75" shape-rendering="crispEdges"/>
</g>
<path d="M505.795 73.0001V64.2728H508.932V73.0001H505.795ZM507.364 63.3637C506.939 63.3637 506.576 63.2235 506.273 62.9432C505.97 62.6629 505.818 62.3258 505.818 61.9319C505.818 61.5379 505.97 61.2008 506.273 60.9205C506.576 60.6402 506.939 60.5001 507.364 60.5001C507.792 60.5001 508.155 60.6402 508.455 60.9205C508.758 61.2008 508.909 61.5379 508.909 61.9319C508.909 62.3258 508.758 62.6629 508.455 62.9432C508.155 63.2235 507.792 63.3637 507.364 63.3637ZM515.734 64.2728V66.5455H509.984V64.2728H515.734ZM511.098 62.1819H514.234V70.1932C514.234 70.3145 514.255 70.4167 514.297 70.5001C514.339 70.5796 514.403 70.6402 514.49 70.6819C514.577 70.7198 514.689 70.7387 514.825 70.7387C514.92 70.7387 515.03 70.7273 515.155 70.7046C515.284 70.6819 515.378 70.6629 515.439 70.6478L515.893 72.8523C515.753 72.894 515.553 72.9451 515.291 73.0057C515.034 73.0663 514.727 73.1061 514.371 73.1251C513.651 73.1629 513.047 73.0891 512.558 72.9035C512.07 72.7141 511.702 72.4167 511.456 72.0114C511.21 71.6061 511.09 71.0985 511.098 70.4887V62.1819ZM521.102 73.1592C520.17 73.1592 519.367 72.9811 518.693 72.6251C518.023 72.2652 517.506 71.7501 517.142 71.0796C516.782 70.4054 516.602 69.5985 516.602 68.6592C516.602 67.7576 516.784 66.9698 517.148 66.2955C517.511 65.6213 518.025 65.0967 518.688 64.7217C519.35 64.3467 520.133 64.1592 521.034 64.1592C521.693 64.1592 522.29 64.2614 522.824 64.466C523.358 64.6705 523.814 64.9679 524.193 65.358C524.572 65.7444 524.864 66.2141 525.068 66.7671C525.273 67.3201 525.375 67.9432 525.375 68.6364V69.3637H517.58V67.6364H522.489C522.485 67.3864 522.42 67.1667 522.295 66.9773C522.174 66.7842 522.009 66.6345 521.801 66.5285C521.597 66.4186 521.364 66.3637 521.102 66.3637C520.848 66.3637 520.616 66.4186 520.403 66.5285C520.191 66.6345 520.021 66.7823 519.892 66.9717C519.767 67.161 519.701 67.3826 519.693 67.6364V69.5001C519.693 69.7804 519.752 70.0304 519.869 70.2501C519.987 70.4698 520.155 70.6421 520.375 70.7671C520.595 70.8921 520.86 70.9546 521.17 70.9546C521.386 70.9546 521.583 70.9243 521.761 70.8637C521.943 70.8031 522.098 70.716 522.227 70.6023C522.356 70.4849 522.451 70.3448 522.511 70.1819H525.375C525.277 70.7879 525.044 71.3145 524.676 71.7614C524.309 72.2046 523.822 72.5493 523.216 72.7955C522.614 73.0379 521.909 73.1592 521.102 73.1592ZM526.655 73.0001V64.2728H529.632V65.9319H529.723C529.905 65.3864 530.215 64.9546 530.655 64.6364C531.094 64.3182 531.617 64.1592 532.223 64.1592C532.837 64.1592 533.365 64.322 533.808 64.6478C534.251 64.9698 534.518 65.3978 534.609 65.9319H534.7C534.848 65.3978 535.162 64.9698 535.643 64.6478C536.125 64.322 536.689 64.1592 537.337 64.1592C538.174 64.1592 538.852 64.4281 539.371 64.966C539.893 65.5038 540.155 66.2198 540.155 67.1137V73.0001H537.018V67.9092C537.018 67.5266 536.922 67.2273 536.729 67.0114C536.536 66.7917 536.276 66.6819 535.95 66.6819C535.628 66.6819 535.373 66.7917 535.183 67.0114C534.998 67.2273 534.905 67.5266 534.905 67.9092V73.0001H531.905V67.9092C531.905 67.5266 531.808 67.2273 531.615 67.0114C531.422 66.7917 531.162 66.6819 530.837 66.6819C530.621 66.6819 530.435 66.7311 530.28 66.8296C530.125 66.9281 530.003 67.0701 529.916 67.2557C529.833 67.4376 529.791 67.6554 529.791 67.9092V73.0001H526.655ZM546.224 73.1592C545.308 73.1592 544.493 73.002 543.781 72.6876C543.073 72.3694 542.516 71.9319 542.111 71.3751C541.705 70.8182 541.501 70.1781 541.497 69.4546H544.679C544.683 69.6781 544.751 69.8788 544.884 70.0569C545.02 70.2311 545.205 70.3675 545.44 70.466C545.675 70.5645 545.944 70.6137 546.247 70.6137C546.539 70.6137 546.796 70.5626 547.02 70.4603C547.243 70.3542 547.418 70.2084 547.543 70.0228C547.668 69.8372 547.728 69.6251 547.724 69.3864C547.728 69.1516 547.656 68.9432 547.509 68.7614C547.365 68.5796 547.162 68.4376 546.901 68.3353C546.639 68.233 546.338 68.1819 545.997 68.1819H544.815V66.0001H545.997C546.312 66.0001 546.588 65.9489 546.827 65.8467C547.069 65.7444 547.257 65.6023 547.389 65.4205C547.526 65.2387 547.592 65.0304 547.588 64.7955C547.592 64.5682 547.537 64.3675 547.423 64.1932C547.31 64.019 547.151 63.8826 546.946 63.7842C546.745 63.6857 546.512 63.6364 546.247 63.6364C545.959 63.6364 545.702 63.6876 545.474 63.7898C545.251 63.8921 545.075 64.0342 544.946 64.216C544.817 64.3978 544.751 64.6061 544.747 64.841H541.724C541.728 64.1288 541.923 63.5001 542.31 62.9546C542.7 62.4092 543.234 61.9811 543.912 61.6705C544.59 61.3599 545.368 61.2046 546.247 61.2046C547.107 61.2046 547.866 61.3504 548.526 61.6421C549.188 61.9338 549.705 62.3353 550.077 62.8467C550.452 63.3542 550.637 63.9357 550.634 64.591C550.641 65.2425 550.418 65.7766 549.963 66.1932C549.512 66.6099 548.94 66.8561 548.247 66.9319V67.0228C549.187 67.1251 549.893 67.4129 550.366 67.8864C550.84 68.3561 551.073 68.947 551.065 69.6592C551.069 70.341 550.865 70.9451 550.452 71.4717C550.043 71.9982 549.473 72.411 548.741 72.7103C548.014 73.0095 547.175 73.1592 546.224 73.1592Z" fill="#181818" fill-opacity="0.75"/>
<defs>
<filter id="filter0_d_120_42" x="0" y="0" width="716" height="144" filterUnits="userSpaceOnUse" color-interpolation-filters="sRGB">
<feFlood flood-opacity="0" result="BackgroundImageFix"/>
<feColorMatrix in="SourceAlpha" type="matrix" values="0 0 0 0 0 0 0 0 0 0 0 0 0 0 0 0 0 0 127 0" result="hardAlpha"/>
<feOffset dy="4"/>
<feGaussianBlur stdDeviation="4"/>
<feComposite in2="hardAlpha" operator="out"/>
<feColorMatrix type="matrix" values="0 0 0 0 0.129412 0 0 0 0 0.447059 0 0 0 0 1 0 0 0 0.25 0"/>
<feBlend mode="normal" in2="BackgroundImageFix" result="effect1_dropShadow_120_42"/>
<feBlend mode="normal" in="SourceGraphic" in2="effect1_dropShadow_120_42" result="shape"/>
</filter>
<filter id="filter1_d_120_42" x="16" y="16" width="144" height="112" filterUnits="userSpaceOnUse" color-interpolation-filters="sRGB">
<feFlood flood-opacity="0" result="BackgroundImageFix"/>
<feColorMatrix in="SourceAlpha" type="matrix" values="0 0 0 0 0 0 0 0 0 0 0 0 0 0 0 0 0 0 127 0" result="hardAlpha"/>
<feOffset dy="4"/>
<feGaussianBlur stdDeviation="4"/>
<feComposite in2="hardAlpha" operator="out"/>
<feColorMatrix type="matrix" values="0 0 0 0 1 0 0 0 0 1 0 0 0 0 1 0 0 0 0.25 0"/>
<feBlend mode="normal" in2="BackgroundImageFix" result="effect1_dropShadow_120_42"/>
<feBlend mode="normal" in="SourceGraphic" in2="effect1_dropShadow_120_42" result="shape"/>
</filter>
<filter id="filter2_d_120_42" x="160" y="16" width="198" height="112" filterUnits="userSpaceOnUse" color-interpolation-filters="sRGB">
<feFlood flood-opacity="0" result="BackgroundImageFix"/>
<feColorMatrix in="SourceAlpha" type="matrix" values="0 0 0 0 0 0 0 0 0 0 0 0 0 0 0 0 0 0 127 0" result="hardAlpha"/>
<feOffset dy="4"/>
<feGaussianBlur stdDeviation="4"/>
<feComposite in2="hardAlpha" operator="out"/>
<feColorMatrix type="matrix" values="0 0 0 0 1 0 0 0 0 1 0 0 0 0 1 0 0 0 0.25 0"/>
<feBlend mode="normal" in2="BackgroundImageFix" result="effect1_dropShadow_120_42"/>
<feBlend mode="normal" in="SourceGraphic" in2="effect1_dropShadow_120_42" result="shape"/>
</filter>
<filter id="filter3_d_120_42" x="358" y="16.0001" width="342" height="112" filterUnits="userSpaceOnUse" color-interpolation-filters="sRGB">
<feFlood flood-opacity="0" result="BackgroundImageFix"/>
<feColorMatrix in="SourceAlpha" type="matrix" values="0 0 0 0 0 0 0 0 0 0 0 0 0 0 0 0 0 0 127 0" result="hardAlpha"/>
<feOffset dy="4"/>
<feGaussianBlur stdDeviation="4"/>
<feComposite in2="hardAlpha" operator="out"/>
<feColorMatrix type="matrix" values="0 0 0 0 1 0 0 0 0 1 0 0 0 0 1 0 0 0 0.25 0"/>
<feBlend mode="normal" in2="BackgroundImageFix" result="effect1_dropShadow_120_42"/>
<feBlend mode="normal" in="SourceGraphic" in2="effect1_dropShadow_120_42" result="shape"/>
</filter>
</defs>
</svg>
