<svg width="203" height="592" viewBox="0 0 203 592" fill="none" xmlns="http://www.w3.org/2000/svg">
<g filter="url(#filter0_d_120_42)">
<rect x="8" y="580" width="576" height="187" rx="8" transform="rotate(-90 8 580)" fill="#2172FF" fill-opacity="0.8" shape-rendering="crispEdges"/>
</g>
<g filter="url(#filter1_d_120_42)">
<rect x="24" y="20" width="155" height="96" rx="8" fill="white" fill-opacity="0.75" shape-rendering="crispEdges"/>
</g>
<path d="M79.7955 73V64.2727H82.9318V73H79.7955ZM81.3636 63.3636C80.9394 63.3636 80.5758 63.2235 80.2727 62.9432C79.9697 62.6629 79.8182 62.3258 79.8182 61.9318C79.8182 61.5379 79.9697 61.2008 80.2727 60.9205C80.5758 60.6402 80.9394 60.5 81.3636 60.5C81.7917 60.5 82.1553 60.6402 82.4545 60.9205C82.7576 61.2008 82.9091 61.5379 82.9091 61.9318C82.9091 62.3258 82.7576 62.6629 82.4545 62.9432C82.1553 63.2235 81.7917 63.3636 81.3636 63.3636ZM89.7344 64.2727V66.5455H83.9844V64.2727H89.7344ZM85.098 62.1818H88.2344V70.1932C88.2344 70.3144 88.2552 70.4167 88.2969 70.5C88.3385 70.5795 88.4029 70.6402 88.4901 70.6818C88.5772 70.7197 88.6889 70.7386 88.8253 70.7386C88.92 70.7386 89.0298 70.7273 89.1548 70.7045C89.2836 70.6818 89.3783 70.6629 89.4389 70.6477L89.8935 72.8523C89.7533 72.8939 89.5526 72.9451 89.2912 73.0057C89.0336 73.0663 88.7268 73.1061 88.3707 73.125C87.651 73.1629 87.0469 73.089 86.5582 72.9034C86.0696 72.714 85.7022 72.4167 85.456 72.0114C85.2098 71.6061 85.0904 71.0985 85.098 70.4886V62.1818ZM95.1023 73.1591C94.1705 73.1591 93.3674 72.9811 92.6932 72.625C92.0227 72.2652 91.5057 71.75 91.142 71.0795C90.7822 70.4053 90.6023 69.5985 90.6023 68.6591C90.6023 67.7576 90.7841 66.9697 91.1477 66.2955C91.5114 65.6212 92.0246 65.0966 92.6875 64.7216C93.3504 64.3466 94.1326 64.1591 95.0341 64.1591C95.6932 64.1591 96.2898 64.2614 96.8239 64.4659C97.358 64.6705 97.8144 64.9678 98.1932 65.358C98.572 65.7443 98.8636 66.214 99.0682 66.767C99.2727 67.3201 99.375 67.9432 99.375 68.6364V69.3636H91.5795V67.6364H96.4886C96.4848 67.3864 96.4205 67.1667 96.2955 66.9773C96.1742 66.7841 96.0095 66.6345 95.8011 66.5284C95.5966 66.4186 95.3636 66.3636 95.1023 66.3636C94.8485 66.3636 94.6155 66.4186 94.4034 66.5284C94.1913 66.6345 94.0208 66.7822 93.892 66.9716C93.767 67.161 93.7008 67.3826 93.6932 67.6364V69.5C93.6932 69.7803 93.7519 70.0303 93.8693 70.25C93.9867 70.4697 94.1553 70.642 94.375 70.767C94.5947 70.892 94.8598 70.9545 95.1705 70.9545C95.3864 70.9545 95.5833 70.9242 95.7614 70.8636C95.9432 70.803 96.0985 70.7159 96.2273 70.6023C96.3561 70.4848 96.4508 70.3447 96.5114 70.1818H99.375C99.2765 70.7879 99.0436 71.3144 98.6761 71.7614C98.3087 72.2045 97.822 72.5492 97.2159 72.7955C96.6136 73.0379 95.9091 73.1591 95.1023 73.1591ZM100.655 73V64.2727H103.632V65.9318H103.723C103.905 65.3864 104.215 64.9545 104.655 64.6364C105.094 64.3182 105.617 64.1591 106.223 64.1591C106.837 64.1591 107.365 64.322 107.808 64.6477C108.251 64.9697 108.518 65.3977 108.609 65.9318H108.7C108.848 65.3977 109.162 64.9697 109.643 64.6477C110.125 64.322 110.689 64.1591 111.337 64.1591C112.174 64.1591 112.852 64.428 113.371 64.9659C113.893 65.5038 114.155 66.2197 114.155 67.1136V73H111.018V67.9091C111.018 67.5265 110.922 67.2273 110.729 67.0114C110.536 66.7917 110.276 66.6818 109.95 66.6818C109.628 66.6818 109.373 66.7917 109.183 67.0114C108.998 67.2273 108.905 67.5265 108.905 67.9091V73H105.905V67.9091C105.905 67.5265 105.808 67.2273 105.615 67.0114C105.422 66.7917 105.162 66.6818 104.837 66.6818C104.621 66.6818 104.435 66.7311 104.28 66.8295C104.125 66.928 104.003 67.0701 103.916 67.2557C103.833 67.4375 103.791 67.6553 103.791 67.9091V73H100.655ZM120.338 73.1591C119.444 73.1591 118.651 73.0019 117.957 72.6875C117.268 72.3693 116.724 71.9318 116.327 71.375C115.933 70.8182 115.732 70.178 115.724 69.4545H118.793C118.804 69.8561 118.959 70.1761 119.259 70.4148C119.562 70.6534 119.921 70.7727 120.338 70.7727C120.66 70.7727 120.944 70.7045 121.19 70.5682C121.437 70.428 121.63 70.2311 121.77 69.9773C121.91 69.7235 121.978 69.428 121.974 69.0909C121.978 68.75 121.91 68.4545 121.77 68.2045C121.63 67.9508 121.437 67.7557 121.19 67.6193C120.944 67.4792 120.66 67.4091 120.338 67.4091C120.005 67.4091 119.696 67.4905 119.412 67.6534C119.132 67.8125 118.925 68.0341 118.793 68.3182L116.02 67.7727L116.474 61.3636H124.293V63.8864H119.065L118.838 66.4545H118.906C119.088 66.1023 119.402 65.8106 119.849 65.5795C120.296 65.3447 120.815 65.2273 121.406 65.2273C122.099 65.2273 122.717 65.3883 123.259 65.7102C123.804 66.0322 124.234 66.4773 124.548 67.0455C124.866 67.6098 125.024 68.2614 125.02 69C125.024 69.8106 124.83 70.5303 124.44 71.1591C124.054 71.7841 123.51 72.2746 122.81 72.6307C122.109 72.983 121.285 73.1591 120.338 73.1591Z" fill="#181818" fill-opacity="0.75"/>
<g filter="url(#filter2_d_120_42)">
<rect x="24" y="132" width="155" height="96" rx="8" fill="white" fill-opacity="0.75" shape-rendering="crispEdges"/>
</g>
<path d="M79.7955 185V176.273H82.9318V185H79.7955ZM81.3636 175.364C80.9394 175.364 80.5758 175.223 80.2727 174.943C79.9697 174.663 79.8182 174.326 79.8182 173.932C79.8182 173.538 79.9697 173.201 80.2727 172.92C80.5758 172.64 80.9394 172.5 81.3636 172.5C81.7917 172.5 82.1553 172.64 82.4545 172.92C82.7576 173.201 82.9091 173.538 82.9091 173.932C82.9091 174.326 82.7576 174.663 82.4545 174.943C82.1553 175.223 81.7917 175.364 81.3636 175.364ZM89.7344 176.273V178.545H83.9844V176.273H89.7344ZM85.098 174.182H88.2344V182.193C88.2344 182.314 88.2552 182.417 88.2969 182.5C88.3385 182.58 88.4029 182.64 88.4901 182.682C88.5772 182.72 88.6889 182.739 88.8253 182.739C88.92 182.739 89.0298 182.727 89.1548 182.705C89.2836 182.682 89.3783 182.663 89.4389 182.648L89.8935 184.852C89.7533 184.894 89.5526 184.945 89.2912 185.006C89.0336 185.066 88.7268 185.106 88.3707 185.125C87.651 185.163 87.0469 185.089 86.5582 184.903C86.0696 184.714 85.7022 184.417 85.456 184.011C85.2098 183.606 85.0904 183.098 85.098 182.489V174.182ZM95.1023 185.159C94.1705 185.159 93.3674 184.981 92.6932 184.625C92.0227 184.265 91.5057 183.75 91.142 183.08C90.7822 182.405 90.6023 181.598 90.6023 180.659C90.6023 179.758 90.7841 178.97 91.1477 178.295C91.5114 177.621 92.0246 177.097 92.6875 176.722C93.3504 176.347 94.1326 176.159 95.0341 176.159C95.6932 176.159 96.2898 176.261 96.8239 176.466C97.358 176.67 97.8144 176.968 98.1932 177.358C98.572 177.744 98.8636 178.214 99.0682 178.767C99.2727 179.32 99.375 179.943 99.375 180.636V181.364H91.5795V179.636H96.4886C96.4848 179.386 96.4205 179.167 96.2955 178.977C96.1742 178.784 96.0095 178.634 95.8011 178.528C95.5966 178.419 95.3636 178.364 95.1023 178.364C94.8485 178.364 94.6155 178.419 94.4034 178.528C94.1913 178.634 94.0208 178.782 93.892 178.972C93.767 179.161 93.7008 179.383 93.6932 179.636V181.5C93.6932 181.78 93.7519 182.03 93.8693 182.25C93.9867 182.47 94.1553 182.642 94.375 182.767C94.5947 182.892 94.8598 182.955 95.1705 182.955C95.3864 182.955 95.5833 182.924 95.7614 182.864C95.9432 182.803 96.0985 182.716 96.2273 182.602C96.3561 182.485 96.4508 182.345 96.5114 182.182H99.375C99.2765 182.788 99.0436 183.314 98.6761 183.761C98.3087 184.205 97.822 184.549 97.2159 184.795C96.6136 185.038 95.9091 185.159 95.1023 185.159ZM100.655 185V176.273H103.632V177.932H103.723C103.905 177.386 104.215 176.955 104.655 176.636C105.094 176.318 105.617 176.159 106.223 176.159C106.837 176.159 107.365 176.322 107.808 176.648C108.251 176.97 108.518 177.398 108.609 177.932H108.7C108.848 177.398 109.162 176.97 109.643 176.648C110.125 176.322 110.689 176.159 111.337 176.159C112.174 176.159 112.852 176.428 113.371 176.966C113.893 177.504 114.155 178.22 114.155 179.114V185H111.018V179.909C111.018 179.527 110.922 179.227 110.729 179.011C110.536 178.792 110.276 178.682 109.95 178.682C109.628 178.682 109.373 178.792 109.183 179.011C108.998 179.227 108.905 179.527 108.905 179.909V185H105.905V179.909C105.905 179.527 105.808 179.227 105.615 179.011C105.422 178.792 105.162 178.682 104.837 178.682C104.621 178.682 104.435 178.731 104.28 178.83C104.125 178.928 104.003 179.07 103.916 179.256C103.833 179.437 103.791 179.655 103.791 179.909V185H100.655ZM115.565 183.182V180.727L120.247 173.364H122.474V176.636H121.202L118.679 180.636V180.727H125.588V183.182H115.565ZM121.224 185V182.432L121.293 181.364V173.364H124.247V185H121.224Z" fill="#181818" fill-opacity="0.75"/>
<g filter="url(#filter3_d_120_42)">
<rect x="24" y="244" width="155" height="96" rx="8" fill="white" fill-opacity="0.75" shape-rendering="crispEdges"/>
</g>
<path d="M78.7955 297V288.273H81.9318V297H78.7955ZM80.3636 287.364C79.9394 287.364 79.5758 287.223 79.2727 286.943C78.9697 286.663 78.8182 286.326 78.8182 285.932C78.8182 285.538 78.9697 285.201 79.2727 284.92C79.5758 284.64 79.9394 284.5 80.3636 284.5C80.7917 284.5 81.1553 284.64 81.4545 284.92C81.7576 285.201 81.9091 285.538 81.9091 285.932C81.9091 286.326 81.7576 286.663 81.4545 286.943C81.1553 287.223 80.7917 287.364 80.3636 287.364ZM88.7344 288.273V290.545H82.9844V288.273H88.7344ZM84.098 286.182H87.2344V294.193C87.2344 294.314 87.2552 294.417 87.2969 294.5C87.3385 294.58 87.4029 294.64 87.4901 294.682C87.5772 294.72 87.6889 294.739 87.8253 294.739C87.92 294.739 88.0298 294.727 88.1548 294.705C88.2836 294.682 88.3783 294.663 88.4389 294.648L88.8935 296.852C88.7533 296.894 88.5526 296.945 88.2912 297.006C88.0336 297.066 87.7268 297.106 87.3707 297.125C86.651 297.163 86.0469 297.089 85.5582 296.903C85.0696 296.714 84.7022 296.417 84.456 296.011C84.2098 295.606 84.0904 295.098 84.098 294.489V286.182ZM94.1023 297.159C93.1705 297.159 92.3674 296.981 91.6932 296.625C91.0227 296.265 90.5057 295.75 90.142 295.08C89.7822 294.405 89.6023 293.598 89.6023 292.659C89.6023 291.758 89.7841 290.97 90.1477 290.295C90.5114 289.621 91.0246 289.097 91.6875 288.722C92.3504 288.347 93.1326 288.159 94.0341 288.159C94.6932 288.159 95.2898 288.261 95.8239 288.466C96.358 288.67 96.8144 288.968 97.1932 289.358C97.572 289.744 97.8636 290.214 98.0682 290.767C98.2727 291.32 98.375 291.943 98.375 292.636V293.364H90.5795V291.636H95.4886C95.4848 291.386 95.4205 291.167 95.2955 290.977C95.1742 290.784 95.0095 290.634 94.8011 290.528C94.5966 290.419 94.3636 290.364 94.1023 290.364C93.8485 290.364 93.6155 290.419 93.4034 290.528C93.1913 290.634 93.0208 290.782 92.892 290.972C92.767 291.161 92.7008 291.383 92.6932 291.636V293.5C92.6932 293.78 92.7519 294.03 92.8693 294.25C92.9867 294.47 93.1553 294.642 93.375 294.767C93.5947 294.892 93.8598 294.955 94.1705 294.955C94.3864 294.955 94.5833 294.924 94.7614 294.864C94.9432 294.803 95.0985 294.716 95.2273 294.602C95.3561 294.485 95.4508 294.345 95.5114 294.182H98.375C98.2765 294.788 98.0436 295.314 97.6761 295.761C97.3087 296.205 96.822 296.549 96.2159 296.795C95.6136 297.038 94.9091 297.159 94.1023 297.159ZM99.6548 297V288.273H102.632V289.932H102.723C102.905 289.386 103.215 288.955 103.655 288.636C104.094 288.318 104.617 288.159 105.223 288.159C105.837 288.159 106.365 288.322 106.808 288.648C107.251 288.97 107.518 289.398 107.609 289.932H107.7C107.848 289.398 108.162 288.97 108.643 288.648C109.125 288.322 109.689 288.159 110.337 288.159C111.174 288.159 111.852 288.428 112.371 288.966C112.893 289.504 113.155 290.22 113.155 291.114V297H110.018V291.909C110.018 291.527 109.922 291.227 109.729 291.011C109.536 290.792 109.276 290.682 108.95 290.682C108.628 290.682 108.373 290.792 108.183 291.011C107.998 291.227 107.905 291.527 107.905 291.909V297H104.905V291.909C104.905 291.527 104.808 291.227 104.615 291.011C104.422 290.792 104.162 290.682 103.837 290.682C103.621 290.682 103.435 290.731 103.28 290.83C103.125 290.928 103.003 291.07 102.916 291.256C102.833 291.437 102.791 291.655 102.791 291.909V297H99.6548ZM119.224 297.159C118.308 297.159 117.493 297.002 116.781 296.688C116.073 296.369 115.516 295.932 115.111 295.375C114.705 294.818 114.501 294.178 114.497 293.455H117.679C117.683 293.678 117.751 293.879 117.884 294.057C118.02 294.231 118.205 294.367 118.44 294.466C118.675 294.564 118.944 294.614 119.247 294.614C119.539 294.614 119.796 294.562 120.02 294.46C120.243 294.354 120.418 294.208 120.543 294.023C120.668 293.837 120.728 293.625 120.724 293.386C120.728 293.152 120.656 292.943 120.509 292.761C120.365 292.58 120.162 292.437 119.901 292.335C119.639 292.233 119.338 292.182 118.997 292.182H117.815V290H118.997C119.312 290 119.588 289.949 119.827 289.847C120.069 289.744 120.257 289.602 120.389 289.42C120.526 289.239 120.592 289.03 120.588 288.795C120.592 288.568 120.537 288.367 120.423 288.193C120.31 288.019 120.151 287.883 119.946 287.784C119.745 287.686 119.512 287.636 119.247 287.636C118.959 287.636 118.702 287.687 118.474 287.79C118.251 287.892 118.075 288.034 117.946 288.216C117.817 288.398 117.751 288.606 117.747 288.841H114.724C114.728 288.129 114.923 287.5 115.31 286.955C115.7 286.409 116.234 285.981 116.912 285.67C117.59 285.36 118.368 285.205 119.247 285.205C120.107 285.205 120.866 285.35 121.526 285.642C122.188 285.934 122.705 286.335 123.077 286.847C123.452 287.354 123.637 287.936 123.634 288.591C123.641 289.242 123.418 289.777 122.963 290.193C122.512 290.61 121.94 290.856 121.247 290.932V291.023C122.187 291.125 122.893 291.413 123.366 291.886C123.84 292.356 124.073 292.947 124.065 293.659C124.069 294.341 123.865 294.945 123.452 295.472C123.043 295.998 122.473 296.411 121.741 296.71C121.014 297.009 120.175 297.159 119.224 297.159Z" fill="#181818" fill-opacity="0.75"/>
<g filter="url(#filter4_d_120_42)">
<rect x="24" y="356" width="155" height="96" rx="8" fill="white" fill-opacity="0.75" shape-rendering="crispEdges"/>
</g>
<path d="M78.7955 409V400.273H81.9318V409H78.7955ZM80.3636 399.364C79.9394 399.364 79.5758 399.223 79.2727 398.943C78.9697 398.663 78.8182 398.326 78.8182 397.932C78.8182 397.538 78.9697 397.201 79.2727 396.92C79.5758 396.64 79.9394 396.5 80.3636 396.5C80.7917 396.5 81.1553 396.64 81.4545 396.92C81.7576 397.201 81.9091 397.538 81.9091 397.932C81.9091 398.326 81.7576 398.663 81.4545 398.943C81.1553 399.223 80.7917 399.364 80.3636 399.364ZM88.7344 400.273V402.545H82.9844V400.273H88.7344ZM84.098 398.182H87.2344V406.193C87.2344 406.314 87.2552 406.417 87.2969 406.5C87.3385 406.58 87.4029 406.64 87.4901 406.682C87.5772 406.72 87.6889 406.739 87.8253 406.739C87.92 406.739 88.0298 406.727 88.1548 406.705C88.2836 406.682 88.3783 406.663 88.4389 406.648L88.8935 408.852C88.7533 408.894 88.5526 408.945 88.2912 409.006C88.0336 409.066 87.7268 409.106 87.3707 409.125C86.651 409.163 86.0469 409.089 85.5582 408.903C85.0696 408.714 84.7022 408.417 84.456 408.011C84.2098 407.606 84.0904 407.098 84.098 406.489V398.182ZM94.1023 409.159C93.1705 409.159 92.3674 408.981 91.6932 408.625C91.0227 408.265 90.5057 407.75 90.142 407.08C89.7822 406.405 89.6023 405.598 89.6023 404.659C89.6023 403.758 89.7841 402.97 90.1477 402.295C90.5114 401.621 91.0246 401.097 91.6875 400.722C92.3504 400.347 93.1326 400.159 94.0341 400.159C94.6932 400.159 95.2898 400.261 95.8239 400.466C96.358 400.67 96.8144 400.968 97.1932 401.358C97.572 401.744 97.8636 402.214 98.0682 402.767C98.2727 403.32 98.375 403.943 98.375 404.636V405.364H90.5795V403.636H95.4886C95.4848 403.386 95.4205 403.167 95.2955 402.977C95.1742 402.784 95.0095 402.634 94.8011 402.528C94.5966 402.419 94.3636 402.364 94.1023 402.364C93.8485 402.364 93.6155 402.419 93.4034 402.528C93.1913 402.634 93.0208 402.782 92.892 402.972C92.767 403.161 92.7008 403.383 92.6932 403.636V405.5C92.6932 405.78 92.7519 406.03 92.8693 406.25C92.9867 406.47 93.1553 406.642 93.375 406.767C93.5947 406.892 93.8598 406.955 94.1705 406.955C94.3864 406.955 94.5833 406.924 94.7614 406.864C94.9432 406.803 95.0985 406.716 95.2273 406.602C95.3561 406.485 95.4508 406.345 95.5114 406.182H98.375C98.2765 406.788 98.0436 407.314 97.6761 407.761C97.3087 408.205 96.822 408.549 96.2159 408.795C95.6136 409.038 94.9091 409.159 94.1023 409.159ZM99.6548 409V400.273H102.632V401.932H102.723C102.905 401.386 103.215 400.955 103.655 400.636C104.094 400.318 104.617 400.159 105.223 400.159C105.837 400.159 106.365 400.322 106.808 400.648C107.251 400.97 107.518 401.398 107.609 401.932H107.7C107.848 401.398 108.162 400.97 108.643 400.648C109.125 400.322 109.689 400.159 110.337 400.159C111.174 400.159 111.852 400.428 112.371 400.966C112.893 401.504 113.155 402.22 113.155 403.114V409H110.018V403.909C110.018 403.527 109.922 403.227 109.729 403.011C109.536 402.792 109.276 402.682 108.95 402.682C108.628 402.682 108.373 402.792 108.183 403.011C107.998 403.227 107.905 403.527 107.905 403.909V409H104.905V403.909C104.905 403.527 104.808 403.227 104.615 403.011C104.422 402.792 104.162 402.682 103.837 402.682C103.621 402.682 103.435 402.731 103.28 402.83C103.125 402.928 103.003 403.07 102.916 403.256C102.833 403.437 102.791 403.655 102.791 403.909V409H99.6548ZM114.679 409V406.727L119.02 403.136C119.308 402.898 119.554 402.674 119.759 402.466C119.967 402.254 120.126 402.036 120.236 401.812C120.349 401.589 120.406 401.341 120.406 401.068C120.406 400.769 120.342 400.513 120.213 400.301C120.088 400.089 119.914 399.926 119.69 399.812C119.467 399.695 119.209 399.636 118.918 399.636C118.626 399.636 118.368 399.695 118.145 399.812C117.925 399.93 117.755 400.102 117.634 400.33C117.512 400.557 117.452 400.833 117.452 401.159H114.452C114.452 400.341 114.635 399.636 115.003 399.045C115.37 398.455 115.889 398 116.56 397.682C117.23 397.364 118.016 397.205 118.918 397.205C119.849 397.205 120.656 397.354 121.338 397.653C122.024 397.949 122.552 398.366 122.923 398.903C123.298 399.441 123.486 400.072 123.486 400.795C123.486 401.242 123.393 401.687 123.207 402.131C123.022 402.57 122.688 403.057 122.207 403.591C121.726 404.125 121.043 404.761 120.156 405.5L119.065 406.409V406.477H123.611V409H114.679Z" fill="#181818" fill-opacity="0.75"/>
<g filter="url(#filter5_d_120_42)">
<rect x="24" y="468" width="155" height="96" rx="8" fill="white" fill-opacity="0.75" shape-rendering="crispEdges"/>
</g>
<path d="M78.7955 521V512.273H81.9318V521H78.7955ZM80.3636 511.364C79.9394 511.364 79.5758 511.223 79.2727 510.943C78.9697 510.663 78.8182 510.326 78.8182 509.932C78.8182 509.538 78.9697 509.201 79.2727 508.92C79.5758 508.64 79.9394 508.5 80.3636 508.5C80.7917 508.5 81.1553 508.64 81.4545 508.92C81.7576 509.201 81.9091 509.538 81.9091 509.932C81.9091 510.326 81.7576 510.663 81.4545 510.943C81.1553 511.223 80.7917 511.364 80.3636 511.364ZM88.7344 512.273V514.545H82.9844V512.273H88.7344ZM84.098 510.182H87.2344V518.193C87.2344 518.314 87.2552 518.417 87.2969 518.5C87.3385 518.58 87.4029 518.64 87.4901 518.682C87.5772 518.72 87.6889 518.739 87.8253 518.739C87.92 518.739 88.0298 518.727 88.1548 518.705C88.2836 518.682 88.3783 518.663 88.4389 518.648L88.8935 520.852C88.7533 520.894 88.5526 520.945 88.2912 521.006C88.0336 521.066 87.7268 521.106 87.3707 521.125C86.651 521.163 86.0469 521.089 85.5582 520.903C85.0696 520.714 84.7022 520.417 84.456 520.011C84.2098 519.606 84.0904 519.098 84.098 518.489V510.182ZM94.1023 521.159C93.1705 521.159 92.3674 520.981 91.6932 520.625C91.0227 520.265 90.5057 519.75 90.142 519.08C89.7822 518.405 89.6023 517.598 89.6023 516.659C89.6023 515.758 89.7841 514.97 90.1477 514.295C90.5114 513.621 91.0246 513.097 91.6875 512.722C92.3504 512.347 93.1326 512.159 94.0341 512.159C94.6932 512.159 95.2898 512.261 95.8239 512.466C96.358 512.67 96.8144 512.968 97.1932 513.358C97.572 513.744 97.8636 514.214 98.0682 514.767C98.2727 515.32 98.375 515.943 98.375 516.636V517.364H90.5795V515.636H95.4886C95.4848 515.386 95.4205 515.167 95.2955 514.977C95.1742 514.784 95.0095 514.634 94.8011 514.528C94.5966 514.419 94.3636 514.364 94.1023 514.364C93.8485 514.364 93.6155 514.419 93.4034 514.528C93.1913 514.634 93.0208 514.782 92.892 514.972C92.767 515.161 92.7008 515.383 92.6932 515.636V517.5C92.6932 517.78 92.7519 518.03 92.8693 518.25C92.9867 518.47 93.1553 518.642 93.375 518.767C93.5947 518.892 93.8598 518.955 94.1705 518.955C94.3864 518.955 94.5833 518.924 94.7614 518.864C94.9432 518.803 95.0985 518.716 95.2273 518.602C95.3561 518.485 95.4508 518.345 95.5114 518.182H98.375C98.2765 518.788 98.0436 519.314 97.6761 519.761C97.3087 520.205 96.822 520.549 96.2159 520.795C95.6136 521.038 94.9091 521.159 94.1023 521.159ZM99.6548 521V512.273H102.632V513.932H102.723C102.905 513.386 103.215 512.955 103.655 512.636C104.094 512.318 104.617 512.159 105.223 512.159C105.837 512.159 106.365 512.322 106.808 512.648C107.251 512.97 107.518 513.398 107.609 513.932H107.7C107.848 513.398 108.162 512.97 108.643 512.648C109.125 512.322 109.689 512.159 110.337 512.159C111.174 512.159 111.852 512.428 112.371 512.966C112.893 513.504 113.155 514.22 113.155 515.114V521H110.018V515.909C110.018 515.527 109.922 515.227 109.729 515.011C109.536 514.792 109.276 514.682 108.95 514.682C108.628 514.682 108.373 514.792 108.183 515.011C107.998 515.227 107.905 515.527 107.905 515.909V521H104.905V515.909C104.905 515.527 104.808 515.227 104.615 515.011C104.422 514.792 104.162 514.682 103.837 514.682C103.621 514.682 103.435 514.731 103.28 514.83C103.125 514.928 103.003 515.07 102.916 515.256C102.833 515.437 102.791 515.655 102.791 515.909V521H99.6548ZM119.743 509.364V521H116.584V512.273H116.516L113.97 513.795V511.114L116.834 509.364H119.743Z" fill="#181818" fill-opacity="0.75"/>
<defs>
<filter id="filter0_d_120_42" x="0" y="0" width="203" height="592" filterUnits="userSpaceOnUse" color-interpolation-filters="sRGB">
<feFlood flood-opacity="0" result="BackgroundImageFix"/>
<feColorMatrix in="SourceAlpha" type="matrix" values="0 0 0 0 0 0 0 0 0 0 0 0 0 0 0 0 0 0 127 0" result="hardAlpha"/>
<feOffset dy="4"/>
<feGaussianBlur stdDeviation="4"/>
<feComposite in2="hardAlpha" operator="out"/>
<feColorMatrix type="matrix" values="0 0 0 0 0.129412 0 0 0 0 0.447059 0 0 0 0 1 0 0 0 0.25 0"/>
<feBlend mode="normal" in2="BackgroundImageFix" result="effect1_dropShadow_120_42"/>
<feBlend mode="normal" in="SourceGraphic" in2="effect1_dropShadow_120_42" result="shape"/>
</filter>
<filter id="filter1_d_120_42" x="16" y="16" width="171" height="112" filterUnits="userSpaceOnUse" color-interpolation-filters="sRGB">
<feFlood flood-opacity="0" result="BackgroundImageFix"/>
<feColorMatrix in="SourceAlpha" type="matrix" values="0 0 0 0 0 0 0 0 0 0 0 0 0 0 0 0 0 0 127 0" result="hardAlpha"/>
<feOffset dy="4"/>
<feGaussianBlur stdDeviation="4"/>
<feComposite in2="hardAlpha" operator="out"/>
<feColorMatrix type="matrix" values="0 0 0 0 1 0 0 0 0 1 0 0 0 0 1 0 0 0 0.25 0"/>
<feBlend mode="normal" in2="BackgroundImageFix" result="effect1_dropShadow_120_42"/>
<feBlend mode="normal" in="SourceGraphic" in2="effect1_dropShadow_120_42" result="shape"/>
</filter>
<filter id="filter2_d_120_42" x="16" y="128" width="171" height="112" filterUnits="userSpaceOnUse" color-interpolation-filters="sRGB">
<feFlood flood-opacity="0" result="BackgroundImageFix"/>
<feColorMatrix in="SourceAlpha" type="matrix" values="0 0 0 0 0 0 0 0 0 0 0 0 0 0 0 0 0 0 127 0" result="hardAlpha"/>
<feOffset dy="4"/>
<feGaussianBlur stdDeviation="4"/>
<feComposite in2="hardAlpha" operator="out"/>
<feColorMatrix type="matrix" values="0 0 0 0 1 0 0 0 0 1 0 0 0 0 1 0 0 0 0.25 0"/>
<feBlend mode="normal" in2="BackgroundImageFix" result="effect1_dropShadow_120_42"/>
<feBlend mode="normal" in="SourceGraphic" in2="effect1_dropShadow_120_42" result="shape"/>
</filter>
<filter id="filter3_d_120_42" x="16" y="240" width="171" height="112" filterUnits="userSpaceOnUse" color-interpolation-filters="sRGB">
<feFlood flood-opacity="0" result="BackgroundImageFix"/>
<feColorMatrix in="SourceAlpha" type="matrix" values="0 0 0 0 0 0 0 0 0 0 0 0 0 0 0 0 0 0 127 0" result="hardAlpha"/>
<feOffset dy="4"/>
<feGaussianBlur stdDeviation="4"/>
<feComposite in2="hardAlpha" operator="out"/>
<feColorMatrix type="matrix" values="0 0 0 0 1 0 0 0 0 1 0 0 0 0 1 0 0 0 0.25 0"/>
<feBlend mode="normal" in2="BackgroundImageFix" result="effect1_dropShadow_120_42"/>
<feBlend mode="normal" in="SourceGraphic" in2="effect1_dropShadow_120_42" result="shape"/>
</filter>
<filter id="filter4_d_120_42" x="16" y="352" width="171" height="112" filterUnits="userSpaceOnUse" color-interpolation-filters="sRGB">
<feFlood flood-opacity="0" result="BackgroundImageFix"/>
<feColorMatrix in="SourceAlpha" type="matrix" values="0 0 0 0 0 0 0 0 0 0 0 0 0 0 0 0 0 0 127 0" result="hardAlpha"/>
<feOffset dy="4"/>
<feGaussianBlur stdDeviation="4"/>
<feComposite in2="hardAlpha" operator="out"/>
<feColorMatrix type="matrix" values="0 0 0 0 1 0 0 0 0 1 0 0 0 0 1 0 0 0 0.25 0"/>
<feBlend mode="normal" in2="BackgroundImageFix" result="effect1_dropShadow_120_42"/>
<feBlend mode="normal" in="SourceGraphic" in2="effect1_dropShadow_120_42" result="shape"/>
</filter>
<filter id="filter5_d_120_42" x="16" y="464" width="171" height="112" filterUnits="userSpaceOnUse" color-interpolation-filters="sRGB">
<feFlood flood-opacity="0" result="BackgroundImageFix"/>
<feColorMatrix in="SourceAlpha" type="matrix" values="0 0 0 0 0 0 0 0 0 0 0 0 0 0 0 0 0 0 127 0" result="hardAlpha"/>
<feOffset dy="4"/>
<feGaussianBlur stdDeviation="4"/>
<feComposite in2="hardAlpha" operator="out"/>
<feColorMatrix type="matrix" values="0 0 0 0 1 0 0 0 0 1 0 0 0 0 1 0 0 0 0.25 0"/>
<feBlend mode="normal" in2="BackgroundImageFix" result="effect1_dropShadow_120_42"/>
<feBlend mode="normal" in="SourceGraphic" in2="effect1_dropShadow_120_42" result="shape"/>
</filter>
</defs>
</svg>
