<svg width="716" height="256" viewBox="0 0 716 256" fill="none" xmlns="http://www.w3.org/2000/svg">
<g filter="url(#filter0_d_120_29)">
<rect x="8" y="4" width="700" height="240" rx="8" fill="#2172FF" fill-opacity="0.8" shape-rendering="crispEdges"/>
</g>
<g filter="url(#filter1_d_120_29)">
<rect x="24" y="20" width="155" height="96" rx="8" fill="white" fill-opacity="0.75" shape-rendering="crispEdges"/>
</g>
<path d="M79.7955 73V64.2727H82.9318V73H79.7955ZM81.3636 63.3636C80.9394 63.3636 80.5758 63.2235 80.2727 62.9432C79.9697 62.6629 79.8182 62.3258 79.8182 61.9318C79.8182 61.5379 79.9697 61.2008 80.2727 60.9205C80.5758 60.6402 80.9394 60.5 81.3636 60.5C81.7917 60.5 82.1553 60.6402 82.4545 60.9205C82.7576 61.2008 82.9091 61.5379 82.9091 61.9318C82.9091 62.3258 82.7576 62.6629 82.4545 62.9432C82.1553 63.2235 81.7917 63.3636 81.3636 63.3636ZM89.7344 64.2727V66.5455H83.9844V64.2727H89.7344ZM85.098 62.1818H88.2344V70.1932C88.2344 70.3144 88.2552 70.4167 88.2969 70.5C88.3385 70.5795 88.4029 70.6402 88.4901 70.6818C88.5772 70.7197 88.6889 70.7386 88.8253 70.7386C88.92 70.7386 89.0298 70.7273 89.1548 70.7045C89.2836 70.6818 89.3783 70.6629 89.4389 70.6477L89.8935 72.8523C89.7533 72.8939 89.5526 72.9451 89.2912 73.0057C89.0336 73.0663 88.7268 73.1061 88.3707 73.125C87.651 73.1629 87.0469 73.089 86.5582 72.9034C86.0696 72.714 85.7022 72.4167 85.456 72.0114C85.2098 71.6061 85.0904 71.0985 85.098 70.4886V62.1818ZM95.1023 73.1591C94.1705 73.1591 93.3674 72.9811 92.6932 72.625C92.0227 72.2652 91.5057 71.75 91.142 71.0795C90.7822 70.4053 90.6023 69.5985 90.6023 68.6591C90.6023 67.7576 90.7841 66.9697 91.1477 66.2955C91.5114 65.6212 92.0246 65.0966 92.6875 64.7216C93.3504 64.3466 94.1326 64.1591 95.0341 64.1591C95.6932 64.1591 96.2898 64.2614 96.8239 64.4659C97.358 64.6705 97.8144 64.9678 98.1932 65.358C98.572 65.7443 98.8636 66.214 99.0682 66.767C99.2727 67.3201 99.375 67.9432 99.375 68.6364V69.3636H91.5795V67.6364H96.4886C96.4848 67.3864 96.4205 67.1667 96.2955 66.9773C96.1742 66.7841 96.0095 66.6345 95.8011 66.5284C95.5966 66.4186 95.3636 66.3636 95.1023 66.3636C94.8485 66.3636 94.6155 66.4186 94.4034 66.5284C94.1913 66.6345 94.0208 66.7822 93.892 66.9716C93.767 67.161 93.7008 67.3826 93.6932 67.6364V69.5C93.6932 69.7803 93.7519 70.0303 93.8693 70.25C93.9867 70.4697 94.1553 70.642 94.375 70.767C94.5947 70.892 94.8598 70.9545 95.1705 70.9545C95.3864 70.9545 95.5833 70.9242 95.7614 70.8636C95.9432 70.803 96.0985 70.7159 96.2273 70.6023C96.3561 70.4848 96.4508 70.3447 96.5114 70.1818H99.375C99.2765 70.7879 99.0436 71.3144 98.6761 71.7614C98.3087 72.2045 97.822 72.5492 97.2159 72.7955C96.6136 73.0379 95.9091 73.1591 95.1023 73.1591ZM100.655 73V64.2727H103.632V65.9318H103.723C103.905 65.3864 104.215 64.9545 104.655 64.6364C105.094 64.3182 105.617 64.1591 106.223 64.1591C106.837 64.1591 107.365 64.322 107.808 64.6477C108.251 64.9697 108.518 65.3977 108.609 65.9318H108.7C108.848 65.3977 109.162 64.9697 109.643 64.6477C110.125 64.322 110.689 64.1591 111.337 64.1591C112.174 64.1591 112.852 64.428 113.371 64.9659C113.893 65.5038 114.155 66.2197 114.155 67.1136V73H111.018V67.9091C111.018 67.5265 110.922 67.2273 110.729 67.0114C110.536 66.7917 110.276 66.6818 109.95 66.6818C109.628 66.6818 109.373 66.7917 109.183 67.0114C108.998 67.2273 108.905 67.5265 108.905 67.9091V73H105.905V67.9091C105.905 67.5265 105.808 67.2273 105.615 67.0114C105.422 66.7917 105.162 66.6818 104.837 66.6818C104.621 66.6818 104.435 66.7311 104.28 66.8295C104.125 66.928 104.003 67.0701 103.916 67.2557C103.833 67.4375 103.791 67.6553 103.791 67.9091V73H100.655ZM120.743 61.3636V73H117.584V64.2727H117.516L114.97 65.7955V63.1136L117.834 61.3636H120.743Z" fill="#181818" fill-opacity="0.75"/>
<g filter="url(#filter2_d_120_29)">
<rect x="24" y="132" width="155" height="96" rx="8" fill="white" fill-opacity="0.75" shape-rendering="crispEdges"/>
</g>
<path d="M79.7955 185V176.273H82.9318V185H79.7955ZM81.3636 175.364C80.9394 175.364 80.5758 175.223 80.2727 174.943C79.9697 174.663 79.8182 174.326 79.8182 173.932C79.8182 173.538 79.9697 173.201 80.2727 172.92C80.5758 172.64 80.9394 172.5 81.3636 172.5C81.7917 172.5 82.1553 172.64 82.4545 172.92C82.7576 173.201 82.9091 173.538 82.9091 173.932C82.9091 174.326 82.7576 174.663 82.4545 174.943C82.1553 175.223 81.7917 175.364 81.3636 175.364ZM89.7344 176.273V178.545H83.9844V176.273H89.7344ZM85.098 174.182H88.2344V182.193C88.2344 182.314 88.2552 182.417 88.2969 182.5C88.3385 182.58 88.4029 182.64 88.4901 182.682C88.5772 182.72 88.6889 182.739 88.8253 182.739C88.92 182.739 89.0298 182.727 89.1548 182.705C89.2836 182.682 89.3783 182.663 89.4389 182.648L89.8935 184.852C89.7533 184.894 89.5526 184.945 89.2912 185.006C89.0336 185.066 88.7268 185.106 88.3707 185.125C87.651 185.163 87.0469 185.089 86.5582 184.903C86.0696 184.714 85.7022 184.417 85.456 184.011C85.2098 183.606 85.0904 183.098 85.098 182.489V174.182ZM95.1023 185.159C94.1705 185.159 93.3674 184.981 92.6932 184.625C92.0227 184.265 91.5057 183.75 91.142 183.08C90.7822 182.405 90.6023 181.598 90.6023 180.659C90.6023 179.758 90.7841 178.97 91.1477 178.295C91.5114 177.621 92.0246 177.097 92.6875 176.722C93.3504 176.347 94.1326 176.159 95.0341 176.159C95.6932 176.159 96.2898 176.261 96.8239 176.466C97.358 176.67 97.8144 176.968 98.1932 177.358C98.572 177.744 98.8636 178.214 99.0682 178.767C99.2727 179.32 99.375 179.943 99.375 180.636V181.364H91.5795V179.636H96.4886C96.4848 179.386 96.4205 179.167 96.2955 178.977C96.1742 178.784 96.0095 178.634 95.8011 178.528C95.5966 178.419 95.3636 178.364 95.1023 178.364C94.8485 178.364 94.6155 178.419 94.4034 178.528C94.1913 178.634 94.0208 178.782 93.892 178.972C93.767 179.161 93.7008 179.383 93.6932 179.636V181.5C93.6932 181.78 93.7519 182.03 93.8693 182.25C93.9867 182.47 94.1553 182.642 94.375 182.767C94.5947 182.892 94.8598 182.955 95.1705 182.955C95.3864 182.955 95.5833 182.924 95.7614 182.864C95.9432 182.803 96.0985 182.716 96.2273 182.602C96.3561 182.485 96.4508 182.345 96.5114 182.182H99.375C99.2765 182.788 99.0436 183.314 98.6761 183.761C98.3087 184.205 97.822 184.549 97.2159 184.795C96.6136 185.038 95.9091 185.159 95.1023 185.159ZM100.655 185V176.273H103.632V177.932H103.723C103.905 177.386 104.215 176.955 104.655 176.636C105.094 176.318 105.617 176.159 106.223 176.159C106.837 176.159 107.365 176.322 107.808 176.648C108.251 176.97 108.518 177.398 108.609 177.932H108.7C108.848 177.398 109.162 176.97 109.643 176.648C110.125 176.322 110.689 176.159 111.337 176.159C112.174 176.159 112.852 176.428 113.371 176.966C113.893 177.504 114.155 178.22 114.155 179.114V185H111.018V179.909C111.018 179.527 110.922 179.227 110.729 179.011C110.536 178.792 110.276 178.682 109.95 178.682C109.628 178.682 109.373 178.792 109.183 179.011C108.998 179.227 108.905 179.527 108.905 179.909V185H105.905V179.909C105.905 179.527 105.808 179.227 105.615 179.011C105.422 178.792 105.162 178.682 104.837 178.682C104.621 178.682 104.435 178.731 104.28 178.83C104.125 178.928 104.003 179.07 103.916 179.256C103.833 179.437 103.791 179.655 103.791 179.909V185H100.655ZM120.338 185.159C119.444 185.159 118.651 185.002 117.957 184.688C117.268 184.369 116.724 183.932 116.327 183.375C115.933 182.818 115.732 182.178 115.724 181.455H118.793C118.804 181.856 118.959 182.176 119.259 182.415C119.562 182.653 119.921 182.773 120.338 182.773C120.66 182.773 120.944 182.705 121.19 182.568C121.437 182.428 121.63 182.231 121.77 181.977C121.91 181.723 121.978 181.428 121.974 181.091C121.978 180.75 121.91 180.455 121.77 180.205C121.63 179.951 121.437 179.756 121.19 179.619C120.944 179.479 120.66 179.409 120.338 179.409C120.005 179.409 119.696 179.491 119.412 179.653C119.132 179.812 118.925 180.034 118.793 180.318L116.02 179.773L116.474 173.364H124.293V175.886H119.065L118.838 178.455H118.906C119.088 178.102 119.402 177.811 119.849 177.58C120.296 177.345 120.815 177.227 121.406 177.227C122.099 177.227 122.717 177.388 123.259 177.71C123.804 178.032 124.234 178.477 124.548 179.045C124.866 179.61 125.024 180.261 125.02 181C125.024 181.811 124.83 182.53 124.44 183.159C124.054 183.784 123.51 184.275 122.81 184.631C122.109 184.983 121.285 185.159 120.338 185.159Z" fill="#181818" fill-opacity="0.75"/>
<g filter="url(#filter3_d_120_29)">
<rect x="195" y="20" width="155" height="96" rx="8" fill="white" fill-opacity="0.75" shape-rendering="crispEdges"/>
</g>
<path d="M250.795 73V64.2727H253.932V73H250.795ZM252.364 63.3636C251.939 63.3636 251.576 63.2235 251.273 62.9432C250.97 62.6629 250.818 62.3258 250.818 61.9318C250.818 61.5379 250.97 61.2008 251.273 60.9205C251.576 60.6402 251.939 60.5 252.364 60.5C252.792 60.5 253.155 60.6402 253.455 60.9205C253.758 61.2008 253.909 61.5379 253.909 61.9318C253.909 62.3258 253.758 62.6629 253.455 62.9432C253.155 63.2235 252.792 63.3636 252.364 63.3636ZM260.734 64.2727V66.5455H254.984V64.2727H260.734ZM256.098 62.1818H259.234V70.1932C259.234 70.3144 259.255 70.4167 259.297 70.5C259.339 70.5795 259.403 70.6402 259.49 70.6818C259.577 70.7197 259.689 70.7386 259.825 70.7386C259.92 70.7386 260.03 70.7273 260.155 70.7045C260.284 70.6818 260.378 70.6629 260.439 70.6477L260.893 72.8523C260.753 72.8939 260.553 72.9451 260.291 73.0057C260.034 73.0663 259.727 73.1061 259.371 73.125C258.651 73.1629 258.047 73.089 257.558 72.9034C257.07 72.714 256.702 72.4167 256.456 72.0114C256.21 71.6061 256.09 71.0985 256.098 70.4886V62.1818ZM266.102 73.1591C265.17 73.1591 264.367 72.9811 263.693 72.625C263.023 72.2652 262.506 71.75 262.142 71.0795C261.782 70.4053 261.602 69.5985 261.602 68.6591C261.602 67.7576 261.784 66.9697 262.148 66.2955C262.511 65.6212 263.025 65.0966 263.688 64.7216C264.35 64.3466 265.133 64.1591 266.034 64.1591C266.693 64.1591 267.29 64.2614 267.824 64.4659C268.358 64.6705 268.814 64.9678 269.193 65.358C269.572 65.7443 269.864 66.214 270.068 66.767C270.273 67.3201 270.375 67.9432 270.375 68.6364V69.3636H262.58V67.6364H267.489C267.485 67.3864 267.42 67.1667 267.295 66.9773C267.174 66.7841 267.009 66.6345 266.801 66.5284C266.597 66.4186 266.364 66.3636 266.102 66.3636C265.848 66.3636 265.616 66.4186 265.403 66.5284C265.191 66.6345 265.021 66.7822 264.892 66.9716C264.767 67.161 264.701 67.3826 264.693 67.6364V69.5C264.693 69.7803 264.752 70.0303 264.869 70.25C264.987 70.4697 265.155 70.642 265.375 70.767C265.595 70.892 265.86 70.9545 266.17 70.9545C266.386 70.9545 266.583 70.9242 266.761 70.8636C266.943 70.803 267.098 70.7159 267.227 70.6023C267.356 70.4848 267.451 70.3447 267.511 70.1818H270.375C270.277 70.7879 270.044 71.3144 269.676 71.7614C269.309 72.2045 268.822 72.5492 268.216 72.7955C267.614 73.0379 266.909 73.1591 266.102 73.1591ZM271.655 73V64.2727H274.632V65.9318H274.723C274.905 65.3864 275.215 64.9545 275.655 64.6364C276.094 64.3182 276.617 64.1591 277.223 64.1591C277.837 64.1591 278.365 64.322 278.808 64.6477C279.251 64.9697 279.518 65.3977 279.609 65.9318H279.7C279.848 65.3977 280.162 64.9697 280.643 64.6477C281.125 64.322 281.689 64.1591 282.337 64.1591C283.174 64.1591 283.852 64.428 284.371 64.9659C284.893 65.5038 285.155 66.2197 285.155 67.1136V73H282.018V67.9091C282.018 67.5265 281.922 67.2273 281.729 67.0114C281.536 66.7917 281.276 66.6818 280.95 66.6818C280.628 66.6818 280.373 66.7917 280.183 67.0114C279.998 67.2273 279.905 67.5265 279.905 67.9091V73H276.905V67.9091C276.905 67.5265 276.808 67.2273 276.615 67.0114C276.422 66.7917 276.162 66.6818 275.837 66.6818C275.621 66.6818 275.435 66.7311 275.28 66.8295C275.125 66.928 275.003 67.0701 274.916 67.2557C274.833 67.4375 274.791 67.6553 274.791 67.9091V73H271.655ZM286.679 73V70.7273L291.02 67.1364C291.308 66.8977 291.554 66.6742 291.759 66.4659C291.967 66.2538 292.126 66.036 292.236 65.8125C292.349 65.589 292.406 65.3409 292.406 65.0682C292.406 64.7689 292.342 64.5133 292.213 64.3011C292.088 64.089 291.914 63.9261 291.69 63.8125C291.467 63.6951 291.209 63.6364 290.918 63.6364C290.626 63.6364 290.368 63.6951 290.145 63.8125C289.925 63.9299 289.755 64.1023 289.634 64.3295C289.512 64.5568 289.452 64.8333 289.452 65.1591H286.452C286.452 64.3409 286.635 63.6364 287.003 63.0455C287.37 62.4545 287.889 62 288.56 61.6818C289.23 61.3636 290.016 61.2045 290.918 61.2045C291.849 61.2045 292.656 61.3542 293.338 61.6534C294.024 61.9489 294.552 62.3655 294.923 62.9034C295.298 63.4413 295.486 64.072 295.486 64.7955C295.486 65.2424 295.393 65.6875 295.207 66.1307C295.022 66.5701 294.688 67.0568 294.207 67.5909C293.726 68.125 293.043 68.7614 292.156 69.5L291.065 70.4091V70.4773H295.611V73H286.679Z" fill="#181818" fill-opacity="0.75"/>
<g filter="url(#filter4_d_120_29)">
<rect x="195" y="132" width="155" height="96" rx="8" fill="white" fill-opacity="0.75" shape-rendering="crispEdges"/>
</g>
<path d="M250.795 185V176.273H253.932V185H250.795ZM252.364 175.364C251.939 175.364 251.576 175.223 251.273 174.943C250.97 174.663 250.818 174.326 250.818 173.932C250.818 173.538 250.97 173.201 251.273 172.92C251.576 172.64 251.939 172.5 252.364 172.5C252.792 172.5 253.155 172.64 253.455 172.92C253.758 173.201 253.909 173.538 253.909 173.932C253.909 174.326 253.758 174.663 253.455 174.943C253.155 175.223 252.792 175.364 252.364 175.364ZM260.734 176.273V178.545H254.984V176.273H260.734ZM256.098 174.182H259.234V182.193C259.234 182.314 259.255 182.417 259.297 182.5C259.339 182.58 259.403 182.64 259.49 182.682C259.577 182.72 259.689 182.739 259.825 182.739C259.92 182.739 260.03 182.727 260.155 182.705C260.284 182.682 260.378 182.663 260.439 182.648L260.893 184.852C260.753 184.894 260.553 184.945 260.291 185.006C260.034 185.066 259.727 185.106 259.371 185.125C258.651 185.163 258.047 185.089 257.558 184.903C257.07 184.714 256.702 184.417 256.456 184.011C256.21 183.606 256.09 183.098 256.098 182.489V174.182ZM266.102 185.159C265.17 185.159 264.367 184.981 263.693 184.625C263.023 184.265 262.506 183.75 262.142 183.08C261.782 182.405 261.602 181.598 261.602 180.659C261.602 179.758 261.784 178.97 262.148 178.295C262.511 177.621 263.025 177.097 263.688 176.722C264.35 176.347 265.133 176.159 266.034 176.159C266.693 176.159 267.29 176.261 267.824 176.466C268.358 176.67 268.814 176.968 269.193 177.358C269.572 177.744 269.864 178.214 270.068 178.767C270.273 179.32 270.375 179.943 270.375 180.636V181.364H262.58V179.636H267.489C267.485 179.386 267.42 179.167 267.295 178.977C267.174 178.784 267.009 178.634 266.801 178.528C266.597 178.419 266.364 178.364 266.102 178.364C265.848 178.364 265.616 178.419 265.403 178.528C265.191 178.634 265.021 178.782 264.892 178.972C264.767 179.161 264.701 179.383 264.693 179.636V181.5C264.693 181.78 264.752 182.03 264.869 182.25C264.987 182.47 265.155 182.642 265.375 182.767C265.595 182.892 265.86 182.955 266.17 182.955C266.386 182.955 266.583 182.924 266.761 182.864C266.943 182.803 267.098 182.716 267.227 182.602C267.356 182.485 267.451 182.345 267.511 182.182H270.375C270.277 182.788 270.044 183.314 269.676 183.761C269.309 184.205 268.822 184.549 268.216 184.795C267.614 185.038 266.909 185.159 266.102 185.159ZM271.655 185V176.273H274.632V177.932H274.723C274.905 177.386 275.215 176.955 275.655 176.636C276.094 176.318 276.617 176.159 277.223 176.159C277.837 176.159 278.365 176.322 278.808 176.648C279.251 176.97 279.518 177.398 279.609 177.932H279.7C279.848 177.398 280.162 176.97 280.643 176.648C281.125 176.322 281.689 176.159 282.337 176.159C283.174 176.159 283.852 176.428 284.371 176.966C284.893 177.504 285.155 178.22 285.155 179.114V185H282.018V179.909C282.018 179.527 281.922 179.227 281.729 179.011C281.536 178.792 281.276 178.682 280.95 178.682C280.628 178.682 280.373 178.792 280.183 179.011C279.998 179.227 279.905 179.527 279.905 179.909V185H276.905V179.909C276.905 179.527 276.808 179.227 276.615 179.011C276.422 178.792 276.162 178.682 275.837 178.682C275.621 178.682 275.435 178.731 275.28 178.83C275.125 178.928 275.003 179.07 274.916 179.256C274.833 179.437 274.791 179.655 274.791 179.909V185H271.655ZM291.543 185.159C290.865 185.159 290.221 185.053 289.611 184.841C289.005 184.625 288.467 184.286 287.997 183.824C287.527 183.362 287.158 182.759 286.889 182.017C286.624 181.275 286.493 180.375 286.497 179.318C286.501 178.375 286.622 177.527 286.861 176.773C287.103 176.019 287.446 175.377 287.889 174.847C288.336 174.316 288.87 173.911 289.491 173.631C290.113 173.347 290.804 173.205 291.565 173.205C292.421 173.205 293.175 173.369 293.827 173.699C294.478 174.028 294.997 174.47 295.384 175.023C295.774 175.572 296.001 176.178 296.065 176.841H292.952C292.88 176.511 292.713 176.271 292.452 176.119C292.194 175.964 291.899 175.886 291.565 175.886C290.902 175.886 290.416 176.174 290.105 176.75C289.798 177.326 289.641 178.083 289.634 179.023H289.702C289.849 178.667 290.073 178.362 290.372 178.108C290.671 177.854 291.02 177.659 291.418 177.523C291.815 177.386 292.236 177.318 292.679 177.318C293.384 177.318 293.999 177.477 294.526 177.795C295.056 178.114 295.469 178.549 295.764 179.102C296.06 179.655 296.205 180.288 296.202 181C296.205 181.833 296.009 182.562 295.611 183.188C295.217 183.812 294.67 184.297 293.969 184.642C293.268 184.987 292.459 185.159 291.543 185.159ZM291.52 182.773C291.834 182.773 292.113 182.701 292.355 182.557C292.601 182.413 292.793 182.216 292.929 181.966C293.069 181.716 293.137 181.432 293.134 181.114C293.137 180.792 293.069 180.508 292.929 180.261C292.793 180.011 292.601 179.814 292.355 179.67C292.113 179.527 291.834 179.455 291.52 179.455C291.289 179.455 291.075 179.496 290.878 179.58C290.685 179.659 290.516 179.775 290.372 179.926C290.228 180.074 290.115 180.25 290.031 180.455C289.952 180.655 289.91 180.875 289.906 181.114C289.91 181.432 289.982 181.716 290.122 181.966C290.262 182.216 290.454 182.413 290.696 182.557C290.938 182.701 291.213 182.773 291.52 182.773Z" fill="#181818" fill-opacity="0.75"/>
<g filter="url(#filter5_d_120_29)">
<rect x="366" y="20" width="155" height="96" rx="8" fill="white" fill-opacity="0.75" shape-rendering="crispEdges"/>
</g>
<path d="M420.795 73V64.2727H423.932V73H420.795ZM422.364 63.3636C421.939 63.3636 421.576 63.2235 421.273 62.9432C420.97 62.6629 420.818 62.3258 420.818 61.9318C420.818 61.5379 420.97 61.2008 421.273 60.9205C421.576 60.6402 421.939 60.5 422.364 60.5C422.792 60.5 423.155 60.6402 423.455 60.9205C423.758 61.2008 423.909 61.5379 423.909 61.9318C423.909 62.3258 423.758 62.6629 423.455 62.9432C423.155 63.2235 422.792 63.3636 422.364 63.3636ZM430.734 64.2727V66.5455H424.984V64.2727H430.734ZM426.098 62.1818H429.234V70.1932C429.234 70.3144 429.255 70.4167 429.297 70.5C429.339 70.5795 429.403 70.6402 429.49 70.6818C429.577 70.7197 429.689 70.7386 429.825 70.7386C429.92 70.7386 430.03 70.7273 430.155 70.7045C430.284 70.6818 430.378 70.6629 430.439 70.6477L430.893 72.8523C430.753 72.8939 430.553 72.9451 430.291 73.0057C430.034 73.0663 429.727 73.1061 429.371 73.125C428.651 73.1629 428.047 73.089 427.558 72.9034C427.07 72.714 426.702 72.4167 426.456 72.0114C426.21 71.6061 426.09 71.0985 426.098 70.4886V62.1818ZM436.102 73.1591C435.17 73.1591 434.367 72.9811 433.693 72.625C433.023 72.2652 432.506 71.75 432.142 71.0795C431.782 70.4053 431.602 69.5985 431.602 68.6591C431.602 67.7576 431.784 66.9697 432.148 66.2955C432.511 65.6212 433.025 65.0966 433.688 64.7216C434.35 64.3466 435.133 64.1591 436.034 64.1591C436.693 64.1591 437.29 64.2614 437.824 64.4659C438.358 64.6705 438.814 64.9678 439.193 65.358C439.572 65.7443 439.864 66.214 440.068 66.767C440.273 67.3201 440.375 67.9432 440.375 68.6364V69.3636H432.58V67.6364H437.489C437.485 67.3864 437.42 67.1667 437.295 66.9773C437.174 66.7841 437.009 66.6345 436.801 66.5284C436.597 66.4186 436.364 66.3636 436.102 66.3636C435.848 66.3636 435.616 66.4186 435.403 66.5284C435.191 66.6345 435.021 66.7822 434.892 66.9716C434.767 67.161 434.701 67.3826 434.693 67.6364V69.5C434.693 69.7803 434.752 70.0303 434.869 70.25C434.987 70.4697 435.155 70.642 435.375 70.767C435.595 70.892 435.86 70.9545 436.17 70.9545C436.386 70.9545 436.583 70.9242 436.761 70.8636C436.943 70.803 437.098 70.7159 437.227 70.6023C437.356 70.4848 437.451 70.3447 437.511 70.1818H440.375C440.277 70.7879 440.044 71.3144 439.676 71.7614C439.309 72.2045 438.822 72.5492 438.216 72.7955C437.614 73.0379 436.909 73.1591 436.102 73.1591ZM441.655 73V64.2727H444.632V65.9318H444.723C444.905 65.3864 445.215 64.9545 445.655 64.6364C446.094 64.3182 446.617 64.1591 447.223 64.1591C447.837 64.1591 448.365 64.322 448.808 64.6477C449.251 64.9697 449.518 65.3977 449.609 65.9318H449.7C449.848 65.3977 450.162 64.9697 450.643 64.6477C451.125 64.322 451.689 64.1591 452.337 64.1591C453.174 64.1591 453.852 64.428 454.371 64.9659C454.893 65.5038 455.155 66.2197 455.155 67.1136V73H452.018V67.9091C452.018 67.5265 451.922 67.2273 451.729 67.0114C451.536 66.7917 451.276 66.6818 450.95 66.6818C450.628 66.6818 450.373 66.7917 450.183 67.0114C449.998 67.2273 449.905 67.5265 449.905 67.9091V73H446.905V67.9091C446.905 67.5265 446.808 67.2273 446.615 67.0114C446.422 66.7917 446.162 66.6818 445.837 66.6818C445.621 66.6818 445.435 66.7311 445.28 66.8295C445.125 66.928 445.003 67.0701 444.916 67.2557C444.833 67.4375 444.791 67.6553 444.791 67.9091V73H441.655ZM461.224 73.1591C460.308 73.1591 459.493 73.0019 458.781 72.6875C458.073 72.3693 457.516 71.9318 457.111 71.375C456.705 70.8182 456.501 70.178 456.497 69.4545H459.679C459.683 69.678 459.751 69.8788 459.884 70.0568C460.02 70.2311 460.205 70.3674 460.44 70.4659C460.675 70.5644 460.944 70.6136 461.247 70.6136C461.539 70.6136 461.796 70.5625 462.02 70.4602C462.243 70.3542 462.418 70.2083 462.543 70.0227C462.668 69.8371 462.728 69.625 462.724 69.3864C462.728 69.1515 462.656 68.9432 462.509 68.7614C462.365 68.5795 462.162 68.4375 461.901 68.3352C461.639 68.233 461.338 68.1818 460.997 68.1818H459.815V66H460.997C461.312 66 461.588 65.9489 461.827 65.8466C462.069 65.7443 462.257 65.6023 462.389 65.4205C462.526 65.2386 462.592 65.0303 462.588 64.7955C462.592 64.5682 462.537 64.3674 462.423 64.1932C462.31 64.0189 462.151 63.8826 461.946 63.7841C461.745 63.6856 461.512 63.6364 461.247 63.6364C460.959 63.6364 460.702 63.6875 460.474 63.7898C460.251 63.892 460.075 64.0341 459.946 64.2159C459.817 64.3977 459.751 64.6061 459.747 64.8409H456.724C456.728 64.1288 456.923 63.5 457.31 62.9545C457.7 62.4091 458.234 61.9811 458.912 61.6705C459.59 61.3598 460.368 61.2045 461.247 61.2045C462.107 61.2045 462.866 61.3504 463.526 61.642C464.188 61.9337 464.705 62.3352 465.077 62.8466C465.452 63.3542 465.637 63.9356 465.634 64.5909C465.641 65.2424 465.418 65.7765 464.963 66.1932C464.512 66.6098 463.94 66.8561 463.247 66.9318V67.0227C464.187 67.125 464.893 67.4129 465.366 67.8864C465.84 68.3561 466.073 68.947 466.065 69.6591C466.069 70.3409 465.865 70.9451 465.452 71.4716C465.043 71.9981 464.473 72.411 463.741 72.7102C463.014 73.0095 462.175 73.1591 461.224 73.1591Z" fill="#181818" fill-opacity="0.75"/>
<g filter="url(#filter6_d_120_29)">
<rect x="366" y="132" width="155" height="96" rx="8" fill="white" fill-opacity="0.75" shape-rendering="crispEdges"/>
</g>
<path d="M420.795 185V176.273H423.932V185H420.795ZM422.364 175.364C421.939 175.364 421.576 175.223 421.273 174.943C420.97 174.663 420.818 174.326 420.818 173.932C420.818 173.538 420.97 173.201 421.273 172.92C421.576 172.64 421.939 172.5 422.364 172.5C422.792 172.5 423.155 172.64 423.455 172.92C423.758 173.201 423.909 173.538 423.909 173.932C423.909 174.326 423.758 174.663 423.455 174.943C423.155 175.223 422.792 175.364 422.364 175.364ZM430.734 176.273V178.545H424.984V176.273H430.734ZM426.098 174.182H429.234V182.193C429.234 182.314 429.255 182.417 429.297 182.5C429.339 182.58 429.403 182.64 429.49 182.682C429.577 182.72 429.689 182.739 429.825 182.739C429.92 182.739 430.03 182.727 430.155 182.705C430.284 182.682 430.378 182.663 430.439 182.648L430.893 184.852C430.753 184.894 430.553 184.945 430.291 185.006C430.034 185.066 429.727 185.106 429.371 185.125C428.651 185.163 428.047 185.089 427.558 184.903C427.07 184.714 426.702 184.417 426.456 184.011C426.21 183.606 426.09 183.098 426.098 182.489V174.182ZM436.102 185.159C435.17 185.159 434.367 184.981 433.693 184.625C433.023 184.265 432.506 183.75 432.142 183.08C431.782 182.405 431.602 181.598 431.602 180.659C431.602 179.758 431.784 178.97 432.148 178.295C432.511 177.621 433.025 177.097 433.688 176.722C434.35 176.347 435.133 176.159 436.034 176.159C436.693 176.159 437.29 176.261 437.824 176.466C438.358 176.67 438.814 176.968 439.193 177.358C439.572 177.744 439.864 178.214 440.068 178.767C440.273 179.32 440.375 179.943 440.375 180.636V181.364H432.58V179.636H437.489C437.485 179.386 437.42 179.167 437.295 178.977C437.174 178.784 437.009 178.634 436.801 178.528C436.597 178.419 436.364 178.364 436.102 178.364C435.848 178.364 435.616 178.419 435.403 178.528C435.191 178.634 435.021 178.782 434.892 178.972C434.767 179.161 434.701 179.383 434.693 179.636V181.5C434.693 181.78 434.752 182.03 434.869 182.25C434.987 182.47 435.155 182.642 435.375 182.767C435.595 182.892 435.86 182.955 436.17 182.955C436.386 182.955 436.583 182.924 436.761 182.864C436.943 182.803 437.098 182.716 437.227 182.602C437.356 182.485 437.451 182.345 437.511 182.182H440.375C440.277 182.788 440.044 183.314 439.676 183.761C439.309 184.205 438.822 184.549 438.216 184.795C437.614 185.038 436.909 185.159 436.102 185.159ZM441.655 185V176.273H444.632V177.932H444.723C444.905 177.386 445.215 176.955 445.655 176.636C446.094 176.318 446.617 176.159 447.223 176.159C447.837 176.159 448.365 176.322 448.808 176.648C449.251 176.97 449.518 177.398 449.609 177.932H449.7C449.848 177.398 450.162 176.97 450.643 176.648C451.125 176.322 451.689 176.159 452.337 176.159C453.174 176.159 453.852 176.428 454.371 176.966C454.893 177.504 455.155 178.22 455.155 179.114V185H452.018V179.909C452.018 179.527 451.922 179.227 451.729 179.011C451.536 178.792 451.276 178.682 450.95 178.682C450.628 178.682 450.373 178.792 450.183 179.011C449.998 179.227 449.905 179.527 449.905 179.909V185H446.905V179.909C446.905 179.527 446.808 179.227 446.615 179.011C446.422 178.792 446.162 178.682 445.837 178.682C445.621 178.682 445.435 178.731 445.28 178.83C445.125 178.928 445.003 179.07 444.916 179.256C444.833 179.437 444.791 179.655 444.791 179.909V185H441.655ZM457.202 185L461.77 175.955V175.886H456.406V173.364H465.043V175.886L460.452 185H457.202Z" fill="#181818" fill-opacity="0.75"/>
<g filter="url(#filter7_d_120_29)">
<rect x="537" y="20" width="155" height="96" rx="8" fill="white" fill-opacity="0.75" shape-rendering="crispEdges"/>
</g>
<path d="M591.795 73V64.2727H594.932V73H591.795ZM593.364 63.3636C592.939 63.3636 592.576 63.2235 592.273 62.9432C591.97 62.6629 591.818 62.3258 591.818 61.9318C591.818 61.5379 591.97 61.2008 592.273 60.9205C592.576 60.6402 592.939 60.5 593.364 60.5C593.792 60.5 594.155 60.6402 594.455 60.9205C594.758 61.2008 594.909 61.5379 594.909 61.9318C594.909 62.3258 594.758 62.6629 594.455 62.9432C594.155 63.2235 593.792 63.3636 593.364 63.3636ZM601.734 64.2727V66.5455H595.984V64.2727H601.734ZM597.098 62.1818H600.234V70.1932C600.234 70.3144 600.255 70.4167 600.297 70.5C600.339 70.5795 600.403 70.6402 600.49 70.6818C600.577 70.7197 600.689 70.7386 600.825 70.7386C600.92 70.7386 601.03 70.7273 601.155 70.7045C601.284 70.6818 601.378 70.6629 601.439 70.6477L601.893 72.8523C601.753 72.8939 601.553 72.9451 601.291 73.0057C601.034 73.0663 600.727 73.1061 600.371 73.125C599.651 73.1629 599.047 73.089 598.558 72.9034C598.07 72.714 597.702 72.4167 597.456 72.0114C597.21 71.6061 597.09 71.0985 597.098 70.4886V62.1818ZM607.102 73.1591C606.17 73.1591 605.367 72.9811 604.693 72.625C604.023 72.2652 603.506 71.75 603.142 71.0795C602.782 70.4053 602.602 69.5985 602.602 68.6591C602.602 67.7576 602.784 66.9697 603.148 66.2955C603.511 65.6212 604.025 65.0966 604.688 64.7216C605.35 64.3466 606.133 64.1591 607.034 64.1591C607.693 64.1591 608.29 64.2614 608.824 64.4659C609.358 64.6705 609.814 64.9678 610.193 65.358C610.572 65.7443 610.864 66.214 611.068 66.767C611.273 67.3201 611.375 67.9432 611.375 68.6364V69.3636H603.58V67.6364H608.489C608.485 67.3864 608.42 67.1667 608.295 66.9773C608.174 66.7841 608.009 66.6345 607.801 66.5284C607.597 66.4186 607.364 66.3636 607.102 66.3636C606.848 66.3636 606.616 66.4186 606.403 66.5284C606.191 66.6345 606.021 66.7822 605.892 66.9716C605.767 67.161 605.701 67.3826 605.693 67.6364V69.5C605.693 69.7803 605.752 70.0303 605.869 70.25C605.987 70.4697 606.155 70.642 606.375 70.767C606.595 70.892 606.86 70.9545 607.17 70.9545C607.386 70.9545 607.583 70.9242 607.761 70.8636C607.943 70.803 608.098 70.7159 608.227 70.6023C608.356 70.4848 608.451 70.3447 608.511 70.1818H611.375C611.277 70.7879 611.044 71.3144 610.676 71.7614C610.309 72.2045 609.822 72.5492 609.216 72.7955C608.614 73.0379 607.909 73.1591 607.102 73.1591ZM612.655 73V64.2727H615.632V65.9318H615.723C615.905 65.3864 616.215 64.9545 616.655 64.6364C617.094 64.3182 617.617 64.1591 618.223 64.1591C618.837 64.1591 619.365 64.322 619.808 64.6477C620.251 64.9697 620.518 65.3977 620.609 65.9318H620.7C620.848 65.3977 621.162 64.9697 621.643 64.6477C622.125 64.322 622.689 64.1591 623.337 64.1591C624.174 64.1591 624.852 64.428 625.371 64.9659C625.893 65.5038 626.155 66.2197 626.155 67.1136V73H623.018V67.9091C623.018 67.5265 622.922 67.2273 622.729 67.0114C622.536 66.7917 622.276 66.6818 621.95 66.6818C621.628 66.6818 621.373 66.7917 621.183 67.0114C620.998 67.2273 620.905 67.5265 620.905 67.9091V73H617.905V67.9091C617.905 67.5265 617.808 67.2273 617.615 67.0114C617.422 66.7917 617.162 66.6818 616.837 66.6818C616.621 66.6818 616.435 66.7311 616.28 66.8295C616.125 66.928 616.003 67.0701 615.916 67.2557C615.833 67.4375 615.791 67.6553 615.791 67.9091V73H612.655ZM627.565 71.1818V68.7273L632.247 61.3636H634.474V64.6364H633.202L630.679 68.6364V68.7273H637.588V71.1818H627.565ZM633.224 73V70.4318L633.293 69.3636V61.3636H636.247V73H633.224Z" fill="#181818" fill-opacity="0.75"/>
<g filter="url(#filter8_d_120_29)">
<rect x="537" y="132" width="155" height="96" rx="8" fill="white" fill-opacity="0.75" shape-rendering="crispEdges"/>
</g>
<path d="M591.795 185V176.273H594.932V185H591.795ZM593.364 175.364C592.939 175.364 592.576 175.223 592.273 174.943C591.97 174.663 591.818 174.326 591.818 173.932C591.818 173.538 591.97 173.201 592.273 172.92C592.576 172.64 592.939 172.5 593.364 172.5C593.792 172.5 594.155 172.64 594.455 172.92C594.758 173.201 594.909 173.538 594.909 173.932C594.909 174.326 594.758 174.663 594.455 174.943C594.155 175.223 593.792 175.364 593.364 175.364ZM601.734 176.273V178.545H595.984V176.273H601.734ZM597.098 174.182H600.234V182.193C600.234 182.314 600.255 182.417 600.297 182.5C600.339 182.58 600.403 182.64 600.49 182.682C600.577 182.72 600.689 182.739 600.825 182.739C600.92 182.739 601.03 182.727 601.155 182.705C601.284 182.682 601.378 182.663 601.439 182.648L601.893 184.852C601.753 184.894 601.553 184.945 601.291 185.006C601.034 185.066 600.727 185.106 600.371 185.125C599.651 185.163 599.047 185.089 598.558 184.903C598.07 184.714 597.702 184.417 597.456 184.011C597.21 183.606 597.09 183.098 597.098 182.489V174.182ZM607.102 185.159C606.17 185.159 605.367 184.981 604.693 184.625C604.023 184.265 603.506 183.75 603.142 183.08C602.782 182.405 602.602 181.598 602.602 180.659C602.602 179.758 602.784 178.97 603.148 178.295C603.511 177.621 604.025 177.097 604.688 176.722C605.35 176.347 606.133 176.159 607.034 176.159C607.693 176.159 608.29 176.261 608.824 176.466C609.358 176.67 609.814 176.968 610.193 177.358C610.572 177.744 610.864 178.214 611.068 178.767C611.273 179.32 611.375 179.943 611.375 180.636V181.364H603.58V179.636H608.489C608.485 179.386 608.42 179.167 608.295 178.977C608.174 178.784 608.009 178.634 607.801 178.528C607.597 178.419 607.364 178.364 607.102 178.364C606.848 178.364 606.616 178.419 606.403 178.528C606.191 178.634 606.021 178.782 605.892 178.972C605.767 179.161 605.701 179.383 605.693 179.636V181.5C605.693 181.78 605.752 182.03 605.869 182.25C605.987 182.47 606.155 182.642 606.375 182.767C606.595 182.892 606.86 182.955 607.17 182.955C607.386 182.955 607.583 182.924 607.761 182.864C607.943 182.803 608.098 182.716 608.227 182.602C608.356 182.485 608.451 182.345 608.511 182.182H611.375C611.277 182.788 611.044 183.314 610.676 183.761C610.309 184.205 609.822 184.549 609.216 184.795C608.614 185.038 607.909 185.159 607.102 185.159ZM612.655 185V176.273H615.632V177.932H615.723C615.905 177.386 616.215 176.955 616.655 176.636C617.094 176.318 617.617 176.159 618.223 176.159C618.837 176.159 619.365 176.322 619.808 176.648C620.251 176.97 620.518 177.398 620.609 177.932H620.7C620.848 177.398 621.162 176.97 621.643 176.648C622.125 176.322 622.689 176.159 623.337 176.159C624.174 176.159 624.852 176.428 625.371 176.966C625.893 177.504 626.155 178.22 626.155 179.114V185H623.018V179.909C623.018 179.527 622.922 179.227 622.729 179.011C622.536 178.792 622.276 178.682 621.95 178.682C621.628 178.682 621.373 178.792 621.183 179.011C620.998 179.227 620.905 179.527 620.905 179.909V185H617.905V179.909C617.905 179.527 617.808 179.227 617.615 179.011C617.422 178.792 617.162 178.682 616.837 178.682C616.621 178.682 616.435 178.731 616.28 178.83C616.125 178.928 616.003 179.07 615.916 179.256C615.833 179.437 615.791 179.655 615.791 179.909V185H612.655ZM632.429 185.159C631.49 185.159 630.651 185.013 629.912 184.722C629.177 184.43 628.598 184.034 628.173 183.534C627.753 183.034 627.543 182.47 627.543 181.841C627.543 181.36 627.662 180.92 627.901 180.523C628.143 180.125 628.469 179.795 628.878 179.534C629.287 179.269 629.743 179.098 630.247 179.023V178.932C629.584 178.818 629.039 178.525 628.611 178.051C628.187 177.574 627.974 177.011 627.974 176.364C627.974 175.754 628.168 175.212 628.554 174.739C628.94 174.261 629.469 173.886 630.139 173.614C630.81 173.341 631.573 173.205 632.429 173.205C633.285 173.205 634.048 173.343 634.719 173.619C635.389 173.892 635.918 174.267 636.304 174.744C636.69 175.218 636.884 175.758 636.884 176.364C636.884 177.015 636.668 177.578 636.236 178.051C635.804 178.525 635.262 178.818 634.611 178.932V179.023C635.111 179.098 635.565 179.269 635.974 179.534C636.384 179.795 636.709 180.125 636.952 180.523C637.194 180.92 637.315 181.36 637.315 181.841C637.315 182.47 637.103 183.034 636.679 183.534C636.259 184.034 635.679 184.43 634.94 184.722C634.205 185.013 633.368 185.159 632.429 185.159ZM632.429 182.977C632.728 182.977 632.993 182.917 633.224 182.795C633.455 182.674 633.637 182.508 633.77 182.295C633.906 182.08 633.974 181.837 633.974 181.568C633.974 181.299 633.906 181.061 633.77 180.852C633.637 180.644 633.455 180.481 633.224 180.364C632.993 180.242 632.728 180.182 632.429 180.182C632.134 180.182 631.868 180.242 631.634 180.364C631.402 180.481 631.219 180.644 631.082 180.852C630.95 181.061 630.884 181.299 630.884 181.568C630.884 181.837 630.95 182.078 631.082 182.29C631.219 182.502 631.402 182.67 631.634 182.795C631.868 182.917 632.134 182.977 632.429 182.977ZM632.429 178C632.694 178 632.929 177.945 633.134 177.835C633.338 177.725 633.499 177.574 633.616 177.381C633.734 177.187 633.793 176.97 633.793 176.727C633.793 176.485 633.734 176.271 633.616 176.085C633.499 175.896 633.338 175.748 633.134 175.642C632.929 175.532 632.694 175.477 632.429 175.477C632.168 175.477 631.933 175.532 631.724 175.642C631.52 175.748 631.359 175.896 631.241 176.085C631.124 176.271 631.065 176.485 631.065 176.727C631.065 176.97 631.124 177.187 631.241 177.381C631.359 177.57 631.52 177.722 631.724 177.835C631.933 177.945 632.168 178 632.429 178Z" fill="#181818" fill-opacity="0.75"/>
<defs>
<filter id="filter0_d_120_29" x="0" y="0" width="716" height="256" filterUnits="userSpaceOnUse" color-interpolation-filters="sRGB">
<feFlood flood-opacity="0" result="BackgroundImageFix"/>
<feColorMatrix in="SourceAlpha" type="matrix" values="0 0 0 0 0 0 0 0 0 0 0 0 0 0 0 0 0 0 127 0" result="hardAlpha"/>
<feOffset dy="4"/>
<feGaussianBlur stdDeviation="4"/>
<feComposite in2="hardAlpha" operator="out"/>
<feColorMatrix type="matrix" values="0 0 0 0 0.129412 0 0 0 0 0.447059 0 0 0 0 1 0 0 0 0.25 0"/>
<feBlend mode="normal" in2="BackgroundImageFix" result="effect1_dropShadow_120_29"/>
<feBlend mode="normal" in="SourceGraphic" in2="effect1_dropShadow_120_29" result="shape"/>
</filter>
<filter id="filter1_d_120_29" x="16" y="16" width="171" height="112" filterUnits="userSpaceOnUse" color-interpolation-filters="sRGB">
<feFlood flood-opacity="0" result="BackgroundImageFix"/>
<feColorMatrix in="SourceAlpha" type="matrix" values="0 0 0 0 0 0 0 0 0 0 0 0 0 0 0 0 0 0 127 0" result="hardAlpha"/>
<feOffset dy="4"/>
<feGaussianBlur stdDeviation="4"/>
<feComposite in2="hardAlpha" operator="out"/>
<feColorMatrix type="matrix" values="0 0 0 0 1 0 0 0 0 1 0 0 0 0 1 0 0 0 0.25 0"/>
<feBlend mode="normal" in2="BackgroundImageFix" result="effect1_dropShadow_120_29"/>
<feBlend mode="normal" in="SourceGraphic" in2="effect1_dropShadow_120_29" result="shape"/>
</filter>
<filter id="filter2_d_120_29" x="16" y="128" width="171" height="112" filterUnits="userSpaceOnUse" color-interpolation-filters="sRGB">
<feFlood flood-opacity="0" result="BackgroundImageFix"/>
<feColorMatrix in="SourceAlpha" type="matrix" values="0 0 0 0 0 0 0 0 0 0 0 0 0 0 0 0 0 0 127 0" result="hardAlpha"/>
<feOffset dy="4"/>
<feGaussianBlur stdDeviation="4"/>
<feComposite in2="hardAlpha" operator="out"/>
<feColorMatrix type="matrix" values="0 0 0 0 1 0 0 0 0 1 0 0 0 0 1 0 0 0 0.25 0"/>
<feBlend mode="normal" in2="BackgroundImageFix" result="effect1_dropShadow_120_29"/>
<feBlend mode="normal" in="SourceGraphic" in2="effect1_dropShadow_120_29" result="shape"/>
</filter>
<filter id="filter3_d_120_29" x="187" y="16" width="171" height="112" filterUnits="userSpaceOnUse" color-interpolation-filters="sRGB">
<feFlood flood-opacity="0" result="BackgroundImageFix"/>
<feColorMatrix in="SourceAlpha" type="matrix" values="0 0 0 0 0 0 0 0 0 0 0 0 0 0 0 0 0 0 127 0" result="hardAlpha"/>
<feOffset dy="4"/>
<feGaussianBlur stdDeviation="4"/>
<feComposite in2="hardAlpha" operator="out"/>
<feColorMatrix type="matrix" values="0 0 0 0 1 0 0 0 0 1 0 0 0 0 1 0 0 0 0.25 0"/>
<feBlend mode="normal" in2="BackgroundImageFix" result="effect1_dropShadow_120_29"/>
<feBlend mode="normal" in="SourceGraphic" in2="effect1_dropShadow_120_29" result="shape"/>
</filter>
<filter id="filter4_d_120_29" x="187" y="128" width="171" height="112" filterUnits="userSpaceOnUse" color-interpolation-filters="sRGB">
<feFlood flood-opacity="0" result="BackgroundImageFix"/>
<feColorMatrix in="SourceAlpha" type="matrix" values="0 0 0 0 0 0 0 0 0 0 0 0 0 0 0 0 0 0 127 0" result="hardAlpha"/>
<feOffset dy="4"/>
<feGaussianBlur stdDeviation="4"/>
<feComposite in2="hardAlpha" operator="out"/>
<feColorMatrix type="matrix" values="0 0 0 0 1 0 0 0 0 1 0 0 0 0 1 0 0 0 0.25 0"/>
<feBlend mode="normal" in2="BackgroundImageFix" result="effect1_dropShadow_120_29"/>
<feBlend mode="normal" in="SourceGraphic" in2="effect1_dropShadow_120_29" result="shape"/>
</filter>
<filter id="filter5_d_120_29" x="358" y="16" width="171" height="112" filterUnits="userSpaceOnUse" color-interpolation-filters="sRGB">
<feFlood flood-opacity="0" result="BackgroundImageFix"/>
<feColorMatrix in="SourceAlpha" type="matrix" values="0 0 0 0 0 0 0 0 0 0 0 0 0 0 0 0 0 0 127 0" result="hardAlpha"/>
<feOffset dy="4"/>
<feGaussianBlur stdDeviation="4"/>
<feComposite in2="hardAlpha" operator="out"/>
<feColorMatrix type="matrix" values="0 0 0 0 1 0 0 0 0 1 0 0 0 0 1 0 0 0 0.25 0"/>
<feBlend mode="normal" in2="BackgroundImageFix" result="effect1_dropShadow_120_29"/>
<feBlend mode="normal" in="SourceGraphic" in2="effect1_dropShadow_120_29" result="shape"/>
</filter>
<filter id="filter6_d_120_29" x="358" y="128" width="171" height="112" filterUnits="userSpaceOnUse" color-interpolation-filters="sRGB">
<feFlood flood-opacity="0" result="BackgroundImageFix"/>
<feColorMatrix in="SourceAlpha" type="matrix" values="0 0 0 0 0 0 0 0 0 0 0 0 0 0 0 0 0 0 127 0" result="hardAlpha"/>
<feOffset dy="4"/>
<feGaussianBlur stdDeviation="4"/>
<feComposite in2="hardAlpha" operator="out"/>
<feColorMatrix type="matrix" values="0 0 0 0 1 0 0 0 0 1 0 0 0 0 1 0 0 0 0.25 0"/>
<feBlend mode="normal" in2="BackgroundImageFix" result="effect1_dropShadow_120_29"/>
<feBlend mode="normal" in="SourceGraphic" in2="effect1_dropShadow_120_29" result="shape"/>
</filter>
<filter id="filter7_d_120_29" x="529" y="16" width="171" height="112" filterUnits="userSpaceOnUse" color-interpolation-filters="sRGB">
<feFlood flood-opacity="0" result="BackgroundImageFix"/>
<feColorMatrix in="SourceAlpha" type="matrix" values="0 0 0 0 0 0 0 0 0 0 0 0 0 0 0 0 0 0 127 0" result="hardAlpha"/>
<feOffset dy="4"/>
<feGaussianBlur stdDeviation="4"/>
<feComposite in2="hardAlpha" operator="out"/>
<feColorMatrix type="matrix" values="0 0 0 0 1 0 0 0 0 1 0 0 0 0 1 0 0 0 0.25 0"/>
<feBlend mode="normal" in2="BackgroundImageFix" result="effect1_dropShadow_120_29"/>
<feBlend mode="normal" in="SourceGraphic" in2="effect1_dropShadow_120_29" result="shape"/>
</filter>
<filter id="filter8_d_120_29" x="529" y="128" width="171" height="112" filterUnits="userSpaceOnUse" color-interpolation-filters="sRGB">
<feFlood flood-opacity="0" result="BackgroundImageFix"/>
<feColorMatrix in="SourceAlpha" type="matrix" values="0 0 0 0 0 0 0 0 0 0 0 0 0 0 0 0 0 0 127 0" result="hardAlpha"/>
<feOffset dy="4"/>
<feGaussianBlur stdDeviation="4"/>
<feComposite in2="hardAlpha" operator="out"/>
<feColorMatrix type="matrix" values="0 0 0 0 1 0 0 0 0 1 0 0 0 0 1 0 0 0 0.25 0"/>
<feBlend mode="normal" in2="BackgroundImageFix" result="effect1_dropShadow_120_29"/>
<feBlend mode="normal" in="SourceGraphic" in2="effect1_dropShadow_120_29" result="shape"/>
</filter>
</defs>
</svg>
