<svg width="716" height="144" viewBox="0 0 716 144" fill="none" xmlns="http://www.w3.org/2000/svg">
<g filter="url(#filter0_d_120_29)">
<rect x="8" y="4" width="700" height="128" rx="8" fill="#2172FF" fill-opacity="0.8" shape-rendering="crispEdges"/>
</g>
<g filter="url(#filter1_d_120_29)">
<rect x="24" y="20" width="155" height="96" rx="8" fill="white" fill-opacity="0.75" shape-rendering="crispEdges"/>
</g>
<path d="M79.7955 73V64.2727H82.9318V73H79.7955ZM81.3636 63.3636C80.9394 63.3636 80.5758 63.2235 80.2727 62.9432C79.9697 62.6629 79.8182 62.3258 79.8182 61.9318C79.8182 61.5379 79.9697 61.2008 80.2727 60.9205C80.5758 60.6402 80.9394 60.5 81.3636 60.5C81.7917 60.5 82.1553 60.6402 82.4545 60.9205C82.7576 61.2008 82.9091 61.5379 82.9091 61.9318C82.9091 62.3258 82.7576 62.6629 82.4545 62.9432C82.1553 63.2235 81.7917 63.3636 81.3636 63.3636ZM89.7344 64.2727V66.5455H83.9844V64.2727H89.7344ZM85.098 62.1818H88.2344V70.1932C88.2344 70.3144 88.2552 70.4167 88.2969 70.5C88.3385 70.5795 88.4029 70.6402 88.4901 70.6818C88.5772 70.7197 88.6889 70.7386 88.8253 70.7386C88.92 70.7386 89.0298 70.7273 89.1548 70.7045C89.2836 70.6818 89.3783 70.6629 89.4389 70.6477L89.8935 72.8523C89.7533 72.8939 89.5526 72.9451 89.2912 73.0057C89.0336 73.0663 88.7268 73.1061 88.3707 73.125C87.651 73.1629 87.0469 73.089 86.5582 72.9034C86.0696 72.714 85.7022 72.4167 85.456 72.0114C85.2098 71.6061 85.0904 71.0985 85.098 70.4886V62.1818ZM95.1023 73.1591C94.1705 73.1591 93.3674 72.9811 92.6932 72.625C92.0227 72.2652 91.5057 71.75 91.142 71.0795C90.7822 70.4053 90.6023 69.5985 90.6023 68.6591C90.6023 67.7576 90.7841 66.9697 91.1477 66.2955C91.5114 65.6212 92.0246 65.0966 92.6875 64.7216C93.3504 64.3466 94.1326 64.1591 95.0341 64.1591C95.6932 64.1591 96.2898 64.2614 96.8239 64.4659C97.358 64.6705 97.8144 64.9678 98.1932 65.358C98.572 65.7443 98.8636 66.214 99.0682 66.767C99.2727 67.3201 99.375 67.9432 99.375 68.6364V69.3636H91.5795V67.6364H96.4886C96.4848 67.3864 96.4205 67.1667 96.2955 66.9773C96.1742 66.7841 96.0095 66.6345 95.8011 66.5284C95.5966 66.4186 95.3636 66.3636 95.1023 66.3636C94.8485 66.3636 94.6155 66.4186 94.4034 66.5284C94.1913 66.6345 94.0208 66.7822 93.892 66.9716C93.767 67.161 93.7008 67.3826 93.6932 67.6364V69.5C93.6932 69.7803 93.7519 70.0303 93.8693 70.25C93.9867 70.4697 94.1553 70.642 94.375 70.767C94.5947 70.892 94.8598 70.9545 95.1705 70.9545C95.3864 70.9545 95.5833 70.9242 95.7614 70.8636C95.9432 70.803 96.0985 70.7159 96.2273 70.6023C96.3561 70.4848 96.4508 70.3447 96.5114 70.1818H99.375C99.2765 70.7879 99.0436 71.3144 98.6761 71.7614C98.3087 72.2045 97.822 72.5492 97.2159 72.7955C96.6136 73.0379 95.9091 73.1591 95.1023 73.1591ZM100.655 73V64.2727H103.632V65.9318H103.723C103.905 65.3864 104.215 64.9545 104.655 64.6364C105.094 64.3182 105.617 64.1591 106.223 64.1591C106.837 64.1591 107.365 64.322 107.808 64.6477C108.251 64.9697 108.518 65.3977 108.609 65.9318H108.7C108.848 65.3977 109.162 64.9697 109.643 64.6477C110.125 64.322 110.689 64.1591 111.337 64.1591C112.174 64.1591 112.852 64.428 113.371 64.9659C113.893 65.5038 114.155 66.2197 114.155 67.1136V73H111.018V67.9091C111.018 67.5265 110.922 67.2273 110.729 67.0114C110.536 66.7917 110.276 66.6818 109.95 66.6818C109.628 66.6818 109.373 66.7917 109.183 67.0114C108.998 67.2273 108.905 67.5265 108.905 67.9091V73H105.905V67.9091C105.905 67.5265 105.808 67.2273 105.615 67.0114C105.422 66.7917 105.162 66.6818 104.837 66.6818C104.621 66.6818 104.435 66.7311 104.28 66.8295C104.125 66.928 104.003 67.0701 103.916 67.2557C103.833 67.4375 103.791 67.6553 103.791 67.9091V73H100.655ZM120.743 61.3636V73H117.584V64.2727H117.516L114.97 65.7955V63.1136L117.834 61.3636H120.743Z" fill="#181818" fill-opacity="0.75"/>
<g filter="url(#filter2_d_120_29)">
<rect x="195" y="20" width="155" height="96" rx="8" fill="white" fill-opacity="0.75" shape-rendering="crispEdges"/>
</g>
<path d="M250.795 73V64.2727H253.932V73H250.795ZM252.364 63.3636C251.939 63.3636 251.576 63.2235 251.273 62.9432C250.97 62.6629 250.818 62.3258 250.818 61.9318C250.818 61.5379 250.97 61.2008 251.273 60.9205C251.576 60.6402 251.939 60.5 252.364 60.5C252.792 60.5 253.155 60.6402 253.455 60.9205C253.758 61.2008 253.909 61.5379 253.909 61.9318C253.909 62.3258 253.758 62.6629 253.455 62.9432C253.155 63.2235 252.792 63.3636 252.364 63.3636ZM260.734 64.2727V66.5455H254.984V64.2727H260.734ZM256.098 62.1818H259.234V70.1932C259.234 70.3144 259.255 70.4167 259.297 70.5C259.339 70.5795 259.403 70.6402 259.49 70.6818C259.577 70.7197 259.689 70.7386 259.825 70.7386C259.92 70.7386 260.03 70.7273 260.155 70.7045C260.284 70.6818 260.378 70.6629 260.439 70.6477L260.893 72.8523C260.753 72.8939 260.553 72.9451 260.291 73.0057C260.034 73.0663 259.727 73.1061 259.371 73.125C258.651 73.1629 258.047 73.089 257.558 72.9034C257.07 72.714 256.702 72.4167 256.456 72.0114C256.21 71.6061 256.09 71.0985 256.098 70.4886V62.1818ZM266.102 73.1591C265.17 73.1591 264.367 72.9811 263.693 72.625C263.023 72.2652 262.506 71.75 262.142 71.0795C261.782 70.4053 261.602 69.5985 261.602 68.6591C261.602 67.7576 261.784 66.9697 262.148 66.2955C262.511 65.6212 263.025 65.0966 263.688 64.7216C264.35 64.3466 265.133 64.1591 266.034 64.1591C266.693 64.1591 267.29 64.2614 267.824 64.4659C268.358 64.6705 268.814 64.9678 269.193 65.358C269.572 65.7443 269.864 66.214 270.068 66.767C270.273 67.3201 270.375 67.9432 270.375 68.6364V69.3636H262.58V67.6364H267.489C267.485 67.3864 267.42 67.1667 267.295 66.9773C267.174 66.7841 267.009 66.6345 266.801 66.5284C266.597 66.4186 266.364 66.3636 266.102 66.3636C265.848 66.3636 265.616 66.4186 265.403 66.5284C265.191 66.6345 265.021 66.7822 264.892 66.9716C264.767 67.161 264.701 67.3826 264.693 67.6364V69.5C264.693 69.7803 264.752 70.0303 264.869 70.25C264.987 70.4697 265.155 70.642 265.375 70.767C265.595 70.892 265.86 70.9545 266.17 70.9545C266.386 70.9545 266.583 70.9242 266.761 70.8636C266.943 70.803 267.098 70.7159 267.227 70.6023C267.356 70.4848 267.451 70.3447 267.511 70.1818H270.375C270.277 70.7879 270.044 71.3144 269.676 71.7614C269.309 72.2045 268.822 72.5492 268.216 72.7955C267.614 73.0379 266.909 73.1591 266.102 73.1591ZM271.655 73V64.2727H274.632V65.9318H274.723C274.905 65.3864 275.215 64.9545 275.655 64.6364C276.094 64.3182 276.617 64.1591 277.223 64.1591C277.837 64.1591 278.365 64.322 278.808 64.6477C279.251 64.9697 279.518 65.3977 279.609 65.9318H279.7C279.848 65.3977 280.162 64.9697 280.643 64.6477C281.125 64.322 281.689 64.1591 282.337 64.1591C283.174 64.1591 283.852 64.428 284.371 64.9659C284.893 65.5038 285.155 66.2197 285.155 67.1136V73H282.018V67.9091C282.018 67.5265 281.922 67.2273 281.729 67.0114C281.536 66.7917 281.276 66.6818 280.95 66.6818C280.628 66.6818 280.373 66.7917 280.183 67.0114C279.998 67.2273 279.905 67.5265 279.905 67.9091V73H276.905V67.9091C276.905 67.5265 276.808 67.2273 276.615 67.0114C276.422 66.7917 276.162 66.6818 275.837 66.6818C275.621 66.6818 275.435 66.7311 275.28 66.8295C275.125 66.928 275.003 67.0701 274.916 67.2557C274.833 67.4375 274.791 67.6553 274.791 67.9091V73H271.655ZM286.679 73V70.7273L291.02 67.1364C291.308 66.8977 291.554 66.6742 291.759 66.4659C291.967 66.2538 292.126 66.036 292.236 65.8125C292.349 65.589 292.406 65.3409 292.406 65.0682C292.406 64.7689 292.342 64.5133 292.213 64.3011C292.088 64.089 291.914 63.9261 291.69 63.8125C291.467 63.6951 291.209 63.6364 290.918 63.6364C290.626 63.6364 290.368 63.6951 290.145 63.8125C289.925 63.9299 289.755 64.1023 289.634 64.3295C289.512 64.5568 289.452 64.8333 289.452 65.1591H286.452C286.452 64.3409 286.635 63.6364 287.003 63.0455C287.37 62.4545 287.889 62 288.56 61.6818C289.23 61.3636 290.016 61.2045 290.918 61.2045C291.849 61.2045 292.656 61.3542 293.338 61.6534C294.024 61.9489 294.552 62.3655 294.923 62.9034C295.298 63.4413 295.486 64.072 295.486 64.7955C295.486 65.2424 295.393 65.6875 295.207 66.1307C295.022 66.5701 294.688 67.0568 294.207 67.5909C293.726 68.125 293.043 68.7614 292.156 69.5L291.065 70.4091V70.4773H295.611V73H286.679Z" fill="#181818" fill-opacity="0.75"/>
<g filter="url(#filter3_d_120_29)">
<rect x="366" y="20" width="155" height="96" rx="8" fill="white" fill-opacity="0.75" shape-rendering="crispEdges"/>
</g>
<path d="M420.795 73V64.2727H423.932V73H420.795ZM422.364 63.3636C421.939 63.3636 421.576 63.2235 421.273 62.9432C420.97 62.6629 420.818 62.3258 420.818 61.9318C420.818 61.5379 420.97 61.2008 421.273 60.9205C421.576 60.6402 421.939 60.5 422.364 60.5C422.792 60.5 423.155 60.6402 423.455 60.9205C423.758 61.2008 423.909 61.5379 423.909 61.9318C423.909 62.3258 423.758 62.6629 423.455 62.9432C423.155 63.2235 422.792 63.3636 422.364 63.3636ZM430.734 64.2727V66.5455H424.984V64.2727H430.734ZM426.098 62.1818H429.234V70.1932C429.234 70.3144 429.255 70.4167 429.297 70.5C429.339 70.5795 429.403 70.6402 429.49 70.6818C429.577 70.7197 429.689 70.7386 429.825 70.7386C429.92 70.7386 430.03 70.7273 430.155 70.7045C430.284 70.6818 430.378 70.6629 430.439 70.6477L430.893 72.8523C430.753 72.8939 430.553 72.9451 430.291 73.0057C430.034 73.0663 429.727 73.1061 429.371 73.125C428.651 73.1629 428.047 73.089 427.558 72.9034C427.07 72.714 426.702 72.4167 426.456 72.0114C426.21 71.6061 426.09 71.0985 426.098 70.4886V62.1818ZM436.102 73.1591C435.17 73.1591 434.367 72.9811 433.693 72.625C433.023 72.2652 432.506 71.75 432.142 71.0795C431.782 70.4053 431.602 69.5985 431.602 68.6591C431.602 67.7576 431.784 66.9697 432.148 66.2955C432.511 65.6212 433.025 65.0966 433.688 64.7216C434.35 64.3466 435.133 64.1591 436.034 64.1591C436.693 64.1591 437.29 64.2614 437.824 64.4659C438.358 64.6705 438.814 64.9678 439.193 65.358C439.572 65.7443 439.864 66.214 440.068 66.767C440.273 67.3201 440.375 67.9432 440.375 68.6364V69.3636H432.58V67.6364H437.489C437.485 67.3864 437.42 67.1667 437.295 66.9773C437.174 66.7841 437.009 66.6345 436.801 66.5284C436.597 66.4186 436.364 66.3636 436.102 66.3636C435.848 66.3636 435.616 66.4186 435.403 66.5284C435.191 66.6345 435.021 66.7822 434.892 66.9716C434.767 67.161 434.701 67.3826 434.693 67.6364V69.5C434.693 69.7803 434.752 70.0303 434.869 70.25C434.987 70.4697 435.155 70.642 435.375 70.767C435.595 70.892 435.86 70.9545 436.17 70.9545C436.386 70.9545 436.583 70.9242 436.761 70.8636C436.943 70.803 437.098 70.7159 437.227 70.6023C437.356 70.4848 437.451 70.3447 437.511 70.1818H440.375C440.277 70.7879 440.044 71.3144 439.676 71.7614C439.309 72.2045 438.822 72.5492 438.216 72.7955C437.614 73.0379 436.909 73.1591 436.102 73.1591ZM441.655 73V64.2727H444.632V65.9318H444.723C444.905 65.3864 445.215 64.9545 445.655 64.6364C446.094 64.3182 446.617 64.1591 447.223 64.1591C447.837 64.1591 448.365 64.322 448.808 64.6477C449.251 64.9697 449.518 65.3977 449.609 65.9318H449.7C449.848 65.3977 450.162 64.9697 450.643 64.6477C451.125 64.322 451.689 64.1591 452.337 64.1591C453.174 64.1591 453.852 64.428 454.371 64.9659C454.893 65.5038 455.155 66.2197 455.155 67.1136V73H452.018V67.9091C452.018 67.5265 451.922 67.2273 451.729 67.0114C451.536 66.7917 451.276 66.6818 450.95 66.6818C450.628 66.6818 450.373 66.7917 450.183 67.0114C449.998 67.2273 449.905 67.5265 449.905 67.9091V73H446.905V67.9091C446.905 67.5265 446.808 67.2273 446.615 67.0114C446.422 66.7917 446.162 66.6818 445.837 66.6818C445.621 66.6818 445.435 66.7311 445.28 66.8295C445.125 66.928 445.003 67.0701 444.916 67.2557C444.833 67.4375 444.791 67.6553 444.791 67.9091V73H441.655ZM461.224 73.1591C460.308 73.1591 459.493 73.0019 458.781 72.6875C458.073 72.3693 457.516 71.9318 457.111 71.375C456.705 70.8182 456.501 70.178 456.497 69.4545H459.679C459.683 69.678 459.751 69.8788 459.884 70.0568C460.02 70.2311 460.205 70.3674 460.44 70.4659C460.675 70.5644 460.944 70.6136 461.247 70.6136C461.539 70.6136 461.796 70.5625 462.02 70.4602C462.243 70.3542 462.418 70.2083 462.543 70.0227C462.668 69.8371 462.728 69.625 462.724 69.3864C462.728 69.1515 462.656 68.9432 462.509 68.7614C462.365 68.5795 462.162 68.4375 461.901 68.3352C461.639 68.233 461.338 68.1818 460.997 68.1818H459.815V66H460.997C461.312 66 461.588 65.9489 461.827 65.8466C462.069 65.7443 462.257 65.6023 462.389 65.4205C462.526 65.2386 462.592 65.0303 462.588 64.7955C462.592 64.5682 462.537 64.3674 462.423 64.1932C462.31 64.0189 462.151 63.8826 461.946 63.7841C461.745 63.6856 461.512 63.6364 461.247 63.6364C460.959 63.6364 460.702 63.6875 460.474 63.7898C460.251 63.892 460.075 64.0341 459.946 64.2159C459.817 64.3977 459.751 64.6061 459.747 64.8409H456.724C456.728 64.1288 456.923 63.5 457.31 62.9545C457.7 62.4091 458.234 61.9811 458.912 61.6705C459.59 61.3598 460.368 61.2045 461.247 61.2045C462.107 61.2045 462.866 61.3504 463.526 61.642C464.188 61.9337 464.705 62.3352 465.077 62.8466C465.452 63.3542 465.637 63.9356 465.634 64.5909C465.641 65.2424 465.418 65.7765 464.963 66.1932C464.512 66.6098 463.94 66.8561 463.247 66.9318V67.0227C464.187 67.125 464.893 67.4129 465.366 67.8864C465.84 68.3561 466.073 68.947 466.065 69.6591C466.069 70.3409 465.865 70.9451 465.452 71.4716C465.043 71.9981 464.473 72.411 463.741 72.7102C463.014 73.0095 462.175 73.1591 461.224 73.1591Z" fill="#181818" fill-opacity="0.75"/>
<g filter="url(#filter4_d_120_29)">
<rect x="537" y="20" width="155" height="96" rx="8" fill="white" fill-opacity="0.75" shape-rendering="crispEdges"/>
</g>
<path d="M591.795 73V64.2727H594.932V73H591.795ZM593.364 63.3636C592.939 63.3636 592.576 63.2235 592.273 62.9432C591.97 62.6629 591.818 62.3258 591.818 61.9318C591.818 61.5379 591.97 61.2008 592.273 60.9205C592.576 60.6402 592.939 60.5 593.364 60.5C593.792 60.5 594.155 60.6402 594.455 60.9205C594.758 61.2008 594.909 61.5379 594.909 61.9318C594.909 62.3258 594.758 62.6629 594.455 62.9432C594.155 63.2235 593.792 63.3636 593.364 63.3636ZM601.734 64.2727V66.5455H595.984V64.2727H601.734ZM597.098 62.1818H600.234V70.1932C600.234 70.3144 600.255 70.4167 600.297 70.5C600.339 70.5795 600.403 70.6402 600.49 70.6818C600.577 70.7197 600.689 70.7386 600.825 70.7386C600.92 70.7386 601.03 70.7273 601.155 70.7045C601.284 70.6818 601.378 70.6629 601.439 70.6477L601.893 72.8523C601.753 72.8939 601.553 72.9451 601.291 73.0057C601.034 73.0663 600.727 73.1061 600.371 73.125C599.651 73.1629 599.047 73.089 598.558 72.9034C598.07 72.714 597.702 72.4167 597.456 72.0114C597.21 71.6061 597.09 71.0985 597.098 70.4886V62.1818ZM607.102 73.1591C606.17 73.1591 605.367 72.9811 604.693 72.625C604.023 72.2652 603.506 71.75 603.142 71.0795C602.782 70.4053 602.602 69.5985 602.602 68.6591C602.602 67.7576 602.784 66.9697 603.148 66.2955C603.511 65.6212 604.025 65.0966 604.688 64.7216C605.35 64.3466 606.133 64.1591 607.034 64.1591C607.693 64.1591 608.29 64.2614 608.824 64.4659C609.358 64.6705 609.814 64.9678 610.193 65.358C610.572 65.7443 610.864 66.214 611.068 66.767C611.273 67.3201 611.375 67.9432 611.375 68.6364V69.3636H603.58V67.6364H608.489C608.485 67.3864 608.42 67.1667 608.295 66.9773C608.174 66.7841 608.009 66.6345 607.801 66.5284C607.597 66.4186 607.364 66.3636 607.102 66.3636C606.848 66.3636 606.616 66.4186 606.403 66.5284C606.191 66.6345 606.021 66.7822 605.892 66.9716C605.767 67.161 605.701 67.3826 605.693 67.6364V69.5C605.693 69.7803 605.752 70.0303 605.869 70.25C605.987 70.4697 606.155 70.642 606.375 70.767C606.595 70.892 606.86 70.9545 607.17 70.9545C607.386 70.9545 607.583 70.9242 607.761 70.8636C607.943 70.803 608.098 70.7159 608.227 70.6023C608.356 70.4848 608.451 70.3447 608.511 70.1818H611.375C611.277 70.7879 611.044 71.3144 610.676 71.7614C610.309 72.2045 609.822 72.5492 609.216 72.7955C608.614 73.0379 607.909 73.1591 607.102 73.1591ZM612.655 73V64.2727H615.632V65.9318H615.723C615.905 65.3864 616.215 64.9545 616.655 64.6364C617.094 64.3182 617.617 64.1591 618.223 64.1591C618.837 64.1591 619.365 64.322 619.808 64.6477C620.251 64.9697 620.518 65.3977 620.609 65.9318H620.7C620.848 65.3977 621.162 64.9697 621.643 64.6477C622.125 64.322 622.689 64.1591 623.337 64.1591C624.174 64.1591 624.852 64.428 625.371 64.9659C625.893 65.5038 626.155 66.2197 626.155 67.1136V73H623.018V67.9091C623.018 67.5265 622.922 67.2273 622.729 67.0114C622.536 66.7917 622.276 66.6818 621.95 66.6818C621.628 66.6818 621.373 66.7917 621.183 67.0114C620.998 67.2273 620.905 67.5265 620.905 67.9091V73H617.905V67.9091C617.905 67.5265 617.808 67.2273 617.615 67.0114C617.422 66.7917 617.162 66.6818 616.837 66.6818C616.621 66.6818 616.435 66.7311 616.28 66.8295C616.125 66.928 616.003 67.0701 615.916 67.2557C615.833 67.4375 615.791 67.6553 615.791 67.9091V73H612.655ZM627.565 71.1818V68.7273L632.247 61.3636H634.474V64.6364H633.202L630.679 68.6364V68.7273H637.588V71.1818H627.565ZM633.224 73V70.4318L633.293 69.3636V61.3636H636.247V73H633.224Z" fill="#181818" fill-opacity="0.75"/>
<defs>
<filter id="filter0_d_120_29" x="0" y="0" width="716" height="144" filterUnits="userSpaceOnUse" color-interpolation-filters="sRGB">
<feFlood flood-opacity="0" result="BackgroundImageFix"/>
<feColorMatrix in="SourceAlpha" type="matrix" values="0 0 0 0 0 0 0 0 0 0 0 0 0 0 0 0 0 0 127 0" result="hardAlpha"/>
<feOffset dy="4"/>
<feGaussianBlur stdDeviation="4"/>
<feComposite in2="hardAlpha" operator="out"/>
<feColorMatrix type="matrix" values="0 0 0 0 0.129412 0 0 0 0 0.447059 0 0 0 0 1 0 0 0 0.25 0"/>
<feBlend mode="normal" in2="BackgroundImageFix" result="effect1_dropShadow_120_29"/>
<feBlend mode="normal" in="SourceGraphic" in2="effect1_dropShadow_120_29" result="shape"/>
</filter>
<filter id="filter1_d_120_29" x="16" y="16" width="171" height="112" filterUnits="userSpaceOnUse" color-interpolation-filters="sRGB">
<feFlood flood-opacity="0" result="BackgroundImageFix"/>
<feColorMatrix in="SourceAlpha" type="matrix" values="0 0 0 0 0 0 0 0 0 0 0 0 0 0 0 0 0 0 127 0" result="hardAlpha"/>
<feOffset dy="4"/>
<feGaussianBlur stdDeviation="4"/>
<feComposite in2="hardAlpha" operator="out"/>
<feColorMatrix type="matrix" values="0 0 0 0 1 0 0 0 0 1 0 0 0 0 1 0 0 0 0.25 0"/>
<feBlend mode="normal" in2="BackgroundImageFix" result="effect1_dropShadow_120_29"/>
<feBlend mode="normal" in="SourceGraphic" in2="effect1_dropShadow_120_29" result="shape"/>
</filter>
<filter id="filter2_d_120_29" x="187" y="16" width="171" height="112" filterUnits="userSpaceOnUse" color-interpolation-filters="sRGB">
<feFlood flood-opacity="0" result="BackgroundImageFix"/>
<feColorMatrix in="SourceAlpha" type="matrix" values="0 0 0 0 0 0 0 0 0 0 0 0 0 0 0 0 0 0 127 0" result="hardAlpha"/>
<feOffset dy="4"/>
<feGaussianBlur stdDeviation="4"/>
<feComposite in2="hardAlpha" operator="out"/>
<feColorMatrix type="matrix" values="0 0 0 0 1 0 0 0 0 1 0 0 0 0 1 0 0 0 0.25 0"/>
<feBlend mode="normal" in2="BackgroundImageFix" result="effect1_dropShadow_120_29"/>
<feBlend mode="normal" in="SourceGraphic" in2="effect1_dropShadow_120_29" result="shape"/>
</filter>
<filter id="filter3_d_120_29" x="358" y="16" width="171" height="112" filterUnits="userSpaceOnUse" color-interpolation-filters="sRGB">
<feFlood flood-opacity="0" result="BackgroundImageFix"/>
<feColorMatrix in="SourceAlpha" type="matrix" values="0 0 0 0 0 0 0 0 0 0 0 0 0 0 0 0 0 0 127 0" result="hardAlpha"/>
<feOffset dy="4"/>
<feGaussianBlur stdDeviation="4"/>
<feComposite in2="hardAlpha" operator="out"/>
<feColorMatrix type="matrix" values="0 0 0 0 1 0 0 0 0 1 0 0 0 0 1 0 0 0 0.25 0"/>
<feBlend mode="normal" in2="BackgroundImageFix" result="effect1_dropShadow_120_29"/>
<feBlend mode="normal" in="SourceGraphic" in2="effect1_dropShadow_120_29" result="shape"/>
</filter>
<filter id="filter4_d_120_29" x="529" y="16" width="171" height="112" filterUnits="userSpaceOnUse" color-interpolation-filters="sRGB">
<feFlood flood-opacity="0" result="BackgroundImageFix"/>
<feColorMatrix in="SourceAlpha" type="matrix" values="0 0 0 0 0 0 0 0 0 0 0 0 0 0 0 0 0 0 127 0" result="hardAlpha"/>
<feOffset dy="4"/>
<feGaussianBlur stdDeviation="4"/>
<feComposite in2="hardAlpha" operator="out"/>
<feColorMatrix type="matrix" values="0 0 0 0 1 0 0 0 0 1 0 0 0 0 1 0 0 0 0.25 0"/>
<feBlend mode="normal" in2="BackgroundImageFix" result="effect1_dropShadow_120_29"/>
<feBlend mode="normal" in="SourceGraphic" in2="effect1_dropShadow_120_29" result="shape"/>
</filter>
</defs>
</svg>
