<svg width="716" height="144" viewBox="0 0 716 144" fill="none" xmlns="http://www.w3.org/2000/svg">
<g filter="url(#filter0_d_120_42)">
<rect x="8" y="4" width="700" height="128" rx="8" fill="#2172FF" fill-opacity="0.8" shape-rendering="crispEdges"/>
</g>
<g filter="url(#filter1_d_120_42)">
<rect x="24" y="20" width="155" height="96" rx="8" fill="white" fill-opacity="0.75" shape-rendering="crispEdges"/>
</g>
<path d="M79.7955 73V64.2728H82.9318V73H79.7955ZM81.3636 63.3637C80.9394 63.3637 80.5758 63.2235 80.2727 62.9432C79.9697 62.6629 79.8182 62.3258 79.8182 61.9318C79.8182 61.5379 79.9697 61.2008 80.2727 60.9205C80.5758 60.6402 80.9394 60.5 81.3636 60.5C81.7917 60.5 82.1553 60.6402 82.4545 60.9205C82.7576 61.2008 82.9091 61.5379 82.9091 61.9318C82.9091 62.3258 82.7576 62.6629 82.4545 62.9432C82.1553 63.2235 81.7917 63.3637 81.3636 63.3637ZM89.7344 64.2728V66.5455H83.9844V64.2728H89.7344ZM85.098 62.1818H88.2344V70.1932C88.2344 70.3144 88.2552 70.4167 88.2969 70.5C88.3385 70.5796 88.4029 70.6402 88.4901 70.6818C88.5772 70.7197 88.6889 70.7387 88.8253 70.7387C88.92 70.7387 89.0298 70.7273 89.1548 70.7046C89.2836 70.6818 89.3783 70.6629 89.4389 70.6478L89.8935 72.8523C89.7533 72.894 89.5526 72.9451 89.2912 73.0057C89.0336 73.0663 88.7268 73.1061 88.3707 73.125C87.651 73.1629 87.0469 73.089 86.5582 72.9034C86.0696 72.714 85.7022 72.4167 85.456 72.0114C85.2098 71.6061 85.0904 71.0985 85.098 70.4887V62.1818ZM95.1023 73.1591C94.1705 73.1591 93.3674 72.9811 92.6932 72.625C92.0227 72.2652 91.5057 71.75 91.142 71.0796C90.7822 70.4053 90.6023 69.5985 90.6023 68.6591C90.6023 67.7576 90.7841 66.9697 91.1477 66.2955C91.5114 65.6212 92.0246 65.0966 92.6875 64.7216C93.3504 64.3466 94.1326 64.1591 95.0341 64.1591C95.6932 64.1591 96.2898 64.2614 96.8239 64.4659C97.358 64.6705 97.8144 64.9678 98.1932 65.358C98.572 65.7443 98.8636 66.214 99.0682 66.7671C99.2727 67.3201 99.375 67.9432 99.375 68.6364V69.3637H91.5795V67.6364H96.4886C96.4848 67.3864 96.4205 67.1667 96.2955 66.9773C96.1742 66.7841 96.0095 66.6345 95.8011 66.5284C95.5966 66.4186 95.3636 66.3637 95.1023 66.3637C94.8485 66.3637 94.6155 66.4186 94.4034 66.5284C94.1913 66.6345 94.0208 66.7822 93.892 66.9716C93.767 67.161 93.7008 67.3826 93.6932 67.6364V69.5C93.6932 69.7803 93.7519 70.0303 93.8693 70.25C93.9867 70.4697 94.1553 70.6421 94.375 70.7671C94.5947 70.8921 94.8598 70.9546 95.1705 70.9546C95.3864 70.9546 95.5833 70.9243 95.7614 70.8637C95.9432 70.8031 96.0985 70.7159 96.2273 70.6023C96.3561 70.4849 96.4508 70.3447 96.5114 70.1818H99.375C99.2765 70.7879 99.0436 71.3144 98.6761 71.7614C98.3087 72.2046 97.822 72.5493 97.2159 72.7955C96.6136 73.0379 95.9091 73.1591 95.1023 73.1591ZM100.655 73V64.2728H103.632V65.9318H103.723C103.905 65.3864 104.215 64.9546 104.655 64.6364C105.094 64.3182 105.617 64.1591 106.223 64.1591C106.837 64.1591 107.365 64.322 107.808 64.6478C108.251 64.9697 108.518 65.3978 108.609 65.9318H108.7C108.848 65.3978 109.162 64.9697 109.643 64.6478C110.125 64.322 110.689 64.1591 111.337 64.1591C112.174 64.1591 112.852 64.4281 113.371 64.9659C113.893 65.5038 114.155 66.2197 114.155 67.1137V73H111.018V67.9091C111.018 67.5265 110.922 67.2273 110.729 67.0114C110.536 66.7917 110.276 66.6818 109.95 66.6818C109.628 66.6818 109.373 66.7917 109.183 67.0114C108.998 67.2273 108.905 67.5265 108.905 67.9091V73H105.905V67.9091C105.905 67.5265 105.808 67.2273 105.615 67.0114C105.422 66.7917 105.162 66.6818 104.837 66.6818C104.621 66.6818 104.435 66.7311 104.28 66.8296C104.125 66.9281 104.003 67.0701 103.916 67.2557C103.833 67.4375 103.791 67.6553 103.791 67.9091V73H100.655ZM120.743 61.3637V73H117.584V64.2728H117.516L114.97 65.7955V63.1137L117.834 61.3637H120.743Z" fill="#181818" fill-opacity="0.75"/>
<g filter="url(#filter2_d_120_42)">
<rect x="195" y="20" width="155" height="96" rx="8" fill="white" fill-opacity="0.75" shape-rendering="crispEdges"/>
</g>
<path d="M250.795 73V64.2728H253.932V73H250.795ZM252.364 63.3637C251.939 63.3637 251.576 63.2235 251.273 62.9432C250.97 62.6629 250.818 62.3258 250.818 61.9318C250.818 61.5379 250.97 61.2008 251.273 60.9205C251.576 60.6402 251.939 60.5 252.364 60.5C252.792 60.5 253.155 60.6402 253.455 60.9205C253.758 61.2008 253.909 61.5379 253.909 61.9318C253.909 62.3258 253.758 62.6629 253.455 62.9432C253.155 63.2235 252.792 63.3637 252.364 63.3637ZM260.734 64.2728V66.5455H254.984V64.2728H260.734ZM256.098 62.1818H259.234V70.1932C259.234 70.3144 259.255 70.4167 259.297 70.5C259.339 70.5796 259.403 70.6402 259.49 70.6818C259.577 70.7197 259.689 70.7387 259.825 70.7387C259.92 70.7387 260.03 70.7273 260.155 70.7046C260.284 70.6818 260.378 70.6629 260.439 70.6478L260.893 72.8523C260.753 72.894 260.553 72.9451 260.291 73.0057C260.034 73.0663 259.727 73.1061 259.371 73.125C258.651 73.1629 258.047 73.089 257.558 72.9034C257.07 72.714 256.702 72.4167 256.456 72.0114C256.21 71.6061 256.09 71.0985 256.098 70.4887V62.1818ZM266.102 73.1591C265.17 73.1591 264.367 72.9811 263.693 72.625C263.023 72.2652 262.506 71.75 262.142 71.0796C261.782 70.4053 261.602 69.5985 261.602 68.6591C261.602 67.7576 261.784 66.9697 262.148 66.2955C262.511 65.6212 263.025 65.0966 263.688 64.7216C264.35 64.3466 265.133 64.1591 266.034 64.1591C266.693 64.1591 267.29 64.2614 267.824 64.4659C268.358 64.6705 268.814 64.9678 269.193 65.358C269.572 65.7443 269.864 66.214 270.068 66.7671C270.273 67.3201 270.375 67.9432 270.375 68.6364V69.3637H262.58V67.6364H267.489C267.485 67.3864 267.42 67.1667 267.295 66.9773C267.174 66.7841 267.009 66.6345 266.801 66.5284C266.597 66.4186 266.364 66.3637 266.102 66.3637C265.848 66.3637 265.616 66.4186 265.403 66.5284C265.191 66.6345 265.021 66.7822 264.892 66.9716C264.767 67.161 264.701 67.3826 264.693 67.6364V69.5C264.693 69.7803 264.752 70.0303 264.869 70.25C264.987 70.4697 265.155 70.6421 265.375 70.7671C265.595 70.8921 265.86 70.9546 266.17 70.9546C266.386 70.9546 266.583 70.9243 266.761 70.8637C266.943 70.8031 267.098 70.7159 267.227 70.6023C267.356 70.4849 267.451 70.3447 267.511 70.1818H270.375C270.277 70.7879 270.044 71.3144 269.676 71.7614C269.309 72.2046 268.822 72.5493 268.216 72.7955C267.614 73.0379 266.909 73.1591 266.102 73.1591ZM271.655 73V64.2728H274.632V65.9318H274.723C274.905 65.3864 275.215 64.9546 275.655 64.6364C276.094 64.3182 276.617 64.1591 277.223 64.1591C277.837 64.1591 278.365 64.322 278.808 64.6478C279.251 64.9697 279.518 65.3978 279.609 65.9318H279.7C279.848 65.3978 280.162 64.9697 280.643 64.6478C281.125 64.322 281.689 64.1591 282.337 64.1591C283.174 64.1591 283.852 64.4281 284.371 64.9659C284.893 65.5038 285.155 66.2197 285.155 67.1137V73H282.018V67.9091C282.018 67.5265 281.922 67.2273 281.729 67.0114C281.536 66.7917 281.276 66.6818 280.95 66.6818C280.628 66.6818 280.373 66.7917 280.183 67.0114C279.998 67.2273 279.905 67.5265 279.905 67.9091V73H276.905V67.9091C276.905 67.5265 276.808 67.2273 276.615 67.0114C276.422 66.7917 276.162 66.6818 275.837 66.6818C275.621 66.6818 275.435 66.7311 275.28 66.8296C275.125 66.9281 275.003 67.0701 274.916 67.2557C274.833 67.4375 274.791 67.6553 274.791 67.9091V73H271.655ZM286.679 73V70.7273L291.02 67.1364C291.308 66.8978 291.554 66.6743 291.759 66.4659C291.967 66.2538 292.126 66.036 292.236 65.8125C292.349 65.589 292.406 65.3409 292.406 65.0682C292.406 64.769 292.342 64.5133 292.213 64.3012C292.088 64.089 291.914 63.9262 291.69 63.8125C291.467 63.6951 291.209 63.6364 290.918 63.6364C290.626 63.6364 290.368 63.6951 290.145 63.8125C289.925 63.93 289.755 64.1023 289.634 64.3296C289.512 64.5568 289.452 64.8334 289.452 65.1591H286.452C286.452 64.3409 286.635 63.6364 287.003 63.0455C287.37 62.4546 287.889 62 288.56 61.6818C289.23 61.3637 290.016 61.2046 290.918 61.2046C291.849 61.2046 292.656 61.3542 293.338 61.6534C294.024 61.9489 294.552 62.3656 294.923 62.9034C295.298 63.4413 295.486 64.072 295.486 64.7955C295.486 65.2425 295.393 65.6875 295.207 66.1307C295.022 66.5701 294.688 67.0568 294.207 67.5909C293.726 68.125 293.043 68.7614 292.156 69.5L291.065 70.4091V70.4773H295.611V73H286.679Z" fill="#181818" fill-opacity="0.75"/>
<g filter="url(#filter3_d_120_42)">
<rect x="366" y="20.0001" width="326" height="96" rx="8" fill="white" fill-opacity="0.75" shape-rendering="crispEdges"/>
</g>
<path d="M505.795 73.0001V64.2728H508.932V73.0001H505.795ZM507.364 63.3637C506.939 63.3637 506.576 63.2235 506.273 62.9432C505.97 62.6629 505.818 62.3258 505.818 61.9319C505.818 61.5379 505.97 61.2008 506.273 60.9205C506.576 60.6402 506.939 60.5001 507.364 60.5001C507.792 60.5001 508.155 60.6402 508.455 60.9205C508.758 61.2008 508.909 61.5379 508.909 61.9319C508.909 62.3258 508.758 62.6629 508.455 62.9432C508.155 63.2235 507.792 63.3637 507.364 63.3637ZM515.734 64.2728V66.5455H509.984V64.2728H515.734ZM511.098 62.1819H514.234V70.1932C514.234 70.3145 514.255 70.4167 514.297 70.5001C514.339 70.5796 514.403 70.6402 514.49 70.6819C514.577 70.7198 514.689 70.7387 514.825 70.7387C514.92 70.7387 515.03 70.7273 515.155 70.7046C515.284 70.6819 515.378 70.6629 515.439 70.6478L515.893 72.8523C515.753 72.894 515.553 72.9451 515.291 73.0057C515.034 73.0663 514.727 73.1061 514.371 73.1251C513.651 73.1629 513.047 73.0891 512.558 72.9035C512.07 72.7141 511.702 72.4167 511.456 72.0114C511.21 71.6061 511.09 71.0985 511.098 70.4887V62.1819ZM521.102 73.1592C520.17 73.1592 519.367 72.9811 518.693 72.6251C518.023 72.2652 517.506 71.7501 517.142 71.0796C516.782 70.4054 516.602 69.5985 516.602 68.6592C516.602 67.7576 516.784 66.9698 517.148 66.2955C517.511 65.6213 518.025 65.0967 518.688 64.7217C519.35 64.3467 520.133 64.1592 521.034 64.1592C521.693 64.1592 522.29 64.2614 522.824 64.466C523.358 64.6705 523.814 64.9679 524.193 65.358C524.572 65.7444 524.864 66.2141 525.068 66.7671C525.273 67.3201 525.375 67.9432 525.375 68.6364V69.3637H517.58V67.6364H522.489C522.485 67.3864 522.42 67.1667 522.295 66.9773C522.174 66.7842 522.009 66.6345 521.801 66.5285C521.597 66.4186 521.364 66.3637 521.102 66.3637C520.848 66.3637 520.616 66.4186 520.403 66.5285C520.191 66.6345 520.021 66.7823 519.892 66.9717C519.767 67.161 519.701 67.3826 519.693 67.6364V69.5001C519.693 69.7804 519.752 70.0304 519.869 70.2501C519.987 70.4698 520.155 70.6421 520.375 70.7671C520.595 70.8921 520.86 70.9546 521.17 70.9546C521.386 70.9546 521.583 70.9243 521.761 70.8637C521.943 70.8031 522.098 70.716 522.227 70.6023C522.356 70.4849 522.451 70.3448 522.511 70.1819H525.375C525.277 70.7879 525.044 71.3145 524.676 71.7614C524.309 72.2046 523.822 72.5493 523.216 72.7955C522.614 73.0379 521.909 73.1592 521.102 73.1592ZM526.655 73.0001V64.2728H529.632V65.9319H529.723C529.905 65.3864 530.215 64.9546 530.655 64.6364C531.094 64.3182 531.617 64.1592 532.223 64.1592C532.837 64.1592 533.365 64.322 533.808 64.6478C534.251 64.9698 534.518 65.3978 534.609 65.9319H534.7C534.848 65.3978 535.162 64.9698 535.643 64.6478C536.125 64.322 536.689 64.1592 537.337 64.1592C538.174 64.1592 538.852 64.4281 539.371 64.966C539.893 65.5038 540.155 66.2198 540.155 67.1137V73.0001H537.018V67.9092C537.018 67.5266 536.922 67.2273 536.729 67.0114C536.536 66.7917 536.276 66.6819 535.95 66.6819C535.628 66.6819 535.373 66.7917 535.183 67.0114C534.998 67.2273 534.905 67.5266 534.905 67.9092V73.0001H531.905V67.9092C531.905 67.5266 531.808 67.2273 531.615 67.0114C531.422 66.7917 531.162 66.6819 530.837 66.6819C530.621 66.6819 530.435 66.7311 530.28 66.8296C530.125 66.9281 530.003 67.0701 529.916 67.2557C529.833 67.4376 529.791 67.6554 529.791 67.9092V73.0001H526.655ZM546.224 73.1592C545.308 73.1592 544.493 73.002 543.781 72.6876C543.073 72.3694 542.516 71.9319 542.111 71.3751C541.705 70.8182 541.501 70.1781 541.497 69.4546H544.679C544.683 69.6781 544.751 69.8788 544.884 70.0569C545.02 70.2311 545.205 70.3675 545.44 70.466C545.675 70.5645 545.944 70.6137 546.247 70.6137C546.539 70.6137 546.796 70.5626 547.02 70.4603C547.243 70.3542 547.418 70.2084 547.543 70.0228C547.668 69.8372 547.728 69.6251 547.724 69.3864C547.728 69.1516 547.656 68.9432 547.509 68.7614C547.365 68.5796 547.162 68.4376 546.901 68.3353C546.639 68.233 546.338 68.1819 545.997 68.1819H544.815V66.0001H545.997C546.312 66.0001 546.588 65.9489 546.827 65.8467C547.069 65.7444 547.257 65.6023 547.389 65.4205C547.526 65.2387 547.592 65.0304 547.588 64.7955C547.592 64.5682 547.537 64.3675 547.423 64.1932C547.31 64.019 547.151 63.8826 546.946 63.7842C546.745 63.6857 546.512 63.6364 546.247 63.6364C545.959 63.6364 545.702 63.6876 545.474 63.7898C545.251 63.8921 545.075 64.0342 544.946 64.216C544.817 64.3978 544.751 64.6061 544.747 64.841H541.724C541.728 64.1288 541.923 63.5001 542.31 62.9546C542.7 62.4092 543.234 61.9811 543.912 61.6705C544.59 61.3599 545.368 61.2046 546.247 61.2046C547.107 61.2046 547.866 61.3504 548.526 61.6421C549.188 61.9338 549.705 62.3353 550.077 62.8467C550.452 63.3542 550.637 63.9357 550.634 64.591C550.641 65.2425 550.418 65.7766 549.963 66.1932C549.512 66.6099 548.94 66.8561 548.247 66.9319V67.0228C549.187 67.1251 549.893 67.4129 550.366 67.8864C550.84 68.3561 551.073 68.947 551.065 69.6592C551.069 70.341 550.865 70.9451 550.452 71.4717C550.043 71.9982 549.473 72.411 548.741 72.7103C548.014 73.0095 547.175 73.1592 546.224 73.1592Z" fill="#181818" fill-opacity="0.75"/>
<defs>
<filter id="filter0_d_120_42" x="0" y="0" width="716" height="144" filterUnits="userSpaceOnUse" color-interpolation-filters="sRGB">
<feFlood flood-opacity="0" result="BackgroundImageFix"/>
<feColorMatrix in="SourceAlpha" type="matrix" values="0 0 0 0 0 0 0 0 0 0 0 0 0 0 0 0 0 0 127 0" result="hardAlpha"/>
<feOffset dy="4"/>
<feGaussianBlur stdDeviation="4"/>
<feComposite in2="hardAlpha" operator="out"/>
<feColorMatrix type="matrix" values="0 0 0 0 0.129412 0 0 0 0 0.447059 0 0 0 0 1 0 0 0 0.25 0"/>
<feBlend mode="normal" in2="BackgroundImageFix" result="effect1_dropShadow_120_42"/>
<feBlend mode="normal" in="SourceGraphic" in2="effect1_dropShadow_120_42" result="shape"/>
</filter>
<filter id="filter1_d_120_42" x="16" y="16" width="171" height="112" filterUnits="userSpaceOnUse" color-interpolation-filters="sRGB">
<feFlood flood-opacity="0" result="BackgroundImageFix"/>
<feColorMatrix in="SourceAlpha" type="matrix" values="0 0 0 0 0 0 0 0 0 0 0 0 0 0 0 0 0 0 127 0" result="hardAlpha"/>
<feOffset dy="4"/>
<feGaussianBlur stdDeviation="4"/>
<feComposite in2="hardAlpha" operator="out"/>
<feColorMatrix type="matrix" values="0 0 0 0 1 0 0 0 0 1 0 0 0 0 1 0 0 0 0.25 0"/>
<feBlend mode="normal" in2="BackgroundImageFix" result="effect1_dropShadow_120_42"/>
<feBlend mode="normal" in="SourceGraphic" in2="effect1_dropShadow_120_42" result="shape"/>
</filter>
<filter id="filter2_d_120_42" x="187" y="16" width="171" height="112" filterUnits="userSpaceOnUse" color-interpolation-filters="sRGB">
<feFlood flood-opacity="0" result="BackgroundImageFix"/>
<feColorMatrix in="SourceAlpha" type="matrix" values="0 0 0 0 0 0 0 0 0 0 0 0 0 0 0 0 0 0 127 0" result="hardAlpha"/>
<feOffset dy="4"/>
<feGaussianBlur stdDeviation="4"/>
<feComposite in2="hardAlpha" operator="out"/>
<feColorMatrix type="matrix" values="0 0 0 0 1 0 0 0 0 1 0 0 0 0 1 0 0 0 0.25 0"/>
<feBlend mode="normal" in2="BackgroundImageFix" result="effect1_dropShadow_120_42"/>
<feBlend mode="normal" in="SourceGraphic" in2="effect1_dropShadow_120_42" result="shape"/>
</filter>
<filter id="filter3_d_120_42" x="358" y="16.0001" width="342" height="112" filterUnits="userSpaceOnUse" color-interpolation-filters="sRGB">
<feFlood flood-opacity="0" result="BackgroundImageFix"/>
<feColorMatrix in="SourceAlpha" type="matrix" values="0 0 0 0 0 0 0 0 0 0 0 0 0 0 0 0 0 0 127 0" result="hardAlpha"/>
<feOffset dy="4"/>
<feGaussianBlur stdDeviation="4"/>
<feComposite in2="hardAlpha" operator="out"/>
<feColorMatrix type="matrix" values="0 0 0 0 1 0 0 0 0 1 0 0 0 0 1 0 0 0 0.25 0"/>
<feBlend mode="normal" in2="BackgroundImageFix" result="effect1_dropShadow_120_42"/>
<feBlend mode="normal" in="SourceGraphic" in2="effect1_dropShadow_120_42" result="shape"/>
</filter>
</defs>
</svg>
