<svg width="887" height="144" viewBox="0 0 887 144" fill="none" xmlns="http://www.w3.org/2000/svg">
<g filter="url(#filter0_d_121_159)">
<rect x="8" y="4" width="871" height="128" rx="8" fill="#2172FF" fill-opacity="0.8" shape-rendering="crispEdges"/>
</g>
<g filter="url(#filter1_d_121_159)">
<rect x="24" y="20" width="155" height="96" rx="8" fill="white" fill-opacity="0.75" shape-rendering="crispEdges"/>
</g>
<path d="M80.7727 67.1136H77.8864C77.8712 66.9356 77.8087 66.7822 77.6989 66.6534C77.589 66.5246 77.447 66.4261 77.2727 66.358C77.1023 66.286 76.9129 66.25 76.7045 66.25C76.4356 66.25 76.2045 66.2992 76.0114 66.3977C75.8182 66.4962 75.7235 66.6364 75.7273 66.8182C75.7235 66.947 75.7784 67.0663 75.892 67.1761C76.0095 67.286 76.2348 67.3712 76.5682 67.4318L78.3409 67.75C79.2348 67.9129 79.8996 68.1875 80.3352 68.5739C80.7746 68.9564 80.9962 69.4697 81 70.1136C80.9962 70.7348 80.8106 71.2746 80.4432 71.733C80.0795 72.1875 79.5814 72.5398 78.9489 72.7898C78.3201 73.036 77.6023 73.1591 76.7955 73.1591C75.4621 73.1591 74.4186 72.8864 73.6648 72.3409C72.9148 71.7955 72.4962 71.0758 72.4091 70.1818H75.5227C75.5644 70.4583 75.7008 70.6723 75.9318 70.8239C76.1667 70.9716 76.4621 71.0455 76.8182 71.0455C77.1061 71.0455 77.3428 70.9962 77.5284 70.8977C77.7178 70.7992 77.8144 70.6591 77.8182 70.4773C77.8144 70.3106 77.7311 70.178 77.5682 70.0795C77.4091 69.9811 77.1591 69.9015 76.8182 69.8409L75.2727 69.5682C74.3826 69.4129 73.7159 69.1174 73.2727 68.6818C72.8295 68.2462 72.6098 67.6856 72.6136 67C72.6098 66.3939 72.7689 65.8807 73.0909 65.4602C73.4167 65.036 73.8807 64.714 74.483 64.4943C75.089 64.2708 75.8068 64.1591 76.6364 64.1591C77.8977 64.1591 78.892 64.4205 79.6193 64.9432C80.3504 65.4659 80.7348 66.1894 80.7727 67.1136ZM87.4062 64.2727V66.5455H81.6562V64.2727H87.4062ZM82.7699 62.1818H85.9062V70.1932C85.9062 70.3144 85.9271 70.4167 85.9688 70.5C86.0104 70.5795 86.0748 70.6402 86.1619 70.6818C86.2491 70.7197 86.3608 70.7386 86.4972 70.7386C86.5919 70.7386 86.7017 70.7273 86.8267 70.7045C86.9555 70.6818 87.0502 70.6629 87.1108 70.6477L87.5653 72.8523C87.4252 72.8939 87.2244 72.9451 86.9631 73.0057C86.7055 73.0663 86.3987 73.1061 86.0426 73.125C85.3229 73.1629 84.7188 73.089 84.2301 72.9034C83.7415 72.714 83.3741 72.4167 83.1278 72.0114C82.8816 71.6061 82.7623 71.0985 82.7699 70.4886V62.1818ZM88.6861 73V64.2727H91.7315V65.9318H91.8224C91.9815 65.3182 92.2334 64.8693 92.5781 64.5852C92.9266 64.3011 93.3338 64.1591 93.7997 64.1591C93.9361 64.1591 94.0705 64.1705 94.2031 64.1932C94.3395 64.2121 94.4702 64.2405 94.5952 64.2784V66.9545C94.4399 66.9015 94.2486 66.8617 94.0213 66.8352C93.794 66.8087 93.599 66.7955 93.4361 66.7955C93.1293 66.7955 92.8527 66.8655 92.6065 67.0057C92.3641 67.142 92.1728 67.3352 92.0327 67.5852C91.8925 67.8314 91.8224 68.1212 91.8224 68.4545V73H88.6861ZM99.3054 73.1591C98.3736 73.1591 97.5705 72.9811 96.8963 72.625C96.2259 72.2652 95.7088 71.75 95.3452 71.0795C94.9853 70.4053 94.8054 69.5985 94.8054 68.6591C94.8054 67.7576 94.9872 66.9697 95.3509 66.2955C95.7145 65.6212 96.2277 65.0966 96.8906 64.7216C97.5535 64.3466 98.3357 64.1591 99.2372 64.1591C99.8963 64.1591 100.493 64.2614 101.027 64.4659C101.561 64.6705 102.018 64.9678 102.396 65.358C102.775 65.7443 103.067 66.214 103.271 66.767C103.476 67.3201 103.578 67.9432 103.578 68.6364V69.3636H95.7827V67.6364H100.692C100.688 67.3864 100.624 67.1667 100.499 66.9773C100.377 66.7841 100.213 66.6345 100.004 66.5284C99.7997 66.4186 99.5668 66.3636 99.3054 66.3636C99.0516 66.3636 98.8187 66.4186 98.6065 66.5284C98.3944 66.6345 98.224 66.7822 98.0952 66.9716C97.9702 67.161 97.9039 67.3826 97.8963 67.6364V69.5C97.8963 69.7803 97.955 70.0303 98.0724 70.25C98.1899 70.4697 98.3584 70.642 98.5781 70.767C98.7978 70.892 99.063 70.9545 99.3736 70.9545C99.5895 70.9545 99.7865 70.9242 99.9645 70.8636C100.146 70.803 100.302 70.7159 100.43 70.6023C100.559 70.4848 100.654 70.3447 100.714 70.1818H103.578C103.48 70.7879 103.247 71.3144 102.879 71.7614C102.512 72.2045 102.025 72.5492 101.419 72.7955C100.817 73.0379 100.112 73.1591 99.3054 73.1591ZM110.062 64.2727V66.5455H104.312V64.2727H110.062ZM105.426 62.1818H108.562V70.1932C108.562 70.3144 108.583 70.4167 108.625 70.5C108.667 70.5795 108.731 70.6402 108.818 70.6818C108.905 70.7197 109.017 70.7386 109.153 70.7386C109.248 70.7386 109.358 70.7273 109.483 70.7045C109.612 70.6818 109.706 70.6629 109.767 70.6477L110.222 72.8523C110.081 72.8939 109.881 72.9451 109.619 73.0057C109.362 73.0663 109.055 73.1061 108.699 73.125C107.979 73.1629 107.375 73.089 106.886 72.9034C106.398 72.714 106.03 72.4167 105.784 72.0114C105.538 71.6061 105.419 71.0985 105.426 70.4886V62.1818ZM115.453 73.1591C114.506 73.1591 113.696 72.9716 113.021 72.5966C112.347 72.2178 111.83 71.6913 111.47 71.017C111.11 70.339 110.93 69.553 110.93 68.6591C110.93 67.7652 111.11 66.9811 111.47 66.3068C111.83 65.6288 112.347 65.1023 113.021 64.7273C113.696 64.3485 114.506 64.1591 115.453 64.1591C116.309 64.1591 117.05 64.3144 117.675 64.625C118.304 64.9318 118.79 65.3674 119.135 65.9318C119.48 66.4924 119.654 67.1515 119.658 67.9091H116.749C116.707 67.4508 116.574 67.1023 116.351 66.8636C116.131 66.6212 115.847 66.5 115.499 66.5C115.226 66.5 114.987 66.5795 114.783 66.7386C114.578 66.8939 114.419 67.1307 114.305 67.4489C114.192 67.7633 114.135 68.1591 114.135 68.6364C114.135 69.1136 114.192 69.5114 114.305 69.8295C114.419 70.1439 114.578 70.3807 114.783 70.5398C114.987 70.6951 115.226 70.7727 115.499 70.7727C115.73 70.7727 115.934 70.7197 116.112 70.6136C116.29 70.5038 116.434 70.3447 116.544 70.1364C116.658 69.9242 116.726 69.6667 116.749 69.3636H119.658C119.646 70.1326 119.47 70.803 119.129 71.375C118.788 71.9432 118.305 72.3826 117.68 72.6932C117.059 73.0038 116.317 73.1591 115.453 73.1591ZM124.088 68.0909V73H120.952V61.3636H123.974V65.9318H124.065C124.262 65.375 124.59 64.9413 125.048 64.6307C125.507 64.3163 126.058 64.1591 126.702 64.1591C127.319 64.1591 127.855 64.2992 128.31 64.5795C128.768 64.8598 129.122 65.2462 129.372 65.7386C129.626 66.2311 129.751 66.7955 129.747 67.4318V73H126.611V68.0909C126.615 67.6591 126.507 67.3201 126.287 67.0739C126.071 66.8277 125.762 66.7045 125.361 66.7045C125.107 66.7045 124.884 66.7614 124.69 66.875C124.501 66.9848 124.353 67.1439 124.247 67.3523C124.145 67.5568 124.092 67.803 124.088 68.0909Z" fill="#181818" fill-opacity="0.75"/>
<g filter="url(#filter2_d_121_159)">
<rect x="195" y="20" width="155" height="36" rx="8" fill="white" fill-opacity="0.75" shape-rendering="crispEdges"/>
</g>
<path d="M241.023 34.2727V36.5455H235.182V34.2727H241.023ZM236.295 43V34.0227C236.295 33.303 236.424 32.7064 236.682 32.233C236.939 31.7595 237.303 31.4053 237.773 31.1705C238.242 30.9356 238.795 30.8182 239.432 30.8182C239.83 30.8182 240.216 30.8485 240.591 30.9091C240.97 30.9697 241.25 31.0227 241.432 31.0682L240.977 33.3182C240.864 33.2841 240.731 33.2576 240.58 33.2386C240.428 33.2159 240.295 33.2045 240.182 33.2045C239.886 33.2045 239.688 33.267 239.585 33.392C239.483 33.517 239.432 33.6818 239.432 33.8864V43H236.295ZM245.369 31.3636V43H242.233V31.3636H245.369ZM251.149 43.1591C250.217 43.1591 249.414 42.9811 248.74 42.625C248.07 42.2652 247.553 41.75 247.189 41.0795C246.829 40.4053 246.649 39.5985 246.649 38.6591C246.649 37.7576 246.831 36.9697 247.195 36.2955C247.558 35.6212 248.071 35.0966 248.734 34.7216C249.397 34.3466 250.179 34.1591 251.081 34.1591C251.74 34.1591 252.337 34.2614 252.871 34.4659C253.405 34.6705 253.861 34.9678 254.24 35.358C254.619 35.7443 254.911 36.214 255.115 36.767C255.32 37.3201 255.422 37.9432 255.422 38.6364V39.3636H247.626V37.6364H252.536C252.532 37.3864 252.467 37.1667 252.342 36.9773C252.221 36.7841 252.056 36.6345 251.848 36.5284C251.643 36.4186 251.411 36.3636 251.149 36.3636C250.895 36.3636 250.662 36.4186 250.45 36.5284C250.238 36.6345 250.068 36.7822 249.939 36.9716C249.814 37.161 249.748 37.3826 249.74 37.6364V39.5C249.74 39.7803 249.799 40.0303 249.916 40.25C250.034 40.4697 250.202 40.642 250.422 40.767C250.642 40.892 250.907 40.9545 251.217 40.9545C251.433 40.9545 251.63 40.9242 251.808 40.8636C251.99 40.803 252.145 40.7159 252.274 40.6023C252.403 40.4848 252.498 40.3447 252.558 40.1818H255.422C255.323 40.7879 255.09 41.3144 254.723 41.7614C254.356 42.2045 253.869 42.5492 253.263 42.7955C252.661 43.0379 251.956 43.1591 251.149 43.1591ZM259.312 34.2727L260.585 36.9773L261.926 34.2727H265.04L262.699 38.6364L265.153 43H262.062L260.585 40.2273L259.153 43H256.017L258.494 38.6364L256.176 34.2727H259.312ZM271.523 37.1818V39.5455H266.068V37.1818H271.523ZM281.366 37.1136H278.48C278.465 36.9356 278.402 36.7822 278.293 36.6534C278.183 36.5246 278.041 36.4261 277.866 36.358C277.696 36.286 277.507 36.25 277.298 36.25C277.029 36.25 276.798 36.2992 276.605 36.3977C276.412 36.4962 276.317 36.6364 276.321 36.8182C276.317 36.947 276.372 37.0663 276.486 37.1761C276.603 37.286 276.829 37.3712 277.162 37.4318L278.935 37.75C279.829 37.9129 280.493 38.1875 280.929 38.5739C281.368 38.9564 281.59 39.4697 281.594 40.1136C281.59 40.7348 281.404 41.2746 281.037 41.733C280.673 42.1875 280.175 42.5398 279.543 42.7898C278.914 43.036 278.196 43.1591 277.389 43.1591C276.056 43.1591 275.012 42.8864 274.259 42.3409C273.509 41.7955 273.09 41.0758 273.003 40.1818H276.116C276.158 40.4583 276.295 40.6723 276.526 40.8239C276.76 40.9716 277.056 41.0455 277.412 41.0455C277.7 41.0455 277.937 40.9962 278.122 40.8977C278.312 40.7992 278.408 40.6591 278.412 40.4773C278.408 40.3106 278.325 40.178 278.162 40.0795C278.003 39.9811 277.753 39.9015 277.412 39.8409L275.866 39.5682C274.976 39.4129 274.31 39.1174 273.866 38.6818C273.423 38.2462 273.204 37.6856 273.207 37C273.204 36.3939 273.363 35.8807 273.685 35.4602C274.01 35.036 274.474 34.714 275.077 34.4943C275.683 34.2708 276.401 34.1591 277.23 34.1591C278.491 34.1591 279.486 34.4205 280.213 34.9432C280.944 35.4659 281.329 36.1894 281.366 37.1136ZM288 34.2727V36.5455H282.25V34.2727H288ZM283.364 32.1818H286.5V40.1932C286.5 40.3144 286.521 40.4167 286.562 40.5C286.604 40.5795 286.669 40.6402 286.756 40.6818C286.843 40.7197 286.955 40.7386 287.091 40.7386C287.186 40.7386 287.295 40.7273 287.42 40.7045C287.549 40.6818 287.644 40.6629 287.705 40.6477L288.159 42.8523C288.019 42.8939 287.818 42.9451 287.557 43.0057C287.299 43.0663 286.992 43.1061 286.636 43.125C285.917 43.1629 285.313 43.089 284.824 42.9034C284.335 42.714 283.968 42.4167 283.722 42.0114C283.475 41.6061 283.356 41.0985 283.364 40.4886V32.1818ZM291.712 43.1364C291.155 43.1364 290.662 43.0455 290.234 42.8636C289.81 42.678 289.477 42.3977 289.234 42.0227C288.992 41.6477 288.871 41.1705 288.871 40.5909C288.871 40.1136 288.952 39.7064 289.115 39.3693C289.278 39.0284 289.505 38.75 289.797 38.5341C290.089 38.3182 290.428 38.1534 290.814 38.0398C291.204 37.9261 291.625 37.8523 292.075 37.8182C292.564 37.7803 292.956 37.7348 293.251 37.6818C293.551 37.625 293.767 37.5473 293.899 37.4489C294.032 37.3466 294.098 37.2121 294.098 37.0455V37.0227C294.098 36.7955 294.011 36.6212 293.837 36.5C293.662 36.3788 293.439 36.3182 293.166 36.3182C292.867 36.3182 292.623 36.3845 292.433 36.517C292.248 36.6458 292.136 36.8447 292.098 37.1136H289.212C289.25 36.5833 289.418 36.0947 289.717 35.6477C290.02 35.197 290.462 34.8371 291.041 34.5682C291.621 34.2955 292.344 34.1591 293.212 34.1591C293.837 34.1591 294.397 34.233 294.893 34.3807C295.39 34.5246 295.812 34.7273 296.161 34.9886C296.509 35.2462 296.774 35.5492 296.956 35.8977C297.142 36.2424 297.234 36.6174 297.234 37.0227V43H294.303V41.7727H294.234C294.06 42.0985 293.848 42.3617 293.598 42.5625C293.352 42.7633 293.07 42.9091 292.751 43C292.437 43.0909 292.09 43.1364 291.712 43.1364ZM292.734 41.1591C292.973 41.1591 293.196 41.1098 293.405 41.0114C293.617 40.9129 293.789 40.7708 293.922 40.5852C294.054 40.3996 294.121 40.1742 294.121 39.9091V39.1818C294.037 39.2159 293.948 39.2481 293.854 39.2784C293.763 39.3087 293.664 39.3371 293.558 39.3636C293.456 39.3902 293.346 39.4148 293.229 39.4375C293.115 39.4602 292.996 39.4811 292.871 39.5C292.628 39.5379 292.429 39.6004 292.274 39.6875C292.123 39.7708 292.009 39.875 291.933 40C291.861 40.1212 291.825 40.2576 291.825 40.4091C291.825 40.6515 291.911 40.8371 292.081 40.9659C292.251 41.0947 292.469 41.1591 292.734 41.1591ZM298.733 43V34.2727H301.778V35.9318H301.869C302.028 35.3182 302.28 34.8693 302.625 34.5852C302.973 34.3011 303.381 34.1591 303.847 34.1591C303.983 34.1591 304.117 34.1705 304.25 34.1932C304.386 34.2121 304.517 34.2405 304.642 34.2784V36.9545C304.487 36.9015 304.295 36.8617 304.068 36.8352C303.841 36.8087 303.646 36.7955 303.483 36.7955C303.176 36.7955 302.9 36.8655 302.653 37.0057C302.411 37.142 302.22 37.3352 302.08 37.5852C301.939 37.8314 301.869 38.1212 301.869 38.4545V43H298.733ZM311.234 34.2727V36.5455H305.484V34.2727H311.234ZM306.598 32.1818H309.734V40.1932C309.734 40.3144 309.755 40.4167 309.797 40.5C309.839 40.5795 309.903 40.6402 309.99 40.6818C310.077 40.7197 310.189 40.7386 310.325 40.7386C310.42 40.7386 310.53 40.7273 310.655 40.7045C310.784 40.6818 310.878 40.6629 310.939 40.6477L311.393 42.8523C311.253 42.8939 311.053 42.9451 310.791 43.0057C310.534 43.0663 310.227 43.1061 309.871 43.125C309.151 43.1629 308.547 43.089 308.058 42.9034C307.57 42.714 307.202 42.4167 306.956 42.0114C306.71 41.6061 306.59 41.0985 306.598 40.4886V32.1818Z" fill="#181818" fill-opacity="0.75"/>
<g filter="url(#filter3_d_121_159)">
<rect x="366" y="80" width="155" height="36" rx="8" fill="white" fill-opacity="0.75" shape-rendering="crispEdges"/>
</g>
<path d="M415.023 94.2727V96.5455H409.182V94.2727H415.023ZM410.295 103V94.0227C410.295 93.303 410.424 92.7064 410.682 92.233C410.939 91.7595 411.303 91.4053 411.773 91.1705C412.242 90.9356 412.795 90.8182 413.432 90.8182C413.83 90.8182 414.216 90.8485 414.591 90.9091C414.97 90.9697 415.25 91.0227 415.432 91.0682L414.977 93.3182C414.864 93.2841 414.731 93.2576 414.58 93.2386C414.428 93.2159 414.295 93.2045 414.182 93.2045C413.886 93.2045 413.688 93.267 413.585 93.392C413.483 93.517 413.432 93.6818 413.432 93.8864V103H410.295ZM419.369 91.3636V103H416.233V91.3636H419.369ZM425.149 103.159C424.217 103.159 423.414 102.981 422.74 102.625C422.07 102.265 421.553 101.75 421.189 101.08C420.829 100.405 420.649 99.5985 420.649 98.6591C420.649 97.7576 420.831 96.9697 421.195 96.2955C421.558 95.6212 422.071 95.0966 422.734 94.7216C423.397 94.3466 424.179 94.1591 425.081 94.1591C425.74 94.1591 426.337 94.2614 426.871 94.4659C427.405 94.6705 427.861 94.9678 428.24 95.358C428.619 95.7443 428.911 96.214 429.115 96.767C429.32 97.3201 429.422 97.9432 429.422 98.6364V99.3636H421.626V97.6364H426.536C426.532 97.3864 426.467 97.1667 426.342 96.9773C426.221 96.7841 426.056 96.6345 425.848 96.5284C425.643 96.4186 425.411 96.3636 425.149 96.3636C424.895 96.3636 424.662 96.4186 424.45 96.5284C424.238 96.6345 424.068 96.7822 423.939 96.9716C423.814 97.161 423.748 97.3826 423.74 97.6364V99.5C423.74 99.7803 423.799 100.03 423.916 100.25C424.034 100.47 424.202 100.642 424.422 100.767C424.642 100.892 424.907 100.955 425.217 100.955C425.433 100.955 425.63 100.924 425.808 100.864C425.99 100.803 426.145 100.716 426.274 100.602C426.403 100.485 426.498 100.345 426.558 100.182H429.422C429.323 100.788 429.09 101.314 428.723 101.761C428.356 102.205 427.869 102.549 427.263 102.795C426.661 103.038 425.956 103.159 425.149 103.159ZM433.312 94.2727L434.585 96.9773L435.926 94.2727H439.04L436.699 98.6364L439.153 103H436.062L434.585 100.227L433.153 103H430.017L432.494 98.6364L430.176 94.2727H433.312ZM445.523 97.1818V99.5455H440.068V97.1818H445.523ZM451.571 103.159C450.639 103.159 449.836 102.981 449.162 102.625C448.491 102.265 447.974 101.75 447.611 101.08C447.251 100.405 447.071 99.5985 447.071 98.6591C447.071 97.7576 447.253 96.9697 447.616 96.2955C447.98 95.6212 448.493 95.0966 449.156 94.7216C449.819 94.3466 450.601 94.1591 451.503 94.1591C452.162 94.1591 452.759 94.2614 453.293 94.4659C453.827 94.6705 454.283 94.9678 454.662 95.358C455.041 95.7443 455.332 96.214 455.537 96.767C455.741 97.3201 455.844 97.9432 455.844 98.6364V99.3636H448.048V97.6364H452.957C452.954 97.3864 452.889 97.1667 452.764 96.9773C452.643 96.7841 452.478 96.6345 452.27 96.5284C452.065 96.4186 451.832 96.3636 451.571 96.3636C451.317 96.3636 451.084 96.4186 450.872 96.5284C450.66 96.6345 450.49 96.7822 450.361 96.9716C450.236 97.161 450.17 97.3826 450.162 97.6364V99.5C450.162 99.7803 450.221 100.03 450.338 100.25C450.455 100.47 450.624 100.642 450.844 100.767C451.063 100.892 451.329 100.955 451.639 100.955C451.855 100.955 452.052 100.924 452.23 100.864C452.412 100.803 452.567 100.716 452.696 100.602C452.825 100.485 452.92 100.345 452.98 100.182H455.844C455.745 100.788 455.512 101.314 455.145 101.761C454.777 102.205 454.291 102.549 453.685 102.795C453.082 103.038 452.378 103.159 451.571 103.159ZM460.26 98.0909V103H457.124V94.2727H460.101V95.9318H460.192C460.381 95.3788 460.714 94.9451 461.192 94.6307C461.673 94.3163 462.233 94.1591 462.874 94.1591C463.491 94.1591 464.027 94.3011 464.482 94.5852C464.94 94.8655 465.294 95.2519 465.544 95.7443C465.798 96.2367 465.923 96.7992 465.919 97.4318V103H462.783V98.0909C462.786 97.6591 462.677 97.3201 462.453 97.0739C462.233 96.8277 461.927 96.7045 461.533 96.7045C461.275 96.7045 461.05 96.7614 460.857 96.875C460.667 96.9848 460.521 97.1439 460.419 97.3523C460.317 97.5568 460.264 97.803 460.26 98.0909ZM470.626 103.114C470.005 103.114 469.433 102.951 468.911 102.625C468.392 102.299 467.975 101.805 467.661 101.142C467.35 100.479 467.195 99.6439 467.195 98.6364C467.195 97.5833 467.357 96.7273 467.683 96.0682C468.013 95.4091 468.437 94.9261 468.956 94.6193C469.479 94.3125 470.028 94.1591 470.604 94.1591C471.036 94.1591 471.414 94.2348 471.74 94.3864C472.066 94.5341 472.339 94.733 472.558 94.983C472.778 95.2292 472.945 95.5 473.058 95.7955H473.104V91.3636H476.24V103H473.126V101.568H473.058C472.937 101.864 472.763 102.129 472.536 102.364C472.312 102.595 472.039 102.778 471.717 102.915C471.399 103.047 471.036 103.114 470.626 103.114ZM471.786 100.705C472.073 100.705 472.32 100.621 472.524 100.455C472.732 100.284 472.892 100.045 473.001 99.7386C473.115 99.428 473.172 99.0606 473.172 98.6364C473.172 98.2045 473.115 97.8352 473.001 97.5284C472.892 97.2178 472.732 96.9811 472.524 96.8182C472.32 96.6515 472.073 96.5682 471.786 96.5682C471.498 96.5682 471.251 96.6515 471.047 96.8182C470.846 96.9811 470.691 97.2178 470.581 97.5284C470.475 97.8352 470.422 98.2045 470.422 98.6364C470.422 99.0682 470.475 99.4394 470.581 99.75C470.691 100.057 470.846 100.294 471.047 100.46C471.251 100.623 471.498 100.705 471.786 100.705Z" fill="#181818" fill-opacity="0.75"/>
<g filter="url(#filter4_d_121_159)">
<rect x="537" y="50" width="155" height="36" rx="8" fill="white" fill-opacity="0.75" shape-rendering="crispEdges"/>
</g>
<path d="M593 73.1591C592.053 73.1591 591.242 72.9716 590.568 72.5966C589.894 72.2178 589.377 71.6913 589.017 71.017C588.657 70.339 588.477 69.553 588.477 68.6591C588.477 67.7651 588.657 66.981 589.017 66.3068C589.377 65.6288 589.894 65.1022 590.568 64.7272C591.242 64.3485 592.053 64.1591 593 64.1591C593.856 64.1591 594.597 64.3144 595.222 64.625C595.85 64.9318 596.337 65.3674 596.682 65.9318C597.027 66.4924 597.201 67.1515 597.205 67.9091H594.295C594.254 67.4507 594.121 67.1022 593.898 66.8636C593.678 66.6212 593.394 66.5 593.045 66.5C592.773 66.5 592.534 66.5795 592.33 66.7386C592.125 66.8939 591.966 67.1307 591.852 67.4488C591.739 67.7632 591.682 68.1591 591.682 68.6363C591.682 69.1136 591.739 69.5113 591.852 69.8295C591.966 70.1439 592.125 70.3807 592.33 70.5397C592.534 70.695 592.773 70.7727 593.045 70.7727C593.277 70.7727 593.481 70.7197 593.659 70.6136C593.837 70.5038 593.981 70.3447 594.091 70.1363C594.205 69.9242 594.273 69.6666 594.295 69.3636H597.205C597.193 70.1325 597.017 70.803 596.676 71.375C596.335 71.9432 595.852 72.3825 595.227 72.6932C594.606 73.0038 593.864 73.1591 593 73.1591ZM602.68 73.1591C601.749 73.1591 600.946 72.981 600.271 72.625C599.601 72.2651 599.084 71.75 598.72 71.0795C598.36 70.4053 598.18 69.5985 598.18 68.6591C598.18 67.7575 598.362 66.9697 598.726 66.2954C599.089 65.6212 599.603 65.0966 600.266 64.7216C600.929 64.3466 601.711 64.1591 602.612 64.1591C603.271 64.1591 603.868 64.2613 604.402 64.4659C604.936 64.6704 605.393 64.9678 605.771 65.3579C606.15 65.7443 606.442 66.214 606.646 66.767C606.851 67.32 606.953 67.9432 606.953 68.6363V69.3636H599.158V67.6363H604.067C604.063 67.3863 603.999 67.1666 603.874 66.9772C603.752 66.7841 603.588 66.6344 603.379 66.5284C603.175 66.4185 602.942 66.3636 602.68 66.3636C602.427 66.3636 602.194 66.4185 601.982 66.5284C601.769 66.6344 601.599 66.7822 601.47 66.9716C601.345 67.161 601.279 67.3825 601.271 67.6363V69.5C601.271 69.7803 601.33 70.0303 601.447 70.25C601.565 70.4697 601.733 70.642 601.953 70.767C602.173 70.892 602.438 70.9545 602.749 70.9545C602.964 70.9545 603.161 70.9242 603.339 70.8636C603.521 70.803 603.677 70.7159 603.805 70.6022C603.934 70.4848 604.029 70.3447 604.089 70.1818H606.953C606.855 70.7878 606.622 71.3144 606.254 71.7613C605.887 72.2045 605.4 72.5492 604.794 72.7954C604.192 73.0378 603.487 73.1591 602.68 73.1591ZM611.369 68.0909V73H608.233V64.2727H611.21V65.9318H611.301C611.491 65.3788 611.824 64.945 612.301 64.6307C612.782 64.3163 613.343 64.1591 613.983 64.1591C614.6 64.1591 615.136 64.3011 615.591 64.5852C616.049 64.8655 616.403 65.2519 616.653 65.7443C616.907 66.2367 617.032 66.7992 617.028 67.4318V73H613.892V68.0909C613.896 67.6591 613.786 67.32 613.562 67.0738C613.343 66.8276 613.036 66.7045 612.642 66.7045C612.384 66.7045 612.159 66.7613 611.966 66.875C611.777 66.9848 611.631 67.1439 611.528 67.3522C611.426 67.5568 611.373 67.803 611.369 68.0909ZM623.781 64.2727V66.5454H618.031V64.2727H623.781ZM619.145 62.1818H622.281V70.1932C622.281 70.3144 622.302 70.4166 622.344 70.5C622.385 70.5795 622.45 70.6401 622.537 70.6818C622.624 70.7197 622.736 70.7386 622.872 70.7386C622.967 70.7386 623.077 70.7272 623.202 70.7045C623.33 70.6818 623.425 70.6628 623.486 70.6477L623.94 72.8522C623.8 72.8939 623.599 72.945 623.338 73.0057C623.08 73.0663 622.774 73.106 622.418 73.125C621.698 73.1628 621.094 73.089 620.605 72.9034C620.116 72.714 619.749 72.4166 619.503 72.0113C619.257 71.606 619.137 71.0985 619.145 70.4886V62.1818ZM629.149 73.1591C628.217 73.1591 627.414 72.981 626.74 72.625C626.07 72.2651 625.553 71.75 625.189 71.0795C624.829 70.4053 624.649 69.5985 624.649 68.6591C624.649 67.7575 624.831 66.9697 625.195 66.2954C625.558 65.6212 626.071 65.0966 626.734 64.7216C627.397 64.3466 628.179 64.1591 629.081 64.1591C629.74 64.1591 630.337 64.2613 630.871 64.4659C631.405 64.6704 631.861 64.9678 632.24 65.3579C632.619 65.7443 632.911 66.214 633.115 66.767C633.32 67.32 633.422 67.9432 633.422 68.6363V69.3636H625.626V67.6363H630.536C630.532 67.3863 630.467 67.1666 630.342 66.9772C630.221 66.7841 630.056 66.6344 629.848 66.5284C629.643 66.4185 629.411 66.3636 629.149 66.3636C628.895 66.3636 628.662 66.4185 628.45 66.5284C628.238 66.6344 628.068 66.7822 627.939 66.9716C627.814 67.161 627.748 67.3825 627.74 67.6363V69.5C627.74 69.7803 627.799 70.0303 627.916 70.25C628.034 70.4697 628.202 70.642 628.422 70.767C628.642 70.892 628.907 70.9545 629.217 70.9545C629.433 70.9545 629.63 70.9242 629.808 70.8636C629.99 70.803 630.145 70.7159 630.274 70.6022C630.403 70.4848 630.498 70.3447 630.558 70.1818H633.422C633.323 70.7878 633.09 71.3144 632.723 71.7613C632.356 72.2045 631.869 72.5492 631.263 72.7954C630.661 73.0378 629.956 73.1591 629.149 73.1591ZM634.702 73V64.2727H637.747V65.9318H637.838C637.997 65.3182 638.249 64.8693 638.594 64.5852C638.942 64.3011 639.349 64.1591 639.815 64.1591C639.952 64.1591 640.086 64.1704 640.219 64.1932C640.355 64.2121 640.486 64.2405 640.611 64.2784V66.9545C640.455 66.9015 640.264 66.8617 640.037 66.8352C639.81 66.8087 639.615 66.7954 639.452 66.7954C639.145 66.7954 638.868 66.8655 638.622 67.0057C638.38 67.142 638.188 67.3352 638.048 67.5852C637.908 67.8314 637.838 68.1212 637.838 68.4545V73H634.702Z" fill="#181818" fill-opacity="0.75"/>
<g filter="url(#filter5_d_121_159)">
<rect x="708" y="20" width="155" height="36" rx="8" fill="white" fill-opacity="0.75" shape-rendering="crispEdges"/>
</g>
<path d="M755.75 43V31.3636H758.886V35.7955H758.932C759.045 35.5 759.212 35.2292 759.432 34.983C759.652 34.733 759.924 34.5341 760.25 34.3864C760.576 34.2348 760.955 34.1591 761.386 34.1591C761.962 34.1591 762.509 34.3125 763.028 34.6193C763.551 34.9261 763.975 35.4091 764.301 36.0682C764.631 36.7273 764.795 37.5833 764.795 38.6364C764.795 39.6439 764.638 40.4792 764.324 41.142C764.013 41.8049 763.597 42.2992 763.074 42.625C762.555 42.9508 761.985 43.1136 761.364 43.1136C760.955 43.1136 760.589 43.0473 760.267 42.9148C759.949 42.7784 759.676 42.5947 759.449 42.3636C759.225 42.1288 759.053 41.8636 758.932 41.5682H758.864V43H755.75ZM758.818 38.6364C758.818 39.0606 758.873 39.428 758.983 39.7386C759.097 40.0455 759.256 40.2841 759.46 40.4545C759.669 40.6212 759.917 40.7045 760.205 40.7045C760.492 40.7045 760.737 40.6231 760.938 40.4602C761.142 40.2936 761.297 40.0568 761.403 39.75C761.513 39.4394 761.568 39.0682 761.568 38.6364C761.568 38.2045 761.513 37.8352 761.403 37.5284C761.297 37.2178 761.142 36.9811 760.938 36.8182C760.737 36.6515 760.492 36.5682 760.205 36.5682C759.917 36.5682 759.669 36.6515 759.46 36.8182C759.256 36.9811 759.097 37.2178 758.983 37.5284C758.873 37.8352 758.818 38.2045 758.818 38.6364ZM768.54 43.1364C767.983 43.1364 767.491 43.0455 767.062 42.8636C766.638 42.678 766.305 42.3977 766.062 42.0227C765.82 41.6477 765.699 41.1705 765.699 40.5909C765.699 40.1136 765.78 39.7064 765.943 39.3693C766.106 39.0284 766.333 38.75 766.625 38.5341C766.917 38.3182 767.256 38.1534 767.642 38.0398C768.032 37.9261 768.453 37.8523 768.903 37.8182C769.392 37.7803 769.784 37.7348 770.08 37.6818C770.379 37.625 770.595 37.5473 770.727 37.4489C770.86 37.3466 770.926 37.2121 770.926 37.0455V37.0227C770.926 36.7955 770.839 36.6212 770.665 36.5C770.491 36.3788 770.267 36.3182 769.994 36.3182C769.695 36.3182 769.451 36.3845 769.261 36.517C769.076 36.6458 768.964 36.8447 768.926 37.1136H766.04C766.078 36.5833 766.246 36.0947 766.545 35.6477C766.848 35.197 767.29 34.8371 767.869 34.5682C768.449 34.2955 769.172 34.1591 770.04 34.1591C770.665 34.1591 771.225 34.233 771.722 34.3807C772.218 34.5246 772.64 34.7273 772.989 34.9886C773.337 35.2462 773.602 35.5492 773.784 35.8977C773.97 36.2424 774.062 36.6174 774.062 37.0227V43H771.131V41.7727H771.062C770.888 42.0985 770.676 42.3617 770.426 42.5625C770.18 42.7633 769.898 42.9091 769.58 43C769.265 43.0909 768.919 43.1364 768.54 43.1364ZM769.562 41.1591C769.801 41.1591 770.025 41.1098 770.233 41.0114C770.445 40.9129 770.617 40.7708 770.75 40.5852C770.883 40.3996 770.949 40.1742 770.949 39.9091V39.1818C770.866 39.2159 770.777 39.2481 770.682 39.2784C770.591 39.3087 770.492 39.3371 770.386 39.3636C770.284 39.3902 770.174 39.4148 770.057 39.4375C769.943 39.4602 769.824 39.4811 769.699 39.5C769.456 39.5379 769.258 39.6004 769.102 39.6875C768.951 39.7708 768.837 39.875 768.761 40C768.689 40.1212 768.653 40.2576 768.653 40.4091C768.653 40.6515 768.739 40.8371 768.909 40.9659C769.08 41.0947 769.297 41.1591 769.562 41.1591ZM783.538 37.1136H780.652C780.637 36.9356 780.574 36.7822 780.464 36.6534C780.355 36.5246 780.213 36.4261 780.038 36.358C779.868 36.286 779.679 36.25 779.47 36.25C779.201 36.25 778.97 36.2992 778.777 36.3977C778.584 36.4962 778.489 36.6364 778.493 36.8182C778.489 36.947 778.544 37.0663 778.658 37.1761C778.775 37.286 779 37.3712 779.334 37.4318L781.107 37.75C782 37.9129 782.665 38.1875 783.101 38.5739C783.54 38.9564 783.762 39.4697 783.766 40.1136C783.762 40.7348 783.576 41.2746 783.209 41.733C782.845 42.1875 782.347 42.5398 781.714 42.7898C781.086 43.036 780.368 43.1591 779.561 43.1591C778.228 43.1591 777.184 42.8864 776.43 42.3409C775.68 41.7955 775.262 41.0758 775.175 40.1818H778.288C778.33 40.4583 778.466 40.6723 778.697 40.8239C778.932 40.9716 779.228 41.0455 779.584 41.0455C779.872 41.0455 780.108 40.9962 780.294 40.8977C780.483 40.7992 780.58 40.6591 780.584 40.4773C780.58 40.3106 780.497 40.178 780.334 40.0795C780.175 39.9811 779.925 39.9015 779.584 39.8409L778.038 39.5682C777.148 39.4129 776.482 39.1174 776.038 38.6818C775.595 38.2462 775.375 37.6856 775.379 37C775.375 36.3939 775.535 35.8807 775.857 35.4602C776.182 35.036 776.646 34.714 777.249 34.4943C777.855 34.2708 778.572 34.1591 779.402 34.1591C780.663 34.1591 781.658 34.4205 782.385 34.9432C783.116 35.4659 783.5 36.1894 783.538 37.1136ZM789.149 43.1591C788.217 43.1591 787.414 42.9811 786.74 42.625C786.07 42.2652 785.553 41.75 785.189 41.0795C784.829 40.4053 784.649 39.5985 784.649 38.6591C784.649 37.7576 784.831 36.9697 785.195 36.2955C785.558 35.6212 786.071 35.0966 786.734 34.7216C787.397 34.3466 788.179 34.1591 789.081 34.1591C789.74 34.1591 790.337 34.2614 790.871 34.4659C791.405 34.6705 791.861 34.9678 792.24 35.358C792.619 35.7443 792.911 36.214 793.115 36.767C793.32 37.3201 793.422 37.9432 793.422 38.6364V39.3636H785.626V37.6364H790.536C790.532 37.3864 790.467 37.1667 790.342 36.9773C790.221 36.7841 790.056 36.6345 789.848 36.5284C789.643 36.4186 789.411 36.3636 789.149 36.3636C788.895 36.3636 788.662 36.4186 788.45 36.5284C788.238 36.6345 788.068 36.7822 787.939 36.9716C787.814 37.161 787.748 37.3826 787.74 37.6364V39.5C787.74 39.7803 787.799 40.0303 787.916 40.25C788.034 40.4697 788.202 40.642 788.422 40.767C788.642 40.892 788.907 40.9545 789.217 40.9545C789.433 40.9545 789.63 40.9242 789.808 40.8636C789.99 40.803 790.145 40.7159 790.274 40.6023C790.403 40.4848 790.498 40.3447 790.558 40.1818H793.422C793.323 40.7879 793.09 41.3144 792.723 41.7614C792.356 42.2045 791.869 42.5492 791.263 42.7955C790.661 43.0379 789.956 43.1591 789.149 43.1591ZM797.838 31.3636V43H794.702V31.3636H797.838ZM799.436 43V34.2727H802.572V43H799.436ZM801.004 33.3636C800.58 33.3636 800.216 33.2235 799.913 32.9432C799.61 32.6629 799.459 32.3258 799.459 31.9318C799.459 31.5379 799.61 31.2008 799.913 30.9205C800.216 30.6402 800.58 30.5 801.004 30.5C801.432 30.5 801.796 30.6402 802.095 30.9205C802.398 31.2008 802.55 31.5379 802.55 31.9318C802.55 32.3258 802.398 32.6629 802.095 32.9432C801.796 33.2235 801.432 33.3636 801.004 33.3636ZM807.307 38.0909V43H804.17V34.2727H807.148V35.9318H807.239C807.428 35.3788 807.761 34.9451 808.239 34.6307C808.72 34.3163 809.28 34.1591 809.92 34.1591C810.538 34.1591 811.074 34.3011 811.528 34.5852C811.987 34.8655 812.341 35.2519 812.591 35.7443C812.845 36.2367 812.97 36.7992 812.966 37.4318V43H809.83V38.0909C809.833 37.6591 809.723 37.3201 809.5 37.0739C809.28 36.8277 808.973 36.7045 808.58 36.7045C808.322 36.7045 808.097 36.7614 807.903 36.875C807.714 36.9848 807.568 37.1439 807.466 37.3523C807.364 37.5568 807.311 37.803 807.307 38.0909ZM818.696 43.1591C817.764 43.1591 816.961 42.9811 816.287 42.625C815.616 42.2652 815.099 41.75 814.736 41.0795C814.376 40.4053 814.196 39.5985 814.196 38.6591C814.196 37.7576 814.378 36.9697 814.741 36.2955C815.105 35.6212 815.618 35.0966 816.281 34.7216C816.944 34.3466 817.726 34.1591 818.628 34.1591C819.287 34.1591 819.884 34.2614 820.418 34.4659C820.952 34.6705 821.408 34.9678 821.787 35.358C822.166 35.7443 822.457 36.214 822.662 36.767C822.866 37.3201 822.969 37.9432 822.969 38.6364V39.3636H815.173V37.6364H820.082C820.079 37.3864 820.014 37.1667 819.889 36.9773C819.768 36.7841 819.603 36.6345 819.395 36.5284C819.19 36.4186 818.957 36.3636 818.696 36.3636C818.442 36.3636 818.209 36.4186 817.997 36.5284C817.785 36.6345 817.615 36.7822 817.486 36.9716C817.361 37.161 817.295 37.3826 817.287 37.6364V39.5C817.287 39.7803 817.346 40.0303 817.463 40.25C817.58 40.4697 817.749 40.642 817.969 40.767C818.188 40.892 818.454 40.9545 818.764 40.9545C818.98 40.9545 819.177 40.9242 819.355 40.8636C819.537 40.803 819.692 40.7159 819.821 40.6023C819.95 40.4848 820.045 40.3447 820.105 40.1818H822.969C822.87 40.7879 822.637 41.3144 822.27 41.7614C821.902 42.2045 821.416 42.5492 820.81 42.7955C820.207 43.0379 819.503 43.1591 818.696 43.1591Z" fill="#181818" fill-opacity="0.75"/>
<defs>
<filter id="filter0_d_121_159" x="0" y="0" width="887" height="144" filterUnits="userSpaceOnUse" color-interpolation-filters="sRGB">
<feFlood flood-opacity="0" result="BackgroundImageFix"/>
<feColorMatrix in="SourceAlpha" type="matrix" values="0 0 0 0 0 0 0 0 0 0 0 0 0 0 0 0 0 0 127 0" result="hardAlpha"/>
<feOffset dy="4"/>
<feGaussianBlur stdDeviation="4"/>
<feComposite in2="hardAlpha" operator="out"/>
<feColorMatrix type="matrix" values="0 0 0 0 0.129412 0 0 0 0 0.447059 0 0 0 0 1 0 0 0 0.25 0"/>
<feBlend mode="normal" in2="BackgroundImageFix" result="effect1_dropShadow_121_159"/>
<feBlend mode="normal" in="SourceGraphic" in2="effect1_dropShadow_121_159" result="shape"/>
</filter>
<filter id="filter1_d_121_159" x="16" y="16" width="171" height="112" filterUnits="userSpaceOnUse" color-interpolation-filters="sRGB">
<feFlood flood-opacity="0" result="BackgroundImageFix"/>
<feColorMatrix in="SourceAlpha" type="matrix" values="0 0 0 0 0 0 0 0 0 0 0 0 0 0 0 0 0 0 127 0" result="hardAlpha"/>
<feOffset dy="4"/>
<feGaussianBlur stdDeviation="4"/>
<feComposite in2="hardAlpha" operator="out"/>
<feColorMatrix type="matrix" values="0 0 0 0 1 0 0 0 0 1 0 0 0 0 1 0 0 0 0.25 0"/>
<feBlend mode="normal" in2="BackgroundImageFix" result="effect1_dropShadow_121_159"/>
<feBlend mode="normal" in="SourceGraphic" in2="effect1_dropShadow_121_159" result="shape"/>
</filter>
<filter id="filter2_d_121_159" x="187" y="16" width="171" height="52" filterUnits="userSpaceOnUse" color-interpolation-filters="sRGB">
<feFlood flood-opacity="0" result="BackgroundImageFix"/>
<feColorMatrix in="SourceAlpha" type="matrix" values="0 0 0 0 0 0 0 0 0 0 0 0 0 0 0 0 0 0 127 0" result="hardAlpha"/>
<feOffset dy="4"/>
<feGaussianBlur stdDeviation="4"/>
<feComposite in2="hardAlpha" operator="out"/>
<feColorMatrix type="matrix" values="0 0 0 0 1 0 0 0 0 1 0 0 0 0 1 0 0 0 0.25 0"/>
<feBlend mode="normal" in2="BackgroundImageFix" result="effect1_dropShadow_121_159"/>
<feBlend mode="normal" in="SourceGraphic" in2="effect1_dropShadow_121_159" result="shape"/>
</filter>
<filter id="filter3_d_121_159" x="358" y="76" width="171" height="52" filterUnits="userSpaceOnUse" color-interpolation-filters="sRGB">
<feFlood flood-opacity="0" result="BackgroundImageFix"/>
<feColorMatrix in="SourceAlpha" type="matrix" values="0 0 0 0 0 0 0 0 0 0 0 0 0 0 0 0 0 0 127 0" result="hardAlpha"/>
<feOffset dy="4"/>
<feGaussianBlur stdDeviation="4"/>
<feComposite in2="hardAlpha" operator="out"/>
<feColorMatrix type="matrix" values="0 0 0 0 1 0 0 0 0 1 0 0 0 0 1 0 0 0 0.25 0"/>
<feBlend mode="normal" in2="BackgroundImageFix" result="effect1_dropShadow_121_159"/>
<feBlend mode="normal" in="SourceGraphic" in2="effect1_dropShadow_121_159" result="shape"/>
</filter>
<filter id="filter4_d_121_159" x="529" y="46" width="171" height="52" filterUnits="userSpaceOnUse" color-interpolation-filters="sRGB">
<feFlood flood-opacity="0" result="BackgroundImageFix"/>
<feColorMatrix in="SourceAlpha" type="matrix" values="0 0 0 0 0 0 0 0 0 0 0 0 0 0 0 0 0 0 127 0" result="hardAlpha"/>
<feOffset dy="4"/>
<feGaussianBlur stdDeviation="4"/>
<feComposite in2="hardAlpha" operator="out"/>
<feColorMatrix type="matrix" values="0 0 0 0 1 0 0 0 0 1 0 0 0 0 1 0 0 0 0.25 0"/>
<feBlend mode="normal" in2="BackgroundImageFix" result="effect1_dropShadow_121_159"/>
<feBlend mode="normal" in="SourceGraphic" in2="effect1_dropShadow_121_159" result="shape"/>
</filter>
<filter id="filter5_d_121_159" x="700" y="16" width="171" height="52" filterUnits="userSpaceOnUse" color-interpolation-filters="sRGB">
<feFlood flood-opacity="0" result="BackgroundImageFix"/>
<feColorMatrix in="SourceAlpha" type="matrix" values="0 0 0 0 0 0 0 0 0 0 0 0 0 0 0 0 0 0 127 0" result="hardAlpha"/>
<feOffset dy="4"/>
<feGaussianBlur stdDeviation="4"/>
<feComposite in2="hardAlpha" operator="out"/>
<feColorMatrix type="matrix" values="0 0 0 0 1 0 0 0 0 1 0 0 0 0 1 0 0 0 0.25 0"/>
<feBlend mode="normal" in2="BackgroundImageFix" result="effect1_dropShadow_121_159"/>
<feBlend mode="normal" in="SourceGraphic" in2="effect1_dropShadow_121_159" result="shape"/>
</filter>
</defs>
</svg>
